<?xml version="1.0" encoding="utf-8"?>
<!-- Generator: Adobe Illustrator 26.0.2, SVG Export Plug-In . SVG Version: 6.00 Build 0)  -->
<svg version="1.1" id="Layer_1" xmlns="http://www.w3.org/2000/svg" xmlns:xlink="http://www.w3.org/1999/xlink" x="0px" y="0px"
	 viewBox="0 0 1920 1080" style="enable-background:new 0 0 1920 1080;" xml:space="preserve">
<g>
	<g>
		<path d="M987.83,897.48c4.77,0.84,8.69,0.95,12.54-0.69c2.2-0.93,2.93-2.19,2.58-4.62c-3.76-25.67-7.81-51.3-10.92-77.05
			c-1.26-10.5-2.77-21.02-2.65-31.74c0.22-19.82-3-39.46-4.11-59.22c-0.47-8.31-0.41-16.64-0.66-24.96
			c-0.06-2.04,0.24-4.22-1.35-6.76c-1.85,4.62-2.21,8.89-2.94,13.04c-3.15,18.01-5.95,36.1-8.9,54.13
			c-2.69,16.47-2.37,33.48-0.81,50.27c0.37,3.98,1.28,7.97,1.12,11.92c-0.68,16.11,4.63,31.53,5.17,47.51
			c0.36,10.64,1.56,21.25,2.35,31.87c0.07,0.99-0.07,1.99-0.18,2.98c-0.11,0.99-0.23,2.24-1.42,2.34c-1.37,0.12-2.07-1.05-2.27-2.24
			c-0.73-4.43-1.41-8.87-2-13.32c-1.72-12.87-2.23-26.04-5.41-38.54c-3.48-13.72-2.35-27.81-5.4-41.46
			c-0.75-3.36-0.79-6.97-0.65-10.44c1.18-29.31,1.6-58.61,0.89-87.94c-0.26-10.92-0.04-21.85-0.04-32.99
			c-3.14,0.62-2.9,2.74-3.27,4.39c-3.63,16.41-6.58,33.01-11.03,49.19c-3.81,13.86-4.23,27.93-5.07,41.99
			c-0.44,7.25,0.99,14.6,1.13,21.91c0.57,28.46,1.67,56.88,3.97,85.26c0.47,5.79,0.71,11.63-0.4,17.42
			c-0.75,3.92,0.5,5.94,4.95,5.66c4.79-0.29,9.62-0.03,14.43-0.05c1.16,0,2.54-0.32,3.06,1.02c0.61,1.55-0.68,2.48-1.71,3.26
			c-2.32,1.75-4.98,1.47-7.67,1.13c-3.62-0.46-7.6-1.89-10.79-0.89c-4.09,1.28-1.97,6.37-3.22,9.64
			c-3.51,9.21-5.54,18.87-5.76,28.72c-0.13,5.61,0.59,11.29,1.5,16.84c0.72,4.42-2.04,7.87-2.47,11.96
			c-0.24,2.31-3.08,1.9-4.51,0.72c-4.38-3.61-9.79-5.49-14.19-9.19c-5.73-4.81-13.25-4.44-20.24-4.82
			c-5.79-0.32-11.63,0.33-17.45,0.41c-2.51,0.03-3.33,0.8-3.3,3.54c0.15,14.29-0.11,28.59,0.03,42.89
			c0.12,12.43,0.78,24.86,0.82,37.29c0.03,10.3-1.65,20.72-0.53,30.87c2.47,22.27-0.42,44.48,0.64,66.69
			c0.21,4.49,1.82,8.63,3.4,12.86c1.87,5.02,3.83,10.46-0.77,15.46c-1.03,1.12-2.11,2.99-1.06,4.55c0.86,1.27,2.5,0.29,3.74,0.06
			c6.44-1.18,12.39,1.02,19.59,3.57c-2.22-4.63-3.92-7.96-5.4-11.4c-0.45-1.04-1.83-2.5-0.15-3.47c1.14-0.66,2.16,0.49,2.96,1.34
			c3.47,3.73,6.92,7.47,11.24,10.76c-4.63-10.78-9.26-21.56-14.34-33.37c6.97,3.67,8.99,9.97,12.77,14.75
			c0.93,1.18,0.71,4.1,2.83,3.29c2.01-0.76,1.13-3.31,0.54-4.94c-2.49-6.88-5.17-13.69-7.77-20.53c-0.26-0.7-0.43-1.43-0.27-2.29
			c4.59,4.27,6.58,10.04,9.43,16.3c1.69-4.97,2.69-8.75,0.91-13.2c-4.33-10.76-8.2-21.71-11.84-32.86c4.72,3,6.12,8.45,8.9,12.82
			c2.03,3.18,3.18,6.92,4.7,10.42c0.37,0.86,0.38,2.15,1.75,1.93c0.92-0.15,1.11-1.12,1.35-1.93c1.18-3.94,1.24-7.67-0.49-11.64
			c-4.71-10.84-9.09-21.82-13.54-32.77c-0.6-1.48-1.42-3.01-0.79-6.01c8.07,10.52,13.66,21.24,17.63,33.01
			c1.27-5.3,2.83-10.14,0.89-15.77c-4.39-12.69-8.87-25.35-13.98-38.42c6.15,3.85,8.86,9.06,16.65,31.26
			c1.6-3.67,1.71-6.9,0.86-10.34c-3.51-14.28-8.69-27.95-14.85-41.28c-0.47-1.01-0.76-2.1-1.62-4.49
			c10.27,6.27,12.58,16.2,17.07,24.79c3.15-18.33-7.76-32.9-14.07-49.99c8.43,3.61,11.74,10.18,15.24,17.15
			c2.24-3,1.6-5.68,0.83-8.31c-2.22-7.6-6.72-14.1-10.41-20.97c-0.95-1.77-1.91-3.47-2.41-6.02c7.14,1.88,9.8,8.2,14.99,13.74
			c0.77-8.49-5.7-13.14-7.06-19.83c2.3,1.57,3.73,3.51,5.23,5.44c0.74,0.95,0.91,2.97,2.61,2.49c1.52-0.43,0.94-2.29,1.34-3.49
			c0.21-0.63,0.38-1.28,0.49-1.94c0.37-2.14,0.69-5.27,2.84-5.26c2.85,0.01,3.39,3.27,3.64,5.73c1.09,11,0.09,21.96-1.29,32.84
			c-3.52,27.92-4.36,55.99-5.14,84.07c-0.32,11.35-2.58,22.47-5.4,33.41c-3.45,13.39-6.03,26.93-7.79,40.62
			c-0.9,7-4.09,13.29-5.48,20.17c-0.9,4.48-1.59,8.71-1.14,13.24c1.57,15.56-3.07,29.38-12.8,41.34
			c-4.73,5.81-10.78,9.54-19.11,8.62c-8.75-0.96-17.54,0.53-26.3,1.12c-6.71,0.45-12.14-1.37-15.92-7.15
			c-3.04-4.66-7.01-8.42-11.37-11.81c-6.22-4.84-6.47-9.26-1.38-15.14c3.52-4.06,7.46-7.64,11.63-10.92
			c7.66-6.04,12.17-14.49,17.51-22.24c4.93-7.17,10.38-13.85,16.13-20.33c3.09-3.48,3.02-7.76,1.89-11.26
			c-4.43-13.62-2.68-27.77-4.41-41.59c-3.27-26.13-3.72-52.44-4.77-78.71c-0.88-22.01-0.51-43.95,4.11-65.63
			c1.17-5.5,0.81-11.33,3.66-16.47c0.3-0.53,0.43-1.38,0.23-1.93c-3.04-8.67,0.71-16.81,2.24-25.01c1.29-6.93,2.22-13.75,1.8-20.79
			c-0.2-3.31-0.53-6.84,0.36-9.93c1.24-4.29-0.01-5.53-4.11-5.94c-5.77-0.57-6.07-1.42-4.91-7.33c2.3-11.75,4.75-23.47,6.64-35.29
			c3.26-20.4,4.78-41.03,6.47-61.59c1.92-23.3,6.55-46.15,9.83-69.22c1.41-9.89,3.07-19.73,5.4-29.45c0.2-0.82,0.82-1.88-0.6-3.06
			c-5.04,11.12-10.82,21.71-14.46,33.29c-4.39,13.95-7.61,28.21-11.44,42.3c-3.43,12.61-2.56,25.41-4.62,37.98
			c-1.5,9.16-4.02,18.17-5.33,27.35c-2.12,14.85-5.47,29.41-9.09,43.93c-0.92,3.67,0.31,5.21,4.11,5.46
			c2.92,0.19,6.03-0.04,8.68,1.75c1.07,0.72,1.91,1.65,1.27,2.87c-0.55,1.05-1.71,0.65-2.69,0.37c-3.03-0.88-6.06-1.78-9.12-2.58
			c-3.73-0.97-6.53-2.41-5.17-7.17c0.87-3.04-0.73-2.14-2.67-1.67c-9.33,2.29-17.73-0.92-25.82-5.06c-2.5-1.28-1.52-3.79-0.5-5.76
			c1.49-2.87,1.41-4.44-2.45-4.95c-5.17-0.68-9.52-3.76-14.16-5.91c-2.92-1.35-2.04-4.23-1.66-6.67c1.38-8.76,4.71-16.99,6.87-25.54
			c6.67-26.43,13.56-52.8,19.25-79.48c5.31-24.92,13.24-49.17,21.13-73.39c0.72-2.2,1.71-4.32,2.7-6.42
			c1.76-3.76,3.66-7.35,1.89-11.82c-0.59-1.49-0.04-3.7,0.6-5.35c4.46-11.54,4.77-23.7,5.63-35.79c0.18-2.51-0.07-3.88-3.15-2.95
			c-17.13,5.17-32.51-0.49-47.47-8.03c-4.12-2.08-8.48-3.81-12.07-6.92c-1.86-1.61-3.69-3.45-3.33-5.79
			c1.73-11.08-3.28-21.15-4.59-31.77c-1.3-10.56-3.57-20.84-1.65-31.66c0.81-4.55-0.67-9.56-1.42-14.32
			c-1.56-9.85-0.84-19.48,1.09-29.26c2.02-10.25,3.11-20.71,4.35-31.1c3.11-26,11.11-50.29,24.93-72.58
			c2.56-4.13,4.17-8.72,6.6-12.87c6.92-11.83,15.61-21.33,30.89-20.74c2.78,0.11,5.53,0.98,8.31,1.45c2.16,0.37,4.75,1.91,6.08-1.07
			c0.81-1.83-2.98-7.19-4.97-7.52c-9.22-1.53-15.74-6.9-20.18-14.78c-3.8-6.74-2.91-13.43,1.45-19.73
			c3.24-4.68,6.75-9.06,11.46-12.4c1.75-1.24,3.25-2.86,4.74-4.43c8.23-8.64,7.52-7.77-1.68-15.05
			c-8.65-6.84-16.34-15.54-18.75-26.93c-2.35-11.1-1.21-21.82,6.58-31.09c6.06-7.21,7.82-16.38,8.51-25.19
			c1.35-17.22,8.53-30.83,21.74-41.56c1.81-1.47,3.31-3.17,4.79-4.99c2.18-2.68,4.67-5.48,7.65-7.07
			c11.27-6.01,22.22-12.74,34.41-16.85c2.66-0.9,5.48-1.68,8.26-1.82c12.62-0.63,25.26-1.11,37.78,1.34
			c3.98,0.78,7.17,2.7,8.62,6.72c1.2,3.33,3.52,1.82,5.33,1.09c9.93-3.99,19.62-1.5,29.33,0.84c6.83,1.65,10.59,6.72,11.69,12.96
			c0.68,3.82,2.76,5.12,5.31,6.74c6.97,4.43,13.11,9.67,16.42,17.49c1.42,3.35,2.81,6.75,3.69,10.27
			c3.11,12.37,6.87,24.63,6.37,37.65c-0.29,7.69,3.79,14.77,3.42,22.58c-0.52,11.15-1.68,22.19-3.95,33.12
			c-0.91,4.35-3.16,8.08-5.8,11.52c-9,11.75-7.81,19.38,0.52,29.79c9.28,11.59,7.53,23.04,2.41,35.02c-1.99,4.66-4.74,9-6.33,13.85
			c5.21,0.51,8.76,4.39,13.11,6.62c5.57,2.87,6.39,9.12,8.01,14.33c3.83,12.39,7.13,24.99,12.32,36.88
			c6.23,14.26,8.36,29.22,10.19,44.49c2.49,20.81,3.43,41.76,6.35,62.52c2.59,18.39,3.04,36.79,0.2,55.21
			c-0.55,3.55-1.29,6.74-5.02,8.46c-1.26,0.58-2.75,1.95-3.01,3.19c-2.27,10.95-12.05,13.46-20.1,17.23
			c-6.16,2.89-12.76,5.82-20.02,5.42c-2.6-0.15-3.11,1.33-2.77,3.49c0.55,3.62,0.74,7.33,1.74,10.82c1.33,4.66,1.35,9.37,0.19,13.79
			c-1.36,5.15-0.42,9.39,2.45,13.54c6.1,8.83,7.19,19.48,10.09,29.38c3.54,12.07,6.7,24.29,10.01,36.44
			c5.49,20.19,13.73,39.5,18.19,60.07c1.79,8.26,6.28,16,7.95,24.53c1.73,8.78,3.09,17.65,6.35,26.07c1.04,2.68-0.17,5.04-2.01,6.79
			c-3.13,2.98-6.52,5.69-9.83,8.47c-1.74,1.46-3.78,1.84-6.06,1.82c-6.21-0.05-8.29,2.65-5.35,8.22c2.47,4.68,0.14,6.71-2.88,9.02
			c-4.9,3.75-10.69,5.9-16.06,8.79c-2.04,1.1-2.43,1.91-1.66,4.53c1.66,5.71,2.86,11.71,3.11,17.64c0.26,6.32,2.27,11.98,4.1,17.85
			c2.27,7.3,4.07,14.7-0.46,22.11c-10.14,16.61-9.94,34.65-6.99,53.09c2.22,13.88,1.26,27.91,0.98,41.87
			c-0.26,13.28-1.62,26.54-1.75,39.82c-0.16,17.53-2.53,34.85-3.79,52.27c-1.09,15.11-1.39,30.28-2.43,45.4
			c-0.65,9.39-0.47,8.77,7.31,13.93c10.5,6.97,22.61,7.16,34.1,10.04c5.09,1.27,10.78,1.34,14.92,4.79
			c3.47,2.9,6.21,6.76,8.94,10.44c4.93,6.67,9.4,13.66,15.44,19.49c3.28,3.16,0.23,14.57-4.25,15.38
			c-13.6,2.44-26.09,9.32-40.08,9.97c-14.56,0.68-27.91-1.78-36.39-15.51c-1.98-3.21-5.02-4.87-8.65-5.31
			c-13.2-1.6-25.9-6.27-39.05-7.34c-6.72-0.55-7.01-4.43-7.81-8.33c-1.77-8.68-0.36-17.58,5-24.27c5.75-7.18,6.54-14.93,4.79-22.54
			c-6.22-27-8.14-54.62-12.85-81.83c-3.43-19.81-5.8-39.71-6.29-59.9c-0.3-12.18-0.9-24.26,1.13-36.32
			c0.54-3.23,0.55-6.71,3.34-9.14c0.69-0.61,0.86-1.4,0.74-2.26c-1.19-8.31,0.88-16.3,2.92-24.15c3.22-12.37,0.93-24.49-0.67-36.69
			c-0.26-1.98-0.67-3.94-0.92-5.92c-0.35-2.79-1.49-4.48-4.63-4.82C991.07,902.61,988.94,901.01,987.83,897.48z M905.85,577.87
			c1.79,0.26,3.64,0.33,5.36,0.82c16.47,4.69,32.66,10.56,49.63,13.2c7.83,1.22,15.08,4.54,23.35,4.43
			c20.3-0.25,40.49-3.59,60.83-2.12c4.58,0.33,7.67-1.16,9.34-5.57c0.41-1.07,0.97-2.59,2.92-2.38c0.83,1.46,0.03,2.79-0.34,4.19
			c-0.27,1.02-1.65,2.17-0.36,3.13c1.3,0.97,2.58-0.12,3.57-0.93c1.56-1.28,2.55-3.03,3.46-4.83c0.9-1.78,1.65-3.72,3.74-5.38
			c0.16,3.11-1.96,5.16-1.45,8.37c6.74-2.52,5.84-9.76,9.35-13.95c2.03,2.76,0.79,5.89,1.55,8.6c6.38-1.32,6.13-8.01,9.62-11.38
			c1.69,1.38-0.01,3.51,1.74,4.81c0.56-0.46,1.05-1.19,1.54-1.2c6.85-0.11,5.69-5.03,5.72-9.31c0.05-7.71-2.14-15.15-2.64-22.81
			c-0.46-7.17-2.43-14.18-2.14-22.56c-4.24,3.57-5.22,7.71-8.32,10.7c-0.5-3.83,1.66-6.38,3.7-8.17c4.85-4.25,4.08-9.22,3.27-14.67
			c-2.35,0.91-2.54,3.25-3.92,4.55c-0.83,0.78-1.02,3.09-2.78,1.9c-1.18-0.8-1.82-2.51-0.88-4.03c1.22-1.98,2.53-3.92,3.98-5.74
			c3.66-4.59,3.73-4.86,1.24-10.97c-2.76,3.32-3.42,7.88-7.36,11.58c1.06-4.6,2.9-7.77,4.85-10.73c1.97-3,2.4-5.71,1.78-9.31
			c-1.18-6.91-4.08-13.41-4.78-20.33c-0.94-9.38-1.43-18.83-2.27-28.2c-1.76-19.54-5.48-38.84-10.34-57.88
			c-2.28-8.91-7.74-15.25-16.01-19.11c-2.36-1.1-5.48-2.73-4.77,2.54c0.3,2.24-0.64,4.33-1.66,6.2c-3.5,6.4-3.85,14.05-8.14,20.17
			c-0.89,1.27-1.84,3.22-0.68,5.15c2.24-0.15,2.45-2.57,4-3.47c0.95-0.54,1.73-2.09,2.9-1.12c1.1,0.91,0.14,2.13-0.47,3.11
			c-3.05,4.95-6.04,9.93-9.18,14.81c-2.12,3.3-3.02,6.78-2.65,11.36c3.04-4.37,5.64-8.16,8.32-11.9c0.72-1.01,1.4-2.87,2.94-1.97
			c1.29,0.75,0.52,2.4,0.09,3.65c-2.31,6.78-5.23,13.29-8.39,19.72c-3.03,6.18-3.88,12.83-3.76,20.76
			c4.73-10.49,6.8-21.01,13.69-29.28c-2.09,15.78-8.92,30.51-10.08,46.45c3.72-10.47,7.86-20.57,15.29-29.01
			c0.19,1.61,0.17,3.14-0.36,4.47c-5.26,13.31-7.94,27.42-12.55,40.93c-0.8,2.35-0.15,4.41,1.6,7.41
			c2.67-11.67,6.76-21.72,13.19-31.45c1.02,2.78,0.38,4.57-0.16,6.28c-3.69,11.76-6.41,23.77-9.57,35.67
			c-0.74,2.77-0.61,5.08,1.34,8.22c3.7-10.26,6.77-20.01,12.45-28.61c0.21,0.89,0.12,1.68-0.02,2.46
			c-1.94,10.32-5.48,20.21-8.19,30.33c-0.7,2.61-2.15,5.44,0.25,8.48c2.37-7.31,5.22-13.87,9.75-19.64
			c-2.27,8.84-5.76,17.34-7.18,27.73c4.12-4.41,4.68-9.6,8.77-13.14c-0.57,6.88-2.95,12.56-4.72,18.41c-0.29,0.97-1.38,2.31,0.28,3
			c1.34,0.56,2.19-0.51,2.72-1.59c1.36-2.77,2.75-5.5,5.01-7.89c1.73,2.44,0.48,4.44,0.08,6.48c-0.24,1.23-1.01,2.78,0.56,3.58
			c1.73,0.87,2.11-0.89,2.94-1.85c1.19-1.37,1.7-3.58,3.07-3.73c4.06,2.59-4,9.06,4.43,9.65c0.13,0.01,0.19,1.22,0.27,1.87
			c0.33,2.75-0.7,5.26-1.52,7.78c-0.92,2.83-2.73,3.11-4.97,1.39c-1.45-1.11-2.77-2.41-4.28-3.44c-3.13-2.13-6.06-4.73-10.32-4.24
			c-1.54,0.18-3.14,0.09-3.41,2.09c-0.2,1.47,0.62,2.37,1.88,3.19c6.45,4.18,8.07,14,3.43,20.6c-1.84-1.73-2.31-4.02-2.56-6.33
			c-0.63-5.79-3.71-10.2-7.65-14.22c-1.53-1.57-3.31-2.19-5.36-2.23c-1.15-0.02-2.51,0.11-2.95,1.36c-0.38,1.06,0.66,1.75,1.36,2.46
			c1.16,1.19,2.28,2.42,3.38,3.67c1.09,1.25,2.49,2.35,2.64,4.13c-6.38-3.37-9.54-11.88-19.36-10.58c3.19,4.4,8.16,6.5,9.77,12.15
			c-4.61-2.39-7.93-5.1-11.06-8.07c-2.54-2.4-5.11-4.7-8.94-4.71c-0.95,0-2.11-0.71-2.65,0.47c-0.57,1.24,0.73,1.63,1.45,2.23
			c3.48,2.91,6.84,5.93,10.1,10.64c-9.18-3.1-14.46-11.21-24.2-13.12c2.55,4.31,6.36,6,7.76,9.86c-7.28-0.92-10.62-10.03-19.04-8.38
			c1.92,3.38,5.5,4.8,7.04,8.59c-4.38-0.54-6.78-3.56-9.46-5.78c-2.41-2-4.91-3.52-7.56-1.82c-3.06,1.96,1.44,3.72,1,5.89
			c-3.99-1.03-6.49-4.96-10.95-5.43c0.45,2.55,2.3,3.42,3.26,4.94c1.05,1.65,2.88,3.74,1.12,5.27c-1.23,1.08-3.65,0.46-5.48-0.88
			c-4.02-2.94-8.5-5.24-11.66-9.3c-0.94-1.2-2.2-2.62-4.52-1.14c1.96,2.16,3.88,4.19,5.69,6.31c0.71,0.83,1.92,1.86,0.94,3
			c-1,1.15-2.33,0.08-3.13-0.51c-3.45-2.58-6.76-5.36-10.12-8.06c-2.4-1.93-4.69-4.24-8.32-2.6c3.3,4.02,7.58,7.04,10.57,13.06
			c-8.15-4.16-12.81-10.98-20.03-14.09c3.11,4.57,7.35,8.22,10.06,13.62c-4.66,0.15-6.96-3.94-10.64-4.38
			c-0.68,1.52,0.47,2.08,0.8,2.94c0.42,1.1,2.21,2.22,0.67,3.38c-1.23,0.94-2.53-0.24-3.55-1.07c-1.68-1.36-3.27-2.84-4.9-4.25
			c-0.76-0.66-1.62-1.42-2.55-0.39c-0.86,0.94-0.42,2.01,0.45,2.58c2.82,1.84,3.7,5.07,5.61,7.55c0.57,0.75,1.24,1.84,0.22,2.63
			c-0.55,0.42-1.61,0.49-2.33,0.3c-1.1-0.29-2.1-0.94-3.14-1.46c-1.56-0.78-2.62-3.84-4.23-2.64c-2.25,1.67,2.19,2.84,1.35,4.92
			c-6.96-0.31-6.96-0.31-7.99,3.35c-4.63,1.04-4.32,4.81-4.51,8.31C904.14,584.14,905.81,581.44,905.85,577.87z M956.12,160.62
			c-10.83,11.27-24.5,18.67-38.82,25.1c-5.29,2.38-10.74,4.37-15.67,7.64c-5.28,3.51-7.57,8.1-7.47,14.25
			c0.09,5.49-0.28,11.01,0.03,16.49c1.67,28.97,10.35,54.93,32,75.59c6.62,6.31,14.64,9.44,22.56,13.25
			c10.38,4.99,19.72,2.71,28.82-2.8c21.92-13.27,32.57-34.73,41.59-57.4c5.26-13.22,6.08-27.17,7.39-41.08
			c0.27-2.9-1.03-5.07-2.95-6.53c-9.09-6.88-18.36-12.65-30.31-14.6C975.97,187.7,963.6,177.16,956.12,160.62z M807.83,443.99
			c-2.16,3.18-3.79,6-5.83,8.5c-4.63,5.69-2.38,12.39-1.85,18.31c0.24,2.68,0.96,5.44,0.08,8c-2.59,7.53-2.96,15.27-2.89,23.11
			c0.03,3.14,1.09,6.16,0.47,9.42c-0.88,4.66,0.8,8.41,5.01,11.04c3.24,2.02,5.88,4.74,8.03,7.96c1.45,2.18,1.34,4.44-0.36,5.86
			c-1.85,1.54-2.76-0.99-3.75-2.04c-2.33-2.48-4.45-5.16-7.44-8.68c-0.3,5.95,0.29,10.65,0.62,15.39
			c0.86,12.28,4.28,24.52,0.75,36.91c-0.35,1.25-0.3,2.99,0.79,3.73c1.63,1.11,2.09-0.96,2.98-1.74c1.22-1.06,1.98-2.67,3.89-3.22
			c0.16,3.34-2.59,6.15-1.45,10.13c2.48-2.71,4.64-5.08,6.99-7.65c0.77,2.85-0.24,5.11-1.05,7.39c-0.41,1.16-1.77,2.33-0.16,3.5
			c1.43,1.04,2.86,0.63,4.09-0.47c2.06-1.83,4.09-3.7,6.6-5.98c0.08,2.7-0.88,4.42-1.53,6.26c-0.45,1.29-3.2,2.54-0.68,4.07
			c2.21,1.34,3.19-0.79,4.26-2.21c2.53-3.37,5.34-6.47,8.93-9.24c-0.08,5.33-3.25,8.94-5.43,13.05c2.96,1.31,5.07,0.57,6.91-1.53
			c2.75-3.13,5.52-6.23,8.33-9.3c0.74-0.8,1.45-2.23,2.78-1.51c1.28,0.69,0.55,2.04,0.35,3.16c-0.72,4.13-3.61,7.3-5.31,11.44
			c8.93,0.84,9.68-7.85,14.73-11.57c1.2,4.4-2.99,7.28-2.96,11.4c3.51,0.2,5.87-1.09,7.45-4.01c1.58-2.93,3.2-5.85,4.96-8.67
			c1.48-2.37,1.52-3.86-1.24-5.53c-5.31-3.22-9.78-8.08-10.24-14.08c-0.43-5.65-3.61-10.34-3.74-15.84
			c-0.03-1.43-0.43-2.17-2.09-1.79c-6.92,1.55-15.43-0.12-18.48,9.22c-0.04,0.12-0.52,0.09-0.84,0.13c-0.23-2.37,2.66-3.7,2.24-5.94
			c-7.53-1.26-9.61,5.3-13.47,9.91c-0.72-3.17,1.99-4.41,1.88-6.63c-3.72-0.04-5.57,3.79-9.13,3.66c0.13-2.41,1.57-3.78,2.89-4.87
			c6.32-5.19,13.4-9.27,20.89-12.42c3.25-1.37,7.11-2.18,10.72-0.64c3.26,1.39,3.75,0.47,3.74-2.89c-0.01-4.12,0.12-6.9-4.86-3.43
			c-0.49,0.34-1.43,0.56-1.92,0.33c-5.08-2.4-10.1-0.84-15.13,0.1c-1.03,0.19-2.16,0.39-2.51-0.84c-0.37-1.29,1.03-1.45,1.75-2.04
			c2.02-1.67,5.19-1.61,6.53-4.25c2.02-3.97,5.78-5.97,9.62-8.02c-2,2.53-4,5.05-5.99,7.57c2.44,1.92,4.56-1.01,6.7-0.04
			c3.84,1.74,3.66,1.8,3.73-2.44c0.16-9.31,0.02-18.73,2.1-27.8c1.08-4.71-0.5-8.1-2.03-12.45c-5.2,5.42-9.52,10.93-15.96,13.98
			c3.03-6.15,8.15-10.42,12.65-15.23c2.78-2.97,2.76-3.17-0.2-6.65c-3.66,4.73-7.02,9.82-14.34,12.29
			c2.89-6.28,7.16-9.69,11.2-13.27c1.77-1.57,3.47-2.81,2.3-5.81c-1.3-3.34-3.48,0.6-4.03-0.53c0.37-11.7,7.79-19.87,13.95-28.72
			c-4.61,2.69-6.91,7.76-12.94,10.49c2.4-6.23,5.36-10.24,9.31-13.34c4.03-3.17,7.5-6.43,7.41-12.45c-3.4,1.79-5.98,4.77-10.79,5.51
			c5.22-5.7,9.32-11.17,15.33-14.63c2.62-1.5,3.37-3.34,2.33-6.38c-4.49,2.04-8.05,5.92-14.33,6.63c3.57-3.34,6.31-5.92,9.07-8.49
			c2.79-2.6,6.82-4.64,4.26-9.79c-2.88,0.71-4.59,3.93-8.43,3.66c2.52-2.67,4.64-4.98,6.84-7.21c1.8-1.82,2.03-4.26,0.83-5.95
			c-1.37-1.93-2.72,0.68-4.14,1.11c-0.75,0.23-1.39,0.98-2.28,0.15c0.56-2.14,2.5-3.03,4.08-4.09c1.61-1.08,2.23-2.29,2.01-4.15
			c-1.1-9.28-0.26-18.63-0.81-27.93c-0.39-6.59-0.48-6.59-6.9-5.59c-0.49,0.08-0.94,0.35-1.43,0.45
			c-16.51,3.53-21.09,17.91-28.49,30.72c2.64-0.46,4.34-1.69,6.41-1.31c-3.73,8.4-13.72,11.67-16.57,21.85
			c2.43-1.71,3.9-2.75,6.3-4.44c-2.5,5.24-5.98,8.26-8.33,12.01c-2.23,3.56-5.46,6.91-4.98,12.53c3.32-3.35,6.03-6.09,8.74-8.83
			c-3.16,8.58-12.28,13.81-12.62,24.9c3.65-3.13,6.55-5.62,9.46-8.12c-3.3,7.74-10.94,12.96-12.41,22.74
			C803.5,448.29,804.35,445.04,807.83,443.99z M937.42,138.94c-7.14,5.42-14.62,10.24-22.99,13.66
			c-8.01,3.27-16.07,6.92-22.77,12.32c-16.96,13.69-23.08,32.2-22.14,53.56c0.61,13.8,8.77,22.8,18.67,30.85
			c0.65,0.53,1.35,1.27,2.18,0.81c1.14-0.62,0.55-1.73,0.38-2.66c-0.68-3.67-2.04-7.16-4.43-9.93c-2.77-3.21-3.78-6.86-4.62-10.83
			c-2.72-12.75,2.64-23.13,9.43-33.08c1.48-2.16,2.32-4.83,4.71-6.35c8.42-5.38,17.47-9.53,26.41-13.94
			c11.14-5.49,23.17-9.48,32.8-17.75c2.12-1.82,3-0.08,3.91,1.13c2.68,3.59,5.48,7.04,9.21,9.58c8.17,5.57,15.68,12.58,25.7,14.56
			c12.88,2.55,23.93,8.75,33.97,16.6c6.38,4.99,10.11,12.54,12.3,20.34c4,14.23,2.39,27.05-11.43,36.58
			c-2.57,1.77-4.17,4.1-5.29,7.01c-4.74,12.28-9.61,24.51-18.4,34.65c-0.88,1.02-1.42,2.17-1.11,3.66c1.41,6.87,1,13.51,8.6,18.76
			c8.2,5.67,13.86,14.89,10.98,26.4c-0.84,3.36,1.89,3.85,3.93,4.67c2.81,1.12,3.17-1.11,3.96-3.03c1.58-3.83,1.93-7.57,1.05-11.69
			c-1.49-7-4.44-13.19-9-18.63c-11.77-14.05-11.33-29.19,1.68-41.87c5.11-4.98,10.72-9.46,15.63-14.68
			c3.96-4.21,7.51-9.13,7.89-14.74c0.74-11.09,1.15-22.29-0.89-33.38c-0.88-4.78-2.74-9.45-2.3-14.42c2.01-0.36,2.36,2.14,4.09,1.72
			c-3.4-12.33-5.41-15.91-13.42-24.54c-2.6-2.8-5.17-5.67-7.4-8.77c-0.92-1.28-3.38-2.71-1.67-4.63c1.3-1.46,3.07,0.37,4.6,0.69
			c3.92,0.83,6.94,4.17,11.46,4.67c-1.04-3.44-2.85-5.77-5.04-7.83c-4.22-3.97-9.11-7.1-13.63-10.61
			c-9.99-7.78-21.48-10.32-33.22-13.35c-5.62-1.45-12.02,0.58-17.1-4.11c-1.7-1.57-2.55-1.63-0.49-3.17c4-2.97,3.96-3.16-0.89-5.31
			c-1.98-0.88-3.97-1.7-5.96-2.56c-1.05-0.45-2.21-1.33-3.19-0.2c-0.96,1.11,0.2,2.18,0.58,3.2c0.28,0.75,0.8,1.47,1.38,2.04
			c2.2,2.18,1.5,4.16-0.34,6.07c-2.19,2.27-3.94,0.64-5.52-0.82c-9.05-8.41-23.18-10.11-35.07-3.98c1.72,0,3.16,0.06,4.59-0.01
			c5.84-0.3,11.66-0.45,17.34,1.25c1.08,0.32,2.49,0.66,2.46,2.08c-0.03,1.54-1.66,1.41-2.67,1.76c-0.75,0.25-1.64,0.07-2.47,0.07
			c-11.37,0.04-22.76,1.3-33.5,4.53c-11.59,3.49-22.49,9.42-30.94,18.45c-7.52,8.03-14.15,16.75-15.61,28.37
			c-1.39,11.08-3.96,21.79-10,31.58c-5.96,9.66-4.77,21.02,2.87,29.59c6.01,6.74,11.18,14.48,19.75,18.61
			c1.41,0.68,2.51,2.16,3.55,3.44c4.66,5.76,6.76,12.84,10.08,19.3c2.77,5.4,2.36,9.66-1.38,14.19c-2.54,3.07-5.68,5.03-9.18,6.67
			c-2.69,1.26-5.93,2.43-5.69,6.12c0.22,3.35,3.46,3.55,5.91,4.47c11.15,4.17,17.68,13.54,15.8,23.03c1.87,0,3.68,0.01,5.49,0
			c5.36-0.03,6.68-2.02,3.94-6.58c-2.48-4.12-5.39-7.85-10.23-9.78c-5.71-2.27-7.33-7.94-3.22-12.45c6.72-7.38,7.07-15.64,5.17-24.7
			c-0.65-3.08-2.64-6.17-0.96-9.6c14.22,10.2,16.5,21.05,7.52,36.5c-1.34,2.31-0.36,3.19,1.12,4.49c5.39,4.74,10.82,9.47,10.22,17.7
			c-0.12,1.58-0.58,3.55,2.14,3.51c2.1-0.03,4.08,0.46,5.16-2.51c1.63-4.46-0.51-8.12-1.52-12.07c-0.5-1.94-2.86-5.25,2.21-2.86
			c1.29,0.61,2.19-0.16,2.06-1.19c-0.45-3.52,1.03-7.46-1.93-10.48c-13.38-13.66-19.32-31.6-27.68-48.14
			c-0.81-1.61-1.08-3.78-3.14-4.2c-7.75-1.61-12.03-8.05-17.49-12.69c-5.82-4.94-8.88-11.81-10.61-19.36
			c-2.83-12.31-1.39-23.86,3.52-35.53c8.03-19.1,20.43-33.35,40.38-40.23C917.59,145.55,927.52,142.28,937.42,138.94z
			 M1025.08,1103.92c-1.04,4.42-2.98,8.33-5.12,12.21c-2.88,5.24-5.84,10.47-7.04,16.45c-0.2,1-0.6,2.26,0.31,2.79
			c1.53,0.9,1.85-0.86,2.49-1.66c2.92-3.63,5.78-7.3,8.83-11.16c1.25,1.75,0.63,2.47,0.31,3.18c-3.08,6.81-6.11,13.63-9.31,20.38
			c-0.76,1.59-0.92,3.11,0.28,4.1c1.64,1.35,2.14-0.77,2.96-1.58c3.13-3.05,5.19-7.16,10.36-10.32c-4.67,8.13-5.28,16.7-12.1,22.23
			c-2.24,1.82-1,4.91,0.36,6.33c1.71,1.78,2.55-1.13,3.58-2.1c2.31-2.18,4.39-4.61,7.18-7.59c-2.33,9.42-9.28,15.78-11.18,24.26
			c0.43,0.25,0.87,0.49,1.3,0.74c3.58-3.93,7.15-7.86,10.73-11.79c-1.07,6.44-5.15,11.1-8.24,16.31c-0.7,1.17-2.88,2.65-0.4,4.11
			c1.9,1.11,2.55-0.73,3.42-1.89c3.09-4.1,6.19-8.2,10.02-13.25c-0.35,6.96-3.46,11.61-5.45,16.64c-0.55,1.4-2.5,2.91-0.4,4.33
			c2.14,1.45,3.72,0.29,4.85-1.74c0.38-0.69,0.97-1.26,1.46-1.89c-1.71,6.38,2.25,3.69,4.49,2.78c3.38-1.38,6.62-3.13,9.88-4.79
			c3.19-1.62,4.09-5.16,6.01-7.79c1.06-1.46-1.46-3.04-2-4.76c-1.16-3.73-4.42-6.61-4.26-10.92c0.73-20.13,1.35-40.28,3.49-60.3
			c1.63-15.23,2.9-30.49,4.22-45.74c2.17-25.06,1.77-50.2,1.79-75.33c0-3.1,1.06-6.2-4.41-7.92c-5.97-1.87-11.79-3.68-18-4.62
			c-10.91-1.67-21.1,3.46-31.85,2.96c-0.96-0.04-1.63,0.7-1.57,1.59c0.22,3.15,0.31,6.35,1.01,9.4c0.42,1.82,1.78,0.7,2.63-0.12
			c2.14-2.07,3.92-4.59,8-6.35c-2.89,4.28-4.96,7.47-7.16,10.57c-1.78,2.52-3.12,5.09-2.46,8.32c0.19,0.94-0.2,2.22,0.98,2.58
			c1.21,0.37,1.58-0.87,2.15-1.64c2.06-2.79,3.43-6.17,6.82-7.86c-2.02,4.41-4.28,8.63-6.75,12.74c-1.31,2.18-2.52,4.33-2.38,6.95
			c0.07,1.31-0.15,3.1,1.27,3.5c1.43,0.41,2.16-1.23,2.84-2.33c2.96-4.72,6.39-8.99,12.05-12.95c-3.94,8.71-8.04,15.84-12.74,22.65
			c-2.32,3.35-3.61,6.94-2.05,11.43c4.42-3.26,6.56-8.25,11.62-11.34c-12.61,21.22-13.8,24.37-11.53,30.73
			c3.69-5.28,7.09-10.64,13.48-14.73c-1.8,6.92-5.66,11.35-8.62,16.26c-4.97,8.26-5.58,10.95-3.23,16.25
			c3.47-5.08,6.8-10,12.23-14.81c-4.05,7.72-7.03,14.73-11.25,20.88c-2.2,3.21-2.33,5.55-1.39,9.12
			c4.69-4.61,7.27-10.47,12.77-13.52c-3.52,7.79-5.73,16.08-11.41,22.64c-1.83,2.11-1.4,4.57,0.45,7.36
			c2.87-3.29,5.49-6.31,8.11-9.32c-1.64,6.66-2.85,13.26-6.99,18.69c-1.21,1.59-1.64,3.93,0.01,4.94c1.97,1.21,2.56-1.39,3.47-2.61
			C1017.23,1111.3,1020.63,1107.16,1025.08,1103.92z M916.09,539.01c8.59-10.37,18.72-18.02,27.6-26.96
			c0.94-0.94,2.12-1.54,2.05-3.15c-0.49-10.5,2.56-20.31,5.55-30.2c3.85-12.72,20.87-21.98,33.64-17.84
			c6.6,2.14,7.66,5.87,2.86,10.58c-1.88,1.85-4.27,3.18-6.17,5c-2.75,2.64-6.64,4-9.24,7.94c5.58-0.81,9.64-3.64,14.19-5.01
			c5.13-1.55,8.28-5.39,11.63-9.04c1.47-1.6,1.39-2.63,0.23-2.82c-3.06-0.48-3.45-3.09-4.11-5.07c-4.5-13.61-7.78-27.48-8.05-41.92
			c-0.02-1.09,0.79-2.42-0.75-3.04c-1.34-0.54-2.11,0.62-3.02,1.28c-5.57,4.07-11.79,6.89-18.37,8.71
			c-17.4,4.83-34.94,9.16-52.28,14.22c-13.07,3.81-25.88,8.5-38.85,12.69c-6.16,1.99-12.48,3.51-18.6,5.64
			c-4.74,1.65-5.51,3.92-3.62,8.55c2.18,5.37,5.11,10.53,6.55,16.08c3.92,15.11,10.06,29.46,14.59,44.34
			c0.52,1.7,1.63,2.74,2.87,3.9c4.92,4.59,10.26,2.01,15.47,1.06c1.18-0.22,3.09,0.5,3.52-1.06c0.47-1.75-1.42-2.43-2.57-3.25
			c-3.54-2.52-7.24-4.91-8.35-9.5c-0.54-2.21-1.26-4.4,0.92-6.45c2.23-2.1,4.61-2.68,7.26-1.49c3.32,1.49,6.75,2.93,9.69,5.02
			C908.09,522.46,912.9,529.73,916.09,539.01z M1006.9,972c2.28-0.86,3.65-1.46,5.06-1.89c11.99-3.63,24.04-6.41,36.39-1.62
			c3,1.17,3.82-0.3,4.19-2.93c1.03-7.22,2.52-14.36,3.42-21.62c0.47-3.77,1.46-6.33-3.4-7.69c-2.67-0.75-6.88-2.96-5.82-5.77
			c0.97-2.57,5.43-1.54,8.43-0.86c6.77,1.55,11.5-2.35,10.39-9.2c-2.27-13.9-4.94-27.73-7.59-42.37c-4.12,4.5-9.08,6-13.57,8.37
			c-5.88,3.1-9.41-1.25-14.67-4.42c2.47,4.11,0.96,6.02-1.78,6.75c-5.11,1.35-10.21,3.05-15.6,2.94c-2.87-0.06-6.39-0.97-3.54,4.03
			c0.53,0.92-0.33,2.01-1.05,2.63c-2.71,2.3-1.7,4.34-0.18,6.92c4.81,8.16,6.68,16.66,3.78,26.2c-1.53,5.01-2.73,10.22-3.63,15.48
			C1006.33,955.09,1008.62,963.15,1006.9,972z M919.85,683.56c-1.28,1.78-1.53,3.52-1.86,5.28c-3.63,19.49-9.77,38.31-16,57.05
			c-3.78,11.38-7.31,22.58-8.26,34.72c-1.39,17.9-3.94,35.71-6.19,53.53c-2.37,18.78-5.49,37.45-10.45,55.75
			c-0.94,3.47,0.53,3.98,3.55,3.81c6.79-0.39,13.64-1.04,20.4-0.58c4.55,0.31,5.56-1.4,6.15-5.23c3.84-24.87,5.36-49.94,6.48-75.03
			c1.23-27.75,1.27-55.54,3.7-83.24C918.7,714.42,920.67,699.22,919.85,683.56z M940.05,685.09c-1.75,0.14-1.68,0.9-1.83,1.5
			c-4.04,15.45-8.21,30.88-12.08,46.37c-2.48,9.94-5.76,19.8-5.81,30.16c-0.11,25.49-0.27,50.97-2.86,76.35
			c-1.89,18.51-3.15,37.12-6.95,55.38c-0.88,4.24,0.85,6.16,4.63,6.37c7.32,0.4,14.52-0.14,21.52-2.8c5.26-2,7.31-5.04,6.6-10.87
			c-1.32-10.89-1.77-21.89-2.85-32.81c-2.74-27.85-5.88-55.82-3.93-83.71c1.54-22.1,1.67-44.24,3.48-66.3
			C940.5,698.23,940.05,691.66,940.05,685.09z M1028.47,675.08c-3.33,18.81-6.77,36.42-9.46,54.15c-1.56,10.3-3.05,20.8-1.91,31.22
			c0.89,8.1,2.19,16.14,1.92,24.3c-0.21,6.21,2.3,12.07,1.99,18.29c-0.53,10.81,0.09,21.54,2.42,32.17
			c2.27,10.36,5.68,20.54,6.11,31.2c0.19,4.66,0.67,7.86,5.35,10.66c4.26,2.55,7.47,3.81,11.73,0.95c1.36-0.91,2.95-1.53,4.49-2.13
			c5.48-2.11,5.71-2.79,2.89-7.85c-1.34-2.4-3.97-4.81-2.48-7.69c1.59-3.08,0.74-5.78,0.15-8.67c-3.89-19.05-7.55-38.09-9.5-57.5
			c-1.77-17.64-3.05-35.32-6.58-52.85c-3.07-15.24-2.44-31.11-4.5-46.61C1030.3,688.52,1031,682.12,1028.47,675.08z M882.32,682.19
			c-0.41-0.15-0.83-0.29-1.24-0.44c-1.62,4.11-3.35,8.19-4.84,12.35c-4.63,12.97-9.24,25.95-13.7,38.98
			c-2.45,7.17-7.45,13.28-8.26,21.15c-0.78,7.6-1.58,15.25-3.2,22.7c-3.14,14.44-7.21,28.64-11.36,42.85
			c-4.3,14.75-7.16,29.98-11.94,44.66c-1.02,3.15,1.09,4,3.13,4.51c6.28,1.57,12.58,2.71,19.18,2.14c3.29-0.29,4.42-1.29,5.23-4.46
			c3.97-15.53,5.13-31.52,8.21-47.18c1.77-9.01,3.44-17.99,3.43-27.17c-0.02-17.08,3.6-33.73,5.96-50.52
			C875.72,721.87,879.16,702.05,882.32,682.19z M1006.94,675.28c-0.13-0.07-0.25-0.15-0.38-0.22c-0.48,1.85-1.07,3.67-1.43,5.54
			c-1.69,8.64-3.33,17.28-4.63,26c-2.14,14.29-5.14,28.45-7.58,42.69c-1.64,9.58-0.04,19.23-0.25,28.8
			c-0.26,12.23,1.25,24.22,2.73,36.22c2.83,23.03,8.02,45.71,10.77,68.77c0.19,1.56,0.28,3.09,2.45,2.96
			c5.13-0.31,10.31,0.43,15.39-1.11c1.91-0.58,3.07-1.42,2.77-3.41c-1.35-9.03-1.67-18.2-4.51-27.02
			c-4.34-13.48-7.97-27.18-7.98-41.48c-0.02-14.34-1.73-28.61-3.62-42.7c-2.59-19.23-2.75-38.48-3.62-57.73
			C1006.49,700.2,1006.94,687.73,1006.94,675.28z M1040.57,671.23c-0.07,0.77-0.15,1.54-0.21,2.31c-1.3,15.28,0.12,30.56,0.05,45.85
			c-0.03,6.28-1.08,12.8-0.01,18.8c2.94,16.56,3.39,33.33,5.25,49.97c1.36,12.2,2.72,24.4,5.13,36.4
			c2.12,10.55,5.51,20.84,7.08,31.54c0.45,3.05,2.59,3.21,4.87,2.32c4.99-1.95,10.04-3.42,15.44-3.7c3.42-0.18,4.59-1.89,3.46-5.37
			c-2.55-7.85-4.64-15.8-7.52-23.6c-3.71-10.03-7.37-20.42-9.15-30.93c-2.87-16.86-6.22-33.67-9.92-50.29
			c-3.35-15.06-6.19-30.25-9.69-45.28C1043.2,690.03,1043.72,680.39,1040.57,671.23z M866.18,675.08
			c-2.09,4.74-4.21,9.37-6.31,14.01c-5.42,11.97-11.77,23.58-16.56,35.75c-6.89,17.49-9.14,36.38-13.48,54.63
			c-4.58,19.27-8.83,38.59-15.6,57.23c-4.31,11.87-2.74,14.85,9.75,17.37c0.33,0.07,0.65,0.14,0.98,0.21
			c1.59,0.33,2.5-0.28,2.92-1.87c2-7.72,5.25-15.14,5.88-23.18c0.35-4.41,1.81-8.46,3.41-12.47c5.67-14.28,9.68-29.08,11.95-44.18
			c3-20.05,7.28-39.85,10.95-59.76C862.36,700.29,865.62,687.95,866.18,675.08z M933.74,966.69c0.87-4.18-0.86-8.14-1.18-12.21
			c-0.89-11.36-0.77-22.42,4.9-32.91c2.7-5,2.72-10.92,3.03-16.57c0.06-1.11-0.23-2.93-1.83-1.98c-5.64,3.36-11.93,2.57-17.96,2.95
			c-5.51,0.35-11.41,0.81-15.14-4.93c-0.37-0.58-1.36-0.95-2.12-1.05c-4.61-0.64-9.23-1.18-13.85-1.72
			c-0.82-0.09-1.74-0.08-2.19,0.79c-0.51,0.99,0.52,1.38,0.92,2.04c2.73,4.54,3.64,9.54,3.72,14.76c0.16,10.86-2.06,21.45-3.65,32.1
			c-1.26,8.43-1.51,7.96,7.27,7.14c12.66-1.19,25.05-0.59,34.36,10.1C930.85,966.15,932.03,966.95,933.74,966.69z M1010.16,479.88
			c-2.09-0.12-2.34,1.28-3.12,2.05c-4.22,4.19-8.42,8.39-12.71,12.51c-1.05,1.01-2.63,2.27-3.87,0.73
			c-1.33-1.64,0.53-2.72,1.63-3.55c6.68-5.07,10.14-12.68,15.14-19.06c2.11-2.69-0.32-4.55-1.97-5.79c-2.3-1.73-2.43,1.23-3.3,2.31
			c-1.04,1.29-2.01,2.69-2.69,4.2c-4.99,11.08-15.26,13.65-25.66,15.51c-2.51,0.45-6.46,1.07-8.14-2.67
			c-1.65-3.66,0.85-5.95,3.07-8.19c4.06-4.09,9.3-6.35,14.33-8.9c1.62-0.82,4.13-1.59,3.52-3.55c-0.59-1.87-3.05-1.8-5.15-1.59
			c-8.05,0.8-14.38,5.17-19.99,10.29c-5.16,4.7-8.25,10.56-8.59,18.19c-0.38,8.52,1.86,16.19,6.59,22.47
			c5.58,7.4,12.09,14.13,23,14.55c8.82,0.34,16-3.47,22.9-7.28c4.78-2.65,9.06-7.74,8.42-15.11c-0.89,0.64-1.51,0.91-1.87,1.38
			c-4.12,5.36-10.49,7.47-15.86,11.02c-1.76,1.16-4.33,1.22-5.25-0.91c-1.19-2.76,1.41-3.23,3.37-3.57c3.5-0.61,6.66-2.02,9.73-3.71
			c5.59-3.08,8.94-11.13,6.58-16.81c-2.77,3.62-5.42,6.98-7.95,10.44c-1.3,1.78-2.64,3.42-4.67,4.39c-1.63,0.78-3.37,1.08-4.44-0.61
			c-1-1.58-0.56-3.16,1.13-4.29c1.79-1.2,3.54-2.48,5.24-3.81C1006.31,495.27,1008.55,487.86,1010.16,479.88z M1052.21,663.88
			c-0.69,5.67,0.31,9.76,0.7,13.86c1.57,16.36,0.99,33.21,7.1,48.69c5.25,13.3,5.11,27.55,9.33,41c3.58,11.41,2.52,23.86,7.32,35.23
			c3.56,8.44,3.24,17.9,5.29,26.78c0.32,1.4-0.1,3.24,1.63,3.92c6.79,2.67,11.94-1.38,16.99-4.71c3.52-2.32,0.08-5.27-0.81-7.46
			c-4.13-10.17-5.87-21.17-10.65-31.07c-2.56-5.3-4.52-10.73-5.51-16.49c-2.61-15.13-7.79-29.54-12.34-44.11
			c-5.34-17.12-11.3-34.05-14.23-51.83C1056.3,673.35,1055.19,669.02,1052.21,663.88z M998.18,608.08
			c-11.4-0.75-22.62-0.83-33.83-4.05c-16.24-4.66-32.42-9.23-47.72-16.45c-2.21-1.04-3.3-0.49-4.42,1.4
			c-2.58,4.37-6.35,7.13-11.41,8.05c-3.43,0.62-3.72,2.17-2.12,5.26c3.36,6.47,5.98,13.25,7.41,20.5c1.73,8.83,1.95,8.79,10.79,7.3
			c0.16-0.03,0.34,0,0.5-0.03c15.83-3.13,31.6-6.42,46.45-13.04c5.52-2.46,11.32-3.7,17.35-4.19
			C987.08,612.35,992.51,609.9,998.18,608.08z M857.52,563.47c-0.71,1.6-0.12,2.21,0.34,2.91c12.29,18.93,29.65,17.62,43.76,4.19
			c9.58-9.11,14.87-21.05,9.52-35.34c-3.2-8.56-15.46-17.82-24.7-17.34c-0.01,1.37,1.14,1.95,1.92,2.75
			c4.08,4.22,6.88,9.37,10.1,14.18c2.66,3.98,1.23,7.4-2.77,7.24c-10.94-0.43-22.01-0.92-30.93-8.77c-0.88-0.77-1.38-2.28-3.39-2.05
			c2.78,7.61,7.37,13.52,14.87,18.32c-9.76-0.42-13.85-7.7-19.44-13.02c-0.79,2.16-0.5,3.48,0.11,4.66
			c4.41,8.57,14.41,10.72,20.97,17.91c-4.81,0.19-8.16-2.1-11.69-3.59c-3.59-1.52-7.05-3.33-11.18-5.31
			c3.32,8.17,9,12.84,16.44,15.57c1.8,0.66,4.08,1.3,3.61,3.36c-0.59,2.56-3.23,1.75-5.07,1.41
			C865.12,569.66,861.27,566.75,857.52,563.47z M1058.19,227.75c-0.11,1.8-0.36,3.6-0.3,5.4c0.34,9.66-2.64,18.14-7.77,26.33
			c-5.48,8.73-12.17,16.19-20.1,22.58c-10.36,8.35-8.21,17.97-1.23,28.01c8.19,11.76,15.57,23.96,8.57,39.13
			c-1.05,2.29-0.38,3.6,1.92,3.97c2.03,0.33,5.04,2.48,5.75-1.21c0.94-4.9,3.61-8.88,5.61-13.24c3.06-6.69,1.97-13.36-0.65-19.95
			c-1.09,3.01-1.6,6.06-3.03,8.81c-0.7,1.35-1.35,2.99-3.11,2.8c-1.84-0.2-2.23-2.18-2.23-3.48c0.04-7.46-2.52-13.97-6.69-19.99
			c-0.53-0.76-1.12-1.88-0.18-2.71c0.84-0.74,1.88-0.1,2.84,0.07c2.84,0.52,3.8,3.81,6.52,4.8c0.33-1.84-0.47-2.97-0.97-4.17
			c-5.13-12.22-3.68-23.26,5.36-33.3c3.42-3.79,6.69-7.78,8.47-12.82C1060.63,248.53,1059.15,238.15,1058.19,227.75z
			 M902.52,1220.72c1.08-2.25-0.51-3.38-1.4-4.63c-2.02-2.83-4.16-5.58-6.28-8.33c-0.51-0.66-1.24-1.33-0.56-2.13
			c0.63-0.74,1.52-0.43,2.25,0.05c2.35,1.55,4.6,3.2,6.47,5.37c0.72,0.84,1.65,2.84,2.97,0.9c0.85-1.24,2.06-3.51,0.6-4.55
			c-4.91-3.5-7.82-10-15.02-10.16c-3.48-0.08-6.97-0.34-10.43-0.74c-4.42-0.51-8,0.04-10.59,4.45c-1.53,2.61-4.14,4.67-6.83,6.46
			c-3.03,2.02-5.81,4.44-8.59,6.81c-0.92,0.79-2.52,1.6-1.66,3.2c0.66,1.22,2.08,1.64,3.46,1.61c1.32-0.03,2.64-0.25,3.96-0.42
			c8.61-1.09,17.25-0.85,25.88-0.45c1.89,0.09,4.53,1.85,3.56-2.57c-0.35-1.61,1.91-1.07,3.18-0.87
			C897.32,1215.33,899.51,1218.53,902.52,1220.72z M936.42,321.54c1.07,6.05-0.8,11.46-1.65,16.96c-0.29,1.88-0.37,3.08,1.84,3.79
			c6.14,1.97,12.06,4.8,18.83,3.49c3.77-0.73,7.51-0.6,11.34,0.34c4.52,1.11,6.38-0.8,6.13-5.43c-0.13-2.32-0.37-4.65-0.31-6.97
			c0.06-2.3-0.44-2.89-3.08-2.91c-4.44-0.03-8.96,0.61-13.36-0.56C949.19,328.42,942.05,326.97,936.42,321.54z M1099.47,1198.25
			c-8.5-1.96-16.33-3.46-23.97-5.63c-4.62-1.31-6.32,0.48-7.5,4.5c-1.26,4.3-2.86,8.54-6.15,11.81c-1.02,1.02-2.16,2.08-0.4,3.14
			c1.31,0.79,3.04,1.97,4.51,0.3c1.09-1.23,1.71-2.87,2.76-4.14c1.65-1.99,2.59-4.87,6.08-5.62c-0.38,4.48-2.55,7.73-3.86,11.26
			c-0.44,1.18-1.55,2.65-0.12,3.64c1.64,1.14,2.11-0.89,3.07-1.62c1.46-1.11,1.84-3.56,4.29-3.7c0.68,1.92,0.16,3.44-0.49,5.02
			c-0.43,1.05-2.23,2.49-0.28,3.28c1.66,0.67,1.78-1.47,2.4-2.54c0.23-0.39,0.59-0.69,0.99-1.14c0.38,0.51,0.7,0.87,0.93,1.28
			c0.69,1.21-1,3.28,1.13,3.86c1.91,0.51,2.97-1.15,4.05-2.39c0.77-0.87,1.33-1.94,2.14-2.75
			C1094.04,1211.82,1094.36,1204.34,1099.47,1198.25z M968.21,393.39c0.52,0.07,1.04,0.14,1.57,0.21
			c-1.38-6.55,2.08-11.49,4.37-16.87c1.16-2.72,3.79-5.36,1.91-8.83c-0.39-0.73,0.05-1.33,0.63-1.68c3.21-1.9,3.05-6.13,5.91-8.39
			c1.17-0.93,1.47-3.09-0.97-3.15c-5.32-0.13-10.71-2.53-16,0.97c-2.09,1.38-5.09,2.09-7.62,1.96c-5.43-0.28-9.93,2.48-14.89,3.63
			c-2.37,0.55-2.04,1.53-1.14,3.09c1.92,3.31,3.82,6.63,5.63,9.99c0.76,1.42,1.7,1.2,2.91,0.76c5.3-1.95,10.58-3.94,15.45-6.85
			c2.15-1.28,2.87-3.05,2.42-5.48c-0.23-1.27-1.27-2.52-0.56-4.15c6.07,6.25,6.68,10.74,3,14.83c-2.45,2.72-7.82,2.83-8.02,6.26
			c-0.19,3.22,2.72,6.61,4.18,9.96C967.52,390.84,967.81,392.14,968.21,393.39z M877.98,334.14c0.26,1.31-1.59,4.44,1.34,5.32
			c3.24,0.98,7.81,2.02,10-0.24c1.82-1.88-0.3-5.93-2.01-8.65c-0.52-0.83-1.21-1.61-1.96-2.24c-3.3-2.76-6.54-5.62-10.01-8.15
			c-7.04-5.12-7.32-11.97-0.44-17.56c2.7-2.2,5.63-4.12,8.4-6.24c3.29-2.53,3.56-5.8,1.95-9.35c-1.39-3.06-3.47-5.63-5.91-7.94
			c-1.65-1.57-2.64-1.38-3.76,0.65c-4.04,7.3-9.09,13.82-14.8,19.95c-4.94,5.31-5.42,11.36-1.73,15.14
			c2.86,2.93,6.04,5.56,10.33,6.58C876.65,323.12,878.55,325.93,877.98,334.14z M989.03,321.72c2.52,5.22,6.4,7.49,9.48,10.61
			c1.48,1.5,4.17,2.56,4.58,4.25c1.22,5.01,5.1,6.22,8.95,8.1c3.32,1.62,3.6,0.32,3.6-2.46c0-6.92-3.61-12.47-8.43-16.35
			c-7.74-6.22-10.17-13.14-6.57-22.29c0.05-0.12-0.39-0.43-0.99-1.07c-4.33,4.75-8.06,10.11-13.65,13.52
			c-0.55,0.34-0.83,1.47-0.86,2.25c-0.33,6.95-0.63,13.91-0.84,20.87c-0.06,1.96,0.93,3.12,3.11,2.86c3.4-0.4,6.8-0.76,10.52-1.18
			C995.46,334.5,986.74,331.56,989.03,321.72z M993.69,544.44c6.25,1.22,12.75-0.32,19.29-1.28c1.43-0.21,3.24,0.06,2.82-2.36
			c-0.98-5.58-2.35-11.05-4.22-16.4c-0.57-1.63-1.57-2.22-2.83-0.64c-4.68,5.88-11.88,6.97-18.28,9.41
			c-6,2.29-12.29,3.94-18.78,4.29c-3.76,0.2-3.52,3.32-3.65,5.48c-0.17,2.87,2.49,1.39,3.78,1.41
			C978.96,544.53,986.11,544.44,993.69,544.44z M863.52,448.4c10.49-1.13,19.99-5.69,29.93-8.68c20.51-6.17,41.06-12.14,62.08-16.27
			c8.14-1.6,16.39-2.63,24.22-5.58c1.32-0.5,2.53-0.99,2.04-2.79c-0.58-2.14-1.93-1.03-3.16-0.84c-7.36,1.18-14.49,3.3-21.71,5.04
			c-10.3,2.48-20.65,5.08-30.74,8.02c-12.35,3.6-25.02,6.13-37.13,10.63C880.43,441.14,871.63,443.82,863.52,448.4z M946.3,378.04
			c-1.61,1.41-0.7,2.58-0.81,3.65c-0.61,6.07-1.36,12.14-5.49,17.02c-0.47,0.56-2.13,0.4-1.77,1.71c0.33,1.19,1.57,0.93,2.56,0.79
			c5.26-0.73,10.43-1.62,15.51-3.45c4.19-1.51,6.87-2.71,3.78-7.64c-1.1-1.76-1.44-4.07-1.83-6.18c-0.45-2.46-1.54-3.56-4.09-2.83
			C950.81,382.09,947.62,382.45,946.3,378.04z M878.76,427.95c8.21-0.59,16.06-2.36,23.83-4.72c17.64-5.34,35.32-10.55,53.07-15.51
			c4.58-1.28,9.58-0.7,14.23-2.07c1-0.29,2.92-0.05,2.45-1.65c-0.39-1.31-0.64-3.5-2.96-3.38c-0.82,0.04-1.65,0.19-2.43,0.42
			c-10.78,3.18-21.52,6.54-32.22,9.93c-12.31,3.9-25.11,5.65-37.3,9.83C891.13,422.96,884.3,423.67,878.76,427.95z M920.03,348.07
			c-2.46,0.63-3.17,1.93-2.29,4.1c2.12,5.23,4.16,10.5,6.42,15.67c0.69,1.58,1.66,4.3,3.53,3.56c3.74-1.48,7.81-1.24,11.41-2.81
			c0.78-0.34-0.17-1.8-0.3-2.75c-1-6.97-6.59-9.97-11.6-13.43C924.87,350.82,922.39,349.49,920.03,348.07z M931.92,420.26
			c15.5-2.35,30.75-5.47,45.32-11.1C960.07,405.09,946.79,415.78,931.92,420.26z M894.31,661.48c3.63,3.57,7.31,5.11,11.23,3.55
			c8.39-3.35,16.62-1.87,24.98-0.34c2.9,0.53,5.91,0.9,9.09-1.08C924.44,660.6,909.79,659.09,894.31,661.48z M992.22,129.1
			c10.93,2.43,22.39,1.91,32.69,7.16c0.68,0.35,1.45,0.32,1.7-0.32c0.19-0.48-0.04-1.39-0.42-1.76c-1.17-1.15-2.39-2.32-3.79-3.14
			C1012.66,125.29,1002.39,128.15,992.22,129.1z M937.17,393.47c2.18-5.45,3.27-10.01,5.83-13.92c1.35-2.06,0.65-3.49-1.57-3.08
			c-4.01,0.74-8.02,0.25-12.38,0.23C931.76,382.3,934.24,387.42,937.17,393.47z M1026.71,250.22c7.4-7.76,8.86-27.03,2.86-32.91
			C1031.26,228.42,1027.55,238.62,1026.71,250.22z M946.39,513.36c-2.03,2.78-3.32,5.74-2.6,9.21c1.31,6.22,1.31,12.48,0.93,18.78
			c-0.07,1.13-1.14,3.06,0.82,3.29c1.75,0.21,1.66-1.77,1.72-2.99c0.37-8.09,0.66-16.19,0.94-24.28
			C948.25,515.88,948.07,514.42,946.39,513.36z M865.85,596.12c4.27-0.39,11.7-7.37,12-10.67c0.07-0.77-0.25-1.13-0.86-1.53
			c-2.99-1.95-5.72-1.05-7.01,2.25C868.75,589.37,867.36,592.52,865.85,596.12z M886.32,655.05c-6.23-6.03-17.28-4.59-18.28-15.41
			c0.15,3.53-3.84,7.37-0.02,9.66C873.2,652.4,879.05,654.41,886.32,655.05z M1046.92,639.35c-0.73-1.16,0.78-4.22-1.83-3.56
			c-2.86,0.73-6.55,1.99-6.84,5.64c-0.18,2.21,2.62,1.92,4.35,2.06C1045.46,643.73,1046.94,642.35,1046.92,639.35z M908.47,426.13
			c-10.02,0.34-18.48,4.92-26.96,9.46C890.94,433.65,899.04,428.07,908.47,426.13z M941.84,523.48c-6.11,6.57-1.91,14.79-5,21.84
			c0.58,0.09,1.17,0.18,1.75,0.28C939.67,538.23,940.76,530.85,941.84,523.48z M951.81,523.66c0,7.16,0,13.28,0,19.41
			c0.5-0.02,1-0.04,1.5-0.05C952.94,536.9,957.37,530.62,951.81,523.66z M889.77,583.72c-8.98-0.48-7.68,7.08-10.82,10.76
			C883.68,592.34,886.16,588.12,889.77,583.72z M1010.14,653.18c-7.4-0.86-14.8-1.02-22.02,3.89
			C995.99,655.68,1003.06,654.43,1010.14,653.18z M933.49,530.9c-0.64-0.1-1.29-0.2-1.93-0.29c-0.68,4.9-1.36,9.81-2.05,14.71
			c0.47,0.07,0.93,0.15,1.4,0.22C932.09,540.72,933.53,535.94,933.49,530.9z M993.99,363.46c3.15-3.31,6.54-6.47,7.86-11.04
			C999.28,356.15,994.81,358.49,993.99,363.46z M891,589.67c2.36-2.52,4.83-4.92,5.79-8.82C890.71,581.52,891.93,586.34,891,589.67z
			 M924.31,541.95c-0.4-1.59,1.36-4-0.63-4.45c-2.1-0.48-2.21,2.03-2.04,3.59c0.2,1.79-1.39,4.88,1.19,5.11
			C925.45,546.42,923.32,543.24,924.31,541.95z M1055.02,207.1c0.22-2.62,0.4-5.3-1.3-7.46c-0.62-0.79-2,0.45-2.29,1.2
			c-1.14,2.91,1.66,4.25,2.81,6.25C1054.28,207.17,1054.56,207.1,1055.02,207.1z M908.36,376.56c1.43,2.81,2.45,4.81,3.48,6.8
			c0.31,0.6,0.74,1.15,1.51,0.9c0.69-0.22,1.21-0.94,0.87-1.49C912.9,380.59,912.87,377.29,908.36,376.56z M907.68,365.95
			c-0.14-1.53-0.93-3.01-2.61-3.61c-1-0.36-1.47,0.74-1.25,1.56c0.42,1.63,0.06,3.9,2.32,4.37
			C907.29,368.51,907.69,367.3,907.68,365.95z"/>
		<path d="M990.06,219.14c-5.01,0.9-8.67,3.16-12.37,5.34c-0.7,0.41-1.42,1.3-2.13,0.63c-0.49-0.46-0.59-1.52-0.59-2.31
			c0-2.53,1.88-3.92,3.71-4.96c16.03-9.14,26.77-8.28,37.57,5.42c1.57,1.99,0.89,3.74-0.01,5.55c-3.53,7.13-9.71,9.57-17.2,9.54
			c-7.17-0.03-13.63-2.19-19.31-6.61c-1.23-0.96-2.41-1.94-1.86-3.7c0.76-2.43,2.45-0.68,3.72-0.68c0.65,0,1.29,0.28,1.94,0.44
			c3.68,0.89,8.07,2.83,5.77-4.37C988.96,222.35,989.71,220.93,990.06,219.14z M1000.07,219.42c1.06,3.65-1.62,7.55,1.8,9.64
			c1.45,0.89,5.5-0.71,5.63-2.8C1007.74,222.19,1003.71,221.27,1000.07,219.42z"/>
		<path d="M927.7,235.45c-7.69-0.96-15.11-0.82-21.19-5.68c-3.59-2.87-4.48-7.13-1.76-10.83c6.14-8.34,25.09-11.82,33.03-0.05
			c1.47,2.17,3.95,5.11,2,8.84C937.03,232.97,932.17,234.3,927.7,235.45z M916.39,222.37c-0.68-1.22,1.9-4.04-1.18-3.64
			c-3.28,0.43-8.16,1.71-8.35,4.88c-0.16,2.83,4.94,2.58,7.69,2.96C918.36,227.12,915.6,223.78,916.39,222.37z M924.54,227.4
			c2.63,0.31,5.18,0.16,7.67-0.56c2.85-0.83,2.73-2.34,0.91-4.27c-3.32-3.52-4.39-3.47-6.61,0.71
			C925.86,224.51,924.46,225.41,924.54,227.4z"/>
		<path d="M942.72,244.79c0.94-4.16,2.24-8.47,2.82-12.88c0.85-6.41,1.12-12.89,1.8-19.33c0.18-1.73,0.33-4.34,2.43-4.35
			c2.21-0.01,1.86,2.63,2.37,4.33c2.6,8.77-0.93,16.9-2.38,25.26c-0.44,2.54-3.29,5.54-0.39,7.7c4.16,3.1,8.45,6.77,14.42,4.9
			c1.51-0.47,3.57-2.28,4.39-0.54c0.88,1.89-1.1,3.52-3.08,4.38c-1.06,0.46-2.21,0.85-3.07,1.57c-3.62,3.03-7.63,3.47-11.56,1.22
			C945.93,254.46,943.07,250.48,942.72,244.79z"/>
		<path d="M936.57,273.26c3.44-3.59,7.46-3.36,11.08-4.04c8.77-1.65,17.55-1.64,26.23,0.63c1.56,0.41,3.63,0.76,3.55,2.82
			c-0.06,1.64-1.96,2.07-3.29,2.72c-1.22,0.59-2.44,0.88-3.85,0.53c-8.01-2.03-16.16-1.75-24.3-1.14
			C942.98,275,940.11,274.48,936.57,273.26z"/>
		<path d="M902.62,205.23c3.34-5.47,8.16-5.73,12.26-6.74c7.9-1.95,15.54-0.54,22.6,3.53c1.81,1.04,3.48,2.45,1.89,4.78
			c-0.97,1.42-1.96,3.31-4.36,1.86C925.21,202.72,914.59,203.16,902.62,205.23z"/>
		<path d="M974.66,203.24c8.06-5.74,16.17-7.35,24.88-4.34c3.8,1.31,7.24,3.42,10.64,5.87c3.52,2.54,2.08,4.69,0.96,6.63
			c-1.82,3.14-3.51,0.12-4.53-1.01c-7.77-8.61-17.29-9.66-27.8-6.86C977.7,203.83,976.6,204.32,974.66,203.24z"/>
		<path d="M957.77,286.26c-0.82-0.2-2.75-0.6-4.64-1.15c-1.1-0.32-2.31-0.73-2.13-2.28c0.18-1.55,1.27-2.44,2.67-2.5
			c4.11-0.2,8.24-0.25,12.36-0.23c1.13,0.01,2.42,0.36,2.6,1.8c0.15,1.15-0.87,1.69-1.66,2.27
			C964.57,285.91,961.78,286.22,957.77,286.26z"/>
		<path d="M829.54,511.02c4.6-7.42,10.41-13.72,17.83-19.2C846.22,497.46,837.3,507.28,829.54,511.02z"/>
		<path d="M799.56,509.83c5.53,1.35,8.17,4.37,10.93,7.07c1.47,1.44,1.13,3.82-0.26,4.96c-2.07,1.7-2.58-0.84-3.45-2.03
			C804.65,516.92,802.55,513.97,799.56,509.83z"/>
		<path d="M829.89,522.8c3.13-6.68,9.08-10.6,14.61-14.94C840.04,513.24,836.12,519.12,829.89,522.8z"/>
		<path d="M842.35,562.27c0.52-4.48,2.26-7.21,4.43-9.77C846.32,555.79,846.52,559.33,842.35,562.27z"/>
		<path d="M836.97,560.13c-0.99-4.3,1.25-6.97,4.45-9.16C839.94,554.03,838.46,557.08,836.97,560.13z"/>
		<path d="M960.28,143.5c4.87,6.6,11.08,10.92,17.33,15.12c8.88,5.96,19.53,6.11,29.46,8.57c12.28,3.05,21.17,9.79,25.45,22
			c0.57,1.61,0.46,3.06-0.97,3.98c-1.8,1.15-3.02,0.02-4.2-1.37c-4.92-5.82-9.43-12.26-17.29-14.4c-5.56-1.52-11.24-2.78-16.94-3.64
			c-12.77-1.93-23.1-7.74-30.61-18.32C960.08,152.03,957.94,148.51,960.28,143.5z"/>
		<path d="M925.76,159.59c-5.64,5.65-12.15,9.87-19.13,13.39c-7.84,3.96-14.26,9.84-19.85,16.39c-8.1,9.51-8.93,21.1-7.71,32.98
			c0.18,1.7,1.65,3.97-0.8,4.72c-2.22,0.68-3.14-1.61-3.6-3.34c-3.78-14.47-3.54-28.46,6.55-40.55c7.52-9.01,17.04-15.09,28.7-17.85
			C915.36,164.04,920.5,161.54,925.76,159.59z"/>
		<path d="M856.38,221.95c3.51,11.62,12.98,18.38,18.34,27.97c0.64,1.15,1.37,2.3,1.75,3.54c0.34,1.12,0.06,2.35-0.95,3.15
			c-1.07,0.85-2.17,0.5-3.27-0.05c-7.73-3.9-18.12-23.81-16.91-32.5C855.4,223.63,855.73,223.24,856.38,221.95z"/>
		<path d="M959.74,136.98c-0.44,0.9-0.8,1.83-1.31,2.66c-4.34,7.08-10.69,12.1-17.28,16.87c-1.57,1.14-3.36,1.63-4.97,0.12
			c-1.81-1.7-0.68-3.49,0.39-4.88c5.45-7.07,12.36-12.34,20.46-16.05C958.36,135.1,959.62,134.79,959.74,136.98z"/>
		<path d="M969.34,144.57c7.71,1.27,15.39,0.97,23.08,0.98c3.02,0,5.76,1.36,7.95,3.67c1.13,1.19,2.01,2.24,0.84,3.85
			c-1,1.37-2.54,2.21-3.86,1.2c-4.99-3.84-11.15-2.74-16.67-4.27C976.59,148.86,972.53,147.76,969.34,144.57z"/>
		<path d="M948.59,449.58c1.29-3.22,4.33-2.19,5.86-4.43c-8.15,0.93-16.02,1.99-25.11,1.44c8.2-4.96,16.52-6.28,24.5-8.56
			c1.91-0.55,3.86-1.02,5.82-1.31c1.38-0.21,3.14-1.14,4.11,0.5c0.95,1.6-0.65,2.73-1.4,3.95c-0.64,1.04-1.43,1.99-2.04,2.81
			c0.08,0.01,0.55,0.06,1.03,0.08c1.78,0.06,4.6-1.98,5,0.91c0.32,2.33-1.85,4.59-4.59,5.07
			C957.52,450.79,953.33,449.71,948.59,449.58z"/>
		<path d="M937.2,471.02c-1.89,3.46-5.12,4.48-7.78,4.45c-11.95-0.12-23.11,3.9-34.62,5.99c-0.95,0.17-1.9,0.32-2.92,0.17
			C905.97,474.7,921.15,472.33,937.2,471.02z"/>
		<path d="M913.86,491.03c5.49-3.57,11.05-6.5,17.3-7.67c1.58-0.3,4.2-1.37,4.72,0.93c0.39,1.72-1.04,4.34-2.88,4.85
			C926.79,490.86,920.43,492.02,913.86,491.03z"/>
		<path d="M916.05,481.94c5.45-1.54,10.89-3.12,16.35-4.6c0.9-0.25,2.21-0.42,2.31,1c0.09,1.29-0.96,2.4-2.1,2.36
			C927.04,480.51,921.77,482.77,916.05,481.94z"/>
		<path d="M920.84,934.42c-4.09,0.33-7.77-1.48-11.64-2.33c-1.33-0.3-2.64-1.25-2.62-2.68c0.03-1.7,1.78-1.82,3.02-1.94
			c5.29-0.5,10.6,0.85,15.9-0.11c1.17-0.21,1.99,0.69,1.69,1.84c-0.5,1.96,0.01,4.62-2.88,5.19
			C923.2,934.6,922,934.42,920.84,934.42z"/>
		<path d="M932.2,609.79c-2.54-0.28-4.92,0.71-5.39-1.85c-0.48-2.59,2.15-2.51,3.65-3.18c3.51-1.56,7.3-2.1,11.07-2.65
			c1.23-0.18,2.95-0.83,3.59,0.63c0.75,1.72-0.95,2.63-2.11,3.48C939.55,608.76,935.49,609.4,932.2,609.79z"/>
		<path d="M919.24,619.45c4.78-2.71,9.57-5.45,15.42-4.54C929.97,617.86,925.17,620.43,919.24,619.45z"/>
		<path d="M873.68,294.78c-0.16,0.64-0.15,1.59-0.6,2.23c-3.48,5.04-7.02,10.04-10.6,15.02c-0.47,0.65-1.34,1.29-2.16,0.76
			c-1.5-0.97-2.05-2.63-2.08-4.3c-0.06-3.93,9.38-14.83,13.18-15.46C872.78,292.8,873.79,292.84,873.68,294.78z"/>
	</g>
</g>
</svg>
