<?xml version="1.0" encoding="utf-8"?>
<!-- Generator: Adobe Illustrator 26.0.2, SVG Export Plug-In . SVG Version: 6.00 Build 0)  -->
<svg version="1.1" id="Layer_1" xmlns="http://www.w3.org/2000/svg" xmlns:xlink="http://www.w3.org/1999/xlink" x="0px" y="0px"
	 viewBox="0 0 1920 1080" style="enable-background:new 0 0 1920 1080;" xml:space="preserve">
<g>
	<g>
		<path d="M1042.93,483.11c-0.09,4.89,2.05,9.39,2.54,14.17c0.18,1.8,0.03,3.63,0.03,5.45c-3.82-1.15-4.19-1.65-6.99-11.71
			c-1.32-4.76-2.34-9.61-3.89-16.07c-8.19,14.37-13.77,28.19-16.69,43.09l0.18-0.18c-3.44,4.61-5.84,10.13-6.09,15.47
			c-0.18,3.97,2.42,8.31,2.47,12.81c0.03,2.82-0.19,5.54-1.67,8.94c-3.66-5.72-0.85-11.51-2.24-17.15
			c-3.72,5.05-4.7,10.87-7.06,16.07c-0.24,0.53-0.25,1.46,0.06,1.9c5.02,6.97,4.78,15.22,5.79,23.17c0.13,1.04-0.23,2.54,1.12,3.1
			c1.59,0.66,2.32-0.78,3.31-1.62c8.49-7.18,13.87-17.02,21.33-25.04c11.56-12.43,21.94-25.86,33.29-38.46
			c3.1-3.44,5.72-7.33,8.39-11.14c1.43-2.04,4.92-3.59,0.77-7.01c-1.9-1.56-1.24-5.73-0.31-8.64c0.74-2.32,2.07-1.72,3.14-0.13
			c1.32,1.98,1.56,4.33,2.03,6.55c1.13,0.25,1.76-0.44,2.09-1.15c6.18-13.55,13.68-26.5,12.74-42.42
			c-1.33-22.39,2.65-44.49,5.32-66.63c0.8-6.66,1.66-13.32,2.58-20.61c-5.08,3.16-7.5,8.64-13.62,9.98c0.33-3.11,2.62-4.69,4.13-6.6
			c1.96-2.47,4.19-4.73,6.37-7.02c5.13-5.4,5.14-5.38,5.53-13.6c-2.15,0.63-2.55,3.01-4.2,4.08c-0.98,0.63-1.89,1.62-3.05,0.59
			c-0.82-0.74-0.65-1.82-0.29-2.8c0.11-0.31,0.21-0.68,0.43-0.9c6.16-6.12,5-13.83,5-21.46c0-15.47,2.05-30.97-0.31-46.39
			c-1.45-9.48-4.72-18.05-12.82-24.41c-5.17-4.05-9.57-8.98-15.87-11.58c-2.48-1.02-5.04-1.65-7.56-2.06
			c-6.24-1.01-7.49,0.32-6.7,6.58c0.65,5.14-0.74,9.76-2.69,14.42c-4.66,11.13-13.45,18.8-21.84,26.85c-1.9,1.83-4.43,1.1-6.62,1.75
			c-11.76,3.5-24.26,4.37-36.04,3.59c-17.3-1.15-34.48,1.11-51.68-0.33c-11.6-0.97-23.2-2.12-34.88-2.03
			c-5.63,0.04-11.43,1-16.85-0.97c-9.94-3.61-19.59-7.82-25.8-17.16c-2.01-3.02-4.19-5.89-6.52-8.71
			c-4.1-4.98-4.09-11.03-2.42-17.07c0.39-1.43,1.44-2.84,1.35-4.2c-0.18-2.59,0.17-5.96-4.59-4.64c-4.95,1.36-10.07,2.13-15.11,3.13
			c-12.01,2.4-19.14,10.87-24.81,20.69c-2.15,3.71-4.64,7.21-6.69,10.99c-1.22,2.25-1.36,3.7,0.68,5.6
			c2.29,2.13,4.17,4.72,6.05,7.25c2.02,2.72,2.46,5.97-0.53,7.91c-3.05,1.97-4.36-1.29-5.49-3.36c-1.18-2.17-1.83-4.62-2.81-6.9
			c-0.39-0.9-1.06-1.96-2.19-1.61c-0.61,0.19-1.19,1.14-1.39,1.86c-1.02,3.63-2.81,7.17,2.79,9.3c3.65,1.39,5.29,5.45,6.61,9.05
			c0.96,2.61-1.22,4.04-3.2,4.91c-2.07,0.91-3.37-0.43-4.25-2.28c-1.59-3.36-2.16-7.3-6.02-9.33c-1.32-0.7-1.35-2.64-1.04-4.15
			c3.36-16.28,9.22-31.56,18.69-45.29c6.02-8.74,14.68-12.94,25.15-12.88c6.57,0.04,13.28-0.49,19.49,2.99
			c2.31,1.3,5.34-0.03,7.68-0.91c11.76-4.41,24.15-4.27,36.36-5.55c3.63-0.38,7.24-0.97,10.84-1.56c7.97-1.31,10.16-6.84,5.08-13.25
			c-2.15-2.71-4.93-4.92-7.19-7.56c-4.99-5.82-8.51-12.07-4.4-19.92c0.6-1.15,0.33-1.71-0.71-2.38
			c-12.02-7.7-16.36-19.76-19.28-32.94c-2.72-12.25-1.37-24.52-1.35-36.77c0.01-6.49,0.44-12.93-0.7-19.39
			c-0.4-2.28-0.93-3.17-3.05-1.73c-2.53,1.71-5.2,2.81-7.69,0.31c-2.78-2.79-4.6-6.12-3.38-10.31c0.14-0.47,0.71-1.2,0.6-1.31
			c-4.96-4.75-1.98-12.59-6.61-17.29c-2.36-2.39-3.22-4.47-1.41-7.41c0.43-0.69,1.05-1.72,0.82-2.29
			c-2.85-6.9,1.53-13.29,1.34-20.03c-0.17-5.95,5.88-12.77,11.35-13.75c1.68-0.3,2.86,0.68,4,1.66c1.29,1.1,2.67,2.51,4.38,1.67
			c1.89-0.92,0.64-2.99,0.91-4.53c0.08-0.49,0.11-1.02,0.01-1.49c-0.44-2,1.22-4.95-1.22-5.89c-2.62-1-4.54,1.24-6.04,3.35
			c-0.27,0.39-0.72,0.65-1.51,1.35c-0.42-4.01,2.11-5.9,4.52-7.21c2.88-1.57,4.69-3.4,6.26-6.46c2.45-4.78,6.3-8.66,12.54-8.38
			c2.06,0.09,3.72-0.34,5.04-2.4c3.96-6.2,12.1-9,18.61-6.11c2.81,1.25,4.85,0.95,7.46-0.15c2.72-1.14,5.74-1.72,8.68-2.19
			c4.19-0.66,6.65,2.42,5.13,6.5c-1.51,4.05-3.43,7.94-5.17,11.91c-0.67,1.53-1.57,3.1-0.22,4.66c1.25,1.44,2.93,1.45,4.62,0.95
			c1.94-0.58,2.41-2.21,2.39-3.94c-0.04-2.66-0.28-5.32-0.38-7.98c-0.27-6.72,3.68-11.2,10.41-11.4c5.16-0.16,10.86-1.5,13.92,4.84
			c0.59,1.21,2.14,0.4,3.26,0.48c5.62,0.39,11.68-0.02,13.37,7.49c0.53,2.35,2.24,1.22,3.62,0.94c4.71-0.97,8.32,0.32,11.22,4.45
			c2.31,3.29,1.55,6.2-0.25,9.36c8.72-0.28,14.16,6.1,13.17,15c-0.16,1.43,0.47,1.53,1.55,1.85c8.68,2.54,11.18,10.67,5.32,18.18
			c3.24,0.72,8.31-1.35,8.86,3.22c0.78,6.4,4.7,8.88,9.47,12.15c6.41,4.39,6.34,8.82,2.46,16.7c-0.51,1.04-2.3,2.4-0.68,3.41
			c1.99,1.23,2.05-1.24,2.98-2.19c4.48-4.58,3.57-9.48,2.45-15.27c-1.76-9.13-2.27-18.4-6.59-26.98
			c-3.21-6.37-8.29-11.27-12.66-16.56c-4.68-5.66-9.14-11.44-13-17.6c-3.9-6.23-8.39-11.96-12.91-17.71
			c-1.54-1.96-3.71-3.16-5.66-3.9c-6.8-2.59-12.99-6.46-21.06-6.09c-9.89,0.45-19.09,3.65-28.83,4.75
			c5.34-4.47,11.65-6.97,18.27-8.65c4.02-1.02,8.21-1.36,12.31-2.09c3.72-0.67,7.17-0.17,10.7,1.3c7.42,3.1,15.22,5.11,21.99,9.89
			c8.38,5.92,13.88,14.16,19.23,22.47c6.98,10.85,12.94,22.37,20.08,33.11c4.6,6.92,4.93,14.57,6.25,22.16
			c0.69,3.94,1.26,7.89,2.02,11.82c0.33,1.71,0.47,3.42-0.46,4.86c-3.33,5.16-4.34,11.12-6.06,16.84c-1.76,5.87-5.4,9.34-11.7,9.91
			c-1.57,0.14-4.58-0.1-3.94,2.46c0.61,2.44,3.38,1.57,5.2,0.94c1.53-0.54,2.84-1.67,4.26-2.52c4.7-2.8,8.29-1.68,9.3,3.66
			c0.9,4.75,1.58,9.27,4.19,13.63c3.78,6.32,0.2,11.55-4.42,15.75c-2.13,1.94-2.8,3.71-2.62,6.42c0.41,6.23-3.81,12.72-9.6,14.85
			c-2.31,0.85-4.04,2.13-5.37,4.18c-2,3.1-4.53,4.92-8.34,2.78c-2.84-1.6-3.6,0.19-3.79,2.49c-0.15,1.81-0.07,3.65,0.04,5.47
			c0.37,6.29-1.28,11.49-7.38,14.52c-1.59,0.79-2.51,2.48-2.38,4.13c0.72,8.95-3.49,15.62-9.54,21.53c-2.76,2.7-5.08,5.73-2.66,9.65
			c2.47,3.99,6.36,6.14,11.05,5.14c3.46-0.74,6.58-0.25,9.79,0.68c0.64,0.19,1.27,0.55,1.91,0.56c10.59,0.16,20.75,2.36,30.51,6.46
			c1.12,0.47,2.1,0.51,3.31-0.05c10.86-5.02,20.73-3.41,29.48,4.83c4.35,4.1,8.53,8.37,12.83,12.52
			c9.25,8.93,10.66,20.44,11.19,32.45c0.33,7.58-0.48,15.17,0.63,22.75c1.22,8.3-0.02,16.46-1.41,24.75
			c-1.73,10.29-1.94,20.83-2.85,31.25c-1.39,15.9-3.14,31.79-4.12,47.71c-0.93,14.94-2.07,29.9-0.86,44.9
			c0.4,4.97-0.7,9.72-4.32,13.34c-2.38,2.38-3.54,5.14-4.26,8.27c-2.69,11.63-6.66,22.57-15.67,31.05c-4,3.77-2.62,8.78-1.6,13.13
			c4.1,17.58,8.68,35.06,11.21,52.96c1.77,12.53,2.55,25.15,2.27,37.83c-0.34,15.55,3.17,30.7,5.58,45.9
			c2.63,16.61,4.13,33.28,5.56,49.99c1.34,15.57,2.8,31.12,3.5,46.73c0.72,15.94,2.9,31.74,4.54,47.58
			c1.34,12.87,3.12,25.71,5.13,38.5c1.86,11.86,2.21,23.84,3.58,35.74c2.04,17.67,3.81,35.38,5.48,53.09
			c1.59,16.89,4.26,33.67,4.71,50.69c0.57,21.46,1.38,42.93,2.86,64.33c0.65,9.33,2.44,18.59,4.81,27.83
			c1.63,6.35,2.14,13.59,2.24,20.52c0.21,14.99,3.55,29.66,4.77,44.56c0.89,10.98,1.34,21.51-5.64,31.08
			c-2.93,4.02-5.93,6.17-10.87,4.45c-5.17-1.8-9.82-0.43-14.16,2.45c-2.11,1.4-3.83,3.17-4.17,5.92
			c-1.31,10.76-8.21,16.42-17.89,19.54c-2.88,0.93-4.79,2.08-5.52,5.85c-1.5,7.77-4.19,15.32-6.39,22.95
			c-0.79,2.75-1.97,5.39-3.87,7.48c-2.19,2.41-4.47,3.53-8.11,1.47c-9.94-5.62-19.59-11.52-28.24-19.08
			c-4.01-3.5-9.08-1.87-11.77,1.28c-9.5,11.12-20.83,9.32-32.46,5.55c-5.89-1.91-11.69-3.39-17.92-3.87
			c-5.4-0.41-10.87-1.33-16.06-3.37c-4.34-1.71-8.88-2.47-13.66-2.41c-4.44,0.06-8.92-0.26-13.29-1.67
			c-7.64-2.46-15.76-2.01-23.58-3.51c-3.52-0.67-6.56,0.42-8.96,3.86c-3.17,4.54-7.63,7.86-12.98,9.79
			c-8.12,2.93-16.21,5.94-24.36,8.79c-3.63,1.27-7.35-0.68-8.42-5.51c-1.88-8.52-6.82-16.37-5.78-25.52
			c0.21-1.82-1.1-2.31-2.22-2.88c-7.1-3.59-13.69-8.18-21.51-10.39c-4.85-1.37-7.86-4.87-8.72-9.95
			c-0.94-5.59-1.92-11.25,0.41-16.71c1.12-2.63-0.04-4.19-1.89-5.51c-5.27-3.75-10.05-8.19-16.29-10.53
			c-3.59-1.34-6.57-3.88-9.57-6.29c-5.28-4.24-7.07-9.56-6.43-16.32c2.4-25.18,5.03-50.37,6.5-75.61
			c1.06-18.26,0.48-36.62,0.54-54.93c0.05-18.01,2.27-35.88,3.54-53.81c1.28-18.1,2.72-36.19,4.42-54.25
			c1.03-10.9,2.79-21.72,4.04-32.6c2.35-20.48,4.31-41.02,6.89-61.47c5.44-43.22,5.68-86.67,6.21-130.12
			c0.14-11.67,1.77-23.23,3.69-34.73c2.68-16.03,1.42-32.22,1.81-48.34c0.34-14.04,2.5-27.83,4.28-41.7
			c1.42-11.03,1.28-22.28,4.94-32.99c0.86-2.52-1.02-4.36-2.01-6.44c-5.8-12.26-14.26-22.84-21.5-34.18
			c-2.82-4.42-3.7-9.97-8.19-13.47c-0.93-0.73-1.13-2.79-1.16-4.24c-0.45-22.84-6.94-45.08-6.47-68.05
			c0.44-21.46-1.31-42.96,1.79-64.35c0.73-5.02-1.03-10.34,2.38-16.08c2.58,8.53,7.29,15.08,12.24,21.5
			c1.04,1.35,1.07,2.7-0.69,3.75c-1.69,1.01-2.83,0.49-3.76-1c-1.05-1.67-2.07-3.36-4.46-5.04c0,7.46-0.33,14.93,0.07,22.37
			c0.87,16.15,1.18,32.32,0.61,48.46c-0.38,10.98,2.68,21.44,3.3,32.23c0.27,4.66,1.01,9.33,0,13.92c-0.77,3.5,3.59,4.89,2.81,8.55
			c-0.45,2.12,0.13,4.51-0.71,6.79c-1.32,3.61-0.4,5.67,3.96,5.82c6.15,0.2,11.57,2.56,16.25,6.62c1.07,0.93,2.22,1.58,1.31,3.2
			c-0.88,1.58-2.34,1.12-3.55,0.79c-2.62-0.71-4.58-2.64-6.78-4.1c-2.04-1.35-4.11-2.65-6.4-4.13c-1.1,2.73,0.7,3.95,1.74,5.14
			c7.11,8.07,14.05,16.14,19.84,25.37c5.83,9.3,12.86,17.87,18.32,27.46c4.07,7.14,11.2,11.91,15.12,19.12
			c5.33,9.8,14.95,15.49,22.1,23.53c1.74,1.95,4.84,2.71,7.34,3.97c2.72,1.38,5.25,3.13,6.93,5.61c3.09,4.54,7.63,6.67,12.48,8.56
			c2.07,0.81,2.69-0.18,3.25-1.78c2.57-7.46,5.89-14.51,11.51-20.23c1.46-1.49,0.81-2.91-0.42-3.86c-1.82-1.41-1.98,0.41-2.55,1.57
			c-0.71,1.43-1.65,2.74-2.52,4.15c-2.01-1.28-1.09-2.97-0.79-4.5c0.51-2.61,1.34-5.17,1.65-7.79c0.21-1.79-0.2-4.14-2.13-4.57
			c-1.6-0.36-2.23,1.71-2.32,3.18c-0.16,2.6-3.03,1.37-3.48,3.18c-2.22-5.31,4.32-9.9,0.48-15.83c-1.34,2.92-2.26,5.31-3.52,7.52
			c-0.72,1.27-2.19,2.65-3.63,1.98c-1.33-0.62-1.52-2.39-0.94-3.98c0.95-2.65,1.22-5.52,2.86-7.95c1.49-2.21,1.45-4.35-0.86-6.19
			c-1.6,0.93-1.7,2.76-2.58,4.07c-0.81,1.21-1.19,3.15-3.12,2.53c-1.57-0.5-1.08-2.32-1.08-3.52c0-1.45,0.43-2.95,0.92-4.35
			c2.5-7.15,2.53-7.14-2.62-13.26c-2.13,2.91-2.14,6.61-3.83,9.6c-0.55,0.98-0.85,2.54-2.27,2.24c-1.68-0.35-0.94-1.96-0.78-2.94
			c0.5-3.12,1.41-6.16,3-8.92c1.71-2.98,0.82-7.75-2.01-9.32c-1.94-1.08-2.11,0.62-2.39,1.86c-0.87,3.77-2.04,7.33-6.36,9.66
			c0.77-5.65,1.93-10.64,3.93-15.41c0.61-1.46,1.17-2.85,0.4-4.28c-0.76-1.4-1.08-3.67-2.91-3.68c-1.79-0.01-1.51,2.28-2.05,3.56
			c-1.94,4.65-3.27,9.73-9.6,11.68c2.2-6.83,3.95-13.17,6.32-19.27c1.33-3.42-0.64-5.05-2.52-6.81c-1.67-1.56-2.1,0.4-2.82,1.39
			c-1.3,1.78-0.69,4.69-3.65,5.98c-0.83-3.59,0.83-6.45,2.22-8.92c2.37-4.21-0.82-5.99-3.04-7.73c-1.91-1.5-2.37,1.27-2.75,2.35
			c-1.54,4.32-4.01,7.84-7.48,10.65c-0.39-0.22-0.78-0.43-1.17-0.65c1.97-3.42,3.76-6.96,5.96-10.22c2.52-3.73,2.58-6.96-1.08-10.15
			c-3.27,3.28-4.87,8.25-10.15,10.28c0.25-4.43,2.7-7.45,5.22-9.77c4-3.68,2.76-6.43-0.69-9.97c-2.19,8.26-11.9,8.13-15.57,14.91
			c2.47-7.91,4.64-15.82,10.8-21.7c4.65-4.45,4.73-11.75,0.12-15.14c-1.7-1.25-2.81-1.86-3.22,0.99c-0.37,2.6-2.07,3.07-4.42,2.48
			c-2.9-0.72-5.82-1.59-8.78-1.82c-7.82-0.6-11.8-6.18-15.69-11.8c-1.32-1.91-1.91-4.72,0.15-6.39c2.16-1.75,3.43,0.85,4.86,2.08
			c0.12,0.11,0.18,0.29,0.31,0.39c2.79,2.3,5.5,7.34,9.26,3.87c2.04-1.88-2.13-5.45-4.12-7.89c-2.26-2.77-3.02-6.25-4.6-9.35
			c-0.52-1.03-1.23-2.66,0.25-3.6c1.21-0.77,2.18,0.38,3.1,1.01c5.55,3.78,9.85,8.95,14.81,13.38c1.33,1.19,2.31,2.91,4.61,3.02
			c0.82-2.49,0.8-4.03-1.92-6c-6.99-5.05-13.34-10.95-17.43-18.76c-0.97-1.86-1.4-4-1.53-6.48c8.98,4.73,13.89,13.99,22.13,20.07
			c1.2-3.82,2.12-6.58-2.41-8.84c-4.8-2.4-7.85-7-10.41-11.7c-2.53-4.65-6.15-8.7-7.7-13.9c-0.51-1.73-1.44-3.36-0.96-6.54
			c5.26,5.51,9.98,10.46,14.71,15.41c-2.85-6.03-6.18-11.57-8.47-17.66c-0.46-1.22-1.58-2.26-1.21-3.69
			c0.25-0.93,0.54-2.19,1.22-2.59c1.01-0.59,1.63,0.58,2.27,1.35c3.47,4.21,5.74,9.33,9.9,13.01c0.7,0.62,1.02,1.8,2.8,1.51
			c0.57-3.08,0.57-6.31-2.25-8.34c-9.32-6.72-12.11-16.89-14.07-27.17c-3.3-17.35-0.6-33.79,9.46-48.67
			c1.93-2.86,3.84-5.76,8.56-7.14c-11.97,26.83-12.25,52.56,3.53,77.38c-0.96-3.46-1.92-6.93-2.88-10.39
			c6.1,7.48,6.44,18.6,17.07,24.59c-2.56-7.57-6.76-13.24-5.49-20.59c1.45,2.81,3.02,5.56,4.31,8.44c2.14,4.77,5.31,8.8,8.71,12.69
			c0.65,0.74,1.33,1.61,2.18,1.98c1.37,0.6,3.26,1.06,4.26-0.01c1.18-1.26-0.58-2.3-1.32-3.27c-3.44-4.52-6.14-9.33-6.25-15.28
			c3.91,5.34,8.6,10.13,11.4,16.16c1.05,2.26,2.4,3.7,4.36,2.48c1.96-1.22-0.25-2.84-0.9-4.13c-2.06-4.11-4.07-8.18-2.94-13.43
			c7.35,5.5,8.16,16.64,19.26,19.84c-1.86-4.49-3.23-7.6-4.42-10.77c-0.57-1.53-2.67-3.63-0.13-4.67c2.15-0.88,2.73,1.84,3.52,3.34
			c1.15,2.21,2.03,4.56,3.09,6.82c2.81,5.97,5.24,7.14,12.49,5.93c-1.75-3.86-5.03-7.13-4.64-12.41c3.84,2.7,6.33,5.85,7.3,9.83
			c0.86,3.49,2.76,4.14,6.03,4.18c15.99,0.19,31.95-0.35,47.9-1.42c2.06-0.14,3.34-0.82,4.18-2.82c1.56-3.73,4.32-6.69,6.93-9.71
			c0.51-0.59,1.08-1.43,2.04-1.01c0.92,0.41,0.86,1.38,0.76,2.19c-0.18,1.48-0.51,2.93-0.71,4.41c-0.2,1.51-1.86,3.44,0.26,4.42
			c2.29,1.05,3.12-0.88,3.68-2.78c0.54-1.81,1.68-3.24,3.24-4.32c1.02-0.7,1.71-2.37,3.33-1.4c1.33,0.8,1.25,2.33,1.22,3.61
			c-0.14,4.72,0.44,5.03,5.28,3.84c2.76-0.68,4.05-3.43,6.74-4.2c1.31,1.49-1.18,2.2-0.41,3.97c5.3-2.3,7.5-8.25,12.72-10.92
			c2.14,4.39-1.34,7.83-1.38,11.88c5.25-6.13,8.58-13.31,11.86-21.45c0.25,2.25,0.4,3.65,0.55,5.05c3.76-5.79,6.73-11.97,8.07-18.61
			c2.3-11.46,0.66-22.87-2.11-34.08c-1-4.05-1.99-8.07-2.48-12.21c-0.22-1.89-0.43-4.06,1.29-5.02c2.1-1.18,3.3,0.95,4.29,2.38
			c5.74,8.25,10.46,16.9,10.34,27.39c-0.02,1.57-0.62,3.29,0.54,4.72c2.34,0.12,2.31-2.65,4.21-3.25c0.13,7.19-5.72,12.78-5.1,20.27
			c2.2-1.18,2.76-3.25,4.05-4.68c0.77-0.85,1.38-2.19,2.75-1.73c1.75,0.59,0.38,1.97,0.43,2.98c0.13,2.46-1.24,4.42-2.37,6.44
			c-3.74,6.71-7.94,13.09-14.11,17.83c-2.32,1.78-2.07,3.87-1.74,6.85c5.17-3.12,8.34-7.8,12.37-11.49
			c0.73-0.67,1.23-1.63,2.03-2.18c0.82-0.57,1.38-2.33,2.78-1.22c1.24,0.98,0.24,2.25-0.24,3.17c-3.26,6.25-7.35,12.01-13.54,15.5
			c-3.48,1.96-3.42,4.14-2.59,7.6c5-3.05,8.79-7.14,12.88-10.86c1.27-1.15,2.62-3.35,4.57-1.85c2.16,1.66-0.13,3.46-0.93,4.75
			c-3.65,5.9-8.87,10.32-14.56,14.13c-2.8,1.87-3.53,4.04-2.38,7.53c4.77-3.46,9.28-6.76,13.84-9.98c0.99-0.7,2.05-2.28,3.42-1.04
			c1.5,1.35-0.21,2.38-0.87,3.37c-4.15,6.18-10.11,10.52-15.75,15.15c-1.2,0.98-2.93,1.88-1.92,3.46c1.24,1.93,2.59-0.24,3.69-0.74
			c3.11-1.4,6.06-3.16,10.1-5.33c-3.44,8.48-12.43,10.05-15.26,17.57c3.57-2.18,7.06-4.53,10.76-6.46c1.72-0.89,4.06-2.8,5.79-0.38
			c1.48,2.08-0.75,3.73-1.93,5.16c-3.98,4.82-8.62,8.98-14.65,12.66c5.14,1.7,8.52-2.54,12.88-1.5c-0.33,1.82-1.9,2.43-3.07,3.43
			c-1.07,0.91-3.8,1.44-1.73,3.55c1.25,1.28,2.53,4.02,5.26,1.58c0.94-0.84,2.36-1.62,3.56-1.62c2.33,0,4.1,1.07,2.48,3.78
			c-2.04,3.4-6.46,4.94-6.85,9.91c-0.13,1.66-3.21,0.17-4.64-0.8c-3.72-2.53-6.22-6.5-10.19-8.78c-1.86-1.07-3.66-2.26-5.48-3.41
			c-1.25-0.8-2.28-0.18-3.15,0.59c-0.89,0.78-0.61,1.83-0.13,2.75c0.76,1.46,1.81,1.23,2.85,0.33c1.33-1.15,2.71-1.3,2.66,0.75
			c-0.09,3.28,2.43,4.51,4.23,6.31c3.49,3.51,7.43,6.61,7.44,12.35c0,1.37,1.59,2.82,2.63,4.09c2.12,2.61,2.71,5.46,1.92,8.67
			c-1.7,0.36-1.76-1.08-1.88-1.76c-0.64-3.71-1.95-6.49-6.24-7.22c-1.93-0.33-3.09-2.36-4.27-4.02c-0.68-0.96-1.49-2.86-2.98-1.79
			c-1.49,1.08-0.83,2.62,0.53,3.76c3.94,3.3,6.18,7.8,8.47,12.23c1.44,2.77,2.53,5.66,1.85,9.31c-8.47-3.32-9.35-12.26-14.99-17.47
			c5.44,10.04,10.38,20.19,11.44,32.33c-5.82-2.31-5.96-8.22-9.39-11.46c0.08-3.96-2.45-7.09-3.42-10.73
			c-0.28-1.05-0.48-3.15-2.37-2.01c-1.37,0.82-1.75,2.74-0.36,3.87C1039.6,476.72,1040.75,480.26,1042.93,483.11z M989.4,84.37
			l0.09,0.07c-0.54-1.03-0.96-2.14-1.64-3.06c-1.82-2.44-2.45-5.13,0.03-7.13c2.03-1.63,4.63-4.29,7.35-0.3
			c0.89,1.31,1.69-0.12,2.13-0.87c3.27-5.53,1.21-13.17-4.48-16.92c-2.17,9.03-8.4,13.39-17.14,14.85
			c-4.69,0.78-9.06-1.74-9.56-5.47c-0.55-4.07,3.31-8.2,8.01-8.45c2.7-0.14,5.04,0.25,3.1,3.87c-1.84,3.43,0.35,3.41,2.6,2.93
			c2.02-0.43,3.68-1.55,4.01-3.9c0.55-3.84-2.39-9.06-5.93-10.48c-1.9-0.76-3.86-0.06-5.86-0.39c-9.32-1.5-15.44-7.19-20.56-15.04
			c-5.03,7.57-11.85,11.17-20.53,12.2c-3.25,0.39-6.61,0.26-9.83,1.11c-2.63,0.69-4.72,1.81-4.41,5.04
			c0.29,3.01,1.85,4.95,4.87,5.52c1.1,0.21,2.41,0.64,3.18-0.6c0.64-1.02-0.07-1.89-0.72-2.67c-2.37-2.83-0.08-3.49,1.97-3.79
			c2.98-0.43,5.51,0.5,7.36,3.15c1.92,2.75,1.49,5.37-0.06,7.94c-3.5,5.79-9.18,7.61-15.22,4.55c-3.52-1.78-5.87-2.01-8.55,1.63
			c-2.06,2.79-5.12,5.52-9.4,3.05c-1.15-0.67-2.1,0.07-3.19,0.61c-6.47,3.21-10.67,8.83-15.73,14.08c4.82-0.79,4.82-0.79,7.8-3.44
			c8.53-7.59,25.33-5.57,32.14,3.94c0.76,1.06,2.86,2.13,1.36,3.73c-1.35,1.43-2.72-0.28-3.97-0.88c-5.73-2.75-11.5-5.34-18.05-5.23
			c-3.04,0.05-6.23,0.46-8.63,2.08c-2.52,1.7,0.69,4.19,0.31,6.41c-0.14,0.81-0.13,1.65-0.18,2.48c-0.06,1.14-0.58,2.62,0.43,3.29
			c1.58,1.06,2.25-0.85,3.16-1.6c8.9-7.27,16.47-7.12,24.76,0.61c3.87,3.61,6.18,7.81,4.26,13.26c-1.89,5.34-6.35,7.01-11.43,8
			c-6.59,1.28-12.74-0.39-19.05-2.56c0,3.03,0.03,5.68-0.01,8.32c-0.19,12.73,1.11,25.43,5.18,37.38
			c5.14,15.08,17.04,24.94,30.01,33.39c2.99,1.95,6.42,2.05,10.08,1.88c11.47-0.55,21.38-5.78,31.7-9.83
			c7.34-2.88,13.4-7.59,19.41-12.58c14.4-11.96,15.99-28.97,17.8-45.6c0.79-7.28-0.56-14.9-1.71-22.25
			c-0.81-5.2-0.42-6.63,4.82-7.44c1.37-0.21,3.3,0.46,3.51-1.78c0.18-1.9-0.57-3.77-1.99-4.92c-1.48-1.2-2.25,0.78-3.25,1.43
			c-1.55,1.01-3.05,2.01-4.96,2.19c-2.42,0.23-4.56-0.51-5.19-2.87c-0.58-2.15,0.78-3.63,2.95-4.54c2.68-1.12,3.75-6.69,1.93-8.72
			c-0.54-0.6-1.21-0.86-1.68-0.31C999.2,83.86,993.74,82.48,989.4,84.37z M898.13,403.04c1.29-1.14,1.57-2.66,1.96-5.26
			c-6.4,3.17-12.02,1.68-17.73-0.56c-2.1-0.83-5.33-1.49-5.32,2.69c0.03,9.21-2.96,18.03-3.47,27.18c-0.21,3.72-0.5,7.51-3.74,10.62
			c-3.28,3.15-5.35,7.31-1.23,11.59c9.79,10.17,17.23,22.34,27.41,32.2c2.35,2.27,4.03,5.26,5.88,8.01
			c7.42,11.05,14.16,22.49,20.2,34.38c4.51,8.87,11.25,16.62,14.19,26.27c1.44,4.75,3.61,3.25,5.3,1.09
			c2.14-2.72,4.71-3.38,7.8-3.61c6.7-0.5,13.17-1.27,19.82-3.26c9.62-2.88,19.65-1.04,28.7,4.92c4.92-18.9,11.37-37.03,18.52-54.93
			c0.42-1.04,0.58-2.26,0.54-3.39c-0.87-28.28-4.65-56.34-6.66-84.53c-0.18-2.47-1.19-3.6-3.62-3.78c-4.15-0.31-8.31-0.56-12.41-1.2
			c-2.97-0.46-3.54,0.71-3.16,3.25c0.63,4.1,1.25,8.2,1.76,12.32c1.48,11.94,0.11,24.01,1.22,35.92c2.45,26.24,2.09,52.39-1,77.83
			c-0.1-0.42-0.35-1.56-0.63-2.69c-0.3-1.23,0.11-3.02-1.49-3.39c-1.64-0.37-1.99,1.47-2.72,2.47c-2.76,3.76-5.59,7.45-9.45,10.18
			c-1.14,0.8-2.48,2.34-3.85,0.83c-1.05-1.16,0.13-2.52,0.86-3.58c3.36-4.88,8.16-8.27,12.59-12.05c1.4-1.19,2.88-2.19,2.99-4.32
			c0.43-8.63,1.56-17.17,0.85-25.91c-1.65-20.19-4.04-40.36-3.29-60.7c0.15-4.15,0.67-8.46-0.58-12.64
			c-1.54,0.43-1.66,1.55-2.08,2.4c-6.02,12.23-14.39,22.71-23.72,32.54c-2.22,2.34-3.06,1.85-3.83-0.9
			c-1.14-4.03-1.81-8.09-1.68-12.31c0.35-11.65,0.57-23.31,0.92-34.96c0.08-2.55-0.01-4.72-3.33-4.91
			c-4.15-0.23-8.29-0.5-12.43-0.83c-2.48-0.19-3.57,0.56-3.45,3.34c0.91,20.64-1.61,41.21-0.55,61.92c1,19.41-0.28,38.93-0.52,58.41
			c-0.06,4.98-0.01,9.96-0.01,15.28c-1.6-1.04-1.14-2.13-1.27-3.05c-1.6-10.74-0.86-21.59-1.48-32.38
			c-1.14-19.75-2.39-39.52-2.46-59.28c-0.05-13.76,1.81-27.53,2.83-41.3c0.09-1.19,1.31-2.74-0.97-3.08
			c-2.95-0.43-5.86-1.15-7.98,2.19c-3.21,5.04-6.9,9.77-10.07,14.84c-1.55,2.47-3.63,5.15-1.72,8.89c5.75-6.59,9.8-14.3,16.7-19.44
			c-3.86,9.41-10.19,17.17-15.58,25.53c-1.81,2.8-4.1,5.63-2.23,10.11c4.83-7.56,9-14.99,16.11-20.04
			c-4.95,8.78-10.2,17.35-15.87,25.63c-1.69,2.47-2.55,5.24-1.66,7.43c1.49,3.67-0.35,6.35-1.11,9.42
			c-2.13-20.12-1.27-40.05,3.3-59.78c0.43-1.85,2.85-4.62-0.77-5.78c-2.82-0.9-5.45-1.26-7.16,2.82c-3.84,9.2-7.55,18.35-9.34,28.23
			c-0.41,2.26-0.69,6.52-2.69,6.26c-2.61-0.35-1.04-4.13-1.27-6.43c-0.12-1.15-0.02-2.33,0.07-3.49c0.33-4.31,2.36-8.45,1.66-13.49
			c-4.15,3.28-5.84,8.5-11.28,10.38c2.29-4.62,3.37-6.29,9.06-10.42c3.54-2.57,5.17-5.8,5.77-9.85L898.13,403.04z M1002.61,1036.44
			l0.08,0.12c1.86-1.46,1.52-3.57,1.53-5.52c0.08-13.5,0.13-26.99,0.14-40.49c0-1.2,0.52-2.68-0.18-3.11
			c-11.56,10.63-22.93,21.09-34.05,31.32c-0.23-1.83,1.63-3.28,2.86-4.91c8.08-10.66,18.26-19.36,27.4-29.03
			c2.67-2.82,4.02-5.67,4-9.71c-0.09-21.97,1.68-43.88,2.64-65.82c0.26-5.96,0.04-11.94,0.04-19.27
			c-6.62,8.38-12.16,15.48-18.59,21.77c-6.39,6.25-12.47,12.92-20.47,17.26c-0.01-2.87,1.67-4.44,3.25-6.06
			c10.92-11.18,22.01-22.2,33.49-32.81c0.78-0.72,2.27-0.71,2.26-2.34c-0.05-7-0.02-14.01-0.02-22.02
			c-11.58,14.64-23.27,27.52-36.6,38.83c-0.11-2.46,1.58-3.7,2.83-5.1c10.49-11.82,21.05-23.58,31.65-35.3
			c1.51-1.67,2.65-3.34,2.55-5.71c-0.16-3.83-0.16-7.66-0.29-11.49c-0.03-0.94,0.31-2.17-0.75-2.71c-1.49-0.75-2,0.73-2.69,1.54
			c-7.58,8.88-16,16.95-24.4,25.02c-5.28,5.07-9.96,10.87-16.46,14.65c0.44-1.51,1.14-2.78,2.07-3.84
			c11.94-13.64,24.75-26.44,37.99-38.81c2.39-2.23,3.53-4.25,3.06-7.74c-2.74-19.98-3.78-40.04-2.02-60.18
			c0.14-1.65,0.64-3.49-0.74-5.39c-11.7,14.99-23.97,28.9-37.96,41.2c3.38-7.49,9.06-13.16,14.43-19.01
			c7.5-8.18,13.96-17.37,22.9-24.17c1.64-1.24,1.72-2.68,1.72-4.35c0-5.99-0.01-11.98-0.01-17.97c0-11.83,0-23.66,0-35.49
			c1.82,5.17,1.3,10.48,1.62,15.73c1.01,16.25,2.13,32.5,1.39,48.81c-0.7,15.32-0.65,30.62,1.46,45.89
			c1.34,9.71,2.8,19.49,3.06,29.26c0.74,27.62,1.96,55.22,0.36,82.88c-0.96,16.59-0.05,33.27-0.26,49.91
			c-0.35,28.3,0.99,56.59,0.18,84.9c-0.58,20.3-0.8,40.67,2.25,60.81c3.21,21.16,2.87,42.41,2.84,63.67
			c-0.01,8.01-0.57,15.98-2.47,24.89c2.77-1.68,4.44-2.72,6.13-3.72c3.57-2.11,6.97-4.83,11.3-4.94c3.4-0.09,5.36-1.69,7.38-4.2
			c4.7-5.85,10.61-9.17,18.4-6.66c6.98,2.24,13.96,2.37,21.1,0.79c2.03-0.45,4.28,0.01,6.35,0.81c8.58,3.31,16.37-1.05,17.95-10.2
			c0.94-5.43,1.35-11.04,5.59-15.14c2.03-1.96,2.05-3.86,1.15-6.26c-2.37-6.31-3.11-12.91-3.39-19.6
			c-0.8-18.97-3.07-37.81-5.17-56.65c-3.09-27.78-6.63-55.51-9.21-83.34c-3.27-35.3-6.28-70.68-13.48-105.43
			c-7.95-38.36-12.55-77.14-16.62-116.02c-1.46-13.95,0.23-27.98-0.43-41.95c-1.03-21.62-2.31-43.22-3.56-64.83
			c-1.47-25.6-0.4-51.29-2.42-76.88c2.6,12.22,3.48,24.63,4.03,37.07c0.77,17.63,2.49,35.19,3.95,52.77
			c0.15,1.81,0.94,2.91,2.31,4.11c7.4,6.43,14.75,12.94,20.56,20.95c0.74,1.01,1.42,2.26,2.96,2.37c0.9-5.27,0.13-8.67-3.09-12.39
			c-5.74-6.64-10.96-13.68-15.77-21.01c-1.08-1.65-2.31-3.5-1.5-6.11c5.95,5.68,11.59,11.06,18.09,17.27
			c-1.22-7.44-1.45-13.85-5.5-19.07c-3.91-5.04-8.37-9.68-10.73-16.15c4-0.49,5.37,3.93,8.99,4.09c-0.05-1.01-0.03-1.82-0.15-2.61
			c-1.33-8.85-6.92-15.6-11.42-22.86c-1.02-1.65-2.38-3.03-1.87-5.14c3.71-0.48,4.96,3.92,8.28,3.89
			c0.12-11.08-9.37-17.57-12.87-28.15c3.41,2.1,5.68,3.44,7.89,4.87c1.07,0.69,2.06,2.36,3.38,1.37c1.45-1.08,0.32-2.75-0.02-4.16
			c-0.24-1-1-1.63-1.56-2.43c-4.25-6.1-9.58-11.59-11.75-19.51c3.65,1.5,5.97,3.88,8.6,5.86c1.43,1.07,2.88,4.27,4.56,2.63
			c1.93-1.88,0.37-4.61-1.51-6.54c-0.69-0.71-1.18-1.62-1.91-2.28c-8.82-8.04-15.26-17.91-21.47-28.03
			c8.98,5.35,15.93,13.22,24.51,19.94c0.52-4.14-0.24-7.06-2.53-9.83c-5.31-6.42-11.91-11.49-17.77-17.32
			c-4.42-4.4-4.35-4.16-8.69,0.57c-9.49,10.36-16.77,22.75-28.51,31.07c-1.64,1.16-2.89,2.9-2.93,5.02
			c-0.21,11.21-6.58,18.47-15.51,23.92c-2.53,1.54-3.22,2.58-0.81,4.73c1.84,1.64,1.25,3.46,0.14,5.39
			c-2.42,4.19-6.58,3.12-10.23,3.7c-1.34,0.21-2.67-0.86-3.99,1.47c-3.02,5.34-7.87,9.49-13.44,11.79
			c-8.19,3.39-16.83,2.54-24.65-1.41c-5.17-2.61-9.97-5.94-15.16-8.68c-10.11-5.34-17.63-13.74-15.41-26.97
			c0.46-2.77,0.01-5.68,0.37-8.48c0.34-2.63-0.25-4.19-2.68-5.65c-4.57-2.74-8.76-6.09-11.97-10.45c-2.14-2.91-4.93-4.8-8.18-6.33
			c-2.68-1.27-5.43-2.8-7.51-4.86c-6.87-6.78-14.59-12.68-20.95-20.45c-8.85,11.84-17.42,23.73-29.65,34.14
			c0.34-3.9,1.69-5.84,2.98-7.66c6.93-9.77,13.74-19.69,22.85-27.62c2.81-2.45,0.53-3.88-0.54-5.37c-1.93-2.67-2.73,0.19-3.57,1.15
			c-4.26,4.89-7.6,11.01-12.73,14.63c-11.66,8.25-11.11,19.51-10.85,31.67c0.28,12.73,1.15,25.51-0.74,38.3
			c-1.62,10.99-3.28,22.02-3.21,33.22c0.14,21.98,0.12,43.97,0.21,65.95c0.1,25.32-2.11,50.51-4.27,75.7
			c-1.34,15.57-3.16,31.08-4.3,46.67c-1.07,14.55-3.83,28.97-5.63,43.47c-2.86,23.07-5.52,46.17-8.31,69.25
			c-2.19,18.15-3.52,36.38-4.57,54.61c-0.85,14.76-0.69,29.58-1.65,44.33c-1.48,22.71-3.51,45.38-5.34,68.06
			c-0.26,3.23,0.69,5.53,3.43,7.68c7.26,5.71,16.72,7.37,23.78,13.38c1.61,1.38,2.99,0.01,4.42-0.92c2.36-1.54,3.82-4.32,7.28-5.69
			c-1.23,4.75-4.35,6.92-7.3,9.25c6.9,4.87,8.62,12.37,4.6,19.58c-2.16,3.87-1.85,10.86,0.92,11.85c5.97,2.15,11.99,4.14,17.82,7.1
			c-3.65-4.47-7.3-8.95-11.73-14.38c10.91,5.03,18.88,11.92,26.95,18.69c4.5,3.78,9.48,6.2,16.61,4.29
			c-11.34-11.01-20.77-22.48-26.13-36.74c2.62,1.99,4.52,4.59,6.84,6.72c7.68,7.05,14.31,15.11,21.98,22.19
			c6.75,6.24,14.04,11.6,21.58,16.71c1.19,0.81,2.71,1.04,4.3,0.97c10.21-0.42,20.4-2.87,30.66-0.4c1.35,0.33,2.57-0.47,3.76-1.11
			c21.14-11.3,42.15-22.81,61.11-37.64c1.25-0.98,2.46-2.09,4.55-1.65c-14.71,17.67-34.82,28.09-54.38,39.54
			c15.94,3.9,31.34,5.17,45.94-4.05c0.35,0.6,0.69,1.19,1.04,1.79c-2.15,1.43-4.31,2.86-6.76,4.5c4.31,2.47,8.19,2.72,11.84,3.71
			c2.58,0.7,3.32-0.46,3.75-3c3.46-20.73,1.98-41.54,0.76-62.29c-0.89-15.11-3.58-30.07-4.77-45.19
			c-0.54-6.86-0.05-13.79-0.92-20.53c-15.2,13.26-31.84,23.72-49.38,32.84c-0.14-1.86,1.03-2.25,1.89-2.96
			c12.7-10.56,27.12-18.65,40.46-28.3c7.87-5.69,9.28-9.88,6.38-19.81c-9.44,6.98-17.47,15.93-28.59,20.59
			c5.95-7.51,12.65-14.36,20.55-19.49c7.42-4.82,10.29-10.59,8.46-19.04C1003.82,1044.81,1005.67,1040.21,1002.61,1036.44z
			 M943.82,598.87c2.31,1.3,2.97,2.97,3.61,4.66c1.27,3.35,3.96,5.62,6.14,8.33c5.2,6.47,12.74,7.94,19.94,10.15
			c4.12,1.26,8.41,1.97,12.65,2.78c1.47,0.28,3.5,0.31,3.99-1.23c0.62-1.95-1.37-2.98-2.85-3.46c-3.94-1.28-7.76-3.07-11.97-3.38
			c-3.16-0.23-5.72-1.72-7.94-3.8c-9.42-8.86-13.27-25.04-7.98-36.8c0.99-2.2-1.08-6.74,3.75-6.9c3.34-0.11,6.02,1.75,8.85,3.12
			c1.57,0.76,2.28,2.28,3.14,3.74c2.28,3.85,4.75,7.58,7.16,11.35c0.55,0.86,1.28,1.58,2.42,1.42c0.8-0.11,1.12-0.78,1.02-1.45
			c-1.16-8.11-2.31-16.46-8.2-22.59c-8.34-8.7-19.06-12.22-31.04-11.84c-3.3,0.1-5.92,0.82-8.35,4.04
			c-8.62,11.43-12.03,24.81-14.8,38.28c-1.2,5.83-2.71,12.52-0.63,18.21c4.45,12.2,13.54,20.28,26.08,23.99
			c2.94,0.87,6.28,1.6,9.79-0.1c-7.17-6.44-19.21-6.33-21.63-18.88c6.44,4.15,12.45,7.63,19.14,9.97c7.98,2.79,14.95,3.85,20.62,1.5
			c-8.45-1.58-17.75-1.8-22.81-9.01C949.47,614.6,941.66,609.18,943.82,598.87z M1065.3,701.91c-0.69,4.25-0.32,7.47-0.03,10.71
			c0.91,10.09,2.73,20.22,2.41,30.27c-0.84,25.86,2.45,51.4,4.48,77.04c0.17,2.21,1.13,3.58,2.84,4.92
			c6.96,5.45,12.52,12.34,18.67,18.61c5.12,5.21,10.97,9.7,15.58,13.71c-0.06-7.28-0.36-7.04-5.26-13.26
			c-8.28-10.51-16.25-21.27-24.05-32.15c-1.37-1.92-3.13-4.15-3.41-7.89c11.07,7.74,18.81,17.72,28.6,27.1
			c-0.56-9.26-3.23-16.15-8.74-22.16c-7.32-7.98-13.4-16.91-18.33-26.61c8.2,6.67,14.01,15.75,22.82,22.05
			c-0.8-5.41,0.39-11.06-2.9-15.83c-3.38-4.9-6.73-9.85-10.57-14.38c-5.13-6.05-9.23-12.81-13.92-19.16
			c-0.66-0.9-1.94-2.02-0.28-3.57c8.7,7.71,16.64,16.04,23.51,25.5c0.32-4.19,1.04-9.18-1.59-11.58
			c-5.23-4.78-7.99-10.97-11.59-16.62c-3.02-4.75-7.01-9.13-8.84-16.4c7.96,5.98,12.82,13.05,19.36,19.5
			c-0.2-5.3-0.22-10.03-2.93-13.89C1082.89,726.03,1074.34,714.42,1065.3,701.91z M970.2,549.65c0.91,0.6,1.86,1.16,2.72,1.82
			c3.67,2.81,8.44,4.96,10.76,8.64c5.21,8.26,8.01,17.65,9.3,27.44c0.68,5.16-2.09,8.09-6.25,9.46c-4.17,1.37-7.8-0.36-10.15-4.26
			c-2.83-4.7-5.55-9.48-8.53-14.09c-1.12-1.74-2.87-4.06-4.9-3.47c-1.89,0.54-0.67,3.23-0.83,4.98c-0.09,0.99-0.13,1.99-0.06,2.97
			c0.6,8.34,1.22,16.56,8.6,22.44c5.4,4.29,11.33,7.41,17.72,9.82c1.17,0.44,2.16,0.49,3.31-0.13c7.48-4.05,14.48-19.59,12.51-27.96
			c-1.85-7.9-4.38-15.61-5.93-23.62c-1.04-5.37-4.17-10.69-9.49-12.65C983.2,548.9,976.73,549.11,970.2,549.65z M1073.19,831.93
			c2.45,18.74,5.87,36.61,9.41,54.45c0.35,1.79,0.86,3.44,2.58,4.63c8.48,5.88,16.14,12.76,23.84,19.6
			c2.06,1.83,3.66,4.65,7.34,5.28c-1.04-6.38,0.65-13.3-6.56-16.78c-3.29-1.59-5.09-4.6-7.41-7.1c-7.05-7.59-13-16.01-18.53-24.82
			c11.23,7.11,19.09,17.85,29.64,27.35c-0.84-7.8-1.58-14.65-2.33-21.49c-0.11-0.98-0.83-1.32-1.69-1.53
			c-4.99-1.21-8.28-4.75-11.33-8.49c-5.85-7.17-11.35-14.65-17.51-21.56C1078.08,838.62,1076.8,834.87,1073.19,831.93z
			 M1126.45,1035.7c0.43-0.19,0.87-0.38,1.3-0.57c-2.34-7.01,4.44-15.55-5.27-21.51c-6.67-4.1-10.56-11.18-14.86-17.59
			c-3.21-4.79-7.08-9.27-8.24-15.75c10.69,5.47,16.69,15.68,26.42,22.19c0.63-3.12,0.93-5.94-1.1-7.88
			c-7.36-7.06-12.37-15.99-19.14-23.5c-3.65-4.05-7.11-8.28-11.35-13.24c-0.13,2.33-0.32,3.32-0.22,4.29
			c1.56,15.35,3.18,30.69,4.7,46.04c0.24,2.44,1.45,3.84,3.56,4.93c4.86,2.52,9.06,5.93,12.72,10.02
			C1118.77,1027.34,1122.62,1031.51,1126.45,1035.7z M1090.38,929.33c0.53,5.07,1.01,10.14,1.61,15.19
			c0.43,3.62,1.05,6.95,4.28,9.64c9.67,8.07,19.35,16.2,26.53,26.78c0.48,0.7,1.1,1.26,2.28,0.53c-0.08-6.03-1.11-12.08-2.17-18.13
			c-0.56-3.21-0.97-5.94-5.38-6.12c-1.78-0.07-3.61-2.19-5.2-3.62C1104.23,946.32,1096.77,938.45,1090.38,929.33z M1119.8,945.39
			c-0.61-5.32-1.03-10.25-1.79-15.13c-0.35-2.25-1.45-4.08-3.51-5.7c-5.82-4.57-11.3-9.57-16.87-14.45
			c-3.97-3.49-7.86-7.06-12.33-11.09c0.31,2.95,0.27,4.96,0.76,6.82c0.96,3.62,0.69,7.76,3.46,10.7
			c6.92,7.34,13.85,14.68,21.09,21.71C1113.26,940.82,1115.93,943.63,1119.8,945.39z M966.45,437.19
			c7.51-8.01,13.32-17.14,20.93-24.83c2.33-2.35,1.34-10.72-0.93-11.37c-4.24-1.21-9.31-1.81-12.26,1.46
			c-5.53,6.12-11.07,12.83-7.65,22.41c4.63-5.24,7.14-12.02,12.85-16.8C976.29,418.71,966.27,425.63,966.45,437.19z
			 M1099.23,1016.02c0.7,6.92,1.31,13.85,2.17,20.75c0.18,1.49,0.03,3.35,1.94,4.29c5.03,2.48,8.32,7.01,12.3,10.73
			c3.97,3.72,7.46,8,12.48,10.74C1124.82,1043.26,1106.93,1032.89,1099.23,1016.02z M1136.79,1130.11
			c-0.88-4.52-0.47-10.01-4.32-12.66c-6.44-4.43-9.89-10.97-14.29-16.88c-3.45-4.64-6.76-9.38-10.14-14.08
			c-0.72,5.89-0.36,11.16,0.2,16.41c0.11,1.06,0.77,2.35,1.59,3.02C1119.16,1113.53,1127.64,1122.08,1136.79,1130.11z
			 M1103.54,1053.94c0.2,4.28,0.27,7.08,0.47,9.88c0.33,4.71,1.32,8.78,5.8,11.85c4.03,2.76,7.55,6.38,11.06,9.92
			c3.7,3.72,6.99,7.88,10.98,11.43c-1.13-5.9-0.74-12.05-5-16.92c-1.74-1.99-4.13-3.03-5.88-5.12
			C1115.38,1068.33,1109.17,1062.21,1103.54,1053.94z M1013.52,409.24c1.23,8.84,2.74,17.41,3.35,26.1
			c0.08,1.19,0.23,2.26,1.65,2.74c6.91,2.31,12.66,6.43,17.77,11.55c0.72,0.72,1.76,1.06,2.65,0.16c0.69-0.69,0.49-1.55,0.03-2.29
			c-0.69-1.13-1.22-2.87-2.21-3.21c-6.52-2.24-9.59-8.52-14.79-12.27c-1.39-1-2.79-2.46-3.32-4.01c-0.33-0.96-2-2.34-0.48-3.5
			c1.09-0.84,2.14,0.31,3.2,0.68c4.12,1.43,7.06,5.13,12.51,6.67C1030.04,420.72,1018.09,418.31,1013.52,409.24z M1110.32,1118.57
			c-1.21,5.32,0.6,9.92,0.96,14.6c0.05,0.66,0.33,0.96,1.05,1.34c8.35,4.45,15.35,10.85,23.04,16.24c1,0.7,2.31,2.46,3.27,1.22
			c0.84-1.09,0.51-3.16,0.52-4.79c0.02-1.32-0.07-2.91-1.96-2.8c-5.74,0.34-7.98-4.25-11.34-7.54
			C1120.21,1131.34,1116.38,1124.29,1110.32,1118.57z M1111.87,1139.88c-0.08,8.98-0.86,16.45,1,23.79
			c0.35,1.39-1.44,5.12,2.15,3.72c1.87-0.73,7.53,0.33,5.12-5.25c-0.32-0.75-0.66-1.68,0.16-2.29c0.84-0.63,1.51,0.14,2.2,0.54
			c2.56,1.52,5.56,2.18,7.84,4.28c0.95,0.88,2.24,0.66,3.05-0.47c0.65-0.91-0.06-1.49-0.75-2.01
			C1124.8,1156.33,1118.58,1148.92,1111.87,1139.88z M980.76,275.51c10.45,5.63,33.65,0.8,39.91-7.33
			C1006.54,269.03,994.11,274.84,980.76,275.51z M831.16,566.19c6.07-8.91,12.55-17.01,20.31-24.05c1.37-1.24,4.03-1.67,1.62-4.33
			c-2.47-2.73-3.52,0.18-4.65,1.27c-4.87,4.68-8.63,10.59-15.16,13.39c-0.88,0.38-1.2,1.01-1.27,1.91
			C831.74,558.32,831.45,562.25,831.16,566.19z M998.87,255.66c-0.24-1.52-1.54-1.69-2.6-1.96c-5.81-1.52-11.46-0.03-17.15,0.96
			c-2.47,0.43-5.58,1.37-4.29,3.91c1.01,1.97,4.44,4.89,6.95,3.84c4.65-1.93,9.49-2.89,14.21-4.39
			C997.27,257.62,998.56,257.22,998.87,255.66z M1070.98,564.33c0.83-2.21,0.56-3.91-0.34-4.94c-4.21-4.85-8.3-9.9-13.12-14.09
			c-2.78-2.42-3.92,1.79-5.53,3.27c-1.76,1.62-0.77,2.85,1.1,3.72C1059.54,555.3,1064.95,559.91,1070.98,564.33z M1022.97,118.06
			c-1.31-2.88-2.58-5.72-3.88-8.55c-0.54-1.17-0.06-3.88-2.16-2.89c-1.79,0.85-5.09,1.38-4.06,5.12c1.17,4.29,2.07,8.66,2.87,13.03
			c0.46,2.51,1.76,2.14,3.01,1C1021,123.72,1022.02,120.9,1022.97,118.06z M949.39,269.06c8.59-1.1,17.73-0.26,25.74-7.15
			c-4.57-0.8-8.3,0.53-11.91,0.14C957.12,261.39,951.45,260.83,949.39,269.06z M917.07-4.21c-3.24,0.46-6.9,0.34-7.48,4.33
			c-0.42,2.87,5.93,9.53,8.19,8.87c3.8-1.11,3.61-4.87,3.94-7.79C922.07-1.89,920.57-4.25,917.07-4.21z M915.31,273.09
			c0.49,0.04,0.99,0.06,1.48,0.11c6.89,0.64,13.81,0.98,20.5,3.11c1.41,0.45,3.54,1.01,4.29-1.13c0.43-1.22-0.05-2.83-1.42-3.38
			c-5.25-2.08-11.26-3.74-16.23-2.09c-4.36,1.44-7.9,2.46-12.12,0.73c-1.39-0.57-3-0.1-3.23,1.35c-0.33,2.13,1.66,1.4,2.76,1.47
			C912.65,273.35,913.98,273.17,915.31,273.09z M1027.51,273.59c2.23-0.32,2.83,2.63,4.93,1.93c4.98-1.65,10.21-10.95,9.35-16.68
			C1032.82,259.61,1032.81,268.95,1027.51,273.59z M1000.79,205.75c3.53-3.19,6.81-5.62,5.91-9.32c-0.81-3.34-2.23-6.42-1.81-10.05
			c0.25-2.14-2.09-2.72-3.54-3.75c-0.71-0.51-1.21-0.27-1.57,0.39c-1.67,3.03-3.48,6.01-4.89,9.16c-0.46,1.03-0.17,2.81,1.21,3.46
			c1.35,0.63,2.09-0.65,2.75-1.56c1.39-1.92,2.69-3.9,4.62-6.72C1004.01,194.02,1002.78,199.37,1000.79,205.75z M959.23-5.08
			c-2.97-0.02-6.48,0.43-6.06,3.97c0.31,2.56-0.09,6.75,3.91,7.59c2.61,0.55,8.11-4.91,8.08-7.55
			C965.1-5.22,962.07-5.04,959.23-5.08z M833.39,549.99c3.51-6.82,7.09-12.18,12.37-16.15c2.43-1.83,1.07-3.44,0.06-5.12
			c-0.6-1-1.48-2.22-2.66-0.8C838.1,534.06,831.51,539.53,833.39,549.99z M833.77,532.26c2.73-3.29,5.01-6.1,7.37-8.82
			c0.93-1.07,0.97-2.07,0.19-3.13c-2.07-2.86-4.17-5.7-6.58-8.98C833.27,517.7,832.79,527.46,833.77,532.26z M940.38-6.67
			c-5.43,0.19-9.4,2.64-9.27,5.71c0.09,2.08,4.21,7.11,5.69,6.93c1.57-0.18,5.8-7.9,5.93-10.5C942.82-6.36,942.06-6.93,940.38-6.67z
			 M977.02,1.31c-1.94,0.08-4.46,0.56-4.12,3.66c0.48,4.43-0.63,8.14-3.5,11.45c-0.52,0.6-1.24,1.36-0.45,2.14
			c0.93,0.93,2.01,0.37,2.52-0.47c2.42-4.01,6.01-7,8.91-10.58C982.83,4.48,981.39,1.65,977.02,1.31z M901.07,11.55
			c0.13-2.87,0.82-6.2-3.13-6.08c-3.32,0.1-6.37,1.85-7.72,5.22c-0.57,1.42,5.55,6.44,7.92,6.46
			C902.94,17.19,900.1,13.26,901.07,11.55z M978.67,229.85c-3.74-0.74-5.92,2.69-8.9-0.57c-1.3-1.42-3.2,3.7-6.41,3.37
			c-4.34-0.44-7,2.38-9.06,5.67c-1.1,1.76-2.36,2.2-4.13,1.55c-3.5-1.28-5.72,0.9-9.42,3.17c2.48-0.12,3.59-0.34,4.66-0.21
			c4.38,0.56,7.46-0.23,10.96-4.02c3.23-3.5,9.09-5.5,14.05-6.13C973.39,232.32,975.41,231.42,978.67,229.85z M978.19,201.06
			c0.08-3.27-1.81-5.94-3.99-6.39c-2.53-0.53-4.81,1.78-5.44,4.73c-0.28,1.33,4.71,9.8,5.4,9.38
			C977.08,207,977.44,203.77,978.19,201.06z M876.54,40.67c-1.36-2.49,1.15-7.01-3.17-8.53c-1.94-0.68-5.67,4.62-5.51,7.42
			c0.22,3.9,3.31,4,6.09,4.45C876.3,44.38,876.88,43.12,876.54,40.67z M908.91,53.86c-0.47-0.86,1.5-3.15-0.59-3.76
			c-1.87-0.55-3.73,0.96-5.04,2.54c-0.62,0.75-1.11,1.64-1.54,2.52c-1.02,2.1-0.31,3.77,1.3,5.3c1.69,1.61,3.65,1.68,5.51,0.84
			c2.2-1,0.62-2.87,0.56-4.37C909.06,56.1,909,55.28,908.91,53.86z M1040.07,81.21c0.03-3.54-1.22-6.41-3.99-7.31
			c-2.99-0.98-4.96,2.29-5.98,4.2c-1.61,3,2.87,1.94,3.73,3.73c0.49,1.02,1.3,1.88,1.93,2.84c0.6,0.93,0.86,2.4,2.4,1.98
			c1.14-0.31,0.97-1.59,1.23-2.5C1039.71,83.05,1039.91,81.91,1040.07,81.21z M955.08,256.03c4.08-0.27,8.18-0.37,12.22-0.9
			c1.22-0.16,3.97-1.05,1.44-3.12c-3.44-2.82-7.76-2.7-11.8-2.06C954.15,250.39,956.43,253.76,955.08,256.03z M915.38,14.48
			c-1.02-2.97-1.11-7.39-4.78-7.76c-2.63-0.26-3.63,3.56-3.33,6.22c0.28,2.53-0.11,6.04,4.02,6.2
			C914.39,19.25,914.96,16.98,915.38,14.48z M1030.97,416.61c1.06-2.91-0.39-4.36-2.37-5.9c-4-3.09-9.3-4.07-12.73-8.16
			c-0.83-0.99-2.94-0.87-3.82,0.78c-0.54,1-0.71,2.7,0.72,2.87C1020.28,407.08,1024.7,413.35,1030.97,416.61z M904.69,252.48
			c-1.28,0.39-2.07,1.64-1.42,2.52c3.16,4.3,4.92,9.97,10.86,11.67c1.25,0.36,2.86,1.05,3.67-0.27c1.02-1.65-0.5-2.63-1.7-3.59
			c-3.74-2.98-8-5.4-10.64-9.61C905.29,252.95,904.99,252.76,904.69,252.48z M945.55,265.74c0.75,0.01,2.78-0.4,2.95-2.59
			c0.21-2.63-2.23-1.7-3.66-1.98c-3.65-0.7-7.48,0.19-11.08-1.6c-1.92-0.96-3.04,1.21-3.43,2.6c-0.49,1.76,1.38,1.35,2.37,1.52
			C936.58,264.35,940.48,264.94,945.55,265.74z M890.22,258.28c-0.97,0-1.42,0.66-1.83,1.4c-0.7,1.26-0.24,2.18,0.79,2.97
			c2.45,1.88,5.44,2.94,7.68,5.18c0.53,0.53,2.01,0.64,2.74,0.3c0.99-0.47,0.59-1.71,0.42-2.68
			C899.18,260.67,895.44,257.93,890.22,258.28z M1070.63,548.73c0.29-4.42-3.25-10.12-6.87-11.57c-2-0.8-3.08,0.3-4.1,1.71
			c-0.78,1.07-0.96,2.22,0.24,3.01C1063.4,544.19,1066.97,546.4,1070.63,548.73z M967.72,3.41c-2.74,2.36-5.43,4.5-7.88,6.88
			c-1.04,1.01-1.77,2.53-0.57,4.03c1.1,1.37,2.51,1.32,4.07,0.84C967.87,13.76,969.3,10.21,967.72,3.41z M1030.59,456.75
			c-5.32-3.94-7.03-10.71-12.26-15.11C1018.42,451.48,1021.06,454.84,1030.59,456.75z M1030.12,255.45
			c-0.36-0.52-0.77-1.47-1.48-2.06c-0.82-0.68-1.43,0.21-2.07,0.69c-3.61,2.73-4.77,7.01-6.79,10.74c-0.24,0.44-0.11,1.52,0.22,1.74
			c0.61,0.4,1.53,0.61,2.26,0.5C1023.24,266.9,1030.11,256.86,1030.12,255.45z M988.3,246.3c-3.47-2.11-6.88-1.44-10.36-0.35
			c-1.6,0.5-3.38,1.94-5.01,0.08c-1.19-1.35-2.65-1.94-3.54-0.2c-0.76,1.49,0.98,2.06,2.14,2.72
			C977.68,252.11,982.74,247.45,988.3,246.3z M1002.04,30.12c3.93-0.85,8.27,1.01,10.06-2.85c0.84-1.82-1.45-5.35-3.96-5.41
			C1003.19,21.73,1003.79,26.51,1002.04,30.12z M947.21,252.4c-1.26-2.69-3.38-4.19-5.61-3.47c-2.19,0.71-3.75,2.53-6.62,1.57
			c-1.07-0.36-2.58,2.21-3.13,3.9c-0.24,0.74,0.91,1.79,1.59,1.29C937.49,252.66,942.74,254.4,947.21,252.4z M925.64,399.64
			c-3.08-0.03-6.18-1.6-7.48,0.51c-1.97,3.17-2.15,7.21-1.96,12.39C919.59,407.9,922.19,404.35,925.64,399.64z M930.87,9.42
			c-0.79-1.72,0.14-5.37-3.02-5.09c-3.25,0.28-3.49,3.97-4.09,6.63c-0.53,2.32,0.71,3.24,3.07,3.27
			C930.06,14.26,930.62,12.2,930.87,9.42z M901.28,105.67c-0.13-1.4,1.17-3.67-1.01-3.16c-2.47,0.58-6.53,0.68-6.78,3.68
			c-0.33,3.92,3.95,5.13,6.7,4.86C904.69,110.61,899.02,107.01,901.28,105.67z M982.09,268.3c8.76,0.41,17.15-0.73,24.9-4.68
			c-0.11-0.48-0.22-0.96-0.33-1.45C998.47,264.21,990.28,266.26,982.09,268.3z M982.64,207.1c-0.06,0.96-0.41,2.01,0.6,2.69
			c0.66,0.45,1.3,0.1,1.72-0.42c1.62-2.05,3.35-4.05,4.74-6.26c1.19-1.89,0.74-4.55-0.96-5.23c-1.82-0.73-4.03,0.72-4.72,3
			C983.41,202.91,983.09,205.02,982.64,207.1z M1007.61,281.48c4.78,1.13,9.37,3.78,14.48,1.62c0.84-0.35,1.55-0.78,1.69-1.63
			c0.11-0.71-0.52-1.31-1.2-1.31C1017.58,280.17,1012.44,278.24,1007.61,281.48z M939.39,242.78c-3.49,1.92-5.78-5.72-9.61-0.24
			c-1.33,1.91-0.98,3.3,1.34,4.2C934.8,248.16,938.2,249.15,939.39,242.78z M1051.38,114.55c-0.55-0.76,0.19-3.56-1.97-2.66
			c-2.77,1.16-5.82,2.89-6.81,5.98c-0.41,1.29,1.56,2.24,3.34,2.01C1048.95,119.5,1051.65,118.87,1051.38,114.55z M878.91,258.25
			c-4.52,3.13-2.61,6.53-0.81,9.86c0.83,1.53,2.17,2.49,4.03,2.38c0.91-0.05,1.54-0.65,1.79-1.47c0.57-1.91-0.6-3.29-1.91-4.21
			C879.7,263.22,877.82,261.63,878.91,258.25z M942.34,219.39c0.43,0.05,0.86,0.11,1.29,0.16c0.84-4.13,1.78-8.25,2.47-12.41
			c0.18-1.07,1.46-2.82-0.48-3.33c-1.61-0.42-2.72,0.84-3.22,2.44C941,210.66,941.36,215.03,942.34,219.39z M1020.94,462.96
			c-0.13,3.81-2.88,8.03,1.69,10.57c1.08,0.6,2.04,1.98,3.41,0.56c1.09-1.12,1-2.23,0.07-3.52
			C1024.32,468.09,1022.66,465.51,1020.94,462.96z M1042.35,101.03c1.78-0.03,4.18,0.56,3.91-1.81c-0.25-2.19-0.45-5.61-3.51-5.71
			c-3.06-0.1-4.56,3.35-4.88,5.48C1037.53,101.23,1040.89,100.35,1042.35,101.03z M1011.4,259.27c3.74,1.13,4.57-1.16,5.36-3.38
			c0.48-1.36,1.44-3.39,0.24-4.13c-2.05-1.27-3.33,1.13-4.85,2.15c-0.54,0.36-1.06,0.77-1.6,1.15c-1.3,0.94-3.48,1.87-2.99,3.43
			C1008.08,260.14,1010.49,258.88,1011.4,259.27z M1000.25,20.83c-3.15,0.05-5.04,1.74-7.05,3.02c-1.58,1-3.04,2.52-1.17,4.39
			c1.66,1.67,3.68,1.45,5.19-0.31C998.83,26.06,999.79,23.8,1000.25,20.83z M1070.98,525.22c-1.75,2.19-3.05,3.68-4.18,5.28
			c-0.77,1.09-2.62,2.13-1.17,3.69c1.19,1.27,2.72,2.75,4.64,2.36c1.84-0.38,1.6-2.4,1.49-3.7
			C1071.58,530.79,1072.57,528.69,1070.98,525.22z M949.6,234.75c1.27-0.21,1.91-0.36,2.57-0.42c1.52-0.12,3.27-0.41,3.28-2.16
			c0.01-1.63-1.89-1.54-3.11-1.85c-1.87-0.47-4-0.29-5.05-2.47c-0.33-0.68-1.16-0.88-1.66-0.44c-0.42,0.36-0.74,1.2-0.65,1.75
			C945.45,232.17,947.49,233.78,949.6,234.75z M910.81,110.76c3.27-0.52,7.18,0.19,7.65-3.39c0.26-2-3.45-4.7-5.27-4.2
			C909.6,104.15,912.04,108.04,910.81,110.76z M899.68,40.36c5.06-0.18,8.9-2.85,12.96-4.86c0.48-0.24,1.08-0.96,1.05-1.41
			c-0.1-1.11-1.19-1.11-1.92-0.91C907.21,34.43,902.47,35.44,899.68,40.36z M987.82,223.95c1.18-1.2,4.74,1.97,3.94-1.87
			c-0.67-3.22,0.97-3.76,2.83-4.73c1.85-0.97,4.1-1.38,4.93-3.79C992.72,213.46,988.8,216.77,987.82,223.95z M1011.38,46.74
			c2.47-0.26,4.55-0.49,6.64-0.7c1.13-0.11,2.56,0.07,2.87-1.34c0.36-1.64-0.99-2.68-1.96-3.76c-0.94-1.04-2.07-0.87-3.1-0.11
			C1013.86,42.29,1012.34,44.09,1011.38,46.74z M912.09,280.58c6.91,0.09,13.75,1.87,20.72,0.76
			C925.99,279.27,919.1,278.57,912.09,280.58z M992.26,11.01c-2.67,0.61-4.85,1.89-5.39,4.96c-0.19,1.1,0.29,2.34,1.51,1.81
			c2.48-1.08,5.83-1.23,6.94-4.06C995.91,12.21,993.94,11.36,992.26,11.01z M1035.06,92.04c-1.35-1.85-3.05-4.04-5.57-4.68
			c-1.93-0.49-1.6,1.54-1.43,2.8c0.36,2.72,1.63,4.7,4.65,4.78C1034.24,94.98,1035.16,94.11,1035.06,92.04z M1016.14,181.01
			c0.31-2.29-0.14-3.97-2.51-4.19c-1.84-0.17-3.1,1.33-2.68,2.72c0.67,2.2-0.05,5.9,2.38,6.3
			C1015.51,186.2,1015.22,182.56,1016.14,181.01z M969.76,240.55c-3.39-1.33-6.21-0.35-9.06,0.25c-1.08,0.23-1.85,0.85-1.89,1.94
			c-0.05,1.36,1.09,1.41,2.07,1.46C964.2,244.36,967.42,244.26,969.76,240.55z M1026.78,63.23c0.02-0.96-0.54-1.34-1.22-1.27
			c-3.31,0.31-6.02,2.28-8.97,3.55c-0.78,0.34-0.04,1.82,0.44,2.65c0.61,1.08,1.6,1.21,2.43,0.37c1.89-1.89,4.13-3.16,6.52-4.27
			C1026.35,64.1,1026.55,63.54,1026.78,63.23z M1009.29,38.48c-0.06-1.75-1.22-2.24-2.37-1.72c-1.82,0.82-4.73,0.52-4.92,3.33
			c-0.12,1.69,1.02,3.23,3.09,3.15C1008.15,43.11,1008.27,40.33,1009.29,38.48z M965.38,203.48c-2.17,4.85-4.84,8.27-4.14,13.11
			C965.23,214.2,966.34,211.02,965.38,203.48z M965.63,408.91c2.38-2.03,4.33-3.85,5.74-6.71c-2.85-0.19-5.81-1.43-7.38,0.39
			C962.87,403.88,964.07,406.66,965.63,408.91z M976.42,273.68c-6.72-2.4-8.48-2.3-14.34,0.36
			C966.66,275.5,970.88,275.53,976.42,273.68z M897.86,26.38c-0.83-1.88-0.06-5.13-2.97-5.86c-1.54-0.38-1.97,1.77-2.1,3.26
			c-0.25,2.81,1.52,4.31,3.81,5C897.76,29.12,897.97,27.71,897.86,26.38z M893.14,59.03c-0.39-1.3,1.03-3.8-0.95-3.71
			c-2.44,0.11-3.51,2.79-3.86,5.1c-0.28,1.84,1.17,2.65,2.85,2.65C894.53,63.06,892.56,60.42,893.14,59.03z M862.94,414.61
			c2.99-2.24,5.38-3.85,8.25-4.69c3.14-0.92,1.95-3.12,1.87-4.89c-0.51-0.25-1.02-0.5-1.54-0.75
			C868.88,407.48,866.22,410.67,862.94,414.61z M918.93,199.28c-0.45,0.34-0.89,0.69-1.34,1.03c0.83,4.96,5.13,6.92,8.48,9.71
			c0.34-0.29,0.68-0.57,1.02-0.86C924.38,205.87,921.66,202.57,918.93,199.28z M1020.24,475.05c0,3.95,0,7.23,0,10.51
			C1021.56,482.22,1026.62,478.95,1020.24,475.05z M1031.11,406.51c0.22-9.95-6.11-2.64-7.54-3.6
			C1025.34,402.95,1027.56,405.46,1031.11,406.51z M862.55,407.52c3.26-3.3,6.21-6.9,10.4-9.04c0.87-0.45,2.65-0.9,1.58-2.37
			c-0.79-1.09-2.13-0.46-3.06,0.38c-2.81,2.56-5.64,5.11-8.38,7.74C862.28,405,861.38,405.94,862.55,407.52z M864.39,421.35
			c3.46-1.94,8.64-1.53,7.18-8.38C869.07,415.88,866.9,418.42,864.39,421.35z M924.34,252.5c-0.18-3.46-3.2-3.4-4.83-4.82
			c-0.67-0.58-1.53,0.6-1.51,1.33c0.1,2.9,2.71,3.29,4.67,4.19C923.33,253.51,924.3,253.15,924.34,252.5z M956.73,224.52
			c2.68,1.76,5.83,0.28,7.02,3.17c0.29,0.7,1.51-0.1,2-0.73c0.59-0.76,0.23-1.46-0.34-2.17
			C962.87,221.59,960.3,223.68,956.73,224.52z M887.74,39.38c-0.45-1.51-0.26-3.5-2.38-3.8c-1.51-0.21-1.96,0.99-1.83,2.22
			c0.17,1.62,0.46,3.42,2.41,3.78C887.48,41.87,887.69,40.57,887.74,39.38z M1006.64,250.95c-1.95-0.44-1.02-3.73-3.5-3.85
			c-0.94-0.04-2.82,0.75-2.51,1.78c0.61,2,2.89,2.71,4.52,3.85C1005.75,253.15,1006.58,252.31,1006.64,250.95z"/>
		<path d="M1017.93,518.03c1.6,0.35,1-2,3.08-1.91c-0.2,11.02,1.44,22.06-0.3,33.17c-6.93-9.98-4.61-20.72-2.61-31.44
			C1018.11,517.85,1017.93,518.03,1017.93,518.03z"/>
		<path d="M1032.32,486.73c4.71,9.16,6.97,18.76,5.84,29.04C1032.33,506.89,1030.08,497.26,1032.32,486.73z"/>
		<path d="M1027.09,499.98c4.98,8.82,2.67,18.38,2.72,27.71C1023.3,519.03,1024.61,509.57,1027.09,499.98z"/>
		<path d="M1101.85,379.71c-0.17,2.99-7.31,11.08-9.97,11.44c-2.12,0.29-1.84-1.07-1.23-2.12c2.37-4.08,6.19-6.92,9.18-10.47
			c0.25-0.29,0.95-0.44,1.34-0.32C1101.91,378.46,1102.01,379.15,1101.85,379.71z"/>
		<path d="M981.06,365.92c1.67,3.43,2.29,6.35,0.65,9.4c-0.6,1.1-0.82,2.75-2.73,2.08c-1.68-0.58-2.22-1.85-1.94-3.54
			C977.52,371.01,978.83,368.57,981.06,365.92z"/>
		<path d="M814.18,269.85c2.77,1.13,3.25,4.01,4.74,6.04c0.9,1.23-0.64,2.97-1.72,2.92c-3.73-0.16-2.54-3.83-3.62-5.91
			C813.12,272.01,812.86,270.68,814.18,269.85z"/>
		<path d="M938.41,369.02c3.25,2.13,5.05,5.07,5.82,9.61C939.96,376.05,939.18,372.53,938.41,369.02z"/>
		<path d="M928.65,809.42c2.11-1.02,2.64-2.92,2.65-5c0.02-5.5-0.01-10.99-0.08-16.49c-0.03-2.55-0.89-4.73-2.45-6.87
			c-3.72-5.09-7.1-10.42-10.66-15.63c-0.7-1.02-1.11-1.99-0.4-3.58c4.84,3.64,6.48,9.47,10.15,13.71c0.92,1.06,1.23,3.3,3,2.83
			c1.83-0.49,0.91-2.59,1.11-3.96c0.45-3.13,0.75-6.28,1.03-9.43c0.26-2.9,1.17-5.97-1.73-8.23c3.08-1.09,2.77-3.82,3.36-6.34
			c1.84-7.89-0.47-14.56-4.91-21c-3.19-4.63-5.84-9.63-8.48-14.6c-0.44-0.83-2.44-2.11-0.56-3.26c1.3-0.8,2.63,0.14,3.41,1.3
			c2.02,3.03,5.46,4.93,6.77,8.52c0.06,0.15,0.15,0.31,0.27,0.41c1.7,1.46,2.6,4.72,5.02,4.2c2.06-0.44,0.77-3.56,1.54-5.33
			c3.18-7.34-1.97-12.5-4.87-18.16c-2.78-5.43-6.08-10.6-9.02-15.96c-0.64-1.17-2.08-2.64-0.55-4.02c1.46-1.32,2.35,0.59,3.35,1.14
			c4.33,2.41,6.93,6.58,9.91,10.33c0.61,0.78,1.09,1.95,2.22,1.68c1.15-0.27,1.07-1.52,1.16-2.51c0.3-3.2,0.15-6.23-2.09-8.9
			c-2.16-2.57-3.2-5.79-4.42-8.87c-0.32-0.81-0.34-1.71,0.44-2.27c1.21-0.88,1.67,0.34,2.37,0.95c4.72,4.09,6.57,8.86,5.74,15.39
			c-0.72,5.66-0.88,11.64,1.25,17.3c0.39,1.03,0.58,2.47,0.17,3.42c-4.15,9.6-3.47,19.94-4.21,29.94
			c-1.35,18.24-4.12,36.41-3.24,54.78c0.41,8.48,0.94,16.98,0.87,25.46c-0.07,7.95-0.58,15.93-1.39,23.84
			c-1.19,11.52,0.72,22.93,0.67,34.41c-0.09,19.5-2.22,38.78-4.65,58.07c-2.72,21.56-6.36,42.99-7.58,64.74
			c-1.52,27.11-1.49,54.24-2.09,81.37c-0.43,19.43-0.84,38.89-3.57,58.2c-0.56,3.95,1.08,8.36,0.14,11.75
			c-1.25,4.49-0.64,8.9-1.57,13.18c-1.31,6.06,0.02,12.21-1.43,18.33c-0.89,3.75-2.48,7.18-3.52,10.82
			c-1.08,3.76-4.14,2.69-6.48,1.17c-7.85-5.08-14.84-11.2-20.82-18.38c-10.18-12.23-18.86-25.51-27.19-40.27
			c3.36,2,5.85,3.37,7.72,5.94c1.74,2.4,4.17,4.28,6.05,6.59c10.24,12.59,21.04,24.66,32.65,36c1.73,1.69,3.73,3.11,6.56,5.44
			c0-4.95,0.01-8.84,0-12.73c-0.01-1.47-0.87-2.25-2.02-3.15c-10.34-8.03-18.22-18.29-25.65-28.91c-3.48-4.97-7.22-9.81-10.06-15.67
			c5.96,1.33,7.92,6.51,11.2,9.98c8.2,8.68,15.78,17.95,23.59,27c0.66,0.76,1.2,1.77,2.34,1.55c1.57-0.3,1.32-1.74,1.36-2.83
			c0.09-3,0.06-6,0.1-9c0.02-1.65-0.73-3.02-2.01-3.82c-10.12-6.38-16.69-16.05-23.14-25.63c-7.21-10.71-14.3-21.56-20.06-33.18
			c-0.44-0.89-0.91-1.77-1.25-2.7c-0.27-0.74-0.7-1.63,0.29-2.21c1.14-0.67,1.52,0.13,2.31,0.91c9.02,8.81,16.84,18.56,24.12,28.85
			c4.85,6.86,10.65,13.04,16.1,19.47c0.93,1.1,2.19,2.68,3.6,2.29c1.77-0.49,0.73-2.59,1.1-3.94c1.69-6.06-3.39-8.91-6.25-12.68
			c-7.63-10.04-13.97-20.85-20.07-31.84c-2.17-3.91-4.9-7.52-7.42-11.23c-0.92-1.36-2.01-2.63-1.53-5.52
			c14.18,14.76,24.11,31.65,34.89,48.37c1.99-2.41,1.23-4.84,1.3-6.98c0.21-6.99,0.19-13.99,0.22-20.99
			c0.01-2.03,0.5-3.65-2.94-4.19c-2.96-0.47-5.26-3.87-7.1-6.62c-10.91-16.35-19.64-33.94-28.84-51.26
			c-0.75-1.41-1.72-2.93-0.3-4.89c15.69,15.59,25.54,35.27,37.66,53.41c2.1-1.58,1.55-3.18,1.56-4.57c0.03-4.5-0.21-9-0.05-13.49
			c0.22-6.18-0.43-11.13-5.85-16.04c-8.39-7.61-12.47-18.71-17.95-28.57c-5.56-10-10.56-20.31-15.91-30.43
			c-0.99-1.87-1.9-3.53-0.39-5.55c16.17,16.4,26.29,37.09,39.71,55.69c-0.05-8.8,3.55-17.49-3.61-25.88
			c-8.82-10.34-14.36-22.93-20.26-35.14c-0.43-0.89-1.34-1.71-0.27-2.59c1.4-1.15,2.25,0.13,2.72,1.07
			c2.97,5.91,7.24,11,10.23,16.94c2.87,5.69,6.74,10.86,10.24,16.22c0.3,0.46,1.19,0.98,1.6,0.84c1.1-0.36,1.13-1.51,1.2-2.5
			c0.33-5.31,0.64-10.62,0.98-16.35c-4.94,3.22-7.39-0.64-9.9-3.39c-5.21-5.71-8.2-12.87-11.62-19.66
			c-5.07-10.07-11.34-19.54-15.65-30.55c4.97,0.02,6.21,4.24,8.39,6.84c6.45,7.69,11.7,16.3,16.73,24.93
			c3.5,6,7.27,11.65,12.45,18.19c0.75-5.8,1.95-10.47,1.7-15.06c-0.12-2.19-3.84-3.32-4.74-6.3c-1.48-4.91-3.64-9.63-5.7-14.35
			c-3.37-7.7-6.89-15.33-9.8-23.35c9.58,8.49,15.73,19.44,21.93,31.36c2.28-6.05,2.52-11.83,3.48-17.4
			c1.78-10.33,3.06-20.74,4.5-31.12c0.68-4.9,1.91-8.98-4.3-12.76c-6.45-3.93-10.82-11.13-14.23-18.24
			c-4.08-8.5-7.9-17.13-11.75-25.74c-0.66-1.47-1.53-2.97-0.99-6.32c11.13,16.66,19.92,33.48,32.39,48.23
			c1.26-5.34,1.51-10.7,1.51-16.06c0.01-11.66-0.24-23.33,0-34.98c0.08-4.07-3.54-5.47-4.85-8.63c-5.5-13.31-13.86-25.2-20.23-38.36
			c2.99-1.04,3.89,1.12,5.1,2.8c7.55,10.48,14.59,21.25,19.57,33.42c2.13-9.24,3.61-18.35-0.99-27.27L928.65,809.42z"/>
		<path d="M858.25,767.09c-8.45,9.31-17.67,17.04-27.88,25.58c0.98-5.04,3.74-7.52,6.27-9.86c6.91-6.4,12.99-13.66,20.61-19.38
			c2.7-2.02,1.34-6.16,1.83-10.62c-8.54,8.5-15.93,16.61-25.52,23.3c0.6-3.41,2.65-4.97,4.26-6.68c5.58-5.93,10.68-12.61,17.2-17.29
			c5.25-3.77,5.2-8.14,5.11-13.05c-0.1-5.43,2.01-10.75,0.69-16.83c-8.26,7.31-14.45,16.23-23.66,21.86
			c3.69-7.8,10.02-13.45,15.75-19.54c1.99-2.12,3.93-4.54,7.16-5.17c1.57-0.3,1.79-1.76,1.86-3.17c0.2-4.12,0.42-8.24,0.68-13.3
			c-9.04,9.19-15.39,20.02-27.67,24.85c1.2-2.01,2.27-4.1,3.63-6c5.05-7.05,10.62-13.66,16.62-19.92c0.58-0.6,1.1-1.46,1.81-1.69
			c9.76-3.14,5.73-11.26,6.61-17.7c-8.6,9.78-17.3,19.24-27.83,27.84c-0.82-3.61,1.02-4.84,2.33-6.15
			c8.34-8.35,15.53-17.82,24.88-25.17c0.86-0.67,1.29-1.47,1.29-2.55c0-12.76,0-25.51,0-38.43c-8.1,9.36-16.76,18.52-26.36,26.77
			c6.96-9.62,14.61-18.76,23.26-26.73c4.73-4.36,4.48-8.54,4.14-14.74c-8.72,8.04-16.03,16.29-24.79,22.96
			c3.09-7.1,8.81-12.08,14.06-17.38c2.8-2.82,5.85-5.42,9-7.85c1.73-1.33,1.97-2.85,1.96-4.77c-0.06-6.46-0.02-12.93-0.77-19.7
			c-9.87,8.77-18.56,18.32-28.54,26.5c7-9.98,15.18-18.96,24.14-27.07c4.55-4.11,4.28-7.98,2.64-13.38
			c-10.19,9.4-18.47,20.17-30.06,27.49c4.78-5.81,9.23-11.94,14.42-17.35c4.72-4.9,8.81-10.41,14.17-14.72
			c3.67-2.95,1.04-7.2,1.72-10.98c-9.42,9.94-17.51,20.92-27.62,30.13c8.64-14.28,18.91-27.32,30.48-40.35
			c1.51,5.6,0.07,10.36,0.39,15.07c1.64,23.92,3.37,47.85,2.16,71.83c-1.16,23.07-1.19,46.18-3.56,69.21
			c-2.03,19.66-2.47,39.48-4.38,59.16c-2.93,30.22-2.68,60.49-3.13,90.78c-0.23,15.25-1.9,30.46-2.57,45.71
			c-0.4,8.98-0.2,17.98-0.12,26.97c0.19,22.5-2,44.86-3.72,67.25c-1.08,14.1-1.39,28.26-2.31,42.37
			c-1.27,19.26-0.22,38.61-2.06,57.84c-1.95,20.37-5.62,40.51-8.83,60.71c-0.21,1.34,0.13,3.22-2.37,2.86
			c-2.1-0.3-3.35-1.07-3.37-3.44c-0.08-7.89,2.26-15.41,3.4-23.11c2.4-16.1,5.7-32.07,6.46-48.39c0.07-1.55,0.8-3.27-0.76-4.99
			c-3.73,3.42-7.04,7.4-12.52,9.38c1.24-6.99,6.78-9.67,10.88-13.43c1.52-1.39,3.05-2.46,3.11-4.76
			c0.53-19.74,1.47-39.45,3.29-59.86c-5.25,2.88-7.69,8-13.63,10.87c2.93-6.22,6.79-10,11.21-13.04c1.95-1.34,2.63-2.6,2.78-4.73
			c0.69-10.1,1.48-20.19,2.27-30.81c-4.79,2.51-7.78,7.09-13.42,9.05c1.08-5.4,4.64-8.56,8.39-10.72c4.91-2.83,6.26-6.76,6.4-11.85
			c0.46-16.63,1.05-33.26,1.51-49.89c0.04-1.36,0.36-2.96-0.98-4.41c-6.48,8.96-13.9,16.68-22.72,23.01
			c5.85-9.31,12.87-17.57,20.95-24.91c1.8-1.64,3.06-3.21,3.19-5.85c0.64-13.46,1.57-26.91,2.18-40.38
			c0.27-6.03,0.05-12.09,0.05-18.88c-6.42,7.45-12.31,14.79-20.5,20.38c0.22-2.75,2.18-3.8,3.49-5.29
			c5.38-6.09,10.1-12.79,16.55-17.88c1.08-0.86,1.05-1.97,1.07-3.15c0.24-15.11-0.09-30.24,1.51-46.52
			c-9.07,9.28-17.31,17.81-27.24,24.41c1.83-5.5,6.35-8.78,10.12-12.56c4.8-4.83,9.86-9.44,15.5-13.31c1.03-0.7,1.91-1.3,2-2.61
			C857.27,781.66,857.76,774.38,858.25,767.09z"/>
		<path d="M1046.6,792.41c0.43,8.13,1.1,16.26,1.19,24.4c0.06,5.49,3.56,8.58,7.36,11.93c-2.55,2.03-3.86-0.32-6.15-0.92
			c0.06,5.53-2.12,11.26,5.93,15.58c-5.6-0.41-5.39,2.12-5.27,4.89c0.45,10.13,0.81,20.26,1.08,30.4c0.07,2.4,0.55,4.16,3.17,4.89
			c1.01,0.28,2.56,0.59,2.62,1.97c0.05,1.37-1.37,2.01-2.43,2.13c-2.51,0.29-2.71,1.72-2.65,3.81c0.53,19.47,0.63,38.96,1.56,58.41
			c0.6,12.4,2.18,24.75,2.48,37.18c0.05,2.17,1.38,3.4,3.3,4.56c6.82,4.12,13.23,8.85,19.31,14.02c0.85,0.72,2.47,1.18,1.75,2.56
			c-0.69,1.33-2.14,2-3.82,1.66c-1.65-0.34-3.12-0.94-4.5-1.98c-5.63-4.27-11.22-8.57-15.22-15.92c-1.16,8.08-0.49,15-0.27,21.86
			c0.57,17.92,1.93,35.83,2.12,53.75c0.06,5.38,2.05,7.13,6.2,9.49c5.84,3.33,10.92,8.01,16.22,12.24c1.04,0.83,2.75,2.21,1.25,3.69
			c-1.38,1.37-3,0.4-4.44-0.7c-6.08-4.67-12.73-8.66-17.82-15.74c-1.32,4.37-0.89,7.86-0.62,11.2c1.41,17.72,3.08,35.42,4.57,53.13
			c0.22,2.66,1.41,3.65,3.88,4.84c7.08,3.41,12.34,9.48,18.64,14.09c2.01,1.47,4.13,2.82,6,4.46c0.84,0.74,2.72,1.31,1.77,3.03
			c-0.74,1.34-2.25,1.3-3.59,1.18c-3.97-0.36-7.07-2.72-10.12-4.89c-4.04-2.89-7.76-6.22-11.65-9.32c-0.88-0.7-1.65-2.1-2.88-1.66
			c-1.47,0.52-1.29,2.25-1.32,3.47c-0.16,6.96-0.23,13.92-0.22,20.89c0,1.2,0.08,2.31-0.76,3.37c-1.74-0.57-1.29-2.18-1.29-3.29
			c-0.01-31.21-4.82-62.1-5.87-93.25c-1.2-35.79-2.05-71.6-3.16-107.39c-0.54-17.28-2.69-34.49-2.91-51.83
			c-0.23-18.3-0.96-36.6-1.87-54.88c-1.31-26.26-2.66-52.53-4.69-78.75c-1.11-14.27-1.68-28.59-2.05-42.91
			c-0.42-16.37-3.19-32.44-5.54-48.57c-1.83-12.54-1.51-25.2-2.6-37.76c-1.72-19.74-2.53-39.51-2.94-59.41
			c1.52,4.85,2.79,9.97,2.14,14.68c-0.92,6.65,6.35,6.95,7.7,11.55c-3.14,1.51-3.49-2.21-5.96-2.52c-0.92,7.8,0.35,15.46,0.88,23.12
			c0.38,5.47,1.09,10.91,1.56,16.38c0.27,3.16,0.1,6.47,5.07,7.53c-4.79-1.06-5,1.22-4.91,4.22c0.5,15.25,3.32,30.22,5.49,45.26
			c2.09,14.52,2,29.1,2.45,43.68c0.27,8.82,0.67,17.6,1.91,26.34L1046.6,792.41z"/>
		<path d="M1008.42,1147.75c-18.5,22.82-44.95,33.74-70.06,46.64C959.47,1175.47,985.46,1163.88,1008.42,1147.75z"/>
		<path d="M938.75,1168.89c19.97-16.28,42.42-28.33,63.58-44.07c-0.79,4.23-2.57,6.72-4.85,8.81
			c-16.59,15.15-35.02,27.34-56.35,34.83C940.38,1168.73,939.55,1168.75,938.75,1168.89z"/>
		<path d="M894.03,888.02c5.31,4.14,7.49,10.32,10.66,15.89c4.82,8.48,9.64,16.97,14.45,25.46c0.49,0.86,1.06,1.72,1.31,2.66
			c0.39,1.45-0.16,2.69-1.58,3.26c-1.47,0.59-2.21-0.68-2.73-1.6c-6.08-10.95-12.59-21.69-17.18-33.42
			C897.35,896.18,895.68,892.11,894.03,888.02z"/>
		<path d="M1007.49,1188.91c-3.78,4.88-7.85,7.41-11.75,9.85c-7.01,4.38-14.41,8.16-22.15,11.15c-1.47,0.57-3.47,2.31-4.54-0.54
			c-0.85-2.25,0.13-3.9,2.26-4.83c5.77-2.52,11.56-5.01,17.35-7.5C994.51,1194.51,1000.38,1191.98,1007.49,1188.91z"/>
		<path d="M964.74,846.26c9.61-15.47,23.97-26.46,36.68-39.02C991.51,822.41,977.52,833.77,964.74,846.26z"/>
		<path d="M982.18,723.84c5.62-9.51,13.12-17.4,20.93-25.05c1.14-1.11,2.08-0.68,3.09-0.06c1.04,0.64,1.04,1.65,0.62,2.63
			c-0.52,1.22-0.89,2.67-1.8,3.52C997.84,711.65,991.39,719.31,982.18,723.84z"/>
		<path d="M998.2,1014.21c-5.08,12.29-14.65,21.05-23.57,30.32c-1,1.04-2.6,2.19-3.96,1.02c-1.66-1.43,0.13-2.73,0.95-3.79
			C979.42,1031.6,989.52,1023.63,998.2,1014.21z"/>
		<path d="M999.31,791.6c-8.14,14.22-20.09,24.83-32.79,34.73C976.75,814.09,986.82,801.7,999.31,791.6z"/>
		<path d="M1004.13,916.28c-11.88,13.7-23.5,27.68-39.23,37.47c12.66-12.89,25.33-25.78,37.99-38.67
			C1003.31,915.48,1003.72,915.88,1004.13,916.28z"/>
		<path d="M1002.61,1036.44c0.24,3.33-1.99,5.57-3.82,7.8c-6.14,7.49-13.97,13.17-21.37,19.31c-0.94,0.78-2.32,2.11-3.49,0.98
			c-1.54-1.49,0.14-2.83,1.13-3.72c4.81-4.32,9.74-8.49,14.61-12.74c4.36-3.8,8.69-7.64,13.02-11.48
			C1002.68,1036.56,1002.61,1036.44,1002.61,1036.44z"/>
		<path d="M1000.89,1106.13c-14.36,14.92-33.55,22.73-50.06,34.44C965.77,1126.56,984.32,1117.74,1000.89,1106.13z"/>
		<path d="M967.75,970.54c11.53-12.84,23.51-25.37,35.2-39.27C1000.43,940.73,980.17,963.32,967.75,970.54z"/>
		<path d="M1000.46,737.56c-7.9,13.1-19.21,22.88-30.75,32.44C978.99,758.25,989.14,747.33,1000.46,737.56z"/>
		<path d="M1000.65,750.38c-1.8,5.26-26.36,31.79-35.65,38.55C975.75,775.04,987.94,762.47,1000.65,750.38z"/>
		<path d="M925.1,871.85c-5.85-7.36-10.7-15.31-13.27-24.51C918.06,854.47,924.38,861.55,925.1,871.85z"/>
		<path d="M837.08,689.15c7.55-8.98,15.08-17.98,24.53-25.09C854.45,673.43,846.42,681.93,837.08,689.15z"/>
		<path d="M847.45,932.85c-4.99,7.45-9.63,15.2-17.96,19.7C834.02,944.68,840.46,938.52,847.45,932.85z"/>
		<path d="M830.24,854.1c5.84-9.1,13.58-16.36,22.55-22.39C846.26,840.11,838.35,847.17,830.24,854.1z"/>
		<path d="M854.15,781.91c-5.84,8.07-13.09,14.65-21.45,20.05C838.64,794.03,846.43,788.03,854.15,781.91z"/>
		<path d="M836.14,679.19c6.69-9.25,14.22-17.72,23.03-24.98C852.08,663.08,844.69,671.67,836.14,679.19z"/>
		<path d="M1066.33,973.4c-2.08-0.15-9.2-7.55-9.36-9.44c-0.15-1.78,0.86-2.13,2.1-1.28c3.1,2.13,6.13,4.38,9.1,6.7
			c0.76,0.6,1.2,1.75,0.35,2.62C1067.86,972.68,1066.9,973.05,1066.33,973.4z"/>
		<path d="M928.75,809.3c-4.86-5.83-7.79-12.87-11.98-19.13c-0.43-0.64-0.41-1.25,0.06-1.79c0.54-0.61,1.4-0.6,1.69,0.02
			c3.36,7.01,10.26,12.32,10.14,21.01C928.65,809.42,928.75,809.3,928.75,809.3z"/>
		<path d="M1067.08,1113.42c5.57,3.59,11.43,6.81,16.45,11.85C1078.8,1125.89,1071.72,1120.93,1067.08,1113.42z"/>
		<path d="M1000.11,721.07c-5.3,8.06-11.65,15.32-18.97,21.74C986.61,734.87,992.62,727.39,1000.11,721.07z"/>
		<path d="M828.87,882.85c6.52-8.37,13.98-14.59,21.12-21.49C848.57,865.39,834.97,879.33,828.87,882.85z"/>
		<path d="M1062.44,1013.82c5.67,2.45,10.46,6.08,14.81,10.33C1070.88,1022.79,1066.3,1018.79,1062.44,1013.82z"/>
		<path d="M861.73,610.92c-6.56,8.46-14.78,15.33-22.41,22.79C845.87,625.25,853.5,617.82,861.73,610.92z"/>
		<path d="M1056.97,975.4c4.14,2.65,8.28,5.31,12.42,7.95c1.04,0.66,2.06,1.52,1.11,2.72c-0.85,1.08-1.7-0.16-2.52-0.54
			C1063.27,983.35,1059.55,979.99,1056.97,975.4z"/>
		<path d="M841.48,1066.98c-2.11,6.36-6.33,10.84-12.11,13.2C832.32,1074.69,836.24,1070.94,841.48,1066.98z"/>
		<path d="M850.67,810.55c-6.05,5.5-12.1,11.01-18.14,16.51c-0.32-0.35-0.65-0.69-0.97-1.04
			C837.1,820.08,843.48,815.03,850.67,810.55z"/>
		<path d="M1076.3,1055.37c-5.19-2.68-9.71-6.31-13.43-10.91C1068.16,1047.03,1072.74,1050.49,1076.3,1055.37z"/>
		<path d="M839.71,756.05c3.38-5.69,8.29-10.01,13.15-14.38C849.85,747.68,845.06,752.11,839.71,756.05z"/>
		<path d="M832.9,892.71c4.15-6.24,9.43-11.46,15.05-16.37C843.7,882.5,838.39,887.69,832.9,892.71z"/>
		<path d="M830.23,911.09c3.09-5.87,8.22-9.9,12.64-14.57C839.91,902.47,835.21,906.91,830.23,911.09z"/>
		<path d="M846,959.37c-3.87,4.23-7.96,8.3-12.84,12.14C837.62,967.3,841.81,963.33,846,959.37z"/>
		<path d="M993.73,700.16c1.73-5.46,6.39-8.76,9.38-13.31C1001.25,692.18,997.78,696.37,993.73,700.16z"/>
		<path d="M1058,944.94c2.36,1.88,4.72,3.76,7.34,5.85C1061.16,950.51,1060.36,949.94,1058,944.94z"/>
		<path d="M1053.23,894.23c1.21,0.46,1.73,0.52,2.05,0.8c1.41,1.23,3.95,0.95,4.47,3.26c0.06,0.27-1.01,1.18-1.34,1.08
			C1056.12,898.7,1053.91,897.81,1053.23,894.23z"/>
		<path d="M1046.69,792.55c1.71-3.47,3.23-0.78,4.69,0.23c0.72,0.5,1.88,1.29,0.68,2.3c-1.87,1.57-2.92-0.01-4-1.27
			c-0.43-0.5-0.95-0.91-1.44-1.38C1046.6,792.41,1046.69,792.55,1046.69,792.55z"/>
		<path d="M986.66,477c0.42,3.68-1.78,6.52-3.48,9.34c-3.94,6.52-8.14,12.88-12.43,19.18c-1.56,2.29-4.31,5.62-6.53,4.22
			c-2.92-1.85,0.15-5.06,1.39-7.31c4.98-9.07,11.6-16.93,18.72-24.38C984.91,477.43,985.39,476.78,986.66,477z"/>
		<path d="M989.05,492.8c-2.31,7.9-5.95,15.03-11.25,21.2c-2.23,2.59-3.66,6.03-7.23,7.33c-1.25,0.46-2.68,1.28-3.64,0
			c-0.74-0.99,0.14-2.24,0.77-3.19C973.8,508.88,980.72,500.29,989.05,492.8z"/>
		<path d="M981.85,441.23c-6,11.47-13.74,21.74-22.31,31.42C965.23,460.97,973.81,451.3,981.85,441.23z"/>
		<path d="M985.88,514.3c-4.35,10.9-11.24,18.87-16.46,19.02C973.82,525.72,979.93,520.07,985.88,514.3z"/>
		<path d="M930.63,471.82c-2.47,6.8-7.51,11.68-11.89,17.02c-0.67,0.81-1.74,1.32-2.61,0.64c-1.05-0.82-0.09-2.03,0.33-2.67
			C920.26,480.98,924.73,475.72,930.63,471.82z"/>
		<path d="M980.23,465.06c-4.08,8.02-9.55,14.99-15.3,21.76C968.27,478.32,973.65,471.24,980.23,465.06z"/>
		<path d="M916.68,470.37c0.98-5.32,4.08-9.23,7.97-12.63C923.1,462.65,919.99,466.6,916.68,470.37z"/>
		<path d="M898.29,402.89c-4.46,1.18-6.68,5.53-11.62,8.2c2.4-5.4,6.17-7.72,10.14-9.72c0.99-0.5,0.78,1.16,1.32,1.66
			C898.13,403.04,898.29,402.89,898.29,402.89z"/>
		<path d="M926.1,495.03c-0.36,2.77-1.61,5.01-3.52,6.82c-0.73,0.69-1.67,1.3-2.53,0.2c-0.68-0.86,0.03-1.54,0.61-2.08
			C922.45,498.3,924.28,496.68,926.1,495.03z"/>
		<path d="M969.43,115.88c-6.55,0.48-11.43-3.18-15.9-7.05c-3.63-3.14-2.9-7.78,0.97-11.3c9.4-8.55,22-8.15,31.06,0.98
			c0.82,0.82,1.55,1.77,2.48,2.43c3.44,2.44,2.64,4.89,0.14,7.39C982.64,113.88,977.7,115.86,969.43,115.88z M976.94,98.99
			c-0.37,3.82,0.3,7.04-1.63,9.81c-0.84,1.2,0.01,1.81,1.1,2.02c1.67,0.32,8.77-4.06,8.85-5.64c0.18-3.62-2.97-3.65-5.29-4.57
			C979.1,100.27,978.32,99.74,976.94,98.99z M966.6,110.23c-0.37-3.17,0.21-6.52-1.88-7.34c-1.89-0.74-5.27-0.2-6.46,3.07
			C960.88,107.3,963.42,108.6,966.6,110.23z"/>
		<path d="M930.3,112.11c1.6,3.28,1.37,6.37,0.67,9.45c-0.84,3.73-1.98,7.39-2.68,11.14c-0.43,2.29-3.07,4.9-0.54,6.9
			c3.09,2.44,6.64,4.46,11.06,2.95c2.5-0.86,5.15-1.29,7.75-1.81c0.96-0.19,2.1-0.22,2.58,0.92c0.43,0.99,0.1,1.98-0.62,2.76
			c-0.56,0.61-1.12,1.32-1.83,1.67c-4.01,1.94-7.92,4.29-12.14,5.52c-5.75,1.68-13.46-7.53-11.73-13.65
			C925.22,129.5,927.71,121.08,930.3,112.11z"/>
		<path d="M951.42,171.56c-5.15-1.01-9.99-3.21-15.29-3.79c-5.21-0.57-10.35-1.87-15.51-2.9c-1.09-0.22-2.5-0.35-2.51-1.89
			c-0.01-1.31,0.98-2.05,2.14-2.41c1.27-0.39,2.59-0.98,3.85-0.91c9.97,0.58,20.31-1.26,29.54,4.29c1.6,0.96,4.64,1.36,3.99,3.59
			C956.92,169.98,954.55,171.75,951.42,171.56z"/>
		<path d="M989.4,84.37c-5.41,1.94-10.7-0.87-16.17-0.33c-8.33,0.82-16.4,1.98-23.49,6.87c-0.84,0.58-1.68,2.12-2.91,0.97
			c-1.01-0.94-0.12-2.19,0.24-3.24c1.29-3.72,4.1-6.13,7.57-7.46c6.41-2.46,12.98-3.82,19.92-1.95c5.1,1.37,10.22,2.6,14.91,5.2
			C989.49,84.44,989.4,84.37,989.4,84.37z"/>
		<path d="M932.32,175.11c4.27-1.47,7.97-1.9,11.76-1.77c1.17,0.04,2.58,0.12,3.02,1.27c0.56,1.45-0.71,2.41-1.72,3.25
			C942.52,180.26,937.85,179.39,932.32,175.11z"/>
	</g>
</g>
</svg>
