<?xml version="1.0" encoding="utf-8"?>
<!-- Generator: Adobe Illustrator 26.0.2, SVG Export Plug-In . SVG Version: 6.00 Build 0)  -->
<svg version="1.1" id="Layer_1" xmlns="http://www.w3.org/2000/svg" xmlns:xlink="http://www.w3.org/1999/xlink" x="0px" y="0px"
	 viewBox="0 0 1920 1080" style="enable-background:new 0 0 1920 1080;" xml:space="preserve">
<g>
	<g>
		<path d="M887.94,1273.6c2.08,2.23,0.84,4.87,0.43,7.12c-0.49,2.75-2.7,0.94-4,0.47c-21.62-7.82-42.07-17.47-57.45-35.5
			c-8.63-10.12-20.13-16.84-30.69-24.64c-7.65-5.65-9.1-9.61-6.09-18.79c3.29-10.06,3.18-20.68,4.75-31.02
			c0.57-3.73-3.23-6.37-5.04-9.5c-0.39-0.67-1.22-0.53-1.72-0.01c-0.76,0.77-0.94,1.76-0.52,2.77c1.09,2.57,0.93,5.18,0.54,7.86
			c-0.42,2.92-1.87,3.15-4.18,1.95c-2.74-1.42-4.47-3.96-6.63-6c-5.13-4.86-10.8-8.68-17.36-11.5c-5.61-2.42-11.12-5.06-16.87-7.14
			c-1.88-0.68-2.74-1.67-1.56-3.76c0.63-1.13,1.12-2.55,1.06-3.82c-0.7-16.31,5.74-31.33,8.77-46.93
			c3.35-17.3,5.56-34.78,9.35-52.01c3.72-16.9,4.87-34.24,6.46-51.48c0.08-0.83-0.06-1.74,0.23-2.48
			c4.36-11.28-1.4-19.89-7.34-28.52c-2.39-3.47-3.34-7.6-4.59-11.56c-6.66-21.1-13.83-42.07-19.65-63.41
			c-5.14-18.83-6.55-38.19-6.05-57.84c0.57-22.32,2.67-44.55,2.89-66.88c0.06-6.45-1.79-12.48-3.06-18.62
			c-3.28-15.84-3.52-31.72-1.5-47.69c0.65-5.13,2.9-9.94,4.68-14.67c5.42-14.44,6.84-29.52,7.91-44.57
			c1.47-20.84,6.4-41.12,8.8-61.78c1.86-15.93,6.29-31.21,10.78-46.58c5.44-18.61,6.1-38.08,6.78-57.34
			c1.03-29.52,4.24-58.69,10.97-87.46c2.58-11.03,2.24-22.52,5.21-33.49c0.28-1.02,0.18-2.06-0.74-2.72
			c-6.01-4.27-9.21-11.74-16.83-14.31c-2.84-0.96-0.96-3.34,0-4.99c9.64-16.71,19.91-33.05,28.91-50.12
			c4.49-8.53,6.86-18.02,12.07-26.26c5-7.91,11.13-14.93,16.77-22.34c1.83-2.41,4.53-3.93,7.4-4.94
			c10.11-3.56,19.56-8.37,28.47-14.33c2.89-1.94,6.03-3.54,9.17-5.07c2.73-1.34,6.06-2.59,8.69-1.28c8.2,4.08,16.64-0.05,24.85,1.39
			c0.47,0.08,1-0.04,1.49-0.15c3.93-0.93,9.38,1.93,11.65-2.31c2.61-4.87,1.16-10.92,0.16-16.16c-0.6-3.16-3.86-6.11-6.48-8.54
			c-7.27-6.73-10.38-16.09-15.64-24.08c-3.12-4.74-2.7-10.9-3.97-16.4c-0.65-2.8-1.74-4.42-4.45-5.23
			c-10.16-3.04-14.86-10.08-14.68-20.53c0.06-3.35-0.87-6.86-3.3-8.6c-4.41-3.15-5.4-7.76-6.95-12.23c-2.12-6.12-4.07-12.3-7.27-18
			c-0.71-1.27-1.19-2.77-1.39-4.22c-0.29-2.04-0.09-4.29,2.11-5.13c1.94-0.74,3.06,1.28,3.86,2.5c3.96,5.99,10.12,9.48,15.43,13.91
			c1.01,0.84,2.52,2.21,3.98,0.81c1.37-1.3-0.01-2.44-0.8-3.43c-1.06-1.33-1.21-2.88-0.63-4.26c1.86-4.41,0.48-8.52-0.92-12.62
			c-0.72-2.1-1.55-4.34-0.67-6.32c2.43-5.46,2.79-11.22,3.12-17.02c0.34-6.02,9.02-12.12,16.01-13.07c3.69-0.5-0.45,3.13,1.79,3.78
			c0.57,0.09,1.25-0.16,1.37-0.89c1.79-10.71,10-15.44,18.74-18.91c9.61-3.82,19.71-5.76,30.28-4.88
			c10.72,0.88,21.58-1.38,32.25,2.1c6.7,2.18,11.93,5.67,16.03,11.38c2.98,4.15,7.5,6.93,10.68,11.05
			c4.27,5.54,3.82,9.25-2.84,11.89c-7.73,3.07-15.69,3.26-23.84,0.67c-6.73-2.14-13.83-1.02-20.79-0.79
			c-14.86,0.48-29.71,1.08-44.43-2.09c-2.94-0.63-4.68,0.99-6.85,4c-3.17,4.4-2.2,9.68-5.24,13.79c-4.29,5.8-4.1,5.97-10.04,1.95
			c-1.21-0.82-2.07-2.24-4.65-1.64c1.75,3.35,4.75,4.98,7.51,6.7c2.41,1.5,3.92,2.57,1.8,5.74c-2.06,3.08-3.72,3.26-6.27,0.91
			c-1.58-1.46-3.34-2.72-5.03-4.05c-0.85-0.67-1.75-2.05-2.84-0.65c-0.83,1.05-0.22,2.42,0.8,3.05c1.97,1.21,4.1,2.16,6.18,3.18
			c6.06,2.99,6.36,3.73,3.06,9.62c-1.17,2.09-1.52,3.87-0.14,6.02c2.98,4.63,5.36,9.33,0.66,14.41c-1.37,1.48,0.43,2.72,0.8,4.07
			c0.32,1.16,1.71,2.57-0.08,3.46c-1.48,0.74-2.51-0.51-3.22-1.66c-4.31-6.97-9.72-13.06-15.27-19.03
			c-3.86-4.16-7.56-8.57-13.68-11.83c1.81,8.15,4.97,14.44,8.5,20.59c3.06,5.34,6.02,10.72,6.66,17.05
			c0.15,1.43,0.64,3.04,1.51,4.15c2.13,2.74,5.86,5.05,8.48,3.68c3.29-1.72-0.41-4.54-1.5-6.53c-2.05-3.76-4.77-7.15-7.07-10.79
			c-0.56-0.89-1.39-2.28-0.26-3.19c1.3-1.06,1.89,0.5,2.76,1.18c4.14,3.26,6.77,7.66,9.18,12.38c2.06-0.62,1.6-4.11,3.91-3.29
			c2.22,0.79,2.34,3.22,2.18,5.16c-0.89,10.75,1.21,21.18,3.12,31.64c0.55,3.02,2,5.65,3.43,8.24c4.89,8.82,9.79,17.65,18.65,23.38
			c1.61,1.04,3.11,1.95,4.96,1.96c2.82,0.02,6.07-0.93,5.58,3.93c-0.09,0.87,1.43,1.18,2.4,1.48c9.36,2.88,18.8,1.48,28.21,0.49
			c1.88-0.2,3.07-1.9,4.61-2.86c2.44-1.51,3.86-4.88,8.29-2.53c2.16,1.14,5.38-2.59,7.28-5.17c6.85-9.27,11.03-19.75,12.69-31.05
			c1.38-9.43,3.33-18.71,6.27-27.7c2.16-6.58,1.51-13.26,1.49-19.78c-0.02-6.29-0.33-12.27,3.38-17.64
			c-1.47-1.03-2.5-0.67-3.52,0.03c-1.01,0.69-1.73,2.52-3.27,1.43c-1.44-1.01-1.06-2.69-0.54-4.13c1.28-3.52,2.23-6.79-1.02-10.05
			c-1.73-1.73-0.38-2.53,1.7-2.27c1.06,0.13,2.72,0.68,2.95-0.79c0.26-1.65-1.49-1.98-2.78-2.26c-1.98-0.42-3.8-1.12-5.48-2.3
			c-5.8-4.06-5.69-11.82,0.31-15.54c4.81-2.99,10.5-3.96,15.47-6.76c3.07-1.73,7.97,3.11,7.8,8.11c-0.31,9.48,2.52,18.25,5.05,27.13
			c0.91,3.19-1.12,5.71-1.89,9.05c2.92-0.28,4.71-1.87,6.59-3.34c4.2-3.29,8.44-6.44,13.78-7.84c2.77-0.73,4.22-0.27,3.09,2.64
			c-4.89,12.63-8.09,26.01-16.42,37.14c-2.99,4-5.32,8.42-7.1,13.12c-2.96,7.8-4.29,8.53-12.86,8.33c-2.94-0.07-5.03,0.81-5.81,4.44
			c-1.54,7.2-1.02,14.57-2.5,21.76c-2.32,11.29-8.02,20.65-15.83,28.85c-1.25,1.31-2.27,2.44-1.77,4.29
			c0.98,3.63,0.65,7.31,0.13,10.91c-0.5,3.5,0.7,4.36,4.02,4.13c9-0.62,18.08-0.7,26.76,2c10.3,3.2,20.55,6.68,30.5,10.8
			c5.13,2.12,9.73,5.69,14.28,9c3.06,2.23,3.12,6.21,3.58,9.55c1.06,7.74,4.59,14.51,7.82,21.38c4.78,10.17,11.36,19.45,14.79,30.32
			c1.28,4.05,4.49,7.18,6.24,11.18c2.92,6.64,3.45,13.53,3.54,20.48c0.05,4.36,1.01,5.67,5.73,5.17c8.15-0.85,15.97-3.08,23.98-4.43
			c4.18-0.71,8.28-0.5,12.33,0.82c2.46,0.8,2.54,2.02,0.53,3.32c-2.07,1.34-4.11,2.75-6.8,2.87c-5.54,0.24-10.61,2.49-15.84,4.06
			c-3.02,0.91-4,3.53-4.53,6.09c-4.56,21.99-9.34,43.91-15.99,65.4c-2.76,8.93-1.94,18.5-3.22,27.73
			c-1.96,14.16-4.74,28.17-7.54,42.19c-2.69,13.45-1,26.34,4.93,38.78c2.64,5.54,4.75,11.36,6.78,17.16
			c3.74,10.66,7.95,21.23,10.67,32.16c2.96,11.85,9.74,21.89,13.86,33.13c1.41,3.86,2.82,7.73,4.7,12.87
			c0.78-5.57,0.06-9.82-0.82-13.98c-3.46-16.33-1.79-32.87-2.06-49.32c-0.06-3.71-0.54-6.77-2.77-10.08
			c-4.83-7.18-7.99-15.33-11.41-23.27c-3.09-7.18-5.79-14.52-8.81-21.73c-1.33-3.17-1.28-6.29-0.6-9.6
			c8.04,14.17,13.33,29.71,23.04,43.66c2.74-7.93,2.11-14.61-2.07-21.04c-3.64-5.59-5.48-12.04-7.56-18.44
			c3.88,6.89,7.75,13.78,12.31,21.87c4.57-15.2,6.6-29.38,5.74-44c2.9,13.14,1.14,26.13-0.94,39.07
			c-1.99,12.37-2.69,24.75-2.01,37.28c0.71,13.1-0.16,26.28,1.33,39.34c1.09,9.55,3.62,18.92,4.11,28.58
			c0.1,2.05,0.23,4.09,0.67,6.16c2.67-7.95,5.12-15.9,6.54-24.22c1.47,16.55-6.06,32.59-2.95,49.28c3.32-8.89,7.77-17.33,7.84-27.1
			c1.73,6.24,1.57,9.87-0.6,16.8c-1.39,4.45-2.6,8.98-4.41,13.25c-2.9,6.84-1.93,13.19,1.93,20.24c2.47-8.63,4.48-16.8,8.69-24.18
			c-1.32,11.39-5.87,22.3-4.92,34.05c2.31-7.64,3.54-15.57,7.47-22.56c1.43,0.44,1.6,1.29,1.33,2.1c-2.06,6.2-2.71,12.65-3.56,19.07
			c-0.04,0.33,0.02,0.79-0.17,0.97c-6.37,5.94-1.38,11.62,0.98,16.75c4.09,8.89,8.09,17.74,9.95,27.47c0.4-0.06,0.81-0.12,1.21-0.18
			c0.22-4.82,0.38-9.65,0.66-14.47c0.22-3.82,0.56-7.63,0.89-11.45c0.14-1.71,0.18-1.73,2.54-1.84c0.85-0.04,1.17-0.58,1.2-1.27
			c0.06-1.96,0.85-4.13-0.52-5.82c-2.45-3.02-3.04-6.6-3.62-10.21c-1.32-8.2-3.3-15.94-7.24-23.59c-4.38-8.51-5.34-18.57-6.08-28.17
			c-0.85-10.98-2.29-21.88-3.73-32.75c-2.06-15.45-2.07-30.86-1.64-46.36c0.65-23.32-1.3-46.6-1.64-69.91
			c-0.2-14.14,0-28.34,3.25-42.26c0.22-0.96,0.32-1.99,0.23-2.97c-2.24-23.85,4.11-46.95,6.26-70.42
			c0.59-6.47,2.36-13.31,10.04-15.94c1.78-0.61,1.49-2.51,1.25-3.94c-1.24-7.53-1.11-15.15-2.84-22.71
			c-2.03-8.84-0.44-17.89,3.38-26.31c1.66-3.66,4.28-6.41,8.38-7.19c2.67-0.51,3.33-1.72,3.18-4.47c-0.55-9.63-0.8-19.26,0.52-28.9
			c1.62-11.84,0.82-23.75-2.22-35.2c-4.42-16.64-4.01-33.53-4.96-50.45c-0.83-14.65,4.41-28.21,4.66-42.49
			c0.14-7.75,1.9-15.55-1.52-23.13c-1.1-2.43-0.95-5.29-0.11-7.88c1.46-4.53,0.47-8.88-0.57-13.26c-1.96-8.26-3.85-16.55-4.44-25.05
			c-1.96-28.38,0.65-56.57,3.46-84.76c0.36-3.61,2.05-6.66,3.98-9.59c1.73-2.61,1.52-4.65-0.72-7.06
			c-6.75-7.27-13.23-14.76-21.51-20.44c-2.29-1.57-4.66-3.56-4.58-6.78c0.27-10.97,2.72-21.09,11.9-28.32
			c1.84-1.45,3.99-2.4,6.29-2.96c8.86-2.15,16.06-7.12,22.52-13.32c2.28-2.19,4.36-4.51,7.91-4.73c1.45-0.09,3.01-1.19,2.91-2.89
			c-0.08-1.51-1.7-1.86-2.99-2.18c-5.82-1.45-10.41-5.04-14.96-8.65c-3.75-2.98-4.33-7.24-2.97-11.38
			c4.14-12.56,10.62-23.43,23.93-28.15c6.24-2.21,13.16-1.44,19.46-3.73c0.99-0.36,2.51-0.32,2.96,1.07c0.48,1.5-0.6,2.6-1.68,3.33
			c-4.54,3.08-9.17,6.01-12.82,10.2c-0.65,0.75-1.46,1.37-2.12,2.12c-4.65,5.19-4.16,7.5,2.03,10.34c2.86,1.31,5.81,2.56,8.37,4.35
			c5.4,3.77,10.86,2.33,16.42,0.83c1-0.27,2.14-0.66,1.85-1.89c-0.44-1.89-2.18-2.71-3.8-2.62c-2.76,0.15-5.28-0.1-7.63-1.63
			c-1.88-1.22-4.2-2.27-1.22-4.74c2.14-1.77-0.24-3.71,0.3-6.38c6.56,2.85,13.07,5.19,19.14,8.77c4.37,2.57,8.61,5.33,11.23,9.67
			c4.3,7.12,1.14,13.59-3.02,19.43c-2.46,3.46-1.92,4.99,1.38,7.53c9.09,7,17.16,21.1,9.83,34.61
			c-5.45,10.06-10.73,19.96-20.31,26.69c-2.28,1.6-1.79,3.09-0.72,5.07c7.9,14.69,5.65,23.34-4.85,32.99
			c-7.65,7.04-11.31,15.79-13.19,25.66c-0.62,3.24-0.65,6.34,0.9,9.24c2.58,4.83,0.49,9-0.72,13.76c-2.2,8.6-4.76,17.8,0.67,26.23
			c3.46,5.37,3.01,11.15,2.87,16.89c-0.08,3.08-2.54,1.73-3.36,0.43c-4.74-7.58-12.11-14.23-9.04-24.84
			c-2.84,1.97-3.93,3.21-5.38,7.21c-1.9,5.24-6.27,7.53-10.89,9.52c-1.2,0.52-2.9,0.58-3.73-0.57c-1.55-2.13,1.16-1.67,1.8-2.5
			c0.4-0.52,1.08-1.04,0.55-1.69c-0.36-0.44-1.1-0.83-1.63-0.78c-0.78,0.06-1.83,0.31-2.25,0.87c-1.36,1.81-2.25,4.7-5.17,3.38
			c-2.96-1.33-3.01-4.57-3.18-7.38c-0.68-11.03,1.67-14.89,11.47-19.73c5.2-2.57,10.7-4.62,15.11-8.65
			c1.96-1.79,2.81-3.54,1.58-6.11c-2.29-4.8-1.63-9.63-0.36-14.62c2.35-9.27,5.27-18.22,11.29-25.86c0.77-0.98,2.27-2.32,0.31-3.19
			c-2.22-1-3.57-4.01-6.33-3.34c-2.38,0.58-1.03,2.52-0.81,4.09c0.87,6.09-0.71,7.38-6.42,4.52c-3.96-1.98-6.87-1.46-9.78,1.48
			c-0.68,0.68-1.87,1.08-1.51,2.29c0.35,1.16,1.54,1.11,2.52,1.19c3.94,0.33,5.44,2.75,5.46,6.4c0,0.64-0.14,1.81-0.35,1.83
			c-4.76,0.67-3.25,5-4.44,7.66c-4.01,8.91-10.63,15.44-18.61,20.72c-2.85,1.88-7.96,10.84-7.34,13.9
			c2.29,11.27,0.1,13.95-2.57,27.93c-0.85,4.48,1.87,8.51,2.52,12.77c1.3,0.05,1.81-0.67,2.29-1.32c1.41-1.91,3.3-4.52,5.4-3.67
			c2.63,1.07,1.57,4.48,1.22,6.77c-0.47,3.04-1.73,5.97-2.86,9.62c4.79-2.45,6.88-7.4,11.89-9.82c-1.09,7.2-5.1,12.38-7.7,18.17
			c-2.77,6.18-7.68,11.6-7.47,18.97c0.03,0.94-0.49,2.19,0.79,2.52c0.63,0.16,1.57-0.35,2.17-0.82c1.04-0.8,2.09-1.68,2.85-2.73
			c6.05-8.39,14.35-14.63,21.43-22.15c0.72,8.21-8.53,10.2-10.78,16.59c1.9,1.55,3.52,0.04,5.2-0.24c1.27-0.21,2.71-1.1,3.54,0.54
			c0.74,1.45,0.39,2.95-0.68,4.19c-2.38,2.77-5.74,4.07-8.96,5.23c-3.57,1.28-7.02,3.1-10.91,3.44c-1.49,0.13-2.9,0.65-4.01,1.82
			c-1.3,1.38-1.76,3.11-0.85,4.58c1.22,1.99,2.68,0.21,3.8-0.44c6.7-3.88,14.27-5.49,21.36-8.34c3.07-1.23,4.63,0.56,4,3.53
			c-0.82,3.84-3.07,6.93-6.58,8.9c-6.65,3.75-13.38,7.33-20.78,9.41c-1.36,0.38-2.55,0.98-2.82,2.49
			c-1.42,8.03-1.92,16.09-0.58,24.19c0.14,0.84,0.46,1.71,1.47,1.71c1.48,0.01,1.84-1.25,2.23-2.34c1.91-5.4,4.56-10.33,8.46-14.59
			c2.78-3.04,6.61-4.92,8.91-8.53c1.38-2.16,3.72-1.77,5.89-1.01c1.4,0.49,2.25,1.33,2.24,2.91c-0.02,2.44-1.53,3.47-3.64,4.09
			c-2.83,0.83-3.77,2.85-3.61,5.72c0.19,3.51-1.16,5.65-5.18,5.64c-3.81-0.01-5.85,2.59-7.35,6.09c2.27,1.38,5.56-1.05,7.16,2.01
			c0.98,1.86,0.86,3.86,1.02,5.85c0.19,2.34-0.75,3.25-3.1,3.4c-2.82,0.18-5.67,0.91-8.45,0.18c-3.05-0.79-4.74,0.94-6.27,2.95
			c-1.68,2.22-0.89,4.84-0.53,7.23c0.22,1.45,1.7,1.27,2.88,0.9c1.27-0.4,2.51-0.95,3.81-1.17c1.87-0.32,4.15-1.67,5.55,0.37
			c1.49,2.17,0.89,4.88,0.25,7.28c-0.65,2.41-2.84,2.64-4.89,2.42c-4.58-0.51-5.61,1.75-4.73,5.7c0.11,0.49,0.15,0.99,0.19,1.49
			c0.57,6.55,0.53,6.47,6.48,3.8c1.46-0.66,3.62-2.61,4.78-0.28c1.53,3.07,1.33,6.5-0.89,9.44c-0.48,0.63-1.21,1.12-1.9,1.55
			c-2.48,1.56-6.81,1.13-7.5,4.26c-1.09,4.97-0.91,10.21-1.19,15.35c-0.03,0.56,0.3,1.39,0.73,1.66c0.89,0.57,1.51-0.26,2.03-0.88
			c2.15-2.53,3.85-5.45,6.54-7.52c1.23-0.94,2.62-1.66,4.17-1.22c1.92,0.55,1.45,2.43,1.64,3.8c0.74,5.28-1.34,9.28-6.28,11.14
			c-2.47,0.93-4.36,3.06-7.24,3.12c-1.54,0.03-2.18,1.41-2.18,2.88c-0.02,5.27-0.01,10.54-0.01,17.25c3.66-4.09,6.2-7.03,8.85-9.86
			c2.34-2.51,3.43-1.44,4.32,1.41c1.74,5.56-1.79,10.17-5.16,11.85c-10.22,5.11-6.62,12.81-5.69,20.87c2.73-2.09,4.91-4.1,7.4-5.57
			c3.67-2.17,5.13-1.33,5.58,2.74c0.69,6.18-2.16,9.89-8.58,11.13c-4.19,0.81-6.55,6.49-4.15,9.9c0.6,0.86,1.36,0.92,2.14,0.49
			c0.87-0.48,1.59-1.21,2.47-1.67c1.69-0.89,3.09-3.2,5.26-2.02c2.25,1.23,1.63,3.73,1.65,5.88c0.03,2.56-0.7,4.46-3.3,5.49
			c-7.07,2.81-7.05,2.86-10.91,9.42c1.28,1.29,2.09-0.19,2.96-0.61c8.28-4.03,16.74-7.42,26.05-8.08c3.13-0.22,4.2-1.45,3.99-5.04
			c-2.16-36.77-1.9-73.6-0.91-110.38c0.39-14.51,0.57-28.92-0.69-43.37c-0.67-7.66-0.06-15.37,1.9-22.81
			c2.08-7.9,2.24-15.7,0.82-23.72c-0.86-4.89-0.76-9.95-1.26-14.92c-0.94-9.2,3.16-16.06,9.78-21.84c1.86-1.63,4.21-2.76,5.31-5.18
			c0.36-0.8,0.95-1.47,1.91-1.1c0.87,0.34,1.27,1.27,1.05,2.06c-0.45,1.58-0.77,3.45-1.82,4.56c-9.61,10.23-9,22.96-8.12,35.38
			c0.6,8.51,1.17,16.82-0.37,25.3c-1.3,7.22-1.16,14.57-0.75,21.93c0.91,15.98-0.95,31.9-1.3,47.84
			c-0.44,20.3-0.19,40.62-0.12,60.93c0.04,11.8,0.13,23.6,0.56,35.39c0.16,4.28,1.46,8.5,2.12,12.77c0.47,3.01,4.01,1.96,5.91,5.1
			c-15.62,5.05-30.96,9.95-44.79,18.17c0.57,1.72,1.73,1.58,2.64,1.52c12.48-0.92,24.36,3.11,36.56,4.51
			c6.5,0.75,6.52,0.99,6.54-5.4c0.01-2.82-0.32-5.65-0.36-8.48c-0.04-3.01,2.31-4.05,4.58-4.43c2.86-0.48,2.44,2.29,2.57,3.81
			c0.45,5.29,0.89,10.62,0.74,15.92c-0.13,4.59-5.64,9.81-10.47,9.66c-8.77-0.28-17.58-0.57-26.12-3.23
			c-4.4-1.37-8.98-2.35-13.55-2.94c-5.52-0.71-6.12,0.47-6.54,7.59c-0.29,4.85,2.08,5.39,6.06,5.12c11-0.74,21.96-0.42,32.77,2.17
			c2.23,0.53,4.64,0.28,6.96,0.49c4.58,0.42,8.24-0.15,8.32-6.08c0.02-1.46,0.69-3.67,2.86-3.44c1.81,0.19,1.99,2.23,2.08,3.6
			c0.61,9.7-0.01,19.35-3.13,28.57c-0.91,2.69-2.51,6.63-7.25,4.63c-0.63-0.26-1.77,0.62-2.64,1.03c-2.94,1.38-5.87,1.75-9.18,1.16
			c-9.26-1.64-18.55-3.27-27.9-4.25c-12.71-1.33-15.06-13.32-7.76-20.91c-7.36-3.02-8.02-5.8-4.19-15.3
			c0.69-1.72,3.89-3.45,1.41-5.48c-4.41-3.59-9.59-3.4-12.16,0.31c-4.8,6.94-5.11,14.92-4.07,22.9c0.42,3.25,4.9,2.67,6.6,5.57
			c4.32,7.38,10.74,13.16,11.56,22.9c0.62,7.39,2.74,15.1,6.21,23.04c1.48-9.52-1.19-18.59,2.79-27.02
			c9.26,1.6,18.77,0.81,28.29-0.09c3.23-0.3,7.51-1.75,9.1,1.66c1.91,4.07-2.16,6.85-4.67,9.61c-1.89,2.07-4.8,0.64-7.32,1.7
			c2.3,3.54,1.99,7.5,2.43,11.43c2.5,22.24,1.03,44.56,1.74,66.83c0.5,15.68-1.23,31.18-3.64,46.67
			c-1.27,8.16-1.18,16.54-1.57,24.82c-0.29,6.32,0.02,12.69-0.63,18.97c-1.14,10.97,0.99,21.52,3.24,32.1
			c0.41,1.94,0.94,3.84,0.24,6.64c-3.27-3.88-2.26-8.57-4.5-12.79c-1.2,9.93-0.58,18.96,3.23,27.61c-3.13,0.68-2.38-2.07-3.96-2
			c-1,0.59-2.78,10.17-1.83,11.26c3.01,3.44,2.17,7.4,2.06,11.71c-3.57-1.48-1.79-4.76-3.27-7.5c-3.14,12.11-3.87,23.88-3.91,35.8
			c4.61-14.88,14.88-27.55,14.43-44.49c-0.31-11.83,2.88-23.75,4.37-35.65c0.85-6.77,1.82-13.56,2-20.36
			c0.2-7.64-4.32-14.23-5.83-21.55c-0.62-3-2.1-5.82-1.62-9.08c1.56,6.72,4.84,12.73,7.67,19.12c2.12-5.47,1.9-11.13,1.54-16.76
			c-0.27-4.32-0.23-8.64-0.2-12.9c0.13-17.04,4.12-33.72,3.56-50.8c-0.61-18.65-2.99-37.18-3.29-55.83
			c-0.04-2.78-0.01-5.56,0.27-8.37c2.66,11.13,3.63,22.51,5.32,33.78c2.3,15.3,4.25,30.73,2.8,46.09
			c-2.86,30.32-0.04,60.92-4.81,91.07c-2.71,17.1-5.34,34.17-6.98,51.41c-0.62,6.56-3.97,12.3-6.91,18.09
			c-4.81,9.49-9.89,18.88-11.65,29.58c-0.11,0.66-0.07,1.6-0.48,1.9c-8.59,6.5-7.03,16.75-8.7,25.41
			c-4.2,21.73-2.55,43.77-1.03,65.71c0.98,14.08,2.07,28.17,4.62,42.04c2.83,15.44,3.3,30.98,4.29,46.58
			c1.32,20.78,1.18,41.59,2.48,62.32c1.11,17.57,4.18,35.01,5.73,52.57c1.85,21.03,3.44,42.11,2.89,63.26
			c-0.6,23.11-1.41,46.22-2.14,69.33c-0.18,5.78,1.79,11.54-0.12,17.35c-0.85,2.57-1.99,4.93-3.49,7.14
			c-0.74,1.09-1.53,2.4-3.15,1.94c-4.44-1.27-7.65,1.12-10.97,3.41c-5.8,4-12.97,3.9-18.66-0.04c-2.33-1.61-2.18-3.89-2.17-6.25
			c0.07-31.16-0.3-62.32,0.36-93.47c0.36-16.82-2.98-33.12-4.75-49.64c-2.19-20.39-3.27-40.85-3.85-61.32
			c-0.44-15.52-3.59-30.77-3.78-46.27c-0.43-35.48-0.69-70.96-1.13-106.44c-0.09-7.49-0.64-14.97-0.96-22.46
			c-0.49-11.7,0.8-23.27,2.53-34.82c0.21-1.39,2.72-6.23-2.87-3.18c-1.51,0.82-1.87-1.02-2.22-1.97c-0.8-2.19-1.4-4.44-2.03-6.69
			c-5.45-19.43-14.17-37.66-20.98-56.59c-2.08-5.79-2.7-11.86-4-17.86c-0.6,0.2-0.97,0.23-1.19,0.42c-1.12,0.98,0.12,3.61-1.87,3.6
			c-1.86-0.01-2.36-2.22-2.82-3.72c-1.1-3.66-2.35-7.36-2.76-11.12c-1.29-11.63-5.52-22.39-10.61-32.6
			c-7.4-14.86-12.27-30.42-16.65-46.32c-4.4-16.01-9.9-31.71-14.71-47.61c-3.18-10.52-1.71-21.14,0.37-31.63
			c3.66-18.44,8.3-36.7,9.76-55.54c0.21-2.77,0.25-5.21-2.25-7.09c-0.75-0.56-1.33-1.55-1.64-2.46c-2.56-7.49-5.04-15-7.55-22.51
			c0.39-0.24,0.79-0.47,1.18-0.71c3.94,5.82,7.89,11.65,12.33,18.21c1.51-5.4,2.84-10.13,4.16-14.86c0.36-1.28-0.21-2.15-1.05-3.11
			c-4.22-4.82-4.9-11.04-6.36-17.04c3.61,3.98,6.74,8.23,8.36,13.87c4.54-5.92,1.83-11.64,0.04-18.16c2.74,3.2,3.82,3.27,4.33-0.51
			c1.38-10.23,3.76-20.31,4.6-30.62c0.14-1.72,0.78-3.44-1.82-3.64c-2.82-0.22-5.51-4.42-8.35-0.9c-2.73,3.39-5.86,6.33-8.8,9.48
			c-3.11,3.33-2.82,8.33-3.98,12.57c-2.92,10.67-7.09,20.77-12.27,30.49c-6.36,11.93-9.67,24.46-5.19,37.65
			c2.66,7.84,8.05,14.31,14.03,20.07c3.18,3.06,3.02,4.94-0.77,8.96c-3.06,3.24-4.88,0.61-6.38-1.37
			c-3.98-5.25-7.66-10.73-11.93-16.79c-0.31,4.14,0.93,7.43,0.97,10.76c0.23,20.38,5.25,40.25,6.59,60.47
			c1.8,27.28,7.43,53.98,11.62,80.86c3.46,22.19,5.41,44.56,9.12,66.64c4.86,28.92,3.44,58.07,5.94,87.02
			c1.28,14.87,4.58,29.56,6.56,44.38c2.2,16.47,3.77,33.02,5.91,49.5c1.7,13.02,4.3,25.94,5.7,38.99
			c3.31,30.91,8.7,61.55,11.76,92.5c1.23,12.41,3.22,24.74,5.74,36.97c2.28,11.11,2,22.54,4.2,33.64
			c6.52,32.94,9.85,66.44,17.45,99.19c1.02,4.41,1.32,8.95,0.17,13.38c-0.82,3.15-2.43,5.64-5.65,1.95
			c-1.88-2.16-3.14-1.06-4.39,0.43c-4.03,4.78-9.18,8.16-14.38,11.47c-9.84,6.26-18.17,14.63-28.43,20.29
			c-1.56,0.86-1.87,2.13-1.63,3.79c1.7,11.84,3.31,23.7,5.07,35.54c0.5,3.33,0.82,6.56-0.04,9.89c-0.9,3.51-1.57,6.69-6.5,4.23
			c-1.87-0.93-3.8,0.62-5.56,1.54c-7.6,3.97-14.21,9.66-22.36,12.71c-6.46,2.42-13.01,4.46-19.25,7.61
			c-6.81,3.44-13.85,6.27-18.83,12.34c-1.31,1.6-3.11,0.86-4.57,1.5c-9.49,4.17-19.91,4.98-29.63,8.04
			c-15.69,4.94-32.22,5.72-47.81,10.89c-4.47,1.48-9.3,0.26-13.88-0.13c-11.56-0.99-23.11-2.48-33.84-7.37
			c-2.8-1.28-5.41-2.97-8.1-4.47c1.82-2.03,4.04-2.58,6.73-2.32c4.11,0.39,8.24,0.51,12.36,0.66c1.08,0.04,3.15,0.17,2.73-1.19
			c-1.54-5.05,2.28-9,2.32-13.64c0.04-3.67,0.03-7.33,0.03-11c0-9.84,0-19.67,0-29.51c0.47,0,0.95,0.01,1.42,0.01
			c0.31,17.08,2.25,34.13,1.16,51.23c-0.24,3.73,0.54,4.83,4.14,4.36c12.14-1.58,24.49-0.88,36.39-5.15c9-3.23,9.33-2.53,7.97-12.13
			c-3.27-23.15-3.39-46.48-3.81-69.78c-0.18-10.29-0.03-20.58-0.03-31.87c2.29,10.71,1.31,20.58,1.82,30.36
			c1.25,23.76,2.95,47.47,5.79,71.09c0.14,1.15,0.03,2.49,1.24,3.07c2.37,1.12,2.61,1.06,2.51,2.91c-0.14,2.73,1.01,3.65,3.57,3.16
			c2.18-0.41,3.89-0.98,2.71-3.91c-0.61-1.5-0.74-3.25-0.82-4.9c-1.22-22.97,0.46-45.88,1.17-68.8c0.42,7.31,0.78,14.61,1.1,21.91
			c0.75,16.76,0.01,33.59,2.4,50.28c0.38,2.66,0.79,3.99,3.92,3.09c6.1-1.77,12.56-1.54,18.72-2.68c7.95-1.46,16.25-1.8,23.69-5.44
			c5.95-2.91,6.51-4.53,4.5-10.66c-0.26-0.79-0.43-1.61-0.56-2.43c-2.93-18.57-6.26-37.09-8.01-55.83
			c-0.44-4.69-0.5-9.43,1.35-13.98c-0.1,9.75,2.15,19.13,4.11,28.52c3.05,14.6,6.33,29.16,9.5,43.74c0.2,0.94,0,2.31,1.38,2.2
			c2.06-0.15,3.79-1.29,5.08-2.87c0.95-1.17-0.28-1.72-1.03-2.27c-2.71-1.97-3.42-4.82-3.45-7.92c-0.09-8.66-0.11-17.32-0.17-25.98
			c-0.16-25.49-1.23-50.96-0.64-76.45c0.05-1.98-0.58-4.25,1.43-5.97c1.69,1.47,1.21,3.24,1.29,4.83c0.16,3.32,0.07,6.66,0.34,9.98
			c1.47,18.23,3.35,36.44,4.44,54.69c0.86,14.44,0.88,28.94,1.09,43.42c0.05,3.33,0.97,3.1,3.42,1.85c2.25-1.15,2.47-2.12,1.11-4.16
			c-1.5-2.25-1.89-4.9-1.99-7.63c-0.66-17.98-1.53-35.95-2.07-53.93c-0.35-11.7-1.74-23.38-0.91-36.54
			c4.42,29.91,5.18,58.73,8.35,87.38c2.21-14.19-0.47-28.34-0.47-43.64c2.24,3.9,1.53,7.19,2.1,10.21
			c2.13,11.26,4.2,22.54,5.82,33.89c0.84,5.86-0.37,6.53-5.73,4.32c-0.35,2.29-1.61,5.28,0.23,6.51c2.07,1.38,4.8-0.55,6.85-1.92
			c2.01-1.34,5.13-1.63,4.64-5.53c-1.38-11.06-2.57-22.16-3.56-33.27c-0.54-6.14-1.86-12.31-0.56-18.52
			c1.81,13.75,4.83,27.27,7.01,40.93c1.7,10.62,1.66,10.63,11.11,7.48c0.32-0.11,0.62-0.28,0.94-0.33c3.01-0.39,3.75-2.06,3.14-4.91
			c-6.54-30.59-9.84-61.79-17.58-92.17c-11.34-44.52-15.13-90.2-20.06-135.67c-3.04-27.97-2.23-56.21-5.16-84.22
			c-2.2-21.02-3.13-42.18-5.56-63.17c-3.12-26.98-4.64-54.08-7.57-81.06c-2.37-21.85-5.11-43.65-7.55-65.49
			c-1.91-17.04-4.12-34.04-6.35-51.04c-1.74-13.22-0.82-26.64-1.64-39.93c-0.79-12.87,1.76-25.57-0.82-38.7
			c-2.23-11.37,4.17-22.25,9.45-32.58c-3.31,12.08-8.05,23.95-4.65,37.55c2.26-5.63,3.71-11.05,6.71-15.75
			c-1.69,7.14-3.82,14.12-5.65,21.18c-1.82,7.02-0.77,14.08-0.13,21.15c3.06-9.52,5.83-18.97,10.8-27.61
			c-2.17,9.9-4.91,19.61-7.67,29.32c-1.87,6.61-4.24,13.17-1.47,21.41c4.05-9.77,6.49-18.98,11.71-27.57c1,2.12,0.23,3.15-0.13,4.2
			c-3.19,9.46-6.18,18.99-9.7,28.33c-3.87,10.29,0.48,19.79,1.25,29.63c0.43,0.04,0.85,0.07,1.28,0.11
			c2.47-7.6,4.95-15.19,7.42-22.79c-0.83,6.51-2.25,12.83-4.34,18.92c-3.02,8.79-3.5,12.91-1.01,18.44
			c4.3-9.29,5.93-19.61,12.14-27.93c-2.44,11.89-4.83,23.76-9.79,34.88c-1.28,2.88-1.72,5.62-1.23,8.7
			c1.9,12.16,3.68,24.35,5.53,36.52c0.67,4.42,0.07,9.06,2.47,14.29c4.54-13.28,8.76-25.63,12.98-37.99
			c-1.67,11.37-4.95,22.26-8.44,33.11c-2.11,6.58-6.07,12.94-2.76,21.12c4.76-15.27,10.39-29.39,19.02-42.13
			c0.13,1.42-0.17,2.67-0.62,3.87c-5.97,15.69-11.4,31.55-15.77,47.77c-1.92,7.14-1.45,14.11,0.62,22.32c2-5.35,3.56-9.51,5.1-13.68
			c1.5-4.05,2.94-8.13,4.46-12.17c1.51-3.99,2.8-8.12,6.32-11.84c-4.15,11.61-7.61,22.7-12.07,33.38
			c-4.4,10.52-3.39,20.89-1.1,32.99c6.22-13.9,11.91-26.6,17.59-39.31c-2.93,12.39-7.73,24.1-13.78,35.08
			c-5.56,10.1-1.33,19.48-1.17,29.19c0.42,0.09,0.84,0.17,1.26,0.26c7.42-15.78,14.83-31.56,22.25-47.34
			c-2.87,12.59-7.3,24.55-12.83,36.06c-3.69,7.68-5.9,15.85-8.66,23.83c-0.72,2.09-0.39,4.27,1.23,6.5
			c8.59-18.29,16.35-36.77,27.67-53.37c-0.02,2.16-0.53,4.08-1.27,5.89c-7.7,18.75-15.32,37.53-23.22,56.2
			c-3.99,9.43,0.15,18.41,0.46,27.68c1.09-0.76,1.62-1.56,2.02-2.42c9.2-20.13,18.56-40.19,28.57-59.94
			c1.33-2.63,2.69-5.34,2.42-8.52c-1.38-16.09-3.07-32.14-5.41-48.12c-2.38-16.28-6.32-32.33-6.99-48.85
			c-0.38-9.15-1.26-18.28-1.5-27.42c-0.3-11.7-1.12-23.31-4.12-34.65c-4.91-18.52-4.06-37.71-6.85-56.47
			c-1.73-11.67-4.89-23.24-5.41-34.94c-1.08-24.14-7.64-47.67-7.31-71.92c0.16-11.85-3.08-23.49-3.18-35.28
			c-0.31-35.62-1.58-71.18-4.54-106.68c-0.09-1.12,0.53-2.69-0.68-3.23c-4.43-1.98-5.23-6.12-6.34-10.09
			c-0.77-2.74-2.35-3.67-5.19-3.29c-2.84,0.38-3.58,1.77-3.3,4.42c0.3,2.81,0.01,5.68,0.43,8.46c0.51,3.41-0.69,5.74-3.33,7.74
			c-4.78,3.62-10.26,5.39-16.06,6.36c-10.96,1.83-21.99,3.26-32.87,5.49c-7.15,1.46-11.69-0.08-13.01-7.06
			c-1.22-6.41-4.67-9.6-10.63-10.8c-4.25-0.85-8.64-1.76-12.57,0.74c-3.56,2.27-1.12,5.78-1.16,8.75
			c-0.06,5.47-3.13,10.19-7.84,10.68c-12.82,1.32-25.71,2.43-38.45-0.6c-4.91-1.17-9.56-2.91-9.44-9.5
			c0.04-2.27-0.93-4.55-1.41-6.82c-1.38-6.52-1.38-6.42-12.35-6.43c-4.85-0.01-4.38,3.6-4.96,6.54c-0.58,2.97-1.46,5.78-3.23,8.29
			c-4.14,5.86-9.57,3.84-14.92,2.55c-4.59-1.11-5.45-0.42-4.48,4.18c0.7,3.3,0.89,6.55,0.79,9.9c-0.24,7.99-0.59,16-0.29,23.97
			c0.68,18.37-0.79,36.55-3.31,54.74c-1.85,13.32-3.47,26.75-3.16,40.26c0.3,13.48-0.18,26.91-1.86,40.29
			c-1.8,14.35-4.35,28.59-5.52,43.03c-1.14,14.08-2.08,28.22-5.11,42.06c-2.61,11.92-4.37,23.9-3.76,36.13
			c1.02,20.24-1.6,40.15-5.18,60.01c-5.42,30.1-8.74,60.49-11.68,90.91c-0.46,4.73-1.91,9.76-0.3,14.37
			c8.8,25.14,14.83,51.03,21.35,76.79c1.52,6,2.68,12.1,4.01,18.15c2.14-8.68,3-16.84,1.38-25.93
			c-5.19-29.01-10.1-58.03-17.81-86.52c-0.85-3.14-1.96-6.52-0.52-11.19c4.08,16.81,9.8,31.85,13.32,47.56
			c3.47,15.5,6.13,31.15,8.82,46.8c3.96-14.9,4.16-14.95,0.76-28.76c-4.69-19.09-6.44-38.74-11.12-57.83
			c-1.04-4.26-2.74-8.49-2.4-13.01c10,22,12.08,46.01,18.39,69.13c1.3-5.89,4.42-11.95,2.75-17.73
			c-4.92-17.01-7.66-34.41-10.65-51.78c-2.08-12.09-3.97-24.21-6.43-36.26c9.63,24.58,12.31,50.97,19.75,76.13
			c2.87-10.35,6.53-20.55,1.05-31.05c-0.67-1.29-0.79-2.88-1.08-4.35c-3.34-17.15-6.77-34.28-9.96-51.45
			c-1.36-7.35-3.96-14.47-4.45-22.73c10.16,26.35,13.19,53.69,19.85,80.2c1.46-4.32,1.92-8.6,2.99-12.73
			c1.81-7.03,2.01-13.56-2.48-19.91c-1.96-2.76-2.81-6.37-3.89-9.68c-3.69-11.29-4.84-23.08-6.69-34.73
			c-2.16-13.69-4.15-27.42-6.21-41.13c10.58,27.28,10.79,57.23,22.24,84.37c1.26-7.13,1.9-14.21,2.47-21.29
			c0.29-3.64,0.9-7.3-0.54-10.87c-7.94-19.63-11.16-40.36-13.96-61.15c-1.14-8.46-1.68-17-2.5-25.51c0.51-0.09,1.02-0.17,1.53-0.26
			c5.7,25.11,9.5,50.68,16.9,75.41c1.07-10.45,4.16-20.71,1.32-31.26c-1.81-6.74-3.4-13.57-4.66-20.44
			c-3.38-18.48-5.17-37.27-10.77-55.32c-0.57-1.84-0.61-3.83-0.9-5.76c12.38,22.87,13.58,48.38,18.93,72.87
			c0.93-9.32,0.57-18.41-1.25-27.66c-3.31-16.81-5.47-33.84-8.26-50.75c-1.13-6.82-2.67-13.57-4.02-20.35
			c7.15,18.37,9.72,37.86,14.66,56.78c1.65-13.59,3.25-27.13-0.51-40.59c-1.07-3.83-2.23-7.64-3.06-11.53
			c-4.2-19.71-4.43-39.98-8.49-59.71c-0.16-0.77-0.27-1.68,1.3-2.51c7.92,17.83,7.1,37.42,11.55,55.85
			c0.34-10.38,1.07-20.65,1.69-30.94c0.61-10.19-2.47-20.12-3.36-30.23c-0.89-10.04-2.23-20.05-1.48-30.22
			c2,13.56,4.01,27.12,6.01,40.68c5.02-28.17-3.74-55.64-3.18-83.55c4.79,12.51,3.92,25.98,6.38,39.66
			c3.27-9.59,0.6-18.24-0.31-26.93c-0.91-8.73-1.65-17.47-2.46-26.2c0.41-0.04,0.82-0.08,1.23-0.12c2.06,9.21,2.99,18.64,4.9,27.99
			c1.99-7.45,2.37-15.11,4.73-22.37c-1.19,17.26-3.33,34.43-4.2,51.66c-1.01,19.95-1.27,39.91-3.48,59.81
			c-2.16,19.41-1.16,38.9-0.27,58.36c0.78,17.02-2.34,33.88-1.99,50.9c0.17,8.31,0.35,16.64-0.46,24.97
			c-1.38,14.25-2.4,28.54-3.46,42.81c-1.32,17.75-2.43,35.51-5.15,53.12c-2.16,13.96-3.84,28.03-6.88,41.8
			c-2.97,13.45-2.39,27.36-6.48,40.65c-2.6,8.44-2.38,17.5-4.2,26.22c-3.32,15.91-5.23,32.1-8.25,48.07
			c-3.28,17.32-5.96,34.68-7.19,52.27c-0.99,14.1-1.46,28.25-3.7,42.24c-1.54,9.67-3.24,19.31-5.05,28.93
			c-2.65,14.06-3.56,28.33-5.24,42.5c-2.19,18.45-5.08,36.83-7.74,55.22c-1.61,11.17-2.81,22.43-5.18,33.44
			c-2.29,10.61-2.85,10.49,6.58,16.11c0.29,0.17,0.58,0.34,0.85,0.52c2.5,1.71,3.78,1.28,4.26-1.94c1.14-7.74,2.42-15.46,3.84-23.16
			c1.34-7.26,2.91-14.48,4.39-21.72c-1.08,13.68-2.48,27.25-4.35,40.73c-1.14,8.24,0.41,13.94,7.67,17.9
			c1.24,0.68,2.09,2.61,3.76,1.81c1.28-0.62,1.1-2.31,1.28-3.62c1.52-11.04,2.95-22.1,4.58-33.13c1.18-8.01,2.6-15.97,3.92-23.96
			c0.14,9.07-0.44,18.03-1.84,26.87c-1.92,12.18-0.42,24.63-3.2,36.71c-0.34,1.46,0.05,2.66,1.09,3.63
			c2.83,2.67,5.69,5.29,9.11,8.46c2.54-27.34,6.08-53.59,9.74-79.83c0.8,8.55-0.3,17-0.8,25.47c-1.04,17.4-3.96,34.61-3.69,52.18
			c0.1,6.44,2.9,9.09,6.87,12.2c0.93,0.72,1.96,1.48,3.17,1.07c1.41-0.48,1.16-1.86,1.14-3c-0.22-13.52,1.12-26.96,2.24-40.39
			c1.52-18.11,0.17-36.33,2.27-54.6c0.12,0.83,0.25,1.47,0.3,2.12c1.97,28.47,1.08,56.93-0.5,85.38c-0.21,3.81-0.53,7.62,0.32,11.39
			c0.49,2.17,9.21,7.31,11.27,6.72c1.58-0.45,1.22-1.74,1.29-2.85c1.44-20.93,3.75-41.81,3.18-62.85
			c-0.19-6.82-0.03-13.65-0.03-20.48c1.44,4.27,1.9,8.53,2.06,12.8c0.88,22.99,0.56,45.96-2.05,68.84c-0.6,5.28,0.83,8.7,6.38,9.78
			C886.6,1270.43,888.35,1271.11,887.94,1273.6z M1113.46,1005.54c-9.8,23.86-21.22,46.91-33.75,69.46
			c-4.26,7.66-4.87,6.72-1.88,12.08c9.52-17.66,20.55-34.2,32.44-50.17c-8,18.26-18.81,34.98-27.95,52.61
			c-3.83,7.39-4.51,11.61-0.43,19.19c10.32-17.61,19.89-35.45,33.33-50.77c-0.21,1.47-0.7,2.82-1.36,4.06
			c-5.35,9.96-10.88,19.82-16.04,29.88c-3.49,6.81-5.78,15.2-11.67,19.47c-6.35,4.6-2.49,8.42-2.14,12.74
			c0.13,1.65,0.46,3.3,0.79,4.93c1.16,5.65,2.36,11.28,3.69,17.63c7.14-14.95,17.33-26.51,26.69-38.66
			c-6.64,11.71-14.05,22.93-20.67,34.6c-1.97,3.47-6.46,5.81-5.55,10.88c0.85,4.74,1.52,9.53,2,14.32c0.27,2.74,1.57,2.56,3.31,1.61
			c4.54-2.47,8.92-5.2,12.97-8.44c0.6-0.48,1.22-1.21,1.39-1.92c2.17-9.52,10.78-14.34,15.49-22c-2.85,7.14-8.8,12.43-11.99,20.78
			c7.95-4.59,14.72-8.81,21.77-12.47c5.44-2.82,6.33-6.76,5.15-12.33c-2.07-9.76-3.87-19.56-6.48-29.21
			c-4.78-17.68-6.15-36.03-10.23-53.86c-1.41-6.15-3.16-12.21-4.26-18.46c-1.52-8.64-1.69-17.55-4.68-25.92
			c-2.14-12.87-6.31-25.36-7.27-38.46c-0.13-1.76-1.69-2.31-3.03-2.95l0.05,0.01c2.24-1.65,2.02-3.94,1.69-6.31
			c-0.84-6.1-1.61-12.21-2.42-18.31c-0.6-4.47-1.23-8.94-1.84-13.42c-2.04,0.39-2.26,1.49-2.64,2.36
			c-8.19,18.59-18.32,36.12-28.97,53.37c-0.57,0.92-0.61,2.65-2.19,2.17c-1.68-0.51-1.99-2.16-1.79-3.72
			c0.33-2.53,1.62-4.7,2.93-6.83c9.71-15.91,19.43-31.82,29.16-47.72c1.58-2.58,2.87-5.06,2.24-8.4c-3.75-19.8-4.21-40-7.14-59.91
			c-1.24-8.42-2.3-16.86-3.51-25.77c-0.87,0.78-1.38,1.02-1.54,1.4c-8.4,20.23-17.34,40.22-26.58,60.09c-1.4,3-4.64,5.27-4.43,8.75
			c0.5,8.01,1.48,16,2.26,23.99c8.54-17.47,17.58-34.28,26.65-51.12c0.33,2.27-0.58,4.1-1.42,6.03
			c-7.71,17.68-17.12,34.6-23.55,52.85c-1.64,4.64,0.3,9,0.74,13.58c8.92-14.82,18.36-29.02,26.45-44.09
			c-0.08,1.87-0.53,3.58-1.17,5.21c-5.58,14.27-13.19,27.51-21.4,40.37c-3.05,4.77-4.24,9.6-3.63,15.11
			c0.78,6.93,1.02,13.95,2.19,20.81c0.76,4.47-0.01,9.23,2.17,14.36c9.78-16.41,17.18-33.31,28.78-47.61
			c-0.34,1.52-1.28,2.69-1.93,4c-8.01,16.24-15.94,32.52-23.97,48.74c-1.15,2.33-1.68,4.65-1.41,7.2
			c0.78,7.43,1.25,14.92,2.42,22.29c0.71,4.48,0.06,9.23,2.3,14.04c13.12-16.8,17.98-37.68,30.09-54.49
			c-1.15,5.25-2.88,10.21-4.63,15.15c-5.81,16.44-10.93,33.23-24.24,45.71c-0.61,0.57-0.89,1.87-0.76,2.76
			c0.55,4.04,1.3,8.04,1.99,12.1c1.82-0.43,2-1.76,2.51-2.73c10.26-19.25,21.49-37.94,32.89-56.52
			C1110.48,1007.99,1111.41,1006.2,1113.46,1005.54z M781.32,332.34l-0.12-0.12c-1.56,3.15,1.67,3.83,2.88,5.54
			c2.27,3.21,3.76,3.75,5.24-0.82c5.56-17.22,15.22-32.11,26.77-45.88c1.4-1.67,2.84-3.27,4.89-4.18c0.91-0.4,1.91-1.02,2.75-0.17
			c0.91,0.91,0.13,1.82-0.4,2.66c-1.89,2.94-3.7,5.93-5.68,8.8c-9.9,14.31-17.63,29.78-24.28,45.91
			c9.61-8.89,13.99-21.99,24.04-30.53c-1.65,4.03-3.68,7.77-5.83,11.45c-1.66,2.85-2.75,5.13,2.22,5.48c1.44,0.1,3.11,1.46,4.08,2.7
			c2.84,3.64,3.95,1.96,5.72-1.08c2.5-4.27,4.16-9.1,7.87-12.67c-1.51,4.58-3.17,9.08-5.28,13.36c-2.82,5.71-3.94,12.41-9.68,16.52
			c-1.32,0.94-1.43,3.18,0.62,4.15c1.96,0.94,2.39-0.66,3.11-2.1c5.37-10.66,11.83-20.67,18.14-31.19c1.21,2.31-0.03,3.71-0.69,5.08
			c-4.13,8.54-8.53,16.95-12.42,25.58c-0.64,1.41-3.74,3.9,0.19,5.75c3.72,1.74,4.12-1.13,5.15-3.33
			c2.99-6.38,5.62-12.94,9.52-18.87c-1.25,6-4.24,11.4-5.61,17.37c-1.82,7.91-1.97,7.74,5.89,10.02c3.48,1.01,5.36,0.86,7.29-3.01
			c2.1-4.2,3.5-9.04,7.8-13.45c-1.13,6.45-3.22,11.31-5,16.27c-0.78,2.15-0.18,3.54,2.13,4.11c2.5,0.61,3.37-0.67,3.42-2.9
			c0.06-2.67-0.04-5.34,0.14-8c0.25-3.7,2.19-7.19,5.77-7.09c6.79,0.2,8.45-4.24,10.36-9.05c0.52-1.31,0.73-2.92,2.68-3.93
			c-0.58,2.21-1.06,4.1-1.58,5.97c-1.84,6.64-1.69,6.73,5.3,6.25c2.23-0.15,3.24-1,3.76-3.12c0.49-2,1.42-3.89,2.16-5.83
			c0.16,4.58-0.7,8.95,2.38,12.82c0.43,0.54,0.18,1.62,0.22,2.45c0.21,4.13,0.37,8.27,0.65,12.4c0.08,1.17-0.51,3.18,1.58,2.94
			c2.06-0.23,0.88-2.11,0.97-3.28c0.7-8.68,1.36-17.37,2.03-26.05c0.5,0,1,0,1.51-0.01c2.9,8.23,3.98,16.98,2.41,25.43
			c-1,5.38,0.36,5.77,4.56,5.27c0.99-0.12,2-0.07,3,0.01c2.28,0.19,3.34-0.66,3.32-3.1c-0.05-8.64,1.06-17.17,3.09-25.96
			c1.95,6.2,1.83,12.26,1.65,18.34c-0.34,11.66-0.32,11.66,11.32,12.72c7.1,0.64,7.52,0.21,6.54-6.76
			c-1.24-8.83,0.1-11.06,8.67-13.1c2.79-0.66,3.65-1.6,3.64-4.62c-0.01-3.86-1.1-8.25,2.81-12.02c1.2,4.52,2.53,8.43,1.65,12.6
			c-0.39,1.85-0.27,2.59,1.87,2.96c5.91,1.01,5.74,1.13,5.89-5.13c0.09-3.81,0.58-7.63,1.2-11.39c0.19-1.16,1.13-2.48,2.59-2.8
			c0.31-0.07,1.08,0.48,1.07,0.73c-0.17,5.6,3.41,11.4,0.73,16.61c-3.18,6.2,1.51,5.74,4.6,7.4c0.81-2.67,0.48-4.94,0.1-7.22
			c-0.71-4.31-0.47-8.64-0.23-12.96c0.09-1.58,0.73-3.08,2.55-3.17c1.53-0.07,2.7,1.33,2.69,2.5c-0.03,4.26,2.81,7.66,2.92,11.99
			c0.15,5.62,1.52,11.19,2.18,16.8c0.32,2.72,1.68,2.75,3.8,2.18c2.73-0.73,2.4-2.69,2.25-4.74c-0.52-7.3-1.01-14.6-1.42-21.91
			c-0.07-1.21-0.55-3.05,1.23-3.35c1.69-0.29,1.83,1.37,2.31,2.65c2.49,6.6,3.84,13.41,4.27,20.43c0.17,2.71,0.39,4.85,4.22,4.36
			c4.19-0.54,2.42-3.11,2.19-5.15c-0.79-6.83-1.78-13.66,0.08-21.59c2.52,8.11,4.78,15.12,6.84,22.2c0.6,2.08,1.64,2.67,3.61,2.3
			c2.04-0.38,2.18-1.82,1.96-3.4c-0.46-3.29-1.05-6.56-1.5-9.85c-1.28-9.22-2.63-18.44-1.38-27.77c0.16-1.22,0.01-3.07,1.7-3.19
			c1.73-0.13,1.75,1.68,2.04,2.92c0.99,4.2,1.51,8.57,3.02,12.58c2.74,7.3,3.84,14.96,5.56,21.34c0.77-13.82,1.59-28.73,2.42-43.64
			c0.59-0.04,1.18-0.09,1.78-0.13c2.37,6.18,4.9,12.3,5.97,18.93c0.41,2.54,1.76,3.88,4.5,3.35c2.97-0.57,1.71-2.72,1.58-4.36
			c-0.28-3.66-2.39-7.11-1.51-11.63c4.4,3.36,4.83,8.09,6.35,12.1c0.75,1.98,1.31,4,3.3,4.61c3.97,1.22,5.49,4.01,5.81,7.76
			c0.21,2.41,1.44,3.28,3.68,2.68c2.59-0.69,1.49-2.48,1.05-4.01c-2.12-7.36-4.22-14.73-5.13-22.37c-0.13-1.06-0.73-2.5,0.71-3.09
			c1.68-0.68,2.34,0.76,3.01,1.9c3.37,5.75,6.16,11.77,8.35,18.05c0.59,1.68,0.7,3.46,3.42,3.8c-1.2-6.06-2.61-11.69-3.37-17.39
			c-0.75-5.65-2.68-11.31-0.91-17.8c2.27,3.15,3.59,6.1,4.76,9.15c2.32,6.03,4.76,12.01,7.09,18.03c1.51,3.92,3.49,4.15,6.52,1.34
			c4.77-4.44,6.84-13.71,4.09-19.59c-0.2-0.42-0.46-1.09-0.77-1.14c-3.84-0.62-3.38-4.03-4.32-6.52
			c-3.9-10.27-3.98-21.53-8.78-31.64c-5.48-11.54-11.74-22.83-14.13-35.64c-0.2-1.05-0.98-2.51-1.84-2.82
			c-9.07-3.25-15.63-10.81-25.28-13.49c-11.11-3.08-21.69-7.95-33.61-7.18c-6.71,0.43-9.56,3.89-8.29,10.82
			c1.88-2.41,3.57-4.63,5.32-6.81c0.75-0.93,1.73-1.85,2.98-1.2c1.26,0.66,1.02,2.11,0.65,3.14c-1.69,4.75-4.12,9.09-7.88,12.55
			c-0.59,0.54-1.83,1.32-2.12,1.1c-3.37-2.46-3.78,0.7-5.03,2.44c-0.67,0.93-1.5,1.81-2.42,2.47c-1.32,0.94-2.93,2.53-4.43,1.39
			c-1.73-1.32-0.73-3.38,0.12-5.01c0.61-1.17,1.47-2.22,2.25-3.29c2.31-3.18,4.64-6.34,6.97-9.52c-1.31-0.85-2.25-0.24-3.2-0.09
			c-4.58,0.7-7.99,1.69-8.88,7.76c-0.84,5.78-4.85,10.71-10.54,14.89c0.44-8.08,6.55-12.41,9.26-18.82
			c-5.27,0.29-9.03,1.54-10.71,6.77c-1,3.12-2.76,6.09-5.22,8.44c-2.3,2.2-4.76,6.75-7.71,4.77c-3.36-2.25-0.38-6.3,1.28-9.31
			c1.27-2.32,4.22-5.07,3.68-6.75c-1-3.15-4.97-0.28-7.44-1.53c-2.7-1.36-3.58-0.09-4.39,2.56c-1.11,3.62-2.99,7.02-4.59,10.49
			c-0.41,0.89-0.96,1.91-2.13,1.81c-1.55-0.13-1.51-1.54-1.74-2.64c-0.88-4.25,0.95-7.78,3.02-11.25c1.04-1.74,3.08-3.32-0.49-4.99
			c-2.81-1.31-4.61-2.26-5.97,1.61c-0.87,2.47-2.58,4.64-3.92,6.94c-0.67,1.13-1.33,2.76-2.9,2.11c-1.52-0.63-0.73-2.37-0.62-3.58
			c0.28-2.93,1.99-5.22,3.73-7.48c0.93-1.21,2.91-2.52,0.89-4.15c-1.92-1.55-3.65-0.81-5.04,1.2c-1.04,1.5-2.31,2.84-3.55,4.18
			c-0.74,0.79-1.49,2.23-2.79,1.24c-1.11-0.84-0.6-2.34,0.05-3.2c1.52-2.01,3.3-3.81,5.31-6.07c-4.63-1.03-8.19-1.16-10.21,3.39
			c-0.32,0.71-1.05,1.31-1.72,1.78c-1.05,0.75-2.33,1.89-3.51,0.55c-1.36-1.55,0.25-2.72,1.04-3.88c0.85-1.24,3.5-0.05,3.6-2.81
			c-3.86,0.09-7.46-1.03-11.27-1.29c-4.14-0.28-8.93,0.23-12.34-2.86c-2.97-2.69-5.28-1.84-7.92,0.12
			c-4.8,3.57-9.42,7.45-14.53,10.51c-7.25,4.34-14.52,8.74-22.78,11.15c-1.71,0.5-5.98,1.34-2.52,4.26
			c3.05,2.57,6.01,5.7,10.36,7.16c0.22-3.14,0.36-6.1,0.69-9.02c0.11-0.97,0.82-2.03,1.93-2.01c1.38,0.03,1.12,1.32,1.3,2.26
			c0.5,2.7,0.14,5.5-0.69,7.9c-1.63,4.72,1.06,7.09,4.05,9.59c0.93,0.77,1.99,1.56,3.12,1.12c1.29-0.5,0.97-1.98,1.07-3.1
			c0.58-6.47,1.09-12.94,1.69-19.41c0.17-1.77,0.22-3.7,2.63-4.78c0.34,1.51,0.99,2.92,0.92,4.29c-0.45,8.45,0.47,17.01-1.76,25.32
			c-1.05,3.91,2.54,4.83,4.36,5.47c2.63,0.93,2.04-2.17,2.23-3.76c0.7-6.11,1.02-12.28,1.99-18.35c0.68-4.25,0.97-8.68,3.14-12.64
			c-0.23,9.48-0.39,18.95-1.5,28.32c-0.8,6.72,0.5,11.71,6.99,14.57c1.3,0.57,2.65,1.63,2.39,2.83c-0.38,1.79-2.41,1.31-3.79,1.43
			c-0.94,0.08-1.96-0.23-2.9-0.53c-10.45-3.39-19.79-8.5-26.9-17.14c-4.42-5.38-8.95-10.66-13.33-16.08
			c-1.68-2.08-2.94-2.27-4.65-0.03c-2.22,2.91-4.82,5.52-7,8.45c-10.35,13.96-17.91,29.63-26.45,44.64
			c-6.03,10.61-12.84,20.58-19.6,30.65c-0.79,1.18-2.6,3.04-0.84,3.73C774.48,329.8,776.89,333.88,781.32,332.34z M813.38,486.23
			c2.37-7.47,2.88-15.29,5.66-22.6c-0.39,5.22-1.03,10.41-1.73,15.58c-0.73,5.44-1.42,10.89-2.28,16.3
			c-1.45,9.1-1.4,12.35,0.58,15.01c2.51-14.14,5.01-28.16,7.5-42.18c-0.04,19.9-3.89,39.46-3.47,59.34c1.83-7.2,4.2-14.25,4.5-21.78
			c0.45-11.31,0.99-22.63,2.72-33.85c1.55-10.02,3.39-20.03,4.22-30.12c1.89-23.05,2.12-46.23,5.01-69.21
			c0.21-1.68,0.36-3.42-2-3.84c-7.97-1.42-15.06-5.07-22.23-8.59c-4.44-2.18-5.68-4.86-3.63-9.55c1.2-2.75,2.53-5.43,3.82-8.14
			c0.86-1.82,1.11-3.49-0.84-4.84c-1.94-1.34-3.86-1.29-5.38,0.43c-2.09,2.36-3.92,4.95-5.9,7.4c-1.47,1.82-3.08,4.09-5.68,3.31
			c-3.57-1.07-3.87,0.68-4.05,3.4c-0.73,11.14-3.53,21.97-5.23,32.97c-2.51,16.28-5.35,32.43-5.18,49
			c0.19,18.83-2.29,37.5-4.51,56.16c-1.64,13.84-2.77,27.79-6.82,41.22c-2.68,8.91-6.77,17.42-8.49,26.59
			c-4.58,24.45-10.62,48.65-12.96,73.5c-0.68,7.15-1.91,14.29-0.92,21.62c2.6-4.81,6.02-9.6,6.6-14.71
			c0.87-7.75,1.97-15.49,2.79-23.25c0.42-3.94,1.3-7.83,1.97-11.75c0.99,10.29-0.84,20.33-1.85,31.57
			c6.3-6.23,10.99-11.5,11.69-19.76c0.78-9.32,2.82-18.53,5.79-28.76c-0.47,10.46-0.94,19.62-1.25,28.79
			c-0.05,1.5-1.13,4.45,2.08,3.75c2.34-0.52,6.46,0.37,6.22-3.98c-0.39-7.03,0.36-13.95,1.26-20.97c1.79,6.12,0.84,12.28,0.71,18.37
			c-0.07,3.11,1.13,4.06,3.92,4.35c2.81,0.3,5.55-0.72,8.4-0.01c3.02,0.75,6.09,0.86,7.16-3.64c0.08,4.76,2.75,7.15,6.24,9.01
			c2.13,1.14,2.61,3.54,1.66,5.2c-1.38,2.41-3.28,0.4-4.54-0.63c-6.39-5.27-14.09-4.15-20.98-3.06
			c-13.1,2.06-20.37,12.62-27.46,22.48c-3.83,5.33-6.45,11.6-9.21,17.63c-7.58,16.5-14.7,33.17-13.87,51.93
			c0.07,1.67-0.67,3.52,1.17,5.29c2.35-8.59,4.68-16.76,8.19-24.54c-0.87,7.28-2.11,14.46-3.36,21.63
			c-1.84,10.61-4.84,21.16-0.94,31.97c0.54,1.5,0.14,3.32,0.34,4.96c1.88,15.13-0.18,30.26-0.02,45.39
			c0.08,7.49,5.82,11.4,9.52,16.75c-0.11-12.34,0.58-24.42,2.14-36.38c0.69-5.28-0.17-9.39-3.64-13.26c-1.22-1.36-2.38-3-2.29-5.22
			c3.19,1.09,4.46,4.14,7.41,5.81c0.41-2.57,0.8-4.68,1.07-6.81c1.61-12.87,3.28-25.73,4.75-38.61c1.64-14.44,6.2-28.26,8.7-42.52
			c1.59-9.04,5.93-16.95,12.46-23.48c5.99-5.99,12.93-6.26,19.58-1.02c2.66,2.09,5.3,4.21,8.36,6.63c0.45-4.92,0.07-9.25,0.97-13.52
			c1.88-8.95,3.57-17.93,5.24-26.93c3.13-16.88,3.24-34.16,6.45-50.99c1.38-7.24-0.7-12.09-5.88-16.65
			c-6.88-6.07-14.76-10.78-21.84-16.53c-2.65-2.15-4.08-3.15-4.5,1.79c-4.83-6.46-5.4-13.47-6.7-20.26
			c1.28,1.79,2.23,3.71,2.82,5.75c0.72,2.47,1.77,4.67,3.75,6.35c0.75,0.64,1.7,1.4,2.69,0.91c1.24-0.62,0.39-1.74,0.23-2.63
			c-0.55-3.02-1.14-6.03-1.71-9.05c1.37,1.74,2.12,3.61,2.43,5.55c1.02,6.42,4.56,10.47,10.25,13.72
			c5.4,3.09,10.98,6.27,15.18,11.16c0.61,0.71,1.26,1.82,2.41,1.29c1.12-0.51,0.58-1.73,0.7-2.66c0.7-5.43-2.1-9.94-3.82-14.74
			c-7.93-22.2-10.78-45.65-16.8-68.32c-0.16-0.61-0.71-2.24,0.34-1.73c4.34,2.11,2.53-1.87,2.65-2.84
			c0.74-5.6,1.17-11.25,1.62-16.89c0.45-5.53,0.81-11.06,1.22-16.59c3.23,17.15-1.48,34.5,1.89,51.6
			c0.64-20.41,3.68-40.39,9.05-60.08C813.37,442.21,811.91,464.18,813.38,486.23z M1175.2,1122.14c3.17-0.38,4.83-2.87,7.29-3.72
			c1.51-0.52,3.55-2.65,4.74-0.26c1,2.01,0.9,4.58-1.58,6.18c-2.45,1.58-5.17,2.44-8,2.11c-3.48-0.41-3.33,1.6-3.36,3.95
			c-0.04,2.63,1.25,3.01,3.46,2.64c1.87-0.32,4.7-2.06,4.68,1.85c-0.01,2.61-0.32,5.57-4.39,5.06c-1.2-0.15-2.87-0.79-3.35,1.09
			c-0.41,1.61,0.43,2.87,1.75,3.84c4.17,3.06,17,0.47,19.44-3.99c0.29-0.52,0.12-1.29,0.18-1.95c0.73-7.79,1.23-15.57,1.17-23.41
			c-0.08-10.49-0.02-21,0.5-31.48c1.94-38.7-0.17-77.23-3.86-115.75c-1.34-14.06-4.24-28.09-3.23-42.25
			c1.59-22.34-0.68-44.6-0.54-66.9c0.03-4.98-0.35-10.03-1.22-14.93c-4.73-26.78-7.23-53.71-6.57-80.94
			c0.48-20,0.91-39.97,6.28-59.44c2.88-10.46,5.06-20.98,5.22-31.93c0.1-7.3,0.49-14.75,2.04-21.85
			c4.68-21.53,3.92-43.41,4.67-65.15c0.63-18.29-0.1-36.66,1.9-54.89c1.36-12.42,3.21-24.75,2.8-37.31
			c-0.42-12.81-0.4-25.61,0.56-38.45c1.03-13.74,1.11-27.55,1.53-41.33c0.06-2.15-0.29-4.32-0.51-6.47
			c-0.14-1.41-0.62-2.68-2.28-2.83c-4.75-0.42-8.88-2.64-13.19-4.35c-2.28-0.9-3.81-1.05-2.87,2.55c2.48,9.52,1.48,19.1-0.05,28.69
			c-1.34,8.41-2.3,16.89-3.54,26.14c2.57-1.99,4.27-3.55,6.19-4.76c3.11-1.94,4.61-1.1,5.25,2.73c1.15,6.93-5.62,8.33-12.26,7.66
			c0.77,2.65,1.12,5.25,1.09,7.9c-0.01,1.27-0.55,2.97,0.74,3.72c1.51,0.88,2.13-1.08,3.22-1.65c1.4-0.73,2.9-2.51,4.23-0.42
			c1.07,1.67,1.13,3.86,0.44,5.81c-0.63,1.8-2.47,2.8-4,2.33c-3.81-1.18-3.7,0.93-3.7,3.54c0.03,11.65-0.07,23.3,0,34.94
			c0.01,1.87-1.27,4.51,0.79,5.47c1.7,0.79,2.79-1.91,4.33-2.78c0.72-0.41,1.44-0.83,2.19-1.18c2.5-1.17,3.59-0.39,3.86,2.4
			c0.54,5.63-0.95,7.19-6.88,6.38c-2.37-0.32-4.73-1.24-5.2,2.41c-0.68,5.27-1.89,10.52-2.05,15.8c-0.62,19.6-0.86,39.21-1.38,58.81
			c-0.09,3.47,1.21,3.57,3.83,2.47c1.66-0.7,3.78-1.61,4.7,0.82c0.92,2.46,1.79,5.26,0.25,7.72c-1.48,2.37-4.09,1.93-6.33,1.3
			c-1.63-0.45-3.04-1.01-3.24,1.34c-0.62,7-1.15,14-1.71,21.03c1.81,0.11,2.39-1.16,3.39-1.65c1.46-0.72,3.14-3.22,4.53-0.9
			c1.08,1.81,1.22,4.64-1.14,6.28c-1.21,0.83-2.7,1.46-4.26,0.97c-2.69-0.83-3.54,0.33-3.79,2.88c-0.51,5.06-1.27,10.1-2.03,15.91
			c2.73-1.34,4.78-2.33,6.8-3.35c2.55-1.28,3.98-0.85,4.37,2.31c0.73,5.96-1.12,8.38-7.51,8.67c-3.25,0.15-4.87,1.25-4.95,4.67
			c-0.08,3.32-0.35,6.67-0.94,9.94c-0.7,3.93,0.67,3.98,3.57,2.43c1.37-0.73,2.94-2.33,4.49-0.83c1.42,1.38,1,3.39,0.61,5.23
			c-0.65,3.09-2.95,4.36-5.67,4.87c-2.19,0.41-3.78,1.11-4.1,3.57c-0.5,3.96-1.12,7.9-1.58,11.87c-0.17,1.47,0.12,2.99,2.14,1.75
			c2.77-1.69,4.21-0.68,4.26,2.19c0.05,3.16,2.23,8.04-3.04,8.43c-4.95,0.36-5.63,2.71-5.7,6.56c-0.03,1.82-0.4,3.64-0.68,5.45
			c-0.59,3.8,0.37,5.56,4.5,3.66c0.93-0.43,2.17-1.47,3.13-0.11c0.85,1.21,0.39,2.65-0.16,3.83c-1,2.17-2.74,2.17-4.57,1.08
			c-2.31-1.38-3.64-0.53-3.68,1.89c-0.12,7.09-0.1,14.19,0.03,21.28c0.05,3.06,1.37,4.05,3.96,1.7c0.74-0.67,1.52-1.31,2.35-1.86
			c2.34-1.51,3.91-1.62,4.27,1.88c0.51,4.95-0.82,6.75-6.65,6.53c-2.96-0.11-3.46,0.77-3.22,3.24c0.32,3.31,0.88,6.65,0.71,9.95
			c-0.23,4.45,0.62,5.99,5.03,3.28c1.41-0.87,4.05-3.45,5.13,0.28c0.8,2.77,1.34,6.17-2.61,7.55c-1.58,0.55-3.29,0.64-4.92,0.13
			c-1.64-0.51-2.55-0.18-2.55,1.73c0.02,7.21,0.01,14.42,0.01,21.97c1.68-0.86,2.8-1.53,3.99-2.01c1.75-0.71,3.7-2.53,5.41-0.44
			c1.65,2.02,1.97,4.78,0.94,7.12c-1.1,2.49-3.53,0.81-5.36,0.85c-0.96,0.02-1.98-0.32-2.9-0.68c-1.49-0.59-2.34-0.09-2.37,1.41
			c-0.07,4.87-0.03,9.74-0.03,14.49c2.59,0.25,3.01-1.17,4.01-1.67c1.55-0.77,2.88-3.28,4.65-1.93c1.75,1.34,1.38,4.01,0.93,6.07
			c-0.52,2.38-3.02,3.06-4.76,2.7c-4.08-0.84-4.58,1.29-4.55,4.36c0.05,4.66,0.1,9.32,0.11,13.97c0.01,2.76,0.96,2.5,2.98,1.35
			c2.59-1.47,5.47-2.4,8.22-3.58c2.62-1.12,3.59-0.12,3.8,2.57c0.38,4.77-2.67,9.06-8.58,8.64c-7.24-0.52-6.78,3.32-6.57,7.94
			c0.06,1.33,0.07,2.66,0.08,4c0.06,6.17,0.03,6.12,5.69,3.63c1.52-0.66,3.36-2.62,4.83-0.45c1.09,1.61,1.25,3.91,0.3,5.76
			c-1.04,2-3.08,2.48-5.19,2.03c-4.01-0.85-5.29,0.54-4.82,4.67c0.94,8.27,1.32,16.59,1.26,24.93c-0.04,5.65,0.13,11.31,0.48,16.95
			c0.14,2.23-0.21,5.58,4.08,4.06c0.95-0.34,2.06,0.17,2.25,1.39c0.14,0.88-0.38,1.81-1.21,1.98c-5.66,1.12-4.8,5.42-4.72,9.38
			c0.12,6.4,0.18,6.53,5.84,2.93c2.98-1.9,3.77-0.75,4.09,2.08c0.52,4.6-2.8,6.11-6.14,7.08c-2.43,0.71-3.86,1.43-3.64,4.24
			c0.68,8.63,1.08,17.28,1.88,25.9c0.67,7.25,0.84,7.2,7.42,4.3c1.04-0.46,2.5-2.03,3.36-0.12c0.61,1.33,0.22,3.19-1.31,3.93
			c-1.46,0.71-3.16,0.98-4.78,1.25c-1.85,0.31-3.17,0.89-2.96,3.14c0.41,4.4,0.75,8.8,1.13,13.34c3.48-0.9,5.63-5.56,9.07-2.97
			c2.05,1.55,2.22,5.36,0.83,7.49c-2.68,4.11-6.7,1.47-10.32,0.57c0,7.51,0,14.7,0,21.89c0.4,0.3,0.81,0.6,1.21,0.9
			c1.66-2.01,3.12-4.23,5.02-5.97c2.08-1.9,4.1-1.6,4.54,1.57c0.84,5.97,1.06,7.93-7.39,9.28c-1.6,0.26-3.91-0.62-3.82,2.46
			c0.1,3.55,0.02,7.11,0.02,11.31c1.71-0.96,2.66-1.59,3.69-2.04c2.02-0.88,4.31-3.63,6.16-1.52c1.85,2.11,1.15,5.34-0.39,7.98
			c-1.28,2.19-3.4,2.61-5.58,2.6c-3.02-0.02-4.26,1.18-3.79,4.26c0.23,1.46,0.1,2.99-0.02,4.48c-0.19,2.34-0.62,5.39,1.12,6.57
			c2.04,1.39,3.25-2.1,5.23-2.75c0.46-0.15,0.86-0.5,1.28-0.77c2.88-1.82,4.3-0.96,4.45,2.38c0.26,5.54-4.01,6.15-7.83,7.33
			c-1.41,0.44-3.69-0.56-3.95,1.99C1175.8,1114.16,1175.54,1118.06,1175.2,1122.14z M771.61,1050.02c-1.36,1.45-1.55,2.76-1.91,4.04
			c-2.67,9.48-2.56,19.45-5.01,28.95c-0.98,3.79-0.3,7.17,1.24,10.56c5.42,11.99,10.49,24.15,16.4,35.88
			c2.83,5.62,4.95,11.79,9.65,16.51c-3.06-17.35-10.82-33.3-14.38-50.45c7.22,17.83,14.15,35.75,20.16,55.57
			c1.57-10.42,3.24-19.25,4.15-28.17c0.8-7.84,2.5-15.58-0.31-23.66c-6.44-18.54-12.67-37.18-16.83-56.42
			c-2.22-10.26-3.97-20.57-4.06-31.14c7.53,26.68,15.49,53.2,23.92,79.61c1.21-7.94,3.15-15.23-1.06-23.48
			c-6.5-12.74-8.66-27.2-12.24-41.06c-2.94-11.4-4.55-23.03-5.52-34.81c6.41,25.15,14.18,49.87,21.94,75.64
			c2.47-6.79,3.48-12.87,2.51-15.99c-7.19-23.09-11.77-46.78-16.4-70.47c-0.87-4.47-1.9-8.92-2.85-13.37
			c9.18,24.62,13.24,50.62,21.37,75.59c1.48-7.2,2.18-14.3,2.94-21.39c0.78-7.24,0.68-14.1-1.9-21.34
			c-3.56-9.96-5.53-20.53-7.66-30.95c-3.33-16.28-6.21-32.65-9.29-48.98c9.08,23.81,13.06,48.96,20.39,74.63
			c1.03-8.68,1.78-16.09,2.85-23.45c0.42-2.91,0.19-5.62-0.7-8.35c-6.25-19.15-12.21-38.4-15.55-58.31
			c-1.36-8.12-3.75-16.11-3.63-24.5c6.53,25.73,12.75,51.54,21.97,77.85c1.25-6.36,2.23-11.25,1.67-16.57
			c-2.49-23.27-8.75-45.75-13.7-68.5c-2.67-12.28-5.37-24.56-8.11-37.07c-1.86,1.22-1.6,2.79-1.79,4.24
			c-2.14,16.12-4.16,32.26-6.53,48.35c-2.5,16.93-5.5,33.84-6.28,50.93c-1.36,29.84-7.54,58.95-12.15,88.3
			c-1.21,7.68-1.48,15.04,0.83,22.62c6.4,21.02,13.57,41.76,21.14,62.38c0.95,2.58,4.13,6.36,1.14,7.78
			c-2.25,1.07-3.8-3.77-4.94-6.4C784.02,1093.85,777.31,1072.26,771.61,1050.02z M1171.06,21.64c2.77-3.06,5.94-5.97,6.84-10.02
			c0.95-4.29,3.13-7.69,5.79-10.88c4.04-4.86,8.18-9.66,12.5-14.28c1.66-1.78,1.39-2.44-0.49-3.67c-3.23-2.12-5.38-2.22-7.5,1.67
			c-2.62,4.82-4.9,10.01-9.04,13.96c-1.24-1.25-1.25-2.34-0.98-3.23c5-16.22,11.46-31.45,28.18-39.24
			c6.17-2.87,10.93-6.79,12.43-13.9c0.5-2.36,1.29-4.98,3.64-6.35c3.44-2,5.81-4.89,7.78-8.25c0.55-0.93,1.18-2.98,2.73-1.59
			c3.09,2.78,4.84,0.24,6.76-1.38c7.21-6.07,11.58-14.07,15.01-22.66c2.74-6.85-0.68-22.41-5.91-27.54
			c-1.66-1.63-2.84-0.84-4.29,0.25c-0.93,0.7-2.89,0.43-1.85,2.57c2.17,4.46,1.2,9.12,0.74,13.73c-0.18,1.77-1.1,3.97,2.16,3.62
			c1.17-0.13,2.01,0.01,2.03,1.39c0.02,1.21-0.19,2.72-1.55,2.76c-3.73,0.12-3.97,3.16-4.8,5.51c-2.12,6-5.99,10.04-11.87,12.64
			c-6.44,2.85-12.9,5.84-17.35,11.82c-1.56,2.09-3.92,4.81-6.24,4.57c-4.04-0.41-5.78,1.58-7.47,4.35c-1.64,2.68-4.67,4.6-5.13,9.28
			c3.72-2.75,6.66-4.79,9.45-7.02c5.98-4.77,11.86-9.68,17.86-14.43c1.1-0.87,2.61-2.37,3.95-1.43c1.54,1.08,0,2.68-0.36,4.06
			c-0.77,3.01-2.78,5.19-4.68,7.53c-5.03,6.19-10.97,11.45-17.18,16.31c-4.72,3.69-10.38,5.91-16.45,6.63
			c-3.09,0.37-4.73-1.15-3.41-4.09c0.94-2.11,1.05-4.1,1.12-6.26c0.16-5.02,2.06-8.93,6.81-11.34c2.65-1.34,5.02-3.26,7.48-4.97
			c0.67-0.47,1.32-1.15,1.06-2.08c-0.11-0.37-0.92-0.92-0.99-0.86c-2.02,1.6-5.67-0.16-6.46,1.31c-2.73,5.12-5.41,2.1-7.95,0.43
			c-2.62-1.72-4.93-3.92-7.39-5.89c-7.83-6.28-9.87-28.58,1.62-35.05c3.88-2.19,7.68-4.89,10.75-8.09
			c7.5-7.81,16.35-3.51,24.62-3.05c3.12,0.17,4.65,4,3.6,7.15c-1.02,3.03-3.58,1.19-5.48,0.59c-2.54-0.79-5.22-1.5-7.17-3.39
			c-3.69-3.59-6.62-2.11-9.93,1.3c1.93,0.44,3.49,0.77,5.03,1.16c1.58,0.4,3.33,0.43,4.22,2.25c0.78,1.6,0.41,3.27,0.57,4.9
			c0.02,0.24,0.39,0.5,0.65,0.67c2.08,1.38,13.04-1.5,13.75-4.04c1.93-6.84,0.32-13.74,0.64-21.92c-2.32,2.44-2.14,4.06-2.29,5.45
			c-0.48,4.5-2.59,4.86-6.02,2.73c-2.26-1.41-4.71-2.53-6.89-4.05c-2.94-2.05-4.99-2.13-7.57,0.98c-2.5,3.02-6.02,7.28-9.06,7.26
			c-3.98-0.03-5.93,1.88-8.14,3.77c-3.79,3.25-8.18,5.61-12.79,6.48c-9.27,1.76-13.35,8.02-15.92,16
			c-2.87,8.9-1.96,11.03,5.59,16.21c3.12,2.14,5.86,4.83,8.84,7.18c4.68,3.69,7.91,9.16,13.36,11.74c2.94,1.4,2.62,2.94,1.86,5.05
			c-0.74,2.03-1.45,4.14-2.61,5.93c-2.62,4.06-3.14,8.43-3.72,13.17c-1.2,9.76-1.47,19.56-2.3,29.32
			C1170.46,3.26,1171.06,12.25,1171.06,21.64z M805.62,699.58c2-9.47,0.91-17.82,1.52-26.05c0.4-5.44-1.58-7.41-6.53-9.55
			c-13.85-5.96-19.74,0.74-23.98,12.39c-4.38,12-7.3,24.51-9.21,37.18c-1.06,7.02-3.15,14-1.73,21.23c0.22,1.13-0.3,3.09,1.94,2.61
			c3.03-0.66,3.3,1.58,3.72,3.47c0.36,1.61,0.28,3.31,0.54,4.95c2.2,13.98,13.08,21.89,22.02,31.1c1.61,1.65,2.12-0.31,2.25-1.69
			c0.48-4.8,0.77-9.63,1.42-14.4c1.03-7.56,1.67-14.94-4.88-20.7c-0.58-0.51-0.84-1.44-1.12-2.21c-6.08-16.65-5.46-33.64-2.39-50.71
			c0.4-2.24,1.23-5.46,3.41-5.47c2.25-0.02,4.95,1.37,6.21,4.26C800.65,690.2,802.92,694.24,805.62,699.58z M956.36,217.01
			c2-0.16,3.68-0.15,5.31-0.45c7.89-1.43,10.06-3.62,11.36-11.37c0.77-4.58,1.33-9.19,2.28-13.73c0.42-1.99,0.22-2.78-1.81-3.67
			c-2.68-1.17-4.09-0.35-5.97,1.53c-3.09,3.09-6.07,7.28-11.21,6.15c-5.75-1.26-11.53-0.3-17.27-1.09
			c-5.36-0.74-10.73-1.17-13.59-6.67c-1.18-2.26-3.46-1.58-4.76-1.46c-2.13,0.2-0.8,2.39-0.64,3.68c0.66,5.23,2.88,10.31,1.45,15.74
			c-0.47,1.77,1.17,1.55,2,2.2C933.29,215.64,945.27,215.24,956.36,217.01z M1222.29-136.33c1.75-1.28,5.89-0.25,5.13-4.69
			c-0.7-4.09-3.44-7.41-7.48-7.75c-7.4-0.63-13.54-4.26-19.94-7.18c-7.02-3.2-8.37-9.59-4.04-16.17c1.93-2.94,4.48-5.34,7.12-7.66
			c1.12-0.98,2.19-2.05,3.09-3.22c0.46-0.59,0.83-1.6,0.64-2.25c-0.28-0.96-1.38-0.68-2.15-0.51c-1.28,0.28-2.56,0.61-3.8,1.06
			c-11.06,3.99-17.28,12.48-21.25,23.01c-1.8,4.79-0.54,8.62,4.11,10.64c10.33,4.49,20.79,8.68,31.24,12.87
			C1217.14-137.32,1219.49-137.02,1222.29-136.33z M764.84,907.95c-8.93-11.59-7.92-27.64-17.82-39.02
			c2.22,8.17,3.1,16.58,4.93,24.77c3.6,16.13,3.65,33.64,17.14,46.22c2.65,2.47,2.29,2.96,1.14,6.27c-2.02-0.3-1.76-3.21-4.51-3.51
			c1.32,4.86,0.64,10.03,5.1,14.4c4.45-11.47,2.36-22.59,0.74-33.57c-0.74-5.05-3-9.85-4.28-14.84c-1.23-4.81-1.81-9.79-3.68-14.47
			c-3.97,2.04-3.92,2.02-2.28,5.55C762.58,902.44,763.67,905.21,764.84,907.95z M1229.08-113.7c0-0.33-0.09-0.7,0.01-0.99
			c1.17-3.39-0.89-5.75-3.54-5.61c-2.33,0.12-1.16,3.18-0.88,4.98c0.93,5.88-1.78,9.95-6.41,12.99c-4.97,3.26-10.67,4.44-16.43,5.4
			c-3.5,0.59-6.86,1.93-6.67,6.07c0.16,3.57,0.44,7.92,2.5,10.39c1.96,2.34,4.33-2.42,7.09-2.63c0.64-0.05,1.35-0.3,1.86-0.68
			C1217.19-91.42,1232.76-95.35,1229.08-113.7z M1038.1,75.09c-10.98,5.51-20.14,12.27-28.96,19.57c-3.09,2.56-3.47,5.39-2.64,9.43
			c3.04-2.79,4.96-5.79,7.99-7.62c1.43-0.86,2.64-3.47,4.5-1.48c1.6,1.71-0.43,3.25-1.45,4.71c-4.55,6.51-9.09,13.03-13.56,19.6
			c-0.77,1.13-2.2,2.55-0.66,3.94c1.71,1.55,9.25-1.43,9.86-3.83c1.1-4.35,2-8.69,4.44-12.63c4.9-7.92,9.62-15.93,15.92-22.88
			C1035.62,81.61,1037.44,79.04,1038.1,75.09z M1186.3,364.58c-2.41,0.3-5.49-0.25-5.23,3.22c0.19,2.46-0.59,6.17,3.83,6.25
			c12.93,0.24,25.88-0.68,38.77,1.2c3.06,0.45,2.55-2.58,2.96-4.26c0.63-2.58-1.36-1.77-2.79-1.84c-4.93-0.27-10.18,0.27-14.71-1.26
			C1201.54,365.31,1193.74,365.89,1186.3,364.58z M987.12,33.29c-7.79-6.45-16.55-8.44-24.7-10.15
			c-15.34-3.24-30.98-3.11-45.89,3.21c-1.35,0.57-4.06,0.13-3.63,2.41c0.34,1.82,2.72,1.69,4.32,1.39c3.74-0.71,7.43-1.67,11.15-2.5
			c16.2-3.62,31.99,0.27,47.84,2.72C979.54,30.87,982.47,33.11,987.12,33.29z M762.24,1098.27c-1.3,7.14-2.36,12.76-3.33,18.4
			c-0.23,1.36,0.45,2.59,1.22,3.7c5.74,8.31,11.47,16.62,17.25,24.91c0.69,0.98,1.13,2.84,2.89,1.96c2.04-1.02,0.76-2.69,0.18-3.87
			C773.61,1129.21,767.63,1114.69,762.24,1098.27z M774.82,1153.42c-2.52-7.71-15.22-30.08-17.48-31.83
			c-1.61,2.25-1.95,4.93-2.34,7.52c-0.4,2.68,2.96,4.41,2.27,7.2c-1.27,0.85-2.58-2.41-3.71,0.39c-1.42,3.55,0.33,8.14,3.83,10
			C762.92,1149.63,769.68,1149.24,774.82,1153.42z M1195.49-104.19c-4.58-2.12-8.77-1.52-11.83-4.16c-0.73-0.64-1.5-0.07-2.25,0.36
			c-6.58,3.68-7.06,15.64-1.2,20.51c2.67,2.22,7.62,3.43,5.87,9.02c-0.29,0.93,1.34,3.61,3.2,3.01c1.93-0.62,0.62-2.59,0.08-3.76
			c-2.18-4.7-1.6-10.49-6.19-14.33c-1.6-1.34-1.2-4.01,0.25-5.97c0.8-1.08,2.08-2.79,3.06-1.88
			C1191.02-97.2,1191.87-102.74,1195.49-104.19z M739.45,812.86c-2.74,15.91,2.54,28.76,13.05,40.12c-0.9-4.23-1.64-8.29-2.63-12.28
			c-1.04-4.19-2.1-8.32-0.8-12.65c0.12-0.39-0.11-1.17-0.43-1.36C743.65,823.54,743.33,817.35,739.45,812.86z M1227.59-62.64
			c-2.45,4.43-0.09,9.17-2.43,13.45c-1.57,2.87-4.43,5.93,0.38,9.91c2.55,2.12,2.87,1.78,4.51,0.22
			C1235.72-44.47,1234.67-55.1,1227.59-62.64z M1228.67-154c1.74,4.71,3.41,8.3,2.95,12.35c-0.06,0.5,0.55,1.22,1.03,1.61
			c3.92,3.16,11.53,0.38,12.53-4.56c0.31-1.52,0.52-2.89-1.72-3.32C1238.56-148.85,1234.3-151.49,1228.67-154z M740.32,840.67
			c-1.35,15.58,12.38,22.75,16.82,35.22c1.11-1.87,0.52-2.95,0.37-4.06c-0.96-7.13-7.41-11.13-9.89-17.53
			C745.88,849.8,743.91,845.15,740.32,840.67z M1167.9,293.34c-3.61,6.76-5.99,13.62-1.79,20.91c0.49,0.86,0.72,2.16,1.84,2.09
			c1.6-0.1,1.48-1.59,1.41-2.7C1168.91,306.87,1168.4,300.1,1167.9,293.34z M938.35,14.7c-2.98-1.16-5.13,0.12-7.26,0.47
			c-8.3,1.35-15.8,4.88-22.9,9.27c-0.99,0.62-2.91,1.42-1.93,2.92c1.06,1.6,2.22-0.06,3.31-0.69c2.57-1.5,5.15-3.01,7.83-4.31
			C923.93,19.2,930.97,17.34,938.35,14.7z M823.95,517.71c-3.01,9.32-4.66,34.13-2.41,37.94
			C823.42,543.08,825.08,531.16,823.95,517.71z M982.06,13.73c-2.63-4.3-12.17-8.01-16.37-6.35c-1.02,0.4-2.55,0.71-2.27,2.18
			c0.25,1.29,1.68,1.63,2.83,1.54c3.61-0.28,6.76,1.44,10.13,2.17C978.26,13.66,980.05,14.92,982.06,13.73z M1049.47,379.85
			c0.77-6.08,1.07-12.19,2.51-18.15c0.21-0.88,0.3-2.24-1.06-2.37c-1.52-0.15-1.78,1.25-1.98,2.37
			C1047.88,367.76,1048.44,373.8,1049.47,379.85z M999.81,54.64c2.34-0.57,4.59-1.04,6.79-1.7c0.92-0.28,1.93-0.96,1.59-2.15
			c-0.38-1.37-1.62-0.7-2.51-0.71c-3.13-0.03-5.8,3.37-9.26,1.28c-0.09-0.06-0.83,0.57-0.89,0.94c-0.06,0.38,0.25,1.08,0.57,1.2
			C997.31,53.98,998.59,54.28,999.81,54.64z M895,49.47c-1.42-4.49-2.69-8.56-4.27-13.56C888.75,42.97,890.15,47.26,895,49.47z"/>
		<path d="M976.26,99.6c3.98,0.91,6.61-0.98,9.2-3.19c0.88-0.75,2.02-2.31,3.32-0.81c1.04,1.2,0.94,2.75-0.06,4.16
			c-1.57,2.23-3.93,3.02-6.4,3.48c-4.96,0.93-9.9,0.93-14.81-0.47c-0.74-0.21-1.91-0.4-2.3-0.01c-0.88,0.88-0.03,1.79,0.59,2.57
			c0.52,0.65,1.15,1.22,1.56,1.93c0.77,1.35,0.41,2.65-0.71,3.59c-1.12,0.94-2.07,0.24-3.06-0.57c-2.52-2.05-3.58-5.06-5.67-9.15
			c0.24,5.08,0.08,8.65,1.75,12.01c0.74,1.49,1.37,3.03,1.96,4.58c3.89,10.12,0.91,18.71-8.42,24.61c-3.06,1.94-5.43,0.28-7.72-1.35
			c-2.15-1.53-4.38-3-6.43-4.57c-4.15-3.19-6.15-1.38-8.45,2.08c-2.69,4.03-4.95,8.64-11.32,10.57c3.36-6.49,6.24-12.33,11.6-15.93
			c2.72-1.82,4.83-3.53,6.03-7.06c0.2,5.31,2.73,6.45,7.22,5.59c1.49-0.29,3.36,1.18,5,1.98c2.81,1.37,5.37,0.93,8.08-0.46
			c2.75-1.41,3.41-2.95,2.14-5.95c-2.91-6.89-6.08-13.79-6.89-21.29c-0.68-6.31-3.01-13.22,3.57-18.26c1.63,1.22,0.21,3.09,1.4,4.26
			c1.83-0.41,2.04-2.41,3.23-3.49c1.89-1.72,2.99-3.31-1.03-3.28c-1.51,0.01-2.8-0.9-2.86-2.27c-0.08-1.92,1.8-2.23,3.22-2.35
			c8.43-0.74,16.18,1.14,23.03,6.27c0.53,0.39,1.05,0.86,1.4,1.41c1.03,1.62,5.58,1.41,3.55,3.93c-1.59,1.98-5.41,5.38-8.96-0.64
			C978.78,95.15,977.06,97.1,976.26,99.6z M968.98,93.33c0.19-1.25-0.38-1.87-1.32-1.57c-1.88,0.59-3.81,1.5-4.16,3.65
			c-0.29,1.82,1.5,1.96,2.71,2.02C969.37,97.56,967.61,94.27,968.98,93.33z"/>
		<path d="M1122.7,433.64c-0.68-6.98-4.04-13.44-4.27-19.81c-0.12-3.49,1.19-7.9,0.47-11.78c-1.72-9.2-2.62-18.43-2.6-27.78
			c0.03-12.71,4.58-24.11,10.59-34.91c5.12-9.19,12.09-17.08,19.56-24.48c1.05-1.04,2.15-2.74,3.65-1.55
			c1.24,0.99-0.27,2.39-0.77,3.51c-3.07,6.9-7.7,12.86-12.06,18.89c-12.71,17.59-17.29,37.11-15.14,58.45
			c0.8,7.95,1.08,15.92,1.1,23.9C1123.26,423.15,1126.42,428.2,1122.7,433.64z"/>
		<path d="M929.62,102.29c-8,1.83-13.74-2.28-19.35-6.52c-4.74-3.58-4-9.33,1.34-11.96c6.5-3.21,13.8-1.39,20.52-3.25
			c1.42-0.39,2.94-0.37,4.39-0.67c1.5-0.32,3.25-2.33,4.37-0.39c0.86,1.49-0.97,3.13-2.12,4.16c-2.8,2.5-3.38,4.01,0.91,5.48
			c3.73,1.28,4.46,3.8,1.99,7.33c-2.85,4.07-4.97,8.68-9.93,10.82c-1.34,0.58-2.66,2.08-3.98,0.59c-1.35-1.53,0.24-2.65,1.18-3.78
			C929.23,103.77,929.28,103.25,929.62,102.29z M927.14,99.96c4.14-0.35,6.99-1.67,8.83-4.56c1.14-1.78,0.46-3.54-1.45-4.61
			c-0.87-0.49-2.03-1.04-2.4,0.4C931.34,94.28,928.88,96.43,927.14,99.96z M918.68,90.56c-2.11,0.2-4.5,0.62-4.79,2.63
			c-0.23,1.56,2.24,1.82,3.78,2.41C918.4,93.99,919.01,92.52,918.68,90.56z"/>
		<path d="M969.71,153.31c0.08,2.71-4.66,6.59-7.78,5.34c-9.61-3.86-19.19-1.67-28.79-0.2c-1.3,0.2-2.57,0.55-3.87,0.7
			c-2.38,0.28-3.64-1.13-4.52-3.12c-0.83-1.87-0.75-3.58,0.83-4.99c1.52-1.36,3.17-2.31,5.39-1.69c6.99,1.94,14.02,3.18,21.38,2.73
			c4.87-0.3,9.84,1.3,14.6-1.18C968.07,150.31,969.68,150.56,969.71,153.31z"/>
		<path d="M1087.91,499.45c4.44,4.04,6.69,9.38,9.09,14.6c6.27,13.66,9.06,28.52,14.55,42.46c0.73,1.85,1.59,3.67,2.08,5.58
			c0.32,1.25,0.28,2.97-1.25,3.4c-1.31,0.37-1.89-1.12-2.43-2.12c-3-5.6-5.19-11.53-6.74-17.68c-3.76-14.85-8.26-29.45-14.43-43.51
			C1088.39,501.31,1088.19,500.36,1087.91,499.45z"/>
		<path d="M1081.96,426.76c-0.08,2.42,0.36,5.09-2.28,6.19c-2.92,1.22-4.17-1.52-5.44-3.23c-5.48-7.36-6.94-16.35-9.68-24.82
			c-0.33-1.01-0.14-2.1,0.93-2.54c1.43-0.59,2.16,0.69,2.75,1.56c3.47,5.05,6.41,10.4,8.81,16.06c0.57,1.34,0.06,4.15,3.71,3
			C1082.73,422.36,1081.33,425.56,1081.96,426.76z"/>
		<path d="M1108.79,428.09c2.94,0.52,3.51,2.62,4.44,4.23c4.38,7.63,8.79,15.29,10.64,24.01c0.37,1.74,1.19,4.55-1.03,5.4
			c-2.59,1-3.69-1.69-4.59-3.57C1113.73,448.68,1111.66,438.45,1108.79,428.09z"/>
		<path d="M1106.61,448.84c5.35,9.21,11.6,17.94,14.84,28.31c0.32,1.02,0.87,2.43-0.6,3.04c-1.07,0.45-1.79-0.61-2.52-1.24
			c-1.98-1.69-2.82-4.09-3.74-6.39c-3.08-7.68-6.06-15.39-9.09-23.09C1105.87,449.27,1106.24,449.06,1106.61,448.84z"/>
		<path d="M1207.71,175.09c-0.85,4.73-3.05,8.93-6.22,12.65c-0.68,0.8-1.67,1.38-2.62,0.77c-1.36-0.88-2.02-2.39-1.38-3.89
			c1.74-4.1,3.65-8.14,5.57-12.17c0.53-1.11,1.49-1.88,2.83-1.28C1207.52,171.9,1207.57,173.47,1207.71,175.09z"/>
		<path d="M948.2,169.3c-0.49-0.04-0.99-0.02-1.47-0.12c-2.19-0.44-5.26-0.42-5.24-3.27c0.02-3.48,3.3-2.23,5.4-2.49
			c0.81-0.1,1.67-0.22,2.46-0.08c1.94,0.35,5.49-1.8,5.43,1.63C954.71,168.01,951.68,169.77,948.2,169.3z"/>
		<path d="M971.83,138.08c7.69,5.63,8.68,12.34,3.15,20.56C974.91,151.33,974.45,145.04,971.83,138.08z"/>
		<path d="M1150.95,686.41c-0.21-7.21-0.14-14.41,1.67-21.55c0,7.19,0,14.37,0,21.56C1152.06,686.41,1151.5,686.41,1150.95,686.41z"
			/>
		<path d="M994.17,1183.11c-0.61,14.16-0.31,28.26-0.17,42.36c0.05,5.16,1.58,10.21,1.09,15.39c-0.09,0.95,0.18,2.14-0.91,2.63
			c-1.25,0.56-2.3-0.25-3.13-1.02c-2.7-2.52-2.94-5.88-2.73-9.24c0.8-12.77,1.4-25.56,3.48-38.2
			C992.46,1191.03,991.88,1186.8,994.17,1183.11z"/>
		<path d="M1011.17,1189.62c4.01,21.57,2.29,43.44,2.84,65.66c-3.94-1.06-2.98-3.93-2.99-5.86c-0.08-12.14,0.09-24.28,0.14-36.42
			C1011.2,1205.21,1011.17,1197.42,1011.17,1189.62z"/>
		<path d="M900.91,1191.33c0,21.81,0.01,43.62-0.02,65.42c0,1.58,0.42,4.23-1.42,4.25c-2.64,0.03-2.34-2.7-2.25-4.69
			c0.74-17.47,1.44-34.93,2.29-52.39C899.72,1199.66,898.56,1195.3,900.91,1191.33z"/>
		<path d="M927.08,1229.85c3.9,11.66,7.3,23.39,8.48,35.6c0.14,1.47,0.43,3.54-1.36,3.71c-2.14,0.21-2.94-1.81-3.15-3.76
			c-0.96-8.91-1.89-17.82-2.86-26.72C927.88,1235.73,927.46,1232.79,927.08,1229.85z"/>
		<path d="M1035.6,707.98c-1.81-12.92,4.38-23.93,8.53-35.45C1041.67,684.42,1038.29,696.1,1035.6,707.98z"/>
		<path d="M945.35,1260.64c-0.31-5.3-0.61-10.6-0.94-16.25C946.7,1248.1,947.54,1255.16,945.35,1260.64z"/>
		<path d="M781.32,332.34c0.8-8.18,4.23-15.61,7.21-23.04c5.98-14.94,14.44-28.43,26.31-39.55c3.01-2.82,6.21-5.39,10.51-7.39
			c-0.69,4.87-3.47,8.05-6.13,11.02c-12.43,13.84-21.89,29.6-30.34,46.04c-2.28,4.43-4.55,8.87-7.68,12.79
			C781.2,332.23,781.32,332.34,781.32,332.34z"/>
		<path d="M1017,271.6c10.89-9.44,24.94-13.31,30.24-26.91C1051.01,252.32,1030.69,271.22,1017,271.6z"/>
		<path d="M850.99,332.41c-1.92,9.43-5.13,17.6-9.26,25.82C839.74,353.83,844.15,341.76,850.99,332.41z"/>
		<path d="M1019.69,247.3c1.38,3.97,2.91,7.9,4.09,11.93c0.62,2.13,0.35,4.94-2.13,5.25c-2.2,0.27-2.09-2.55-2.22-4.23
			c-0.34-4.23-0.44-8.47-0.64-12.71C1019.08,247.46,1019.38,247.38,1019.69,247.3z"/>
		<path d="M1027.2,239.9c1.15,3.25,2.06,5.85,3,8.44c0.79,2.16,0.42,4.39-1.77,4.89c-2.4,0.54-2-2.2-2.18-3.5
			C1025.84,246.68,1024.14,243.42,1027.2,239.9z"/>
		<path d="M875.51,252.16c0.94,4.85,1.66,8.43,2.31,12.03c0.31,1.74-0.53,3.18-2.22,3.23c-2.08,0.07-1.3-1.92-1.26-2.95
			C874.45,260.8,873.67,257.02,875.51,252.16z"/>
		<path d="M886.03,259.51c0.87,3.3,1.84,6.58,2.54,9.92c0.28,1.33-0.31,2.9-1.89,2.99c-1.6,0.09-1.36-1.53-1.48-2.62
			c-0.37-3.35-1.27-6.69-0.66-10.06C885.04,259.67,885.53,259.59,886.03,259.51z"/>
		<path d="M922.15,352.82c3.17,8.46,3.11,11.28-0.29,14.93C920.61,362.92,921.02,358.49,922.15,352.82z"/>
		<path d="M1009.01,260c1.08,0.17,1.62,0.67,1.54,1.33c-0.28,2.46,2.98,4.76,0.33,7.28c-0.47,0.45-1.33,0.89-1.64,0.13
			C1008.03,265.87,1007.77,262.93,1009.01,260z"/>
		<path d="M999.04,219.52c0.38,0.46,0.57,0.59,0.57,0.71c-0.01,3.28-1.46,5.7-4.39,7.18c-0.77,0.39-1.48-0.06-1.48-0.74
			C993.7,222.9,996.96,221.73,999.04,219.52z"/>
		<path d="M754.63,690.4c-1.3,6.46-2.53,12.93-3.92,19.37c-2.19,10.05-2.56,20.43-5.42,30.35c-0.82,2.85-1.3,7.76-4.83,6.79
			c-3.02-0.83,0.02-4.83,0.58-7.3c2.74-11.96,4.07-24.23,7.83-35.95c1.46-4.53,3.04-9.03,4.56-13.54
			C753.83,690.21,754.23,690.3,754.63,690.4z"/>
		<path d="M802.57,536.71c-7.34-7.98-5.03-19.09-9.39-28.07C797.03,517.75,801.76,526.56,802.57,536.71z"/>
		<path d="M1199.76,433.7c0.24,2.79-0.95,4.61-4.21,4.4c-2.54-0.17-5.12-0.57-5.35-3.89c-0.17-2.48,4.02-6.65,6.51-6.68
			C1198.64,427.5,1199.73,429.63,1199.76,433.7z"/>
		<path d="M1196.33,567.12c-0.45,3.14-0.49,6.21-5.03,5.92c-2.45-0.16-4.37-0.51-4.68-3.19c-0.28-2.35,4.5-7.18,6.95-7.05
			C1196.45,562.96,1195.97,565.41,1196.33,567.12z"/>
		<path d="M1193.64,547.26c0.51,4.33-1.91,6.02-5.34,6.65c-1.73,0.32-2.83-0.58-2.89-2.51c-0.09-3.01,4.2-9.11,6.39-8.74
			C1194.89,543.19,1193.13,545.88,1193.64,547.26z"/>
		<path d="M1195.75,499.84c0.2,4.77-3.06,4.29-5.5,4.65c-2.04,0.3-3.35-0.96-2.82-2.95c0.82-3.08,2.31-6.52,5.79-6.59
			C1196.38,494.88,1194.69,498.69,1195.75,499.84z"/>
		<path d="M1182.26,911.88c0,3.29-5.13,6.9-8.03,6.02c-1.3-0.39-1.55-1.3-0.86-2.23c1.79-2.41,3.87-4.61,6.61-5.88
			C1182.73,908.51,1181.6,911.29,1182.26,911.88z"/>
		<path d="M1196.83,420.12c-1.6,0.19-3.08,0.34-2.73-1.4c0.53-2.65,2.68-4.08,5.07-4.85c1.82-0.58,1.75,1.13,1.68,2.15
			C1200.66,418.69,1199.28,420.27,1196.83,420.12z"/>
		<path d="M1177.65,999.87c1.21-3.27,3.47-4.93,5.34-6.9c0.54-0.57,1.3-1.36,1.98-0.49c0.41,0.52,0.51,1.67,0.21,2.27
			C1183.79,997.54,1181.38,999.06,1177.65,999.87z"/>
		<path d="M1103.1,964.2c1.2,1.4,1.31,2.66,0.39,4.47c-9.1,17.91-18.58,35.62-29.45,52.53c-0.61,0.95-1.04,3.01-2.77,2.08
			c-1.47-0.79-0.76-2.55-0.15-3.59c2.5-4.32,5.02-8.64,7.84-12.75c8.57-12.5,15.17-26.19,23.38-38.91c0.73-1.12,1.24-2.37,0.85-3.8
			C1103.15,964.21,1103.1,964.2,1103.1,964.2z"/>
		<path d="M1130.17,1108.89c-4.12,11.65-10.66,21.77-17.51,31.69c-4.53,6.55-9.19,13.01-13.9,19.43c-0.91,1.24-1.31,4.06-3.93,2.26
			c-2.01-1.38-1.91-3.46-0.91-5.37c2.4-4.58,5.45-8.73,8.64-12.79C1111.77,1132.38,1120.97,1120.64,1130.17,1108.89z"/>
		<path d="M1118.04,1082.34c-3.44,6.25-6.69,12.28-10.06,18.23c-5.78,10.23-11.62,20.42-17.49,30.6c-0.5,0.87-0.54,2.75-2.11,2.16
			c-1.42-0.54-1.51-2.23-0.96-3.49c1.85-4.25,3.43-8.71,5.9-12.6c7.12-11.18,14.6-22.13,22-33.14
			C1115.8,1083.4,1116.11,1082.24,1118.04,1082.34z"/>
		<path d="M779.24,701.84c0.86,6.34,2.15,12.32,2.37,18.34c0.45,12.36,5.45,23.13,10.74,33.87c1.46,2.97,3.09,5.82,2.96,9.38
			c-0.12,3.14-1.51,3.38-3.74,2.1c-4.56-2.61-6.98-7.04-9.17-11.52c-7.26-14.85-9.01-30.43-5.8-46.6
			C776.96,705.52,777.04,703.49,779.24,701.84z"/>
	</g>
</g>
</svg>
