<?xml version="1.0" encoding="utf-8"?>
<!-- Generator: Adobe Illustrator 26.0.2, SVG Export Plug-In . SVG Version: 6.00 Build 0)  -->
<svg version="1.1" id="Layer_1" xmlns="http://www.w3.org/2000/svg" xmlns:xlink="http://www.w3.org/1999/xlink" x="0px" y="0px"
	 viewBox="0 0 1920 1080" style="enable-background:new 0 0 1920 1080;" xml:space="preserve">
<g>
	<g>
		<path d="M820.1,740.01c-0.97,5.53,2.29,10.02,4.35,14.48c6.81,14.72,12.16,30.13,20.41,44.16c4.03,6.86,8.59,13.4,12.86,20.13
			c1.1,1.73,2.53,2.04,4.28,1.35c3.88-1.51,7.85-2.88,10.83-5.99c8.45-8.8,16.27-17.96,20.75-29.63c3.32-8.65,8.18-16.64,9.09-26.24
			c0.92-9.73-1.97-14.37-11.6-16.25c-9.03-1.77-12.32-0.46-17.09,6.61c-2.18,3.24-1.84,6.62-0.79,10.05c0.6,1.97,2.3,2.26,4.03,2.22
			c3.16-0.08,4.68-2.26,5.68-4.85c0.7-1.81,0.37-4.03,2.28-5.35c1.07-0.74,2.03-1.97,3.5-1.21c1.27,0.66,0.87,2.03,0.92,3.15
			c0.29,6.88-7.11,14.16-14.02,12.7c-3.03-0.64-4.7-2.16-5.84-4.74c-5.93-13.47,6.08-29.28,20.69-28.72
			c14.78,0.57,20.82,11.43,20.28,23.49c-0.5,11.09-4.54,20.94-8.63,31c-5.97,14.7-14.72,27.02-27.56,36.44
			c-2.01,1.47-4.07,2.05-6.36,2.53c-4.99,1.04-4.75,1.08-1.81,5.44c6.19,9.19,14.7,16.19,22.1,24.23
			c7.79,8.45,16.34,16.08,25.38,23.12c16.46,12.82,34.04,23.69,54.13,29.97c3.51,1.1,6.76,2.76,10.1,4.26
			c13.99,6.27,28.34,4.44,42.51,1.01c7.49-1.82,12.75-7.26,17.53-14.71c-5.04,2.68-9.03,1.65-13.28,0.5
			c-11.62-3.13-13.89-25.32-4.72-31.92c11.83-8.52,25.88-9.47,36.11-0.65c4.79,4.13,5.41,10.08,6.7,15.7
			c0.35,1.52,0.4,3.11,0.7,5.56c3.06-4.1,3.67-7.85,2.89-11.84c-1.11-5.61-3.8-10.62-6.24-15.72c-2.2-4.59-3.05-9.19,0.81-13.47
			c3.04-3.37,6.19-3.41,9.38-0.24c6.54,6.49,11.41,14.01,14.15,23.53c2.47-3.06,4.22-5.68,4.47-9.13c0.09-1.21,0.7-2.48,2.11-2.3
			c1.5,0.19,1.84,2.24,1.33,2.71c-4.96,4.56-4.46,11.7-8.17,16.8c-0.17,0.24-0.57,0.32-1.04,0.57c-1.59-1.84-1.67-4.24-2.06-6.42
			c-1.34-7.61-6.23-13.08-11-18.61c-0.71-0.82-1.83-1.88-3.02-1.26c-1.28,0.67-0.7,2.16-0.4,3.16c0.91,3.01,1.91,6,3.12,8.9
			c3.9,9.39,2.83,18.16-2.94,26.47c-0.65,0.93-0.93,2.11-1.38,3.17c-0.21,0.27-0.41,0.55-0.62,0.82c-2.39,0.28-3.06-0.57-2.99-3.12
			c0.27-10.68-9.74-26.48-24.95-22.77c-3.66,0.89-7.43,1.15-10.84,3.01c-6.28,3.43-7.78,12.4-2.88,17.64
			c4.93,5.26,11.28,5.52,16.93,1.06c3.51-2.77,2.37-5.11,0.35-8.06c-2.28-3.34-4.13-2.35-6.35-0.12c-0.78,0.78-1.66,1.71-3.44,1.39
			c-0.4-3.31,0.93-5.95,3.63-7.76c2.72-1.83,5.43-0.71,7.98,0.77c7.43,4.32,10.8,16.13,6.11,23.48
			c-6.23,9.76-13.94,17.36-24.84,21.35c-5.6,2.05-11.58,1.49-17.18,0.14c-7.5-1.81-15.42,0.35-22.62-2.43
			c-11.92-4.59-23.94-9.1-35.34-14.81c-23.16-11.59-43.08-27.52-61.68-45.66c-19.33-18.86-35.6-39.85-48.56-63.22
			c-14.6-26.32-27.04-53.73-35.23-82.91c-3.74-13.33-3.42-27.06-5.13-40.58c-3.43-27.27-1.04-54.56,0.1-81.82
			c0.4-9.5,3.75-18.57,5.99-27.78c5.88-24.14,16.67-46.18,27.85-68.24c11.97-23.63,28.89-43.44,44.83-64.12
			c11.21-14.54,24.33-27.36,36.4-41.12c3.95-4.51,7.15-9.65,11.68-13.66c0.82-0.73,1.98-1.57,0.59-2.82
			c-0.95-0.85-2.09-1.3-3.16-0.42c-1.66,1.38-3.31,2.81-4.71,4.44c-11.19,13.02-24.58,23.96-35.5,37.17
			c-8.88,10.74-18.6,20.79-26.5,32.35c-6.95,10.16-14.47,19.88-20.74,30.55c-6.36,10.82-11.44,22.13-16.05,33.74
			c-1.46,3.66-4.31,6.56-5.81,10.34c-6.88,17.36-12.84,35.03-17.5,53.08c-4.4,17.04-4.69,34.59-5.37,52.09
			c-1.07,27.24,1.72,54.24,6.55,80.89c4.93,27.2,15.09,52.6,30.03,76.16c7.19,11.33,12.49,23.95,21.04,34.39
			c13.03,15.89,22.25,34.71,38.06,48.51c6.71,5.86,11.95,13.4,18.51,19.46c10.63,9.81,23.68,16.4,35.08,25.26
			c1.64,1.28,2.31,2.38,2.61,4.33c1.32,8.46,7.33,13.25,13.97,17.55c-2.9-4.36-5.7-8.69-7.57-13.55c-0.45-1.18-1.41-2.73,0.28-3.46
			c1.58-0.68,1.57,1.19,2.2,2.05c2.71,3.73,5.43,7.46,8.23,11.13c0.62,0.82,1.25,2.41,2.67,1.37c1.31-0.95,0.31-2.1-0.31-3.06
			c-1.08-1.68-2.3-3.27-3.27-5.01c-0.66-1.19-2.44-2.66-0.85-3.87c1.41-1.07,2.75,0.73,3.81,1.64c1.63,1.4,3.39,2.89,4.42,4.72
			c4.04,7.15,10.95,11.91,15.33,18.74c2.04,3.19,4.2,6.31,6.07,9.59c0.89,1.55,2.01,2.6,3.57,3.3c1.2,0.54,2.45,0.47,3.11-0.64
			c0.68-1.15-0.69-1.63-1.31-2.31c-7.84-8.48-13.22-18.66-20.31-28.63c4-0.03,5.77,2.14,7.54,4.22c5.85,6.9,9.69,15.12,14.74,22.55
			c1.6,2.35,4.08,4.24,3.69,7.82c-0.24,2.24,2.43,2.42,4.06,3c3.59,1.27,8.3,4.26,10.64,3c3.5-1.88-0.57-6.64-0.09-10.33
			c0.49-3.75-0.84-6.99-4.68-9.08c-3.25-1.77-5.25-5.02-6.93-8.32c-0.42-0.83-1.3-1.82-0.3-2.68c0.88-0.75,2.04-0.2,2.75,0.39
			c2.11,1.78,4.31,3,7.19,2.4c0.62-0.13,1.81-0.04,1.84-0.2c1.08-6.84,4.5-1.62,6.06-0.8c7.63,4.02,15.27,8.12,21.64,14.11
			c0.7,0.66,1.54,1.34,1.27,3.11c-5.8-1.23-10.51-4.59-15.51-7.3c-1.07-0.58-2.2-2.1-3.41-1.03c-0.51,0.45,0.09,2.15,0.18,3.29
			c0,0,0.2-0.22,0.2-0.22c-1.35,0.58-2.99,0.86-2.9,2.88c0.24,5.78-0.12,11.73,4.32,16.39c1.28,1.35,2.07,2.64,0.3,4.19
			c-1.5,1.32-2.57,2.58-5.1,1.15c-8.04-4.56-17.32-5.72-25.92-8.78c-1.75-0.62-2.79,0.71-3.92,1.64c-3.2,2.65-6.88,4.58-10.33,6.83
			c-5.22,3.42-11.09,3.95-16.83,5.39c-10.94,2.75-21.91,5.34-33.24,5.55c-20.88,0.38-40.64-3.47-57.94-16.08
			c-0.67-0.49-1.31-1.06-2.04-1.44c-27.96-14.43-39.14-40.22-46.49-68.61c-4.35-16.83-7.02-33.89-7.16-51.3
			c-0.03-3.24-0.51-4.9-4.91-5.3c-18.5-1.67-32.91-10.93-44.83-25.06c-7.99-9.47-12.67-20.39-16.14-31.85
			c-4.63-15.28-9.04-30.79-8.43-47c0.78-20.47,1.94-41.02,7.24-60.88c4.33-16.23,10.09-32.09,18.2-46.95
			c4.07-7.46,6.67-15.63,11.14-22.89c1.12-1.82,1.9-3.88,4.74-6.18c-4.98,13.2-9.46,25.26-14.06,37.27
			c-10.16,26.52-17.02,53.7-20.06,82.1c-2.04,19-0.3,37.06,4.59,55.26c4.54,16.88,12.81,31.61,26.12,42.64
			c8.84,7.33,19.3,12.86,31.14,14.69c3.52,0.54,4.52-0.56,4.68-4.18c0.59-13.64,1.56-27.27,2.46-40.9
			c0.52-7.8-0.63-14.92-4.74-21.98c-7.58-13.01-11.79-27.47-15.71-41.96c-7.12-26.32-10.11-53.44-11.62-80.38
			c-1.38-24.58-1.49-49.77,5.66-73.88c3.81-12.85,7.42-25.92,14.53-37.59c2.61-4.28,4.03-9.12,5.64-13.85
			c0.94-2.77,0.13-3.73-2.85-4.06c-7.19-0.77-13.54,2.52-20.32,3.68c-17.97,3.07-35.92,8.12-54.22,4.82
			c-14.77-2.66-30.68-5.09-39.12-19.88c-7.16-12.55-8.2-26.7-5.9-40.79c3.62-22.14,11.31-43.15,19.42-63.94
			c13.37-34.29,31.46-65.94,52.8-95.96c14.16-19.92,26.62-41.04,35.55-64.01c1.68-4.33,0.9-5.48-3.81-4.92
			c-3.39,0.4-7.68-1.74-10.18-0.31c-2.18,1.25-0.23,6.04-1.13,9.29c-4.57,16.45-14.62,29.45-26.28,41.23
			c-11.79,11.92-24.79,22.53-38.71,31.9c-11.99,8.07-22.1,17.94-30.6,29.55c-0.29,0.4-0.56,0.83-0.82,1.25
			c-3.92,6.47-4.11,11.88-0.49,13.79c6,3.18,13.95,0.3,17.05-6.16c-0.68-0.82-1.52-0.22-2.29-0.29c-2.87-0.26-4.49-2.34-5.31-4.66
			c-0.86-2.43,1.64-3.45,3.17-4.48c2.87-1.92,6.45-3.22,9.35-1.02c2.85,2.17,2.81,5.91,1.66,9.25
			c-4.49,13.05-15.19,15.27-26.58,12.44c-2.06-0.51-2.78-2.25-3.52-3.92c-2.66-5.99-2.5-11.93,0.3-17.87
			c7.74-16.46,20.35-28.49,34.68-39.2c21.54-16.1,41.68-33.71,56.95-56.2c2.44-3.59,4.8-7.34,4.81-11.86
			c0.01-2.5,0.65-6.08-3.01-6.44c-3.89-0.39-8.56-1.85-10.95,3.32c-0.07,0.15-0.13,0.31-0.18,0.46
			c-4.62,12.99-11.88,13.24-23.32,8.81c-2.77-1.07-4.82-0.35-7.11,0.23c-4.04,1.03-5.77-0.38-5.27-4.49c0.2-1.65,0.39-3.31,0.8-4.91
			c2.67-10.3-0.11-19.7-4.71-28.77c-3.31-6.53-6.75-13.01-10.18-19.48c-2.04-3.84-3.72-7.79-4.97-11.96
			c-1.96-6.52-3.71-13.11-7.84-18.79c-3.9-5.37-5.6-11.75-6.66-18.15c-1.07-6.42-2.3-12.76-4.26-18.97
			c-3.69-11.74-2.06-23.78-2.03-35.73c0.06-26.77,7.77-51.95,19.45-75.34c12.73-25.48,30.95-47.01,55.32-63.1
			c22.95-15.15,47.76-25.46,73.96-33.11c29.27-8.55,58.9-8.01,88.36-2.52c11.34,2.11,22.95,3.77,34.02,7.65
			c13.4,4.7,26.16,10.57,38.1,18.26c4.82,3.1,9.24,6.79,12.33,11.51c5.96,9.07,14.52,16.07,20.07,25.32
			c8.17,13.61,18.12,26.67,18.51,43.5c0.33,14.15,1.35,28.23,2.63,42.3c1.13,12.43,0.5,24.93,1.51,37.32
			c0.64,7.85,0.69,15.51-0.49,23.28c-0.82,5.41,2.4,9.92,4.16,14.69c2.64,7.15,5.58,14.21,10.94,19.92c0.91,0.97,1.7,1.95,2.91,2.65
			c5.02,2.9,5.26,4.38,0.4,7.64c-9.09,6.08-19.43,6.4-29.79,5.01c-3.07-0.41-5.35-3.15-6.75-6.2c-0.82-1.8-1.68-3.7-3.99-4.11
			c-1.11-0.2-1.97,0.15-2.55,1.1c-0.54,0.89-0.11,1.53,0.62,2.1c15.39,12.03,31.31,23.73,51.21,26.1c15.96,1.9,32.03,3.87,48.2,3.92
			c15.15,0.05,29.72,3.46,43.52,9.26c9.46,3.98,17.4,10.61,24.41,18.38c6.1,6.77,11.32,13.77,13.97,22.68
			c2.28,7.66-0.39,13.74-4.93,19.4c-3.51,4.37-16.24,2.52-19.82-5.29c-3.49-7.6-1.08-13.39,6.93-15.11c4.19-0.9,5.32,0.14,4.47,4.23
			c-0.3,1.45-0.77,2.92-1.43,4.24c-1.03,2.08-2.88,4.08,0.61,5.63c2.86,1.27,5.45,2.32,7.79-1.21c2-3.02,1.78-5.96,0.85-9.05
			c-4.67-15.53-15.45-25.49-29.38-32.87c-8.64-4.58-18.2-6.29-27.34-8.92c-7.76-2.23-16.38-2-24.7-2.02
			c-10.23-0.01-20.46-0.54-30.7-0.85c-3.99-0.12-8-0.05-11.96-0.43c-19.69-1.93-35.23-12.02-48.88-25.48
			c-2.55-2.51-4.13-6-6.51-9.58c-2.59,4.49-5.3,8.54-4.27,13.83c0.77,3.93-0.71,8.84,1.09,11.52c1.35,2.01,6.91,1.56,10.58,2.35
			c15,3.24,29.12,8.89,43.2,14.83c4.53,1.91,9.19,3.79,14.15,4.65c9.09,1.58,16.98,6.54,25.51,9.39
			c9.77,3.26,17.49,9.13,25.75,14.52c13.27,8.65,21.1,20.85,23.36,36.41c1.44,9.9-2.51,18.6-7.61,26.78
			c-4.41,7.07-8.49,14.29-11.4,22.12c-1.48,3.98-3.12,8.58,0.12,11.83c3.49,3.5,8.78,3.98,13.61,3.19
			c3.76-0.61,7.26-2.57,10.19-5.09c3.08-2.66,3.77-6.16,2.4-10c-0.97-2.74-3.29-3.12-5.72-2.92c-2.03,0.16-3.92,0.94-2.26,3.42
			c2.8,4.19-0.98,6.39-2.67,9.07c-0.97,1.53-2.41,0.17-3.35-0.72c-3.37-3.2-4.33-9.42-2.22-13.95c1.88-4.05,6.55-6.43,11.7-5.97
			c4.9,0.44,9.43,4.08,10.58,8.49c3.05,11.71-3.13,22.09-15.84,26.51c-7.71,2.68-14.88,0.67-21.2-3.64
			c-5.52-3.77-5.67-9.96-4.47-15.86c2.28-11.17,7.76-21.22,14.84-29.67c13.81-16.47,8.39-32.61-2.65-45.98
			c-6.97-8.44-16.07-15.58-25.76-20.14c-11-5.17-21.8-12.07-34.97-11.88c-8.31,0.12-16.09-3.39-23.97-5.77
			c-9.73-2.95-19.36-6.27-29.15-8.96c-4.65-1.28-8.69-3.33-12.22-6.43c-1.94-1.7-3.12-1.53-4.05,0.8
			c-2.03,5.08-5.64,8.89-9.82,12.24c-0.65,0.52-1.54,0.94-1.31,1.9c0.22,0.91,1.17,1.04,1.98,1.25
			c14.94,3.83,30.03,7.16,44.76,11.68c11.18,3.43,22.92,5.77,32.99,12.1c10.13,6.37,20.98,11.64,27.41,22.94
			c7.34,12.9,3.89,25.29,1,38.18c-2.65,11.86-11.24,19.83-17.85,29.06c-6,8.38-12.78,16.19-19.26,24.22
			c-5.07,6.28-4.97,6.89,2.71,8.05c11.47,1.73,21.83,7.05,32.98,9.8c10.35,2.55,20.61,5.4,30.35,9.85
			c14.98,6.85,27.33,16.76,36.39,30.68c4.16,6.39,9.02,12.33,13.08,18.78c8,12.7,15.11,25.73,15.19,41.48
			c0.03,6.27,1.9,12.48,1.8,18.84c-0.03,1.58,0.5,2.71,2.62,2.79c12.48,0.49,20.9,6.93,26.98,17.66c5.23,9.23,12.18,17.42,16.92,27
			c6.47,13.1,13.47,26.17,15.54,40.74c2.49,17.49,2.48,35.02-3.45,52.22c-5.09,14.76-11.2,28.86-21.61,40.65
			c-7.75,8.77-17.58,14.49-28.85,17.65c-3.39,0.95-6.52,0.43-9.44-1.75c-3.97-2.97-6.99-6.69-8.97-11.17
			c-2.98-6.73-0.2-14.48,6.07-18.21c5.3-3.15,8.92,0.7,12.67,3.03c3.56,2.22,1.61,5.69,0.58,8.58c-1.16,3.24-3.05,3.86-5.34,0.85
			c-0.9-1.18-1.99-2.21-2.34-3.78c-0.46-2.07-0.74-4.95-3.75-4.05c-2.6,0.77-3.6,3.52-3.41,6.13c0.44,6.17,9.7,11.93,15.18,9.09
			c9.04-4.69,17.45-10.4,23.11-19.22c2.16-3.37,5.37-5.87,7.25-9.5c14.94-28.8,18.39-58.27,5.75-88.88
			c-2.48-5.99-4.16-12.31-6.5-18.36c-3.27-8.48-7.89-16.16-14.77-22.25c-7.57-6.7-15.27-13.25-23.7-20.55
			c0,4.88-0.23,8.99,0.04,13.06c1.2,18.18-3.74,35.21-9.06,52.29c-5.08,16.33-15.55,29.03-26.44,41.5
			c-2.28,2.61-2.43,4.01-0.74,7.06c6.31,11.4,10.72,23.39,6.43,36.66c-3.69,11.4-15.52,16.36-23.77,11.29
			c-7.36-4.53-7.22-16.27,0.32-20.57c1.74-0.99,4.09-1.84,5.35,0.09c0.99,1.51,1.25,4.44-0.77,5.39c-3.49,1.65-2.65,4.33-1.46,6.17
			c1.47,2.27,4.31,2.18,6.72,0.95c6.69-3.4,7.81-9.78,7.64-16.2c-0.2-7.55-3.19-14.4-7.13-20.85c-13.2,15.3-28.92,26.89-46.02,36.53
			c-6.44,3.63-14.38,4.06-20.92,7.9c-1,0.59-2.07,1.06-3.1,1.61c-1.54,0.82-3.14,2.85-4.84,1.23c-1.74-1.65-1.98-4.17-1.03-6.5
			c0.61-1.5,1.47-2.9,2.53-4.96c-7.88,1.67-14.79,4.36-22.06,5.86c-11.99,2.48-20.37-2.31-28.17-10.38
			c-8.13-8.42-11.48-18.85-13.67-29.89c-0.89-4.46,1.36-6.2,6.68-5.25c2.34,0.42,4.92,1.46,3.53-2.92
			c-0.84-2.63-1.82-5.88,1.53-7.55c3.32-1.65,6.49-0.51,9.2,1.87c0.98,0.86,1.93,1.77,3.95,3.63c-2.66-7.35-5.44-13.24-5.55-19.92
			c-0.09-4.99,0.99-9.23,4.77-12.58c4.46-3.95,7.68-9.17,13.28-11.98c3.37-1.69,5.82-2.16,7.75,1.71c1.5,2.99,2.76,3.14,4.54-0.11
			c3.27-5.97,5.21-9.15,10.44-0.28c2.18,3.69,2.61,10.25,0.75,16.1c2.9,0.57,5.93-0.7,8.69,0.67c3.77,1.87,7.77,9.62,7.12,14.59
			c-0.67,5.13-3.97,8.36-8.68,10.01c-5.97,2.09-10.62-0.84-11.69-7.09c-0.42-2.46-3.22-2.8-5.81-0.7
			c-4.22,3.43-3.7,11.92,1.11,17.05c10.11,10.79,23.84,13.08,36.52,8.92c10.45-3.43,17.5-10.68,22.99-19.67
			c2-3.28,4.32-6.3,6.47-9.45c1.26-1.84,1.32-3.12-0.3-5.17c-15.46-19.62-34.75-33.96-58.4-41.96c-10.51-3.55-21.29-6.48-32.35-8.15
			c-8.37-1.26-16.63-2.78-25.15-3.39c-9.03-0.64-12.88,4.03-16.82,10.57c-14.09,23.4-23.19,48.63-30.31,74.95
			c-5.3,19.58-4.14,38.1,2.01,56.85c4.13,12.58,13,20.82,24.54,26.53c5.76,2.85,11.13,6.83,18.01,6.72
			c2.16-0.04,4.37,0.24,6.47-0.11c7.09-1.16,9.1-3.5,9.5-10.52c0.73-12.75-6.64-17.49-18.4-11.83c-0.73,0.35-1.59,1.08-2.2,0.34
			c-0.42-0.51-0.45-1.61-0.25-2.32c0.68-2.33,2.08-4.15,4.36-5.17c10.76-4.81,21.48,0.86,23.64,12.43c0.8,4.28,1.22,8.65,0.81,12.91
			c-1.09,11.46-10.78,17.82-23.55,15.95c-7.51-1.1-14.37-3.89-21.09-7.36c-14.45-7.46-26.69-17.03-32.03-33.13
			c-6.83-20.62-9.25-41.48-3.15-62.83c4.29-15.04,6.8-30.57,12.7-45.16c5.06-12.53,10.37-24.93,18.83-35.64
			c2.33-2.95,0.78-3.21-1.79-4.02c-6.02-1.89-12.18-1.27-18.29-1.64c-5.45-0.33-10.99,0.46-16.31-1.9
			c-0.96,16.29-5.67,31.19-11.53,45.67c-3.98,9.84-9,19.26-13.59,28.85c-5.73,11.99-11.9,23.76-16.17,36.43
			c-3.11,9.23,0.33,17.17,4.4,24.75c10.89,20.3,23.81,39.27,40.95,54.86c16.53,15.04,34.75,27.97,56.43,34.29
			c27.29,7.96,55.01,9.31,82.64,1c8.02-2.41,15.08-7.03,22.45-10.84c5.36-2.77,7.99-8.41,9.8-14.03c1.13-3.5,4.54-6.97,3.86-9.9
			c-0.61-2.62-5.94-2.16-8.94-4.02c-7.08-4.4-10.38-18.23-5.6-25.11c3.15-4.54,14.55-7.68,21.13-5.23
			c8.45,3.15,15.25,8.68,19.91,16.46c3.46,5.78,2.09,11.86,0.15,17.83c-2.1,6.47-4.88,12.57-9.79,17.63
			c3.76-1.06,6.56-3.33,9.42-5.47c6.14-4.59,6.64-4.42,8.93,3.79c5.97-8.05,13.07-14.5,20.01-21.09
			c10.87-10.31,24.81-14.14,38.77-16.99c8.58-1.75,15.97,3.6,22.45,9.01c2.78,2.33,4.99,5.34,7.47,8.02
			c10.6,11.46,6.51,23.05-4.84,30.64c-2.17,1.45-4.75,2.38-7.23,3.28c-10.16,3.68-20.08-2.1-22.03-12.7
			c-0.41-2.25-0.03-4.32,1.13-6.24c3.39-5.6,13.29-9.73,19.61-8.37c3.83,0.83,6.88,3.41,7.24,6.71c0.41,3.79-3.28,6.26-6.38,8.24
			c-2.19,1.4-2.96-0.89-3.71-2.14c-1.45-2.39-3.43-3.05-5.94-2.37c-3.02,0.81-4.18,3.93-2.09,6.23c2.65,2.9,5.81,5.11,10.14,3.65
			c1.73-0.59,3.48-1.17,5.14-1.92c9.52-4.28,10.98-10.08,5.18-18.62c-5.37-7.92-12.33-12.86-22.07-13.47
			c-1.84-0.12-3.56-0.36-5.3,0.69c-8.94,5.39-19.67,7.03-28.21,13.21c-9.55,6.9-19.01,13.95-28.35,21.14
			c-2.89,2.23-2.23,6.01-2.99,9.14c1.96,1.57,4.15-2,5.49,0.34c1.25,2.18-0.1,4.47-0.74,6.69c-2.49,8.53-10.24,11.85-16.6,16.27
			c-8.1,5.63-17.66,4.76-26.92,4.1c-1.85-0.13-3.24,0.18-4.64,1.12c-2.35,1.56-4.64,3.21-7,4.74c-1.65,1.07-5.12,0.59-4.44,3.61
			c0.61,2.7,2.73,4.85,5.55,6.04c1.5,0.64,4.07-0.34,4.24,2.47c0.15,2.36-1.65,3.58-3.28,4.67c-9.26,6.21-19.3,7.43-29.79,3.98
			c-2.43-0.8-3.78-0.45-6.16,0.59c-15.36,6.73-29.19,16.82-46.7,18.94c-7.68,0.93-15.48,1.4-23.17,2.56
			c-4.9,0.74-10.3-0.35-15.22-1.62c-10.11-2.61-20.44-4.6-29.97-9.15c-1.2-0.57-2.49-1.02-3.57-1.76
			c-15.7-10.7-29.96-23.14-39.19-39.86c-9.45-17.11-15.72-35.67-18.27-55.19c-2.18-16.67-3.92-33.4-3.1-50.26
			c0.09-1.92-0.44-3.59-1.14-5.3c-13.4-32.51-17.84-66.39-15.17-101.27c1.7-22.23,6.06-43.93,16.39-63.92
			c5.57-10.79,12.89-20.58,19.72-30.62c3.09-4.54,6.25-9.05,9.61-13.4c1.72-2.22,1.17-3.31-1-4.63c-4.25-2.6-8.4-5.37-12.53-8.16
			c-6.47-4.39-7.2-7.5-3.48-14.16c3.99-7.14,3.95-7.09-2.49-12.17c-2.04-1.61-4.62-2.79-5.31-5.73c-0.28-1.18-1.29-1.23-2.37-1.28
			c-3.77-0.16-7.59,0.41-11.32-0.64c-1.61-0.45-2.41,0.85-3.27,1.81c-8.2,9.18-16.8,18.02-24.26,27.86
			c-1.61,2.13-1.94,2.66,1.06,3.85c17.46,6.9,24.09,21.1,20.01,39.84c-3.83,17.59-10.1,33.75-22.98,46.78
			c-1.3,1.32-1.45,2.75-0.88,4.57c6.87,22.16,3.16,44.07-1.31,66.06c-3.97,19.49-9.46,38.51-18.1,56.38
			c-4.28,8.85-8.44,17.85-11.6,26.99c-3.87,11.15-8.95,21.79-12.61,32.98c-2.78,8.51-6.39,16.75-8.19,25.57
			c-0.4,1.95-1.72,1.65-3.08,1.38c-1.19-8.7,1.59-16.82,3.97-24.91c4.5-15.29,11.2-29.79,16.73-44.71
			c9.95-26.82,20.33-53.47,25.97-81.65c3.4-16.96,4.32-33.93,1.46-51.08c-0.77-4.64-2.9-3.31-5.22-1.69
			c-1.76,1.22-3.09,3.18-4.96,4.08c-12.58,6.05-24.52,13.15-35.33,21.95c-6.71,5.46-13.23,11.79-15.27,20.4
			c-3.07,12.93-4.25,26.21-4.49,39.56c-0.43,23.63,0.67,47.15,4.05,70.55c1.86,12.88,5.74,25.27,9.21,37.73
			C817.01,733.58,816.41,737.81,820.1,740.01z M1027.49,15.7c1.46-2.09,3.14-1.38,4.5-1.78c1.6-0.47,4.37,1.71,4.68-1.73
			c0.28-3.14-1.68-4.05-4.54-4.64c-3.39-0.7-7.08-1.07-10.43-3.79c4.74-1.96,8.83-0.93,13.33,0.2c-1.75-5.26-2.93-10.03-9.47-9.7
			c-1.23,0.06-2.5-0.83-3.77-1.23c-1.08-0.34-2.67-0.24-2.8-1.64c-0.18-1.93,1.88-1.42,2.91-2.03c0.53-0.31,1.29-0.21,1.94-0.34
			c0.9-0.19,2.23,0.36,2.57-0.85c0.33-1.2-0.66-2.15-1.36-3.08c-1.17-1.54-3.02-1.17-4.58-1.64c-2.2-0.66-4.89-0.18-6.6-2.74
			c1.17-0.49,2.04-0.96,2.98-1.22c3.85-1.08,3.89-2.58,1.52-5.77c-2.89-3.89-6.93-2.51-10.44-3.45c-1.57-0.42-3.71-0.02-4.14-1.98
			c-0.37-1.69,1.69-2.22,2.73-3.21c0.77-0.72,2.59-0.54,2.22-2.19c-0.32-1.43-1.81-1.24-2.91-1.41c-1.15-0.18-2.38,0.03-3.47-0.29
			c-1.18-0.34-3.08,0.5-3.42-1.18c-0.3-1.49,1.16-2.23,2.5-2.62c0.98-0.28,2.18-0.54,1.97-1.79c-0.24-1.5-1.7-1.26-2.82-1.39
			c-1.49-0.17-3.01-0.19-4.45-0.54c-1.21-0.3-2.94-0.41-3.01-2.09c-0.07-1.46,1.57-1.48,2.53-2.02c1.04-0.59,2.96-0.36,2.44-2.41
			c-0.38-1.51-1.79-1.87-3.07-2.24c-2.33-0.67-5.03,0.16-7.11-1.68c3.49-3.7,3.45-3.61-1.3-6.09c-2.3-1.2-4.6-1.7-7.17-1.63
			c-2.31,0.06-4.65-0.23-6.96-0.51c-1.93-0.23-2.34-1.46-0.95-2.69c4.83-4.25,0.14-4.51-2.3-5.17c-2.03-0.55-4.28-0.29-6.43-0.35
			c-1.68-0.05-3.26-0.02-4.15-1.99c-1.6-3.55-4.71-4.31-8.29-4.24c-2.1,0.04-4.48,0.72-6.17-1.1c-2.72-2.92-6.04-3.05-9.62-2.52
			c-2.14,0.32-4.65,0.99-6.34-0.41c-5.84-4.84-13.13-5.76-19.91-5.93c-26.58-0.69-53.08-2.08-79.19,6.57
			c-25.79,8.54-50.48,18.71-72.39,34.93c-19.26,14.26-32.55,33.56-44.56,53.84c-1.16,1.96-1.9,4.3-2.34,6.56
			c-1.44,7.43-5.07,14.11-7.46,21.19c-1.4,4.15-3.73,6.43,2.89,8.17c-6.25,1.19-8.38,5.03-8.22,10.29c0.13,4.1-5.14,9.2,3.12,11.82
			c-3.18,1.54-5.42,2.19-5.73,5.73c-0.37,4.38,5.05,1.62,4.82,5.14c-0.36,0.25-0.87,0.69-1.44,0.99c-5.18,2.69-5.2,3.05-0.43,6.76
			c1.86,1.45,0.69,2.47-0.76,2.67c-3.28,0.46-2.85,2.61-3.12,5.01c-0.41,3.6,1.71,6.88,0.09,10.82c-1.71,4.15,2.57,5.83,6.04,7.3
			c-6.16,3.75-5.39,7,2.86,12c-4.73,0.55-4.32,3.12-3.52,6.37c1.02,4.12,5.62,0.9,7.23,3.79c-0.55,0.45-0.93,0.75-1.29,1.06
			c-1.3,1.11-4.06-0.48-4.41,2.24c-0.37,2.81,1.53,3.63,3.86,4.19c1.39,0.33,1.95,1.37,0.51,2.49c-1.2,0.94-2.52,1.57-1.03,3.5
			c1.23,1.6,2.31,2.07,4.16,1.25c0.83-0.36,2.01-0.49,2.51,1.43c-3.37,0.68-4.3,2.31-1.76,5.25c1.41,1.63,2.65,0.64,4.04,0.43
			c1.39-0.21,3.07,0.04,3.52,1.28c0.67,1.83-1.31,2.08-2.45,2.31c-2.41,0.49-2.84,1.44-1.98,3.8c0.83,2.26,1.39,4.03,4.37,3.25
			c1.32-0.34,2.99,0.04,3.46,1.37c0.63,1.8-1.33,2.22-2.41,2.49c-3.02,0.76-2.29,2.53-1.74,4.59c0.69,2.6,2.53,2.75,4.64,2.65
			c1.23-0.06,2.61,0.29,3,1.38c0.54,1.49-0.99,1.85-2.04,2.26c-3.14,1.22-1.59,3.12-0.6,4.76c0.98,1.63,2.78,1.61,4.46,1.72
			c1.03,0.07,2.05,0.41,2.39,1.46c0.32,0.99-0.69,1.32-1.28,1.88c-2.47,2.35-1.97,4.54,1.35,5.41c1.68,0.44,3.58,0.19,4.77,1.95
			c-1.17,1.79-4.79,0.64-4.38,3.34c0.38,2.48,3.1,1.87,4.99,2.25c1.72,0.35,3.61,0.43,4.98,2.31c-1.46,1.34-3.24,1.64-5.01,1.93
			c-1.34,0.21-2.21,0.84-1.9,2.33c0.25,1.19,0.85,2.31,2.15,2.47c0.95,0.12,1.95-0.31,2.93-0.34c1.47-0.04,3.63-0.39,3.9,1.27
			c0.31,1.93-2,1.95-3.33,2.06c-4.84,0.39-2.32,2.64-1.23,4.51c0.95,1.62,2.63,1.05,4.06,1.26c1.62,0.24,3.71,0.29,3.89,2.32
			c0.13,1.48-1.71,1.81-2.95,2.2c-1.09,0.34-2.55,0.34-2.38,1.95c0.19,1.75,1.78,1.68,3.08,1.89c2.09,0.33,4.55-0.47,6.32,1.85
			c-2.4,1.86-4.74,1.19-6.99,1.05c-0.91-0.06-1.77,0.12-1.92,1.11c-0.09,0.56,0.14,1.34,0.51,1.79c3.47,4.24,12.34,3.27,14.41-1.81
			c2.89-7.07,8.09-9.94,15.46-10.45c6.84-0.47,13.2,1.35,19.67,2.83c3.89,0.89,6.33,0.32,7.77-4.27c4.22-13.44,20.22-18.1,31.39-9.5
			c5.5,4.24,13.62,3.97,18.72-0.8c2.55-2.38,4.99-4.92,7.23-7.59c3.3-3.93,7.53-4.85,12.17-3.83c3.39,0.74,6.77,1.86,9.9,3.37
			c8.09,3.9,10.77,3.55,17.19-2.72c2.55-2.48,4.5-5.33,6.08-8.48c7.08-14.14,21.53-18.45,35.61-10.77
			c6.84,3.72,13.52,7.89,21.88,7.52c3.22-0.14,4.92-1.32,5.86-4.23c1.1-3.4,0.95-6.9,1.17-10.39c0.47-7.32,3.88-12.33,9.22-14.08
			c8.38-2.75,22.89,0.77,26.59,10.36c1.65,4.28,3.59,4.15,6.94,0.71c4.16-4.26,6.7-9.4,9.07-14.78c2.26-5.11,6.02-9.13,12.11-8.97
			c5.88,0.15,10.29,2.74,12.6,8.78c2.4,6.3,7.17,7.26,13.76,2.89c-7.91-1.79-12.57-6.96-16.41-13.21c-1.81-2.95-4.95-4.33-8.18-5.4
			c-1.75-0.58-3.45-1.3-5.17-1.96c3.23-1.57,6.26-1.61,9.26-0.53c3.2,1.15,5.7,3.41,8.27,5.52c2.28,1.87,4.54,3.78,6.48,5.4
			c-3.16-9.7-9.71-15.96-20.36-17.66c-2.56-0.41-5.13-1.23-6.65-3.97c3.5-1.59,6.89-1.3,10.16-0.05c3.25,1.25,6.37,2.84,9.78,4.38
			c-0.19-11.81-11.21-10.3-17.63-15.15c5.78-1.44,10.24,1.47,15.27,2.26c-1.06-3.76-4.36-4.45-6.63-6.2
			c-2.44-1.89-5.15-3.44-8.33-5.54c6.34-3,9.69,2.39,14.64,3.72c-0.28-8.4-8.79-8.78-12.73-13.76c4.19-0.68,7.36,0.54,10.41,2.42
			c0.88,0.54,1.95,1.96,2.87,0.41c0.74-1.25,0.99-2.95-0.55-4.03c-1.08-0.76-2.38-1.21-3.47-1.97c-3.17-2.21-7.08-3.49-9.76-7.73
			c5.77-0.38,10.2,1.73,14.58,3.8c1.64-4.36,0.85-6.96-3.51-8.4c-2.44-0.81-5.03-2.07-6.52-4.87c3.01-0.8,5.44-0.18,7.72,0.84
			c3.65,1.64,3.47-0.6,3.31-3.02c-0.14-2.1-2-2.47-3.31-3.38c-2.47-1.7-5.7-2.18-8.01-4.66c2.7-1.35,4.89-0.35,7.15,0.03
			c1.21,0.21,2.93,2.05,3.71-0.41c0.55-1.74-0.18-3.08-2.05-3.96c-3.31-1.56-6.47-3.43-9.72-5.11c-1.12-0.58-2.06-1.23-1.84-2.61
			c0.24-1.47,1.53-1.68,2.69-1.71c1.14-0.03,2.28,0.23,3.42,0.32c2.27,0.17,5.37,3.28,6.49,0.83c1.85-4.04-3.09-4.06-5.21-5.74
			c-0.26-0.2-0.61-0.27-0.89-0.45c-1.93-1.25-5.78-1.31-4.69-4.68c1.11-3.44,4.56-1.36,6.49-0.82c3.93,1.1,3.79-0.57,3.44-3.4
			c-0.25-2.02-0.95-3.41-2.88-4.21c-2.67-1.1-5.29-2.34-8.73-3.87c3.15-1.16,5.53-1.14,7.91-0.76c2.2,0.35,2.79-0.36,2.78-2.66
			c-0.02-3.45-1.06-5.7-4.61-6.57C1031.06,17.35,1029.44,16.48,1027.49,15.7z M809.47,216.16c-4.5,2.17-4.76,6.85-6.89,10.27
			c-1.34,2.16,1.7,2.94,1.88,4.72c0.13,1.32,0.38,2.64,0.42,3.96c0.15,5.05-0.93,9.97-2.39,14.7
			c-5.72,18.64-15.44,35.39-26.46,51.22c-15.39,22.11-31.12,43.88-43.79,67.83c-14.07,26.6-25.59,54.1-34.69,82.71
			c-4.13,12.98-5.01,26.08-1.52,39.32c2.06,7.83,6.57,13.63,14.3,16.77c19.44,7.91,39.29,7.47,59.29,2.93
			c14.27-3.24,28.8-5.13,42.95-9.04c3.75-1.03,6.44-1.81,8.32-5.6c7.02-14.17,14.77-27.92,24.86-40.23
			c3.27-3.98,5.97-8.42,9.08-12.54c2.05-2.71,2.01-3.99-1.84-4.13c-6.44-0.23-12.87-0.09-19.34-0.83
			c-13.48-1.53-26.6-4.28-38.42-11.03c-5.87-3.35-10.95-8.11-16.43-12.16c-3.08-2.27-6.12-4.53-8.65-7.47
			c-7.21-8.38-8.87-18.53-8.91-28.97c-0.11-25.97,9.67-48.97,23.93-69.77c13.76-20.08,25.36-40.93,33.05-64.03
			c1.36-4.1,0.22-5.19-3.34-6.19c-8.86-2.49-11.67-10.49-6.7-18.46C808.84,219.06,810.18,218.27,809.47,216.16z M1088.38,798.66
			c-12.2-4.81-19.2-16.69-32.06-19.09c-0.78-0.15-1.71-0.65-1.66-1.59c0.08-1.37,1.36-1.16,2.28-1.32
			c8.23-1.38,13.62,3.76,19.38,8.27c13.18,10.34,27.68,16.06,44.77,12.1c1.11-0.26,2.55,0.01,3.05-1.29c0.7-1.84-1.25-2.01-2.1-2.86
			c-5.43-5.46-11.48-10.09-18.32-13.64c-0.74-0.39-1.79-0.68-1.3-1.65c0.3-0.6,1.39-1.22,2.04-1.15c2.29,0.25,4.43,1.02,6.38,2.37
			c1.49,1.03,4.04,2.46,4.89,1.04c1.85-3.08,5.21-4.25,7.73-6.51c-2.58-2.46-5.43-1.79-7.96-2.42c6.8-2.36,13.77-0.7,20.01,0.79
			c8.85,2.12,16.73,2.11,24.8-1.98c4.97-2.52,8.82-6.53,13.4-9.55c2.49-1.65,5.51-3.86,0.47-6.41c-0.99-0.5-1.41-1.86-0.82-2.61
			c3.52-4.51,2.04-9.95,2.97-14.93c0.32-1.71,0.24-3.57-1.07-4.64c-1.53-1.24-2.72,0.51-3.83,1.32
			c-5.98,4.38-13.11,7.38-16.85,14.45c-0.7,1.32-2.27,2.42-4.79,2.49c2.17-7.4,4.5-14.4,10.1-19.7c5.19-4.92,7.8-11.12,9.44-17.83
			c1.86-7.62,0.33-11.21-6.08-15.82c-1.87-1.35-3.83-2.76-5.23-4.55c-4.62-5.88-10.78-6.9-17.52-5.69
			c-6.69,1.2-10.69,7.64-9.52,14.71c1.04,6.28,5.59,9.61,12.17,8.89c5.72-0.62,7.26-3.03,4.87-8.35c-1.11-2.46-0.92-4.29,1.33-5.51
			c2.52-1.36,4.56-0.14,5.9,2.09c2.58,4.3,1.74,14.5-2.5,16.05c-6.03,2.2-5.33,6.44-5.85,10.76c-0.1,0.82-0.3,1.64-0.53,2.44
			c-3.41,11.87-10.95,19.04-22.2,24.87c-20.46,10.61-41.95,12.96-64.11,12.38c-11.44-0.3-22.71-3.18-33.88-5.72
			c-8.9-2.03-17.46-5.36-25.39-10.16c-22.53-13.64-40.96-31.59-56.95-52.4c-16.88-21.97-27.71-46.62-33.32-73.48
			c-4.21-20.17-3.21-40.79-2.69-61.27c0.28-10.86,2.08-21.67,5.47-31.92c11.33-34.3,31.97-63.05,55.29-90.05
			c6.17-7.14,12.16-14.36,17.96-22.54c-5.4-0.69-6.82,3.51-9.31,5.71c-23.32,20.52-39.76,46.33-55.6,72.62
			c-10.58,17.55-14.73,36.98-17,56.93c-2.98,26.29-2.45,52.52,2.81,78.51c4.62,22.83,15.24,43.11,26.71,63.15
			c11.18,19.53,24.68,37.02,40.87,52.56c11.45,10.98,23.97,20.28,38.35,27.22c9.96,4.8,20.03,8.84,30.96,10.62
			c1.81,0.29,4,0.93,5.19-0.38c1.3-1.43-1.15-2.38-1.61-3.7c-0.33-0.91-0.97-1.94,0.08-2.67c0.4-0.28,1.65-0.15,1.79,0.14
			c1.7,3.45,5.4,5.46,6.65,9.18c0.69,2.06,0.4,3.63-2.42,3.5c-4.97-0.22-9.99,0.67-14.91-0.46c-14.62-3.38-27.86-9.89-40.29-18.13
			c-16.34-10.82-30.22-24.26-43.22-38.92c-12.19-13.75-21.18-29.34-29.86-45.27c-3.02-5.54-5.94-11.13-8.91-16.7
			c-0.81,2.53-0.87,4.71-0.43,6.79c4.72,22.27,8.73,44.73,16.86,66.14c7.22,19.03,16.62,36.61,33.26,49.16
			c5.26,3.97,9.69,9.1,15.97,11.73c16.22,6.77,32.99,10.58,50.64,11.45C1053.54,817.24,1071.22,810.68,1088.38,798.66z
			 M964.49,931.15c0,4.01-0.08,6.64,0.03,9.26c0.09,2.15-1.07,3.73-2.71,4.38c-1.92,0.77-2.24-1.37-2.85-2.61
			c-1.21-2.46-3.63-3.47-5.82-4.43c-8.89-3.88-15.05-10.45-20.23-18.49c-2.35-3.65-3.17-8.17-7.41-10.94
			c-11.68-7.63-23.44-15.27-32.74-25.94c-9.05-10.39-20.77-18.29-27.92-30.46c-3.12-5.3-6.77-10.29-10.1-15.47
			c-1.26-1.96-2.04-3.11-5.02-1.9c-5.79,2.35-11.93,4.13-18.23,4.4c-4.67,0.2-5.27,2.3-4.89,6.35c1.61,17.1,5.58,33.74,8.9,50.54
			c3.56,18.04,13.53,32.72,22.8,47.86c1.17,1.91,3.07,3.72,5.06,4.71c8.11,4.01,14.96,9.85,22.28,14.97
			c14.43,10.1,30.79,12.2,47.71,12.61c10.95,0.26,21.2-3.52,31.83-5.04c6.68-0.96,12.21-4.02,17.61-7.7
			c2.65-1.81,3.84-3.26,0.71-5.89c-1.98-1.67-3.41-4.03-4.94-6.18C974.09,944.85,969.66,938.5,964.49,931.15z M1149.88,577.11
			c2.64-6.43,2.69-12.63,3.61-18.65c1.76-11.46,0.55-22.68-4.2-33.21c-6.6-14.63-12.52-29.7-23.09-42.17
			c-2.29-2.7-3.73-6.27-8.1-6.79c-12.61-1.5-25.32-1.55-37.98-2.85c-10.23-1.05-17.93-5.61-25.5-11.19
			c-4.91-3.62-9.53-7.99-10.96-14.4c-1.09-4.86-2.04-9.77-2.59-14.71c-0.34-3.01-1.77-4.04-4.46-4.12
			c-7.29-0.21-14.51-0.96-21.57-2.84c-1.85-0.49-2.93-0.17-3.94,1.73c-3.73,7.03-7.5,14.07-11.69,20.83
			c-2.05,3.3-0.68,4.14,2.1,5.15c12.96,4.71,25.88,9.53,38.82,14.28c8.88,3.26,11.81,10.01,7.52,18.61
			c-2.95,5.91-6.35,11.64-9.99,17.16c-4.65,7.07-4.84,6.96,2.85,9.98c2,0.79,4.03,1.55,6.09,2.14c16.92,4.86,33.77,9.69,50.24,16.21
			c14.12,5.59,26.18,13.28,36.94,23.53C1140.28,561.81,1144.42,569.49,1149.88,577.11z M1040.6,410.33
			c1.53,0.32,2.14,0.48,2.77,0.58c24.41,3.85,46.84,12.32,66.32,27.92c10.47,8.38,19.39,18.17,27.27,28.94
			c1.59,2.18,2.99,2.95,6.09,2.56c17.01-2.12,33.78-1.8,49.7,7.92c-2.74-21.97-11.54-40.58-27.36-55.4
			c-11.5-10.78-23.8-20.56-37.4-28.95c-9.61-5.93-20.39-8.91-29.88-14.75c-1.78-1.1-4.04-1.81-6.13-1.97
			c-8.09-0.63-15.57-3.39-23.09-6.1c-2.81-1.01-5.75-1.66-8.61-2.51c-1.67-0.49-2.74-0.14-3.58,1.58
			c-3.01,6.11-6.43,11.98-8.73,18.48C1045.5,395.64,1046.57,403.73,1040.6,410.33z M1108.5,276.55c0.03-9.34-5.35-19.8-11.93-25.11
			c-14.34-11.58-31.16-17.84-48.68-22.51c-12.62-3.36-25.6-5.35-37.77-10.43c-7.51-3.14-15.15-8.22-23.02-0.59
			c-0.34,0.33-0.86,0.52-1.33,0.67c-4.05,1.28-4.78,3.3-1.72,6.55c1.62,1.72,2.61,4.12,2.67,6.35c0.14,4.73,3.15,6.7,6.83,8.14
			c2.47,0.97,5.06,1.62,7.61,2.36c23.03,6.67,41.97,18.27,51.17,41.89c4.48,11.51,8.69,22.98,1.78,34.96
			c-4.34,7.52-6.91,15.78-10.35,23.67c-0.72,1.65-2.77,4.31-0.28,5.09c6,1.89,12.26,3.53,18.48,3.82c2.99,0.14,4.02-4.82,6.35-7.12
			c0.71-0.7,1.45-1.38,2.13-2.1c6.62-7.02,13.45-13.88,18.6-22.11c3.61-5.77,7.08-11.63,10.67-17.41
			C1104.95,294.23,1106.93,284.5,1108.5,276.55z M855.13,405.68c-5.62,0.28-10.61-1.32-15.63-2.2
			c-24.28-4.23-40.46-16.86-39.22-43.49c1.36-29.25,10.71-56.42,23.2-82.51c4.13-8.61,7.9-17.17,10.3-26.39
			c1.75-6.72,1.61-6.1-4.72-8.48c-5.12-1.92-5.92,0.41-6.93,4.24c-4.1,15.49-10.32,30.17-17.96,44.19
			c-8.81,16.17-20.79,30.45-28.08,47.59c-6.01,14.14-9.84,28.59-8.92,44.03c0.44,7.44,2.21,14.48,7.67,20.07
			c4.08,4.18,9.5,6.57,13.87,10.26c8.89,7.49,19.32,11.25,30.27,14.16c12.88,3.42,26.11,4.45,39.28,5.9
			c1.74,0.19,3.56,0.13,4.85-1.76c5.85-8.54,12.78-16.18,19.8-23.75c0.95-1.03,2.46-2.11,1.56-3.85c-0.83-1.61-2.38-0.62-3.61-0.62
			C872.07,403.08,863.55,405.95,855.13,405.68z M839.18,330.89c0.38,8.92,1.33,17.61,6,25.79c4.87,8.52,12.01,14.46,19.75,19.81
			c8.19,5.66,16.91,10.41,27.05,11.81c3.12,0.43,5.43-0.44,7.47-2.82c4.32-5.05,8.74-10.02,13.24-14.91c1.5-1.64,1.77-2.73-0.51-3.7
			c-6.23-2.64-10.89-7.54-16.29-11.36c-9.92-7.03-11.19-17.37-3.4-26.68c2.02-2.42,4.49-4.49,6.38-7c2.76-3.66,8.5-5.31,9.42-9.23
			c0.98-4.19-4.29-7.78-5.39-12.31c-0.72-2.97-2.65-4.21-5.64-4.71c-6.37-1.06-12.86-1.7-18.86-4.4
			c-12.66-5.7-12.77-5.81-22.39,4.03C846.35,305.09,837.69,315.6,839.18,330.89z M1148.58,616.29c8.27-7.58,14.21-16.61,19.05-26.38
			c5.36-10.84,5.58-22.62,4.63-34.26c-1-12.22-1.59-24.74-7.7-35.86c-13.84-25.21-30.33-48.57-49.7-69.85
			c-11.77-12.94-26.16-22.15-42.57-27.93c-15.91-5.6-32.89-6.85-49.09-11.37c-1.92-0.54-3.19-0.27-3.7,1.95
			c-0.59,2.59,1.24,2.75,2.87,2.98c4.77,0.68,9.55,1.35,14.35,1.87c10.26,1.11,19.27,6.35,29.1,8.76
			c18.5,4.54,32.29,16.36,44.76,29.5c12,12.63,21.64,27.27,31.31,41.83c6.49,9.76,13.08,19.4,16.31,30.71
			c2.48,8.69,6.57,17.23,5.07,26.7c-0.83,5.24-2.14,10.41-2.92,15.65c-2.19,14.92-10.92,26.37-20.34,37.15
			c-15.47,17.71-42.33,26.45-65.34,9.76c-6.45-4.68-7.95-11.03-7.55-17.88c0.36-6.2,4.3-10.56,10.27-12.98
			c4.56-1.84,8.32-1.92,11.19,2.85c1.1,1.84,2.81,3.46,5.38,2.74c1.91-0.54,3.1-1.81,3.43-3.87c0.39-2.44,0.17-4.5-1.95-6.27
			c-1.94-1.61-4.18-1.94-6.43-2.17c-4.45-0.46-6.3-2.4-4.73-6.95c1.22-3.55,1.19-7.23,0.34-10.86c-0.32-1.37-0.06-3.52-1.74-3.82
			c-2.23-0.39-2.12,2.07-2.89,3.41c-0.83,1.44-1.46,3.02-2.42,4.37c-1.45,2.03-3.08,4.61-5.67,4.42c-2.74-0.21-1.77-3.46-2.61-5.29
			c-0.41-0.91-0.74-1.86-1.1-2.79c-0.39-1-1.02-1.03-1.96-0.65c-3.89,1.59-11.21,13.31-10.19,17.34c1.9,7.51,3.95,15.02,6.63,22.27
			c1.9,5.14,1.64,6.34-3.82,6.53c-2.33,0.08-4.79-0.53-6.95,0.05c-2.1,0.56-7.7-5.98-6.42,3.06c0.26,1.84-3.49,5.94-8.09,3.3
			c-1.53-0.88-4.1-2.71-5.96-0.64c-1.84,2.05-0.11,4.29,0.68,6.43c3.21,8.74,10.34,13.97,17.17,19.51
			c4.96,4.02,10.66,5.19,16.86,4.83c11.24-0.65,22.1-2.82,32.3-7.79c1.53-0.74,3.3-2.49,4.93-0.65c1.3,1.47,0.71,3.47-0.04,5.2
			c-0.75,1.72-1.54,3.42-2.55,5.65c3.36-0.61,4.99-1.93,6.24-4.43c2.66-5.34,7.5-8.8,11.84-12.66c0.63-0.56,1.51-1.06,2.27-0.58
			c1.18,0.75,0.29,1.73,0.01,2.63c-0.86,2.8-3.63,4.6-4.32,8.01c3.35-1.37,5.23-2.88,6.55-6.34c2.06-5.4,6.88-8.98,11.73-13.03
			c0.99,3.73-2.09,5.69-1.92,8.48c8.43-3.45,7.93-13.92,15.06-18.46C1149.07,612.5,1147.03,613.98,1148.58,616.29z M1040.68,310.05
			c0.32-10.87-0.67-19.1-5.44-26.63c-3.14-4.96-7.85-8.07-12.21-11.6c-10.83-8.78-22.75-15.36-36.78-17.42
			c-1.49-0.22-2.72-0.43-3.86,1.21c-6.45,9.28-13.55,18.05-21.18,26.4c-2.89,3.16-1.65,9.22,2.38,10.08
			c11.03,2.35,20.21,9.24,31.03,12.07c6.24,1.63,8.9,6.53,9.27,12.74c0.31,5.21-0.21,10.43-2.06,15.24
			c-1.34,3.48,0.21,4.79,2.79,5.38c7.32,1.68,14.22,4.58,21.24,7.11c1.9,0.69,3.07,0.62,3.99-1.37
			C1035.13,331.92,1043.61,321.59,1040.68,310.05z M918.49,636.05c0.49,0.02,0.97,0.05,1.46,0.07c0.61-2.38,1.35-4.73,1.81-7.14
			c2.3-12.18,7.15-23.45,12.08-34.73c7.04-16.11,16.48-31.17,21.16-48.33c1.61-5.91,4.25-11.47,4.17-17.87
			c-0.05-3.66-1.05-5.67-4.26-7.45c-7.6-4.22-9.14-7.92-7.35-16.53c1.47-7.09,4.52-13.53,8.54-19.53c0.89-1.33,2.42-2.57,1.47-4.46
			c-1.83-3.65-1.8-7.66-2.22-12.3c-18.86,20.5-31.63,43.34-38.44,69.82C908.37,570.79,910.05,603.45,918.49,636.05z M836.78,264.28
			c-8.25,13.62-13.69,28.22-18.59,43.07c-5.75,17.42-10.39,35.07-10.98,53.53c-0.37,11.63,3.16,21.24,13.21,28.43
			c11.11,7.95,23.82,9.62,36.63,10.91c4.47,0.45,9.43,0.33,14.32-1.54c-3.43-3.31-7.61-4.2-11.1-6.31
			c-12.84-7.76-20.85-19.12-27-32.76c-8.16-18.12-7.86-35.62-0.5-53.57c3.39-8.26,8.89-15.17,13.71-22.52
			c0.64-0.98,3.1-2.26,0.77-3.55C840.99,276.54,839.1,270.29,836.78,264.28z M894.07,471.68c-0.19-1.43-0.37-2.25-0.4-3.08
			c-0.43-12.58-8.85-19.81-17.75-26.79c-1.99-1.56-2.42-0.04-3.37,1.12c-13.88,16.96-24.16,36.17-34.62,55.28
			c-1.41,2.57-0.69,3.28,1.88,3.07c11.98-0.98,20.78,4.46,27.51,13.81c1.85,2.57,3.06,1.7,4.48-0.09c3.01-3.77,6.14-7.45,8.94-11.36
			C887.77,493.86,891.32,482.65,894.07,471.68z M1174.52,587.52c6.43-8.55,13.07-16.79,17.66-26.49
			c6.75-14.29,9.03-29.42,10.35-44.95c1.45-17.12,2.17-33.98-2.37-50.92c-3.98-14.87-7.47-29.69-17.67-41.87
			c-6.6-7.87-11.55-17.13-20.18-23.27c-3.93-2.79-7.92-5.6-11.38-8.93c-10.59-10.17-22.7-17.21-37.25-20.01
			c-5.54-1.07-10.9-3.01-16.38-4.39c-17.55-4.41-34.36-11.81-52.73-12.98c-1.53-0.1-3.24-0.83-3.63,1.16
			c-0.34,1.72,1.34,2.49,2.75,3.06c0.77,0.31,1.6,0.47,2.41,0.64c12.39,2.51,24.8,4.77,36.98,8.35
			c17.39,5.11,34.86,9.46,50.32,19.83c18.27,12.27,34.12,27.01,45.87,45.36c9.77,15.26,16.23,32.18,18.11,50.71
			c1.95,19.26,1.12,38.13-4.99,56.5c-2.24,6.74-5.25,13.24-7.24,20.1c-0.32,1.11-0.71,2.35-1.46,3.16
			C1177.18,569.6,1178.45,579.48,1174.52,587.52z M1001.07,510.3c2.26-1,6.54,1.69,9.01-2.37c4.42-7.25,9.44-14.03,15.3-20.19
			c2.41-2.54,2.65-4.6-1.16-6.47c-10.87-5.34-22.83-7.58-33.91-12.3c-1.91-0.81-3.31,0.03-4.54,1.87
			c-6.55,9.79-13.28,19.45-19.9,29.19c-3.24,4.76-2.86,5.02,2.85,6.44c6.66,1.66,13.71,0.1,20.16,2.59
			C992.58,510.48,996.23,510.97,1001.07,510.3z M1143.21,475.28c20.21,22.99,33.44,49.04,37.18,79.43
			c15.09-20.66,14.26-44.1,12.81-69.27c-1.95,3.36-3.33,5.09-6.19,4.21c-5.7-1.76-11.72-2.72-17.12-5.11
			C1161.39,480.77,1152.21,479.03,1143.21,475.28z M809.47,572.2c4.61-5.46,7.39-10.53,11.28-14.83
			c11.18-12.32,24.84-21.55,38-31.41c3.37-2.52,2.81-3.92,0.23-6.35c-3.63-3.42-7.67-5.71-12.64-6.51
			c-3.27-0.52-6.69-0.96-9.64-2.31c-3.25-1.48-4.71-0.87-6.1,2.27c-7.62,17.2-14.38,34.71-19.91,52.69
			C810.18,567.42,810.03,569.17,809.47,572.2z M925.11,247.12c-5.91-0.29-9.89-0.38-13.86-0.71c-2.58-0.21-3.53,0.96-2.9,3.2
			c2.36,8.37,3.31,16.92,3.67,25.57c0.13,2.96,1.73,4.25,4.6,4.87c5.84,1.26,11.67,2.69,17.37,4.45c2.68,0.83,4.11-0.07,6.12-1.62
			c4.03-3.09,5.01-6.7,3.59-11.35c-1.01-3.33-1.52-6.84-2.78-10.06c-1.68-4.28,0.27-10.57-3.63-12.8
			C933.51,246.5,927.96,247.39,925.11,247.12z M1035.79,409.75c2.34,0.51,2.92-0.39,2.52-2.68c-0.61-3.5,0.06-6.92,1.14-10.28
			c3.01-9.38,7.19-18.2,12.76-26.31c1.69-2.46,1.46-3.14-1.51-3.62c-4.41-0.72-8.74-1.88-13.09-2.93c-1.48-0.36-2.81-0.98-3.89,0.8
			c-5.5,9.07-12.13,17.28-19.4,24.97c-1.62,1.72-1.52,2.71,0.04,4.51c2.7,3.12,6.75,5.64,5.82,10.83c-0.2,1.14,0.98,1.57,2,1.79
			C1026.71,407.8,1031.25,408.78,1035.79,409.75z M967.95,242.53c3.82-0.13,7.64-0.2,11.27,1.41c13.97,6.18,28.66,10.83,41.83,18.72
			c8.43,5.05,17.14,10.86,21.07,19.96c6.39,14.8,6.99,30.18-0.05,45.48c-7.7,16.74-17.81,31.85-29.18,46.23
			c-2.47,3.12-4.62,6.5-6.87,9.79c-0.78,1.14-1.48,2.47,0.21,3.38c1.51,0.81,1.94-0.66,2.6-1.55c2.09-2.79,4.06-5.69,6.31-8.35
			c8.15-9.62,17.13-18.58,22.01-30.61c1.73-4.28,3.67-8.52,6.23-12.46c15.63-24.07,7.16-61.68-16.36-75.11
			c-16.89-9.64-34.57-14.96-52.93-19.38c-3.97-0.95-8.26-0.53-12.4-0.77c-1.04-0.06-2.12-0.16-2.34,1.16
			c-0.26,1.59,0.9,2.04,2.14,2.09C963.63,242.6,965.8,242.53,967.95,242.53z M891.4,391.85c-8.51-0.04-14.82-4.74-21.88-7.47
			c-19.88-7.68-28.67-24.13-33.23-43.18c-4.42-18.48,1.52-34.24,15.07-47.6c10.65-10.49,22.04-20.35,30.69-32.72
			c0.63-0.9,3.38-1.27,1.35-3.24c-1.5-1.46-2.97-1.29-4.62,0.18c-4.84,4.32-10.02,8.27-14.73,12.72
			c-14.16,13.38-26.46,27.91-31.82,47.4c-5.6,20.35,0.11,37.87,12.57,53.56c10.58,13.33,26.7,17.26,41.93,22.38
			C888.03,394.33,889.7,394.74,891.4,391.85z M1048.51,431.69c1.81,2.84,3.49,5.61,4.94,8.53c5.49,11.09,15.38,16.26,26.58,19.56
			c3.97,1.17,7.94,2.2,11.78,3.84c6.9,2.95,14.37,3.75,21.9,5.67C1097.16,447.16,1073.18,439,1048.51,431.69z M1079.33,531.96
			c-6.33-1.99-12.53-4.6-19-5.84c-16.17-3.09-32.4-6.03-48.72-8.14c-15.54-2.01-30.98-4.46-46.36-7.33
			c-6.71-1.25-8.12-4.48-5.26-10.77c0.96-2.11,2.12-4.17,3.44-6.08c5.77-8.35,11.64-16.63,17.46-24.94
			c0.75-1.08,1.85-2.28,0.25-3.41c-1.3-0.91-2.14,0.23-2.88,1.12c-1.28,1.54-2.61,3.04-3.75,4.68c-6.81,9.75-13.67,19.47-20.3,29.34
			c-3.67,5.46-2.69,9.84,2.79,13.47c4.67,3.1,9.98,4.63,15.52,5c20.08,1.34,40.22,2.52,60.04,5.78
			C1048.12,527.39,1063.76,529.57,1079.33,531.96z M913.93,191.17c-1.67,0.7-2.45,2.23-3.15,3.7c-2.2,4.6-5.14,8.73-9.32,11.53
			c-4.15,2.77-5.33,5.08-2.03,9.57c2.52,3.43,2.49,8.18,3.81,12.27c0.47,1.46,0.85,4.72,3.88,2.68c6.4-4.32,13.36-7.42,20.64-9.87
			c1.49-0.5,2.27-1.29,1.38-2.97c-4.41-8.31-8.78-16.64-13.18-24.95C915.51,192.28,915.22,191.21,913.93,191.17z M922.5,354.21
			c2.62-0.17,4.27,0.32,5.4-1.58c3.22-5.42,6.43-10.86,10.49-15.74c1.39-1.67,1.19-2.72-1.33-3.27c-3.57-0.79-6.69-2.88-10.03-4.31
			c-3.97-1.7-6.61-7.69-10.92-5.96c-3.97,1.59-6.73,6.19-10.01,9.48c-0.7,0.7-1.34,1.47-2.02,2.2c-1.99,2.15-1.93,4.5-0.58,6.89
			C907.9,349.73,916.11,351.35,922.5,354.21z M998.01,383.21c1.83,0.29,2.62-0.49,3.27-1.53c4.44-7.06,9.8-13.38,15.49-19.45
			c0.97-1.04,1.96-2.14-0.3-2.86c-7.26-2.31-14.12-5.77-21.54-7.68c-2.25-0.58-3.38-0.11-4.21,2.01c-2.46,6.25-6,11.82-10.68,16.66
			c-0.69,0.72-2.33,1.73-0.82,2.78C985.22,377.3,991.89,380.23,998.01,383.21z M1016.65,508.75c2.44,0.89,3.71-0.05,4.86-1.74
			c5.81-8.52,12.29-16.53,18.8-24.52c4.51-5.54,3.66-7.89-3.11-10.17c-19.98-6.74-40.81-11.06-59.63-21.09
			c-2.16-1.15-4.7-1.66-7.13-2.22c-1.72-0.4-3.95-1.03-4.72,1.32c-0.78,2.39,1.35,3.11,3.05,3.76c9.61,3.7,19.15,7.6,28.88,10.96
			c10.05,3.48,20.34,6.3,30.44,9.65c5.43,1.8,6.64,4.86,5.4,10.49c-0.99,4.48-3.68,7.67-6.8,10.74
			C1022.82,499.72,1018.94,503.52,1016.65,508.75z M891.15,340.14c-0.14,2.21,0.59,3.54,1.27,4.88c3.01,5.89,7.65,10.13,13.75,12.49
			c15.98,6.19,32.26,11.58,47.96,18.48c2.21,0.97,3.19-0.18,3.83-1.8c0.75-1.92-0.95-2.1-2.19-2.49c-3.17-1-6.45-1.75-9.5-3.05
			c-13.9-5.92-28.11-11.11-41.59-18.05c-8-4.12-9.91-11.73-3.8-18.33c3.73-4.02,7.46-8.09,11.85-11.44
			c0.77-0.59,2.04-1.16,1.56-2.23c-0.31-0.69-1.57-0.95-2.4-1.42c-1.72-0.96-3.4-0.62-4.5,0.81c-3.29,4.29-7.86,7.14-11.64,10.86
			C892.48,332.06,892.42,336.7,891.15,340.14z M821.93,784.64c1.59,11.45,2.08,22.5,2.49,33.55c0.13,3.49,0.38,6.98,0.64,10.46
			c0.14,1.94,0.52,3.76,3.21,3.23c4.73-0.94,9.47-1.8,14.17-2.83c3.77-0.83,4.89-2.46,2.18-6.06
			c-7.83-10.39-14.68-21.37-19.01-33.77C825.06,787.65,824.24,785.88,821.93,784.64z M977.2,166.21c-1.05-0.12-2.15-0.15-2.2,1.26
			c-0.19,5.43-0.89,10.79-1.67,16.16c-0.21,1.45,1.15,2.6,2.31,3.65c3.94,3.57,8.75,6.17,12.53,9.67c4.78,4.43,6.87,1.42,9.66-1.48
			c0.91-0.95,1.52-2.18,2.4-3.17c1.57-1.75,0.98-2.85-0.44-4.57c-5.14-6.27-11.8-11.14-16.39-17.9
			C981.94,167.66,979.92,166.31,977.2,166.21z M957.03,340.35c-0.96-0.19-2.06,0.93-2.45,2.08c-2.14,6.43-6.19,11.74-9.8,17.32
			c-1.4,2.17-0.82,3.18,1.63,3.83c4.97,1.31,10.22,1.54,14.97,3.77c1.21,0.57,2.22,0.18,2.96-1.03c3.55-5.83,7.15-11.63,10.69-17.46
			c0.57-0.94,1.57-2.25-0.2-2.85C969.15,344.1,963.41,342.37,957.03,340.35z M886.16,244.91c-4.66,0-8.27-0.41-11.74,0.11
			c-3.68,0.56-7.27,0.08-10.89,0.13c-11.23,0.14-11.26,0.1-12.37,11.49c-0.32,3.31-0.87,6.74,3.35,8.31
			c3.89,1.45,7.78,4.54,11.31-0.68c0.62-0.92,1.77-1.47,2.66-2.22C874.5,256.93,880.51,251.79,886.16,244.91z M915.6,236.55
			c1.65,0.17,2.89-0.8,4.14-1.52c16.73-9.62,35.34-13.33,53.93-16.84c14.89-2.81,25.81-10.73,33.61-23.37
			c1.48-2.41,3.45-4.71,3.87-8.01c-3.07,0.61-3.54,3.02-4.66,4.74c-5.18,7.94-11.16,15.15-20.46,18.2
			c-7.88,2.59-16.03,4.38-24.09,6.4c-14.8,3.72-30.08,5.85-43.56,13.88C915.49,231.76,914.25,233.38,915.6,236.55z M1010.53,409.91
			c-1.04,4.57-4.16,8.94-6.71,13.55c-4.34,7.85-8.83,15.62-13.25,23.42c-0.57,1-1.5,2.16-0.1,3.01c1.78,1.08,2.16-0.61,2.81-1.74
			c1.41-2.45,2.74-4.96,4.35-7.28c5.84-8.47,12.05-16.68,16.03-26.3c3.7-8.94,3.17-11.41-4.75-17.16
			c-5.34-3.87-10.9-7.42-16.25-11.27c-4.37-3.14-8.98-5.72-14.29-6.83c-1.71-0.36-4.01-1.58-4.95,0.5
			c-1.16,2.56,1.62,3.35,3.24,4.11c10.27,4.83,19.74,10.97,29.33,16.99C1009.31,403.01,1010.33,405.67,1010.53,409.91z
			 M974.82,414.2c-5.23-1.33-9.96-1.78-14.59-2.98c-8.03-2.09-8.56-1.47-13.16,5.75c-1.07,1.68-1.96,3.61-3.42,4.86
			c-3.91,3.34-1.61,5.01,1.54,6.32c4.12,1.71,8.61,2.54,12.43,4.97c1.43,0.91,2.14,0.08,2.88-0.85
			C965.12,426.44,969.74,420.61,974.82,414.2z M912.25,397.83c1.14,0.35,1.91,0.76,2.7,0.79c15.83,0.43,31.32,3.89,47.04,5.3
			c12.96,1.16,25.59,4.03,38.13,7.34c2.23,0.59,4.81,2.21,5.69-1.27c0.86-3.36-2.35-2.91-4.23-3.47
			c-14.04-4.22-28.87-4.34-42.98-8.42c-5.36-1.55-11.24-2.54-16.74-2.08c-8.23,0.69-16.23,0.25-24.27-1.19
			C915.25,394.4,913.8,395.5,912.25,397.83z M942.36,394.29c4.77,1.55,7.2-4,10.23-8.48c0.7-1.03,1.62-2.64-0.33-3.28
			c-6.91-2.25-13.82-6.99-20.69-6.09c-5.06,0.66-7.4,8.32-11.24,12.63c-1.67,1.88-1.11,2.92,1.27,3.17
			C927.71,392.85,933.82,393.44,942.36,394.29z M959.66,313.13c-0.72-8.16-0.41-15.52-1.89-22.72c-0.21-1,0.82-2.72-0.91-2.87
			c-1.53-0.14-3.09,0.98-3.24,2.57c-0.3,3.08-1.63,5.9-1.22,9.23c1.33,10.61,1.27,20.88-4.1,30.99c-4.5,8.46-8.9,16.65-16.25,22.96
			c-1.21,1.04-2.83,2.39-1.15,4.15c1.43,1.5,3.07,0.72,4.46-0.36c0.79-0.61,1.5-1.31,2.21-2.02c10-10.02,15.22-22.85,20.69-35.5
			C959.22,317.34,959.33,314.73,959.66,313.13z M963.13,331.42c-0.99-0.07-2.12-0.56-2.7,0.59c-0.55,1.09-0.31,2.29,0.43,3.3
			c1.3,1.75,3.36,2,5.23,2.66c9.72,3.42,20,4.77,29.69,8.36c7.46,2.76,15.2,4.75,22.67,7.48c3.38,1.23,4.36-1.32,5.41-2.94
			c1.56-2.41-1.21-3.02-2.64-3.56c-2.63-1-5.45-1.46-8.16-2.26c-6.85-2-13.81-3.72-20.5-6.17
			C982.99,335.35,972.83,334.36,963.13,331.42z M880.88,231.45c5.88,0.2,7.15-1.6,4.5-6.03c-3.44-5.76-6.97-11.43-14.1-13.81
			c-3.59-1.2-5.2-0.5-6.41,2.72c-1.7,4.51-3.33,9.06-5.27,13.47c-1.3,2.94-0.68,3.98,2.51,3.69
			C868.69,230.88,875.28,230.42,880.88,231.45z M929.72,306.76c8.91-10.36,19.52-18.41,28.94-27.68c4.98-4.9,10.26-9.45,12.15-16.62
			c0.95-3.6-1.05-3.53-3.43-3.05c-1.6,0.32-2.29,1.82-3.23,2.95c-4.03,4.83-7.88,9.83-12.1,14.49c-6.9,7.6-13.93,15.09-21.17,22.37
			C928.4,301.7,927.86,303.86,929.72,306.76z M970.19,209.12c5.16-1.25,10.36-2.45,15.15-4.87c2.35-1.19,1.31-1.91-0.39-2.91
			c-5.24-3.09-9.45-7.39-12.48-12.61c-1.3-2.25-1.93-2.1-3.46-0.46c-2.89,3.09-6.17,5.55-10.63,5.94c-2.55,0.22-2.41,1.6-0.76,2.82
			c3.82,2.8,6.16,6.91,9.38,10.23C967.92,208.2,968.47,209.58,970.19,209.12z M886.94,281.15c-0.01,0.12-0.03,0.23-0.04,0.35
			c-1.49,0-3.02-0.18-4.47,0.05c-1.36,0.22-3.59-0.37-3.87,1.27c-0.36,2.05,1.6,3.29,3.42,3.6c12.56,2.18,24.66,6.68,37.49,7.52
			c2.42,0.16,4.55-1.13,5.22-2.94c0.59-1.58-1.92-2.36-3.28-3.09c-1.74-0.93-3.63-1.79-5.55-2.12
			C906.24,284.14,896.58,282.68,886.94,281.15z M997.15,322.27c-0.49-7.81-4.51-12.29-10.64-15.16c-5.59-2.61-11.53-4.22-17.45-5.85
			c-1.97-0.54-4.76-2.98-5.96,0.34c-0.93,2.57,1.92,3.88,3.94,5.01c1,0.56,2.16,0.83,3.23,1.29c5.04,2.13,10.22,3.99,15.07,6.49
			c6.48,3.35,7.59,6.49,5.65,13.42c-0.27,0.96-0.62,1.9-0.84,2.87c-0.28,1.24-0.99,2.66,1.02,3.2c1.64,0.44,3.03,0.24,3.52-1.65
			C995.6,328.7,996.44,325.16,997.15,322.27z M986.3,324.85c0.27-1.69-0.36-2.91-1.91-3.64c-4.95-2.3-9.77-4.94-14.88-6.81
			c-5.56-2.03-5.26-1.63-6.49,4.14c-0.99,4.65-0.03,6.99,4.74,8.14c3.66,0.89,7.05,2.81,10.65,4.04
			C984.8,332.92,986.23,331.8,986.3,324.85z M981.18,445.82c1.63,0.11,2.05-1.15,2.73-2.02c4.86-6.11,8.16-13.32,13.39-19.18
			c1.71-1.92,0.76-3.52-1.05-4.43c-1.82-0.91-3.67-3.15-5.9-0.05c-4.23,5.91-8.82,11.55-13.13,17.4c-1.1,1.49-3.78,3.15-2.41,4.86
			C976.22,444.17,979.08,444.77,981.18,445.82z M930.51,193.95c2.33,4.36,4.71,8.7,6.97,13.1c4.44,8.68,4.37,8.51,13.97,6.23
			c3.75-0.89,3.02-1.86,1.47-4.45C947.85,200.43,939.11,197.51,930.51,193.95z M957.27,393.12c2.11-0.09,3.29-1.64,4.23-3.15
			c2.62-4.24,5-8.63,7.56-12.91c4.95-8.26,9.97-16.49,14.94-24.74c0.72-1.2,3.41-2.21,0.98-3.89c-2.03-1.4-3.21,0.31-4.28,1.98
			c-5.86,9.09-11.84,18.1-17.66,27.21c-2.51,3.93-4.74,8.03-7.05,12.08C955.08,391.27,954.36,392.91,957.27,393.12z M930.82,428.24
			c0.1,0.55,0.21,1.54,0.48,2.5c1.32,4.74,13.74,12.74,18.79,12.13c0.89-0.11,1.71-0.45,1.94-1.31c0.24-0.9-0.53-1.43-1.15-2.02
			c-2.95-2.82-6.72-4.29-10.21-6.2c-6.97-3.82-7.7-7.5-2.29-13.61c2.44-2.75,4.89-5.45,6.8-8.6c0.49-0.81,1.36-1.7,0.31-2.62
			c-0.9-0.78-1.96-0.34-2.74,0.26c-6.16,4.75-8.43,12.03-11.92,18.52C930.76,427.42,930.82,427.62,930.82,428.24z M895.28,273.97
			c-0.89-4.71-1.8-9.41-2.65-14.12c-0.27-1.51-1.06-2.29-2.3-1.17c-4.04,3.67-9.06,6.16-12.53,10.5c-1.23,1.54-1.94,2.94,0.74,3.54
			c4.84,1.1,9.71,2.1,14.56,3.16C894.73,276.24,895.75,275.91,895.28,273.97z M857.16,217.37c-3.04,11.19-7.75,21.43-11.62,32
			c-1.78,4.85-3.11,9.8-1.89,15.1c0.92,3.98,3.48,5.87,7.78,6.45c-6.89-4.03-3.73-9.59-2.89-14.77c1.9-11.69,6.02-22.73,9.72-33.9
			C858.74,220.79,860.1,219.2,857.16,217.37z M947.69,309.91c0.05-3.89-5.26-8.06-8.22-6.15c-2.72,1.75-6.25,4.12-6.43,7.04
			c-0.17,2.72,3.96,3.82,6.66,4.93c6.71,2.77,7.66,2.12,7.98-5.33C947.69,310.25,947.68,310.08,947.69,309.91z M951.98,264.7
			c0.36-9.27-1.95-17.88-4.88-26.38c-0.66-1.91-0.4-3.76-4.01-2.45c-3.56,1.29-2.57,2.77-1.66,4.56c3.37,6.6,5.24,13.63,6.35,20.88
			C948.16,263.8,949.5,264.6,951.98,264.7z M813.24,221.02c-5.22,3.91-5.31,9.47-0.13,12.86c2.4,1.57,5.04,2.54,8.02,2.26
			c5.15-0.47,10.29-0.72,15.45,0.08c0.98,0.15,2.37,0.58,2.98-1.34c-2.84-0.8-5.59-1.71-8.42-2.33c-3.08-0.67-6.24-1.01-9.34-1.6
			C813.39,229.33,813.02,228.87,813.24,221.02z M915.2,303.13c-2.01,0.98-0.5,2.46,0,3.49c4.88,10.07,13.58,15.45,23.69,19.06
			c1.47,0.53,3.31,2.29,4.3,0.31c1.11-2.21-1.76-2.26-2.92-3.1c-7.53-5.46-16.66-8.98-21.43-17.78
			C918.14,303.81,916.85,303.45,915.2,303.13z M962.4,475.52c3.21-3.02,4.77-6.93,7.14-10.25c0.79-1.11,3.61-2.81,0.42-4.21
			c-2.91-1.28-6.18-4.4-9.17-1.62c-1.71,1.59-5.32,5.2-3.68,6.6C960.2,468.7,960.53,472.25,962.4,475.52z M905.25,267.49
			c-0.5-3.72-0.82-7.47-1.52-11.15c-1.91-10.09-2.26-20.6-7.66-29.79c-0.66-1.12-0.92-3.51-2.86-2.56c-1.69,0.83-0.5,2.72-0.07,4.05
			c2.19,6.79,4.48,13.54,6.6,20.35C901.71,254.72,902.51,261.29,905.25,267.49z M988.05,399.36c-0.26-1.05-0.24-1.54-0.42-1.63
			c-6.06-3.04-12.34-5.69-17.74-9.92c-0.88-0.69-1.44-0.2-2,0.56c-1.6,2.22-3.26,4.4-5.6,7.55
			C971.72,395.41,979.55,398.73,988.05,399.36z M957.19,264.35c2.33-2.77,4.04-4.74,5.68-6.77c2.04-2.52,6.77-5.22,5.51-7.45
			c-1.45-2.57-6.55-1.1-10.04-1.6c-2.41-0.35-4.08,0.3-3.22,3.6C956.09,255.78,956.42,259.6,957.19,264.35z M845.5,218.78
			c-3.46,1.5-6.52,1.09-9.17,1.85c-3.21,0.92-3.31,4.63-4.52,7.45C841.82,229.06,841.82,229.06,845.5,218.78z M966.58,233.1
			c1.03-0.62,3.71,0.75,3.23-1.57c-0.43-2.04-0.62-5.71-3.79-5.32c-4.2,0.51-8.28,2.09-12.4,3.26c-0.59,0.17-1.4,0.51-1.12,1.29
			c0.18,0.51,0.96,1.25,1.34,1.18C958.18,231.11,962.26,232.78,966.58,233.1z M826.33,227.37c3.45,0.14,3.91-3.87,4.74-5.97
			c1-2.53-2.74-1.85-4.25-2.46c-2.1-0.84-7.43,3.12-7.07,4.99C820.36,227.14,823.41,226.58,826.33,227.37z M933.67,211.95
			c-1.76-3.44-3.64-7.32-5.74-11.07c-0.57-1.01-0.23-3.64-2.58-2.51c-1.42,0.68-1.72,2.39-0.92,3.93c1.98,3.82,4.01,7.62,5.99,11.44
			c0.43,0.83,0.93,1.37,1.9,0.84C933.19,214.11,934.18,213.68,933.67,211.95z M868.74,240.28c2.14-0.17,4.29-0.29,6.42-0.53
			c1.07-0.12,2.6,0.07,2.58-1.58c-0.02-1.71-1.44-2.07-2.83-2.09c-3.14-0.04-6.28-0.06-9.42,0.03c-1.81,0.05-3.55,0.94-3.37,2.85
			c0.2,2.15,2.33,1.09,3.64,1.29C866.73,240.39,867.74,240.27,868.74,240.28z M853.08,215.43c-2.1,1.03-7.76,11.05-7.31,12.63
			c0.1,0.36,0.72,0.9,0.93,0.83c0.56-0.19,1.26-0.54,1.51-1.03C850.14,223.94,852.49,220.15,853.08,215.43z M951.7,198.67
			c-0.46,4.22,3.13,5.03,4.54,7.54c0.35,0.63,1.21,0.37,1.79-0.02c1.06-0.71,0.49-1.48-0.11-2.03
			C955.89,202.3,953.78,200.5,951.7,198.67z"/>
		<path d="M1022.89,948.64c0,0-0.2,0.22-0.2,0.22c2.42-1.02,3.2,1.2,4.42,2.34c7.03,6.63,15.05,11.35,24.76,12.59
			c5.62,0.72,11.3,0.78,16.94-0.02c1.51-0.21,3.8,0.41,4.14-1.78c0.29-1.9-1.23-3.34-2.74-4.46c-1.69-1.25-5.25-0.52-4.76-4
			c0.46-3.26,3.78-3.35,6.03-4.58c1.43-0.78,3.32-0.64,4.55-2.42c-5.97-4.62-10.11-11.19-16.48-15.46c-2.35-1.57-3.41-4.53-3.3-6.73
			c0.12-2.56,3.59-2.72,5.74-2.85c8.91-0.57,17.44-2.49,25.46-6.41c5.39-2.64,11.04-5.16,11.96-12.2c0.14-1.06,0.94-2.41-0.41-3.17
			c-1.05-0.59-1.81,0.49-2.62,0.98c-1.57,0.95-3.04,2.06-4.66,2.9c-1.08,0.56-2.41,1.83-3.54,0.4c-0.87-1.1,0.1-2.36,0.95-3.06
			c9.43-7.82,8.69-17.91,6.47-28.36c-0.31-1.45-0.67-2.91,0.14-4.85c3.09,4.46,2.05,10.18,5.44,14.52
			c2.82-3.49,4.42-7.29,5.99-11.06c3.12-7.47,7.59-13.97,13.17-19.83c10.09-10.6,19.24-22.1,30.65-31.44
			c9.25-7.57,19.32-13.42,30.84-16.91c6.83-2.07,13.4-5,20.06-7.62c7.31-2.88,14.17-2.37,20.98,1.77c3.52,2.14,7.5,3.57,11.37,5.07
			c5.97,2.31,10.35,6.41,14.09,11.46c13.36,18.03,13.89,37.32,4.84,57.04c-4.51,9.83-13.58,13.97-24.02,15.4
			c-12.23,1.67-22.66-3.36-28.18-13.81c-4.34-8.21-3.35-18.27,2.39-24.29c6.98-7.31,19.4-10.66,26.96-7.26
			c3.82,1.72,4.98,7.15,2.81,12.86c-1.79,4.71-4.98,2.47-7.86,1.62c-2.49-0.73-4.9-2.6-7.57-0.86c-1.88,1.23-4.16,2.26-3.7,5.31
			c0.65,4.3,1.93,8.32,6.2,10.16c7.54,3.25,17.76-2.27,20.75-9.91c5.26-13.42,2.51-25.39-5.05-36.88c-1.49-2.27-3.26-4.39-5.59-5.62
			c-5.58-2.95-11.28-5.69-17.05-8.24c-3.81-1.68-7.68-0.23-11.14,1.25c-8.1,3.47-16.54,5.86-24.84,8.68
			c-10.36,3.52-19.11,9.93-26.78,17.57c-14.06,14-29.6,26.61-40.96,43.19c-0.64,0.93-1.6,2.11-2.57,2.27
			c-7.22,1.24-7.22,7.36-8.73,12.98c4.95-2.39,5.41,0.92,5.81,4.41c0.88,7.64-2.61,13.4-8.47,17.52
			c-7.47,5.25-15.41,9.97-24.87,10.47c-3.33,0.18-6.71-1.02-10.4,0.19c10.78,1.1,15.51,12.7,26.02,14.23
			c1.7,0.25,4.18,0.9,4.06,2.98c-0.14,2.35-2.12,4.15-4.4,4.94c-3.12,1.08-6.32,2.01-9.54,2.7c-2.93,0.63-3.13,1.76-1.56,4.09
			c5.77,8.54,4.98,10.45-5.24,12.66c-14.79,3.21-28.6,1.3-41.22-7.6C1023.7,958.4,1022.77,953.82,1022.89,948.64z"/>
		<path d="M1046.81,926.32c3.58,1.56,6.34,1.75,8.44,3.53c0.83,0.7,1.46,1.5,1.14,2.55c-0.33,1.1-1.34,1.3-2.42,1.3
			c-2.86,0.01-5.48-0.84-6.73-3.44c-1.32-2.74-2.85-2.06-4.73-1.04c-6.04,3.27-12.45,4.45-19.26,3.35c-1.65-0.27-3.74-0.22-4.2-2.05
			c-0.58-2.29,1.7-3.39,3.27-3.69c8.63-1.66,15.09-7.47,22.51-11.41c1.75-0.93,3.37-2.02,4.83-3.45c0.96-0.94,1.24-3.8,3.51-2.31
			c1.84,1.2,2.87,3.03,2.23,5.59c-0.97,3.87-3.02,6.98-5.89,9.6C1048.92,925.38,1048.08,925.64,1046.81,926.32z"/>
		<path d="M1065.4,912.06c-2.21,0.32-2.98-0.92-3.82-1.88c-1.17-1.32,0.18-2.17,0.91-2.88c1.76-1.74,3.54-3.5,5.54-4.92
			c7.24-5.14,11.82-12.83,18.22-18.78c1.19-1.11,2.19-2.23,3.78-1.38c1.75,0.94,1.7,2.58,1.22,4.34
			c-2.26,8.22-8.63,13.17-14.7,18.26C1073,907.79,1069.21,910.5,1065.4,912.06z"/>
		<path d="M1042.45,933.44c6.4,1.65,12.76,5.25,18.24,10.39c0.78,0.73,1.71,1.85,0.94,3.07c-0.93,1.49-2.31,0.75-3.57,0.38
			c-6.97-2.05-12.68-6.26-18.23-10.72c-0.61-0.49-1.95-1.12-1.02-2.32C1039.43,933.44,1040.45,933.18,1042.45,933.44z"/>
		<path d="M1085.95,906.31c-1.73,6.87-6.56,9.45-12.06,11.08c-2.33,0.69-5.75,3.23-7.09,0.08c-1.52-3.57,2.37-4.86,5.13-5.94
			C1076.36,909.79,1080.83,908.2,1085.95,906.31z"/>
		<path d="M1005.96,955.95c-9.6-4.92-12.33-14.64-16.64-23.26C996.8,939.1,1001.82,947.22,1005.96,955.95z"/>
		<path d="M1053.31,951.08c-8.76-2.31-16.12-6.98-22.55-13.21C1039.24,940.66,1047.56,943.72,1053.31,951.08z"/>
		<path d="M1065.01,894.99c0.21-0.27,0.41-0.55,0.62-0.82c4.36-2.37,6.16-7.03,9.68-11.19c-0.2,8.56-4.18,13.96-10.56,17.88
			c-1,0.61-2.41,1.91-3.49,0.45c-0.91-1.22,0.09-2.45,1.08-3.43C1063.26,896.95,1064.12,895.96,1065.01,894.99z"/>
		<path d="M914.56,126.4c-2.94-0.36-4.56,2.28-7.01,3.11c-3.95,1.34-1.28,4.57-1.48,6.86c-0.25,2.91-2.27,3.76-4.23,4.1
			c-2.55,0.43-2.36-2.18-2.92-3.79c-0.52-1.49,0.69-3.38-1.01-4.61c-2.62-1.89-5.23-0.68-5.67,2.58c-0.11,0.82-0.3,1.64-0.57,2.43
			c-1.04,3.12-3.69,5.84-6.39,5.24c-2.97-0.66-1.85-4.45-1.38-6.94c0.33-1.75,1.14-3.47,2.04-5.03c1.13-1.97,1-3.58-1.01-4.58
			c-2.07-1.03-2.39,0.91-3.08,2.19c-1.34,2.49-2.69,4.98-5.08,6.67c-0.97,0.69-1.96,1.43-3.16,0.66c-0.92-0.59-1.21-1.69-1.01-2.66
			c1.9-9.41,4.14-16.38,16.14-12.86c5.19,1.52,10.37,2.18,15.72,0.81c4.25-1.09,7.78-3.04,9.45-7.29c1.61-4.08,4.56-4.41,8.11-3.19
			c3.45,1.18,6.86,2.49,10.26,3.79c1.87,0.72,4.24,1.58,4.06,3.78c-0.2,2.44-2.87,3.47-4.68,4.86c-1.65,1.26-3.89,1.37-4.91-0.36
			c-3.97-6.72-6.62-3.08-9.44,0.89c-0.86,1.21-1.89,2.29-2.85,3.44L914.56,126.4z"/>
		<path d="M748.65,168.97c0,1.09,0.24,2.16-0.05,3.07c-0.55,1.73-2.16,2.8-3.75,2.78c-2.1-0.02-1.85-1.92-1.66-3.42
			c0.23-1.8-0.01-3.97,0.91-5.32c2.1-3.06-0.64-3.39-2.07-4.2c-2.6-1.46-2.66,1.11-3.03,2.44c-1.03,3.72-3.45,5.98-6.94,7.2
			c-0.88,0.31-1.59-0.33-1.84-1.24c-1.07-3.93,0.49-7.14,2.75-10.2c1.24-1.67,5.26-1.71,2.76-5.76c-0.78-1.26,2.45-1.69,3.92-1.33
			c2.57,0.63,5.01,1.79,7.55,2.58c10.49,3.3,15.88,1.04,20.1-8.93c1.64-3.87,4.46-4.38,7.64-3.48c3.37,0.96,6.69,1.86,10.17,2.27
			c1.2,0.14,2.92,0.24,3.13,1.94c0.16,1.3-1.22,1.88-1.95,2.74c-2.07,2.44-4.71,2.24-7.31,1.28c-2.6-0.96-4.05-0.01-5.17,2.27
			c-1.47,2.98,1.29,2.71,2.61,3.53c1.53,0.95,3.09,2.15,1.38,3.86c-1.79,1.8-3.72,5.57-6.79,2.62c-3.41-3.27-6.23-2.97-9.6-0.51
			c-2.67,1.95-5.82,0.86-8.74,1.13C749.54,164.63,747.33,165.2,748.65,168.97z"/>
		<path d="M817.71,160.44c3.46-1.41,6.65-0.85,9.74-0.74c6.06,0.22,11.43-1.69,16.5-4.75c0.57-0.34,1.08-0.81,1.69-1.05
			c2.78-1.15,6.13-1.55,7.78,0.93c1.85,2.78-1.49,4.62-3.35,5.72c-8.21,4.83-16.96,7.35-26.6,4.91
			C820.81,164.79,819.21,163.11,817.71,160.44z"/>
		<path d="M914.47,126.5c3.55-1.49,5.9,0.67,8.44,2.62c1.94,1.49,2,2.59,0.16,4.24c-1.79,1.6-3.57,2.22-5,0.08
			c-1.44-2.16-2.33-4.69-3.48-7.04C914.56,126.4,914.47,126.5,914.47,126.5z"/>
		<path d="M763.18,171.97c-2.48-0.96-2.32-3.16-2.75-4.98c-0.25-1.04,0.25-2.37,1.43-1.74c1.64,0.88,3.58,1.95,3.8,4.14
			C765.83,171.08,764.15,171.26,763.18,171.97z"/>
		<path d="M1143,765.03c-0.33,0.02-0.67,0.08-0.99,0.05c-2.49-0.22-5.82-0.47-6.16-3.03c-0.37-2.81,3.1-2.78,5.22-3.33
			c8.06-2.12,15.12-5.64,19.95-12.85c1.73-2.59,3.91-4.92,6.57-6.69c0.7-0.46,1.39-1.01,2.25-0.46c0.81,0.52,0.99,1.38,0.68,2.19
			C1166.96,750.33,1154.6,765.08,1143,765.03z"/>
		<path d="M1109.87,792.08c-12.75,0.44-15.27-12.1-24.36-17.36C1092.45,774.13,1106.63,784.63,1109.87,792.08z"/>
		<path d="M1090.96,788.67c-6.9-0.8-11.35-4.47-15.35-8.85c-0.83-0.91-1.13-2.08-0.27-3.19c0.65-0.85,1.62-1.42,2.61-0.92
			c5.17,2.56,10.98,4.24,14.01,9.84c0.46,0.84,1.35,1.81,0.59,2.71C1092.16,788.74,1091.07,788.65,1090.96,788.67z"/>
		<path d="M1165.01,710.97c0.04,3.02-0.8,6.53-2.84,9.72c-1.31,2.05-3.13,3.32-5.44,2.03c-2.67-1.5-0.21-3.41,0.44-4.57
			c2.49-4.43,4.07-8.97,3.59-14.11c-0.07-0.77-0.44-1.74,0.76-2c0.92-0.2,1.62,0.3,2.08,1.04
			C1164.94,705.3,1165.35,707.7,1165.01,710.97z"/>
		<path d="M1167.18,757.11c-2.47,5.47-6.12,9.48-12.05,10.79c-1.08,0.24-2.43,0.77-2.97-0.74c-0.41-1.17,0.71-1.75,1.5-2.27
			C1158.03,762.08,1161.92,758.46,1167.18,757.11z"/>
		<path d="M1003.19,761.4c-4.06,0.3-7.14-0.64-9.83-2.71c-1.18-0.91-2.29-2.26-1.4-3.85c0.9-1.61,2.53-1.3,3.99-0.75
			C999.17,755.31,1001.49,757.51,1003.19,761.4z"/>
		<path d="M1033.4,773.95c3.78,0.17,6.54,1.34,7.82,4.36c0.51,1.21-1.14,1.38-2.07,1.18c-3.03-0.65-6.49-1-7.79-4.3
			C1030.86,773.91,1032.87,773.97,1033.4,773.95z"/>
		<path d="M1013.31,766.42c3.75-0.94,5.91,0.84,7.51,3.56c0.43,0.73,0.35,1.72-0.88,1.71
			C1016.59,771.64,1014.45,769.93,1013.31,766.42z"/>
		<path d="M1065.56,642.05c-7.89,0.21-19.42-7.49-22.94-16.39c-0.53-1.34-0.88-2.68,0.07-3.74c1.28-1.44,2.4,0.05,3.43,0.65
			c5.85,3.46,11.7,6.87,18.29,8.84c5.17,1.55,10.34,2.29,15.68,1.22c2.49-0.5,5.82-0.75,6.44,1.67c0.59,2.3-2.32,4.13-4.69,5.08
			C1077.19,641.26,1072.22,641.62,1065.56,642.05z"/>
		<path d="M1066.67,627.74c-6.75-0.52-11.02-3.03-14.08-7.56c-0.44-0.65-1.29-1.29-0.76-2.17c0.68-1.13,1.81-0.58,2.68-0.32
			c4.91,1.46,9.8,2.99,14.68,4.52c1.04,0.32,1.94,1.01,1.28,2.15C1069.37,626.27,1067.84,627.76,1066.67,627.74z"/>
		<path d="M1060.37,577.65c0.11-2.38-0.04-4.24,1.1-5.85c1.11-1.57,2.5-2.06,4.33-1.33c1.85,0.73,1.69,1.85,1.26,3.57
			c-0.69,2.72-0.73,5.6-1.24,8.37c-0.32,1.71-1.47,3.43-3.21,3.31c-1.79-0.12-1.56-2.24-1.78-3.65
			C1060.57,580.42,1060.48,578.75,1060.37,577.65z"/>
		<path d="M1060.05,609.29c2.71,0.74,6.46-0.21,6.53,3.25c0.05,2.34-2.96,3.16-5.46,2.98c-2.61-0.18-5.32-0.76-5.32-3.92
			C1055.79,608.49,1058.79,610.08,1060.05,609.29z"/>
		<path d="M1073.13,576.38c-0.09,3.08-1.77,4.3-3.53,4.98c-1.66,0.63-1.81-1.17-1.64-2.13c0.3-1.59-0.01-3.94,2.44-4.05
			C1071.38,575.12,1073.27,575.03,1073.13,576.38z"/>
	</g>
</g>
</svg>
