<?xml version="1.0" encoding="utf-8"?>
<!-- Generator: Adobe Illustrator 26.0.2, SVG Export Plug-In . SVG Version: 6.00 Build 0)  -->
<svg version="1.1" id="Layer_1" xmlns="http://www.w3.org/2000/svg" xmlns:xlink="http://www.w3.org/1999/xlink" x="0px" y="0px"
	 viewBox="0 0 1920 1080" style="enable-background:new 0 0 1920 1080;" xml:space="preserve">
<g>
	<g>
		<path d="M1123.39,1120.67c-0.87,8.23-6.01,13.05-13.16,16.04c-2.56,1.07-3.44,2.43-3.25,5.21c0.95,13.95,1.93,27.9,2.36,41.86
			c0.12,3.85,0.86,7.87,0.16,11.56c-1,5.2-8.99,9.77-14.48,9.09c-8.07-1.01-16.22-0.16-24.31-1.56c-4.85-0.84-9.43,1.71-14.05,2.99
			c-4.25,1.17-8.41,1.57-12.79,0.87c-5.07-0.82-9.49,1.13-13.42,4.15c-4.62,3.56-9,7.38-12.68,11.98
			c-5.04,6.29-10.94,11.54-18.26,15.17c-4.99,2.48-9.02,6.18-11.96,11.02c-5.4,8.9-12.89,11.95-23.54,10.77
			c-8.04-0.89-14.79-4.69-22.28-6.45c-13.93-3.27-26.89-9.43-40.57-13.25c-10.54-2.94-20.49-0.55-28.5,7.44
			c-4.45,4.44-8.62,8.32-15.98,6.31c-3.39-0.93-7.49,0.78-11.28,1.26c-8.79,1.11-16.21-2.68-22.41-7.93
			c-6.78-5.74-15.28-5.9-22.77-9.15c-10.26-4.44-18.68-8.64-18.85-21.32c-0.13-9.92-1.4-19.91-1.39-29.87
			c0-4.93-2.2-7.85-5.81-10.15c-11.92-7.62-20.18-19.12-30.45-28.49c-2.94-2.68-3.75-6.35-3.12-10.51
			c0.73-4.86-0.43-9.85,0.51-14.78c0.35-1.81-1.16-2.94-2.53-3.28c-6.04-1.49-10.48-6.14-16.59-7.73
			c-5.57-1.45-6.97-5.92-6.39-11.88c1.03-10.65-0.34-21.27-1.45-31.86c-0.1-0.96-0.3-2.23-1.61-2.12
			c-7.4,0.63-11.89-4.83-16.55-8.78c-13.91-11.8-27.43-24.16-39.34-38c-10.94-12.72-19.8-26.79-21.89-44.08
			c-1.5-12.38-1.84-24.49,4.32-36.05c2.96-5.55,5.12-11.57,7.23-17.53c4.01-11.29,12.33-18.75,21.75-25.31
			c0.95-0.66,1.98-1.33,3.08-1.64c4.14-1.15,8.9-3.34,12.35,0c3.95,3.82,6.49,9.01,4.6,14.95c-1.05,3.28-1.35,6.82-3.58,9.74
			c-2.11,2.77,1.29,4.28,2.27,5.76c2.06,3.11,2.34,5.21-0.54,7.66c-2.85,2.42-1.57,4.14,1.32,4.82c2.16,0.51,3.52,1.71,3.5,3.6
			c-0.06,4.76,2.5,9.46,0.4,14.22c-0.92,2.09,0.08,2.44,1.88,2.82c3.03,0.64,6.23,1.14,7.95,5.24
			c6.54-28.73,11.65-56.51,15.62-84.49c0.62-4.36,2.54-8.25,3.94-12.33c12.67-36.67,25.34-73.33,38.02-109.99
			c2.5-7.22,5.59-14.17,9.24-20.96c2.11,1.42-1.19,2.76,0.53,4.03c11.24-20.45,21.97-41.23,29.51-63.21
			c6.38-18.61,12.12-37.73,11.03-58.03c-0.4-7.37-1.45-14.6-3.1-21.69c-6.37-27.34-8.73-55.2-11.13-83.06
			c-0.46-5.3-1.46-10.56-2-15.86c-0.88-8.61-5.15-15.27-10.27-22.17c-8.59-11.56-16.85-23.59-20.83-37.83
			c-1.66-5.92-4.1-11.61-5.24-17.7c-1.31-6.99-6.62-11.85-9.7-17.89c-10.23-20.05-19.53-40.37-23.38-62.91
			c-2.68-15.73-9.86-30.41-12.13-46.33c-0.61-4.28-1.51-8.51-2.27-12.77c-0.32-1.77,0.36-3.35,1.22-4.75
			c9.7-15.86,16.57-33,22.98-50.35c2.22-6.01,5.61-11.31,9.43-16.39c6.2-8.26,12.36-16.54,18.51-24.83
			c4.64-6.26,4.73-8.83,0.1-14.77c-5.14-6.59-8.67-13.67-9-22.27c-0.38-10.16-1.17-20.29,1.06-30.34c1.2-5.42,4.05-9.59,9.05-12.37
			c-12.06,14.68-7.19,30.44-3.14,46.08c1.21,4.67,4.63,7.94,8.12,11.14c2.89,2.66,5.99,5.27,3.07,10.18
			c-1.38,2.33-0.03,4.87,3.36,5.01c2.36,0.1,4.86,0.21,6.78,1.47c9.77,6.45,17.62,1.14,25.3-4.12c4.95-3.39,8.81-8.1,12.96-12.43
			c5.28-5.5,4.45-12.45,4.83-19.29c-3.71,9.39-9.81,16.42-18.72,21.15c-5.92,3.14-10.95,1.08-11.43-5.61
			c-0.68-9.43,2.13-18.47,4.03-27.57c2.65-12.69,9.94-23.15,17.04-33.64c0.56-0.83,1.21-1.59,1.8-2.4c0.5-0.67,1.15-1.47,0.64-2.24
			c-0.75-1.13-1.76-0.4-2.63,0.02c-5.89,2.88-10.05,7.5-13.39,13.03c-3.57,5.89-5.74,12.37-8.18,18.74c-0.6,1.57-1.13,3.1-2.49,3.64
			c-1.15,0.04-1.34-0.55-1.25-0.97c3.2-14.04,8.09-27.15,20.01-36.38c2.96-2.29,6.23-3.87,9.99-4.19c1.96-0.17,4.18-0.55,5.43,1.54
			c1.19,1.99-0.42,3.57-1.43,4.92c-7.26,9.67-12.51,20.49-16.89,31.61c-4.55,11.55-7,23.78-9.64,36.84
			c9.84-5.27,18.96-9.66,22.78-20.21c1.07-2.95,2.86-6.1,6.57-5.83c2.89,0.21,6.22,7.1,4.9,10.48c-2.89,7.4-5.34,15.1-11.08,21.03
			c-6.76,6.98-13.86,13.35-23.09,17.09c-4.09,1.66-5.39,5.14-6.43,9.95c-2.39,11.12-4.51,22.52-10.06,32.77
			c-3.16,5.83-4.66,12-3.73,18.73c0.79,5.7,0.1,11.1-4.41,15.64c-1.97-2.7,0.66-5.14-0.37-7.47c-4.16,4.54-4.42,6.73-1.34,12.35
			c1.04,1.91,0.16,3.53-0.53,5.22c-1.07,2.64-2.81,4.89,0.31,7.87c1.74,1.67,0.28,5.42,1.89,8.01c2.61,4.19,6.4,7.31,9.99,10.42
			c8.06,7.01,12.54,16.28,17.4,25.36c1.34,2.51,2.51,5.2,4.66,7.03c6.33,5.4,8.98,12.62,10.74,20.38c0.39,1.72,1.06,3.39,2.08,5.1
			c1.48-9.11,7.01-16.23,10.67-24.18c4.65-10.1,5.12-21.12,4.86-31.83c-0.25-10.32,2.73-19.33,7.1-28.16
			c2.82-5.69,5.49-11.41,7.47-17.43c2.65-8.07,7.85-14.63,12.61-21.44c1.86-2.67,4.72-4.38,7.69-5.37
			c14.65-4.87,28.77-11.48,44.25-13.71c2.09-0.3,4.1-1.34,6.06-2.22c7.99-3.57,15.21-2.72,22.58,2.29
			c7.48,5.09,11.75,12.92,17.99,19.04c6.26,6.14,11.4,13.4,17.37,19.86c3.58,3.88,5.27,8.5,6.31,13.33
			c2.48,11.54,3.57,23.34,6.54,34.82c1.13,4.38-0.45,9.12-0.33,13.77c0.38,14.38,3.65,28.25,6.38,42.23
			c0.66,3.37,1.48,6.8,0.56,10.36c-0.51,1.98,0.11,4.79,1.98,4.96c1.7,0.15,3.78,0.25,6.07-1.44c4.35-3.19,5.34-7.41,6.32-11.77
			c2.45-10.93,9.08-19.95,13.23-30.09c2.58-6.3,5.36-12.52,8.14-18.74c2.63-5.87,6.37-10.86,11.74-14.58
			c3.54-2.45,5.63-5.13,2.87-9.86c-2.24-3.85-2.03-8.34-0.3-12.59c0.97-2.37,1.45-4.87,0.81-7.34c-2.34-9.03-2.5-18.46-5.2-27.44
			c-1.73-5.75-2.8-11.68-1.85-17.76c1.49-9.47-0.72-18.93-0.07-28.43c0.32-4.6,2.31-6.58,6.73-6.8c2.82-0.14,5.64-1.06,8.42-0.91
			c16.68,0.92,20.87-7.98,27.22-20.7c1.4-2.8,2.37-5.93,2.85-9.02c0.3-1.95,5.09-5.27-1.31-6.29c-1.25-0.2-0.56-2.98-0.33-4.63
			c1.3-9.42-0.13-18.58-2.78-27.6c-0.31-1.06-0.52-2.33-2.44-3.02c0.69,5.71,1.33,11.15,2.03,16.58c0.46,3.56-0.37,6.52-3.26,8.91
			c-2.07,1.71-3.21,1.09-4.06-1.08c-0.99-2.54-0.93-5.24-0.96-7.89c-0.07-6.19-0.81-12.28-2.06-18.32
			c-1.29-6.23-5.09-10.3-10.87-12.67c-1.11-0.45-2.49-0.88-3.29,0.07c-1.02,1.2,0.24,2.07,1.1,2.82c9.65,8.4,10.57,19.39,9.28,31.05
			c-0.17,1.55-0.53,2.98-1.9,3.89c-0.78,0.52-1.43,1.61-2.57,1.11c-1.14-0.49-0.91-1.67-0.91-2.61c0-2.17,0.01-4.34,0.17-6.5
			c0.97-12.81-5.94-21.25-15.56-28.2c-0.14-0.1-0.26-0.23-0.41-0.29c-1.94-0.78-4.36-2.7-5.86-0.86c-1.21,1.48,0.89,3.72,2.26,4.98
			c5.81,5.33,7.28,11.9,6.58,19.47c-0.95,10.42-3.45,20.18-10.43,29.14c-0.75-2.59,0.3-4.12,1.1-5.59c4.7-8.63,4.7-17.93,3.86-27.3
			c-0.31-3.55-2.07-6.68-4.74-9.13c-2.98-2.74-5.22-6.08-7.3-9.44c-2.82-4.56-1.05-8.36,4.17-8.25c7.81,0.17,15.6-0.67,23.37-0.33
			c6.99,0.31,12.76,3.44,16.52,9.68c0.57,0.95,1.46,2.09,2.43,2.37c10.88,3.13,12.03,12.79,13.45,21.4
			c2.36,14.21-0.05,28.26-4.74,41.77c-1.9,5.47-5.41,10.32-9.24,14.73c-2.24,2.57-2.65,4.47-0.9,7.85
			c5.62,10.84,12.46,21.25,13.49,34.02c0.26,3.2,2.03,6.26,4.05,9c3.37,4.57,5.15,9.67,4.22,15.44
			c-1.63,10.16,0.41,19.82,5.92,28.19c6.12,9.31,5.2,18.5,0.9,27.47c-7.31,15.22-11.54,31.38-15.95,47.5
			c-4.65,16.98-10.86,33.39-16.7,49.97c-7.34,20.85-18.18,40.22-24.7,61.36c-0.48,1.56-1.21,3.19-2.27,4.41
			c-5.9,6.83-7.86,15.69-12.21,23.31c-1.69,2.96-1.52,6.52-1.56,9.79c-0.1,7.57-2.73,14.34-5.79,21.03
			c-7.01,15.3-13.69,30.75-17.15,47.3c-2.55,12.2-4.67,24.51-6.48,36.85c-1.6,10.9-8.01,19.64-12.15,29.4
			c-1.89,4.44-3.83,8.86-5.88,13.23c-0.95,2.03-0.59,3.94,0.1,5.81c4.75,12.87,7.22,26.55,15.29,38.25c3.17,4.6,4.21,10.8,5.71,16.4
			c4.22,15.84,8.92,31.54,14.23,47.05c2.96,8.64,5.27,17.47,6.99,26.44c2.33,12.14,7.65,23.3,11.26,35.02
			c5.03,16.35,9.27,32.92,13.97,49.35c4.33,15.14,7.88,30.41,11.48,45.69c0.57,2.4,1.45,4.73,2.02,7.14
			c0.38,1.6,1.24,2.22,2.81,2.17c2.04-0.06,4.05,0.3,5.78,1.32c2.44,1.43,3.17,0.09,3.85-1.9c2.15-6.28,7.25-8.82,13.2-10.05
			c3.51-0.73,10.04-6.78,9.96-10.39c-0.06-2.73,1.41-3.67,3.23-4.31c4.81-1.72,9.5-3.66,14.96-1.72c3.18,1.13,6.87,0.82,11.94,1.33
			c-5.88-3.04-9.23-6.16-9.13-11.88c0.09-4.94,0.79-9.68,3.11-13.99c1.35-2.51,2.53-3.68-1.43-5.29c-4.9-1.99-6.95-10-5.56-16.87
			c0.25-1.24,1.31-2.41,0.38-3.94c-0.4,0.03-0.89-0.04-1.28,0.13c-6.18,2.66-12.34,1.6-15.36-2.66c-4.77-6.74-4.3-13.12,0.34-18.75
			c12.28-14.89,39.07-13.26,50.62-2.73c5.17,4.72,11.2,8.79,16.95,13.01c4.75,3.48,7.14,8.28,7.42,14.01
			c0.28,5.56,1.21,10.96,3.47,16c6.08,13.6,6.99,28.36,9.09,42.72c2.15,14.73-5.05,26.47-16.91,34.89
			c-6.37,4.52-11.72,10.09-15.86,16.28c-6.46,9.65-16.14,14.02-26.1,13.84c-11.08-0.2-17.61,3.72-22.41,12.68
			c-4.34,8.1-11.83,12.43-19.63,16.32c-2.5,1.24-3.45,2.64-2.65,5.45c4.13,14.43,5.51,29.35,7.53,44.15
			c0.13,0.92-0.14,2.04,1.32,2.69c1.83-1.29,1.72-3.71,2.77-5.47c8.17-13.65,18.96-24.3,34.15-29.93
			c16.22-6.01,32.81-10.75,49.9-13.45c11.55-1.83,18.83-9.09,23.66-18.62c4.69-9.25,9.83-17.52,18.75-23.37
			c4.61-3.02,6.72-7.5,5.75-14.07c-1.78-12.01-3.7-24.13-6.57-35.76c-2.76-11.2-3.97-22.98-8.98-33.64
			c-1.95-4.15-2.37-8.65-2.42-13.18c-0.12-10.12,5.04-13.76,14.46-9.83c6.69,2.79,12.13,7.49,16.99,12.77
			c1.35,1.46,2.38,2.7,4.52,2.18c6.34-1.53,16.01,6.61,15.13,13.31c-0.81,6.16,1.65,7.11,5.21,9.75c3.76,2.8,4.39,8.11,7.09,12.01
			c1.71,2.47-0.45,6.07-2.54,8.63c-1.8,2.2-1.23,3.39,1.44,4.24c10.5,3.34,11.02,4.02,11.86,15.26c0.18,2.47,0.03,4.98-0.02,7.47
			c-0.11,4.92-2.64,7.46-7.53,8.25c-5.89,0.96-6.09,1.62-4.23,7.33c0.4,1.23,0.33,2.61,0.53,3.91c0.19,1.22-0.4,3.01,1.47,3.22
			c1.41,0.16,3.2,0.14,4.25-0.61c1.27-0.89,0.08-2.48-0.39-3.63c-0.49-1.2-1.19-2.4-2.08-3.32c-0.91-0.94-2.4-1.51-1.46-3.17
			c1.05-1.86,2.58-0.9,3.97-0.49c4.58,1.35,8.45,9.57,6.69,15.52c-2.06,6.92-5.25,13.31-12.05,16.99
			c5.52,7.28,5.41,13.14-0.53,20.17c-2.03,2.41-4.38,4.56-6.63,6.78c-0.81,0.8-2.26,1.55-1.45,2.8c2.86,4.38,0.05,7.07-2.97,9.16
			c-3.55,2.46-8,3.66-11.65,0.82c-2.22-1.72-3.1-1.39-4.79,0.05c-0.94,0.8-2.07,1.81-3.53,0.6c-1.4-1.16-2.7-0.19-3.49,0.72
			c-1.65,1.9,1.25,1.19,1.38,2.07c0.43,2.95-2.82,3.66-4.18,6.62c3.58-1.81,8-0.43,8.47-6c0.18-2.07,2.25-0.11,3.21,0.19
			c2.14,0.68,1.96,2.52,0.99,4.08c-2.58,4.17-6.76,6.5-11.04,8.25c-4.43,1.81-9.26,2.62-13.86,4.06c-2.42,0.76-4.1-0.79-6.42-1.58
			c-1.54,7.65-7.29,10.09-14,11.17c-4.1,0.66-8.21,1.39-12.34,1.57c-2.42,0.1-2.9,1.51-3.86,3.11c-4.13,6.88-9.38,12.43-17.65,14.32
			c-3.16,0.72-5.64,0.64-6.53-3.16c-0.26-1.13-0.7-2.57-2.28-1.58c-1.04,0.65-1.98,1.46-1.32,3.25c3.43,9.4-1.66,19.56-11.45,22.57
			c-3.26,1-4.34,1.33-2.11,5.05c4.58,7.63-3.82,19.96-13.99,21.23c-2.64,0.33-5.29,0.57-7.94,0.86c-1.05-0.48-1.39-2.98-3.02-1.55
			c-4.03,3.54-8.34,6.53-13.43,8.34c-0.46,0.16-0.94,1.04-0.93,1.57c0.04,1.18,1.11,1.07,1.87,0.9c2.63-0.58,4.9-1.96,7.21-3.28
			C1118.01,1125.02,1119.95,1121.82,1123.39,1120.67z M1134.04,876.19c-0.79-2.38-2.98-3.38-4.76-4.77
			c-0.72-0.56-1.38-1.66-2.48-0.81c-0.99,0.76-1.21,2.02-1.08,3.13c0.16,1.44,1.38,0.94,2.32,0.93c2.15-0.02,4.26,0.21,6.14,1.39
			c-1.35,3.05-2.67,6.08-6.53,6.8c-0.63,0.12-1.54,1.09-1.56,1.68c-0.03,1.31,1.3,1.22,2.23,1.38
			C1133.68,886.85,1136.11,882.72,1134.04,876.19z M1051.29,253.52c0.06,2.66-0.02,5.32,0.2,7.97c0.38,4.55,0.6,4.62,5.2,2.27
			c-4.19-2.18-4.42-6.36-5.44-10.14c-0.35-12-1.75-23.83-5.65-35.31c-0.6,0.91-0.98,1.85-0.81,2.68
			C1046.91,231.83,1049.12,242.66,1051.29,253.52z M1080.54,970.36c-4.6,0.71-5.5,2.99-3.83,7.32c3.03,7.87,2.83,7.95,11.03,5.95
			c0.32-0.08,0.64-0.18,0.96-0.27c6.56-1.8,8.72-6.61,5.44-12.13c-3.47-5.84-9.36-6.21-13.68-0.86L1080.54,970.36z M1099.5,959.39
			c-1.6-2.67-4.22-2.89-6.85-2.54c-2.46,0.33-2.31,2.63-3.39,5.26c3.83-1.89,7.58-0.01,10.33-2.88c0.12,3.91,4.23,7.2,1.12,11.7
			c6.45-3.3,11.11-7.83,16.02-12.02c1.97-1.68,4.01-2.73,6.64-3.06c10.99-1.38,20.87-5.09,28.57-13.57
			c4.13-4.56,8.88-8.57,12.88-13.23c5.4-6.28,9.48-13.33,8.78-22.08c-0.54-6.78-2.22-13.59-1.8-20.28
			c0.38-6.07-0.44-11.52-2.7-16.96c-2.51-6.05-4.48-12.16-3.46-18.89c0.55-3.62-1.22-6.34-3.96-8.65
			c-6.23-5.25-12.94-9.95-19.07-15.27c-11.21-9.73-25.01-6.33-34.99-1.14c-2.99,1.56-5,4.45-3.67,7.89
			c1.37,3.54,4.75,3.33,7.96,3.03c0.12-2.12-2.49-2.6-2.01-4.72c3.14-0.82,6.34,0.91,9.95,0.26c-0.43-1.02-0.77-1.72-1.04-2.45
			c-0.46-1.26-0.97-2.77-0.04-3.78c1.07-1.16,2.45,0.23,3.71,0.33c0.78,0.06,1.58,0.53,2.27,0.97c2.31,1.49,4.38,4.75,7.06,0.2
			c0.7-1.19,2.41-0.32,3.49,0.65c4.07,3.66,9.94,6.12,8.36,13.69c1.85-2.28,1.51-6.07,5.31-5.35c3.3,0.62,2.86,3.62,3.33,5.99
			c0.19,0.98,0.44,1.94,0.64,2.92c0.51,2.45,1.07,4.71,4.51,3.44c1.77-0.65,2.57,0.66,2.63,2.08c0.27,7.45,2.37,14.58,3.77,21.82
			c0.32,1.66-0.47,4.88,1.3,4.73c6.77-0.58,3.9,4.17,4.05,6.87c0.32,5.74-3.77,10.19-5.1,15.48c-0.1,0.39,0.1,0.85,0.16,1.26
			c1.51-0.03,1.87-2.65,4.08-1.3c-2.92,3.53-8.85,4.87-7.85,11.12c2.64-1.23,4.68-3.78,8.35-2.28c-3.52,6.3-11.97,6.09-15.9,11.96
			c3.48,1.17,6.74-1.32,9.77,0.89c-2,4.36-6.25,5.47-10.1,6.55c-3.96,1.11-6.18,3.32-7.58,7.02c2.28,0.87,4.91-0.47,6.79,1.93
			c-1.94,2-3.46,3.76-6.66,3.82c-5.75,0.11-12.1-0.44-14.1,7.39c-0.41,1.61-2.39,1.99-4.23,1.94c-3.6-0.1-7.21-0.1-10.8,0.15
			c-2.4,0.17-5.68-0.37-3.81,4.35c0.7,1.76-1.6,3.93-3.91,4.25C1105.45,959.24,1102.48,959.19,1099.5,959.39z M869.29,305.97
			c-0.59,12.2,1.81,20.46,2.89,28.87c2.73,21.2,12.06,38.15,32.21,47.74c6.1,2.9,12.4,3.59,18.14,0.06
			c13.24-8.14,22.87-19.19,25.56-35.13c0.75-4.43,0.8-9.07,2.15-13.3c6.19-19.44-0.61-37.83-4.13-56.49
			c-0.18-0.96-0.66-1.9-1.14-2.77c-5.18-9.3-10.24-18.72-16.72-27.19c-8.46-11.07-26.33-11.25-35.73-0.71
			C876.63,264.88,869.13,285.84,869.29,305.97z M1259.71,947.59c-8.84-0.81-7.55-7.47-7.79-13.28c-1.37,5.46-1.52,5.89-2.84,7.39
			c-3.46,3.92-5.06,3.66-6.76-1.21c-1.04-2.96-1.46-6.11-3.36-8.79c-1.28-1.81-0.51-3.5,1.6-3.6c4.75-0.22,2.76-2.68,1.85-4.85
			c-0.38-0.91-1.37-1.87-1.22-2.64c1.33-6.62-2.05-10.96-6.73-14.81c-0.83-0.68-2.02-1.7-1.27-2.95c0.82-1.37,2.39-0.56,3.64-0.7
			c1.53-0.17,3.45,2.26,4.32,0.15c0.53-1.3-0.55-3.58-1.47-5.07c-1.03-1.66-2.7-2.92-4.1-4.33c-2.63-2.65-6.17-4.45-8.04-8.83
			c4.35,1.4,5.4-0.1,4.68-3.9c-0.32-1.66,0.46-3.66,1.75-5.06c0.93-1.01,1.54-1.9-0.03-2.68c-1.15-0.58-2.37-1.68-3.68-1.11
			c-1.42,0.62-1.04,1.88-0.23,2.9c1.08,1.37,1.37,2.76-0.13,3.92c-1.42,1.1-2.49,3.78-4.89,1.9c-2.41-1.88-5.16-4.93-3.58-7.49
			c2.22-3.59,1.63-5.76-0.89-8.3c-0.1-0.1-0.14-0.31-0.15-0.47c-0.11-2.57-1.66-4.66-3.94-4.01c-2.44,0.69-2.45,3.62-2.12,5.98
			c0.96,6.82,3.54,13.15,6.2,19.43c1.24,2.93,1.88,5.99,4.45,8.55c4.02,4.01,6.66,9.02,4.47,15.2c-0.51,1.44,0,2.9,0.68,4.32
			c3.36,7,1.71,15.96,8.48,21.67c0.4,0.34,0.44,1.26,0.42,1.91c-0.19,8.06-1.09,15.75-6.73,22.36c-6.98,8.18-14.1,16.22-17.98,26.7
			c-4.12,11.12-13.08,17.57-23.9,21.84c-12.48,4.92-25.83,6.84-38.35,11.62c-8.2,3.13-16.93,4.89-24.74,8.97
			c-14.09,7.37-23.29,19.42-30.57,33.15c-0.3,0.56-0.59,1.29-0.5,1.87c0.98,6.13,1.09,12.53,5.34,17.94
			c2.59-2.93-0.75-6.29,1.06-9.04c2.38-0.23,2.23,3.22,4.53,3.17c1.16-3.45-2.1-6.59-0.79-10.07c3.25,0.29,4.52,3.51,7.54,4.4
			c0.12-4.5-2.11-7.91-3.44-11.59c-0.53-1.48-2.44-3.1-0.98-4.5c1.59-1.51,3.76-0.76,5.52,0.43c3.89,2.62,3.81-0.86,3.91-2.87
			c0.08-1.53-0.98-3.12-1.52-4.69c-0.49-1.44-1.1-3.11,0.34-4.15c1.63-1.17,3.14-0.14,4.43,1.07c1.25,1.17,2.04,2.99,4.49,1.37
			c2.18-1.44,2.11-3.09,1.85-5.13c-0.13-1.02-1.4-2.27,0.22-3.03c1.22-0.57,2.41,0.09,3.01,1.15c1.31,2.31,2.94,2.71,5.38,1.77
			c2.84-1.1,1.62-3.18,1.63-5.03c0.01-1.29-0.35-2.91,1.27-3.44c1.31-0.43,2.41,0.8,2.78,1.68c1.51,3.56,3.65,2,5.94,1.14
			c3.2-1.2,1.44-3.44,1.45-5.42c0.01-1.52-2.34-2.09-1.34-3.92c3.88-0.86,6.25,1.47,7.41,4.39c1.21,3.05,3.51,2.74,5.19,2.04
			c3.7-1.54,8.47-0.86,10.97-4.96c0.14-0.23-0.06-0.65-0.05-0.98c0.07-6.76,0.08-6.76,5.67-3.76c2.6,1.39,6.74-0.22,7.52-2.93
			c0.91-3.14,2.97-3.56,5.48-1.19c0.76,0.72,0.41,2.38,2.19,2.27c3.08-0.2,7.1-5.02,6.29-8.06c-0.85-3.16,0.48-3.63,3.03-2.91
			c1.42,0.4,2.74,1.02,3.99,1.93c2.11,1.55,3.22-0.8,4.68-1.63c1.24-0.71,1.95-1.57,0.83-3.21c-1.09-1.59-2.44-4.05-0.83-5.38
			c1.43-1.19,3.63,0.74,5.47,1.35c0.79,0.26,1.08,1.9,2.72,0.59c-1.1-3.24-2.24-6.59-3.59-10.56c3.62,0.97,6.81,1.09,8.78,4.12
			c1.24,1.91,2.66,1.66,4.11,0.2c1.35-1.36,3.53-2.43,1.49-4.85c-0.75-0.89-1.36-1.9-2.1-2.79c-0.88-1.05-1.94-2.35-1.13-3.52
			c0.76-1.09,2.41-0.8,3.73-0.43c0.96,0.27,2.11,0.28,2.86,0.84c2.94,2.2,4.33,0.52,5.68-1.92c1.44-2.62,0.74-4.21-1.84-5.63
			c-2.48-1.36-4.68-3.23-7.29-5.07c4.24-1.04,7.96-1.82,11.84-0.81c1.08,0.28,2.34,0.41,3.05-0.95c0.64-1.22,0.24-2.29-0.46-3.26
			c-0.77-1.07-1.67-2.06-2.52-3.07c-0.9-1.08-3.03-1.75-2.33-3.39c0.8-1.87,3.04-1.43,4.46-0.89c4.41,1.67,6.18,0.04,6.2-4.75
			c-4.86,2.24-5.53-2.36-8.32-4.57C1247.8,947.4,1254.34,954.21,1259.71,947.59z M672.45,997.09c-3.32-1.43-6.75-2.35-9.47-4.28
			c-1.9-1.34-5.62-1.52-5.43-4.33c0.17-2.52,4.03-1.49,5.69-3.18c-2.11-4.03-5.98-6.17-9.03-9.13c-0.85-0.83-2.81-1.18-2.13-2.89
			c0.44-1.12,1.92-1.13,3.03-1.45c1.17-0.34,3.05,0.82,3.41-1.02c0.28-1.46-0.92-2.76-1.88-3.92c-1.58-1.92-4.62-2.46-5.52-5.66
			c2-0.23,3.64-0.67,5.24-0.55c3.29,0.24,3.95-0.56,2.06-3.47c-1.62-2.5-2.91-5.24-4.13-7.97c-0.58-1.28-1.87-2.8-0.76-4.16
			c0.95-1.17,2.59-0.32,3.74,0.08c3.08,1.08,3.1-0.52,2.52-2.65c-0.97-3.53-1.9-7.07-3.13-10.51c-1.17-3.26,0.52-3.73,3.11-3.92
			c1.32-0.1,2.28,1.55,3.74,0.6c-0.17-2.37-2.3-3.62-3.1-5.57c-0.75-1.82-1.11-4.38,1.7-3.79c6.68,1.4,3.64-2.68,3.21-5.19
			c-0.26-1.52-2.3-3.2-0.58-4.44c1.45-1.04,3.82-0.41,5.05,0.97c3.25,3.63,4.48,0.92,5.99-1.56c1.19-1.95,1.22-4.04,1.27-6.24
			c0.09-3.92-1.59-4.43-4.35-2.34c-7.58,5.75-14.91,11.68-18.24,21.21c-2.36,6.74-5.33,13.26-7.94,19.92
			c-1.45,3.71-3.53,7.24-3.91,11.29c-2.2,23.79,4.81,44.68,20.65,62.38c8.05,9,16.89,17.36,26.35,24.88
			c6.41,5.1,12.76,10.56,20.73,13.67c0.37-4.23-2.33-28.54-3.58-32c-2.68,3.03-6.5,3.93-9.72,5.89c-1.23,0.75-2.78,1.97-4.02,0.44
			c-1.2-1.48,0.38-2.85,1.17-3.95c1.64-2.28,3.57-4.35,5.38-6.51c-4.58,1.63-8.92,2.99-13.37,3.95c-3.06,0.66-3.5-0.93-2.32-3.41
			c1.2-2.54,3.91-3.79,6.4-7.05c-4.63,1.81-8.26,0.96-11.83,1.46c-1.58,0.22-3.75,2.1-4.82-0.19c-1.04-2.23,0.61-4.04,2.37-5.52
			c0.69-0.58,1.91-0.84,1.63-2.81c-3.76-0.37-7.87,0.12-11.79-1.2C666.66,999.48,670.34,999.63,672.45,997.09z M1022.54,876.66
			c-4.33,13.32-20.01,208.27-17.47,217.23C1013.79,1063.33,1026.23,908.6,1022.54,876.66z M853.75,470.23
			c3.46,37.05-0.14,74.81,11.14,111.11c0.63-0.59,0.84-1.17,0.87-1.76c0.53-10.96,1.06-21.93,1.55-32.89
			c0.26-5.81,1.5-11.81,0.46-17.39C864.08,509.43,859.56,489.72,853.75,470.23z M796.11,899.02c-8.3,29.32-14.55,58.97-17.56,89.28
			c-2.07,20.82-3.5,41.69-4.57,62.57c-0.64,12.55-1.54,25.16-0.19,37.76c0.21,1.92,0.55,3.61,2.52,3.49
			c2.03-0.13,0.98-2.14,0.96-3.26c-0.23-12.49,0.01-24.95,0.43-37.44c1.01-29.49,5.23-58.63,9.11-87.8
			C789.69,942.05,793,920.55,796.11,899.02z M999.96,509.99c-7.19,44.37-29.06,83.98-39.52,126.16
			C971.94,625.85,1001.38,535.67,999.96,509.99z M914.87,864.06c-6.35,48.21-7.43,96.6-6.42,145.07
			C909.24,960.71,917.91,912.62,914.87,864.06z M1049.89,1136.68c1.8-12.11,3.71-23.97,2.45-36.28c-3.11-30.5-4.11-61.13-3.47-91.79
			c0.07-3.59-0.17-7.13-2.38-11.03C1042.31,1044.66,1050,1090.59,1049.89,1136.68z M769.13,861.65
			c-17.29,30.63-23.6,63.49-20.78,99.57c1.08-1.51,1.5-1.83,1.54-2.2c1.28-9.78,4.25-19.18,3.12-29.46
			c-1.3-11.86,3.19-23.25,6.32-34.6C762.39,883.8,765.84,872.75,769.13,861.65z M813.14,413.97c-2.04,1.78-3.74,4.32-6.01,5.02
			c-4.23,1.31-4.49,4.38-4.83,7.69c-0.19,1.82-0.1,3.66-0.26,5.48c-1.58,17.54,0.52,35.26-2.77,52.74
			c-0.56,2.97-1.25,7.16,3.42,9.03c0.23-0.71,0.55-1.28,0.59-1.86c0.99-15.27,3.09-30.47,2.78-45.83
			c-0.13-6.49-0.25-12.99-0.02-19.48c0.1-2.93,0.54-6.88,4.25-6.97C816.82,419.64,813.82,416.49,813.14,413.97z M755.6,1036.22
			c3.14-33.73,5.25-67.64,9.05-101.42c-3.48,12.15-5.06,24.64-6.53,37.08C755.59,993.26,753.24,1014.69,755.6,1036.22z
			 M788.97,462.1c3.45-15.62,4.42-31.56,8.83-46.97c-3.19,10.65-8.81,20.02-14.43,29.4c-0.65,1.09-1.56,2.05-0.8,3.63
			C784.8,452.76,786.85,457.45,788.97,462.1z M820.23,538.03c-1.13,13.77,8.4,61.78,14.34,71.61
			C829.17,586.27,827.56,562.15,820.23,538.03z M1040.06,450.27c2.84-5.78,0.66-10.52,0.14-15.12c-1.47-12.94-0.68-26.49-8.13-38.08
			c-2.71-4.23-5.74-8.13-5.11-14.13c-4.58,3.79-4.28,6.75-1.35,10.42c3.83,4.8,6.02,10.57,7.93,16.39
			c3.08,9.39,3.71,19.18,4.83,28.9C1038.78,442.17,1038.15,445.86,1040.06,450.27z M760.99,194.12
			c-11.5,15.35-24.9,29.61-28.54,50.29C742.99,227.69,753.12,211.55,760.99,194.12z M811.29,783.74
			c7.21-19.47,15.03-38.76,19.98-59.03C822.13,743.5,814.67,762.89,811.29,783.74z M1017.28,1124.37c3.53-19.84,6.1-39.7,4.32-59.86
			c-1.46,10-3.18,19.99-3.86,30.05C1017.07,1104.47,1013.94,1114.39,1017.28,1124.37z M895.32,1134.05
			c3.16-22.08,3.6-44.35,3.38-66.66C898.07,1089.62,891.51,1111.52,895.32,1134.05z M900.74,946.93c2.4-23.65,3.94-47.38,7.05-70.97
			C899.9,899.08,901.13,923.09,900.74,946.93z M740.25,843.48c8.05-25.49,17.08-50.6,27.32-75.29
			C753.84,791.61,747.41,817.69,740.25,843.48z M916.85,756.44c-0.24-0.04-0.48-0.09-0.72-0.13c-0.62,12.24-1.23,24.47-1.85,36.82
			c7.31-3.35,7.91-9.04,6.78-15.3C919.76,770.68,918.26,763.57,916.85,756.44z M1152.73,1059.38c5.07-0.07,10.28-4.63,10.08-9.21
			c-0.15-3.48-3.6-4.5-5.95-5.15c-2.83-0.79-8.81,7.19-8.9,10.89C1147.87,1059.48,1150.38,1059.26,1152.73,1059.38z M1220.2,1024.17
			c9.72-0.05,14.78-4.09,14.75-11.15c0-1.05-0.07-2.02-0.96-2.64c-1.08-0.75-1.84,0.08-2.55,0.74c-2.14,2-4.33,3.06-7.54,2.51
			c-2.12-0.36-4.56,0.52-6.72,1.24c-2.92,0.96-4.96,3.27-4.75,6.29c0.23,3.14,3.39,2.41,5.54,2.81
			C1218.93,1024.13,1219.93,1024.15,1220.2,1024.17z M776.14,296.67c1.87,4.77,3.68,8.5,4.76,12.43c1,3.65,2.68,5.65,6.65,5.9
			c3.49,0.21,5.68,2.14,6.22,5.95c0.38,2.74,0.7,2.7,4.21,3.76C792.9,313.98,788.1,303.39,776.14,296.67z M1267.87,933.51
			c-0.1,6.2,3.03,10.53,7.39,10.74c2.74,0.13,4.32-0.9,3.72-3.76c-0.85-4.06-1.85-8.11-3.03-12.09c-0.91-3.09-3.72-4.22-6.49-4.84
			c-2-0.45-3.68,0.13-2.76,2.99C1267.45,928.89,1268.36,931.28,1267.87,933.51z M857.95,353.35c-1.05-22.12,2.14-43.91,5.65-65.68
			C857.96,309.24,853.77,330.92,857.95,353.35z M816.28,1075.66c0.61-22.56,5.27-44.94,0.97-67.42
			C815.47,1030.74,815.38,1053.26,816.28,1075.66z M1264.05,963.36c0-0.07,0.19-1.43-0.05-2.71c-0.34-1.87-0.18-4.3-2.76-4.74
			c-2.61-0.45-4,1.49-4.83,3.49c-1.2,2.89-1.96,5.96-3.01,8.91c-0.92,2.58-0.28,4.86,2.04,5.94c2.63,1.22,5.26,0.37,7.03-2.04
			C1264.13,969.97,1264.36,967.32,1264.05,963.36z M1111.58,903.69c-2.57-0.01-8.76,3.14-10.36,5.23c-1.46,1.91-1.25,3.53,0.5,5.21
			c3.08,2.96,10.76,2.66,13.98-0.92c1.47-1.63,4.18-3.57,3.26-5.58C1117.77,905.03,1114.99,903.25,1111.58,903.69z M1125.29,933.85
			c5.99,0.03,11.56-5.23,11.67-10.26c0.04-2.01-0.45-2.89-2.55-1.91c-3.45,1.61-7.02,3-10.33,4.84c-1.68,0.93-4.65,1.54-3.88,4.33
			C1120.92,933.44,1123.54,933.78,1125.29,933.85z M836.4,783.55c4.74-10.88,10-21.62,6.13-35.27
			C839.25,760.73,836.48,771.92,836.4,783.55z M1140.34,1085.12c2.29,0,3.46-0.14,4.59,0.02c4.22,0.61,7.15-1.56,8.98-4.85
			c1.75-3.15,2.04-6.59-1.29-9.36c-0.51-0.43-0.6-1.47-0.71-2.26c-0.17-1.22,0.56-3.26-1.25-3.21c-2.76,0.08-2.91,2.86-3.23,4.84
			c-0.21,1.27-2.1,3.34,0.36,4c1.63,0.44,3.8,0.07,3.05,2.42c-0.69,2.15-2.86,4.8-4.89,4.32
			C1142.13,1080.14,1142.34,1083,1140.34,1085.12z M1096.24,305.81c4.76-6.41,3.07-18.67-3.46-25.83c0.1,3.29-0.24,6.14-1.56,8.95
			c-1.14,2.43-0.46,6.29,1.13,7.27C1096.19,298.57,1096.4,301.79,1096.24,305.81z M729.69,337.26c1.58,12.82,5.37,24.77,12.18,35.65
			C739.85,360.29,736.31,348.2,729.69,337.26z M1115.52,1102.33c-3.52,0.64-6.51,2.14-9.17,4.12c-3.94,2.93-4.16,5.85-0.35,9.76
			c2.58,2.64,4.29-0.8,6.21-1.82c2.91-1.54,4.36-4.52,6.02-7.17C1119.88,1104.58,1118.38,1102.24,1115.52,1102.33z M1244.56,1004.87
			c0.98,0,1.65,0.08,2.3-0.01c3.1-0.47,5.03-2.29,5.93-5.26c0.73-2.42,0.5-4.75-1.62-6.28c-2.62-1.89-4.62,0.41-6.74,1.49
			c-0.74,0.37-1.46,0.79-2.13,1.27c-1.95,1.39-4.79,2.31-3.96,5.53C1239.22,1005.04,1242.44,1004.29,1244.56,1004.87z
			 M1153.37,893.71c-0.03-1.83-0.39-4.97-2.45-7.6c-0.8-1.01-1.02-3.33-3.18-1.89c-1.66,1.11-3.56,2.42-3.35,4.63
			c0.19,2.01,2.16,0.82,3.3,1c1.5,0.24,3.1,0.17,3.84,1.79c0.83,1.82-0.1,3.26-1.41,4.41c-1.49,1.31-3.13,2.45-4.65,3.73
			c-0.7,0.59-2.78-1.17-2.26,1.29c0.3,1.44,1.34,2.11,2.88,2.28C1151.94,903.99,1153.9,901.83,1153.37,893.71z M918.06,1011.16
			c0.5-0.01,1-0.01,1.5-0.02c0.56-19.33,2.22-38.62,2.12-57.97c-0.42-0.02-0.84-0.03-1.25-0.05
			C919.64,972.47,918.85,991.81,918.06,1011.16z M1101.3,935.27c-5.23-0.9-7.4,2.38-9.37,5.34c-1.22,1.83-0.02,4.09,1.93,5
			c3.53,1.63,6.4-0.13,8.96-2.5c0.24-0.22,0.49-0.47,0.66-0.74c1.3-2.07,5.12-3.41,4.24-5.58
			C1106.82,934.57,1102.9,936.29,1101.3,935.27z M1258.37,914.67c3.51-4.04,9.11-5.52,7.6-10.98c-0.91-3.29-4-5.7-8.61-5.58
			C1259.58,903.41,1258.88,908.47,1258.37,914.67z M1262.24,935.7c0.5-2.68-4.38-3.84-3.66-7.77c0.21-1.13-2.51-0.66-3.22,0.87
			c-1.34,2.92-1.92,5.97-0.3,9c0.94,1.77,1.23,4.61,4.19,3.92C1261.8,941.12,1261.88,938.67,1262.24,935.7z M953.81,362.72
			c4.31-11.35,3.2-23.4,4.24-35.17C953.01,338.8,955.55,351.04,953.81,362.72z M701.38,1006.82c-0.33-7.27-4.82-13.24-10.12-13.56
			c-1.96-0.12-4.81,0.09-4.91,2.17c-0.1,2.08,2.49,3.23,4.69,3.62c0.56,0.1,1.26-0.63,1.84-0.56c2.02,0.24,4.43-0.01,3.98,3.43
			C696.43,1005.1,698.86,1005.93,701.38,1006.82z M885.58,390.74c7.13,8.44,16.64,9.58,25.61,11.88
			C903.26,398.06,895.85,392.39,885.58,390.74z M885.01,535.95c-1.55,7.19,0.38,13.85,2.82,20.87
			C893.02,548.62,887.39,542.54,885.01,535.95z M1073.49,960.46c2.38-1.26,4.85-2.77,5.9-5.55c0.86-2.29-1.11-3.39-2.47-4.88
			c-1.99-2.19-4.45-2.66-7.07-2.98c-0.17-0.02-0.6,0.72-0.63,1.13c-0.07,0.84,0.09,1.82,1.16,1.85c7.48,0.23,4.27,3.04,1.48,5.88
			c-1.1,1.13-0.41,2.52-0.09,3.77C1071.97,960.43,1072.57,960.67,1073.49,960.46z M716.16,288.1c1.19-5.14,3.6-8.67,7.08-11.49
			c0.61-0.5,0.93-1.95-0.1-1.8c-3.54,0.51-1.99-3.16-3.61-4.12C713.82,278.6,713.54,279.88,716.16,288.1z M1134.45,1079.4
			c-4.62,1.65-6.09,0.51-5.7-3.82c0.32-3.55,3.11-4.34,5.83-5.17c1.01-0.31,2.71,0.15,2.49-1.59c-0.27-2.16-1.95-1.03-3.13-0.96
			c-6.1,0.37-5.99,5.83-7.44,9.66c-0.76,2.02-1.19,5.34,1.87,6.41C1131.56,1085.05,1133.14,1082.72,1134.45,1079.4z
			 M1128.32,1110.81c3.52-0.25,6.61-0.93,8.72-3.88c1.08-1.5,1.06-3.12,0.21-4.67c-0.78-1.41-2.06-2.14-3.72-1.88
			c-1.97,0.31-2,2.08-2.18,3.45C1131.01,1106.38,1129.04,1108.15,1128.32,1110.81z M884.06,415.1
			c5.58,13.04,10.36,20.04,13.83,20.46C893.14,428.58,890.71,420.44,884.06,415.1z M773.92,844.62c3.14-11.01,6.27-22.02,9.41-33.03
			c-0.39-0.11-0.78-0.22-1.17-0.33C777.99,821.99,775.19,833.09,773.92,844.62z M680.74,973.75c-1.75-3.25-4.09-4.78-6.29-6.41
			c-1.46-1.08-3.33-2.31-4.93-0.85c-1.54,1.41-0.47,3.32,0.14,5.08c0.8,2.3,2.14,2.01,3.87,1.31
			C675.7,972.01,677.71,973.26,680.74,973.75z M691.72,977.1c-0.86-4.07-1.12-7.58-2.87-10.68c-1.03-1.83-2.36-3.22-4.58-3.3
			c-0.58-0.02-1.18,0.37-1.77,0.57c0.2,0.58,0.24,1.36,0.64,1.71c3.36,2.91,5.65,6.3,5.58,10.97c-0.02,1.06,0.75,1.9,1.9,1.86
			C691.75,978.18,691.73,977.24,691.72,977.1z M672.61,951.48c-3.17,1.48-7.37,1.65-5.42,6.97c0.37,1.02,0.05,2.55,1.68,2.57
			c1.47,0.02,3.05-0.12,3.64-1.9C673.3,956.73,673.4,954.32,672.61,951.48z M685.61,940.79c-4.6,5.19-5.08,9.57-2,17.57
			c0.06-3.31,1.15-5.88,2-8.52C686.54,946.97,686.97,944.06,685.61,940.79z M1054.87,278.66c2.14-1.1,5.78,0.56,6.93-2.58
			c0.4-1.09-0.56-4.04-3.16-4.23c-1.84-0.13-6.51,4.23-6.31,5.74C1052.53,279.14,1053.73,278.56,1054.87,278.66z M981.63,621.82
			c6.51-6.54,8.72-13.66,9.12-21.55C987.88,607.04,985.02,613.8,981.63,621.82z M1133.32,839.02c-0.29,0.33-0.87,0.71-0.83,1.01
			c0.41,3.11,1.51,6.09,3.15,8.65c0.61,0.95,3.06,0.39,3.87-0.96c1.21-2.02-1.06-3.22-1.75-4.79
			C1136.94,841.06,1135.39,839.81,1133.32,839.02z M748.89,280.63c3.98-1.44,7.62-2.73,11.23-4.11c0.51-0.2,1.19-0.83,1.21-1.28
			c0.04-0.99-0.87-1.19-1.72-1.34C754.71,273.03,751.05,275.17,748.89,280.63z M1186.47,1027.45c-2.91,0.38-5.4,1.46-7.55,3.22
			c-1.26,1.03-1.86,2.5-0.13,3.66c1.18,0.79,2.99,1.85,3.78-0.03C1183.58,1031.92,1186.52,1030.73,1186.47,1027.45z M1263.76,999.64
			c3.87-2.74,5.48-5.44,4.29-9.3c-0.32-1.05-0.77-2.39-2.24-2.28c-1.38,0.11-1.95,1.34-2.01,2.5
			C1263.67,993.3,1263.76,996.05,1263.76,999.64z M920.99,574.21c-4.16,6.04-8.21,12.23-8.21,19.95c2.71-5.82,5.11-11.77,7.49-17.72
			C920.56,575.71,920.75,574.95,920.99,574.21z M1165.34,1060.99c3.55-0.66,6.68-1.45,9.24-3.76c0.65-0.58,1.23-1.33,0.64-2.11
			c-0.29-0.4-1.35-0.69-1.75-0.47C1170.59,1056.23,1166.33,1055.87,1165.34,1060.99z M925.1,406.29c5.85,3.51,13.15,2.02,14.64-3.06
			C935.31,406.6,930.16,405.66,925.1,406.29z M1250.64,1016.6c4.82-0.66,8.06-3.67,8.22-6.64c0.01-0.16-0.4-0.34-0.86-0.7
			C1256.47,1012.01,1254.14,1013.98,1250.64,1016.6z M818.2,526.94c-0.28-5.69-0.55-11.39-0.83-17.08
			C815.58,515.68,815.83,521.37,818.2,526.94z M672.06,934.06c3.19,0.64,5.51,3.9,8.02,1.3c1.33-1.38-0.81-3.93-2.3-4.69
			C675,929.26,674.26,932.34,672.06,934.06z M842.69,282.22c-5.66,4.43-4.01,10.13-3.16,15.69
			C840.15,292.61,840.71,287.29,842.69,282.22z M681.86,980.48c-5.35,4.57-5.34,5.08-0.31,8.8
			C682.92,986.55,682.14,983.8,681.86,980.48z M1036.22,388.47c-4.51,5.09-4.51,5.09,0.66,7.46
			C1037.52,393.47,1038.94,391,1036.22,388.47z M907.82,547.13c1.02-3.22,1.66-5.19,2.26-7.17c0.39-1.26,0.96-2.8-0.85-3.27
			c-2.38-0.61-2.11,1.64-2.31,2.85C906.57,541.59,906.52,543.73,907.82,547.13z M702.31,977.04c-0.42,3.11,0.12,5.83-2.25,7.78
			c-1.28,1.06-0.23,2.03,0.94,2.57c1.23,0.57,1.79-0.06,2.09-1.2C703.85,983.29,704.12,980.43,702.31,977.04z M667.47,949.9
			c1.43-1.25,4.77,1.26,4.77-2.43c0-1.6-0.78-3.96-2.46-3.67C666.92,944.28,667.62,947.27,667.47,949.9z M883.07,430.46
			c-0.51,6.93,0.37,8.6,4.71,9.77C886.32,437.19,885.01,434.47,883.07,430.46z M841.56,384.2c-2.89-3.95-5-6.82-7.65-10.44
			C834.18,379.1,836.03,382.16,841.56,384.2z M1146.83,861.5c0.6-2.36-0.38-4.54,0.02-6.89c0.18-1.02,0.14-2.75-1.41-2.56
			c-1.61,0.2-1.78,1.83-1.28,3.17C1144.95,857.35,1145.93,859.41,1146.83,861.5z M804.97,897.18c-0.3-0.17-0.59-0.34-0.89-0.51
			c-0.53,4.97-1.06,9.94-1.59,14.91c0.3,0.04,0.61,0.07,0.91,0.11C803.93,906.86,804.45,902.02,804.97,897.18z M1044.44,423.32
			c1.25,2.7-0.66,5.77,0.88,8.61C1048.48,427.22,1048.48,427.22,1044.44,423.32z"/>
		<path d="M1017.32,147.14c-2.18,10.59,5.92,16.08,13.78,21.58c3.56,2.5,6.94,5.16,9.88,8.35c1.18,1.29,2.72,2.76,1.31,4.81
			c-1.28,1.87-3.25,2.26-5.32,1.98c-13.49-1.8-28.08-19.03-27.93-32.55c0.09-8.55,1.19-16.6,7.57-23.03
			c1.3-1.31,2.58-2.57,4.28-3.36c6.65-3.06,9.96-0.94,9.21,6.25c-0.57,5.49-0.22,10.97-0.46,16.45c-0.08,1.79,0.36,3.35,1.74,4.47
			c1.55,1.26,2.85,2.53,1.27,4.53c-1.3,1.65-2.29,4.14-4.74,3.93c-2.17-0.19-3.24-2.36-3.64-4.31c-1.38-6.63-0.3-13.23,0.44-19.85
			c0.26-2.28,2.26-5.8-0.42-6.6c-2.23-0.67-4.03,2.86-5.44,5.14C1016.67,138.43,1016.91,142.26,1017.32,147.14z"/>
		<path d="M774.1,125.61c3.04-12.42,5.03-25.61,14.26-35.86c5.44-6.03,12.16-9.13,20.49-7.63c1.48,0.27,3.41,0.59,3.46,2.28
			c0.05,1.77-1.99,2.12-3.38,2.34c-13.76,2.16-19.89,11.94-24.08,23.78c-1.99,5.62-3.32,11.52-6.52,16.66
			c-0.63,1.02-1.37,2.62-3.04,1.82C774.17,128.46,774.04,127.14,774.1,125.61z"/>
		<path d="M784.41,87.49c-10.73,9.77-13.82,22.17-15.58,35.14c-0.53,3.92,0.52,8.09-1.48,11.74c-0.99,1.81-2.3,4.44-4.56,4.03
			c-2.39-0.43-2.38-3.37-2.5-5.43c-0.58-10.36,1.73-20.15,6.5-29.32c2.22-4.27,4.51-8.56,7.76-12.15
			C776.99,88.79,779.68,86.24,784.41,87.49z"/>
		<path d="M892.1,292.93c-5.31-2.86-10.38-3.12-15.51-3.15c-1.26-0.01-3.03,0.52-3.45-1.1c-0.4-1.53,1.22-2.2,2.39-2.77
			c8.4-4.1,16.87-5.14,25.16,0.14c2.21,1.41,5.21,2.7,3.39,6.59c-1.66,3.55-3.82,4.07-6.95,2.04c-0.15-0.1-0.57,0.21-0.94,0.35
			c-0.07,2.2,1.75,3.41,3.13,4.09c4.32,2.1,1.9,4.26,0.15,6.03c-4.76,4.83-15.8,4.47-20.61-0.48c-3.37-3.47-1.14-9.15,4.39-10.64
			C885.79,293.35,888.51,293.35,892.1,292.93z M885,298.46c-0.28-0.62,0.64-2.43-1.32-2.19c-2.07,0.25-3.96,1.83-4.38,3.6
			c-0.46,1.95,2.01,1.68,3.28,1.98C885.32,302.5,884.92,300.4,885,298.46z"/>
		<path d="M908.7,303.04c-2.12,6.22-2.62,13.81-5.83,20.68c-0.66,1.42-2.06,3.47-0.22,4.48c2.39,1.31,4.59,4.63,7.18,3.61
			c2.82-1.11,6.24-1.18,8.53-3.73c1.08-1.2,2.64-2.52,4.29-0.94c1.54,1.47,1.27,3.36,0.11,5.02c-0.57,0.81-1.25,1.6-2.05,2.16
			c-4.82,3.4-16.87,3.18-21.76-0.26c-1.36-0.96-2.38-2.28-2.03-3.73c1.18-4.96,0.32-10.43,3.49-14.88
			c2.98-4.19,3.62-8.78,3.04-13.77c-0.22-1.94-1.26-5.19,1.56-5.42C908.55,295.97,908.66,299.35,908.7,303.04z"/>
		<path d="M924.28,304.15c2.81,0,4.42,0,6.84,0c-2.09-2.52-0.76-6.47-2.43-7.19c-2.64-1.15-3.73,3.11-6.22,4.1
			c1.74-5.12,5.92-7.76,12.43-8.54c5.62-0.68,9.7,1.55,12.78,5.93c1.2,1.71,0.22,3.5-1.43,4.12c-4.49,1.7-9.06,3.27-13.7,4.48
			C929.85,307.75,927.48,306.31,924.28,304.15z M935.41,302.9c2.66,0.22,5.23-0.09,6.47-2.45c0.69-1.32-1.26-2.79-2.11-2.79
			C936.69,297.63,937.08,301.14,935.41,302.9z"/>
		<path d="M932.42,283.04c3.33,0.15,6.65,0.39,9.55,2.27c0.77,0.5,2,1.06,1.58,2.23c-0.44,1.24-1.99,1.83-2.9,1.31
			c-5.56-3.17-9.38,0.89-13.6,3.09c-1.9,0.99-3.56,2.44-5.37,3.62c-2.09,1.36-4.2,3.22-6.18-0.23c-2.15-3.73-1.51-6.57,2.18-8.02
			C922.45,285.43,927.04,282.86,932.42,283.04z"/>
		<path d="M912.53,351.35c-5.85,1.01-11.63-3.05-17.53-0.26c-0.83,0.39-1.69-0.04-1.88-1.03c-0.17-0.91,0.5-1.5,1.19-2
			c5.05-3.66,24.73-4.29,30-0.96c0.98,0.62,2.32,1.27,2.04,2.52c-0.29,1.35-1.75,1.12-2.92,1.16
			C919.8,350.93,916.16,351.16,912.53,351.35z"/>
		<path d="M901.04,358.15c5.35-0.77,9.86-1.46,14.39-2.04c1.05-0.13,2.56-0.56,2.83,1.07c0.19,1.17-0.7,2.1-1.62,2.89
			C912.86,363.33,906.01,362.85,901.04,358.15z"/>
		<path d="M890.6,343.6c-0.44,3.36-0.84,6.72-1.36,10.07c-0.09,0.56-0.56,1.3-1.04,1.49c-0.65,0.25-1.25-0.29-1.26-1.05
			C886.9,350.29,886.24,346.31,890.6,343.6z"/>
		<path d="M1164.02,1020.88c2.97,0.26,4.54,1.88,4.93,4.05c0.38,2.1-1.86,3.42-3.32,3.49c-2.39,0.11-2.4-2.34-2.35-4.08
			C1163.31,1023.18,1162.11,1021.31,1164.02,1020.88z"/>
		<path d="M1080.45,970.39c2.53-0.3,5.41-2.35,7.11,1.44c0.51,1.14,0.73,2.32-0.62,2.91c-1.27,0.56-1.76-0.52-1.93-1.5
			c-0.46-2.6-2.47-2.68-4.46-2.89C1080.54,970.36,1080.45,970.39,1080.45,970.39z"/>
		<path d="M1231.82,1015.53c-1.51,3.4-4.02,4.97-6.64,6.37c-1.6,0.85-3.25,0.85-4.43-0.82c-1.42-2.02,0.43-3.26,1.51-4.14
			C1224.87,1014.8,1228.05,1014.74,1231.82,1015.53z"/>
		<path d="M1269.25,933.47c0.19-1.84,0.35-4.33,2.33-4.37c2.11-0.04,3.55,2.66,3.81,4.32c0.33,2.13-2.32,3.12-4.13,3.31
			C1269.29,936.95,1269.52,934.84,1269.25,933.47z"/>
		<path d="M1259.59,963.22c1.3,0.08,2.63,0.36,2.47,1.86c-0.2,1.92-2.08,2.54-3.53,3.11c-1.32,0.52-2.32-0.67-2.25-1.91
			C1256.38,964.35,1257.84,963.5,1259.59,963.22z"/>
		<path d="M1105.87,913.13c-1.88-0.15-1.85-1.51-1.77-2.59c0.24-3.28,2.83-3.74,5.34-3.98c1.08-0.11,2.84,0.26,2.24,1.78
			C1110.65,910.91,1108.3,912.29,1105.87,913.13z"/>
		<path d="M1109.84,1111.49c-1.63,0.05-1.68-0.92-1.66-1.96c0.06-2.67,1.95-3.21,4.03-3.32c1.02-0.06,2.83-0.2,2.36,1.49
			C1113.94,1109.94,1111.38,1110.32,1109.84,1111.49z"/>
		<path d="M1250.85,998.46c-1.26,2.72-2.72,4.42-5.37,4.44c-1.06,0.01-1.33-0.98-0.99-1.83
			C1245.59,998.27,1247.66,997.47,1250.85,998.46z"/>
		<path d="M1101.83,939.87c-1.06,2.17-2.68,3.48-4.81,4c-1.22,0.29-1.84-0.65-1.61-1.77c0.43-2.04,1.41-3.65,3.82-3.78
			C1100.48,938.25,1101.42,938.6,1101.83,939.87z"/>
	</g>
</g>
</svg>
