<?xml version="1.0" encoding="utf-8"?>
<!-- Generator: Adobe Illustrator 26.0.2, SVG Export Plug-In . SVG Version: 6.00 Build 0)  -->
<svg version="1.1" id="Layer_1" xmlns="http://www.w3.org/2000/svg" xmlns:xlink="http://www.w3.org/1999/xlink" x="0px" y="0px"
	 viewBox="0 0 1920 1080" style="enable-background:new 0 0 1920 1080;" xml:space="preserve">
<g>
	<g>
		<path d="M886.91,14.96c-4.7-3.75-6.45-3.49-9.14,1.7c-1.96,3.77-4.38,7.29-3.11,12.17c0.72,2.8-5.47,7.7-8.34,6.77
			c-3.46-1.12-6.44-1.6-8.95,1.61c-3.09,3.94-5.64,8.04-4.1,14.32c2.38-4.31,4.19-8.09,7.6-10.58c1.2-0.88,2.72-2.11,4.06-1.41
			c1.9,1,0.2,2.71-0.14,3.94c-1.21,4.32-2.74,8.56-4.12,12.84c-0.78,2.44-2.02,5.57-4.38,5.41c-2.49-0.16-5.13-2.22-6.4-4.95
			c-3.53-7.62,1.05-21.46,8.42-25.78c3.05-1.79,6.07-0.59,9.41,0.24c-1.25-8.17,3.33-13.91,6.85-20.02
			c0.41-0.71,0.94-1.59,1.62-1.86c11.73-4.65,19.53-16.55,33.12-17.86c3-0.29,5.93-1.09,8.81,0.2c1.32,0.59,2.41,0.55,3.79,0.15
			c5.62-1.62,11.28-3.13,16.98-0.09c1.49,0.8,2.97,0.18,4.02-1.04c0.35-0.41,0.57-1.51,0.32-1.75c-1.31-1.24-2.71-2.73-4.69-2.48
			c-4.12,0.51-8.25,1.09-12.19,2.51c-0.74,0.26-1.4,0.97-2.3,0.46c3.71-6.7,16.96-9.9,23.5-5.37c2.26,1.57,3.84,1.65,6.3,0.63
			c7.31-3.02,14.7-0.83,22,0.4c2.14,0.36,3.35,1.85,4.5,4.05c2.21,4.25,6.33,6.6,11.24,7.01c7.95,0.67,8.97,1.59,8.88,9.46
			c-0.02,1.8,0.64,1.97,1.98,1.85c6.08-0.56,11.8,1.03,17.67,3.3c-2.57-4.84-4.98-6.11-16.79-8.84c6.68-2.2,12.39-1.29,17.13,2.04
			c11.06,7.76,17.79,18.41,18.73,32.18c0.14,2.05,0.99,2.75,2.73,3.51c15.24,6.66,20.18,25.79,9.78,38.87
			c-2.99,3.76-3.42,6.11-0.12,9.98c5.84,6.84,2.96,16.93-5.44,20.07c-2.47,0.93-3.62,1.96-4.25,4.62c-0.92,3.86-2.73,7.53-5.93,10.2
			c-6.25,5.22-9.02,12.51-12.72,19.48c-3.75,7.05-6.39,14.73-11.87,21.12c-4.66,5.43-6.8,12.88-9.42,19.72
			c-1.02,2.65-1.9,5.41-3.84,7.52c-4.52,4.94-5.06,10.58-3.43,16.76c0.5,1.92,0.92,3.92,0.95,5.89c0.05,3.42,0.61,5.45,4.92,5.91
			c4.1,0.44,4.5,5.15,5.14,8.28c0.86,4.15,1.84,8.46,1.19,12.82c-0.42,2.8,1.08,3.27,3.53,3.25c12.42-0.11,24.59,2.1,35.95,6.82
			c8.1,3.36,15.67,8.22,23.01,13.12c5.68,3.79,4.76,10.4,2.98,15.52c-1.79,5.15-0.03,8.65,2.5,12.16
			c9.06,12.53,12.27,27,14.07,41.88c1.72,14.18,2.29,28.53,4.58,42.61c1.75,10.75,3.6,21.48,4.77,32.95
			c7.52-5.48,12.43-12.6,18.04-19.05c0.87-1,1.53-2.23,2.52-3.09c2.7-2.37,3.59-4.64,1.01-7.85c-1.9-2.36-1.82-5.34-0.39-8.05
			c7.6-14.4,15.3-28.75,25.71-41.4c1.59-1.93,1.94-4.19,1.9-6.55c-0.11-8.85,0.98-17.61,2.19-26.35c1.35-9.79,8.91-14.13,17.33-9.76
			c-0.78,1.79-2.36,2.07-3.98,2.25c-4.35,0.49-5.97,3.21-5.86,7.24c0.26,9.31,0.86,18.63,0.78,27.93
			c-0.07,8.01-1.7,15.87-4.58,23.37c-3.31,8.64,0.52,18.82,8.84,23.04c1.09,0.55,1.92,0.61,2.27-0.73c1.06-4.08,3.28-8.11-0.8-12.02
			c-2.74-2.63-2.78-5.81,0.13-9.54c0.62,6.38,5.28,8.7,9.4,11.34c4.32,2.77,8.61,5.79,14.11,5.8c1.7,0,3.36-0.15,4.72-1.29
			c1.81-1.52,2.69-3.78,2.05-5.78c-0.68-2.15-2.93-0.79-4.38-0.53c-5.59,1.01-10.35-1.76-14.48-4.34
			c-5.36-3.35-10.42-7.66-13.52-13.52c-1.94-3.68-2.05-7.53,1.04-10.62c1.43-1.43,1.9-2.29,0.93-4.16
			c-4.63-8.95-3.34-11.27,6.83-12.68c0.27-0.04,0.51-0.31,1.95-1.25c-2.73-2.31-5.32-4.33-7.72-6.56
			c-4.02-3.74-3.13-9.43,2.07-10.95c3.3-0.97,3.97-2.96,4.41-5.64c0.97-5.91,1.86-11.84,2.97-17.72c0.38-1.99,0.19-3-1.99-3.65
			c-13.99-4.12-20.45-15-21.5-28.15c-1.33-16.68-1.7-33.66,2.8-50.12c4.26-15.54,13.36-27.74,28.13-34.38
			c14.14-6.36,27.74-3.26,39.71,6.15c11.3,8.89,15.58,20.84,12.64,34.85c-2.7,12.88-4.09,25.95-6.62,38.84
			c-2.21,11.29-7.45,21.4-14.08,30.56c-3.79,5.24-9.9,8.21-16.62,8.78c-2.06,0.18-2.53,0.92-2.57,2.69
			c-0.14,5.98-0.3,11.97-1.99,17.78c-0.62,2.14,0.4,3.29,2.25,4.36c2.87,1.65,5.66,3.52,7.29,6.6c0.68,1.29,2.02,2.63,0.84,4.09
			c-1.41,1.74-2.83,0-3.91-0.66c-6.02-3.65-12.53-6.06-19.25-7.96c-1.7-0.48-4.06-1.23-4.95,0.73c-0.8,1.76,1.5,2.77,2.72,3.69
			c7.52,5.68,16.52,7.64,25.43,9.75c2.09,0.5,4.53,0.15,5.46,2.65c0.93,2.49-1.26,3.62-2.71,4.81c-2.17,1.77-2.49,3.96-1.73,6.28
			c1.04,3.16,1.14,6.44,0.1,9.34c-1.94,5.43-1.29,10.78-0.73,16.21c1.03,9.91-2.9,16.44-12.14,19.49c-2.09,0.69-2.43,1.88-2.64,3.6
			c-0.59,4.94-1.21,9.88-1.82,14.82c-0.23,1.85-1.27,3.33-2.02,4.97c-1.97,4.3-8.24,1.86-9.78,7.08c-1.28,4.35-5.81,6.03-9.45,8.31
			c-2.88,1.81-5.6,3.13-9.26,2.46c-2.3-0.42-4.1,0.12-4.82,3.8c-3,15.27-1.04,31.29-6.71,46.06c-4.39,11.44-9.11,22.82-15.73,33.18
			c-6.18,9.67-13.18,18.81-17.56,29.54c-1.87,4.57-6.12,6.44-10.47,6.56c-10.56,0.28-21.14,0.31-31.67-1.01
			c-3.07-0.38-5.19-2.11-7.07-4.25c-4.67-5.31-10.3-9.88-12.84-17.79c-2.49,4.28-4.45,7.7-6.46,11.09c-0.78,1.31-0.77,2.22,1,2.36
			c3.95,0.3,5.33,3.09,5.89,6.37c1.31,7.76,1.43,15.58,0.39,23.37c-0.3,2.23,0.62,3.23,1.69,5c4.55,7.57,13.83,5.3,19.61,10.23
			c3.1,2.65,6.03,5.1,7.47,9.02c1.09,2.97,2.91,4.68,6.43,5.26c7.59,1.24,15.6,10.87,15.98,18.37c0.25,4.98-5.04,10.22-10.63,9.52
			c-3.86-0.48-4.08,1.16-4.7,4.02c-1.68,7.76-3.2,15.58-7.16,22.68c-1.88,3.37-4.01,4.97-8.12,5.04c-4.32,0.06-8.66,2.36-12.82-0.78
			c-0.3-0.23-1.22,0.23-1.8,0.5c-5.8,2.71-9.99,0.72-11.74-5.9c-2.11,1.11-3.69,3.29-6.82,1.4c-2.21-1.33-1.54,1.78-1.52,2.88
			c0.16,7.87,1.67,15.54,3.94,23.06c0.63,2.08,1.31,4.11,0.86,6.34c-0.68,3.35-0.54,6.86-6.06,4.02c-2.74-1.42-6.73,0.24-10.26-0.3
			c-3.77-0.58-6.28-2.22-7.43-5.66c-6.58-19.67-6.97-39.13,2.47-58.11c0.82-1.64,1.67-2.92-0.09-4.31c-1.63-1.28-2.97-3.3-5.6-1.95
			c-10.64,5.47-21.38,3.41-32.28,0.67c-9.1-2.29-14.15-8.68-18.58-16.57c1.23,5.17-1.41,5.49-5.41,5.83
			c-16.56,1.39-31.89-3.08-47.07-8.83c-7.95-3.01-16.19-4.75-24.68-5.84c-13.24-1.71-25.84-6.06-38.15-11.22
			c-1.52-0.64-3.16-0.98-4.75-1.46c-1.89-1.31-3.71-2.73-5.66-3.93c-3.26-2.01-5.15-1.09-5.54,3.06c3.84,0.25,7.58,0.5,11.32,0.75
			c-0.36,3.46-3.26,3.33-5.58,3.82c-2.59,0.55-5.23,1.01-7.86,1.14c-2.68,0.13-3.78,1.57-4.46,4.22c6.76-0.07,13.4-2.06,19.8,0.73
			c-8.07,2.84-17.48,0.37-24.73,5.78c0.11,0.47,0.21,0.94,0.32,1.42c3.71-0.36,7.42-1.05,11.11-0.99c3.64,0.05,7.63-0.57,11.19,2.66
			c-5.87,3.47-12.1,2.22-17.85,3.33c-4.98,0.96-10.51,0.67-12.42,7.58c8.6-3.21,17.24-4.04,27.38-3.26
			c-5.79,3.87-11.27,4.06-16.52,4.6c-4,0.41-7.85,1.35-11.77,2.05c-3.61,0.64-3.86,4.2-6.6,7.49c9.87-2.76,18.63-4.35,28.57-2.55
			c-5.92,5.02-12.45,5.15-18.67,6.09c-1.97,0.3-4,0.43-5.98,0.32c-6.74-0.36-8.97,4.03-10.69,9.91c7.43-1.34,14.3-4.63,22.74-1.88
			c-5.12,3.5-10.28,3.15-14.87,4.54c-1.57,0.48-3.28,0.86-4.9,0.77c-6.56-0.36-8.15,4.32-10.14,9.77
			c10.12-2.4,19.66-5.14,30.31-4.18c-1.36,2.1-3.08,2.28-4.52,2.61c-7.91,1.84-15.82,3.69-23.8,5.22c-3.3,0.63-5.67,1.66-5.82,5.98
			c9.84-2.4,19.52-5.94,30.11-4.51c-0.36,1.86-1.71,2.09-2.88,2.45c-7.62,2.31-15.35,4.08-23.26,5.11c-1.79,0.23-3.97,0.3-5.19,1.36
			c-1.72,1.49-2.64,4.34-1.91,6.31c0.65,1.76,2.94-0.07,4.46-0.31c8.68-1.39,17.27-3.55,27.06-2.97c-3.92,3.91-8.53,4.56-12.79,5.27
			c-6.02,1.01-11.99,2.83-18.26,2.12c-2.22-0.25-6.48,5.42-5.77,7.41c0.71,1.99,2.21,0.74,3.35,0.54c7.68-1.38,15-4.46,22.88-4.9
			c0.65-0.04,1.29-0.09,2.23-0.16c-0.29,0.66-0.34,1.23-0.64,1.42c-7.33,4.53-15.32,7.75-23.89,7.51c-6.09-0.17-8.8,2.05-9.8,7.93
			c9.43-1.56,18.63-5.2,28.38-2.55c-0.4,2.32-2.14,2.45-3.45,2.74c-7.27,1.59-14.55,3.62-22.06,3.08c-4.46-0.32-6.56,1.19-6.78,6.05
			c6.55-0.48,13.06-3.45,20.58-0.81c-6.12,2.43-11.87,2.74-17.42,3.79c-4.23,0.81-6.32,2.89-6.26,7.33
			c7.93-1.62,15.57-5.13,24.86-1.92c-5.5,3.07-10.88,2.97-15.7,4.59c-2.31,0.78-4.87,0.93-7.34,1.08c-3.74,0.23-6.06,1.83-6.46,5.91
			c9.24-1.56,18.28-4.67,28.65-3.09c-3.04,2.81-5.97,3.68-9.01,4.19c-6.38,1.06-12.55,3.19-19.1,3.36c-4.64,0.12-3.8,4.12-4.95,7.42
			c9.01-1.49,17.41-6.31,26.78-2.21c-3.32,4.3-8.21,4.49-12.55,5.21c-4.73,0.78-9.33,2.32-14.23,2.29
			c-3.82-0.02-2.65,3.81-4.73,6.35c8.37-1.54,15.88-3.52,23.69,0.31c-3.75,3.02-8.14,3.13-12.15,4.18
			c-2.87,0.76-5.84,1.52-8.78,1.58c-4.89,0.1-5.3,3.88-6.03,7.04c-0.72,3.12,1.91,1.89,3.26,1.66c8.86-1.52,17.71-2.95,26.73-2.95
			c1.76,0,3.6-0.46,5.42,1.12c-5.81,3.05-12.11,2.42-18,3.67c-5.67,1.2-11.42,2.14-17.18,2.83c-2.93,0.35-3.97,1.83-4.35,4.84
			c15.23-4.06,30.39-5.28,47.01-2.6c-5.25,3.2-10.02,3.38-14.61,3.89c-10.55,1.17-21.11,2.18-31.6,3.91
			c-3.7,0.61-5.23,2.27-5.15,6.13c17.82-4.03,35.76-3.95,53.79-0.67c-4.38,1.79-8.97,2.56-13.59,2.55
			c-13.33-0.03-26.57,0.86-39.73,2.95c-1.45,0.23-3.13-0.13-3.66,1.82c-0.37,1.37-2.1,2.67-1.01,4.04c0.89,1.12,2.5,0.19,3.77-0.05
			c13.26-2.55,26.53-1.54,39.79-0.01c1.31,0.15,2.61,0.54,3.87,0.95c0.58,0.19,1.05,0.71,2.08,1.44
			c-5.32,1.92-10.35,1.97-15.38,1.97c-11-0.01-21.99,0-32.99-0.13c-2.27-0.03-4.18,0.33-4.44,2.79c-0.33,3.16,2.52,2.12,3.94,2.23
			c15.41,1.22,30.48,5.28,45.99,5.65c1.23,0.03,2.45,0.66,4.68,1.3c-8.14,3.2-15.58,2.51-22.85,1.52
			c-9.87-1.34-19.65-3.38-29.48-5.02c-1.69-0.28-4.25-1.83-4.6,1.63c-0.31,3.14,2.4,2.03,3.87,2.3c16.51,3.05,33.04,5.98,49.55,9.01
			c2.52,0.46,5.04,1.11,7.68,2.95c-9.42,2.67-18.01,0.31-26.55-1.15c-11.12-1.91-22.32-3.61-33.09-7.18
			c-0.91-0.3-1.98-0.93-2.75,0.1c-0.88,1.18-0.12,2.14,0.7,3.05c3.66,4.06,8.98,3.96,13.66,5.21c15.42,4.12,31.35,6,46.72,10.38
			c2.33,0.67,4.75,1.16,7.73,3.4c-12.07,0.36-22.44-3.44-34.61-4.72c4.57,3.15,7.45,6.22,12.09,7.07
			c9.33,1.71,18.55,3.98,27.27,7.84c1.46,0.64,3.23,0.91,4.53,3.1c-8.53,1.4-15.66-2.89-23.5-3.86c4.45,5.23,9.58,9.73,16.39,11.15
			c7.55,1.58,13.43,5.82,19.91,9.55c8.91,5.13,17.77,12.07,29.53,9.39c3.49-0.79,7.29-0.36,10.94-0.24
			c5.89,0.19,11.46-1.24,17.17-2.48c9.53-2.06,18.82,1.02,27.87,3.48c11.05,3.01,21.65,6.61,33.62,4.66
			c7.59-1.23,15.51-0.37,23.13-2.71c3.82-1.17,6.03-2.58,4.69-6.88c-0.1-0.31-0.04-0.66-0.07-0.99c-0.75-8.56-0.73-8.4-8.86-6.94
			c-5.6,1-11.24,1.14-16.58-1.5c-0.86-0.42-2.15-0.51-1.94-1.82c0.2-1.23,1.52-1.17,2.43-1.32c5.17-0.83,10.29,0.59,15.44,0.38
			c6.89-0.29,8.44,1.39,6.68-7.06c-0.14-0.65-0.21-1.34-0.13-1.99c0.6-4.75-2.06-4.94-5.57-4.07c-4.03,0.99-8.06,1.97-12.26,1.91
			c-1.89-0.03-4.24-0.01-4.51-2.15c-0.3-2.46,2.33-3.13,4.12-3.29c4.3-0.38,8.65-0.21,12.97-0.37c1.38-0.05,4.2,1.16,3.5-1.61
			c-0.66-2.6,1.67-7.01-3.23-7.63c-2.76-0.35-5.65-0.25-8.42,0.6c-0.77,0.24-1.78,0.18-2.17-0.72c-0.54-1.24,0.48-1.85,1.35-2.27
			c2.38-1.13,4.89-0.81,7.36-0.4c2.94,0.49,4.48-0.26,3.89-3.62c-4.16-23.64-1.13-47.51-2.3-71.25c-0.24-4.96-0.96-9.94-1.98-14.81
			c-3.2-15.22-0.03-30.58-1.2-45.84c-0.71-9.3-1.1-18.63-0.05-27.94c0.26-2.27-0.25-3.09-2.72-2.29c-1.32,0.43-2.89,0.08-4.22,0.08
			c-0.47-1.49,0.5-1.66,1.11-2.13c1.79-1.37,5.36-0.13,5.81-2.85c0.61-3.73,0.34-7.63,0.15-11.44c-0.11-2.16-1.99-1.15-3.15-1.14
			c-3.28,0.04-6.61,0.73-10.44-1.12c2.73-3.26,5.79-2.21,8.72-1.93c1.75,0.17,4.24,1.52,4.16-2.15c-0.05-2.57-0.2-4.31-3.78-4.07
			c-4.49,0.3-9.23,1.32-14.15-1.49c4-2.38,7.52-0.4,10.88-0.21c6.75,0.37,6.76,0.54,6.59-6.05c-0.05-2.02-0.3-3.21-2.84-2.52
			c-6.25,1.68-12.12-1.25-18.19-1.83c-1.16-0.11-2.93-0.77-2.66-2.39c0.25-1.48,1.93-1.66,3.26-1.76
			c5.76-0.41,11.28,0.96,16.56,2.92c3.36,1.25,4.43,0.81,4.39-2.8c-0.02-2.29,0.32-4.66,2.22-6.7c2.67,2.1,2.53,5.27,3.16,8.02
			c4.33,19.09,4.85,38.47,5.46,57.97c0.51,16.31-0.94,32.79,1.34,48.88c2.17,15.27,3.06,30.45,2.16,45.7
			c-0.87,14.72,0.57,29.04,3.09,43.51c3.03,17.4,7.82,34.29,12.34,51.29c0.08,0.32,0.25,0.62,0.37,0.93c0.82,2.21-0.69,6,2.03,6.46
			c2.09,0.36,3.15-3.39,4.79-5.21c7.49-8.3,16.99-11.17,27.84-10.74c8.66,0.35,17.29,0.19,25.43-3.33
			c6.25-2.7,13.24-3.47,19.06-7.33c0.79-0.53,1.9-0.97,2.75-0.11c0.81,0.82,0.28,1.89,0.11,2.84c-0.67,3.76-4.17,4.76-6.77,6.13
			c-6.62,3.47-11.88,9.1-18.77,11.92c-7.25,2.98-15.1,2.93-22.76,2.36c-8.26-0.62-16.12-0.48-22.95,5.06
			c-1.81,1.47-3.89,2.53-6.37,2.55c-1.3,0.01-2.65-0.01-3.59,1.3c-0.77,1.09-0.94,3.28-3.09,2.4c-1.85-0.76-2.58-2.51-2.86-4.4
			c-1.59-10.9-5.11-21.28-8.33-31.75c-0.08-0.27-0.4-0.46,0.01-0.02c0,7.5-0.3,15.63,0.08,23.73c0.48,10.36-1.62,13.44-11.71,15.64
			c-0.92,0.2-1.95,0.75-2.53,1.47c-4.61,5.68-10.77,4.97-17.2,5.05c-19.14,0.23-36.88-7.67-55.71-9c-1.65-0.12-3.2-0.41-4.92-0.02
			c-11.25,2.5-22.38,2.34-33.2-2.14c-0.61-0.25-1.35-0.73-1.86-0.57c-13.32,4.18-23.19-3.99-33.67-9.56
			c-4.54-2.42-8.74-5.22-13.96-6.24c-5.51-1.08-10.06-4.26-14.21-7.99c-2.6-2.33-5.14-4.76-7.96-6.8c-3.08-2.23-5.88-7.09-8.98-6.35
			c-3,0.71-1.29,6.41-2.71,9.73c-1.64,3.84-0.54,6.82,3.36,9.09c8.19,4.77,15.94,10.27,24.58,14.28c1.68,0.78,4.22,1.98,3.46,4.26
			c-0.79,2.36-3.43,1.58-5.28,1.15c-8.54-1.97-15.08-7.28-21.47-12.92c-1.86-1.64-3.06-5.41-5.95-4.29
			c-2.29,0.88-1.9,4.61-1.85,6.78c0.09,3.93-1.45,7.39-1.9,11.12c-0.35,2.9,0.46,3.83,3.39,4.69c18.53,5.47,37.52,8.45,56.61,10.98
			c5.85,0.78,11.46,2.58,16.53,5.41c6.14,3.43,12.61,3.91,19.3,3.77c6.04-0.13,11.82,0.4,17.46,3.08
			c6.88,3.27,14.68,2.49,21.99,4.06c2.7,0.58,2.49-2.55,4.18-4.96c0.16,4.7,1.01,7.89,5.7,8.32c2.83,0.26,4.7,0.27,5.59-3.05
			c0.56-2.08,1.15-4.51,3.33-5.83c0.34,0.29,0.72,0.45,0.8,0.71c0.72,2.4-2.94,5.89,0.98,7.13c2.2,0.69,5.11-1.08,7.74-1.45
			c3.16-0.45,4.78-1.7,4.37-5.22c-0.18-1.53,1.19-2.95,2.83-2.87c1.83,0.08,2.62,2.26,2.09,3.27c-1.81,3.46,0.96,2.16,2.14,2.26
			c8.98,0.81,17.97,0.42,26.96,0.14c3.01-0.09,4.79-1.13,4.58-4.42c-0.04-0.66,0.01-1.34,0.09-2c0.25-2.21-0.13-5.76,2.4-5.69
			c2.98,0.08,3.33,3.61,3.42,6.33c0.18,5.69,0.38,5.91,6.22,4.73c3.67-0.74,7.88-0.95,7.77-6.41c-0.02-1.04,0.55-2,1.72-2.16
			c1.51-0.2,2.05,0.99,2.35,2.11c0.99,3.74,3.58,3.8,6.65,3.15c9.78-2.06,19.1-5.89,28.75-8.14c12.3-2.87,24.38-6.41,36.57-9.61
			c1.45-0.38,3.58-1.47,3.88,1.28c0.21,1.91-0.72,4.1-2.77,4.15c-9.32,0.22-15.88,7.2-24.3,9.6c-6.37,1.82-12.03,5.19-17.86,8.33
			c-11.59,6.23-24.59,7.38-37.46,8.8c-15.95,1.77-31.7-0.58-47.47-2.2c-8.23-0.85-15.75,1.52-23.36,3.73
			c-5.16,1.5-10.28,2.3-15.66,1.45c-6.75-1.08-13.54-0.77-20.29,0.03c-1.91,0.23-3.69-0.14-5.37-0.81
			c-8.28-3.33-16.9-2.8-25.51-2.48c-2.35,0.09-3.66,1.21-2.57,3.48c1.41,2.93,0.51,5.57-0.49,8.17
			c-5.78,14.94-7.45,30.53-7.61,46.39c-0.16,17.13,0.83,34.18,2.62,51.2c0.8,7.64,2.64,15.11,4.87,22.35
			c2.76,8.94,3.22,18.27,5.83,27.26c1.61,5.55,4.19,8.68,9.21,9.47c10.48,1.66,20.97,3.59,31.71,2.43
			c5.13-0.55,10.12-1.69,15.15-2.72c3.7-0.76,4.03-2.48,3.64-5.45c-3.35-25.29-0.93-50.39,1.6-75.6
			c1.69-16.82,5.79-33.08,8.67-49.61c1.48-8.5,3.26-16.97,5.26-25.36c0.57-2.4,0.46-6.88,4.1-6.14c3.41,0.69,2.67,4.52,2.33,7.67
			c-2,18.23-7.19,35.76-11.14,53.58c-3.38,15.24-3.61,31.01-4.48,46.61c-0.61,10.96-1.35,21.94-0.42,32.87
			c0.71,8.31-0.25,16.89,3.45,24.89c0.92,1.98,0.27,4.63,0.72,6.89c3.44,17.4,5.56,35.01,8.45,52.49
			c2.76,16.72,10.54,31.04,22.29,43.12c5.47,5.62,9.26,11.76,11.34,19.48c2.29,8.45,6.18,16.46,9.2,24.72
			c2.25,6.16,3.26,12.47,2.45,19.12c-0.45,3.72-2.26,6.1-5.19,7.96c-4.34,2.75-9.28,3.28-14.19,4.26
			c-16.66,3.3-32.75-0.65-48.65-4.21c-9.59-2.15-18.52-7.6-25.42-14.77c-4.51-4.68-4.49-11.97-5.41-18.36
			c-0.43-2.94,0.75-6.68-0.68-8.72c-1.15-1.63-5.24-0.99-7.88-1.81c-4.57-1.43-8.62-3.37-8.62-9.39c0-3.1-0.99-6.24-1.74-9.31
			c-3.74-15.12,1.49-28.2,9.19-40.72c1-1.62,1.47-2.95,0.85-5.04c-4.36-14.8-8.48-29.67-12.66-44.52c-0.31-1.11-0.26-2.39-0.79-3.37
			c-8.53-15.69-10.15-33.14-13.54-50.25c-2.88-14.5-6.32-28.88-7.63-43.63c-1.51-17.06-3.57-34.11-2.27-51.28
			c0.65-8.69,2.45-17.1,7.02-24.73c2.84-4.75,4.71-9.89,5.75-15.33c0.56-2.92-0.04-4.52-3.06-6.21
			c-15.02-8.43-31.53-11.01-48.18-13.18c-6.04-0.78-11.34-3.81-17.08-5.34c-4.99-1.33-9.46-4.49-15.04-4.02
			c-3.09,0.26-6.61-4.9-6.59-8.68c0.03-11.79,3.46-23.01,5.86-34.39c0.96-4.53,2.38-9.06,4.28-13.27c1.43-3.15,0.49-4.86-1.71-6.87
			c-5.91-5.42-13.64-6.65-20.76-9.27c-1.87-0.69-3.83-1.15-5.65-1.92c-6.3-2.68-8.75-8.29-7.28-15.08
			c2.74-12.6,7.51-24.55,12.59-36.23c5.68-13.07,8.76-26.83,13.09-40.25c7.01-21.67,14.49-43.08,23.94-63.92
			c7.42-16.36,13.77-33.2,23.15-48.59c7.44-12.22,15.34-24.16,23.14-36.16c2.46-3.78,5.34-7.31,9.3-9.62
			c2.71-1.58,2.2-2.65,0.07-4.27c-5.88-4.46-9.87-10.95-16.67-14.58c-4.38-2.34-6.46-7.4-7.54-12.01
			c-3.54-15.09-10.74-28.98-13.72-44.26c-2.09-10.75-6.29-21.14-7.89-31.94c-1.82-12.3-3.45-24.67-4.37-37.14
			c-1.13-15.38-3.18-30.7-5.28-45.99c-1.23-8.99-0.74-17.96-0.76-26.94c-0.02-9.67-0.24-19.32-1.87-28.86
			c-1.29-7.52,1.71-13.22,6.69-18.41c3.72-3.89,7.81-7.24,12.48-9.87c1.02-0.57,2.33-1.01,3.29-0.18c1.2,1.04-0.09,2.13-0.45,3.12
			c-2.03,5.55-8,8.01-10.49,13.16c-0.81,1.67-5.28,2.89-1.16,5.65c-0.59,0.73-1.05,1.69-1.8,2.14c-2.48,1.48-2.27,4.2-1.41,5.71
			c1.33,2.31,3.02-0.24,4.51-0.84c1.37-0.56,2.7-1.23,4.63-2.13c-0.59,3.77-2.49,6-4.98,7.9c-1.18,0.9-2.6,1.62-2.78,3.33
			c-0.12,1.15-0.43,2.47,0.56,3.28c0.95,0.78,1.87-0.24,2.66-0.7c1.94-1.11,3.8-2.37,6.51-4.08c-1.19,4.15-4.25,5.29-6.1,7.44
			c-0.63,0.73-1.71,1.07-2.4,1.77c-1.77,1.8-1.74,4.4-0.59,5.98c1.36,1.86,2.84-0.54,4.04-1.3c2.6-1.66,5.11-3.41,8.92-4.85
			c-2.14,4.7-5.26,7.3-8.42,9.41c-5.35,3.57-5.91,8.27-4.56,14.17c4.85-1.9,7.75-7.1,14.02-8.16c-3.29,5.1-6.48,9.14-11.03,12.04
			c-3.34,2.13-4.03,6.94-1.66,9.85c1.21,1.48,1.96,0.36,2.86-0.29c1.61-1.16,3.16-2.41,4.85-3.44c1.09-0.67,2.39-1,4.22-1.74
			c-1.16,5.21-4.75,7.98-7.66,11.2c-0.77,0.85-1.87,1.43-2.53,2.33c-0.75,1.03-0.53,2.44,0.19,3.3c1.27,1.51,1.92-0.33,2.73-0.87
			c2.92-1.94,4.93-5.38,9.44-5.63c-2.23,5.23-6.07,8.63-9.46,12.38c-0.98,1.08-2.47,1.89-2.31,3.66c0.13,1.47-0.14,3.55,0.7,4.25
			c1.46,1.21,2.46-0.92,3.67-1.62c2.32-1.34,4.78-5.47,6.91-3.35c2.63,2.6-1.41,5.35-3.16,7.34c-3.5,3.99-6.99,7.63-4.47,13.68
			c3.22-0.53,4.76-3.91,7.75-4.87c1.08-0.35,2.26-1.26,3.19-0.09c0.69,0.88-0.09,1.91-0.58,2.75c-1.77,3.06-4.09,5.74-6.8,7.92
			c-2.84,2.29-3.82,4.84-2.64,8.59c2.51-1.94,4.88-3.89,7.37-5.67c1.15-0.82,2.66-2.14,3.96-0.68c1.3,1.46,0.42,3.16-0.7,4.5
			c-1.17,1.4-2.32,2.9-3.74,4.02c-4.68,3.69-5.89,8.26-3.7,14.15c2.33-2.16,4.54-4.32,6.88-6.33c1.11-0.95,2.5-2.13,3.97-0.81
			c1.33,1.19,0.16,2.61-0.47,3.59c-1.98,3.07-3.89,6.28-6.39,8.9c-3.06,3.2-3.17,6.24-0.76,10.26c3.33-3.63,6.53-7.13,9.74-10.63
			c0.4,0.3,0.81,0.6,1.21,0.9c-1.5,4.35-3.84,8.33-6.36,12.18c-3.24,4.96-3.32,4.91-0.71,11.06c4.05-2.97,5.91-8.02,10.88-11
			c-1.24,5.68-3.87,10.08-6.41,14.27c-2.77,4.57-1.63,8.26,0.3,12.67c3.1-2.93,4.48-6.86,8.23-9.48
			c-0.82,7.07-6.46,11.97-6.07,18.63c0.16,2.73,1.19,5.51,3,8.19c3.22-2.9,2.9-7.72,6.92-10.52c-5.36,12.74-3.2,24.79,2.43,36.55
			c1.72,0.06,1.04-2.76,2.63-2.32c1.64,0.45,1.82,2.12,2.04,3.66c0.75,5.19,2.95,10.25,1.13,15.66c-0.86,2.54,1.19,3.34,2.97,3.63
			c2.74,0.45,1.67-1.73,1.67-3.02c-0.01-3.33-0.28-6.67-0.1-9.98c0.11-1.88,1.31-3.7,3.28-3.9c1.83-0.19,2.15,1.76,2.58,3.18
			c1.71,5.74,3.44,11.47,5.05,17.23c0.35,1.27,0.25,2.63,1.6,3.45c1.03,0.63,2.14,1.33,3.24,0.69c1.18-0.68,0.28-1.84-0.01-2.65
			c-1.26-3.57-1.07-7.22-0.82-10.88c0.1-1.45,0.1-3.39,1.96-3.54c1.42-0.11,2.93,0.88,3.46,2.44c1.56,4.55,3,9.14,4.49,13.71
			c0.35,1.08,0.11,2.43,1.29,3.12c1.53,0.9,2.99,3.16,4.72,2.17c1.96-1.12-0.27-2.88-0.57-4.34c-0.77-3.83-2.63-7.61-0.16-11.55
			c5.67,5.82,3.05,17.47,14.01,19.48c0.88-1.83-0.28-2.98-1.05-4.15c-2.58-3.92-3.36-8.28-3.22-12.86c0.03-1.11-0.34-2.64,1.03-3.06
			c1.39-0.43,1.95,1.04,2.51,1.97c2.69,4.46,4.96,9.31,5.54,14.34c0.49,4.22,2.22,5.47,5.81,5.71c0.83,0.06,1.66,0.17,2.48,0.28
			c1.97,0.26,4.44,1.03,5.72-0.47c1.42-1.68-1.09-3.11-1.74-4.69c-1.7-4.12-3.04-8.18-1.49-13.54c3.58,4.46,5.01,8.98,6.37,13.25
			c1.87,5.89,5.42,8.72,11.29,9.56c3.21,0.46,6.34,1.46,10.02,2.35c-1.31-5.72-5.21-10.4-4.34-16.5c2.25,0.21,2.9,2,3.51,3.55
			c1.59,4.02,3.05,8.09,4.45,12.17c0.67,1.96,1.33,3.83,3.56,4.44c1.59,0.43,3.42,1.28,4.74-0.12c1.54-1.63-0.84-2.45-1.3-3.68
			c-1.49-3.95-4.31-7.42-4.54-12.81c4.41,3.74,5.21,8.4,6.67,12.59c1.2,3.41,2.69,5.7,6.65,6.24c4.06,0.55,7.68,3.1,12.02,2.9
			c2.88-0.13,3.38-1.27,1.63-3.3c-2.22-2.56-3.8-5.23-3.54-9.24c4.02,1.82,5.1,5.25,6.79,8.17c0.66,1.14,1.18,2.38,1.91,3.47
			c0.46,0.69,1.28,1.21,2.16,0.81c0.94-0.43,0.74-1.29,0.54-2.14c-0.4-1.71-1.36-3.39-0.39-5.54c4.04,1.9,3.91,6.31,6.2,9.95
			c1.66-4,1.45-7.76,2.05-11.33c0.87-5.14,2.47-10.08,5.09-14.53c1.83-3.11,0.65-4.14-1.9-5.64c-10.15-5.95-21.53-8.86-32.3-13.26
			c-13.44-5.49-26.45-11.76-38.69-19.55c-7.61-4.84-15.63-8.84-23.94-12.21c-7.14-2.9-14.23-2.96-20.73,2.28
			c-1.6,1.29-3.9,3.58-6.04,1.39c-2.23-2.27-0.43-4.64,1.27-6.57c1.64-1.86,2.81-4.13,4.95-5.58c0.85-0.58,2.52-1.02,1.76-2.5
			c-0.36-0.71-1.63-1.32-2.5-1.33c-5.38-0.07-11.08-1.32-15.33,3.54c-0.54,0.61-1.08,1.43-2.03,1.08c-1.15-0.43-1.07-1.54-1.07-2.54
			c0.01-4.53,2.5-7.56,6.3-9.4c5-2.43,10.35-3.99,15.94-2.64c2.57,0.62,2.97-0.32,2.87-2.37c-0.53-11.78-1.07-23.56-1.64-35.34
			c-0.06-1.15-0.12-2.44-0.63-3.42c-6.34-12.06-5.21-25.6-7.94-38.34c-3.59-16.75-2.09-33.98-5.95-50.46
			c-3.11-13.28-8.98-25.64-19.45-35.25c-7.47-6.85-14.75-13.93-21.82-21.2c-5.26-5.42-4.55-14.47,1.01-19.56
			c2.72-2.5,5.63-4.75,9.09-6.07c7.25-2.77,12.87-8.25,19.71-11.65c2.14-1.06,1.5-2.58,1.25-4.22c-0.92-6.2,1.41-10.56,7.44-12.27
			c10.08-2.85,20.29-5.28,30.48-7.72c5.63-1.35,11.32-0.22,16.83,0.77c3.35,0.6,6.27,0.68,9.6-0.06c2.86-0.64,2.87-2.02,2.84-4.15
			c-0.04-3.83-0.15-7.67,0.17-11.48c0.53-6.18,3.49-8,9.16-5.97c4.41,1.57,5.1,1.05,4.26-3.37c-1.32-6.97-3.91-12.75-9.92-17.59
			c-9.3-7.49-12.96-18.65-15.5-30.04c-0.68-3.06-0.5-6.53-5.19-6.86c-1.72-0.12-2.78-2.12-3.14-4.12c-0.78-4.26-3.32-6.62-7.76-6.93
			c-4.57-0.31-7.07-2.75-8.11-7.32c-1.17-5.12-1.19-10.24-1.12-15.4c0.02-1.54,0.2-3.18,1.7-3.92c1.78-0.89,2.76,0.65,3.61,1.81
			c2.66,3.6,5.25,1.35,7.83-0.01c1.57-0.83,2.13-2.26,1.2-3.78c-1.1-1.8-2.32-0.3-3.38,0.24c-2.1,1.08-4.17,2.63-5.75-0.7
			c-0.17-0.36-0.81-0.74-1.2-0.71c-10.14,0.76-10.43-7.53-12.3-13.87c-0.87-2.96-1.64-5.28-4.13-7.42
			c-6.35-5.47-5.09-26.9,1.6-31.89c1.62-1.21,3.7-2.72,5.35-0.97c1.36,1.45-0.72,3.08-1.69,4.17c-3.53,3.97-3.11,8.53-2.3,13.38
			c2-5.6,4.43-10.83,9.62-14.25c0.8-0.53,0.61-2.49,0.95-3.77c2.31-8.81,4.13-18.09,9.09-25.59c4.3-6.51,10.96-11.34,11.58-20.11
			c0.1-1.44,2.72-2.71,4.18-4.05c2.83,0.57,3.67-1.8,4.89-3.43c3.75-5.01,7.89-9.39,14.55-10.25c1.96-0.25,3.27-1.23,3.56-3.59
			C899.2-0.28,890.83,4.39,886.91,14.96z M1033.47,99.68c-0.48-0.01-1.2-0.22-1.39,0.01c-3.7,4.49-7.55,8.4-14.27,6.7
			c-1.45-0.37-2.27,1.12-1.93,2.72c0.59,2.73,2.16,4.08,5.01,3.31c2.87-0.77,5.67-1.79,8.56-2.46c1.21-0.28,2.8-0.4,3.47,1.13
			c0.54,1.23-0.31,2.19-1.09,3.09c-2.89,3.32-6.25,5.42-10.9,4.34c-1.51-0.35-2.78,0.09-2.9,1.78c-0.15,2.15,1.51,1.75,2.78,1.59
			c1.97-0.26,3.91-0.79,5.89-0.94c6.19-0.47,7.36-5.86,10.06-9.88c2.43-3.62-1.44-3.95-2.56-5.7c-1.16-1.83-1.18-3.75-0.8-5.81
			c0.12-2.15,1.9-2.97,3.32-4.05c1.76-1.33,4.13-2.86,5.82-1.26c1.93,1.83-0.77,3.39-1.82,4.81c-1.93,2.6-0.81,3.9,1.72,4.68
			c3.39,1.06,6.34-1.61,6.24-5.58c-0.1-4.25-4.31-9.22-8.02-9.48c-3.51-0.24-6.83,3.58-7.34,8.53
			C1033.25,98.03,1033.42,98.86,1033.47,99.68z M1010.88,458.98l-0.13-0.12c-2.02,2.12-4.18,4.16-3.85,7.9
			c7.9-3.05,15.59-6.02,23.27-8.99c-4.53,3.68-9.45,6.37-14.85,7.92c-7.38,2.12-13.34,5.93-17.29,13.74
			c12.31-5.71,24.36-10.19,36.69-13.98c-1.25,1.02-2.63,1.76-4.07,2.34c-10.49,4.21-20.92,8.58-31.51,12.52
			c-7.88,2.93-10.51,10.2-14.79,16.47c13.1-3.81,25.67-8.82,39.21-9.96c-3.67,1.48-7.41,2.78-11.25,3.56
			c-9.47,1.93-18.01,7.12-27.59,8.21c-5.51,0.63-6.66,4.03-8.68,8.19c20.48-8.29,42.02-9.95,61.79-17.99
			c-0.74,1.72-2.07,2.43-3.56,3.18c-5.5,2.76-11.14,5.22-17.05,6.88c-13.22,3.72-26.51,7.24-39.79,10.76
			c-3.06,0.81-4.96,2.37-4.98,6.87c19.56-8.43,40.34-10.54,60.06-16.79c-6.4,3.91-13.39,6.28-20.59,8.13
			c-7.23,1.85-14.46,3.69-21.67,5.64c-6.9,1.87-13.77,3.87-20.65,5.81c0.15,0.5,0.3,1.01,0.45,1.51c18.4-3.04,36.59-7.13,54.71-11.6
			c-19.24,8.29-39.71,12.13-59.84,17.28c22.56-0.9,43.8-8.22,65.71-12.52c-6.71,5.18-14.83,7.46-22.45,10.84
			c1.05,0.12,1.98-0.14,2.93-0.26c5.51-0.69,10.76-3.25,16.67-0.64c2.95,1.3,6.85,0.7,6.51-4.53c-0.07-1.1,0.4-2.28,0.77-3.37
			c3.43-10.27,5.2-20.93,7.28-31.5c2.26-11.56,3.74-23.28,6.32-34.76c1.61-7.15,3.89-14.14,5.67-22.49
			c-4.53,3.3-7.97,5.84-11.44,8.33c-8.14,5.83-17.22,9.99-26.06,14.59C1013.45,451.92,1009.59,453.86,1010.88,458.98z
			 M816.21,283.37c-5.02,3.43-10.02,6.89-15.07,10.27c-2.23,1.49-2.13,2.66,0.19,3.94c21.74,11.94,35.3,30.58,43.77,53.4
			c0.85,2.29,1.12,4.38-0.21,6.65c-1.02,1.73-0.31,4.81,0.72,4.91c5.6,0.56,2.77,3.99,2.47,6.41c-0.34,2.74,0.37,5.18,1.42,7.91
			c1.88-2.05,1.8-5.53,5.56-6.44c-1.08,3.43-1.9,6.45-2.97,9.37c-2.25,6.16-2.31,6.14-0.58,8.76c2.57-2.77,2.33-7.79,7.77-9.78
			c-2.38,7.02-4.4,12.98-6.7,19.76c4.48-2.22,4.53-7.33,9.58-8.45c-2.65,9.17-9.32,17-5.4,27.12c1.54-2.33,2.92-4.52,4.42-6.63
			c1.5-2.11,2.32-4.89,5.39-6.1c-1.5,9.66-12.91,15.91-7.87,27.56c3.46-4.7,6.63-9,9.81-13.31c-1.29,5.54-3.27,10.49-6.62,14.66
			c-2.45,3.05-1.99,5.59,0.51,8.32c3.87-4.19,6.35-9.38,11.23-12.87c-1.12,9.83-13.42,15.15-9.76,27.06
			c4.42-4.36,7.59-9.02,12.97-12.85c-1.97,5.92-5.31,9.79-8.38,13.84c-5.67,7.49-5.96,8.49-4.5,14c4.96-6.3,9.52-12.69,18.1-16.56
			c-5.08,9.6-11.41,16.52-16.81,24.08c-1.94,2.71-3.42,5.39-2.63,9.74c6.18-6.65,11.77-12.84,19.37-16.63
			c-0.06,0.99-0.41,1.7-0.84,2.34c-3.89,5.85-8.63,10.98-13.5,16c-2.5,2.58-1.22,5.45,0.41,7.12c1.85,1.9,2.93-1.03,4.09-2.18
			c1.77-1.75,3.31-3.75,5.12-5.46c2.07-1.96,3.8-4.49,7.69-5.29c-2.08,7.11-8.26,10.57-11.05,16.25c3.7,2.74,6.56,2.76,9.1-1.74
			c1.37-2.42,3.62-4.54,6.6-5.75c0.3,2.88-1.86,4.37-2.71,6.43c-1.01,2.44-3.6,3.2-5.04,5.18c5.76,3.07,5.73,3.04,9.64-1.06
			c1.15-1.2,2.33-2.59,4.37-2.67c0.1,2.4-1.06,3.84-2.09,5.33c-0.83,1.2-3.21,2.25-0.62,3.85c1.86,1.15,3.92,3.06,5.83-0.14
			c0.8-1.33,1.52-2.96,3.75-2.82c0.61,3.33-2.8,7.99,3.09,9.52c3.4,0.88,6.34,4.69,11.45,0.17c-1.87,4.03-0.89,5.9,1.67,6.5
			c6.32,1.48,12.1,4.38,18.16,6.5c4.79,1.68,8.56-0.97,9.47-5.93c0.6-3.25,1.02-6.52,1.89-9.76c1.01-3.79,2.73-8.49,0.33-11.65
			c-5.24-6.88-9.6-14.39-15.45-20.83c-9.59-10.55-19.17-20.99-27.13-33.05c-19.02-28.81-33.9-59.85-50.32-90.06
			c-3.93-7.23-2.94-10.41,3.73-15.22c5.4-3.89,11.06-7.43,16.42-11.38c5.5-4.05,5.32-4.57,0.7-9.45
			c-6.83-7.22-15.8-12.26-21.01-21.18c-3.6-6.17-7.8-11.99-11.73-17.97c-1.5-2.27-2.57-3.46-5.79-1.36
			c-7.22,4.71-14.94,8.67-22.58,12.7c-1.52,0.8-3.78,2.77-5.34,0.51c-1.69-2.45-0.21-4.66,1.83-6.51c1.62-1.46,4.36-2.13,4.09-5.11
			c1.33,0.68,2.57,0.32,3.76-0.37c5.82-3.37,11.78-6.34,19.19-6.16c-0.9-1.72-1.49-2.88-2.1-4.02c-3.61-6.75-3.52-6.68-8.25-0.83
			C825.22,276.42,821.93,281.27,816.21,283.37z M944.02,30.46c3.81,1.09,6.38,2.63,7.94,5.33c2.08,3.59-0.3,5.56-3.01,7.24
			c-3.05,1.89-3.68-0.44-4.37-2.6c-0.91-2.85-3.03-4.69-5.3-6.45c-1.29-1-2.81-1.84-3.97-0.47c-1.04,1.23,0.8,1.82,1.44,2.67
			c2.83,3.75-0.44,5.72-2.46,7.94c-1.99,2.18-3.82,1.96-5.75-0.45c-3.65-4.53-7.53-3.51-9.75,2.3c-1.17,3.06-3.67,4.72-6.7,3.59
			c-6.81-2.54-15.18-0.51-20.54-8.18c-0.23,4.56,3.39,7.64,8.46,8.39c0.18,1.27-2.49,1.54-1.02,3.42c1.06-0.13,2.2-0.35,3.34-0.38
			c1.97-0.07,4.84-0.47,5.27,1.57c0.47,2.24-2.48,2.77-4.25,3.39c-6.24,2.21-12.8,3.33-19.03,5.73c-4.48,1.73-6.65-0.05-7.86-4.9
			c-0.78-3.14-1.49-6.3-2.24-9.45c-2.13,6.04-4.04,12.33,0.84,17.31c3.76,3.84,8.93,2.66,13.69,1.06c1.28-0.43,2.89-2.26,3.93-0.55
			c0.94,1.54-0.64,3.12-1.82,4.28c-5.63,5.54-20.34,6.75-24.32-5.25c-0.5-1.51-0.5-3.3-2.03-4.45c-0.78,13.19,5.21,18.31,14.06,17.5
			c1.15-0.11,2.33,0.09,3.49,0.04c5.73-0.26,6.7,1.02,4.44,6.35c-1.67,3.93-4.14,7.13-8.36,8.77c-3.54,1.38-7.14,0.74-11,0.55
			c0.28,1.27,0.63,2.22,0.67,3.18c0.22,5.34,2.91,3.8,5.7,2.12c2.33-1.4,4.01-3.88,7.97-4.53c-2.42,4.04-4.6,7.81,0.71,10.45
			c0.37,0.18,0.38,2.12-0.09,2.77c-2.23,3.09-0.92,5.86,0.22,8.84c0.94,2.46,1.44,5.04,1.56,7.77c0.27,6.09-0.63,12.19,1.52,18.25
			c3.6,10.19,6.65,20.57,9.78,30.92c1.14,3.76,2.94,7.14,5.5,9.96c7.23,7.98,13.69,16.82,22.75,22.89c4.91,3.28,9.81,7.45,15.95,7.8
			c11.43,0.65,22.47-1.86,33.18-5.83c1.93-0.71,3.53-1.77,4.9-3.3c3-3.35,6.01-6.68,9.11-9.93c7.33-7.69,12.64-16.23,12.79-27.34
			c0.04-2.91-0.09-6.38,1.79-8.66c5.86-7.13,6.76-16.18,10.07-24.27c0.38-0.92,0.7-1.76-0.04-2.78c-3.22-4.45-2.37-9.43-1.65-14.35
			c0.97-6.61,4.04-12.82,3.34-19.94c8.92,5.75,14.28,3.14,17.48-8.05c-0.98-0.38-1.44,0.51-2.09,0.89
			c-5.27,3.03-16.21,2.79-18.18-1.79c-2.21-5.16-6.59-7.4-9.7-11.18c-3.69-4.49-3.33-11.86,0.69-15.2c0.18,1.28,0.27,2.41,0.5,3.5
			c1.51,7.07,12.24,12.34,17.67,8.69c7.25-4.87,8.87-22.97,2.52-28.9c-0.97-0.91-2.22-2.78-3.67-1.46c-1.82,1.65,0.48,2.52,1.4,3.45
			c5.69,5.79,4.63,14.28-1.77,19.12c-2.8,2.12-5.67,2.55-8.79,1.03c-3.06-1.48-6.83-8.55-6.44-11.98c0.4-3.48,3.57-2.92,5.71-3.76
			c4.78-1.88,7.58-6.05,7.15-10.84c-0.09-1.02-0.08-2.11-1.29-2.41c-1.3-0.32-1.78,0.82-2.1,1.67c-1.05,2.77-2.64,5.62-5.4,6.19
			c-7.21,1.49-13.9,5.99-21.74,4.09c-1.21-0.29-2.99,0.34-3.39-1.33c-0.33-1.35,1.15-1.88,2.14-2.42c1.42-0.78,2.98-1.73,1.31-3.3
			c-1.12-1.05-2.37-3.16-4.61-1.62c-1.51,1.04-2.99,2.11-4.54,3.08c-1.55,0.96-3.3,2.21-5.05,1.04c-1.68-1.12-1.69-3.28-1.36-5.06
			c0.83-4.4,1.91-8.76,2.89-13.13c0.32-1.44,0.81-2.74-0.46-4.17c-5.73-6.48-12.75-10.01-21.47-9.45
			c-11.5,0.74-21.88,5.12-31.94,10.37c-1.34,0.7-2.72,1.65-3.22,3.66c10.35-4.2,10.64-4.14,9.92,2.16c3.04-0.68,5.29-2.78,7.95-4.05
			c6.34-3.02,12.75-6.23,20.02-4.53c5.53,1.3,10.91,3.36,13.48,9.18c1.73,3.91-1.53,5.68-3.9,7.02c-2.86,1.62-2.85-1.59-3.63-3.2
			C956.58,31.14,950.22,28.49,944.02,30.46z M951.68,482.5c0.51-3.79,0.86-6.25,1.16-8.73c0.17-1.46,0.06-2.97-1.99-2.31
			c-6.48,2.07-6.79-4.4-10.1-6.85c3.71-0.74,7.02,0.2,10.31,1.17c1.12,0.33,2.38,0.91,3.01-0.55c0.6-1.41,0.49-2.96-0.08-4.4
			c-0.48-1.19-1.51-1.13-2.51-0.83c-5.58,1.67-9.43-1.72-13.46-4.58c-0.7-0.5-1.21-1.27-0.96-2.13c0.28-0.97,1.26-1.03,2.08-0.96
			c3.63,0.33,7.26,0.71,10.89,1.12c1.4,0.16,3.15,1.16,3.1-1.51c-0.04-1.79,0.36-3.69-2.7-3.53c-3.61,0.2-7.05-0.78-9.97-3.61
			c2.79-0.59,5.55-0.62,8.31-0.58c1.93,0.02,3.77,0.15,3.47-2.76c-0.24-2.39,0-4.79-3.71-4.34c-3.72,0.45-6.79-1.47-9.51-3.7
			c-2.27-1.86-1.61-4.53,1.25-5.08c2.1-0.4,4.32-0.06,6.47-0.26c1.08-0.1,3.07,1.07,2.99-1.23c-0.05-1.33-0.43-3.18-2.44-3.23
			c-1.2-0.03-2.4-0.01-3.32-0.8c-1.42-1.22-4.76-0.84-4.25-3.35c0.37-1.83,3.13-1.22,4.91-1.32c1.18-0.07,2.47,0.09,2.33-1.71
			c-0.1-1.26-0.5-2.28-2.02-2.33c-0.98-0.03-2.31,0.28-2.87-0.24c-1.77-1.64-6.25,0.33-5.79-3.19c0.34-2.69,3.94-1.38,6.11-1.55
			c1.64-0.13,3.1-0.1,2.77-2.35c-0.25-1.67-0.37-3.55-2.88-2.99c-2.92,0.65-4.88-1.93-7.53-2.19c-0.9-0.09-1.52-0.7-1.33-1.72
			c0.16-0.89,0.73-1.52,1.65-1.61c1.32-0.12,2.69,0.03,3.97-0.23c1.57-0.31,4.84,1.68,4.13-2.02c-0.47-2.45,1.11-6.96-4.41-6.52
			c-3.71,0.3-7.01-0.9-9.51-4.87c3.35-0.03,5.85-1.7,8.78-1.1c1.05,0.22,2.55,0.9,2.65-1.01c0.09-1.71-1.01-1.95-2.65-1.97
			c-3.22-0.04-5.98-1.87-8.94-2.96c-0.9-0.33-2.18-0.68-2.04-1.85c0.17-1.41,1.56-1.54,2.72-1.56c3.04-0.04,6.07-0.01,9.23-0.01
			c-0.84-4.85-2.39-8.57-8.38-8.66c-3.08-0.05-6.31-0.85-9.37-2.98c3.36-1.89,6.56-1.34,9.64-1.62c1.31-0.12,3.75,1.62,3.71-1.35
			c-0.02-1.82-0.46-3.75-3.26-4.24c-3.41-0.6-7.15-0.22-10.83-2.72c2.86-0.55,5.1-0.92,7.32-1.43c1.28-0.3,3.83,1.32,3.35-1.91
			c-0.33-2.19-1.26-3.51-4.01-3.17c-3.14,0.39-6.32-0.03-9.31-1.87c1.43-1.46,2.83-0.86,4.08-0.93c1.33-0.08,2.68,0.14,3.99,0
			c0.98-0.1,2.45,0.58,2.7-1.29c0.38-2.82-3.17-7.14-6.13-7.36c-4.04-0.29-7.75-1.71-12.38-3.04c3.46-2.1,6.59-1.09,9.36-1.87
			c1.36-0.38,3.67,0.72,4.01-0.87c0.38-1.74-0.29-3.95-1.12-5.65c-0.91-1.85-3.09-1.46-4.91-1.69c-4.78-0.62-9.96,0.06-14.44-3.96
			c4.53-2.19,8.87-1.05,13.02-1.5c1.3-0.14,3.61,1.04,3.67-1.11c0.07-2.27-2.12-1.85-3.83-1.72c-4.6,0.35-8.67-0.74-12.18-4.81
			c5.07-0.84,9.45-0.11,13.93,1.17c-0.66-2.81-1.52-4.28-4.48-4.79c-4.19-0.72-8.19-2.55-12.27-3.93c-0.95-0.32-2.06-0.72-2.04-1.87
			c0.02-1.24,1.32-1.5,2.21-1.57c2.82-0.22,5.67-0.46,8.47-0.25c3.62,0.27,3.76-1.06,2.85-4.08c-0.77-2.54-2.51-2.33-4.25-2.42
			c-3.9-0.19-7.78-0.41-12.13-2.62c4.02-1.25,7.35-0.91,10.58-0.82c3.7,0.1,3.75-1.32,2.54-4.17c-0.92-2.17-2.53-2.14-4.39-2.44
			c-5.33-0.85-11.02,0.17-17.05-3.11c5.07-0.54,9.05-0.82,12.97-1.44c1.65-0.26,4.6,0.9,4.45-2.32c-0.11-2.45-1.51-3.66-4.44-4.25
			c-7.53-1.5-15.3-1.94-22.84-4.36c1.41-2.35,3.44-1.8,5.13-1.99c5.12-0.59,10.26-0.8,15.4-0.09c0.96,0.13,2.24,0.49,2.78-0.46
			c0.63-1.09-0.27-2.2-0.75-3.26c-1.06-2.34-3.09-1.6-4.79-1.43c-6.32,0.62-12.57,0.84-19.3-1.63c6.12-1.92,11.95-0.38,17.4-1.95
			c1.36-0.39,4.06,0.88,3.74-1.81c-0.31-2.67-2.87-1.64-4.52-1.43c-4.05,0.51-8.07,1.02-12.5-0.46c4.97-1.95,9.61-3.02,14.48-3.78
			c-1.05-3.54-2.54-5.22-6.05-2.88c-1.65,1.1-3.53,1.72-5.61,1.87c-12.4,0.85-24.11,4.81-35.91,8.28
			c-7.31,2.15-9.32,2.47-2.92,11.19c0.39,0.53,0.92,0.97,1.3,1.51c11.5,16.37,21.71,33.6,36.46,47.63
			c10.73,10.21,9.38,17.4-2.24,26.73c-4.18,3.36-8.82,5.89-13.44,8.39c-3.7,2.01-3.35,3.96-1.49,6.73
			c4.71,7.01,9.25,14.1,12.92,21.76c5.74,11.97,13.7,22.65,20.35,34.07c8.82,15.13,17.67,30.07,28.83,43.7
			C934.57,464.93,943.73,472.3,951.68,482.5z M992.38,329.54c4.52-1.88,8.31-4.48,12.81-5.17c1.56-0.24,3.62-0.69,4.36,1.35
			c0.76,2.09-1.13,3.15-2.54,3.72c-4,1.61-8.05,3.52-12.24,4.1c-4.4,0.61-5.19,2.55-4.52,6.47c4.55-1.68,8.78-4.34,14.12-2.12
			c-3.16,3.87-7.48,4.45-11.32,5.56c-5.29,1.52-6.74,5.05-6.92,10.13c4.42-1.45,8.47-2.9,12.6-4.09c1.89-0.55,4.65-1.12,5.44,0.89
			c0.84,2.11-1.7,3.34-3.45,4.17c-4.37,2.06-9,3.4-13.74,4.29c-2.3,0.43-4.1,1.07-3.8,4.32c6.39-2.25,12.35-5.3,19.95-3.26
			c-5.59,5.16-11.57,7.67-18.16,9.03c-1.93,0.4-4.16,0.57-4.79,2.9c-0.86,3.15-1.45,6.38-2.24,9.96c7.25-1.49,13.1-6.6,21.31-5.31
			c-4.64,5.93-10.78,7.58-16.75,9.22c-6.55,1.79-7.67,2.86-7.98,10.32c5.22-2.51,9.43-6.52,14.77-8.46c1.85-0.67,3.69-1.73,5.77-0.9
			c1.22,0.49,2.86,0.84,3.16,2.17c0.35,1.52-1.35,2.15-2.37,2.83c-5.39,3.59-11.53,5.31-17.82,5.99c-4.62,0.5-5.85,2.67-5.59,7.12
			c2.45-1.27,4.48-2.38,6.57-3.38c3.92-1.88,7.93-3.48,12.39-3.37c1.82,0.05,4.09-0.18,4.73,1.92c0.72,2.36-1.72,3-3.2,3.75
			c-5.86,2.97-12.27,4.06-18.66,5.19c-1.18,0.21-2.86-0.63-3.24,1.37c-0.63,3.36-1.2,6.74-1.78,10.04c1.52,0.78,2.44-0.1,3.48-0.51
			c4.63-1.85,9.23-3.78,13.93-5.43c1.56-0.55,4.12-1.65,4.82,0.4c0.65,1.92-2,2.73-3.54,3.52c-4.48,2.28-9.37,3.93-14.27,4.01
			c-5.97,0.1-6.31,3.47-6.42,8.33c2.19-1.03,3.93-1.95,5.75-2.68c5.09-2.03,10.1-4.43,15.82-3.73c0.76,0.09,1.91,0.44,2.12,0.96
			c0.49,1.25-0.81,1.49-1.65,1.94c-5.92,3.21-12.44,4.71-18.92,5.95c-4.94,0.95-5.39,3.94-5.42,7.78c-0.02,2.11,0.67,2.72,2.69,1.69
			c3.25-1.66,6.54-3.27,9.89-4.7c1.96-0.84,4.96-1.88,5.81,0.35c1.05,2.74-2.33,3.04-4.16,3.67c-3.92,1.34-7.93,2.43-11.94,3.5
			c-1.78,0.47-3.88,0.52-3.22,3.21c0.71,2.9,2.58,0.9,3.92,0.71c2.12-0.3,4.24-1.33,6.36-0.38c0.99,0.44,2.14,1.25,2.53,2.17
			c0.6,1.4-0.96,1.98-1.88,2.5c-2.88,1.63-5.76,3.37-9.3,3.03c-1.71-0.16-2.87,0.33-3.19,2.23c-0.16,0.97-0.86,2.1-0.12,2.83
			c1.16,1.13,2.47,0.09,3.71-0.26c3.4-0.95,6.81-2.01,11.15-0.97c-4.06,4.28-8.78,5.2-13.49,5.59c-2.64,0.22-3,1.68-3.21,3.51
			c-0.31,2.76,1.88,1.5,3.05,1.67c1.49,0.21,3.35,0.13,3.57,1.94c0.18,1.51-1.65,1.91-2.77,2.49c-1,0.51-2.17,0.76-3.29,0.9
			c-1.06,0.13-2.18,0.19-1.96,1.56c0.26,1.59,1.38,0.8,2.29,0.57c2.03-0.52,4.11-1.15,5.6,0.35c-0.9,5.15-7.46,1.33-8.93,5.92
			c1.95,0.96,3.55-1.38,5.41,0.82c-3.66,2-8.05,3.92-4.64,9.26c0.02,0.03-1.36,0.65-1.46,1.12c-0.54,2.55-3.34,5.79,1.85,6.67
			c-0.52,1.34-1.71,1.39-2.4,2.02c-1.79,1.61-3.87,15.61-2.89,17.88c0.64,1.49,1.73,1.2,2.9,1.08c3.79-0.4,4.75-3.61,5.61-6.31
			c4.54-14.24,12.74-26.04,22.66-37.06c4.72-5.24,10.1-10.27,13.03-16.95c9.4-21.4,22.96-40.43,34.54-60.59
			c3.41-5.94,3.82-10.28-0.26-16.13c-4.28-6.14-8.76-12.15-13.14-18.22c-2.59-3.58-4.19-7.32-1.21-11.45
			c9.45-13.13,15.64-28.2,24.73-41.57c3.49-5.14,8.06-9.79,9.42-16.3c1.19-5.7,3.26-11.15,5.7-16.46c3.01-6.55,2.49-7.75-3.98-10.57
			c-1.37-0.59-2.9-1.07-3.97-2.03c-11.32-10.16-26.08-11.5-39.75-15.6c-1.05-0.31-2.73-1.67-3.24,0.52
			c-0.32,1.38-0.32,3.13,0.27,4.36c0.63,1.32,2.02,0.15,3.06-0.11c1.12-0.29,2.24-0.65,3.38-0.84c0.99-0.17,2.15-0.18,2.59,0.93
			c0.46,1.17-0.53,1.87-1.39,2.31c-2.21,1.13-4.44,2.27-6.77,3.13c-2.15,0.79-2.26,2.5-1.87,4.06c0.67,2.69,2.38,0.55,3.49,0.33
			c3.66-0.73,7.26-1.92,11.45,0.01c-3.96,3.77-8.51,5.37-13.12,6.45c-3.89,0.91-4.91,2.72-3.67,6.28c3.56-0.73,6.98-1.39,10.39-2.13
			c1.99-0.43,4.03-0.15,4.74,1.71c0.78,2.07-1.52,2.72-2.88,3.36c-3.6,1.68-7.22,3.49-11.03,4.49c-3.42,0.89-4.49,2.6-4.27,6.17
			c5.13-2.14,9.96-3.74,15.96-2.99c-3.75,4.42-8.28,5.3-12.33,5.97c-5.45,0.9-6.55,3.91-6.38,8.9c5-2.45,9.97-4.52,16-2.09
			c-4.05,3.85-8.86,4.56-13.27,4.98c-5.41,0.51-5.68,3.82-6.42,8.37c5.49-3.09,10.37-6.42,16.89-3.88
			c-3.52,3.51-7.88,4.28-11.93,5.06C994.49,320.92,992.27,323.81,992.38,329.54z M1136.2,412.55c2.74-0.61,5.14,4,6.79,0.47
			c1.31-2.79-1.92-4.34-4.23-5.76c-2.6-1.59-4.55-4.2-5.58-6.8c-2.06-5.2-6.59-8.57-8.65-14.27c-0.8,1.23-1.28,1.72-1.48,2.31
			c-4.05,11.79-10.78,22.05-20.69,29.32c-10.38,7.62-17.55,17.37-23.88,28.2c-5.86,10.03-10.3,20.16-9.85,32.29
			c0.3,8.01-0.17,16.33-4.68,23.67c-0.98,1.6-1.06,3.78-1.46,5.71c-0.12,0.58,0.06,1.22,0.11,1.83c7.06-1.05,3.69,4.42,4.21,7.11
			c0.7,3.66,1.79,6.42,6.06,6.51c9.47,0.2,18.94,0.41,28.41,0.61c0.84,0.02,1.79,0,2.2-0.84c0.55-1.13-0.43-1.8-1.05-2.54
			c-1.55-1.85-3.69-3.28-4.56-6.39c1.77,1.69,3.02,3.02,4.42,4.17c1.01,0.83,1.9,3.18,3.43,1.65c1.45-1.45,2.27-3.58,0.07-5.68
			c-2.45-2.34-4.74-4.9-6.88-8.9c3.48,1.52,4.97,3.78,6.98,5.37c1.15,0.91,2.23,3.14,4.01,0.96c1.36-1.67,1.82-3.22-0.43-5.04
			c-2.71-2.2-5.46-4.62-7.02-8.81c3.38,1.14,5.36,3.06,7.54,4.73c1.25,0.96,2.74,3.23,4.48,0.69c1.29-1.87,2.79-3.96-0.31-5.83
			c-2.68-1.62-4.37-4.12-5.71-6.88c2.62,1.25,4.98,2.75,7.33,4.25c1.16,0.74,2.36,2.49,3.48,0.04c0.66-1.45,2.57-2.76-0.06-4.56
			c-2.84-1.94-5.21-4.54-7.24-8.5c3.49,1.66,5.52,3.63,7.43,5.64c2.46,2.59,3.6,1.72,4.88-1.15c1.39-3.09,1-5.1-1.83-7.22
			c-3.21-2.41-5.69-5.62-6.72-10.81c3.01,2.37,5.11,4.23,7.43,5.78c1.36,0.91,2.43,4.17,4.66,1.46c1.57-1.9,2.55-4,0-6.52
			c-3.34-3.3-6.1-7.2-7.94-13.23c4.09,3.67,7.19,6.33,10.15,9.15c2.42,2.31,3.4,0.87,4.09-1.4c0.64-2.08,0.37-3.54-1.93-4.85
			c-3.69-2.1-6.12-5.55-7.56-9.6c-0.27-0.77-0.8-1.66-0.1-2.32c0.98-0.92,1.86-0.04,2.59,0.55c2.07,1.67,4.02,3.49,6.13,5.11
			c0.81,0.62,1.53,2.18,2.85,1.2c1.11-0.82,1.32-2.26,1.32-3.63c-0.01-1.69-1.36-2.55-2.26-3.72c-3.07-3.97-6.42-7.81-7.62-12.94
			c3.36,2.52,6.34,5.33,9.33,8.13c0.68,0.64,1.38,1.82,2.39,0.77c0.85-0.88,0.95-2.19,0-3.16c-0.68-0.69-1.61-1.15-2.43-1.71
			c-3.45-2.33-5.48-5.74-7.07-9.46c-0.47-1.1-0.93-2.43,0.17-3.2c1.18-0.82,2.15,0.4,2.99,1.1c1.66,1.38,3.2,2.91,4.87,4.28
			c0.69,0.57,1.61,1.7,2.47,0.52c0.5-0.68,0.66-2.04,0.32-2.8c-0.44-0.98-1.46-1.76-2.35-2.46c-2.61-2.03-4.82-4.32-6.13-8.11
			c3.24,0.49,4.78,2.64,6.87,3.75c1,0.53,1.83,2.67,3.13,1.03c1.05-1.32-0.59-2.28-1.49-3.23
			C1138.91,416.82,1136.8,415.32,1136.2,412.55z M1067.63,293.42c-4.09,22.48-22.96,36.55-31.8,56.45c1.43-0.14,1.76-1.18,2.36-1.91
			c7-8.64,13.45-17.67,19.48-27.01c2.37-3.67,5.32-6.91,10.78-8.38c-5.28,10.95-14.46,19.36-13.73,33.37
			c3.31-6.63,5.77-12.16,11.51-15.16c-2.54,6.47-5.59,12.63-8.58,18.82c-0.64,1.33-1.18,2.74-1.52,4.17c-0.22,0.94-0.14,2.15,1,2.55
			c0.97,0.35,1.35-0.7,1.88-1.27c1.64-1.75,2.83-3.95,5.07-5.22c0.81,1.54-0.41,2.3-0.85,3.29c-2.07,4.65-5.11,8.94-5.81,14.12
			c-0.22,1.67-1.11,4.25,0.91,4.99c1.99,0.74,1.83-2.31,3.13-3.26c0.44-0.32,0.37-1.34,0.67-2.62c1.79,3.05,0.81,4.2,0.37,5.38
			c-1.05,2.8-2.25,5.54-3.28,8.35c-0.52,1.42-0.92,3.36,0.48,4.13c1.97,1.08,2.25-1.31,3.07-2.36c1.36-1.73,2.24-3.95,5.08-4.72
			c-0.82,5.13-2.85,9.42-4.56,13.87c-1.51,3.95-4.08,8.41,0.25,12.83c1.3-1.77,2.32-3.17,3.73-5.08c0.08,6.88-5.85,11.88-3.62,18.87
			c3.03-2.25,3.17-6.65,7.16-7.75c-0.71,11.32-8.08,20.16-10.31,30.71c4.96-6.34,8.43-13.66,15.04-19.95
			c0.06,3.72-0.83,5.91-1.85,8.21c-4.72,10.68-11.4,20.22-17.23,30.26c-0.8,1.38-2.46,2.81-0.42,4.93
			c3.77-6.09,7.15-12.16,11.13-17.83c6.36-9.05,10.84-19.57,20.24-26.31c1.78-1.28,2.01-3.2,1.88-5.36
			c-0.38-6.29-1.66-12.53-0.48-18.91c0.81-4.42,0.13-8.97,0.19-13.45c0.18-13.78-3.35-26.95-6-40.28
			C1079.7,325.24,1075.13,309.04,1067.63,293.42z M1038.91,602.26c1.95-0.07,2.35,0.62,2.81,1.35c5.83,9.35,7.64,19.68,7.29,30.49
			c-0.08,2.3,0.67,3.51,2.92,3.69c2.7,0.22,2.35-1.81,2.27-3.4c-0.15-3.15-0.43-6.3-0.71-9.44c-0.62-6.84-1.58-13.66-1.32-20.98
			c0.88,0.6,1.26,0.72,1.39,0.97c0.37,0.74,0.69,1.51,0.95,2.29c2.92,8.59,4.56,17.35,3.2,26.44c-0.48,3.25,0.25,4.8,4.07,4.84
			c4.2,0.04,3.62-2.25,3.35-4.84c-1.44-13.51-1.01-27.31-6.53-40.16c-0.65-1.52-1.09-3.4,0.63-4.52c1.32-0.87,2.73,0.08,3.5,1.09
			c3.8,5.07,7.72,10.37,7.96,16.85c0.33,8.95,0.96,17.97-0.46,26.9c-0.28,1.78-0.04,2.94,1.84,3.4c1.86,0.46,2.85-0.43,3.25-2.15
			c1.88-8.08,4.46-16.04,3.71-24.52c-0.76-8.5-2.98-16.64-5.61-24.72c-2.43-7.45-7.78-11.26-15.04-12.94
			c-7.37-1.71-14.85-2.48-22.38-3.32c-7.64-0.84-15.39-1.94-23.03-3.3c-3.85-0.69-7.77,0.06-10.21,4.28
			c-1.95,3.37-2.74,6.63-0.41,9.76c4.63,6.22,9.09,12.69,15.73,17.02c9.13,5.96,14.94,14.2,17.8,24.67
			c1.15,4.21,3.93,7.49,6.98,11.81C1041.45,622.61,1040.18,612.46,1038.91,602.26z M1173.74,231.39c0,3.82-0.31,7.68,0.1,11.46
			c0.33,3.09,1.47,6.11,2.33,9.13c2.11,7.44,8.3,9.96,15.15,6.4c5.14-2.68,8.75-6.59,10.47-12.11c3.5-11.24,8.14-22.2,8.86-34.13
			c0.84-13.96,4.11-28.07-3.26-41.52c-2.75-5.02-7.29-10.12-10.92-9.62c-8.02,1.11-13.8,3.47-15.41,11.7
			C1177.25,192.08,1174.7,211.66,1173.74,231.39z M958.53,319.09c4.7,0.34,8.68-1,12.6-3.09c3.95-2.11,6.29-5.99,9.63-8.43
			c8.27-6.05,11.69-14.5,14.17-23.72c0.37-1.36,1.68-3.48-1.64-3.25c-7.62,0.53-15.35,0.23-22.74,2.5
			c-15.22,4.68-30.22,5.99-44.88-1.97c-0.65-0.35-1.79-0.54-2.31-0.2c-1,0.64-0.46,1.74-0.15,2.7c0.81,2.53,1.35,5.16,2.37,7.6
			c3.07,7.33,4.1,15.97,12.54,19.96c4.19,1.98,8.36,4,12.49,6.09C953.2,318.58,955.82,319.51,958.53,319.09z M934.3,313.3
			c5.08,37.24,16.65,72.3,26.41,107.92c4.13-35.42,15.66-69.04,23.64-103.72c-4.74,3.39-10.3,4.24-15.13,6.74
			c-1.32,0.68-3.92,1.29-2.4,3.4c4.43,6.16,2.64,12.74,1.87,19.28c-0.49,4.15-6.74,10.06-11.14,10.7
			c-3.68,0.53-8.96-2.86-10.91-7.23c-3.57-7.99-3.35-15.88,1.47-23.29c1.21-1.87,0.91-2.49-0.57-3.91
			C943.6,319.4,937.99,318.05,934.3,313.3z M968.97,543.7c4.08,2.19,4.29,7.53,9.37,5.97c11.45-3.51,22.77-1.67,34.03,0.91
			c3.05,0.7,6.48,1.85,7.82,4.87c1.39,3.12,3.14,4.22,6.35,3.68c2.87-0.48,5.7,0.37,8.68-1.24c9.28-5.02,9.25-13.27,8.38-21.94
			c-0.26-2.6-1.19-4.09-4.21-2.15c-3.47,2.23-7.52,2.45-11.56,2.36c-3.99-0.08-8.01-0.44-11.97-0.14
			C1000.56,537.17,985.72,541.25,968.97,543.7z M994.09,582.74c-0.49-7.32,2.71-12.98,7.19-18.13c0.93-1.06,3.07-2.61-0.15-3.3
			c-7.11-1.54-14.29-2.74-21.41-4.23c-3.46-0.72-5.75,0.46-7.38,3.49c-3.01,5.59-3.72,11.6-3.68,17.84
			c0.06,9.68,7.15,16.01,17.24,14.92c-3.24-3.11-6.19-6.26-6.28-10.97c-0.02-1.15-0.28-2.6,0.88-3.14c1.37-0.63,2.11,0.75,2.59,1.73
			c1.81,3.7,4.76,6.86,5.29,11.18c0.24,1.98,1.17,3.27,3.66,2.78c-1.22-3.03-2.51-5.72-3.38-8.53c-0.68-2.18-1.46-5.08,0.65-6.45
			C990.99,578.84,991.58,582.3,994.09,582.74z M1169.14,401.66c-1.99-1.65-3.38-2.22-4.81-1.47c-4,2.08-7.74,0.65-11.32-0.88
			c-4.97-2.12-9.19-5.34-11.86-10.22c-0.64-1.18-1.24-2.64-0.08-3.7c1.23-1.11,2.08,0.35,2.92,0.99c3.84,2.96,8.75,4.01,12.54,7.1
			c1.03,0.84,3.3,1.75,4,0.39c1.11-2.14-1.55-2.04-2.67-2.57c-4.42-2.06-8.05-5.08-11.18-8.74c-1.16-1.35-1.76-2.99-0.71-4.56
			c1.12-1.68,2.45-0.11,3.51,0.3c3.41,1.31,6.73,2.83,10.07,4.3c1.43,0.63,2.37,0.19,2.43-1.31c0.04-1.08,0.86-3.07-1.57-2.63
			c-1.49,0.27-2.71-0.13-3.69-1.03c-8.7-7.91-18.78-15.1-15.7-29.33c0.03-0.14-0.41-0.39-0.91-0.84
			c-4.73,8.19-9.99,15.96-13.53,24.73c-0.48,1.19-0.7,2.27,0.16,3.26c6.48,7.51,11.3,16.43,18.84,22.97
			c3.63,3.15,7.79,6.81,13.36,5.21C1161.96,402.76,1165.01,402.14,1169.14,401.66z M937.13,274.31c1.48-2.66,0.55-5.26,0.47-7.86
			c-0.32-10.8-0.15-21.58,3.29-31.96c0.95-2.88-0.19-3.83-2.5-4.02c-4.46-0.37-8.94-0.4-13.4-0.69c-2.8-0.18-6.17-1.65-8.24-0.57
			c-2.82,1.48-0.72,5.42-1.36,8.25c-1.74,7.65-2.06,15.45-1.51,23.25c0.26,3.74,1.32,7.29,5.21,10.79
			c-0.78-10.85,0.47-20.44,2.66-30.46c1.76,1.98,2,3.63,1.74,5.56c-1.1,8.05,0.53,16.03,0.69,24.05c0.05,2.3,1.88,2.78,3.5,2.65
			c2.11-0.17,1.15-2,1.07-3.17c-0.21-3.15-0.78-6.3-0.77-9.44c0.02-9.4,0.15-18.81,3.6-29.22
			C937.93,246.07,933.9,260.67,937.13,274.31z M959.6,275.73c4.08,0.78,6.14,0.33,5.67-4.87c-0.78-8.6-0.77-17.28-0.65-25.93
			c0.04-3.08-0.78-6.97,3.45-9.14c4.55,12.69,8.25,25.12,4.49,38.5c3.22,0.7,4.74-0.63,4.57-4.15c-0.52-10.79-0.9-21.58-1.47-32.36
			c-0.11-2-0.4-3.99,0.19-5.91c0.35-1.12,1.09-2.19,2.4-2.26c1.19-0.06,1.55,1.06,1.93,1.97c1.18,2.85,2.57,5.5,2.71,8.84
			c0.15,3.57,1.59,7.09,2.47,10.63c0.96-6.51,0.75-12.89,1.04-19.24c0.15-3.23-0.87-3.91-3.92-3.9c-9.01,0.04-17.58,3.51-26.67,3.15
			c-2.88-0.12-3.41,2.56-1.67,4.61c2.69,3.16,2.95,6.84,3.44,10.65c0.61,4.68,0.99,9.5,1.89,13.99
			C960.54,265.61,960.88,270.51,959.6,275.73z M1016.61,447.99c10.65-5.85,20.03-11.82,29.68-17.26c6.86-3.86,8.51-8.43,7.93-15.5
			c-0.56-6.83-0.12-13.75-2.05-20.71c-5.62,3.52-7.66,9.07-10.83,14.61c4.07-1.4,6.2-5.07,10.44-5.54
			c-5.59,9.08-17.38,11.22-21.98,22.21c8.15-4.72,15.26-8.97,21.75-14.61c0.51,1.88-0.6,2.31-1.22,2.97
			c-5.2,5.54-11.86,8.99-18.42,12.51c-4.27,2.29-7.06,5.6-9.48,11.17c9.95-5.07,17.43-11.82,26.53-15.75
			c-7.9,6.06-15.9,12.02-24.86,16.33C1020.07,440.36,1017.99,443.05,1016.61,447.99z M1023.88,611.43
			c-2.23,1.95-2.43,4.16-2.88,6.18c-3.42,15.31-3.29,30.62,0.06,45.92c0.61,2.78,1.27,4.87,5.2,4.23c3.82-0.62,5.17-2.01,4.39-5.76
			c-1.61-7.74-2.15-15.6-0.33-23.3C1032.74,628.44,1028.19,620.22,1023.88,611.43z M1173.85,316.47c-2.22,0.56-5.09-0.55-5.91,2.06
			c-0.84,2.65,2.02,3.3,3.58,4.69c5.96,5.31,13.17,7.46,20.79,8.77c4.16,0.71,6.39-1.42,5.5-5.49c-0.58-2.64-3.23-1.98-4.84-2.85
			C1186.88,320.41,1180.52,317.73,1173.85,316.47z M918.07,35.89c-1.54,0.51-3.11,0.96-4.62,1.56c-8.94,3.54-19.77-4.43-16.02-14.93
			c1.9-5.31,2.75-10.9,7.22-15.07c-6.21,0.75-13.13,9.21-14.55,16.74c-1.2,6.34,1.55,10.95,9.37,15.7
			C905.32,43.43,910.55,42.5,918.07,35.89z M933.53,8.56c9.58,0.24,12.82-1.33,17.56-7.93c2.54-3.53,5.53-6.52,9.37-8.73
			c1.74-1,5.39-1.44,4.65-3.59c-0.92-2.64-4.31-1.17-6.67-1c-0.96,0.07-1.92,0.49-2.82,0.89C946.27-7.58,939.75-0.33,933.53,8.56z
			 M994.96,15.49c1.31,1.8,2.37,1.39,3.3,1.37c11.86-0.21,20.68,8.22,20.48,21.18c-0.02,1.28-1.37,3.19,1.14,3.58
			c2.42,0.38,2.99-1.42,3.53-3.29c2.65-9.09-0.38-17.72-8.78-22.14C1008.57,12.98,1001.91,11.99,994.96,15.49z M995.69,23.8
			c-2.89-0.3-4.42,0.44-6.03,1.48c-5.27,3.38-3.19,8.4-3.31,13.03c-0.1,3.82,1.97,5.74,5.24,5.94c3.47,0.21,6.92,0.32,10.37,0.85
			c1.7,0.26,3.4-0.23,3.91-2.24c0.33-1.3,0.44-2.92-0.69-3.73c-1.79-1.27-2.53,0.94-3.59,1.69c-2.3,1.63-4.59,1.4-6.39-0.24
			c-2.03-1.86-5.5-3.1-4.38-6.99c0.81-2.81,2.68-4.45,5.59-4.99c2.92-0.54,5.57,0.38,8.27,1.21c0.91,0.28,2.06,0.87,2.56-0.41
			c0.43-1.1-0.52-1.78-1.37-2.34C1002.48,24.83,998.85,23.41,995.69,23.8z M1033.47,60.06c-1.16,11.38-8.11,17.69-16.6,22.88
			c-1,0.61-3.62,0.45-2.06,2.86c2.04,3.15,6.79,4.25,10.21,2.52C1032.8,84.39,1037.88,68.57,1033.47,60.06z M952.23,235.01
			c-0.03,0.7,0.03,0.04,0.03-0.63c0-5.12-3.78-2.24-5.85-2.6c-3.05-0.53-2.5,1.36-1.87,3.33c0.65,2.04,1.28,4.16,1.42,6.28
			c0.72,10.71,1.3,21.43,1.88,32.14c0.09,1.6,0.61,2.5,2.35,2.47c2.23-0.03,1.61-1.47,1.51-2.78
			C950.74,260.92,950.76,248.64,952.23,235.01z M1166.4,329.13c-1.06,2.35-1.02,4.18,0.17,5.37c6.45,6.47,13.06,12.66,22.57,14.54
			c5.4,1.07,3.6-3.2,4.54-5.46c1.26-3.04-0.44-3.77-3.04-3.88C1181.39,339.31,1173.44,335.81,1166.4,329.13z M952.59,337.48
			c-0.5,3.78,0.65,7.28,1.97,10.69c0.65,1.69,1.71,3.59,3.87,3.31c1.98-0.25,3.14-2.02,3.46-3.87c1-5.77,1.13-11.54-0.62-17.25
			c-0.6-1.95-1.72-2.52-3.66-2.52c-2.1,0-3.69,0.59-4.12,2.73C953.03,332.84,952.88,335.17,952.59,337.48z M987.5,204.22
			c-6.17,8.22-12.72,14.17-21.11,18.28c2.62,0.42,18.87-0.09,20.49-0.4c1.42-0.27,1.91-0.84,1.78-2.34
			C988.22,215,987.93,210.24,987.5,204.22z M1048.69,339.26c-5.98,9.06-12.84,16.62-20.62,23.35c-1.64,1.42-1.85,2.67-0.42,4.15
			c1.52,1.58,2.58,0.4,3.71-0.69c5.61-5.42,10.77-11.23,14.41-18.16C1047.1,345.4,1050.84,343.72,1048.69,339.26z M1048.77,351.27
			c-4.9,6.28-9.35,12.82-15.7,17.69c-1.13,0.87-1.34,1.9-0.22,2.91c1.06,0.95,2.2,1.45,3.53,0.35c2.03-1.7,3.88-3.77,6.19-4.94
			C1049.58,363.72,1048.6,357.37,1048.77,351.27z M986.44-1.15c-0.23-2.58-1.94-2.51-4.11-1.46c-3.7,1.8-6.16,5.01-8.87,7.92
			c-0.87,0.93-3.23,1.83-1.51,3.44c1.45,1.37,3.15,3.19,5.49,2.87C979.43,11.35,986.29,1.62,986.44-1.15z M1036.79,83.4
			c5.32-0.88,7.49-3.8,9.01-11.59c1.04-5.28-4.95-20.83-9.86-23.99c2.92,6.19,6.16,11.41,6.44,17.71
			C1042.67,72.09,1039.35,77.5,1036.79,83.4z M974.77-4.73c-8.29-0.75-16.73,3.74-19.42,9.93C965.29,8.37,968.09-1.84,974.77-4.73z
			 M908.46,12.06c5.6-3.2,11.49-2.43,17.43-1.5c2.01,0.31,4.74,1.23,5.23-1.87c0.56-3.55-2.45-3.91-4.94-4.11
			C919.08,4.01,913.47,7.3,908.46,12.06z M1022.42,11.64c2.59,10.4,9.52,18.68,7.59,29.59C1036.73,36.65,1033.44,24,1022.42,11.64z
			 M918.04,16.51c-0.07-1.24-1.24-1.62-2.41-1.3c-4.91,1.36-9.23,3.79-12.24,8c-1.09,1.53-0.74,3.18,1.53,3.76
			C907.77,27.7,917.99,19.87,918.04,16.51z M914.58-0.59c4.9,0.56,9.67,1.05,14.2,2.82c1.26,0.49,2.42,2.32,3.81,0.42
			c0.96-1.3,2.25-2.75,1.84-4.44c-0.39-1.61-2.1-2.06-3.61-2.16C925.14-4.36,919.82-2.82,914.58-0.59z M877.48,84.63
			c-5.53-0.64-10.72-1.68-14.55-6.31c0.59,3.52-2.92,7.78,2.19,9.66C869.66,89.65,873.75,88.24,877.48,84.63z M993.02,5.02
			c0.05-1.03,0.2-1.99-0.72-2.34c-1.18-0.45-1.85,0.54-2.37,1.33c-2.82,4.28-5.59,8.59-9.66,11.84c-1.47,1.18-1.51,2.73-0.33,3.88
			c1.59,1.55,2.15-0.58,3.01-1.29c1.78-1.47,3.56-2.97,5.17-4.62C990.6,11.3,992.27,8.29,993.02,5.02z M1081.9,588.61
			c1.18,4.67,1.78,8.45,3.11,11.96c1.66,4.39,4.41-0.18,6.72,0.31c1.62,0.34,1.51-1.36,0.83-2.46
			C1090.13,594.47,1087.5,590.7,1081.9,588.61z M1015.76,51.56c-2.57,1.73-4.87,3.2-7.08,4.79c-1.25,0.9-2.29,2.05-1.22,3.75
			c1.01,1.62,1.48,3.9,4,3.86c1.72-0.03,3.22-0.59,3.83-2.5C1016.3,58.3,1016.61,55.15,1015.76,51.56z M940.76,221.66
			c-3.38-2.32-7-2.59-10.1-4.14c-3.11-1.56-6.17-3.23-9.63-5.06c1.63,8.82,1.63,8.76,9.69,8.72
			C933.85,221.17,936.98,221.47,940.76,221.66z M1210.48,246.48c-2.69,7.38-7.52,12.97-14.85,18.21
			C1206.2,263.39,1211.31,256.62,1210.48,246.48z M871.21,112.92c-0.18-0.01,0.54,0.25,1.05,0.02c1.8-0.83,4.24-1.75,3.78-4.04
			c-0.59-2.92-2.93-0.72-4.5-0.75c-2.04-0.03-3.75,2.77-5.98,0.85c-1.36-1.18-2.64-1.41-3.99-0.25c-1.17,1.01-0.52,2.15,0.12,3.12
			c0.95,1.44,2.15,2.6,4.1,2.19C867.37,113.71,868.54,112.03,871.21,112.92z M996.98,243.45c0.46-0.01,0.91-0.03,1.37-0.04
			c0-4.47,0.19-8.95-0.07-13.4c-0.15-2.61-2.13-3.47-4.64-3.17c-1.75,0.21-2.44,1.12-1.55,2.66
			C994.6,233.83,995.06,238.9,996.98,243.45z M1047.55,365.44c-2.6,3.91-5.24,6.61-7.96,9.23c-0.87,0.84-1.73,1.72-0.57,2.91
			c0.92,0.95,1.99,0.93,3.15,0.32C1046.85,375.45,1048.71,371.58,1047.55,365.44z M1060.62,481.27c-3.73,6.79-8.67,12.98-10.6,20.67
			C1054.69,495.62,1058.35,488.8,1060.62,481.27z M1054.13,509.04c2.59-3.27,5.28-6.47,7.71-9.85c0.74-1.03,0.78-2.8-0.47-3.58
			c-1.49-0.92-1.93,0.79-2.37,1.69C1057.16,501.04,1053.85,504.05,1054.13,509.04z M1049.29,375.78c-2.47,3.24-6.26,3.91-5.05,7.7
			c0.42,1.31,1.84,2.41,3.59,1.52C1051.69,383.03,1049.49,380.06,1049.29,375.78z M1004.95,36.58c-1.97-2.77-3.75-4.18-6.1-4.73
			c-1.35-0.32-2.77-0.3-3.36,1.25c-0.67,1.77,0.98,2.33,2.03,2.91C999.62,37.15,1001.91,36.63,1004.95,36.58z M1061.44,467.12
			c-2.89,4.02-7.45,6.94-8.15,12.38C1054.91,474.59,1062.79,474.03,1061.44,467.12z M1047.48,395.18c5.42-3.07,5.59-3.86,2.3-9.12
			C1045.88,388.15,1047.02,391.56,1047.48,395.18z M877.47,131.94c-0.12-1.05-0.08-2.48-1.62-2.39c-1.76,0.1-3.76,0.64-3.97,2.77
			c-0.11,1.14,0.61,2.86,1.96,3.03C875.98,135.6,876.74,133.76,877.47,131.94z M908.55,237.93c0.92-2.99,1.87-5.97,2.76-8.97
			c0.29-0.97,0.42-2.2-0.7-2.56c-1.29-0.42-1.63,0.88-1.8,1.8C908.23,231.43,907.54,234.69,908.55,237.93z M986.59,259.83
			c-0.22-0.02-0.43-0.03-0.65-0.05c-0.43,3.84-0.85,7.68-1.27,11.53c-0.1,0.9,0.1,1.67,1.21,1.64c1-0.03,1.36-0.66,1.31-1.63
			C986.97,267.49,986.78,263.66,986.59,259.83z M881.55,140.71c-2.17-0.62-2.69-4.5-5.83-2.78c-0.97,0.53-1.27,1.72-0.47,2.58
			C877.17,142.6,879.34,141.58,881.55,140.71z"/>
		<path d="M1092.78,614.84c3.03,8.08,4.52,15.93,4.79,23.85c0.51,15.28,0.42,30.58,0.6,45.87c0.03,2.53,0.63,5,1.75,7.23
			c3.53,7.06,5.07,14.72,7.15,22.24c5.81,20.94,12.03,41.76,19.87,62.05c1.63,4.23,0.5,7.89-1.58,10.85
			c-6.17,8.72-10.99,18.24-16.7,27.22c-2.43,3.83-5.96,6.14-9.5,8.58c-2.31,1.6-4.18,3.47-4.85,6.68c2.67-0.26,3.3-2.31,4.76-3.27
			c2.97-1.97,5.26-1.14,5.78,2.27c1.49,9.63,2.89,19.28,4.35,28.91c0.33,2.15-1.05,3.42-2.35,4.68c-3.51,3.4-7.81,5.71-12.16,7.72
			c-2.18,1.01-2.97,1.92-2.99,4.29c-0.25,21.83,2.37,43.48,4.04,65.19c1.35,17.48,1.06,34.93-0.99,52.36
			c-1.85,15.78-0.97,31.61-0.83,47.42c0.21,23.3-0.2,46.55-1.6,69.84c-0.79,13.07-2.51,26.22-1.12,39.39
			c0.39,3.74-1.23,7.12-1.56,10.76c-0.55,6.26,2.79,9.62,7.52,11.24c11.83,4.04,18.56,13.83,25.75,22.68
			c5.11,6.3,4.24,14.93,2.24,22.61c-1.11,4.27-6.31,5.25-9.57,6.22c-8.75,2.63-17.94,4.09-27.79,3.37c0,8.32,0.03,16.63-0.02,24.93
			c-0.01,2.16-0.08,4.35-0.49,6.46c-1.21,6.16-6.21,8.22-11.39,4.55c-4.65-3.29-7.98-7.63-8.14-13.63
			c-0.15-5.68-1.19-11.24-1.68-16.86c-0.41-4.68-2.65-6.63-6.91-7.47c-5.08-1-10.14-2.51-13.83-6.33c-2.85-2.95-5.14-6.47-7.53-9.84
			c-2.82-3.98-6.48-7.06-10.4-10.47c-1.15,2.52-2.17,4.76-3.2,6.99c-1.92,4.17-5.52,5.59-9.72,5.37c-4.78-0.26-9.63-0.56-14.27-1.6
			c-6.48-1.45-12.31-3.49-15.24-10.96c-5.32-13.58-13.37-26.08-15.08-41.04c-0.4-3.51-0.22-6.63,1.71-9.45
			c2.53-3.69,2.85-7.68,2.31-11.9c-2.5-19.47-7.03-38.49-11.9-57.49c-2.54-9.9-2.99-20.31-4.85-30.4
			c-2.84-15.47-2.83-31.15-3.23-46.73c-0.74-29.02,3.38-57.12,20.19-81.94c1.16-1.71,2.1-3.74,4.62-4.28
			c0.92,3.1-0.31,5.8-1.13,8.33c-7.86,24.34-12.26,49.25-13.99,74.78c-1.29,18.91-1.61,37.75,0.23,56.6
			c0.37,3.77,1.41,7.48,2.15,11.22c0.33,1.68,1.98,1.61,3.08,2.17c10.21,5.17,21.31,4.67,32.26,4.78
			c8.21,0.08,16.12-1.04,23.31-5.76c3.31-2.18,5.07-4.39,4.4-8.4c-1.56-9.43-0.83-18.95-0.89-28.43
			c-0.12-18.65,2.19-37.16,4.2-55.65c1.06-9.74,5.73-18.73,9.18-27.91c1.06-2.81,1.89-5.62,2.01-8.88
			c-5.27,0.36-9.53-1.91-13.61-4.89c-2.18-1.59-1.69-2.53,0.32-3.5c3.9-1.88,8.19-2.39,12.19-1.39c4.8,1.2,5.61-1.17,5.63-4.77
			c0.02-4.82-0.26-9.64-0.31-14.46c-0.04-4.15,0.02-8.3,0.1-12.44c0.03-1.55,0.25-3.11,2.28-3.25c1.77-0.13,2.97,0.91,3.29,2.48
			c1.81,9.1,3.91,18.17,5.08,27.35c0.71,5.55-2.35,10.58-4.57,15.62c-6.29,14.34-12.51,28.97-13.38,44.66
			c-0.99,18-2.25,36.03-1.44,54.16c0.69,15.56-0.3,31.21-0.9,46.81c-0.42,11.16-1.15,22.32,0.56,33.4c1.5,9.68,8.5,16.6,18.13,18.57
			c1.48,0.3,2.25,1.29,3.13,2.28c1.98,2.22,3.97,4.43,5.93,6.6c1.94-1.12,1.25-2.62,1.21-3.78c-0.62-15.37,1.37-30.6,2.42-45.88
			c0.27-3.98,0.8-8.07,0.25-11.97c-2.53-17.94-0.42-35.91-0.76-53.86c-0.33-17.48,1.91-34.9,0.82-52.41
			c-1.17-18.94-2-37.9-2.83-56.86c-0.79-17.96-1.02-35.94-0.3-53.9c0.18-4.45-0.94-4.41-4.29-2.4c-8.72,5.22-18.57,6.95-29.42,9.14
			c3.86-3.92,8.02-5.16,11.82-6.64c6.84-2.66,13.25-6.23,20.02-8.96c2.71-1.09,2.79-3.14,2.9-5.2c0.69-12.63,2.16-25.3,1-37.92
			c-1.89-20.51-0.31-40.9,0.58-61.36c1.01-23.26,3.74-46.46,2.97-69.81c-0.09-2.62,0.15-5.38,0.89-7.88
			c2.44-8.16,0.06-16.63,1.9-24.79c0.35-1.55-0.02-3.35,2.02-4.66c2.2,6.82,3.7,13.93,2.17,20.49c-2.73,11.76-1.77,23.49-1.68,35.22
			c0.08,11.52-1.24,22.93-1.65,34.39c-0.47,13.44-0.72,26.9-1.33,40.33c-0.99,21.79,2.41,43.54,0.52,65.3
			c-2.37,27.24-0.67,54.54-1.38,81.8c-0.44,17.07,0.75,34.17,1.47,51.25c0.62,14.58-0.43,29.23-0.63,43.86
			c-0.35,25.77-0.71,51.54-0.88,77.31c-0.09,13.45,0.56,26.91,0.27,40.35c-0.48,22.14-3.13,44.21-2.24,66.41
			c0.63,15.78,2.3,31.53,1.17,47.36c-0.29,4.04,3.26,6.45,7.33,5.78c1.86-0.3,1.97-1.36,1.94-2.81
			c-0.48-25.62,1.57-51.18,1.83-76.78c0.07-7.16,1.57-14.22,1.91-21.33c0.45-9.62-0.31-19.29,0.03-28.92
			c1.45-40.79-1.03-81.59,0.29-122.36c0.67-20.8,2.43-41.53,0.8-62.36c-1.14-14.59-2.72-29.14-3.09-43.81
			c-0.42-16.54,1.12-32.93,2.53-49.34c0.6-7,0.57-13.99,0.5-20.97c-0.37-35.84,2.71-71.58,2.85-107.4
			c0.08-19.64-0.31-39.29,0.31-58.91c0.38-12,0.3-23.96,0.1-35.94C1090.33,620.12,1090.74,617.65,1092.78,614.84z M1114.02,763.1
			c-3.92,5.62-6.79,11.53-12.08,15.49c-1.07,0.8-2.29,2.75-3.68,1.31c-1.19-1.23,0.23-2.87,1.15-3.94
			c3.49-4.01,6.86-8.18,10.79-11.74c3.87-3.5,3-6.58,0.45-10.54c-1.02,1.64-1.63,3.05-2.61,4.11c-1.62,1.74-3.97,5.38-5.45,3.95
			c-2.52-2.45,1.24-4.28,2.82-6.24c1.78-2.21,5.33-3.7,4.28-7.29c-0.97-3.32-2.61-6.46-4.07-9.62c-0.37-0.79-1.55-2.23-2.12-1.07
			c-1.88,3.86-6.84,5.16-6.93,10.82c-0.25,15.59-1.69,31.15-2.24,46.74c-0.22,6.19-0.86,12.51,0.48,18.87
			c2.98-0.91,4.38-3.01,5.8-5.01c5.98-8.38,10.92-17.48,17.72-25.31c2.35-2.7,1.88-4.51-1.1-8.05c-4.19,6.22-8,12.69-13.59,17.78
			c-1.35,1.23-3.22,3.13-4.63,2.06c-1.78-1.35,0.2-3.33,1.11-4.76c4.08-6.47,8.47-12.76,13.66-18.38
			C1116.58,769.3,1116.79,766.68,1114.02,763.1z M1092.49,863.27c2.98-1.6,5.05-2.9,7.26-3.86c2.1-0.91,3.3-2.17,2.75-4.51
			c-0.24-1.02-0.69-3.01-1.95-1.93c-2.22,1.91-6.1-1.32-7.19,2.48C1092.72,857.7,1092.81,860.16,1092.49,863.27z M1097.42,738.13
			c4.47-2.66,5.91-5.98,3.96-10.5c-0.43-1-0.18-2.62-1.76-2.46c-1.15,0.12-2.1,1.29-2.15,2.45
			C1097.32,731,1097.42,734.4,1097.42,738.13z M1102.72,832.81c-0.02-0.74,0.19-1.8-0.68-2.48c-0.24-0.19-1.14-0.02-1.27,0.23
			c-1.09,2.11-3.16,2.68-5.08,3.61c-1.33,0.65-1.25,2.21-1.34,3.52c-0.05,0.7,0.21,1.29,0.99,1.45
			C1096.77,839.43,1102.54,834.63,1102.72,832.81z M1094.37,850.35c1.94-1.07,3.77-2.09,5.6-3.1c0.29-0.16,0.62-0.21,0.92-0.35
			c1.78-0.78,1.39-2.42,1.45-3.84c0.03-0.71-0.42-1.2-1.22-1.19C1099.44,841.9,1094.29,848.11,1094.37,850.35z M1098.36,711.49
			c-1.69,3.41-0.63,6.38-0.8,9.23c-0.07,1.07,0,2.16,1.44,1.96c0.93-0.13,1.21-1.03,1.15-1.93
			C1099.98,717.82,1099.63,714.92,1098.36,711.49z"/>
		<path d="M1031.03,773.26c0.28,6.67-4.87,9.54-8.65,12.94c-5,4.51-10.69,8.26-17.31,10.34c-3.26,1.02-6.39,1.67-9.71,0.55
			c-1.1-0.37-2.49-0.52-2.84-1.77c-0.44-1.56,0.84-2.48,1.97-3.12c5.47-3.15,10.98-6.22,16.5-9.29c5.23-2.91,10.5-5.74,15.69-8.71
			C1028.05,773.42,1029.34,772.96,1031.03,773.26z"/>
		<path d="M998.2,828.84c-1.41,0-1.58,0.03-1.74,0c-3.07-0.55-7.8-0.29-8.32-3.13c-0.6-3.3,4.18-3.4,6.76-4.19
			c11.15-3.43,21.66-8.44,32.42-12.83c1.08-0.44,2.26-1.15,3.2-0.05c0.81,0.94,0.06,1.89-0.62,2.62
			C1020.95,820.9,1010.21,827.24,998.2,828.84z"/>
		<path d="M1025.73,747.48c-0.71,6.19-4.46,9.94-8.21,13.62c-3.57,3.5-7.81,6.19-12.07,8.75c-2.52,1.52-5.12,2.16-7.45-0.84
			c-2.53-3.25-0.05-5.2,1.89-6.6c7.25-5.25,14.73-10.2,22.18-15.18C1023.41,746.33,1025.07,745.43,1025.73,747.48z"/>
		<path d="M1009.53,839.12c-1.7-0.17-2.42-0.09-3.01-0.33c-2.24-0.88-5.47-1.08-5.86-3.83c-0.37-2.64,2.81-2.91,4.62-3.66
			c8.53-3.56,17.14-6.93,26.01-9.61c1.21-0.37,2.38-0.79,2.99,0.54c0.63,1.38-1.16,1-1.69,1.74
			C1026.6,832.19,1017.76,835.97,1009.53,839.12z"/>
		<path d="M885.72,922.84c5.24,1.08,11.23,2.34,17.24,3.53c2.38,0.47,4.56,1.54,3.56,4.19c-1.06,2.82-1.4,7.97-5.77,6.64
			c-6.55-2-13.15-4.62-17.95-10.06c-0.89-1-1.75-2.09-0.95-3.56C882.58,922.22,883.81,922.65,885.72,922.84z"/>
		<path d="M1028.51,792.29c-4.51,6.66-11.04,10.7-17.44,14.87c-4.13,2.69-8.29,5.36-13.63,3.89c-1.7-0.47-3.19-1.44-1.07-2.86
			C1006.35,801.52,1016.87,795.84,1028.51,792.29z"/>
		<path d="M998.35,782.79c-0.89,0.16-1.76,0.1-2.18-0.76c-0.59-1.23,0.54-1.74,1.23-2.37c4.64-4.32,10.61-6.65,15.61-10.45
			c2.47-1.88,5.26-3.33,7.85-5.06c1.01-0.67,1.85-0.58,2.7,0.11c0.82,0.67,0.62,1.63,0.09,2.21
			C1016.63,774.1,1008.67,780.3,998.35,782.79z"/>
		<path d="M886.17,710.85c-7.87-0.42-13.37-5.48-17.81-12.15c-0.48-0.72-0.58-1.64-0.05-2.32c0.65-0.83,1.6-0.38,2.28-0.02
			c6.84,3.73,13.65,7.51,20.46,11.3c0.72,0.4,1.48,1.03,1.25,1.95c-0.22,0.86-1.06,1.22-1.95,1.23
			C889.19,710.86,888.02,710.85,886.17,710.85z"/>
		<path d="M1029.87,879.86c9.09-5.23,18.84-8.4,28.52-11.74c1.1-0.38,2.42-0.69,3.11,0.58c0.54,0.99-0.14,2.14-0.91,2.63
			C1051.2,877.27,1040.88,879.93,1029.87,879.86z"/>
		<path d="M857.17,845.81c14.26-2.68,28.34-1.18,42.39,1.49C885.39,847.82,871.21,848.73,857.17,845.81z"/>
		<path d="M893.32,822.16c-1.22,0.87-1.61,1.39-2.01,1.39c-8.74,0.01-17.52,0.48-25.95-2.61c-1.28-0.47-2.83-0.88-2.42-2.56
			c0.31-1.28,1.8-1.2,2.98-1.25C875.14,816.72,883.91,818.6,893.32,822.16z"/>
		<path d="M783.43,874.56c-7.13,2.27-20.11-3.22-22.73-9.34c-0.55-1.3-1.01-2.72,1.31-2.53
			C764.29,862.87,781.36,872.28,783.43,874.56z"/>
		<path d="M1009.27,725.95c-1.61-0.81-4.5,0.21-5.25-2.42c-0.61-2.14,1.67-3.17,3.03-4.07c2.91-1.91,6.01-3.61,9.23-4.91
			c1.93-0.78,3.67-0.41,2.6,2.67C1017.69,720.65,1012.37,725.9,1009.27,725.95z"/>
		<path d="M899.55,683.99c-10.61,2.67-16.22-2.14-19.52-7.01c-0.47-0.69-1.06-1.47-0.38-2.17c0.34-0.35,1.31-0.45,1.81-0.23
			C887.44,677.15,893.69,679.25,899.55,683.99z"/>
		<path d="M860.89,833.8c10.8-2.58,21.31,0.41,31.89,2.32C882.09,836.97,871.49,835.98,860.89,833.8z"/>
		<path d="M877.22,687.17c8,3.49,15.01,6.56,22.5,9.83C892.73,700.57,880.82,695.61,877.22,687.17z"/>
		<path d="M1019.21,727.81c-2.97,6.83-7.47,9.86-12.85,11.9c-1.65,0.63-3.03,0.06-3.88-1.34c-1.09-1.79,0.37-2.78,1.58-3.62
			C1008.38,731.78,1013.17,729.9,1019.21,727.81z"/>
		<path d="M799.54,862.14c-12.56-4.61-22.85-12.65-32.46-21.7C778.04,847.46,788.63,855.05,799.54,862.14z"/>
		<path d="M1032.49,833.28c0.87,0.23,2.09-0.67,2.59,0.63c0.55,1.42-0.44,1.92-1.57,2.52c-3.06,1.62-5.3,5.2-9.56,3.9
			c-1.29-0.4-2.7-0.9-2.97-2.29c-0.34-1.69,1.37-2.26,2.46-2.55C1026.44,834.71,1029.26,833.12,1032.49,833.28z"/>
		<path d="M885.34,721.48c-8.14-1.71-13.61-4.85-17.4-10.72C873.43,713.91,880.45,714.45,885.34,721.48z"/>
		<path d="M942.29,855.97c6.89-0.87,13.79-1.74,20.68-2.61C956.63,858.63,949.64,858.7,942.29,855.97z"/>
		<path d="M877.02,545.98c4.81,4.79,7.06,11.52,6.46,18.49C879.38,558.98,876.9,553.39,877.02,545.98z"/>
		<path d="M870.75,724.05c5.49,2.04,9.52,4.65,12.9,8.51C878.19,734.54,874.25,732.07,870.75,724.05z"/>
		<path d="M868.53,804.93c5.94-0.74,11.25,0.72,15.99,4.27C878.95,808.7,873.2,808.95,868.53,804.93z"/>
		<path d="M949.83,602.45c-7.38-1.14-14.76-2.28-22.14-3.42C935.44,597.81,942.66,600.1,949.83,602.45z"/>
		<path d="M898.31,552.11c3.76,3.89,4.65,8.85,5.26,13.9C900.72,561.79,898.03,557.5,898.31,552.11z"/>
		<path d="M881.41,790.73c-5.02,0.72-9.55-0.03-12.86-4.43C872.84,787.78,877.13,789.26,881.41,790.73z"/>
		<path d="M892.38,668.6c-0.24,0.44-0.3,0.66-0.39,0.68c-2.74,0.57-5.02-0.21-6.67-2.5c-0.16-0.22,0.23-1.2,0.31-1.2
			C888.27,665.78,890.34,667.15,892.38,668.6z"/>
		<path d="M939.58,578.85c-1.48-3.02-5.31-4.7-5.14-9.68C936.74,572.73,939.19,575.2,939.58,578.85z"/>
		<path d="M964.1,122.95c0.14,2.04,2.15,2.85,2.85,4.49c0.42,0.99,2.07,1.77,1.04,2.96c-1.12,1.3-2.83,0.98-4.13,0.13
			c-2.98-1.95-3.26-5.23-3.6-8.34c-0.19-1.7,0.42-3.1-2.16-4.02c-2.34-0.83-1.73-3.6-0.49-5.61c1.27-2.07,3.29-3.32,5.38-4.3
			c8.57-4.03,17.52-6.3,27.03-4.8c4.36,0.69,8.24,2.64,10.83,6.48c0.79,1.17,1.54,2.04,3.2,1.73c1.15-0.21,2.69-1.72,3.5,0
			c0.69,1.45-0.46,3.02-1.6,3.91c-5.48,4.27-11.05,8.38-18,10.11c-6.93,1.73-13.48,0.16-20.03-1.86
			C966.7,123.46,965.63,122.43,964.1,122.95z M964.3,115.12c0.65,2.1,2.37,2.09,3.65,1.99c1.62-0.12,4.1,2.2,4.79-1.23
			c0.3-1.51,0.2-2.99-2.07-3.04C968.23,112.79,966.28,113.69,964.3,115.12z M987.83,117.78c1.43-0.17,3.5-0.24,3.47-1.88
			c-0.05-2.65-2.75-3.04-4.71-3.48c-2.08-0.47-1.63,1.43-1.75,2.64C984.64,117.28,985.79,118,987.83,117.78z"/>
		<path d="M889.16,120.09c3.09-4.25,3.09-4.25-0.7-8.87c0.18-0.25,0.38-0.73,0.55-0.72c5.25,0.27,9.41-2.41,14.09-4.24
			c11.14-4.36,22.85-3.23,33.77,1.64c5.12,2.29,5.5,8.14,1.76,12.47c-0.87,1-1.64,1.96-2.86,2.65c-3.52,1.98-5.47,6.23-11.41,3.64
			c-4.98-2.17-11.41-0.26-17.01-2.04c-1.89-0.6-3.9-1.13-5.51-2.21C898.01,119.82,894.7,115.57,889.16,120.09z M913.38,119.57
			c-0.54-2.12-1.68-3.63-1.39-5.6c0.16-1.06,0.9-3.15-1.37-2.86c-2.73,0.36-5.93,0.85-7.12,3.63c-0.59,1.38,1.73,2.09,3.19,2.37
			C908.94,117.56,910.32,120.11,913.38,119.57z M924.5,115.22c-0.05,1.1-0.67,2.72,1.23,2.44c1.87-0.27,4.71-0.57,4.95-2.42
			c0.27-2.09-2.54-2.78-4.3-3.1C923.93,111.71,924.99,114.11,924.5,115.22z"/>
		<path d="M942.1,128.77c1.71,4.83,0.83,9.38-0.66,13.9c-2.08,6.31-2.09,6.34,4.19,8.16c6.36,1.85,12.64,2.18,18.51-1.56
			c1.64-1.04,2.18-0.08,2.38,1.16c0.28,1.75-0.39,3.42-1.7,4.49c-6.44,5.27-13.21,9.51-22.18,7.19c-6.82-1.76-11.05-9.37-8.5-15.85
			C936.48,140.34,939.7,134.81,942.1,128.77z"/>
		<path d="M949.26,177.06c-5.95,0.21-11.92-0.3-17.85,0.64c-1.45,0.23-3,0.18-4.45-0.06c-1.03-0.17-2.55-0.04-2.8-1.56
			c-0.22-1.34,0.76-2.21,1.83-2.69c6.42-2.9,12.97-5.47,20.19-3.76c3.35,0.79,6.43,0.83,9.75-0.33c3.9-1.36,7.91-0.75,11.61,1.11
			c1.52,0.77,2.98,1.33,4.73,1.29c1.22-0.03,2.98-0.42,3.14,1.49c0.12,1.47-1.17,2.26-2.33,2.99c-4.23,2.67-8.81,2.8-13.48,1.77
			C956.18,177.18,952.78,176.57,949.26,177.06z"/>
		<path d="M976.48,91.02c7.27,0.23,13.54,0.62,19.27,3.68c1.31,0.7,3.07,1.71,2.73,3.18c-0.44,1.89-2.49,1.13-3.83,0.91
			c-10.33-1.68-20.41-1.55-30.01,3.38c-1.43,0.74-3.17,0.93-4.78,1.24c-1.65,0.32-2.48-0.74-2.79-2.15
			c-0.83-3.81,2.09-8.29,6.01-8.85C967.83,91.74,972.63,91.41,976.48,91.02z"/>
		<path d="M929.49,100.75c-5.93-0.59-11.83-1.22-17.82-1.24c-4.6-0.02-8.47,0.93-11.67,4.34c-0.8,0.85-1.83,2.6-3.2,1.35
			c-1.31-1.19-0.36-2.78,0.54-4.04c3.91-5.45,9.26-8.57,15.88-9.23c6.5-0.64,12.94-0.17,19.16,2.11c2.01,0.74,4.61,1,4.15,3.96
			c-0.42,2.75-2.82,2.89-5.05,2.89C930.82,100.9,930.15,100.81,929.49,100.75z"/>
		<path d="M948.45,192.49c-3.41,0.28-6.61-0.37-9.57-2.06c-1.04-0.6-1.91-1.51-1.62-2.82c0.26-1.16,1.51-1.56,2.38-1.29
			c5.57,1.75,10.71-0.75,16.05-1.35c2.18-0.25,5.36-0.68,5.67,2.35c0.29,2.81-2.33,4.15-5.02,4.48
			C953.72,192.1,951.08,192.26,948.45,192.49z"/>
		<path d="M992.61,64.37c-2.45-0.63-5.37-0.51-5.62-3.96c-0.23-3.2,2.34-3.59,4.55-4.28c0.16-0.05,0.33-0.05,0.49-0.09
			c2.67-0.65,5.32-0.8,7.59,1.06c0.83,0.68,0.92,1.97,0.33,2.77C998.13,62.37,995.57,63.82,992.61,64.37z"/>
		<path d="M926.79,77.85c9.58-2.18,17.9-1.71,26.82-1.62C950.4,79.34,941.6,79.77,926.79,77.85z"/>
		<path d="M980.07,169.95c2.37,0.74,4.83,0.84,5.47,3.62c0.69,3.01-1,5.38-2.46,7.71c-0.35,0.56-1.39,0.99-2.09,0.95
			c-1.25-0.07-1.43-1.37-1.41-2.25C979.63,176.73,979.88,173.48,980.07,169.95z"/>
		<path d="M915.68,171.98c0,2.77,0.07,5.18,1.06,7.48c0.46,1.07,0.51,2.5-0.98,2.86c-1.53,0.37-1.88-1.08-2.2-2.13
			C912.65,177.21,912.74,174.41,915.68,171.98z"/>
		<path d="M964.77,64.55c-4.52,1.12-9.07,2.76-13.91,1.02C955.49,65.23,960.13,64.89,964.77,64.55z"/>
		<path d="M820.03,298.46c5.57-6.51,12.12-9.47,20.06-9.05c1.66,0.09,4.01,0.49,4.45,2.53c0.4,1.88-1.56,2.82-2.94,3.64
			C835.05,299.43,828.1,300.96,820.03,298.46z"/>
		<path d="M834.64,306.64c4.72-3.16,9.67-4.71,15.12-4.43c1.22,0.06,2.46,0.25,2.83,1.54c0.41,1.44-0.89,2.14-1.87,2.58
			C845.43,308.71,840.03,308.68,834.64,306.64z"/>
		<path d="M849.88,317.97c-1.27-0.29-2.58-0.46-3.8-0.89c-1.38-0.49-3.15-1.1-2.8-2.92c0.35-1.85,2.16-0.95,3.34-0.98
			c2.8-0.08,5.61-0.06,8.41,0.07c0.74,0.03,1.89,0.4,2.09,0.92c0.46,1.14-0.71,1.74-1.54,2.1
			C853.79,317.04,852.02,318.07,849.88,317.97z"/>
		<path d="M1010.88,458.98c3.69-3.82,8.86-4.82,13.4-7.01c6.15-2.96,12.33-5.87,18.72-8.34c-10.17,6.28-20.58,12.07-32.24,15.23
			C1010.76,458.86,1010.88,458.98,1010.88,458.98z"/>
		<path d="M994.66,488.58c11.18-6.18,23.82-8.66,35.82-12.95C1019.25,481.74,1006.54,483.89,994.66,488.58z"/>
		<path d="M1208.62,199.19c0.11,4.09-4.17,9.18-8.43,10.16c-4.1,0.95-9.13-1.69-10.71-5.85c-1.66-4.36-2.45-8.92-2.43-13.6
			c0-1.07-0.52-2.63,1.24-2.71c1.16-0.05,1.36,1.25,1.65,2.18c1.22,3.88,2.49,7.74,3.59,11.65c0.68,2.41,2.01,3.64,4.58,3.65
			c2.67,0.01,3.81-1.6,4.51-3.81c0.25-0.78,0.35-1.62,0.64-2.39c0.6-1.59,1.33-3.29,3.45-2.8
			C1208.56,196.09,1208.25,197.97,1208.62,199.19z"/>
		<path d="M978.96,591.06c-4.33-3.41-6.97-6.4-6.97-10.95c0-0.91-0.34-2.16,0.76-2.61c1.19-0.49,1.68,0.63,2.25,1.43
			C977.36,582.24,978.35,585.98,978.96,591.06z"/>
		<path d="M1099.92,751.04c-0.9-4.62,3.44-5.83,5.17-9.9C1105.31,746.82,1104.42,748.32,1099.92,751.04z"/>
	</g>
</g>
</svg>
