<?xml version="1.0" encoding="utf-8"?>
<!-- Generator: Adobe Illustrator 26.0.2, SVG Export Plug-In . SVG Version: 6.00 Build 0)  -->
<svg version="1.1" id="Layer_1" xmlns="http://www.w3.org/2000/svg" xmlns:xlink="http://www.w3.org/1999/xlink" x="0px" y="0px"
	 viewBox="0 0 1920 1080" style="enable-background:new 0 0 1920 1080;" xml:space="preserve">
<g>
	<g>
		<path d="M787.63,1156.5c5.09,0,9.64-0.05,14.19,0.01c8.47,0.11,16.98-0.18,25.39,0.6c4.24,0.39,8.49,2.37,11.93,5.31
			c0.94,0.81,2.76,1.95,1.64,3.12c-1.55,1.61,0.82,5.6-3.59,5.37c-2.26-0.12-4.6,1.09-6.86,0.96c-14.71-0.82-29.01,4.48-43.71,2.96
			c-14.59-1.51-29.22-1.7-43.83-1.7c-13.3,0-26.55,1.99-39.89,1.96c-2.24-0.01-4.92,0.19-4.95,3.59c-0.03,3.68,2.96,3.39,5.01,3.22
			c13.27-1.11,26.61-0.83,39.88-1.75c16.1-1.12,32.2-2.12,48.33-1.91c14.21,0.18,28.2-1.98,42.26-3.4
			c3.45-0.35,6.95-0.54,10.41-0.41c5.35,0.21,8.61,5.52,6.74,10.61c-1.67,4.54-1.35,9.18-0.45,13.78c0.69,3.55,0.2,6.94-0.53,10.38
			c-0.48,2.27-1.64,4.07-3.77,4.97c-2.91,1.23-6.43,1.36-6.03,6.22c0.24,2.93-2.29,5.63-0.84,9.1c1.37,3.26-4.59,7.81-8.76,7.57
			c-12.87-0.72-25.69-2.51-38.65-1.61c-6.1,0.43-12.27,0.76-18.35,0.32c-3.82-0.27-7.31,0.91-10.69,1.66
			c-9.72,2.17-19.44,0.78-29.12,1.4c-7.68,0.49-15.25,2.03-23.05,1.47c-9.42-0.67-12.79-4.44-11.25-13.59
			c0.37-2.21,1.19-4.02-2.63-3.97c-7.59,0.1-11.32-7.04-7.05-13.75c2.46-3.88,2.63-5.42-2.46-5.28c-0.87,0.02-2.22-0.22-2.25-1.48
			c-0.04-1.39,1.17-1.95,2.34-2.2c3.78-0.83,7.59-1.58,11.6-2.41c-2.45-3.27-6.19,0.31-9.06-3.01c14.49-3.08,29.19-0.45,42.34-4.51
			c-13.37,0-27.31,0-41.69,0c1.43-2.58,4.15-1.7,5.36-3.51c-1.39-1.19-2.94-0.49-4.32-0.78c-1.91-0.41-5.02,0.91-3.29-3.76
			c0.68-1.83-1.94-5.99-5.18-7.18c-2.34-0.86-3.35-2.03-3.84-4.52c-1.82-9.29-2.74-18.67-3.06-28.1c-0.28-8.3,3.97-12.18,12.3-11.63
			c1.48,0.1,3-0.03,4.48-0.21c3.27-0.4,7.94,1.12,9.44-1.14c1.34-2.01-3.97-4.6-4.24-7.51c-0.7-7.31-5.26-13.42-5.66-20.8
			c-0.57-10.62,6.22-16.86,13.38-22.56c4.36-3.47,9.63-5.9,14.69-8.4c7.48-3.7,15.76-1.44,23.61-2.65c2.94-0.45,5.99-0.12,8.98-0.28
			c8.95-0.48,15.35,3.9,18.13,12.48c0.25,0.77,0.34,1.65,1.54,2.1c2.77-5.3,2.38-11.75,5.43-16.79c10.21-16.9,5.53-34.35,2.63-51.85
			c-1.95-11.78-7.3-22.42-10.8-33.68c-2.78-8.93-3.25-17.74-1.21-26.58c3.46-14.94,9.19-29.19,15.01-43.32
			c2.5-6.06,7.84-10.71,10.23-17.55c-10.45,0.02-11.52-7.19-11-16.55c-2.24,3.22-3.56,5.06-4.81,6.92c-2.21,3.29-4.74,6.6-9.17,5.46
			c-4.27-1.1-6.78-4.51-8.14-8.72c-0.44-1.36-0.19-2.99-1.64-4.31c-1.05,1.29-1.94,2.66-3.1,3.74c-1.17,1.09-2.48,2.71-4.26,1.97
			c-1.82-0.76-3.09-2.12-3.48-4.46c-4.44-26.78-3.16-52.71,10.52-77.04c3.42-6.09,5.9-12.7,9.38-18.75
			c5.33-9.26,6.45-19.92,10.51-29.57c4.01-9.53,8.34-18.88,14.72-27.1c1.72-2.21,2.69-4.5,2.76-7.29c0.12-4.98,1.81-9.4,4.91-13.34
			c11.56-14.67,20.79-30.92,31.27-46.32c6.12-8.99,12.07-17.85,14.44-28.76c0.54-2.48,0.45-3.85-0.91-5.71
			c-4.56-6.23-7.72-12.99-9.16-20.76c-1.34-7.24,0.54-13.05,5.96-17.41c12.89-10.38,25.14-21.89,41.8-26.32
			c3.27-0.87,4.29-2.46,3.79-6.09c-2.81-20.49-2.54-41.08-1.4-61.69c0.2-3.64,0.52-7.48-0.35-10.95
			c-4.64-18.61-1.51-37.07,0.57-55.56c1.71-15.19,9.77-26.58,21.39-35.84c0.37-0.29,0.87-0.42,1.71-0.82
			c0.37,3.37-1.13,5.98-2.78,8.18c-11.09,14.83-13.76,32.3-15.16,49.9c-1.94,24.38-1.8,48.77,0.7,73.21
			c1.49,14.59,2.82,29.18,6.07,43.44c2.21,9.67,5.6,19.19,13.44,26.16c8,7.11,13.93,16.1,21.52,23.6
			c5.89,5.81,12.31,11.07,17.8,17.32c5.04,5.73,10.23,11.31,14.01,18c2.52,4.45,3.99,4.85,7.22,0.78
			c13.89-17.55,33.32-24.48,54.13-29.23c9.88-2.26,19.37-6.29,29.29-8.25c23.43-4.64,45.86-12.74,68.84-18.9
			c6.73-1.8,13.58-4.64,19.05-8.42c5.84-4.04,10.14-10.8,12.8-17.97c6.37-17.2,9.26-35.26,12.88-53.12
			c3.14-15.47,0.78-31.13,1.01-46.7c0.11-7.34-2.42-14.73-3.81-22.08c-0.15-0.79-0.48-1.77-1.06-2.2
			c-9.06-6.77-7.87-17.4-9.92-26.71c-1.29-5.89-2.72-11.64-5.19-17.15c-1.04-2.33-2.11-3.43-4.17-1c-0.32,0.38-0.71,0.71-1.09,1.03
			c-5.9,5.13-6.95,4.94-10.05-2.23c-1.71-3.96-4.52-7.01-7.78-9.62c-6.4-5.12-10.71-11.78-14.48-18.87
			c-0.82-1.54-2.22-3.54-0.1-4.84c1.5-0.92,3.21,0.22,4.33,1.58c5,6.04,10.97,11.03,17.07,15.88c3.29,2.62,6.11,5.58,7.39,9.78
			c0.81,2.67,2.38,4.01,5.1,1.83c2.18-1.75,3.7-1.33,5.15,1.17c3.53,6.07,6.44,12.24,7.36,19.38c0.69,5.4,2.11,10.76,3.73,15.98
			c0.88,2.82,1.6,6.17,5.52,7.04c1.62,0.36,2.33,2.13,2.76,3.87c3.12,12.61,4.76,25.49,6.82,38.29c1.14,7.06,4.69,13.47,4.76,20.79
			c0.16,16.18,2.2,32.29-2.49,48.41c-2.21,7.59-4.67,15.14-6.85,22.75c-0.57,2-0.75,2.8,1.68,2.56c4.24-0.42,6.72,2.19,8.83,5.37
			c2.42,3.65,3.81,7.78,5.25,11.85c4.34,12.27,13.16,21.93,19.23,33.19c5.46,10.14,9.44,20.39,7.05,32.4
			c-1.05,5.28-0.02,10.94-0.2,16.43c-0.21,6.87-2.41,8.9-9.33,8.47c-3.13-0.19-6.27-0.84-9.31-1.65c-3.43-0.91-4.78-0.46-3.24,3.35
			c5.39,13.27,7.42,27.24,8.36,41.41c0.68,10.17,0.83,20.33-2.35,30.16c-1.91,5.91-0.52,11.91-1.06,17.85
			c-0.85,9.28-4.34,17.65-8.08,26.03c-6.5,14.53-12.2,29.42-19.74,43.47c-0.85,1.58-2.86,2.39-2.96,4.47
			c3.57-1.32,3.35-1.3,3.73,2.65c3.28,33.61,3.55,67.47,8.52,100.95c2.23,15.04,6.68,29.45,11.19,43.89
			c2.88,9.23,2.58,19.17,5.86,28.3c4.06,11.3,5.15,23.39,9.33,34.62c2.59,6.95,6.19,13.52,8.25,20.69c0.27,0.94,0.41,2.25,1.63,2.21
			c1.74-0.05,3.87-1.31,4.68,1.21c0.96,3.02,1.36,6.19,0.37,9.34c-1.56,4.94-2.65,9.95-2.85,15.16c-0.51,13.83,2.29,26.98,7.8,39.63
			c1.32,3.04,2.33,6.2,2.74,9.57c0.79,6.52-0.73,9.97-6.69,12.28c-6.41,2.49-11.7,6.58-17.36,10.29
			c-5.12,3.36-10.19,7.45-16.75,8.15c-2.98,0.32-4.66,2.44-5.78,4.96c-0.88,1.98-2.12,3.8-2.93,5.74
			c-4.45,10.69-13.46,11.74-23.17,11.26c-4.81-0.24-9.6-1.23-14.41-1.31c-4.97-0.08-9.15-2.64-14.25-4.13
			c1.89,6.4,4.63,11.94,4.75,18.13c0.04,2.02,0.06,3.98-1.03,5.8c-3.49,5.85-6.6,11.95-10.98,17.23c-2.38,2.86-5.2,4.11-9.16,3.62
			c-9.76-1.21-19.55,0.13-29.33,0.05c-7.79-0.06-15.59-0.34-23.35-0.91c-5.2-0.38-10.39-0.02-15.58-0.15
			c-7.62-0.2-13.67-3.77-14.23-11.15c-0.52-6.86-2.08-13.75-0.09-20.81c0.52-1.84,4.03-3.78,1.46-5.66
			c-1.63-1.19-4.51-0.59-6.8-0.98c-9.24-1.57-18.63-0.34-27.9-1.54c-3.83-0.49-7.56-1.29-11.22-2.36c-5.2-1.52-6.58-4.66-5.14-9.96
			c1.93-7.06,6.78-13.02,7.45-20.57c0.28-3.21-0.08-5.85-2.8-8c-2.35-1.86-3.99-2.68-6.76-0.11c-2.87,2.66-7.08,2.29-10.87,2.02
			c-7.12-0.5-14.15-1.21-21.31,0.49c-5.73,1.37-10.18,5.54-16.04,6.42c-2.11,0.32-4.13,1.62-6.22,1.7
			c-6.76,0.23-13.06,2.4-19.06,4.97c-4.96,2.13-9.04,1.04-13.23-1.11c-11.21-5.73-20.38-14.07-29.65-22.46
			c-6.35-5.74-11.83-12.05-17.28-18.52c-1.49-1.77-3.25-4.58-5.39,0.01c-0.91,1.96-3.97,1.07-6.08,1.25c-11.94,1-24-0.17-35.87,0.96
			c-22.45,2.13-44.9,0.6-67.34,1.13c-8.63,0.2-17.35,0.97-25.9-0.81c-1.78-0.37-2.19,2.34-3.82,0.97c-2.13-1.79-5.18-3.09-7-1.32
			c-1.56,1.52,0.09,4.61,0.91,6.94c0.66,1.87,0.92,3.88,1.55,5.76c0.39,1.15,0.28,3.12,2.07,2.91c1.32-0.16,2.97-1.04,2.92-2.79
			c-0.07-3.01,1.45-3.04,3.84-2.77c2.28,0.26,4.71,0.17,6.96-0.31c16.88-3.57,34.1-2.88,51.16-3.74
			c10.24-0.52,20.59,0.94,30.91-0.39c2.51-0.32,4.54-0.79,6.78-2.3c3.2-2.17,7.37-1.73,11.16-1.52c8.45,0.48,16.99-0.28,25.36,1.57
			c3.02,0.67,3.58,1.11,2.75,5.13c-1.62,7.87-6.04,7.19-12.01,7.77C813.83,1154.39,800.73,1152.49,787.63,1156.5z M1024.28,797.92
			c-1.43,0.36-1.58,1.82-1.84,2.76c-2.68,9.68-7.05,18.6-11.95,27.3c-0.32,0.57-0.47,1.24-0.61,1.89c-0.26,1.15-0.57,2.32,1,2.88
			c1.38,0.5,2.22-0.13,2.91-1.21c0.72-1.12,1.35-2.3,2.19-3.32c1.05-1.28,2.93-1.4,3.26,0.04c1.09,4.69,5.74,8.68,2.35,14.38
			c-1.51,2.55-2.68,5.22-4.75,7.45c-0.83,0.89-2.61,3.12-0.69,3.6c5.22,1.31,9.68,4.46,15.05,6.46c-0.33-3.85-1.07-6.72-2.13-9.51
			c-0.78-2.04-0.77-4.83,1.21-5.19c3.15-0.57,5.25-3.74,7.93-3.5c2.59,0.24,4.98,2.58,7.69,4.12c2.2-10.84,3.78-21.76,9.31-31.49
			c1.2-2.11-0.25-3.04-1.78-3.87c-1.94-1.05-2.18,0.54-2.66,1.77c-1.29,3.29-3.01,6.3-5.73,8.65c-0.75,0.65-1.91,1.78-2.5,1.02
			c-2.5-3.24-2.33-0.24-2.91,1.1c-1.44,3.34-2.44,6.92-5.14,9.58c-2.82,2.79-4.86,2.42-6.18-1.2c-1.57-4.33-1.01-8.85-1.09-13.31
			c-0.01-0.59,0.29-1.81,0.91-1.29c3.48,2.96,3.39-1.43,5-2.26c1.65-0.85,4.05-5.09,4.41,0.91c0.1,1.61,1.75,1.25,2.8,1.43
			c1.3,0.22,1.62-0.76,1.85-1.8c1.3-5.82,4.56-10.66,7.92-15.43c1.03-1.46,1.84-3.48,3.94-3.49c2.57-0.01,0.93,3.18,2.65,4.07
			c1.48-1.39,3.63-2.48,4.23-4.13c3.42-9.36,8.26-18.17,10.61-27.93c0.26-1.08,0.94-1.86-0.77-2.72c-4.02-2.03-5.62-6.91-4.06-11.12
			c1.36-3.69,5.77-5.55,9.1-4.02c2.53,1.16,4.1-0.07,4.91-2.53c1.3-3.95,2.51-7.93,3.95-11.83c1.02-2.77,1.54-4.35-2.67-4.52
			c-2.49-0.1-6.32,0.68-7.33-3.93c-0.96-4.37-0.14-7.84,2.83-10.95c1.09-1.14,2.4-1.98,3.98-0.92c3.72,2.49,6.78,0.14,10.93-1.27
			c-8.6-0.73-16.06-2.43-23.44-4.49c-1.49-0.42-2.96-0.92-4.3,0.04c-2.53,1.82-4.51,1.19-6.59-0.87c-1.39-1.37-3.9-2.13-4.45,0.27
			c-1.44,6.21-5.54,11.34-6.82,17.49c-1.28,6.16-0.02,12.58-1.74,18.69c2.09,0.56,6.54-5.96,5.45,2.05
			c-0.12,0.86,0.76,0.9,1.35,1.17c3.69,1.68,1.91,4.53,1.16,6.83c-0.98,3-1.55,7.35-5.87,6.79c-5.93-0.78-8.78,1.33-9.65,7.06
			c-0.24,1.58-1.26,3.06-1.97,4.56c-3.74,7.93-7.5,15.86-11.25,23.79L1024.28,797.92z M923.62,682.34c0.51,1.04,1.01,2.08,1.52,3.12
			c3.79,2.8,6.35,7.03,10.72,9.49c0.12-4.43,0.12-4.43-1-7.14c-2.07-4.99-1.48-6.74,3.56-8.84c1.93-0.8,2.71-1.4,1.73-3.54
			c-2.08-4.55-4.13-9.07-7.63-12.8c-2-2.13-5.89-3.6-2.07-7.92c1.97-2.23,9.8-6.71,12.7-5.38c1.3,0.6,1.72,1.76,1.47,2.88
			c-1.69,7.68,0.86,15.55-1.12,23.2c-0.23,0.89-1.31,2.05-0.04,2.56c1.32,0.53,3.01,0.71,4.37,0.37c1.27-0.31,0.54-1.7,0.25-2.58
			c-1.34-3.93,2.3-6.19,3.38-9.27c0.75-2.12,3.4-0.94,4.73,0.97c0.75,1.09,0.26,3.2,2.65,3.09c0.23-3.11-0.02-6.21,2.15-8.99
			c1.57-2.01,0.5-2.71-2.03-2.42c-3.84,0.45-6.11-2.79-4.34-6.06c0.8-1.48,0.11-2.14-0.62-3c-3.54-4.14-7.09-8.28-11.55-11.54
			c-3.48,5.6-6.18,6.02-11.42,1.9c-1.3-1.02-2.47-2.21-3.81-3.18c-3.48-2.52-3.99-5.22-1.14-8.56c2.07-2.42,1.64-4.04-0.39-6.38
			c-6.09-7.02-12.24-14.02-17.21-21.95c-0.78-1.24-1.24-3.47-3.37-3.09c-1.76,0.31-1.72,2.27-2.26,3.61
			c-0.77,1.91-1.92,3.84-3.84,4.19c-2.07,0.38-2.74-1.98-3.76-3.42c-1.05-1.48-2.17-2.92-3.13-4.46c-2.61-4.17-1.7-6.13,3.12-7.25
			c1.58-0.37,4.77-0.15,3.5-2.69c-1.32-2.65-1.16-7.36-5.5-7.32c-6.77,0.06-6.77,0.36-7.17-6.64c-0.05-0.83-0.19-1.66-0.2-2.49
			c-0.02-2.15-0.49-2.89-2.99-2.04c-3.3,1.12-5.49,3.67-8.34,5.32c-0.83,0.48-1.99,0.89-1.88,2.09c0.13,1.36,1.46,1.87,2.48,2.13
			c1.23,0.32,2.62,0.19,3.92,0.03c3.1-0.38,4.41,0.93,3.96,3.97c-0.73,4.92,0.7,9.97-1.05,14.85c-0.31,0.85-1.16,3.05,1.27,2.82
			c2.98-0.29,2.73,1.92,2.98,3.55c0.46,3.1,0.8,5.94,2.91,8.73c2.12,2.8,0.85,6.64-1.36,9.09c-2.63,2.93-4.66-0.49-6.62-1.77
			c-3.17-2.07-6.28-4.31-9.1-6.84c-1.66-1.49-6.74-3.33-0.51-5.85c0.97-0.39,0.41-1.4,0.09-2.17c-0.57-1.33-1.91-2.92-0.47-4.09
			c1.48-1.2,3.14,0,4.5,0.96c0.9,0.64,1.68,1.01,2.58-0.01c0.84-0.95,0.58-1.74-0.06-2.66c-1.67-2.39-2.87-4.94-5.29-6.99
			c-2.55-2.17-6.45-5.04-2.32-9.42c1.21-1.28,0.75-3.13-0.38-4.07c-1.29-1.07-3.36-0.26-4.03,0.78c-2.88,4.4-7.56,6.71-11.27,9.96
			c0.5,1.18,1.36,1.55,2.14,1.4c3.98-0.78,4.05,1.96,4.62,4.65c0.97,4.59-1.91,8.29-2.52,12.51c-0.63,4.36-2.8,3.23-4.81,0.91
			c-2.17-2.51-4.2-5.14-6.23-7.76c-0.82-1.05-1.51-2.21-1.04-3.68c0.4-1.25,2.24-3.01-0.11-3.63c-1.98-0.52-3.08,1.51-3.75,3.28
			c-2.39,6.36,3.44,22.04,9.43,25.49c0.97,0.56,1.86,0.65,2.79,0.05c0.65-0.43,0.83-1.17,0.43-1.74c-3.86-5.45,1.39-4.54,3.84-5.39
			c1.74-0.61,3.88-2.24,5.35,0.22c2.12,3.57,3.79,7.96,0.49,11.13c-5.13,4.94-0.65,6.3,2.32,8.33c1.63,1.11,3.51,1.91,5.36,2.65
			c4.57,1.84,8.46,4.55,11.41,8.53c0.46,0.45,0.91,0.91,1.37,1.36c3.27,5.14,8.04,8.71,12.84,12.23c0.99,0.72,1.98,2.25,3.42,1.37
			c1.42-0.86,0.65-2.34,0.37-3.62c-0.45-2.06,0.44-3.55,2.24-4.46c1.94-0.98,3.01,0.41,4.22,1.61c1.62,1.6,3.04,3.58,5.73,3.53
			c3.19-0.06,5.57,1.65,5.02,4.7c-0.55,3.05,2.37,8.15-4.03,8.76c-0.89,0.08-3.78,0.49-1.51,2.68
			C917.25,677.15,919.67,680.65,923.62,682.34z M992.63,671.59l-0.11-0.12c-2.01,7.97-6.39,10.83-14.63,9.16
			c-1.61-0.33-2.56-0.24-3.34,1.05c-0.84,1.39,0.42,1.8,1.26,2.07c7.45,2.41,14.92,4.75,23.36,7.43c-1.51-3.52-0.2-6.13-0.77-8.76
			c-0.76-3.51,1.42-5.56,4.11-6.57c4.29-1.61,8.8-2.66,13.26-3.79c1.38-0.35,3.16-0.62,3.47,1.63c0.87,6.22-3.57,13.68-9.6,16.36
			c-1.55,0.69-3.66,0.52-4.58,2.84c1.07,0.53,2.21,0.88,3.1,1.57c3.63,2.82,6.51,2.5,9.83-0.98c4.31-4.5,9.98-7.05,16.05-8.53
			c1.8-0.44,3.99-0.68,4.9-2.22c3.28-5.6,8.64-5.55,13.98-5.55c6.46,0,12.45-1.61,18.18-4.55c2.88-1.48,5.24-2.85,3.9-6.76
			c-0.68-1.98,0.31-3.6,2.24-4.45c1.3-0.57,2.01-1.49,2.65-2.76c2.09-4.12,7.29-6.42,11.66-5.4c0.83,0.19,2.14,0.52,1.93,1.18
			c-1.31,4.2,2.8,1.81,3.92,3.39c-1.42,3-5.21,4.23-6.83,8.27c8.12-2.63,14.97-6.51,22.75-7.65c3.11-0.46,6.03-1.18,7.4-5.31
			c1.27-3.83,8.66-6.2,12.67-4.89c2.37,0.77,5.91,1.85,6.42,3.55c0.81,2.67-3.05,3.2-4.91,4.63c-3.63,2.79-5.89,6.26-6.33,11
			c4.88-8.46,13.15-11.01,21.71-12.81c3.36-0.7,5.79-0.94,5.69-5.54c-0.07-3.1,3.4-4.31,6.27-4.73c2.79-0.41,5.6-0.31,8.39,0.64
			c2.2,0.74,4.58,1.23,7.25-0.55c-1.32-0.74-2.12-1.37-3.02-1.65c-1.32-0.41-2.69-0.63-2.4-2.48c0.21-1.38,0.76-2.59,2.19-3.09
			c5.87-2.07,11.97-3.13,18.13-2.75c4.58,0.28,5.51,2.84,2.89,6.53c-0.98,1.38-1.5,2.81-1.88,4.49c-0.92,4.02-6.16,8.3-8.83,7.05
			c-3.67-1.73-5.79,0.25-9.5,2.62c8.63,2.84,16.19,5.33,23.83,7.85c0.48-2.21-0.84-3.03-1.41-4.16c-3.03-6.08-2.3-8.7,3.75-11.97
			c2.24-1.21,1.43-2.79,0.86-4.24c-1.65-4.18-3.58-8.24-5.19-12.43c-0.91-2.36-1.49-3.44-4.6-2.26c-2.82,1.07-6.19,0.01-8.81-2.05
			c-2.72-2.15-5.55-4.18-9-4.86c-2.66-0.53-4.31-1.72-4.22-4.58c0.09-2.75,1.31-4.62,4.06-5.62c3.3-1.21,6.73-1.61,10.67-1.97
			c-1.57-4.8-4.67-8.43-5.47-13.53c-1.85-11.73-3.73-12.23-14.78-6.49c-6,3.12-12.73,3.24-19.01,5.21
			c-3.38,1.06-6.83,1.54-10.08,3.42c-6.87,3.99-13.83,7.72-21.62,9.94c-7.08,2.01-13.8,5.25-21.79,8.38
			c4.17,0.72,6.92,0.06,9.7-0.27c1.22-0.15,3.73,0.55,2.83,1.34c-3.58,3.13-1.76,6.26-1.16,9.6c0.15,0.83-1.01,2.04-1.8,2.87
			c-5.18,5.42-9.87,4.55-16.02,0.69c-1.09-0.68-1.67-2.47-3.13-2.24c-5.05,0.82-5.41-2.64-5.66-6.06c-0.13-1.72-0.67-2.45-2.41-2.22
			c-7.39,0.95-14.88,1.42-22.16,2.92c-8.78,1.81-17.66,3.14-26.43,5c-5.52,1.17-11,2.04-16.9,3.98c1.99,1.02,3.28,0.61,4.57,0.31
			c2.1-0.49,5.01-1.38,5.9,0.69c1,2.33,1.39,5.34-0.76,7.96c-3.98,4.86-8,9.11-15.08,6c-0.86-0.38-1.57,0.2-2.3,0.61
			c-4.05,2.3-3.83-0.62-3.41-3.04c0.4-2.34,1.67-4.6-0.54-7.26c-2.79,4.18-5.15,8.14-7.91,11.85
			c-7.65,10.29-16.17,19.85-24.43,29.62c-0.7,0.83-2.01,1.82-1.18,2.99c0.97,1.36,2.76,0.63,4.19,0.81
			c1.21,0.15,1.65-0.51,1.84-1.75c1.54-10.25,9.97-13.28,17.87-16.69c2.35-1.02,2.76,0.3,2.12,2.62
			C989.84,668.19,988.23,671.25,992.63,671.59z M1151.05,674.04l0.14,0.13c-3.29-4.44-4.95-4.46-8.14,0.01
			c-4.93,6.91-8.98,14.69-14.94,20.55c-6.69,6.58-7.7,14.13-8.24,22.51c-0.6,9.18,0.93,18.33,0.19,27.45
			c-1.83,22.37-7.91,43.81-15.28,64.88c-2.25,6.44-4.43,13.07-9.85,19.63c3.82-22.37,11.49-42.38,14.77-63.56
			c-2.13,0.45-2.58,2.3-3.72,3.41c-3.67,3.6-6.6,8.03-11.33,10.41c-1.52,0.76-3.53,2.52-4.96,0.96c-1.31-1.42,0.25-3.59,1.14-4.95
			c4.29-6.62,9.72-12.23,16-17c5.6-4.25,6.81-7.69,5.11-15.56c-5.38,6.59-10,13.79-18.35,18.09c0.3-2.74,1.13-4.12,2.09-5.53
			c4.05-5.96,9.09-11.06,14.02-16.25c0.78-0.82,2.15-1.73,2.13-2.58c-0.12-7.31-0.49-14.61-0.79-21.91
			c-0.46-0.08-0.93-0.16-1.39-0.24c-4.54,9.65-11.75,16.87-20.19,22.98c-1.53,1.11-1.63,2.89-1.74,4.51
			c-0.51,7.25-2.76,14-5.75,20.54c-0.98,2.15-1.33,4.43-1.82,6.71c-3.14,14.63-8.78,28.52-12.8,42.9c-0.22,0.78-0.75,1.47-1.14,2.21
			c-4.38,8.41-7.52,17.14-9.89,26.43c-2.48,9.74-4.01,19.89-8.5,29.08c-0.47,0.97-0.65,1.79-0.13,2.81
			c2.46,4.8,13.26,7.85,18.32,5.35c10.55-5.2,19.24-12.64,27.87-20.59c6.7-6.16,14.77-11.56,24.26-13.16
			c8.36-1.41,16.89-1.76,25.36-1.47c4.54,0.15,7.32-1.45,10.01-5c12.68-16.76,22.58-35.24,33.43-53.13
			c2.87-4.73,4.97-9.81,6.14-15.21c0.3-1.37,1.25-4.02-1.44-3.76c-2.62,0.24-2.33-1.32-2.53-2.61c-0.86-5.42-2.09-10.85-1.13-16.37
			c1.18-6.84-0.86-12.86-4.45-18.47c-3.51-5.49-6.49-11.18-8.65-17.37c-4.04-11.54-9.77-22.25-17.34-31.88
			C1155.8,676.86,1154.39,674.12,1151.05,674.04z M843.09,736.66c1.94-2.93,1.85-5.22,0.98-7.93c-3.44-10.76-6.63-21.59-9.88-32.41
			c-0.32-1.05-0.96-2.39,0.46-3.08c1.3-0.64,2.15,0.41,2.92,1.31c2.52,2.92,4.33,6.25,5.87,9.79c1.28,2.96,1.68,6.37,4.01,9.14
			c1.48-2.1,0.66-3.66,0.02-5.38c-3-8.1-5.95-16.22-8.75-24.4c-0.69-2.02-2.14-4.46,0.92-6.08c2.82-1.49,4.27,0.37,5.82,2.22
			c3.15,3.75,4.8,8.4,7.37,12.7c1.99-2.19,1.67-4.06,0.44-6.15c-3.41-5.82-4.22-12.53-6.19-18.84c-0.34-1.08-0.54-2.41,0.59-3.21
			c0.91-0.64,1.9-0.17,2.79,0.38c4.59,2.84,9.42,13.79,8.55,19.26c-0.45,2.79-0.8,5.59-1.14,8.4c-1.59,13.36-3.29,26.71-5.55,39.98
			c-1.35,7.92-6.11,15.01-5.14,23.55c0.29,2.51-1.02,5.53-3.57,7.38c-1.54,1.12-2.12,2.9-2.7,4.66
			c-3.81,11.66-8.69,22.93-12.14,34.72c-2.65,9.07-6.95,17.79-8.48,27.01c-2.12,12.82-5.11,25.27-9.21,37.57
			c-4.73,14.18-8.93,28.57-17.88,40.84c-3.18,4.35-5.52,8.99-7.19,14.06c-1.3,3.94-2.76,7.82-4.26,11.68
			c-2.99,7.69-4.78,15.99-3.98,19.63c5.01-7.4,8.31-16,16.87-20.99c0.42,2.75-0.39,4.06-0.96,5.43c-4.32,10.28-8.92,20.48-15,29.81
			c-2.99,4.59-1.72,8,0.15,12.47c4.88-5.33,8.03-11.54,14.03-15.05c-2.83,7.07-5.86,13.9-9.48,20.41c-2.14,3.84-1.62,7.11,0.34,11.2
			c3.54-5.34,5.18-11.82,12.06-14.8c-1.59,8.38-3.39,16.07-6.84,22.99c-2.76,5.54-0.79,10.16,0.05,16.42
			c2.91-6.25,4.16-12.13,9.37-16.35c-0.49,3.86-0.85,6.98-1.3,10.09c-0.36,2.5-0.8,5.85-3.08,6.47c-5.82,1.57-4.18,5.7-4.14,9.42
			c0.04,3.5,0.26,7.01,0.11,10.5c-0.18,4.18-0.3,7.46,5.34,8.69c6.77,1.47,12.12,6.59,18.66,9.1c3.19,1.23,4.93,1.09,7.17-1.63
			c8.89-10.8,17.66-21.69,27.23-31.91c2.61-2.78,4.34-5.9,4.3-10.15c-0.06-6.54,0.69-13.09,1.09-19.64
			c3.43,6.15,3.62,12.78,3.94,19.26c1.25,25.27,2.17,50.56,3.29,75.84c0.13,2.97,0.46,6.03,2.1,8.63
			c4.33,6.9,9.89,12.86,15.07,19.08c4.15,5,12.49,6.25,17.74,2.59c7.16-5,15.01-5.96,23.31-5.36c4.48,0.33,8.93,0.98,13.41,1.27
			c5.55,0.35,9.93-2.38,12.21-7.47c1.04-2.31,2.24-4.47,4.3-6.03c2.34-1.78,3.83-4.09,4.64-6.91c3.19-11.02,6.2-22.13,11.79-32.24
			c2.9-5.25,4.32-9.93-1.62-13.99c-0.78-0.53-0.97-1.38-0.37-2.16c0.69-0.89,1.46-0.46,2.15,0.07c1.05,0.81,2.05,1.7,3.15,2.45
			c1.01,0.68,1.84,2.23,3.4,1c1.54-1.22,2.2-11.92,0.58-12.83c-5.52-3.11-9.66-7.95-14.77-11.55c-1.7-1.2-4.43-2.38-3.04-4.89
			c1.55-2.79,4.27-1.7,6.63-0.53c3.61,1.79,6.56,4.52,9.68,6.99c0.96,0.76,1.76,1.81,2.59-0.03c1.32-2.93-0.76-9.48-3.62-11.41
			c-3.8-2.56-6.06-6.24-8.09-10.67c3.44,0.78,6.09,2.02,8.53,3.79c1.35,0.98,3.23,1.58,2.92-1.04c-0.91-7.52,2.47-15.8-3.93-22.4
			c-1.07-1.1-1.72-2.7-1.69-4.74c5.15,2.2,6.11-0.34,5.8-4.53c-0.23-3.11,1.55-7.08-4.24-7.14c-1.61-0.02-2.92-2.09-3.5-3.93
			c-0.65-2.07-1.29-4.09-2.72-5.83c-0.66-0.8-1.56-1.93-0.12-3c1.48-1.09,2.03,0.47,2.87,1.02c1.95,1.27,2.39,3.97,4.69,4.97
			c1.15,0.5,1.89,2.21,3.43,1.45c1.25-0.62,0.84-2.07,0.85-3.16c0.05-3.49,0.19-7.01-0.15-10.47c-1.65-16.72-4.06-33.39-5.02-50.15
			c-0.93-16.16-2.8-32.12-6.16-47.92c-1.51-7.08-1.98-14.09-1.35-21.33c0.59-6.79,0.57-13.66,0.36-20.48
			c-0.08-2.64,0.41-6.31-4.16-6.67c-1.3-0.1-3.58,0.86-3.77-1.99c-0.15-2.28,0.55-4.26,2.65-4.82c2.55-0.68,2.33-2.42,3-4.3
			c1.89-5.3-2.93-6.76-6.12-10.62c6.88,2.86,7.61-1.21,8.71-5.13c-7.45,0.09-16.13-5.32-17.94-11.14c1.49,0.29,2.96,0.48,4.37,0.87
			c3.21,0.9,4.22,0.35,3.21-3.3c-1.03-3.7-2.93-6.17-6.46-7.39c-4.74-1.63-6.73-6.06-11.49-9.62c6.02,0.23,10.34,0.11,14.44,1.86
			c0.98,0.42,2.31,1.3,3.02-0.26c0.64-1.41,0.64-3.07-0.61-4.18c-1.1-0.97-2.47-1.67-3.79-2.36c-6.38-3.36-12.38-7.23-18.12-12.33
			c6.21-1.27,10.99,2.15,16.72,3.16c-4.04-15.16-19.55-15.4-29.52-23.66c8.18,0.58,15.32,1.67,22.81,4.63
			c-1.44-4.22-3.41-6.6-7.06-7.23c-2.16-0.37-4.23-0.99-6.09-2.13c-8.29-5.06-16.35-10.5-25.73-13.56
			c-1.18-0.39-3.92-0.53-3.53-2.75c0.39-2.22,2.74-2.01,4.53-2.22c5.71-0.67,11.02,1.53,16.27,2.48
			c-5.86-9.84-17.29-10.64-27.16-15.48c4.86-1.47,8.58,0.73,12.5-0.29c-4.7-9.13-15.1-4.15-21.51-9.03
			c1.67-1.25,3.32-1.34,4.98-1.55c2.2-0.28,2.7-0.76,1.21-3.11c-7.08-11.25-18.99-16.4-29.73-24.47c1.67,3.89,5.57,5.66,5.01,9.7
			c-0.14,0.99,0.09,2.28-0.82,2.72c-1.36,0.65-2.11-0.7-2.7-1.61c-2.19-3.35-4.14-6.68-3.33-11.09c0.62-3.4-2.65-5.22-4.87-6.07
			c-2.12-0.81-1.92,2.52-2.42,4.02c-2.02,6.01-4.23,11.88-7.81,17.18c-6.65,9.84-10.48,21.06-15.61,31.65
			c-1.42,2.93-1.68,5.12-0.09,7.82c5.01,8.49,7.59,17.87,10.24,27.27C837.8,723.62,840.56,729.84,843.09,736.66z M1024.95,873.73
			c-0.35,0.23-0.7,0.46-1.05,0.69c3.96,14.39,7.58,28.88,11.95,43.14c5.76,18.82,9.99,37.69,5.2,57.36
			c-1.49,6.11-3.64,12.06-5.63,18.04c-3.84,11.52-7.8,23.05-14.78,33.12c-3.78,5.46-8.1,10.5-10.31,16.92
			c-3.42,9.91-11.16,18.01-11.91,29.15c-0.2,3.07,0.01,4.86,2.69,6.6c7.35,4.76,14.56,9.66,20.42,16.41
			c7.08,8.17,13.16,16.74,14.97,27.67c0.78,4.73,0.23,8.77-4.91,11.24c-2.92,1.4-5.38,3.86-7.85,6.06c-1.21,1.09-2.11,2.73-1.46,4.5
			c0.59,1.61,2.28,1.17,3.49,1.29c5.28,0.51,10.49,1.37,15.88,1.28c6.6-0.11,13.23-0.32,19.89,0.59c9.2,1.26,18.5,2.19,28.27,0.79
			c-2.9-29.87-6.18-59.72-6.52-90.76c3.87,3.09,3.01,7.14,5.64,9.84c4.92-7.78,9.8-15.27,16.68-21.23
			c-2.87,10.31-6.47,20.43-12.15,29.26c-3.83,5.97-1.22,10.35-0.51,16.74c3.74-4.92,5.73-9.44,9.63-13.24
			c-2.28,9.03-10.56,15.81-6.81,26.49c5.12-7.7,9.85-14.83,14.88-22.42c0.91,2.74-0.23,4.3-0.88,5.93
			c-3.01,7.59-7.21,14.59-11.2,21.68c-1.41,2.5-1.98,4.73,0.32,7.45c4.22-5.72,7.42-11.88,12.41-17.04
			c1.19,2.66,0.01,4.52-0.69,6.25c-2.69,6.62-5.37,13.27-8.59,19.65c-2.17,4.3-1.43,8.15,0.03,13.34
			c6.14-9.49,12.8-17.4,18.31-26.24c-0.68,12.48-8.53,22.3-11.99,33.83c9.76-2.32,13.89-10.81,20.42-17.77
			c-0.49,4.76-2.44,7.89-4.08,11.76c7.76,0.08,15.18,5.36,22.63-0.52c0.57-0.45,1.61-0.31,2.43-0.46c5.8-1.12,6.28-1.93,4.46-7.76
			c-4.03-12.87-7.93-25.76-8.8-39.34c-0.48-7.52-1.95-14.85-5.06-21.78c-3.32-7.39-4.63-15.21-5.42-23.22
			c-0.91-9.26-0.61-18.8-4.17-27.57c-4.09-10.08-5.71-20.46-5.69-31.22c0.02-9.99,0.4-20.03-1.12-29.92
			c-2.15-13.96-2.53-27.82,0.24-41.72c1.24-6.21,2.6-12.42,3.28-18.7c0.76-6.94,4.38-14-0.53-20.96c-1.17-1.66-0.89-4.19-0.15-6.34
			c0.92-2.67,1.72-5.38,2.76-8c0.86-2.16,0.73-3.36-1.95-3.78c-10.94-1.7-21.43,1.26-30.44,6.24c-10.82,5.98-21.28,12.79-32.42,18.2
			c-8.06,3.91-16.66,5.26-24.76-1.06C1035.17,880.45,1029.97,877.2,1024.95,873.73z M999.35,1150.04c1.57,0.8,2.69,1.69,3.93,1.92
			c1.77,0.33,2.95,3.1,5.31,1.12c1.9-1.59,0.84-3.36,0.68-5.07c-0.63-6.73,0.47-13.01,4.97-18.28c2.21-2.59,5.24-4.57,2.83-8.8
			c-0.73-1.28,0.38-3.23,1.84-4.33c2.28-1.71,1.79-3.57,0.49-5.66c-3.27-5.28-7.6-9.68-11.74-14.23c-0.85-0.93-1.96-2.23-3.31-1.7
			c-1.12,0.44-0.91,2.03-1.08,3.16c-0.3,1.99,1.01,2.13,2.47,2.13c2.23,0,2.85,1.6,2.89,3.34c0.17,6.82,0.2,13.64,0.27,20.46
			c0.02,1.41-0.58,3.44-1.55,3.4c-5.35-0.23-2.89,3.11-2.66,5.38c0.27,2.68,0.34,5.36-0.64,7.9c-0.66,1.71-1.68,3.75-3.9,2.91
			c-4.5-1.71-8.95-3.68-12.1-7.59c-1.12-1.4-1.47-2.75,0.97-3.11c4.79-0.71,7.34-4.59,10.64-7.43c1.94-1.67,0.74-2.36-0.74-3.24
			c-2.57-1.53-5.23-2.99-7.56-4.84c-4.03-3.2-4.01-4.91,0.06-8.03c2.93-2.24,2.07-6.06,4.13-8.78c1-1.32-1.97-2.66-2.87-4.18
			c-1.76-3-4.04-5.78-4.85-9.22c-0.33-1.38-1.81-4.39,2.41-2.84c2.95,1.08,2.08-1.03,1.19-2.37c-2.08-3.11-2.01-6.34-0.39-9.48
			c2.09-4.07,3.2-8.32,3.51-12.88c0.15-2.15,0.78-4.4,2.28-6c3.41-3.63,3.03-6.77,0.22-10.79c-4.05-5.78-3.7-5.99,1.96-10.32
			c0.77-0.59,1.14-1.69,1.91-2.26c1.91-1.43,3.68-4.74,6.29-0.72c0.69,1.06,1.51,0.34,1.97-0.32c5.92-8.45,12.27-16.64,15.82-26.5
			c0.34-0.94,0.82-2.03-0.62-2.44c-4.9-1.4-4.41-6.23-6.03-9.65c-0.87-1.84-0.37-4.15,1.81-5.14c2.52-1.15,3.73-3.12,4.65-5.54
			c0.5-1.32,1.18-3.26,2.84-2.83c1.54,0.4,0.77,2.2,0.65,3.51c-0.14,1.54-1.04,3.72,1.21,4.24c2.25,0.52,2.49-1.96,3-3.3
			c3.12-8.24,4.02-16.8,2.97-25.54c-0.24-2,0.3-4.3-1.98-6.34c-0.71,2.3-1.17,4.22-1.91,6.02c-0.6,1.46-0.82,3.78-2.77,3.72
			c-2.13-0.07-2.6-2.34-2.97-4.08c-0.56-2.58-0.53-5.34-1.36-7.81c-0.89-2.65-1.92-4.95,0.61-7.27c1.88-1.73,3.54-3.72,7.13-2.35
			c-2.41-6.88-4.51-12.89-6.66-19.05c-2.51,1.52-3.18,5.58-6.19,4.04c-3.22-1.64-4.95-5.07-4.72-8.77c0.19-3.1,3.95-5.09,5.52-4.93
			c2.78,0.29,1.97-0.9,1.7-2c-2.4-9.79-4.87-19.57-7.35-29.47c-7.12,5.53-7.8,5.44-13.05-1.54c-1.98-2.63-2.78-4.96,1.81-5.25
			c2.81-0.18,2.77-2.68,3.43-4.27c0.76-1.83-1.52-1.73-2.54-2.28c-4.5-2.39-9.63-3.87-12.24-8.87c-0.59-1.13-1.27-1.21-2.32-0.32
			c-3.07,2.57-5.8,1.64-8.23-1.07c-2.71-3.02-5.95-6.65-4.7-10.44c1.06-3.19,7.02-1.89,9.09-5.55c0.51,0.37,1.29,0.63,1.47,1.12
			c0.73,1.94,2.4,3.92,3.89,2.48c1.8-1.73,3.55-5.33,2-7.43c-2.86-3.86-3.71-7.97-4.43-12.46c-0.74-4.65-4.22-6.23-7.81-3.6
			c-3.02,2.22-4.73,0.91-5.84-1.63c-1.98-4.54-4.07-9.2-2.72-14.37c0.52-1.98,0.06-3.17-2.73-4.34c-0.23,8.09-0.48,15.76-0.64,23.44
			c-0.03,1.62,0.89,2.03,2.29,1.15c4.03-2.53,6.24,1.33,8.4,3.08c1.88,1.52-0.16,4.27-1.28,6.31c-1.7,3.08-3.47,6.14-6.66,7.92
			c-2.26,1.27-2.49,3.01-2.33,5.43c0.47,7.34,4.02,14.13,3.7,21.58c-0.03,0.78,0.02,1.86,1.21,1.69c1.28-0.18,2.81-0.3,3.24-1.87
			c0.26-0.94,0.07-1.99,0.18-2.98c0.19-1.67,1.24-2.9,2.73-3.24c1.53-0.34,2.49,1.08,2.88,2.29c0.91,2.79,2.36,3.59,5.21,2.52
			c2.48-0.93,3.25,0.35,2.89,2.84c-0.66,4.58-2.3,8.92-2.78,13.59c-0.28,2.71-2.6,6.05-5.87,5.93c-2.89-0.11-2.96-3.68-3.48-5.98
			c-0.79-3.48-2.56-6.05-6.37-9.21c1.54,12.09,2.89,22.78,4.25,33.45c1.65-0.13,1.77-1.06,2.07-1.79c0.7-1.68,2.55-4.54,3.17-3.64
			c2.07,3.01,5.77,2.75,7.93,5.06c0.19,0.21-0.14,0.95-0.28,1.42c-1.64,5.45-4.23,10.43-7.96,14.7c-0.79,0.9-1.64,1.41-1.51,2.75
			c0.85,8.95,1.67,17.9,2.51,26.85c0.08,0.83,0.25,1.81,1.33,1.69c0.52-0.06,1.36-0.71,1.4-1.14c0.45-5.68,4.87-3.39,7.79-3.85
			c2.68-0.42,3.56,0.81,2.8,3.56c-0.65,2.36-2.98,4.77-1.74,7.05c2.34,4.31-1.25,6.06-3.04,8.47c-1.43,1.91-3.18,1.54-4.19-0.75
			c-1.12-2.55-2.17-5.14-3.7-8.75c-3.21,19.04,1.37,36.65,1.01,54.36c-0.02,1,0.61,2,1.77,2.1c1.39,0.12,1.37-1.1,1.66-2.03
			c0.85-2.74,1.43-5.67,4.21-7.26c1.72,1.95,1.05,4.03,1.23,5.99c0.1,1.08-0.39,2.71,1.04,3.03c4.47,1,2.17,3.53,1.37,5.63
			c-0.58,1.54-1.55,2.94-2.18,4.47c-2.82,6.83-2.79,6.83-7.88,1.85c-0.14-0.14-0.53-0.02-1.14-0.02c0.21,9.75-0.45,19.45-2.98,29.8
			c5.26-2.67,4.2-8.23,7.6-11.22c1.64,2.57,0.04,6.8,4.7,7.59c1.27,0.22,0.18,3.22-0.85,4.33c-2.29,2.47-2.18,7.08-6.16,7.74
			c-1.34,0.22-3.12-1.66-3.8-3.5c-0.29-0.78-0.39-1.64-0.77-2.36c-0.55-1.01-1.74-1.61-2.32-0.44c-2.17,4.41-6.46,7.83-6.65,13.61
			c7.72-5.68,5.06,3.64,7.9,5.14c1.81,0.95-0.83,7.99-3.79,9.58c-5.9,3.18-5.75-3.48-8.56-5.81c-0.5,0.64-1.06,1.07-1.24,1.63
			c-1.96,5.99-3.06,12.42-5.95,17.92c-5.06,9.63-10.65,18.89-14,29.39c-1.58,4.94-1.96,5.78,2.85,7.84
			c7.26,3.11,15.23,3.37,22.65,5.78c1.61,0.52,2.31-0.22,2.95-1.7c1.02-2.37,2.94-3.67,5.62-2.87c2.65,0.79,2.96,3.14,2.59,5.3
			c-0.6,3.56,1.02,5.57,3.87,7.2c3.25,1.85,6.24,4.3,7.16,7.98c2.22,8.86,2.81,17.76-1.92,26.15c-0.8,1.41-1.66,3.34,0.16,3.74
			c4.16,0.92,8.5,1.61,13.05,0.46c-1.49-2.92-6.67-2.21-5.42-5.57c1.03-2.77,0.09-4.3-0.89-6.28c-0.73-1.48-0.73-2.95,0.4-4.19
			c1.4-1.52,2.75-0.41,4.02,0.3c2.24,1.25,4.38,2.14,7.02,0.79c1.58-0.81,3.18,0.07,4.63,1.08c5.89,4.09,6.8,6.51,4.98,13.89
			c2.14,1.1,4.48,0.21,6.72,0.51c8.39,1.12,16.87,1.58,25.32,2.19c1.32,0.1,2.87-0.19,3.07-1.89c0.19-1.64-1.12-2.16-2.48-2.59
			c-1.68-0.53-3.64-0.36-4.99-1.81c5.05-7.89,5.36-8.03,14.19-6.68c0.98,0.15,1.98,0.34,2.96,0.33c1.6-0.01,3.57-0.86,4.31,1.28
			c0.74,2.16,0.47,4.35-1.64,5.79c-1.93,1.32-2.74,3.2-3.23,5.7c9.42,1.12,18.62-0.38,27.84-1.11c1.48-0.12,2.55-1.03,2.29-2.67
			c-0.41-2.65-0.45-5.48-2.63-7.92c-2.92,3.89-5.41,7.59-10.15,8.91c-3.91,1.09-6.63-0.89-8.7-3.35c-2.2-2.61,0.01-4.91,1.91-6.89
			c0.79-0.83,2.09-1.71,2.14-2.62c0.26-4.71,3.72-4.99,7.05-5.32c2.26-0.22,4.56-0.04,6.84-0.04c-0.43-8.45-0.43-8.45-8.46-8.64
			c-1.17-0.03-2.33-0.07-3.49-0.17c-4.06-0.33-7.17,0.07-6.98,5.55c0.07,2.17-0.66,5.3-4.01,5.41c-3.6,0.12-7.66-0.55-9.25-3.76
			c-1.19-2.41-1.97-4.46-3.79-6.76c-2.54-3.2-4.67-3.28-7.71-3.28c-11.45,0-22.96,0.44-33.86-4.07c-0.76-0.31-1.61-0.87-2.04,0.27
			c-0.37,0.98-0.13,1.99,0.63,2.77c2.31,2.39,3.78,5.05,2.98,8.54c-0.48,2.11-1.54,3.13-3.86,2.86
			C1004.18,1168.6,997.26,1158.79,999.35,1150.04z M1138.39,990.48c8.2-10.98,16.4-21.97,24.6-32.95c0.59,3.87-0.54,6.91-2.33,9.68
			c-6.39,9.91-12.79,19.82-19.3,29.66c-2.94,4.44-3.12,8.77-0.41,13.91c8.33-11.19,16.11-22.12,25.39-31.86
			c-0.71,5.17-2.94,9.57-5.51,13.83c-4.9,8.12-9.77,16.27-14.83,24.3c-2.18,3.45-2.8,6.89-1.38,11.36
			c8.26-11.14,16.2-21.86,24.14-32.57c-1.21,6.62-4.18,12.12-7.41,17.55c-4.16,7-7.61,14.65-12.43,20.96
			c-3.59,4.7-4.27,8.48-3.6,14.96c8.1-13.76,17.77-24.55,27.42-35.39c-2.02,6.1-5.62,11.27-8.9,16.63
			c-3.38,5.53-6.74,11.12-9.57,16.94c-5.96,12.24-6.38,14.09-5.35,17.24c7.97-10.26,14.57-21.5,24.57-31.06
			c0.53,3.35-0.78,4.98-1.59,6.72c-5.65,12.16-16.21,21.54-19.66,35.04c-0.64,2.5-0.72,4.17,0.5,6.93
			c5.62-8.47,10.62-16.63,18.61-22.3c-4.55,8.52-9.1,17.04-13.65,25.56c3.58-2.54,6.12-5.74,8.76-8.86
			c3.32-3.93,6.7-7.82,10.1-11.68c0.92-1.05,2.48-1.9,3.53-1.26c1.71,1.03,0.04,2.29-0.51,3.34c-6.61,12.7-14.19,24.85-22.11,36.75
			c-2.24,3.37-3.36,6.11-2.2,9.86c0.28,0.91,0.06,2.31,1.47,2.02c1.34-0.29,1.12-1.35,0.37-2.28c-1.38-1.7-0.3-3.38,0.55-4.59
			c6.73-9.57,15.43-17.27,24.41-24.77c-4.35,5.93-8.71,11.86-13.06,17.8c3.58-2.12,6.49-5.06,11.16-7.06
			c-4.61,5.45-8.6,10.1-12.51,14.81c-6.21,7.47-8.56,11.56-8.87,15.63c2.98-3.8,5.67-7.35,8.84-10.53
			c8.15-8.18,17.17-15.28,26.84-21.5c4.36-2.8,5.52-5.83,4.43-11.1c-2.08-10.02-7.28-18.98-9.04-29.03
			c-4.82-27.52-8.13-55.25-13.53-82.72c-5.33-27.08-6.07-54.89-5.14-82.6c0.24-7.17,0.04-14.35,0.04-21.52
			c-0.55-0.04-1.1-0.07-1.65-0.11c-3.1,4.06-5.19,8.81-8.52,12.74c-8.62,10.15-17.02,20.48-25.63,30.64
			c-2.22,2.62-2.77,5.26-1.87,9.23c10.98-13.03,21.13-25.72,34.95-36.57c-1.02,3.83-2.71,5.67-4.21,7.59
			c-9.33,11.92-18.5,23.99-28.17,35.63c-4.08,4.91-4.79,9.71-2.45,15.96c8.6-12.6,18.66-23.38,29.46-33.52
			c0,0.78-0.31,1.31-0.67,1.8c-8.51,11.7-18.23,22.49-26.06,34.69c-1.24,1.94-2.85,3.8-1.78,6.41c0.41,1-0.21,2.62,1.27,2.93
			c1.36,0.28,1.86-1.15,2.54-2.04c4.06-5.27,7.89-10.73,12.21-15.79c3.87-4.54,7.57-9.33,12.71-12.66
			c-0.72,1.75-1.64,3.32-2.67,4.81c-7.27,10.53-14.58,21.04-21.85,31.58c-1.94,2.81-2.54,5.78-0.98,9.46
			c4.16-5.47,7.9-10.54,11.8-15.49c3.92-4.96,7.22-10.54,12.86-14.16c0.89,1.71,0.17,2.71-0.2,3.79
			c-4.5,13.22-13.46,23.71-22.15,34.08C1136.33,981.88,1138.15,985.79,1138.39,990.48z M978.31,786.84
			c3.2,12.57,11.5,20.88,22.02,27.56c4.37,2.78,6.6,1.92,8.63-2.62c3.59-8.02,6.09-16.53,10.96-24c1.88-2.88,3.11-6.24,4.65-9.35
			c5.23-10.56,6.45-22.3,10.24-33.3c2.99-8.68,4.43-18.04,4.13-27.49c-0.09-2.77-0.57-3.84-3.56-3.75
			c-3.43,0.1-6.96-0.09-10.32-0.77c-15.78-3.2-30.97-8.63-46.22-13.53c-10.87-3.49-22.47-4.7-32.75-10.02
			c-0.15-0.08-0.31-0.15-0.47-0.17c-1.37-0.21-2.89-0.11-3.68,0.97c-0.95,1.3,0.66,2,1.35,2.79c4.35,5.03,8.58,10.18,13.19,14.96
			c6.8,7.06,14.42,13.26,23.07,17.89c10.04,5.37,21.22,7.48,32.15,10.22c1.91,0.48,4.54,0.27,4.55,2.86
			c0.02,2.65-2.63,3.21-4.72,3.63c-5.53,1.12-10.95-0.32-16.19-1.57c-11.82-2.82-21.95-9.24-31.21-16.83
			c-5.04-4.13-12.32-5.14-15.71-11.48c-0.15-0.28-0.98-0.47-1.33-0.32c-0.96,0.42-0.71,1.3-0.57,2.14
			c1.29,7.82,3.78,15.13,9.55,20.86c3.04,3.02,6.12,6.1,9.63,8.51c5.69,3.9,10.8,8.57,16.83,12.04c6.26,3.61,12.06,7.99,18.94,10.53
			c1.39,0.51,3.27,1.51,2.82,3.6c-0.35,1.62-1.99,2.57-3.41,2.5c-3.55-0.18-7.13,0.27-10.63-1.29c-9.47-4.24-18.08-9.74-25.94-16.5
			c-0.85-0.73-1.99-2.46-3.31-1.21c-1.32,1.25-0.38,2.77,0.64,3.99c0.64,0.77,1.26,1.55,1.9,2.31
			c10.65,12.64,23.41,22.56,38.23,29.87c1.45,0.72,2.77,1.84,3.91,3c2.22,2.26,1.4,3.94-1.42,4.63c-4.51,1.11-8.93,0.77-12.99-1.65
			C986.77,793.14,982.55,790.04,978.31,786.84z M796.35,731.31c-0.7,1.34-1.14,2.2-1.6,3.06c-8.86,16.38-15.81,33.66-23.72,50.49
			c-4.88,10.38-10.46,20.46-13.98,31.41c-4.7,14.61-4.26,29.65-3.01,44.71c0.11,1.37-0.78,3.37,1.41,3.59
			c1.61,0.16,1.86-1.64,2.3-2.86c8.08-22.25,18.88-43.28,28.8-64.7c0.84-1.81,1.64-3.79,3.87-4.28c1.59-0.35,3.49-0.97,4.77,0.29
			c1.31,1.3-0.04,2.86-0.58,4.15c-3.06,7.37-6.26,14.68-9.35,22.03c-5.54,13.19-12.59,25.7-17.3,39.26
			c-1.76,5.05-1.54,10.18-1.2,15.3c0.18,2.67,1.75,5.43,4.48,6.01c2.43,0.51,2.59-2.55,3.64-4.1c0.74-1.09,1.25-2.34,1.83-3.53
			c4.29-8.83,8.56-17.67,12.87-26.48c1.61-3.28,4.56-3.99,7.62-2.98c3.77,1.24,1.54,4.07,1.01,6.27c-1.98,8.07-5.51,15.75-6.35,24.1
			c-0.27,2.61-1.45,7.07,1.24,7.45c2.98,0.42,6.33-2.4,7.84-5.88c0.26-0.6,0.22-1.31,0.41-1.95c1.07-3.67,2-7.39,3.27-11
			c5.19-14.74,8.59-29.82,6.78-45.5C808.12,787.75,803.67,759.55,796.35,731.31z M1120.54,1186.71c2.84,0.18,5.31,0.31,7.77,0.51
			c2.59,0.21,4.58,1.9,6.84,2.92c2.05,0.92,4.24,0.75,6.31,1.23c2.74,0.63,4.1-0.45,4.9-2.79c0.98-2.87-2.02-1.92-2.97-2.96
			c-1.16-1.27-4.48-1.46-3.15-3.87c1.81-3.31,4.35-6.42,8.97-5.89c3.8,0.43,7.54,0.66,11.32-0.64c2.71-0.93,3.75,0.72,3.09,3.26
			c-0.54,2.06-0.75,4.34-2.46,5.9c-2.45,2.22-2.82,5.28-3.85,8.3c4.06,0.26,7.68,0.12,11.04-1.64c1.84-0.96,2.72-1.92,1.39-4.29
			c-2.06-3.65-0.6-6.61,3.53-7.3c2.15-0.36,2.23-1.3,2.21-2.98c-0.06-5,2.87-7.48,7.58-6.3c1.62,0.4,2.95-0.09,4.36-0.47
			c4.23-1.14,8.01-3.23,11.48-5.87c1.21-0.92,3.76-1.29,2.79-3.39c-0.86-1.87-2.67-3.55-5.24-2.45c-1.52,0.65-3.15,0.94-4.03-0.5
			c-0.89-1.45-0.38-3.17,0.52-4.72c3.42-5.93,8.09-10.52,14.22-13.61c1.01-0.51,2.15-1.46,3.18-0.5c0.91,0.85,0.62,2.15,0.13,3.26
			c-2.12,4.79-1.59,9.9-2.15,15.09c3.09-0.6,5.11-2.47,7.48-3.62c2.29-1.12,2.49-2.86,1.32-4.98c-3.21-5.82-4.2-12.1-4.42-18.68
			c-0.08-2.34,2.21-10.21-5.11-3.82c-0.12,0.1-0.39,0.23-0.44,0.19c-2.49-2.36-6.52-4.4-7.11-7.17c-1.17-5.48,3.4-10.44,8.99-11.29
			c2.08-0.32,1.85-1.64,1.58-2.76c-1.04-4.32-7.32-6.08-10.75-3.13c-7.5,6.46-15.35,12.45-22.58,19.3
			c-9.11,8.63-10.78,18.54-9.02,29.83c1.1,7.04,5.06,13.38,5.51,20.62c0.1,1.6,1.02,3.6-0.72,4.63c-1.78,1.06-2.27-1.3-3.44-1.95
			c-0.55-0.31-1.35-0.77-1.79-0.59c-4.4,1.83-6.34-1.64-8.59-4.07c-1.74-1.88-3.07-4.14-4.83-6.57c-1.94,3.92-5.73,4.98-8.44,7.34
			c-2.06,1.8-6.76,4.01-8.56,1.96c-2.72-3.1-7.13-7.22-7.1-10.18c0.08-6.54-3.66-4.07-6.19-3.96c-5.77,0.25-10.44,4.17-16,5.32
			c-1.67,0.35-2.1,1.79-1.63,3.12c0.59,1.66-0.47,3.99,1.34,4.94c1.21,0.64,2.3-0.97,3.31-1.79c0.51-0.42,0.9-1,1.43-1.38
			c3.02-2.17,10.98-1.39,13.54,1.29c1.95,2.05,0.84,8.44-2.14,11.33C1122.37,1182.47,1121.07,1184.07,1120.54,1186.71z
			 M811.45,1114.75c0.22-0.35,0.45-0.71,0.67-1.06c-0.41-0.49-0.74-1.3-1.24-1.42c-5.05-1.23-4.28-5.71-5.07-9.2
			c-0.25-1.13,0.44-3.34,1.83-3.01c4.41,1.03,8.25,4.74,13.31,2.68c0.46,4.17,6.38,6.6,3.64,11.84c-2.38,4.56,0.09,5.63,4.23,5.93
			c10.01,0.72,17.91,5.26,23.54,13.67c1.1,1.64,2.3,3.34,5.27,4.66c-2.65-7.05-3.46-13.47-5.4-20.94c-1.52,3.21-3.81,3.76-5.48,1.99
			c-3.51-3.72-8.2-5.6-12.14-8.61c-3.15-2.41-2.7-4.65,0-7.41c2.18-2.23,4.98-1.46,7.35-2.59c5.48-2.62,7.1-1.4,6.73,4.7
			c-0.13,2.26-0.89,4.63,2.44,5.66c0-2.33,0.04-4.58-0.01-6.83c-0.15-6.57-2.73-12.3-6.41-17.58c-0.94-1.35-2.38-2.82-3.97-2.63
			c-2.03,0.23-1.19,2.4-1.36,3.74c-0.47,3.79-1.68,7.24-6.15,6.89c-2.48-0.2-5.07-1.48-7.18-3.23c-3.53-2.93-3.56-4.51,0.48-6.81
			c2.57-1.46,1.5-4.08,2.32-6.05c0.76-1.82-2-1.45-3.24-1.98c-4.86-2.1-9.86-3.9-14.36-6.79c-2.71-1.74-5.69-4.78-7.88,0.7
			c-0.19,0.48-1.1,0.66-1.66,1.01c-5.71,3.57-10.02-0.4-14.62-2.73c-0.98-0.5-1.77-2.35-2.76-1.65c-2.17,1.53-2.99,4.13-2.46,6.65
			c0.45,2.17,2.35,3.5,4.6,2.52c5.27-2.29,5.97,1.04,6.5,4.89c0.38,2.77,0.51,5.59,3.7,7.07c4.5,2.09,1.97,5.21,0.72,7.91
			c-1.47,3.17-3.85,3.52-6.43,1.31c-4.06-3.48-9.34-4.74-13.97-7.3C785.52,1103.03,798.49,1108.89,811.45,1114.75z M817.08,1209.95
			c-21.13-2.48-42.26-0.09-63.4-0.17c17.11-3.49,34.23-6.34,51.72-5.79c7.49,0.23,14.98,0.25,22.47,0.24c4.02,0,8.13-4.78,7.78-9.24
			c-0.38-4.86-3.89-4.93-7.68-4.72c-2.81,0.16-5.64-0.27-8.47-0.3c-5.68-0.06-11.36-0.02-17.04-0.02c0,0.67-0.01,1.33-0.01,2
			c9.6,0,19.19,0,29.68,0c-1.93,2.23-3.4,2.05-4.63,2.12c-11.63,0.68-23.22,1.88-34.89,1.76c-11.82-0.12-23.61,0.52-35.37,1.85
			c-10.39,1.17-20.58,3.57-31.18,3.47c-9.95-0.1-19.91,1.16-29.86,1.84c-0.92,0.06-2.26-0.11-2.21,1.31
			c0.04,1.15,0.99,1.61,2.16,1.41c4.13-0.71,8.18,0.87,12.38,0.2c16.45-2.62,33.04-4.32,49.63-5.17c16.2-0.83,32.47-0.18,48.7-0.18
			c-4.06-0.1-8.14,0.55-12.25,0.84c-20.33,1.44-40.62,2.92-60.82,6.11c-11.66,1.85-23.16,3.84-34.45,7.22
			c-1.04,0.31-2.82-0.17-2.8,1.33c0.04,1.99,1.96,1.36,3.11,1.27c9.46-0.79,18.91-1.64,28.35-2.54c13.41-1.27,26.75-3.17,40.25-3.45
			C784.54,1211.01,800.81,1210.43,817.08,1209.95z M832.12,1227.62c-0.61-3.57-1.75-6.42-1.44-9.45c0.18-1.79-0.76-2.4-2.33-2.38
			c-10.48,0.16-21.04-1.04-31.41,0.85c-15.72,2.87-31.48,5.94-47.47,4.9c-13.68-0.89-27.24,0.53-40.86,0.45
			c-1.99-0.01-5.53-1.72-5.85,2.4c-0.31,3.95,2.17,4.61,5.72,4.92c11.15,0.96,22.26-0.19,33.39-0.18c10.48,0.01,21-2.12,31.42-0.73
			c9.6,1.28,18.9,0.78,28.2-1.47C811.56,1224.49,821.55,1226.91,832.12,1227.62z M696.86,1154.93c0.72,2.8,1.42,5.51,2.12,8.22
			c0.35,1.36,0.8,2.58,2.62,2.3c5.51-0.85,10.99,0.75,16.45,0.35c15.14-1.11,30.27-1.28,45.42-0.54c12.3,0.61,24.63-0.69,36.92,0.82
			c11.26,1.39,22.61-0.58,33.89,0.6c1.32,0.14,2.81,0.36,3.38-1.31c0.52-1.54-0.74-2.5-1.57-3.45c-1.23-1.41-2.95-1.3-4.65-1.02
			c-5.11,0.85-10.26,0.87-15.43,0.94c-7.66,0.1-15.21-1.55-22.91-0.9c-6.46,0.55-12.96,0.69-19.45,0.94
			c-1.98,0.07-4.34,0.45-5.72-1.12c-1.94-2.2-4.16-1.66-6.42-1.49c-7.14,0.53-14.12,2.25-21.2,3.1c-9.41,1.12-18.92,1.62-28.33-0.41
			c-0.95-0.21-2.32-0.25-2.38-1.4c-0.06-1.28,1.18-2.02,2.35-2.16c1.81-0.22,3.66-0.29,5.48-0.17c5.84,0.38,11.7,0.41,17.47-0.38
			c12.22-1.67,24.44-2.63,36.79-2.8c7.65-0.11,15.66-0.4,21.59-5.94c-9.19,0-18.87-1.25-28.09,0.28c-15.64,2.6-31.3,4.17-47.09,4.25
			C711.13,1153.68,704.29,1155.09,696.86,1154.93z M833.69,734.59c-2.54,2.62-1.72,7.71-5.3,7.28c-3.96-0.47-5.71-4.58-6.97-8.31
			c-1.61-4.78,0.55-11.1,4.88-11.88c4.04-0.72,3.18-2.83,2.63-5.19c-1.99-8.59-4.59-16.98-8.42-25.38c-1.89,2.93-3.65,5.7-5.46,8.45
			c-1.13,1.72-0.59,2.97,0.79,4.31c4.04,3.93,6.03,17.11,2.98,24.23c-1.55-7.43-9-6.3-12.35-11.9c-1.49,7.21,0.29,13,1.68,20.12
			c1-3.09,1.59-4.93,2.52-7.81c1.1,2.52,1.81,4.48,4.3,4.43c1.35-0.02,1.94,1.35,1.78,2.57c-0.4,3.12,0.08,6.26-0.11,9.29
			c-0.15,2.34,0.26,6.45-4.24,6.69c-0.26,0.01-0.77,0.79-0.69,1.06c1.68,5.67,1.43,11.83,3.86,18.1c3.69-7.59,3.69-7.59,10.58-2.22
			c-2.35-4.23-4.15-7.27-5.76-10.4c-1.75-3.4,1.7-11.58,5.46-12.13c2.72-0.4,7.37-1.58,7.29,3.03c-0.11,6.34,1.71,12.88-1.08,19.08
			c-0.5,1.11-0.46,3.1-2.32,2.53c-2.58-0.79-2.26,0.93-2.54,2.34c-0.69,3.43-0.06,6.95-0.95,10.41c-0.97,3.76-2.53,3.69-5.2,1.62
			c-2.27-1.76-3.09-4.46-4.9-6.6c1.73,4.9,0.27,10.22,2.07,14.82c7.2-0.93,10.12-5.63,11.51-12.1c0.83-3.88,2.19-7.72,3.86-11.32
			C838.94,758.16,836.43,746.68,833.69,734.59z M921.33,1132.36c-6.97-1.86-13.42-2.64-19.69,1.79c-3.54,2.5-7.72,4.53-12.59,3.45
			c-1.38-0.31-2.96,0.25-4.44,0.43c-1.15,0.14-1.75,0.74-1.76,1.96c-0.01,2.83,2.4,3.8,4.06,5.32c0.6,0.54,1.52,0.2,1.6-0.43
			c0.64-4.98,5.07-4.43,8.21-5.84c2.7-1.22,5.31-0.65,6.73,1.45c1.63,2.42,0.71,5.5-0.23,8.16c-0.92,2.62-3.61,3.29-5.77,4.41
			c-0.74,0.38-1.42-0.67-1.87-1.37c-1.81-2.8-7.42-4.24-9.94-2.03c-2.48,2.17-5.16,2.81-8.21,2.94c-0.94,0.04-2.22-0.36-2.66,0.78
			c-0.53,1.37,0.85,2.08,1.61,2.81c3.97,3.84,6.7,3.96,11.6,0.59c2.58-1.77,5.39-3.21,8.35-1.74c3.06,1.51,2.56,4.71,2.37,7.55
			c-0.02,0.33-0.02,0.67-0.08,0.99c-0.66,3.58,1.09,3.77,3.52,2.3c4.9-2.96,10.04-5.06,15.75-5.87c3.95-0.56,7.83-1.55,11.38-3.52
			c1.19-0.66,2.59-1.01,1.38-2.85c-2.11-3.2-7.26-4.46-10.38-2.39c-1.65,1.1-3.21,1.55-5.04,0.32c-1.55-1.04-3.27-1.86-2.52-4.22
			c0.66-2.04-0.3-2.97-2.15-3.72c-3.65-1.5-2.63-3.32-0.36-5.51C913.36,1135.06,916.68,1132.58,921.33,1132.36z M852.34,1024.91
			c-8.7,13.2-17.07,26.07-27.53,37.71c3.73,2.33,6.58,2.59,9.94-0.57c4.05-3.8,8.82-6.82,14.11-10.8
			c-1.49,6.11-5.43,9.31-8.35,13.18c-0.64,0.84-2.53,1.87-0.42,3.11c1.46,0.86,2.93,2.49,4.76,0.4c0.8-0.91,0.88-2.52,2.82-2.77
			c-0.64,1.86-1.41,3.49-1.73,5.22c-0.32,1.74,0.85,2.82,2.48,3.19c2.34,0.53,1.78-1.37,1.85-2.51c0.27-4.46,0.44-8.93,0.64-13.4
			C851.39,1046.74,851.86,1035.83,852.34,1024.91z M811.26,1185.39c7.24,1.61,13.21,1.91,19.2,1.87c1.58-0.01,3.52,1.07,4.7-0.6
			c1.13-1.59,0.61-3.54-0.49-5.71c6.2,3.07,8.42,14.01,4.4,20.01c-1.15,1.71-1.59,3.6-2.62,5.29c-1.45,2.39-0.1,2.91,2.04,2.76
			c4-0.29,7.45-3.72,7.85-8.34c0.46-5.44,0.49-10.91,0.82-16.36c0.17-2.91-1.4-4.41-3.63-5.96c-4.16-2.9-8.39-1.11-12.55-0.62
			c-8.67,1.01-17.31,2.31-25.97,3.48c8.59,2.52,17.25,0.06,25.8,2.09C824.78,1183.95,818.75,1184.59,811.26,1185.39z
			 M1169.71,851.53c-0.9,0.85-1.44,1.21-1.77,1.71c-9.61,14.34-20.46,27.7-31.89,40.61c-1.56,1.77-1.81,3.49-0.79,6.05
			c9.49-12.55,20.1-23.3,30.46-34.24C1169.62,861.53,1171.03,857.57,1169.71,851.53z M802.79,1185.64
			c-7.33-1.77-57.47,1.35-66.39,4.14C743.86,1190.6,799.22,1187.15,802.79,1185.64z M926.15,1147.85c2.22-0.75,4.22-1.35,6.16-2.08
			c5.95-2.25,6.09-2.6,4.05-8.48c-0.21-0.62-0.23-1.3-0.34-1.95c-0.26-1.66-0.95-2.75-2.92-2.55c-1.72,0.17-3.16,0.3-3.65,2.5
			C928.52,1139.42,927.31,1143.5,926.15,1147.85z M1011.16,852.5c-1.23-2.76-1.68-5.46-1.64-8.34c0.03-2.57-2.16-5.59-4-4.17
			c-2.47,1.91-6.11,4.86-5.74,8.1c0.34,3,4.52,3.78,7.61,4.47C1008.49,852.81,1009.58,853.38,1011.16,852.5z M1135.5,887.11
			c6.99-9.06,13.54-17.55,20.32-26.34c-2.83-0.75-3.99,0.63-4.78,1.98c-3.24,5.53-7.91,9.8-12.54,14.01
			C1135.43,879.55,1134.33,882.47,1135.5,887.11z M688.8,1165.74c-0.74-9.33-1.88-18.42-1.33-27.6c0.08-1.26-0.15-3.77-2.27-3.8
			c-1.92-0.03-2.65,1.97-2.81,3.6c-0.18,1.78,0.01,3.66,0.38,5.42c1.19,5.66,2.46,11.31,3.89,16.92
			C687.11,1162.06,686.19,1164.4,688.8,1165.74z M1116.49,670.28c-2.33,0.22-4.27,0.36-5.78,1.81c-1.25,1.2-4.69,1.09-3.92,3.04
			c1.89,4.76-1.06,9.13-0.49,14.6C1109.92,682.81,1113.11,676.73,1116.49,670.28z M1043.7,851.86c-1.8,2.63-3.56,4.79-6.84,6.03
			c-4.47,1.69-4.3,4-0.22,6.58c1.72,1.08,3.33,2.33,5.39,3.78C1042.46,862.49,1042.4,857.21,1043.7,851.86z M1117.83,1187.47
			c-1.45-2.2-3.51-3.32-3.06-6.23c0.49-3.15-2.52-2.21-4.25-2.45c-2.46-0.34-2,1.4-1.92,2.9
			C1109.01,1189.54,1110.05,1190.25,1117.83,1187.47z M1147.54,1152.39c-1.41-0.16-1.93,0.81-2.01,2.09
			c-0.12,1.83,1.2,1.66,2.35,1.49c2.15-0.31,4.96-0.98,6.12,0.68c2.17,3.11,4.48,1.85,7.02,1.4c1.13-0.2,2.48,0.14,2.22-1.71
			c-0.17-1.19-0.65-2.66-1.93-2.48C1156.6,1154.5,1152.15,1153.41,1147.54,1152.39z M876.1,1134.87
			c-4.62-3.17-6.72-7.73-11.39-11.74c1.43,6.24,2.53,11.04,3.79,16.52C870.24,1137.12,872.61,1136.07,876.1,1134.87z
			 M748.98,1147.18c-11.56,2.09-23.58-1.59-35.09,2.44C725.67,1150.68,737.27,1148.69,748.98,1147.18z M801.56,1148.41
			c10.04,0.19,20.04,0.7,30.05,1.11c2.32,0.09,0.89-1.65,1.29-2.44c0.81-1.6-0.56-1.43-1.51-1.3c-3.43,0.47-6.89,0.79-10.27,1.52
			C814.65,1148.7,808.09,1147.72,801.56,1148.41z M1182.56,683.52c-5.09,8.85,3.84,14.25,3.56,21.5
			C1185.68,697.97,1185.31,690.92,1182.56,683.52z M1090.52,729.08c5.99-4.56,13.34-13.51,13.38-16.55
			C1100.64,718.56,1090.85,719.23,1090.52,729.08z M1096.52,687.65c2.35-3.15,4.58-6.28,5.68-10.28
			C1095.32,678.27,1096.13,683.13,1096.52,687.65z M1031.45,703.27c2.33-1.17,2.52-3.83,3.18-6.01c0.38-1.23-1.15-1.38-2.1-1.22
			c-2.89,0.49-4.04,2.85-4.43,5.23C1027.85,702.77,1029.92,702.77,1031.45,703.27z M1044.68,693.49c-4.92,2.77-5.91,7.39-8.57,10.59
			c-0.06,0.07,0.5,0.92,0.78,0.93c0.6,0.02,1.59-0.09,1.76-0.46C1040.3,701.11,1043.7,698.62,1044.68,693.49z M800.6,1147.02
			c-6.47-3.66-11.72-1.43-16.99,0C788.84,1147.02,794.07,1147.02,800.6,1147.02z M1072.27,696.42c0.48,0.24,0.96,0.48,1.43,0.72
			c1.86-3.73,3.73-7.47,6.2-12.43C1073.12,687.51,1075.29,693.27,1072.27,696.42z M1085.46,690.78c2.16-2.63,4.2-5.39,5.03-9.22
			C1085.13,682.96,1085.59,687,1085.46,690.78z M1047.5,695.6c2.77-1.03,5.82,0.07,7.58-2.93c0.36-0.61,0.1-1.53-0.64-1.54
			c-2.69-0.05-5.29,0.33-6.93,2.89C1047.44,694.13,1047.5,694.34,1047.5,695.6z M818.67,798.81c0.7,3.8,1.11,6.61,2.67,9.42
			C823.38,802.32,823.38,802.32,818.67,798.81z M1168.73,668.92c-1.02,0.06-2.27-0.18-2.08,1.39c0.18,1.47,0.52,3.25,2.3,3.33
			c1.47,0.07,2.21-1.52,2.42-2.77C1171.72,668.77,1169.81,669.27,1168.73,668.92z"/>
		<path d="M943.45,427c10.35,0.4,18.35,1.77,25.59,5.1c24.27,11.16,31.7,42.55,15.74,63.93c-8.54,11.45-20.2,16.96-33.63,20.47
			c-11.16,2.92-18.72-3.53-27.55-7.78c-14.61-7.03-19.44-29.09-15.46-45.83c2.95-12.41,9.43-22.26,19.49-29.89
			C932.97,428.95,938.88,426.56,943.45,427z M912.7,470.61c0.11,2.32-0.13,4.71,0.38,6.94c3.06,13.3,15.68,24.02,29.6,25.76
			c6.21,0.77,11.88-0.97,17.56-2.82c25.19-8.2,29.03-32.64,13.46-53.01c-6.46-8.44-17.24-10.16-27.24-11.79
			c-12.32-2.01-27.34,7.73-30.95,19.75C914.03,460.35,912.37,465.31,912.7,470.61z"/>
		<path d="M1152.81,474.95c-0.2,18.7-15.53,35.57-31.45,39.3c-22.03,5.15-43.82-4.99-53.26-25.78c-0.28-0.61-0.6-1.19-0.83-1.81
			c-3.98-10.77,3.81-34.54,13.13-41.33c9.94-7.24,20.66-12.59,33.09-12.15c10.58,0.38,19.86,4.61,26.66,13.35
			c2.85,3.67,5.84,7.18,8.18,11.25C1151.45,463.23,1154,468.7,1152.81,474.95z M1074.67,473.4c0.15,2.39,0.55,4.64,1.35,6.88
			c2.08,5.81,7.12,8.82,11.23,12.87c6.51,6.42,14.5,10.19,22.76,11.06c17.98,1.9,33.29-8.17,37.42-28.26
			c0.82-3.98-0.31-7.51-2.07-11.04c-2.8-5.57-7.83-8.93-12.21-12.97c-10.5-9.68-22.68-11.98-36.05-7.76
			c-8.81,2.78-17.58,6.13-20.28,16.45C1075.72,464.8,1075.36,469.15,1074.67,473.4z"/>
		<path d="M1026.11,355.47c-7.9-3.79-16.89-7.36-22.9-15.49c-0.59-0.8-0.7-1.53,0.15-2.12c1.59-1.11,2.96-2.54,5.36-1.57
			c5.5,2.24,11.17,4.07,16.64,6.37c2.71,1.14,4.9,0.92,7.57-0.25c6.88-3.04,13.07-7.31,19.79-10.61
			c10.72-5.27,18.93-2.55,23.95,8.07c2.15,4.55,5,8.68,8.01,12.6c2.83,3.68,7.59,3.66,11.91,3.95c1.49,0.1,2.99-0.13,4.49-0.18
			c2.49-0.09,3.26,1.26,1.67,2.99c-5.62,6.1-13.55,10.06-19.96,1c-4.88-6.89-9.39-14.11-11.69-22.46
			c-1.63-5.89-4.52-7.28-10.38-5.22c-10.84,3.79-18.77,11.76-27.11,19.13C1031.65,353.38,1030.17,355.9,1026.11,355.47z"/>
		<path d="M998.66,340.44c-5.16,5.35-10.21,11.03-15.76,16.17c-4.06,3.76-7.75,7.65-10.65,12.4c-3.37,5.53-6.79,5.37-9.65-0.43
			c-3-6.08-3.9-12.66-3.7-19.41c0.04-1.38,1.1-3.23-0.84-3.94c-1.74-0.63-2.58,1.16-3.54,2.22c-10.89,12.08-22.58,23.5-30.73,37.81
			c-0.33,0.57-0.73,1.11-1.25,1.89c-1.95-2.24-1.18-4.17-0.76-6c1.98-8.74,5.59-16.66,11.57-23.46
			c6.97-7.92,14.57-15.04,23.96-20.06c3.15-1.68,4.42-1.99,4.52,2.63c0.13,6.29,2,12.41,4.8,18.17c1.56,3.21,3.1,3.03,5.74,1.09
			c7.24-5.31,14.62-10.42,21.46-16.26C995.32,342.01,996.84,340.69,998.66,340.44z"/>
		<path d="M1007.94,522.52c-0.96-3.54,1.14-5.78,4.17-7.79c10.38-6.89,24.46-5.71,32.39,2.61c2.23,2.33,2.59,4.5,0.93,6.99
			c-4.97,7.45-10.04,14.83-15.08,22.23c-1.1,1.62-2.38,2.65-4.58,1.9C1019.75,546.4,1007.96,529.58,1007.94,522.52z M1042.24,520.12
			c0.34-1.4-0.39-1.57-0.95-1.91c-7.12-4.34-18.91-5.26-26.81,0.85c-2.24,1.73-1.29,3.36,0.11,4.54c3.83,3.2,6.78,7.17,10.01,10.89
			c1.96,2.26,3.36,2.04,5.1-0.25c3.42-4.5,7.13-8.77,11.32-12.59C1041.62,521.1,1042.04,520.38,1042.24,520.12z"/>
		<path d="M884.62,646.16c-0.8-3.48-2.75-6.37-4.79-9.21c-1.35-1.88-2.4-3.78-2.53-6.29c-0.21-3.97,0.98-5.2,4.5-2.96
			c1.43,0.91,2.51,0.89,4.1,0.24c5.83-2.37,8.42-0.39,7.72,6.05c-0.25,2.3-0.42,3.65,1.87,5.27c2.61,1.83,0.43,4.55-0.47,6.72
			c-0.92,2.22-2.67,3.34-5.21,2.61c-1.27-0.37-2.54-0.72-3.81-1.07C885.53,647.07,885.08,646.61,884.62,646.16z"/>
		<path d="M923.62,682.34c-0.16-0.47-0.27-0.97-0.5-1.4c-2.81-5.13-1.53-8.66,3.86-11.08c1.39-0.62,1.96-0.31,2.76,0.87
			c3.32,4.85,1,12.43-4.61,14.74C924.63,684.42,924.13,683.38,923.62,682.34z"/>
		<path d="M935.1,944.05c1.38-4.19-0.23-8.2-0.8-12.25c-1.96-14.17-4.03-28.32-6.06-42.48c-0.09-0.59-0.31-1.17-0.67-2.45
			c-7.15,12.73-12.55,25.82-22.73,36.83c-1.64-6.75,1.05-11.5,3.74-16.18c4.34-7.53,10.04-14.08,15.48-20.8
			c3.47-4.28,3.47-4.45,0.81-10.74c-4.9,9.32-9.53,18.41-18.33,25.1c-0.63-5.71,2.94-9.15,5.09-13c2.01-3.59,4.39-7.31,7.52-9.85
			c5.47-4.45,6.19-9.33,3.12-15.73c-4.73,9.24-9.26,18.44-18.19,25.7c-0.03-6.28,3.16-9.89,5.45-13.8c1.93-3.29,4.27-6.35,6.45-9.49
			c6.76-9.75,6.1-5.89,3.63-20.31c-5.59,9.33-9.91,18.94-17.13,26.65c0.16-4.38,2.77-7.74,4.59-11.32
			c3.16-6.2,6.19-12.52,10.34-18.18c1.1-1.5,1.84-3.15,1.67-5.1c-1.11-12.93-2.2-25.87-3.33-38.8c-0.07-0.78-0.44-1.53-0.84-2.88
			c-4.85,6.24-6.38,13.96-12.56,19.67c-0.33-6.07,3.15-10.2,4.36-14.95c0.16-0.64,0.43-1.29,0.81-1.82
			c9.2-12.82,7.01-27.41,6.48-41.73c-0.2-5.3-0.7-10.6-1.17-17.37c2.7,5.21,2.38,9.58,2.7,13.62c1.72,22.22,5.71,44.11,8.63,66.16
			c2.99,22.6,9.05,44.6,12.05,67.14c2.54,19.11,4.36,38.32,5.1,57.61c0.3,7.75-1.15,15.11-4.39,22.3
			c-6,13.32-11.16,27.01-15.73,40.87c-4.34,13.16-5.73,26.91-6.93,40.66c-1.26,14.39-4.15,28.6-4.85,43.05
			c-0.23,4.65-0.36,9.32-0.67,13.96c-0.12,1.77-0.32,4.3-2.51,4.21c-2.03-0.09-3.5-1.35-3.8-4.36c-1.53-15.25,0.43-30.19,2.74-45.18
			c2.7-17.57,4.25-35.32,9.87-52.36c4.7-14.24,11.53-27.59,16.91-41.54c1.99-5.15,4.05-10.22,4.17-15.82
			c0.04-1.79,0.42-3.71-1.16-5.16L935.1,944.05z"/>
		<path d="M857.14,833.6c5.09-7.74,1.61-15.11,0.71-22.58c-1.89-15.7-1.31-31.49-0.73-47.35c6.67,10.57,5.09,22.98,7.82,34.48
			c1.91-4.03,3.29-7.93,2.58-12.55c-1.7-11.05-1.62-22.24-2.15-33.38c-0.16-3.48-2.18-7.03,0.18-11.22
			c2.34,3.97,2.75,7.95,3.47,11.74c0.93,4.9,1.22,9.91,2,14.84c0.2,1.23-1.32,4.63,2.65,2.89c0.85-0.37,0.44,0.94,0.41,1.48
			c-0.41,8.14,0.31,16.55-1.5,24.37c-5.2,22.51-9.15,45.37-17.55,67.08c-8.43,21.8-15.44,44.1-23.06,66.19
			c-1.84,5.33-4.07,10.52-7,15.56c2.16-9.86,4.31-19.72,6.48-29.57c0.07-0.32,0.24-0.62,0.36-0.93c2.29-5.97,1.78-11.26-1.11-17.39
			c-5.47-11.58-6.88-24.26-5.87-37.1c0.14-1.74-0.04-3.66,2.01-5.4c4.15,12.84,5.55,26.15,10.44,39.24
			c2.47-4.41,3.58-7.84,1.73-12.44c-6.25-15.57-6.53-32.05-6.57-48.55c4.57,14.24,7.17,28.95,10.03,43.59
			c0.43-0.03,0.86-0.07,1.29-0.1c1.5-4.35,3-8.7,4.49-13.06c0.61-1.8-0.48-3.14-1.19-4.65c-6.48-13.81-8.48-28.51-8.76-44.37
			c4.57,3.45,3.97,8.37,5.48,12.26c1.55,4.01,2.31,8.33,3.47,12.5c1.19,4.28,2.45,8.55,3.91,13.62c2.71-4.75,3.55-8.56,1.96-13.26
			c-4.61-13.64-7-27.65-5.6-42.11c0.44-0.11,0.88-0.21,1.33-0.32C851.56,809.11,854.29,821.11,857.14,833.6z"/>
		<path d="M874.14,729.6c-0.67-5.97-1.25-11.16-1.83-16.42c0.77,0.05,1.22-0.06,1.38,0.11c5.75,6.14,9.03,13.45,8.95,21.83
			c-0.06,5.69-1.24,6.17-6.35,4.2c0.85,5.55,1.71,11.09,2.51,16.63c0.14,0.98,0.1,1.99,0.02,2.99c-0.14,1.84-0.33,4.35-2.14,4.65
			c-2.51,0.41-2.89-2.37-3.31-4.17c-2.37-10.18-4.28-20.44-5.25-30.86c-0.09-0.99-0.13-2,0.01-2.98c0.15-1.1,0.19-2.55,1.72-2.6
			c1.18-0.04,1.39,1.26,1.82,2.1C872.31,726.34,872.12,728,874.14,729.6z"/>
		<path d="M819.45,1026.49c-0.5-6.36,2.5-10.41,5.34-14.45c9.01-12.8,19.63-24.32,29.28-36.61c0.97-1.23,1.82-1.93,3.29-1.18
			c1.58,0.8,1.18,2.05,0.79,3.43c-2.15,7.61-7.25,13.41-12.02,19.35c-6.35,7.9-12.97,15.59-19.62,23.25
			C824.69,1022.36,822.34,1023.98,819.45,1026.49z"/>
		<path d="M842.82,961.31c-2.02-1.81-1.99-3.84-0.72-5.76c2.37-3.59,4.94-7.06,7.45-10.56c5.72-7.95,11.45-15.89,17.19-23.83
			c0.66-0.9,1.31-2.29,2.7-1.49c1.02,0.58,0.57,1.89,0.23,2.75c-5.68,14.16-13.14,27.16-24.58,37.54
			C844.49,960.51,843.68,960.81,842.82,961.31z"/>
		<path d="M934.98,943.93c-2.23,6.06-6.48,10.8-10.53,15.6c-7.29,8.62-14.87,17-22.28,25.52c-2.43,2.79-5.53,4.61-8.41,6.86
			c-1.22-1.69,0.03-2.61,0.59-3.34c11.95-15.32,23.3-31.18,38.53-43.59c0.59-0.48,1.47-0.63,2.21-0.93
			C935.1,944.05,934.98,943.93,934.98,943.93z"/>
		<path d="M921.23,972.47c-9.86,18.64-26.89,38.47-35,40.37C896.16,996.89,909.29,985.15,921.23,972.47z"/>
		<path d="M863.72,947.3c-2.88,8.95-8.79,15.38-14.32,21.94c-6.23,7.39-11.87,15.17-17.32,23.12c-0.28,0.41-0.44,0.91-0.74,1.3
			c-1.3,1.69-3.07,4.57-4.85,3.32c-2.51-1.75,0.62-3.55,1.61-5.23c9.15-15.57,22.53-27.9,32.74-42.66
			C861.39,948.3,861.99,947.44,863.72,947.3z"/>
		<path d="M809.89,1052.38c13.65-15.7,26.88-31.69,40.33-47.48C840.87,1024.26,826.23,1039.1,809.89,1052.38z"/>
		<path d="M902.4,943.76c0.11-5.07,2.1-8.04,3.81-11.18c5.02-9.2,11.27-17.57,17.51-25.94c0.57-0.76,1-1.94,2.19-1.63
			c0.99,0.26,0.95,1.33,0.64,2.09C921.04,920.53,913.31,932.49,902.4,943.76z"/>
		<path d="M898.93,964.13c7.18-14.86,17.61-27.2,29.83-38.13C921.21,940.55,911.24,953.23,898.93,964.13z"/>
		<path d="M819.79,882.08c5.22,8.64,7.95,16.93,10.94,25.1c0.11,0.3,0.08,0.66,0.11,0.99c0.27,2.47,0.78,5.98-1.72,6.54
			c-2.84,0.62-3.49-2.89-4.07-5.28C822.96,900.82,820.09,892.35,819.79,882.08z"/>
		<path d="M901.06,1056.28c-4.35,9.74-8.42,18.49-15.02,25.79c-0.44,0.49-0.92,0.97-1.46,1.33c-1.29,0.88-2.75,2.83-4.18,1.58
			c-1.67-1.46-0.98-3.74,0.37-5.4c3.55-4.34,7.04-8.75,10.84-12.86C894.56,1063.51,896.53,1059.41,901.06,1056.28z"/>
		<path d="M910.52,1000.21c-5.78,10.38-13,19.66-21.62,28.74C888.84,1020.87,895.79,1011.72,910.52,1000.21z"/>
		<path d="M897.39,1076.07c-2.91,6.07-5.58,12.28-8.88,18.14c-1.12,2-3.51,5.39-6.13,3.62c-2.95-1.99-0.7-4.99,1.02-7.3
			C887.36,1085.21,891.77,1080.28,897.39,1076.07z"/>
		<path d="M903.4,1039.05c-4.67,9.69-11.67,16.94-18.64,24.19c-0.66,0.68-1.82,1.96-2.96,0.69c-0.97-1.08,0.07-2.18,0.6-3.16
			c1.92-3.55,4.71-6.41,7.57-9.18C894.25,1047.45,898.68,1043.45,903.4,1039.05z"/>
		<path d="M816.25,926.56c1.45,8.59,3.2,17.12,5.26,26.18C815.16,949.65,812.9,938.44,816.25,926.56z"/>
		<path d="M903.59,1024.3c-3.78,6.6-7.41,13.3-12.58,18.97c-0.88,0.96-1.88,3.01-3.47,1.82c-1.36-1.02,0.16-2.47,0.89-3.41
			c4.69-6.11,9.48-12.14,14.24-18.2C902.98,1023.75,903.29,1024.03,903.59,1024.3z"/>
		<path d="M862.83,661.23c-0.69,1.52-0.52,4.33-2.95,4.37c-2.11,0.04-2.22-2.42-2.7-4.17c-0.62-2.23-1.43-4.41-2.3-6.56
			c-0.98-2.44,0.5-2.6,2.16-2.34C859.1,652.85,863.13,658.87,862.83,661.23z"/>
		<path d="M874.47,693.12c0.54,5.68,3.93,9.53,5.17,14.25c0.48,1.81,1.06,4.18-0.92,4.79c-2.68,0.83-2.23-2.17-2.74-3.61
			c-1.14-3.17-0.94-6.7-3.49-9.52C871.07,697.48,871.89,695.3,874.47,693.12z"/>
		<path d="M896.48,1089.92c-1.72,4.23-3.45,8.52-6.39,12.13c-0.72,0.89-1.9,2.39-3.25,1.38c-1.47-1.1-0.15-2.47,0.57-3.43
			c2.68-3.55,5.49-7.01,8.27-10.49c0.07-0.09,0.34-0.11,0.47-0.06C896.28,1089.52,896.34,1089.72,896.48,1089.92z"/>
		<path d="M817.83,910.08c3.84,4.96,6.18,14.46,4.6,18.71C818.83,922.73,819.33,916.15,817.83,910.08z"/>
		<path d="M909.39,770.12c-0.74,6.26-3.68,11.66-6.7,17.03C903.03,780.73,906.62,775.58,909.39,770.12z"/>
		<path d="M914.64,818.79c-1.93,6.6-5.59,11.66-8.57,17.38C905.65,832.7,910.14,823.6,914.64,818.79z"/>
		<path d="M1040.8,1120.04c-4.54-10.07-8.49-19.14-12.71-28.07c-4.25-9.01-11.19-16.23-17.64-24.17c4.28-1.44,6.8,0.54,8.83,2.55
			c11.64,11.55,19.01,25.49,22.36,41.53C1042.11,1114.09,1042.15,1116.43,1040.8,1120.04z"/>
		<path d="M1046.97,1097.89c-5.15-15.09-16.54-26.37-24.31-40.48C1032.72,1060.25,1048.7,1086.89,1046.97,1097.89z"/>
		<path d="M1048.2,1074.07c-5.55-7.81-11.16-15.59-16.61-23.47c-0.85-1.23-2.41-3.28-0.91-4.41c1.61-1.2,2.69,1.07,3.74,2.19
			C1041.22,1055.6,1045.6,1064.2,1048.2,1074.07z"/>
		<path d="M1047.94,1051.49c-5.84-4.32-9.97-9.75-12.52-16.31c-0.42-1.08-0.64-2.52,0.9-2.88c1.43-0.33,2.53,0.63,3.15,1.89
			C1042.31,1039.95,1045.12,1045.72,1047.94,1051.49z"/>
		<path d="M1084.18,900.85c-8.34,2.72-15-1-21.51-5.34C1070,896.65,1077.4,897.48,1084.18,900.85z"/>
		<path d="M1093.93,1021.52c-0.79,6.6-3.45,11.27-6.85,15.63c-0.58,0.74-1.38,1.06-2.11,0.35c-1.22-1.17-1.39-2.57-0.52-4.06
			C1086.85,1029.32,1089.38,1025.29,1093.93,1021.52z"/>
		<path d="M1064.97,917.7c5.7,0.98,10.25,3.75,13.95,7.93c1.42,1.6,0.32,2.5-1.32,2.37c-2.69-0.2-4.84-1.31-6.67-3.6
			C1069.11,922.12,1068.77,918.41,1064.97,917.7z"/>
		<path d="M1082.91,914.5c-8.05,1.33-12.4-2.71-17.65-7.65C1071.89,908.58,1077.49,909.71,1082.91,914.5z"/>
		<path d="M1091.96,1003.71c-1.14,5.29-4.23,8-6.14,11.35c-0.5,0.88-1.49,1.55-2.47,0.75c-0.89-0.73-0.64-1.86-0.07-2.73
			C1085.41,1009.82,1087.96,1006.93,1091.96,1003.71z"/>
		<path d="M1092.19,1044.95c-1.27,3.23-1.51,7.03-4.84,9.2C1087.73,1050.48,1090.26,1047.85,1092.19,1044.95z"/>
		<path d="M1162.77,727.41c-0.98,0.66-1.45,0.87-1.77,1.21c-1.45,1.55-3.1,4.26-4.98,3.33c-2.26-1.12-1.14-4.3-0.57-6.34
			c1.57-5.59,4.04-10.86,7.04-15.85c0.53-0.89,1.28-1.77,2.33-1.53c1.27,0.29,0.82,1.6,0.94,2.52c0.41,3.16-0.35,6.24-0.96,9.9
			c5.68-1.98,5.52,1.47,5.45,5.22c-0.09,4.92-0.04,9.72-5.79,11.85c-1.08,0.4-2.06,1.26-3.21,0.4c-1.08-0.81-1.04-2.13-0.77-3.21
			C1161.05,732.56,1161.87,730.28,1162.77,727.41z"/>
		<path d="M1136.44,716.82c-0.26-2.18-0.28-4.23,0.35-6.32c2.81-9.22,7.74-17.22,13.95-24.51c1.02-1.19,2.41-2.45,3.8-1.79
			c1.71,0.81,0.77,2.65,0.32,4c-2.96,8.88-7,17.23-12.74,24.65C1140.77,714.6,1139.39,716.7,1136.44,716.82z"/>
		<path d="M1140.88,838.69c1.81-4.09,5.15-5.94,7.63-8.56c8-8.43,13.78-18.23,18.64-28.7c0.53-1.14,0.3-4.15,2.77-3.13
			c1.73,0.71,1.02,3.01,0.64,4.55c-2.85,11.23-8.56,20.82-17.18,28.54C1149.9,834.5,1146.71,838.35,1140.88,838.69z"/>
		<path d="M1151.05,674.04c-3.6,14.73-11.42,27.09-21.49,38.18c-0.51,0.56-1.37,0.81-2.54,1.48c-0.18-2.91,0.88-5.01,2.04-6.84
			c6.33-9.96,11.43-20.67,18.37-30.26c0.93-1.29,1.49-3.18,3.75-2.42C1151.18,674.17,1151.05,674.04,1151.05,674.04z"/>
		<path d="M1144.94,727.67c1.62-13.4,8.51-24.08,14.75-35.57C1162.33,701.56,1153.02,724.2,1144.94,727.67z"/>
		<path d="M1092.96,749.28c2.28-7.15,7.65-12.23,11.36-18.38c0.34-0.56,0.84-1.01,1.25-1.53c0.94-1.21,1.08-3.98,3.01-3.26
			c2.26,0.85,0.86,3.28,0.26,4.77C1105.65,738.77,1101.47,745.89,1092.96,749.28z"/>
		<path d="M1153.3,807.94c-3.31,7.17-6.7,13.72-11.27,19.54c-1.06,1.35-3.26,3.85-5.39,1.5c-1.73-1.9-0.39-4.07,1.26-5.69
			c4.5-4.43,8.72-9.08,12.16-14.41C1150.56,808.1,1151.29,807.84,1153.3,807.94z"/>
		<path d="M1070.92,872.3c-0.07-2.47,1.22-3.93,2.16-5.4c3.95-6.14,8.42-11.89,13.62-17.2
			C1087.16,856.7,1078.39,869.39,1070.92,872.3z"/>
		<path d="M1102.73,778.97c-1.1,5.82-4.64,10.1-8.22,14.33c-0.79,0.93-2.23,2.15-3.37,1.16c-1.23-1.07-0.02-2.49,0.81-3.44
			C1095.5,786.96,1099.13,782.98,1102.73,778.97z"/>
		<path d="M1165.45,752.97c-0.89-6.06,1.9-10.3,3.76-14.75c0.18-0.42,1.07-0.76,1.63-0.75c0.84,0.01,0.94,0.87,0.91,1.51
			C1171.53,744.19,1170.2,748.91,1165.45,752.97z"/>
		<path d="M1102.17,791.25c-2.42,5.37-5.54,8.38-8.62,11.4c-0.84,0.82-1.99,2.37-3.32,1.01c-0.96-0.98,0.14-2.2,0.82-3.09
			C1093.78,796.98,1097.36,794.39,1102.17,791.25z"/>
		<path d="M1071.12,851.65c-1.99,4.43-2.19,9.93-8.01,13.91C1064.19,859.03,1068.05,855.56,1071.12,851.65z"/>
		<path d="M1036.37,1163.18c2.74,0.83,5.88,1.84,9.05,2.7c1.89,0.52,3.84,0.88,5.78,1.16c2.06,0.3,3.94,0.67,4.43,3.14
			c0.46,2.36-0.21,4.28-2.19,5.63c-1.09,0.74-2.3,1.77-3.48,1.81c-5,0.16-9.54,2.19-14.33,3.09c-4.04,0.77-5.16-0.71-4.1-4.88
			c0.25-1.01,0.72-2.06-0.32-2.67c-1.81-1.06-4.32-1.5-3.16-4.56C1029.13,1165.75,1032.7,1163.29,1036.37,1163.18z"/>
		<path d="M975.62,1136.04c-5.96-3.16-12.7-4.81-18.12-9.06c-1.92-1.51-0.89-3.18,0.73-3.96c2.12-1.03,2.63-2.36,2.74-4.66
			c0.15-3.1,2.34-4.21,5.33-3.23c1.04,0.34,1.68,1.77,3.08,1.13c3.87-1.76,4.8,1.01,5.23,3.73c0.4,2.59,1.24,4.48,3.34,6.28
			c2.11,1.81,3.47,4.46,1.83,7.61C978.85,1135.65,977.6,1136.29,975.62,1136.04z"/>
		<path d="M979.9,1103.66c0.08,2.97-0.22,5.93,0.19,8.93c0.34,2.43-1.14,4.22-3.58,2.94c-3.77-1.98-8.07-3.17-11.07-6.45
			c-2.62-2.87-3.04-5.02-0.12-8.82c2.94-3.83,8.3-4.71,10.03-9.55c0.32-0.9,1.64-1.73,2.97-1.31c1.35,0.43,1.55,1.66,1.56,2.83
			C979.93,1096.04,979.9,1099.85,979.9,1103.66z"/>
		<path d="M1013.16,981.74c-2.66-6.91-4.83-12.42-6.89-17.97c-0.56-1.5-0.41-2.92,1.44-3.66c1.66-0.66,2.3-2.27,3.16-3.69
			c2.61-4.32,4.19-4.39,6.55-0.09c0.78,1.42,1.65,1.23,2.83,1.13c3.47-0.3,4.79,1.44,3.31,4.47
			C1020.46,968.23,1017.05,974.37,1013.16,981.74z"/>
		<path d="M997.53,975.42c1.1,0.15,1.75,0.83,2.21,1.78c0.49,1.03,0.74,2.62,2.01,2.61c6.18-0.03,4.44,3.91,2.99,6.68
			c-2.35,4.49-2.91,9.42-4.46,14.09c-1.13,3.42-2.55,2.86-4.34,0.71c-4.27-5.13-4.55-11.52-5.5-17.68
			C990.32,982.88,996.97,975.41,997.53,975.42z"/>
		<path d="M1008.41,921.42c1.55,2.63,0.85,6.06,4.18,7.31c0.4,0.15,0.47,1.86,0.27,2.75c-0.55,2.4-0.97,4.94-2.12,7.06
			c-1.35,2.48-2.07,6.18-5.6,6.35c-3.27,0.16-3.35-3.55-4.9-5.5c-0.92-1.16-1.72-2.46-2.3-3.81c-0.63-1.44-2.32-2.84-1.22-4.53
			c1.07-1.63,2.68-1.34,4.39-0.5c1.89,0.92,2.16-0.88,2.57-2.05C1004.61,925.86,1005.42,923.16,1008.41,921.42z"/>
		<path d="M1001.84,889.49c1.75,2.29,3.43,3.14,6.02,2.31c2.43-0.78,4.05,0.18,3.22,3.05c-1.67,5.75-3.78,11.31-7.55,16.1
			c-1.9,2.41-3.35,1.38-3.67-0.83c-0.78-5.26-4.86-8.9-6.4-14.32C998.76,897.38,1001.24,895.02,1001.84,889.49z"/>
		<path d="M1014.22,1003.26c0.83,2.37,0.8,4.52,1.86,6.51c2.22,4.18-0.31,7.67-2.72,10.34c-2.51,2.77-4.42-0.45-4.82-2.4
			c-0.69-3.35-0.7-6.92-0.46-10.36C1008.34,1003.77,1013.03,1006.27,1014.22,1003.26z"/>
		<path d="M1141.01,629.44c-3.22-1.86-4.06-4.85-3.54-7.75c0.5-2.79,3.58-3.02,5.94-3.73c2.93-0.88,5.86-1.01,8.86-0.38
			c1.46,0.31,3.01,0.85,4.42,0.62c4.73-0.76,9.12-0.59,12.61,3.63c-0.46,1.75-2.48,2.87-3.77,4.42c0.83,2.08,4.86,1.58,3.79,4.56
			c-1.14,3.16-3.55,5.95-6.73,6.83c-2.81,0.78-5.82-0.14-7.56-3.31c-1.4-2.54-1.83-6.39-6.36-5.62c-1.44,0.25-2.99-0.25-3.49,1.85
			c-0.52,2.19,1.17,1.93,2.3,2.33c0.93,0.33,2.48,1.06,1.83,1.79c-2.75,3.13-0.97,5.53,0.27,8.57c0.93,2.27-5.48,5.39-8.29,3.44
			c-4.08-2.82-8.19-1.8-12.43-1.67c-1.59,0.05-3.89,2.23-4.66-1.36c-0.62-2.88-0.09-4.97,2.87-5.92
			C1132.22,636.11,1136.32,632.71,1141.01,629.44z"/>
		<path d="M992.63,671.59c1.08-5.11,3.78-9.8,3.63-15.25c-0.08-2.74,1.87-4.78,4.15-5.73c4.76-2,9.96-2.08,15.03-1.94
			c2.42,0.07,3.37,6.35,1.93,9.34c-2.16,4.49-6.99,5.38-10.42,8.13c-2.45,1.97-5.15,3.62-7.59,5.61c-2.44,2-4.63,2.37-6.82-0.27
			C992.52,671.46,992.63,671.59,992.63,671.59z"/>
		<path d="M1048.34,661.28c-0.12-4.74,7.11-10,12.81-9.05c3.09,0.51,7.04-0.3,9.08,1.45c3.45,2.95-2.37,4.5-2.38,7.25
			c-0.01,2.07-0.58,3.85-1.76,5.57c-3.94,5.71-5.35,6.41-11.95,4.13C1049.69,669.09,1049.49,664.56,1048.34,661.28z"/>
		<path d="M1041.88,637.81c-1.28-6.49,5.18-12.8,12.5-12.22c0.16,0.01,0.34,0.05,0.47,0.14c3.12,2.15,8.91-3.09,9.56,1.8
			c0.33,2.51-0.52,7.5-2.87,10.66c-1.38,1.85-2.86,3.7-5.16,4.51c-5.48,1.95-11.47-0.13-14.63-5.04L1041.88,637.81z"/>
		<path d="M1110.57,630.58c-1.97,0.56-2.65-1.43-3.14-3.42c-0.61-2.49-2.12-5.41,1.26-7.02c4.63-2.21,8.93-5.06,13.38-7.37
			c3.11-1.61,8.14,0.19,12.23,0.89c1.37,0.23,0.89,1.97,0.22,2.96C1128.96,624.8,1120.81,628.67,1110.57,630.58z"/>
		<path d="M1076.77,648.25c-2.24-0.44-4.28,0.33-6.28,1.12c-3.5,1.39-5.28-0.17-6.28-3.38c-0.99-3.19-0.24-5.42,3.13-6.64
			c3.38-1.23,6.57-3.01,10-4.03c2.32-0.69,5.32-3.42,7.13,1.34c0.3,0.79,3.7,0.46,5.67,0.55c1.47,0.07,2.23,0.43,1.53,2.09
			C1089.51,644.38,1082.81,648.42,1076.77,648.25z"/>
		<path d="M1112.67,633.67c1.8,0.07,4.22,0.42,5.34,2.33c1.08,1.83-1.39,2.61-2.27,3.88c-0.36,0.52-1.06,1.3-0.9,1.6
			c3.34,6.49-3.29,7.43-6.03,9.9c-2.76,2.49-12.78-2.94-13.59-6.75c-0.29-1.37-0.23-2.58,0.81-3.69
			C1097.57,639.28,1109.81,633.72,1112.67,633.67z"/>
		<path d="M1023.82,672.27c-0.05-4.83,3.68-9.35,8.24-8.87c3.3,0.35,6.11,0.07,8.97-1.39c1.03-0.52,2.3-0.77,3.27,0.16
			c1.06,1.02,0.63,2.18-0.21,3.07c-2.01,2.15,1.12,5.02-1.48,7.47c-2.45,2.31-4.21,5.02-8.14,4.53c-1.27-0.16-2.66,0.09-3.91,0.47
			C1024.96,679.39,1023.88,678.55,1023.82,672.27z"/>
		<path d="M1041.75,637.67c0.48,2.51-1.84,5.11,1.04,7.75c1.51,1.38-4.02,7.34-7.48,7.95c-1.29,0.23-2.84-0.14-3.89,0.45
			c-4.14,2.29-5.95-0.23-7.76-3.29c-1.91-3.22-1.6-5.9,1.37-8.3c1.15-0.93,2.04-2.17,3.11-3.2c2.45-2.33,2.59-2.37,4.03,0.86
			c0.74,1.64,1.48,0.74,2.19,0.31c2.32-1.41,5-1.63,7.52-2.37C1041.88,637.81,1041.75,637.67,1041.75,637.67z"/>
		<path d="M1173.43,604.08c-0.8,3.37-3.37,5.36-6.36,6.91c-2.6,1.35-3.94-0.49-5.33-2.23c-1.8-2.26-5.66-3.52-4.01-7.48
			c1.74-4.18,5.14-6.9,9.11-8.76c2.09-0.98,3.83-0.69,3.71,2.5C1170.44,598.29,1173.85,600.53,1173.43,604.08z"/>
		<path d="M1146.2,596.65c0.7,0.11,1.72,0.17,2.66,0.46c1.17,0.37,2.97-0.26,3.31,1.51c0.26,1.32-1.06,2.05-1.96,2.65
			c-2.03,1.36-3.38,2.52-0.18,4.05c0.92,0.44,1.86,1.06,1.25,2.28c-1.55,3.07-3.78,5.37-7.31,6.11c-3.2,0.68-4.79-1.03-6.16-3.63
			C1132.94,600.85,1137.87,597.52,1146.2,596.65z"/>
		<path d="M917.59,654.08c-4.13-4.06-10.32-5.12-14.95-8.84c-1.11-0.89-0.88-2.41,0.21-3.54c0.82-0.85,1.53-1.72,1.38-3.03
			c-0.29-2.41,1.68-4.87,3.04-4.15c4.22,2.25,10.1-3.24,12.19,1.23c2.18,4.68,4.9,10.61,0.98,16.23
			C919.8,652.9,919.39,654.1,917.59,654.08z"/>
		<path d="M915.73,619.7c-0.37,3.22-1.6,5.6-2.9,7.92c-0.59,1.06-2.17,1.09-2.64,0.56c-3.57-4.01-9.38-5.02-12.57-9.51
			c-0.95-1.34-1.22-2.62,0.46-3.22c3.56-1.28,5.83-4.24,8.81-6.24c2.79-1.88,5.38-2.23,6.06,2.15
			C913.45,614.45,914.04,617.48,915.73,619.7z"/>
		<path d="M1044.72,786.02c0.93-3.43,1.61-7.11,0.51-10.96c-0.26-0.91,0.25-2.57,1.76-0.45c1.14,1.61,1.89-0.24,2.4-1.05
			c0.88-1.4,1.42-3.01,2.31-4.4c2.9-4.49,3.08-3.43,7.46-0.71c4.88,3.04,2.25,5.61,1.16,8.32c-1.97,4.86-2.78,10.29-6.55,14.32
			c-1.4,1.49-2.18,4.12-4.83,3.61c-2.81-0.54-2.84-3.38-3.67-5.46C1044.91,788.35,1044.92,787.3,1044.72,786.02z"/>
		<path d="M1067.9,726c-0.78,5.2-3.07,9.82-6.33,13.79c-1.76,2.15-4.69,2.3-7.14,0.52c-3.56-2.59-4.89-6.57-5.97-10.57
			c-0.52-1.92,1.06-3.55,2.57-3.73c4.17-0.48,5-3.73,6.35-6.65c0.78-1.71,1.61-3.53,3.82-3.27c2.18,0.26,1.47,2.23,1.54,3.6
			c0.08,1.57,0.69,2.47,2.35,2.54C1067.5,722.36,1068.14,723.85,1067.9,726z"/>
		<path d="M1024.28,797.97c2.21-2.43,4.5-4.79,6.6-7.31c1.27-1.53,2.19-3.67,4.5-3.44c2.6,0.26,0.67,3.05,1.69,3.99
			c6.4,5.91,0.7,10.22-1.84,14.93c-0.37,0.69-1.07,1.44-1.78,1.68c-1.79,0.62-3.15,2.96-5.32,1.84c-2.05-1.06-1.8-3.32-2.04-5.3
			c-0.27-2.23,0.97-4.94-1.82-6.47C1024.28,797.92,1024.28,797.97,1024.28,797.97z"/>
		<path d="M1185.41,1137.83c1.23,0.09,2.71,1.09,4.45,0.18c1.35-0.71,3.06-2.22,4.46-0.58c1.22,1.42,0.01,3.37-0.64,4.65
			c-2.99,5.92-7.19,11.13-11.91,15.65c-2.78,2.67-4.22-1.44-5.05-3.23c-0.82-1.79-0.76-3.58-3.33-4.15
			c-1.61-0.36-1.2-6.82,0.71-8.08C1177.4,1140.06,1180.95,1138.22,1185.41,1137.83z"/>
		<path d="M1198.74,1115.08c-1.85,4.39-2.04,9.8-3.52,14.89c-0.88,3.03-2.8,4.92-5.6,1.55c-1.36-1.64-2.75-0.96-4.01-0.4
			c-2.33,1.04-3.87,0.4-4.88-1.78c-0.97-2.1-2.42-4.37-0.09-6.38c4.8-4.13,10.07-7.62,15.53-10.79
			C1198.81,1110.63,1198.79,1112.67,1198.74,1115.08z"/>
		<path d="M819.47,1091.16c-0.28,7.29-1.93,8.48-7.6,6.27c-3.24-1.26-6.43-2.66-9.56-4.18c-1.1-0.53-3.11-2.08-2.01-2.79
			c4.07-2.65,0.44-4.69-0.1-6.94c-0.41-1.69-0.57-3.34,0.77-4.66c1.17-1.15,2.63-0.63,3.68,0.07c2.41,1.61,4.29,0.65,6.39-0.66
			c2.43-1.52,4.3-1.24,5.16,2C817.24,1084.24,818.55,1088.15,819.47,1091.16z"/>
		<path d="M949.36,463.91c1.98,0.54,4.71,0.68,4.67,4.18c-0.05,4.3-4.4,10.86-7.18,10.83c-3.14-0.03-6.94-4.68-6.98-8.53
			C939.84,466.84,944.13,463.77,949.36,463.91z"/>
		<path d="M1104.32,470.99c0.01-3.14,4.22-6.26,8.69-6.3c2.49-0.02,4.66,0.64,4.81,3.71c0.2,3.88-4.31,10.66-7.09,10.76
			C1107.58,479.27,1104.3,475.09,1104.32,470.99z"/>
	</g>
</g>
</svg>
