<?xml version="1.0" encoding="utf-8"?>
<!-- Generator: Adobe Illustrator 26.0.2, SVG Export Plug-In . SVG Version: 6.00 Build 0)  -->
<svg version="1.1" id="Layer_1" xmlns="http://www.w3.org/2000/svg" xmlns:xlink="http://www.w3.org/1999/xlink" x="0px" y="0px"
	 viewBox="0 0 1920 1080" style="enable-background:new 0 0 1920 1080;" xml:space="preserve">
<g>
	<g>
		<path d="M1196.97,504.78c3.35-0.75,6.3-0.57,7.34-4.12c0.33-1.14,1.34-1.94,2.65-1.94c1.63,0,1.21,1.66,1.8,2.32
			c3.88,4.39,4.41,10.21,6.75,15.23c1.28,2.76,2.38,6.19,0.48,9.16c-7,10.91-11.31,23.56-20.42,33.04
			c-14.17,14.75-27.7,30.12-43.74,43.03c-8.01,6.44-14.22,14.88-22.15,21.58c-5.39,4.55-10.99,8.63-17.04,12.11
			c-2.8,1.61-3.9,3.51-3.95,6.75c-0.23,14.32,1.23,28.55,1.8,42.82c0.57,14.22-0.07,28.49,0.73,42.69
			c1.07,19.13-3.63,37.98-2.16,57.08c1.17,15.24-2.04,30.43-0.2,45.72c2.35,19.61,4.21,39.19,12.83,57.49
			c5.51,11.7,8.36,24.45,12.26,36.79c5.07,16.03,6.57,32.34,6.89,49.08c0.42,21.89,0.67,43.8,1.31,65.69
			c0.51,17.67,2.17,35.3,1.95,53c-0.03,2.81,0.29,5.92-0.76,8.38c-3.74,8.71-1.32,17.1,0.94,25.37c2.02,7.4,2.81,14.95,3.75,22.45
			c0.87,6.99,3.63,12.64,8.34,17.6c5.59,5.89,11.32,11.63,16.49,17.96c3.59,4.39,9.49,6.17,14.72,8.02
			c4.92,1.74,7.87,5.97,12.41,7.96c1.22,0.54,1.52,1.85,0.81,3c-2.39,3.81-4.67,7.84-9.32,9.27c-1.96,0.6-3.76,1.34-5.3,2.63
			c-10.06,8.43-21.25,15.5-30.13,25.34c-1.58,1.76-3.08,3.43-3.52,5.86c-0.71,3.92-3.68,6.2-6.49,8.55
			c-1.98,1.65-3.68,1.46-5.66-0.4c-5.19-4.88-10.59-9.63-14.49-15.6c-7.65-11.7-18.28-17.17-32.14-17.45
			c-7.8-0.16-15.58-1.32-23.37-1.9c-2.49-0.18-4.74-0.55-5.57-3.25c-0.82-2.68-0.86-5.4,1.63-7.27c2.63-1.97,3.14-4.46,3.59-7.64
			c0.87-6.12,5.92-10.23,9.03-15.3c7.4-12.09,17.2-21.74,28.6-30.18c8.47-6.27,9.21-13.91,3.76-24.1c-1.7-3.18-2.41-7.84-7.75-7.83
			c-0.72,0-1.66-1.56-2.13-2.57c-8.3-17.8-17.06-35.37-25.91-52.91c-8.48-16.79-8.66-34.92-7.84-53.22
			c0.85-19.12,1.54-38.26,1.57-57.4c0.02-11.62-3.22-22.52-9.7-32.55c-4.84-7.5-9.7-15.17-12.58-23.75
			c-2.15-6.39-2.05-12.7,1.07-18.92c2.77-5.52,3.87-11.5,4.17-17.85c-5.19,2.4-6.19,2.01-8.17-3.2c-2.31-6.07-4.87-12.02-7.82-17.82
			c-2.89-5.68-4.61-11.75-5.51-18.07c-1.93-13.46-6.99-26.06-11.62-38.66c-5.79-15.76-8.97-32.04-11.86-48.41
			c-2.28-12.91-7.03-24.93-11.64-37.06c-0.93-2.45-2.14-3.52-4.81-2.28c-2.7,1.26-6.23-1-8.57,1.56c-2.58,2.82,0.65,5.59,0.53,8.48
			c-0.21,5.02-0.61,10.08-2.07,14.8c-3.14,10.15-6.18,20.44-10.53,30.1c-11.32,25.17-18.71,51.97-32.3,76.22
			c-6.13,10.94-7.64,23.01-5.8,35.74c1.49,10.31,1.28,20.87,1.79,31.33c0.15,3.04,0.57,5.84,2.7,8.34c1.77,2.08,1.3,4.96,1.76,7.55
			c3.44,19.59-2.82,37.55-8.83,55.56c-4.85,14.52-9.9,28.97-14.8,43.47c-3.23,9.55-9.99,17.3-13.5,26.69
			c-8.6,23.06-17.78,45.92-23.78,69.85c-1.42,5.66-2.27,11.46-2.28,17.3c-0.01,5.4-2.76,10.19-2.9,15.61
			c-0.11,4.34,0.95,7.58,4.1,10.55c3.08,2.91,5.91,5.9,7.32,10.39c1.18,3.75,1.04,6.62-0.61,9.93c-5,10.06-12.2,16.26-24.12,17.42
			c-17.25,1.68-34.02,5.21-48.76,15.7c-7.66,5.45-16.62,9.05-25.77,11.81c-9.46,2.86-18.81,3.18-28.51,0.88
			c-4.39-1.04-9.23-0.54-13.84-0.24c-9.42,0.61-18.93-0.79-28.29,1.28c-5.57,1.23-10.64,3.77-15.79,6.05
			c-5.34,2.36-10.82,4.24-16.33,6.08c-1.25,0.42-2.55,1.25-3.63-0.1c-1.07-1.34-0.8-2.97,0.1-4.2c1.16-1.6,2.52-3.14,4.06-4.36
			c14.54-11.44,27.39-24.63,40.36-37.78c10.62-10.76,24.76-15.33,39.56-17.1c7.73-0.92,15.52-1.62,23.29-2.26
			c6.68-0.55,12.19-5.68,18.02-9.14c5.24-3.1,8.46-8.54,13.05-12.2c8-6.38,10.47-14.62,11.44-24.16
			c2.47-24.32,4.93-48.65,8.17-72.87c1.45-10.82,4.4-21.5,7.3-32.07c4.41-16.1,6.34-32.59,8.59-49.05c1.07-7.8,4.68-14.91,6.7-22.43
			c2.5-9.36,2.77-19.16,2.86-28.77c0.1-10.54,1.77-20.5,5.94-30.11c2.17-4.99,1.76-9.47-1.61-14.03c-3.55-4.8-6.48-10.01-7.61-16.1
			c-1.4-7.5,0.39-13.33,7.12-17.01c5.29-2.89,6.61-6.51,6.64-12.33c0.07-14.46,0.65-28.93,1.23-43.39
			c0.64-15.91-0.79-31.95-0.33-47.94c0.48-16.96-0.61-34.08,3.1-50.78c3.36-15.1,6.77-30.17,9.51-45.4
			c1.51-8.4-4.74-23.95-11.44-29.3c-4.39-3.51-8.08-6.93-14.49-5.56c-2.98,0.64-4.32-6.93-1.56-10.53c3.44-4.5,7.5-8.34,12.16-11.7
			c11.19-8.07,22.11-16.51,33.13-24.8c0.27-0.2,0.48-0.48,0.77-0.64c2.87-1.58,8.29-3.36,8.17-4.66
			c-0.47-5.26,0.71-10.63-0.77-15.82c-1.04-3.63-0.85-7.17,0.78-10.69c1.93-4.18,4.59-8.41,0.68-13.01
			c-0.36-0.42,0.1-1.54,0.23-2.73c-3.81,0.75-6.35,3.14-9.02,5.18c-3.75,2.87-7.79,5.01-12.43,6.1c-7.92,1.86-14.85,5.86-21.32,10.6
			c-3.79,2.78-6.82,2.82-10.67-0.15c-8.94-6.9-18.46-13.07-27.31-20.09c-10.02-7.95-19.13-16.96-27.39-26.75
			c-3.28-3.9-3.52-8.67-1.59-13.23c2.14-5.04,4.53-10.02,7.32-14.72c1.34-2.26,1.67-4.1,0.82-6.43c-3.05-8.28-5.83-16.66-9.16-24.82
			c-1.79-4.39-1.24-8.21,1.37-11.71c2.53-3.39,4.41-6.97,5.72-10.99c1.89-5.79,5.14-10.93,9.64-14.99c5.7-5.14,7.3-10.56,6.07-18.53
			c-2.71-17.56-5.07-35.19-8.03-52.71c-3.43-20.29-7.74-40.44-11.64-60.65c-1.39-7.18-2.75-14.36-4.06-21.55
			c-0.88-4.82,0.05-5.7,4.56-3.84c5.82,2.41,10.06,6.8,13.78,11.76c2.64,3.52,5.33,6.99,8.07,10.43c0.59,0.75,1.48,1.26,2.96,1.39
			c-2.25-3.59-4.4-7.25-6.77-10.75c-2.64-3.9-4.54-8.11-5.73-12.64c-0.29-1.09-0.7-2.44,0.62-3.15c1.48-0.8,2.63,0.08,3.33,1.3
			c6.88,11.94,16.57,21.92,23.48,33.82c1.2,2.07,2.68,3.62,5.23,5.96c-1.48-7.17-5.18-12.01-8.72-16.42
			c-5.35-6.65-7.34-14.79-11.51-21.89c-0.43-0.73-0.93-1.56,0.03-2.14c0.83-0.5,1.58,0.02,2.15,0.69
			c4.22,4.97,9.19,9.18,11.69,15.68c2.72,7.09,8.3,12.64,12.71,18.78c2.95,4.12,6.02,8.21,9.4,12.07c1.97,2.25,2.26,1.26,3.47-0.16
			c2.69-3.18,5.88-6,8.18-9.42c7.29-10.85,18.34-13.52,30.25-14.69c3.16-0.31,7.85,1.16,9.01-2.29c2.09-6.21,8.25-12.08,3.01-19.58
			c-2.28-3.26-3.87-6.93-6.21-10.21c-3.79-5.31-2.03-9.5,4.27-10.91c7.12-1.59,14.07-3.25,20.7-6.81
			c5.52-2.96,11.93-1.15,17.28,1.78c7.14,3.91,15.17,6.1,21.69,11.19c0.7,0.54,1.49,0.97,2.29,0.54c3.89-2.13,7.61-2.7,11.67-0.09
			c1.47,0.94,2.64-0.84,3.31-2.23c2.68-5.5,1.6-12.12-2.75-16.63c-1.04-1.08-2.06-2.26-3.31-3.03
			c-13.26-8.1-18.81-21.12-22.28-35.29c-1.62-6.63-4.13-12.28-10.75-15.05c-4.28-1.79-6.47-4.91-7.3-9.33
			c-0.51-2.72-1.5-4.36-5.1-3.3c-6.16,1.81-11.12-0.88-14.76-5.82c-7.02-9.53-9.81-20.28-8.51-32.05c0.38-3.46,2.11-6.3,4.67-8.6
			c2.78-2.5,3.19-5.4,1.29-8.48c-6.14-9.99-2.36-19.41,2-28.48c2.76-5.74,9.13-6.9,14.64-8.61c2.72-0.84,3.9-1.38,2.93-4.59
			c-1.23-4.09-0.36-8.22,1.39-12.16c1.57-3.54,3.71-6.7,6.05-9.74c7.96-10.33,16.2-13.26,28.48-9.09c9.4,3.19,18.07,1.55,27.33-0.84
			c9.66-2.49,19.76-4.55,29.88-1.35c3,0.95,6.01,1.5,9.28,1.47c9.57-0.07,17.25,4.4,23.64,11.18c2.91,3.09,6.13,5.43,10.13,6.97
			c3.82,1.47,6.56,3.77,7.3,8.56c0.49,3.16,3.14,6.08,5.88,8.29c6.33,5.11,9.26,12.11,12.08,19.55c3.64,9.61,3.43,18.62-0.56,27.89
			c-1.34,3.11-0.73,6.86,1.74,8.84c7.68,6.15,5.27,12.52,1.09,18.26c-2.34,3.21-4.5,6.43-6.56,9.82
			c-5.44,8.98-14.46,13.31-23.89,16.86c-0.97,0.36-2.57-0.41-2.59,1.44c-0.01,0.77,0.17,1.85,0.68,2.27c1.23,0.99,2.06-0.42,3-0.93
			c2.06-1.11,4.28-4.5,6.24-2.32c1.63,1.81-1.31,4.73-2.99,6.13c-6.36,5.28-9.1,12.23-11.24,19.9c-1.56,5.58-4.43,10.74-9.35,14.45
			c-1.22,0.92-1.96,2.68-2.56,4.19c-1.91,4.86-4.29,9.53-7.83,13.28c-4.26,4.5-4.96,9.55-4.01,15.22c0.11,0.66,0.11,1.34,0.29,1.98
			c1.1,4.01,1.19,9.15,4.21,11.51c3.49,2.73,6.97-2.03,10.54-3.22c12.94-4.31,25.59-9.32,39.12-11.91c7.36-1.41,14.66-3.7,21.99-5.6
			c4.92-1.28,8,0.26,10.67,4.65c2.11,3.48,5.12,6.41,7.69,9.61c0.83,1.03,1.65,2.09,2.3,3.24c4.26,7.59,4.07,9.39-2.19,15.57
			c-3.83,3.78-6.09,8.26-6.89,13.52c-0.12,0.79-0.59,1.7,0.17,2.35c1,0.85,1.89,0.12,2.66-0.48c2.97-2.29,6.06-1.78,9.46-0.96
			c15.36,3.71,21.95,12.18,20.48,27.97c-1.33,14.3,2.25,27.76,4.72,41.43c1.77,9.84,2.49,19.78,3.45,29.66
			c1.04,10.69,4.84,20.29,10.82,28.55c7.69,10.63,15.34,21.31,22.85,32.06c5.38,7.72,6.56,17,6.78,26.22
			c0.37,15.39,0.23,30.8,3.37,45.97c0.32,1.54-0.51,2.53-1.35,3.55c-2.71,3.28-6.04,6.48-9.97,7.21
			C1203.37,494.4,1200.7,499.4,1196.97,504.78z M1011.85,41.98c-5.42,0.72-10.19,3.76-15.77,4.18c-3.4,0.26-3.17,3.13-1.61,5.24
			c1.81,2.45,3.86,4.73,5.26,8.7c0.53-1.79,0.91-2.4,0.84-2.95c-0.73-5.94,1.99-9.82,7.12-12.42c1.45-0.74,2.68-1.9,4.03-2.86
			c7.85-1.92,12.36-7.45,10.96-13.45c-0.43-1.85-1.09-3.94-3.2-3.91c-2.26,0.03-1.9,2.4-2.04,3.92
			C1017,33.55,1015.36,38.14,1011.85,41.98z M949.84,429.11c0.94-0.31,1.95-0.49,2.82-0.94c16.04-8.47,32.04-16.99,48.09-25.42
			c2.37-1.25,2.17-3.17,1.85-5.13c-4.63-27.83-5.23-55.98-7.03-84.05c-0.78-12.13-0.04-24.31-1.71-36.41
			c-0.4-2.92-1.2-3.53-4.08-3.07c-6.65,1.06-12.92,3.11-18.89,6.15c-8.1,4.13-17.16,4.95-25.72,7.45
			c-13.64,3.99-26.63,10.28-41.02,11.63c-1.66,0.16-2.54,1.04-2.54,2.5c0,2.46-0.66,5.2,0.85,7.25c0.73,0.99,2.37-0.46,3.54-1.01
			c8.26-3.81,17.02-5.87,26.53-7.98c-1.57,2.99-3.84,3.4-5.74,4.15c-7.56,3.01-15.15,5.95-22.81,8.7c-2.53,0.91-3.24,2.82-2.39,4.63
			c1.03,2.19,2.63-0.14,3.67-0.6c8.56-3.79,17.42-6.4,27.69-7.7c-6.52,3.74-12.95,5.04-19.01,7.21
			c-7.92,2.83-15.25,5.61-13.88,16.21c0.1,0.73-0.62,1.56,0.65,2.72c7.33-4.15,14.95-8.42,23.97-8.34
			c-6.97,3.96-13.76,8.32-21.47,10.41c-4.03,1.09-4.3,3.93-3.56,6.41c1.07,3.57,3.15,0,4.68-0.26c2.92-0.5,5.7-1.78,8.57-2.62
			c3.3-0.97,6.4-3.14,10.37-2.23c-1.05,2.33-2.76,3.51-4.42,4.44c-4.94,2.74-9.91,5.52-15.12,7.67c-4.07,1.68-5.47,4.44-5.42,8.44
			c0.01,1.17-0.04,2.52,0.96,3.24c1.33,0.96,2.04-0.57,2.88-1.18c4.82-3.52,10.03-5.97,16.88-6.8c-2.72,3.48-6.01,4.43-8.75,6.16
			c-3.23,2.04-6.62,3.85-9.79,5.97c-2.24,1.5-1.93,4.22-0.93,5.89c1.52,2.53,2.64-0.48,3.81-1.09c4.04-2.11,7.88-4.63,13.22-6.26
			c-5.29,7.6-16.59,8.15-17.6,18.87c1.09-0.52,1.99-0.85,2.78-1.35c13.13-8.2,26.64-15.71,40.62-22.37
			c2.09-0.99,4.42-2.67,6.52-0.93c2.33,1.94,0.9,4.59,0.07,6.91c-2.1,5.86-6.14,10.28-10.91,14.02c-5.29,4.15-9.8,8.93-13.71,14.4
			c-4.51,6.3-10.31,11.32-17.16,15c-1.83,0.98-3.99,2.54-5.99,0.66c-1.77-1.67-1.83-4.2-1.72-6.51c0.11-2.33,2.1-3.32,3.83-4.25
			c9.56-5.2,15.28-14.13,21.8-22.41c-9.48,6.07-19.75,10.93-27.62,19.18c-6.08,6.37-13.19,11.1-21.08,14.91
			c-3.95,1.9-6.47,0.75-8.95-2.42c-4.53-5.82-7.59-12.51-11.6-18.64c-2.27-3.48-4.3-7.19-8.65-9.82c0.94,6.14,2.27,11.41,3.41,16.75
			c1.48,6.93,9.67,11.61,6.63,20c-0.07,0.2,0.59,0.71,0.96,1.02c3.15,2.62,3.74,6.43,5.02,10.02c1.64,4.6,1.07,10.32,5.1,13.7
			c5.88,4.94,12.72,8.65,20.15,10.6c5.44,1.43,11.22,1.99,15.78-3.02c1.96-2.15,4.72-3.13,7.63-3.31
			c10.47-0.65,15.67-7.81,20.99-16.87c-3.25,1.65-5.37,2.82-7.57,3.82c-1.36,0.62-2.99,1.28-3.91-0.58
			c-0.85-1.73-0.27-3.24,1.41-4.26c2.28-1.37,4.48-2.91,6.86-4.09c10.99-5.41,20.26-12.3,22.83-25.29c0.12-0.59,0.57-1.12,1.14-2.2
			c1.2,8.12-0.83,14.69-5.37,20.66c-4.33,5.69-6.47,12.48-9.14,19.08c3.61-2.51,7.23-5.03,10.84-7.54L949.84,429.11z
			 M1024.79,200.58c2.6-0.17,6.42-0.42,10.24-0.69c1.37-0.1,2.4-0.66,3.4-1.76c8.19-9,16.15-18.15,22.36-28.69
			c6.83-11.59,9.61-24.08,8.11-37.39c-1.31-11.61-0.67-23.24-0.6-34.83c0.07-11.36-1-13.5-11.64-14.43
			c-7.5-0.65-13.67-3.73-16.65-10.86c-2.99-7.17-0.9-13.78,4.21-19.36c2.1-2.29,3.38-4.93,4.31-7.77c0.69-2.13-0.6-3.5-2.37-4.39
			c-1.66-0.84-3.01-0.23-3.64,1.43c-2.99,7.83-9.67,11.63-16.55,15.11c-2.93,1.48-4.35,3.36-3.92,6.66
			c1.33,10.23-4.23,16.36-12.33,21.29c-4.27,2.6-8.41,2.2-12.36,0.33c-7.55-3.57-14.6-1.68-21.49,1.44
			c-3.17,1.44-5.23,4.3-4.19,8.15c0.95,3.5,2.2,6.92,3.37,10.36c1.1,3.23,1.96,6.63,0.19,9.71c-3.99,6.9-3.13,13.79-1.27,21.07
			c1.72,6.73,3.54,13.5,3.42,20.62c-0.14,8.66,2.58,16.05,9.26,22.16c5.78,5.29,12.93,9.17,17.76,15.19
			c4.56,5.69,10.08,6,16.17,6.24C1021.57,200.2,1022.57,200.35,1024.79,200.58z M1117.16,257.36c-0.16-3.52,1.17-7.59,3.96-8.46
			c7.5-2.33,7.83-9.45,11.3-14.44c1.14-1.63,2.32-3.3,3.8-4.6c2.45-2.16,2.17-4.06,0.35-6.45c-2.91-3.81-6.73-6.89-8.91-11.31
			c-1.08-2.18-2.85-2.13-4.45-0.44c-1.7,1.79-3.48,2.87-6.14,2.48c-3.1-0.46-5.81,0.76-8.41,2.49c-4.74,3.16-8.9,6.92-12.98,10.88
			c-2.94,2.86-5.25,6.51-10.03,9.15c4.45-7.63,10.12-12.72,15.39-18.55c-3.08-1.01-4.79,0.35-6.42,1.74
			c-7.6,6.48-15.23,12.92-22.21,20.09c-1.9,1.95-4.01,3.68-6.03,5.52c2.96-7.69,8.3-13.62,13.8-20.2c-3.48,0.05-4.66,2.03-6.17,3.47
			c-8.72,8.27-18,15.8-28.54,21.66c-1.47,0.82-3.26,2.8-4.8,0.87c-1.48-1.85,0.03-3.78,1.43-5.28c1.93-2.07,3.97-4.04,5.88-6.13
			c1-1.09,3.12-1.5,2.48-3.91c-11.02-0.41-17.1,9.18-25.92,13.04c3.41-3.25,6.78-6.46,10.59-10.09c-4.43-2.63-7.27-2.37-10.2-0.54
			c-5.22,3.26-10.53,6.39-15.76,9.63c-1.64,1.02-3.22,1.58-5.16,0.84c-1.04-0.4-2.58-0.08-2.87-1.5c-0.31-1.55,1.29-1.66,2.23-2.21
			c3.79-2.22,7.44-4.61,10.99-8.06c-6.35-1.53-11.29,0.32-16.04,3.36c-3.79,2.43-7.67,4.71-11.99,6.1c-0.93,0.3-2.18,0.38-2.61-0.76
			c-0.5-1.32,0.86-1.51,1.66-1.98c4.02-2.36,8.07-4.66,12.04-7.1c1.29-0.79,3.53-1.34,2.39-3.6c-1.04-2.07-2.72-1.04-4.34-0.51
			c-8.87,2.89-17.87,5.21-27.32,4.77c-1-0.05-2.65,0.91-2.97-0.68c-0.33-1.63,1.21-2.04,2.57-2.38c6.61-1.67,13.21-3.38,19.8-5.1
			c0.99-0.26,2.2-0.3,2.53-2.17c-9.62,1.55-18.85,0.88-28.63-1.2c6.38-2.07,12.56-1.04,19.73-2.72c-5.54-2.27-9.77-3.95-13.96-5.72
			c-5.99-2.54-12.6-3.01-18.53-5.8c-3.94-1.85-7.93-1.89-11.83,0.71c-1.6,1.07-3.69,1.49-5.61,1.95c-3.49,0.84-4.89,2.25-2.79,5.91
			c3.76,6.54,3.69,12.99-0.23,19.73c-5.07,8.71-4.82,8.86,5.08,10.26c0.16,0.02,0.33,0.01,0.5,0.03c2.95,0.38,3.83,1.46,1.88,4.23
			c-1.32,1.88-3.7,3.29-3.7,6.31c11.19-4.33,21.98-8.55,32.82-12.64c1.57-0.59,4-1.82,4.81,0.5c0.67,1.93-1.64,3.11-3.23,3.86
			c-4.21,2-8.57,3.66-12.77,5.66c-3.83,1.82-7.53,3.91-11.28,5.88c0.21,0.39,0.42,0.79,0.63,1.18c3.08-1.05,6.84-0.41,9.26-2.92
			c4.15-4.29,9.44-6.18,14.85-7.7c5.54-1.56,11.24-1.94,17.84,0.66c-28.54,11.53-56.67,21.32-83.04,35.24
			c0.79,0.34,1.42,0.26,2,0.04c24.42-9.26,48.82-18.56,73.26-27.76c6.45-2.43,13.27-3.12,20.1-3.36c3.79-0.13,6.13,1.51,4.97,5.88
			c-1.37,5.15-0.21,10.22,0.56,15.3c0.22,1.41,0.48,2.72,2.38,2.42c11.91-1.89,23.87-3.55,35.72-5.78
			c7.18-1.35,14.2-3.52,21.25-5.49c4.33-1.21,8.55-0.96,12.72,0.39c4.12,1.34,8.35,2,12.61,1.88c3-0.09,4.95,0.42,6.24,3.44
			c0.97,2.26,3.74,4.32,5.46,1.89c3.17-4.49,8.91-6.38,11.01-11.87c1.27-3.31,3.69-5.75,7.56-6.6c2.05-0.45,4.03-1.78,4.75-4.23
			C1120.24,255.81,1119.19,258.22,1117.16,257.36z M1107.82,1050.43c0.77-0.11,1.54-0.21,2.31-0.32
			c-4.16-42.37-13.56-83.99-18.93-126.27c7.75,13.26,10.71,28.17,14.66,42.84c0.36-14.11,0.03-28.33-3.89-41.78
			c-5.48-18.75-17.51-35.17-20.47-54.96c-0.12-0.79-0.76-1.5-0.97-2.29c-0.35-1.32-2.35-2.73-0.63-3.95
			c1.59-1.13,3.11,0.49,4.4,1.43c0.76,0.55,1.2,1.53,1.87,2.24c1.3,1.37,2.75,1.66,3.39-0.43c2.61-8.54,5.66-17.03,4.74-26.47
			c-8.98,5.32-6.56-4.42-9.78-7.38c-1.06,4.18,0.13,8.41-2.23,11.82c-1.46,2.11-2.19,5.61-5.16,5.47c-2.45-0.11-2.58-3.51-3.8-5.41
			c-0.16-0.26-0.51-0.4-0.83-0.64c-1.57,0.9-2.21,3.59-4.08,3.37c-3.85-0.45-3.32,1.4-3.2,4.1c0.53,12.28,0.87,24.57-2.84,36.57
			c-0.91,2.95-1.33,6.19,0.27,9.27c2.52,4.85,4.68,9.99,7.4,14.61c7.5,12.72,9.01,26.13,7.09,40.3
			c-1.61,11.92-2.04,23.83-0.28,35.79c1.78,12.11,4.12,24.12,4.47,36.48c0.21,7.53,2.81,14.96,3.91,22.5
			c1.24,8.44,5.98,15.39,9.33,22.89c3.31,7.39,5.66,15.27,10.16,22.46c0.33-0.72,0.62-1.04,0.58-1.29
			c-0.39-2.13-0.74-4.27-1.29-6.35c-7.25-27.89-13.47-55.95-17.17-84.6c-3.74-28.96-4.48-58.08-6.11-87.16
			c-0.42-7.46-0.5-14.94-1.69-22.33c-0.22-1.39-0.83-2.86,0.75-3.42c2.04-0.73,2.6,1.26,2.89,2.58c0.94,4.21,1.37,8.55,2.45,12.72
			c1.46,5.63-0.06,11.02-0.35,16.55c-0.33,6.2,1.24,12.51,2.02,18.76c1.68,13.35,3.01,26.76,5.18,40.04
			c2.44,14.91,5.42,29.74,8.59,44.52C1102.59,1032.02,1105.38,1041.19,1107.82,1050.43z M1137.89,517.21
			c-1.14-1.74-2.98-2.32-4.18-3.7c-6.3-7.24-13.09-14.03-20.38-20.3c-3.04-2.61-4.66-2.57-6.9,1.63
			c-6.31,11.83-11.2,24.35-19.31,35.35c-5.76,7.82-13.05,14.91-15.64,25.04c-0.89,3.51-0.65,4.52,2.53,5.58
			c5.48,1.83,9.99,5.21,13.62,9.72c3.8,4.73,3.66,4.67,6.69-0.52c11.2-19.21,24.91-36.39,41.62-51.13
			C1136.54,518.37,1137.14,517.86,1137.89,517.21z M886.41,897.8c2.86-4.17,3.36-8.98,3.91-13.71c0.47-4.06,2.02-8.22,0.07-12.24
			c-1.86-3.83-2.02-7.78-0.99-11.7c0.91-3.5,0.47-6.95,0.53-10.43c0.01-0.75,0.27-2.24-0.72-2c-6.76,1.67-4.82-4.23-4.9-6.53
			c-0.4-11.81-0.31-23.65,0.03-35.47c0.67-23.12,3.89-46.07,4.81-69.2c0.57-14.43,1.51-28.94,4.84-43.08
			c3.27-13.89,4.45-27.91,4.05-42.11c-0.04-1.56,0.75-4-1.37-4.29c-4.11-0.58-6.09-4-9.37-6.59c-0.96,10.09,0.46,19.58-0.87,28.94
			c-2.99,21-3.1,42.09-1.84,63.19c0.91,15.31,0.84,30.58-1.27,45.77c-2.6,18.78-3.47,37.57-1.35,56.45c0.17,1.53-0.58,2.52-1.4,3.57
			c-2.34,3.02-4.5,6.21-7.08,9c-2.23,2.41-2.56,5.02-1.73,7.85c0.75,2.54,1.57,5.15,2.9,7.42c4.87,8.33,4.19,16.85,1.37,25.53
			c-2.07,6.36-3.72,12.74-3.37,19.56c0.37,7.3,0.23,14.63,0.45,21.95c0.16,5.46-1,10.8-1.37,16.23c4.65-11.82,4.31-24.46,6.36-36.7
			c2.04-12.16,3.98-24.29,9.26-36.79C889.75,881.84,885.52,889.65,886.41,897.8z M1041.33,710.48c2.68,27.6,17.02,91.16,22.79,98.36
			c0.02-6.53-1.61-12.49-3.14-18.38c-6.4-24.72-10.62-49.71-11.45-75.32c-0.64-19.78-1.77-39.57-8.38-58.58
			c-1.04-2.99-1.85-2.98-3.94-1.31c-2.99,2.39-5.89,4.93-9.13,6.92c-2.02,1.24-2.52,2.63-2.69,4.79c-0.72,8.77,1.69,17.1,3.38,25.52
			c3.25,16.22,6.77,32.39,10.14,48.58c1.65,7.94,3.69,15.75,7.31,23.18C1045.27,746.21,1041.85,728.43,1041.33,710.48z
			 M892.14,322.99c-0.38,0-0.75,0-1.13,0c0-6.32-0.08-12.65,0.04-18.97c0.05-2.51-0.35-3.39-3.04-2.2
			c-4.36,1.93-8.85,2.57-13.24-0.12c-2.09-1.28-2.75-0.31-2.5,1.72c0.4,3.3,1.05,6.58,1.33,9.89c1.93,23.5,1.68,47.14,4.5,70.61
			c0.69,5.77,1.91,12.36-3.03,17.5c-0.49,0.51-0.78,1.17-0.12,1.7c0.34,0.27,0.92,0.37,1.37,0.32c1.57-0.18,2.65-1.29,3.87-2.15
			c5.19-3.68,8.88-8.97,13.82-12.91c1.31-1.04,0.92-1.85,0.51-3.33c-1.13-4.13-2.22-8.42-2.29-12.67
			C891.99,355.92,892.14,339.46,892.14,322.99z M813.91,247.57c-0.38,0.18-0.75,0.36-1.13,0.54c0.67,2.01,1.28,4.05,2.01,6.04
			c2.72,7.49,5.88,14.85,8.14,22.47c4.02,13.54,6.59,27.43,8.17,41.47c0.33,2.93,1.6,5.38,3.92,6.58
			c10.54,5.42,19.5,13.11,29.89,20.32c-0.18-4,2.76-8.49-2.05-10.3c-7.6-2.86-13.05-8.24-18.8-13.42c-0.95-0.85-2.46-1.82-1.39-3.27
			c1.34-1.82,2.67-0.03,3.88,0.55c0.87,0.42,1.53,1.27,2.34,1.84c4.02,2.83,7.97,5.78,12.15,8.37c1.43,0.89,4.22,2.26,3.97-1.58
			c-0.41-6.41-0.49-12.8-0.21-19.22c0.06-1.33,0.11-2.97-1.12-3.68c-5.77-3.33-9.1-9.08-13.74-13.5
			c-6.58-6.27-12.84-12.83-18.56-19.82C825.23,263.44,818.19,256.55,813.91,247.57z M1083.61,814.35c0.62-1.68,1-2.26,1.04-2.86
			c0.97-13.77,2.61-27.5,2.65-41.33c0.06-17.31-0.83-34.51-3.48-51.68c-3.32-21.53-4.79-43.32-8.37-64.82
			c-0.38-2.3-0.68-5.71-2.94-5.8c-2.95-0.12-2.65,3.6-3.47,5.82c-0.23,0.61-0.23,1.31-0.3,1.97c-1.13,11.17-0.16,22.3,2.08,33.16
			c5.06,24.55,8.84,49.24,9.08,74.31C1080.06,779.87,1081.47,796.49,1083.61,814.35z M1068.94,780.5c1.95-1.35,1.58-2.81,1.58-4.02
			c0.09-13.31,0.82-26.61,0.18-39.92c-0.69-14.33-3.29-28.39-5.48-42.52c-1.99-12.83-3.81-25.71-1.95-38.72
			c0.44-3.07-0.87-4.6-3.37-5.06c-3.24-0.59-2.14,2.28-2.27,3.77c-0.3,3.51-1.99,6.35-4.01,8.99c-1.55,2.03-1.9,3.98-1.38,6.49
			c2.97,14.17,3.78,28.6,4.94,42.99c1.09,13.57,1.87,27.2,4.92,40.52C1064.2,762.13,1066.61,771.17,1068.94,780.5z M893.5,814.41
			c-0.5-2.93,1.13-5.43,1.42-8.2c2.22-20.67,7.48-40.88,8.76-61.74c1.13-18.45,8.14-35.96,9.99-54.43c1-10.03,4.01-19.85,5.86-29.82
			c0.43-2.33,2.51-6.37-3.31-5.4c-1.79,0.3-3.63-0.67-4.9-2.1c-2.63-2.97-3.34-1.21-3.82,1.43c-2.72,15.07-4.14,30.26-5.42,45.52
			c-1.5,17.9-2.16,35.86-4.52,53.7C894.88,773.6,892.56,793.88,893.5,814.41z M1048.45,570.07c0.56-0.05,1.06-0.07,1.55-0.13
			c5.45-0.74,9.86-6.72,7.86-12.45c-1.35-3.86-5.56-1.52-8.74-1.16c-4.26,0.49-8.46,2.03-12.8,1.31
			c-12.95-2.15-25.88-1.13-38.82-0.06c-6.98,0.58-13.91,0.71-20.89-0.42c-16.67-2.7-31.79-9.49-46.63-17.09
			c-3.25-1.67-6.41-3.6-10.16-3.99c-2.59-0.27-4.64,0.81-5.78,3.08c-1.01,2,0.41,3.65,1.73,4.81c8.76,7.7,19.27,13.15,30.12,15.93
			c8.98,2.3,18.92,2.7,28.59,2.31c13.79-0.57,27.59-0.76,41.39-1.02c9.36-0.17,18.66,0.24,27.31,4.44c0.89,0.43,2.96,0.06,2.43,1.76
			C1044.55,570.81,1046.89,569.92,1048.45,570.07z M1003.96,647.24c5.06,0.36,9.16,0.18,13.18-1.29c4.84-1.77,9.69-3.54,14.63-5
			c6.35-1.88,11.95-4.84,16.71-9.54c2.71-2.67,5.86-4.84,9.37-6.54c6.3-3.05,12.89-4.26,19.83-4.07c1.27,0.03,3.05,0.1,3.34-1.49
			c0.37-1.98-0.42-3.95-1.4-5.71c-0.77-1.39-1.98-0.99-3.03-0.38c-5.91,3.38-12.45,5.4-18.4,8.77c-7.51,4.25-14.34,9.71-22.45,12.9
			c-1.2,0.47-2.71,1.84-3.58,0.43c-3.65-5.87-5.51-1.21-7.76,1.15c-3.22,3.37-6.03,5.13-10.37,0.82c-3.11-3.09-7.83-3.52-12.21-1.79
			c-2.23,0.88-4.28,1.12-6.74,0.59c-7.14-1.52-14.43-2.6-21.7-2.11c-9.08,0.61-18.13,0.98-27.2,0.5c-2.77-0.14-6.48,0.19-8.09-1.39
			c-5-4.93-10.72-3.24-16.35-3.08c-1.82,0.05-4.13,0.74-4.93-1.28c-1.95-4.87-5.35-3.84-9.03-2.87c-2.22,0.58-4.38,1.51-6.82,1.27
			c-1.6-0.15-3.63-0.13-3.71,2.25c-0.09,2.47,0.61,4.81,3.4,5.38c1.57,0.32,3.52,0.46,4.9-0.18c13.19-6.13,25.05-0.39,36.82,4.35
			c3.72,1.49,6.68,1.78,10.32,0.46c5-1.81,10.47-4.16,15.54-2.27c7.64,2.85,16.05,3.15,23.23,7.23
			C995.65,646.75,1000.09,647.59,1003.96,647.24z M998.31,412.97c-5.16,1.48-7.26,4.78-7.7,9.57c-0.28,3.11,1.43,5.79,0.16,9.33
			c-9.57,26.64-12.69,54.35-12.63,82.52c0.01,7.04,0.62,13.86,2.44,20.73c1.06,3.98,3.9,7.75,2.49,12.37
			c-0.32,1.05,1.24,1.31,2.22,1.43c0.82,0.1,2.28-0.09,2.04-0.74c-1.46-4.01,2.76-6.84,1.74-10.94c-4.48-17.96-1.99-36.1-0.71-54.17
			C990.01,459.61,997.1,436.9,998.31,412.97z M1166.51,402.39c-0.26,0.08-0.51,0.15-0.77,0.23c0,0.94-0.06,1.89,0.01,2.82
			c0.94,12.74,2.75,25.41,1.34,38.29c-0.44,4.01-2.3,9.47,3.68,11.96c0.22,0.09,0.3,0.57,0.41,0.89c2.05,6.05,6.05,11.03,9.09,16.53
			c0.79,1.43,1.21,3.67,3.82,3.09c2.48-0.55,2.67-2.6,3.21-4.52c1.75-6.18,0.57-12.61,1.65-18.83c0.81-4.69-0.99-8.45-3.58-11.98
			c-5.42-7.4-10.24-15.05-12.94-23.98C1170.93,411.92,1168.51,407.22,1166.51,402.39z M904.18,928.02
			c-1.15,4.08-2.01,6.73-2.64,9.44c-3.62,15.7-7.87,31.17-12.57,46.62c-7.94,26.08-20.11,50.64-26.29,77.32
			c-3.06,13.24-7.2,26.28-10.46,39.51c-0.56,2.26-0.87,4.58-1.17,6.89c-0.12,0.94-0.22,2.21,1.02,2.5c1.68,0.39,1.8-1.07,2.02-2.17
			c0.94-4.89,1.74-9.8,2.76-14.67c2.4-11.37,4.09-22.97,7.58-33.99c4.25-13.44,10.25-26.27,16.18-39.13
			c9.95-21.59,16.44-44.62,26.04-66.41c0.56-1.27,1.26-2.82,0.31-4.31c-1.64-2.59-1.1-5.48-1.19-8.28
			C905.65,937.37,906.09,933.35,904.18,928.02z M815.45,407.39c-1.41,2-2.48,4.05-4.04,5.63c-2.81,2.85-2.36,5.19-0.69,8.74
			c6.5,13.82,12.96,27.73,14.32,43.29c0.18,2.05,0.76,3.9,2.72,5.03c1.32,0.76,2.69,1.39,2.56-0.99c-0.24-4.23,1.68-7.76,3.55-11.24
			c2.75-5.12,2.67-9.53-1.46-14.06c-6.64-7.27-11.94-15.41-15-24.92C816.25,415.25,818.46,411.19,815.45,407.39z M1088.68,356.63
			c0.48,0.07,0.97,0.25,1.43,0.2c1.59-0.17,3.57-1.19,4.43,0.85c0.69,1.65-1.24,2.52-2.17,3.59c-1.93,2.2-3.9,4.34-4.75,7.14
			c1.89-0.53,3.22-1.58,4.74-2.09c1.11-0.38,3.53-0.74,3.35,0.67c-0.3,2.39,4.42,2.74,1.81,5.73c-1.26,1.43-5.21,3.74,0.37,5.03
			c0.66,0.15,0.55,1.3,0.01,1.69c-5.45,3.85-4.98,11.06-9.11,15.77c-4.06,4.63-7.5,9.8-11.22,14.73c1.62-0.23,2.61-1.01,3.52-1.88
			c5.16-4.96,10.27-9.97,15.46-14.9c1.64-1.56,3.62-3.96,5.89-1.85c2.55,2.36-0.33,4.08-1.78,5.72c-1.63,1.85-3.81,3.21-5.61,6.78
			c2.87-1.96,4.22,2.35,6.68-0.28c2.21-2.36,5.27-3.48,5.26-8.08c-0.02-8.23-1.98-15.52-5.24-23.02
			c-3.99-9.19-6.69-18.96-7.67-30.17c-2.21,2.91-5.58,6.11-5.12,6.37C1094.48,351.71,1088.48,354,1088.68,356.63z M895.78,894.07
			c-1.53,3.02-1.87,4.33-2.09,7.48c-1.89,27.25-7.81,53.57-17.82,79c-4.07,10.33-4.6,21.3-5.44,32.2c2.78-4.51,3.9-9.53,4.99-14.5
			c2.89-13.22,9.59-25.2,12.34-38.44c2.71-13.01,5.45-26.03,7.74-39.12C897.02,912.07,897.99,903.3,895.78,894.07z M1008.62,352.58
			c1.15-4.64,1.84-9.33,3.32-13.82c5.08-15.51,9.16-31.21,9.65-47.64c0.03-1.12,0.61-2.35-1.09-2.79c-3.05-0.8-6.73,1.33-7.07,4.54
			c-1.21,11.58-3.11,23.03-5.31,34.45C1006.5,335.7,1008.84,344.09,1008.62,352.58z M1145.26,465.07c0.03-5.48-0.49-10.19,0.7-14.89
			c0.67-2.63,0.99-5.47,0.67-8.36c-0.92-8.2-6.84-14.34-8.11-22.76c-3.52,3.93-0.61,8-2.49,11.58
			C1129.94,442.27,1133.72,456.81,1145.26,465.07z M922.39,724.63c1.83-1.36,1.95-3.14,2.41-4.64c3.46-11.27,6.81-22.57,10.15-33.87
			c2.16-7.32,4.2-14.68,5.43-22.23c0.2-1.22,0.81-2.78-0.87-3.5c-1.56-0.67-2.4,0.51-3.24,1.6c-2.04,2.67-3.56,5.55-4.53,8.8
			c-4.22,14.07-5.27,28.73-8.18,43.04C922.89,717.2,921.7,720.57,922.39,724.63z M1077.27,353.58c6.02-3.75,9.1-11.06,16.54-13.09
			c0.33-0.09,0.54-1.19,0.54-1.82c0-10.27,0.73-20.5,2.59-31.82c-7.89,5.65-15.4,9.82-22.07,16.96c4.42-0.6,6.9-2.57,9.04-4.42
			c3.93-3.4,5.83,1.1,8.15,2.08c1.79,0.76-1.27,3.06-2.3,4.48c-1.74,2.42-4.1,4.39-5.88,6.78c-2.29,3.08-6.14,4.86-7.87,9.6
			c1.83-1.08,2.95-1.69,4.01-2.39c2.01-1.32,4.38-1.75,5.99-0.08c1.89,1.97-0.49,3.52-1.57,4.99
			C1082.24,347.89,1078.88,349.96,1077.27,353.58z M998.29,224.32c13.14-1.01,25.05-0.86,36.91,0.68c1.37,0.18,3.33,0.9,3.98-0.91
			c0.76-2.12-0.29-4.22-1.28-6.15c-0.96-1.87-2.48-1.07-3.92-0.81c-9.78,1.78-19.07,0.59-27.63-4.71c-1.63-1.01-3.16-1.18-3.12,1.04
			C1003.31,217.39,1001.16,220.26,998.29,224.32z M1058.6,34.36c1.21,9.82-1.13,17.47-7.24,24.52c-5.36,6.19-4.49,8.85,3.66,10.74
			c1.92,0.44,3.99,0.71,5.93,0.48c6.42-0.74,11.91,0.48,15.42,7c1.11-6.83-1.79-10.6-7.19-10.59c-4.24,0.01-9.72,2.58-12.32-2.06
			c-3.01-5.38,2.14-9.17,5.02-13.06C1066.53,45.09,1065.69,39.55,1058.6,34.36z M833.4,327.78c-0.07,5.02-1.06,10.25,5.13,12.56
			c6.48,2.41,11.3,7.17,16.1,11.91c3.27,3.23,6.99,5.67,11.72,6.88c-0.16-2.43-0.38-4.38-0.39-6.34c-0.01-2.57-1.02-4.18-3.4-5.47
			C852.32,341.74,841.28,337.31,833.4,327.78z M837.14,357.42c-1.29,7.61,3.08,13.11,1.99,19.32c-0.33,1.9,0.78,4.31,3.42,4.9
			c0.88,0.19,1.83,0.08,2.19-0.72c1.15-2.52-0.95-3.49-2.44-4.74c-1.05-0.88-0.94-2.02-0.65-3.2c0.17-0.69,0.55-0.58,1.09-0.53
			c7.03,0.62,14.18,1.58,18.12,8.23c2.51,4.24,5.42,4.92,10.01,3.77C861.1,373.84,846.91,369.47,837.14,357.42z M953.44,646.11
			c-2.09,5.49-6.7,9.86-7,15.99c-0.26,5.37-1.24,10.6-2.43,15.78c-3.87,16.84-7.98,33.62-11.83,50.46
			c-1.02,4.48-1.45,9.09-2.15,13.64c0.41,0.08,0.81,0.16,1.22,0.23C937.78,710.01,945.44,678.06,953.44,646.11z M913.85,489.45
			c-2.5,3.22-4.89,3.76-7.73,2.14c-1.73-0.99-3.75-1.41-5.41-2.31c-2.39-1.3-3.1-0.32-3.39,1.57c-0.54,3.49,0.9,6.77,1.58,10.11
			c0.3,1.48,1.71,1.91,3.02,0.52c2.61-2.75,6.18-3.76,9.49-5.27c2.71-1.24,5.42-2.53,8.02-3.99c1.83-1.03,1.83-3.03,1.83-4.87
			c0-0.9-0.67-1.89-1.51-1.53c-5.27,2.25-11.01-0.05-17.77,2C906.63,488.46,909.85,488.9,913.85,489.45z M868.57,375.41
			c1.55-7.55-3.84-10.62-8.96-13.54c-7.05-4.01-13.38-9.05-20.17-13.42c-1.13-0.73-1.91-3.12-3.51-1.73c-1.26,1.1-0.42,3.1,0.09,4.7
			c0.54,1.7,2.12,1.88,3.4,2.6c5.85,3.28,11.91,5.96,16.69,11.19C859.61,369.04,862.95,373.68,868.57,375.41z M956.71,18.35
			c7.58-9.13,16.33-7.65,25.42-3.52c0.75,0.34,1.55,0.59,2.35,0.8c4.43,1.18,11.71-1.3,13.93-4.93c-3.91,0.04-7.67,0.46-11.44-0.35
			c-3.71-0.8-7.38-1.7-11.06-2.58C966.35,5.5,960.5,8.61,956.71,18.35z M1033.73,38.27c-0.99-1.39-0.05-4.83-2.62-5.39
			c-2.43-0.52-1.39,2.79-2.42,4.12c-0.71,0.91-1.31,1.92-1.97,2.87c-3.27,4.67-8.07,7.25-12.98,9.82
			c-7.44,3.89-5.41,4.41-2.25,10.75c0.32,0.64,1.23,1.29,1.92,1.36c1.46,0.14,1.3-1.23,1.4-2.13c0.62-5.51,3.76-8.97,8.63-11.35
			c2.67-1.3,5.07-3.19,7.49-4.94C1032.42,42.31,1033.71,40.97,1033.73,38.27z M1120.97,1078.24c-3.84,2.32-5.21,4.69-4.25,8.35
			c1.13,4.31,1.72,8.75,2.93,13.03c1.76,6.23,3.25,12.61,7.67,17.97C1125.23,1104.66,1123.14,1091.73,1120.97,1078.24z
			 M979.6,679.11c3.22-9.69,4.94-19.69,6.12-29.77c0.26-2.21-2.07-3.25-4.17-3.38c-2.44-0.15-2.35,1.91-2.52,3.5
			C977.98,659.3,978.38,669.15,979.6,679.11z M970.42,673.57c1.09-2.83,0.68-5,0.88-7.11c0.66-6.98-0.96-14.32,3.02-20.8
			c0.78-1.27,0.14-1.73-0.86-2.22c-3.1-1.5-5.35-1.28-6.25,2.64C965.08,655.36,965.78,664.29,970.42,673.57z M993.69,674.22
			c0.31,1.3-0.36,2.86,1.19,3.18c1.36,0.29,2.05-1.06,2.48-2.06c1.31-3.03,3.1-5.71,4.88-8.48c4.24-6.6,2.78-9.97-3.59-11.86
			c-2.66-0.79-3.03,0.48-3.08,2.21C995.41,663.02,994.94,668.77,993.69,674.22z M854.54,1062.8c-4.88,7.79-8.75,15.88-8.64,25.39
			c0.11,8.9-3.88,17.42-2.89,26.41c2.22-8.51,4.15-17.04,5.84-25.62C850.58,1080.22,853.77,1071.79,854.54,1062.8z M1203.1,413.08
			c1.19,5.76,4.76,9.23,4.83,13.83c0.08,5.14-0.28,10.28-0.49,15.42c-0.39,9.37,1.28,18.33,5.29,27.81
			c0.11-1.55,0.34-2.23,0.18-2.81c-3.3-12.54-3.34-25.26-2.04-38.03C1211.54,422.69,1208.57,417.98,1203.1,413.08z M969.71,85.93
			c-0.85-0.25-1.21-0.49-1.42-0.4c-5.86,2.48-7.69,7.15-4.45,13.98c3.76,7.92,3.13,14.68-3.27,20.8c-0.68,0.65-1.36,1.61-1.43,2.48
			c-0.12,1.34,0.68,2.24,2.22,1.6c6.22-2.6,9.42-11.3,6.61-17.71C964.83,99.53,961.92,92.35,969.71,85.93z M1171.47,350.83
			c-0.25,4.95,1.3,9.49,2.87,14.02c3.44,9.9,10,18.3,13.55,28.16c0.72,1.99,2.35,4.64,4.66,3.25c2.11-1.27-0.07-3.83-1.03-5.11
			c-3.26-4.37-6.29-8.83-8.98-13.57C1177.73,369.11,1174.13,360.18,1171.47,350.83z M1064.8,60.65c4.19-0.47,6.87-0.86,9.58-1.03
			c2.06-0.13,2.7-0.87,1.82-2.81c-1.4-3.09-0.37-5.64,1.49-8.29c3.19-4.56-0.04-13.35-5.87-14.77
			C1080.32,44.95,1073.2,52.37,1064.8,60.65z M1098.61,615.13c2.57,0.36,4.77-0.62,6.86-2.14c1.63-1.18,2.37-2.49,0.84-4.08
			c-2.16-2.25-4.45-4.39-6.83-6.41c-0.66-0.56-1.97-0.9-2.73-0.63c-1.13,0.4-0.5,1.71-0.5,2.64c0.01,2.65,0.51,5.4-0.05,7.92
			C1095.63,614.98,1095.78,615.9,1098.61,615.13z M972.98,75.15c-6.15-0.93-18.53,4.68-21.4,9.69c-3.01,5.27-2.67,7.87,1.58,12.1
			C956.16,83.85,957.94,80.12,972.98,75.15z M1140.49,493.03c-4.48-4.3-9.57-4.58-13.79-6.83c-3.51-1.88-6.12-5.17-10.1-6.13
			c-0.84-0.2-1.97-1.2-2.54,0.26c-0.44,1.14,0.46,1.87,1.39,2.29c2.74,1.26,5.25,2.95,7.31,5.06
			C1127.51,492.55,1133.49,492.75,1140.49,493.03z M1017.01,9.42c10.58-0.67,20.25-1.17,25.96,9.29c0.42,0.77,1.51,1.24,2.37,1.71
			c0.75,0.41,1.73,0.55,2.18-0.32c0.21-0.41-0.15-1.24-0.44-1.77C1041.1,7.55,1029.5,3.96,1017.01,9.42z M1007.23,685.13
			c2.94-1.59,7.41,0.48,7.13-5.12c-0.34-6.77-0.5-13.55,1.37-20.19c0.33-1.17,0.64-2.93-1.38-3.01c-2.09-0.08-2.28,1.34-1.94,3.07
			c0.77,3.94,0.15,7.81-0.22,11.77C1011.72,676.48,1008.1,679.86,1007.23,685.13z M946.94,109.36c-0.15-0.99-3.95-26.69-4-27.05
			c-5.67,2.75-5.89,8.13-5.47,12.79C937.99,100.84,940.84,105.91,946.94,109.36z M1097.42,445.27c-3.08,4.11-6,8.01-8.92,11.91
			c-0.39,0.53-0.83,1.03-1.18,1.58c-0.44,0.68-1.01,1.57-0.12,2.14c0.77,0.5,1.9,0.94,2.73,0.77
			C1094.52,460.7,1099.42,450.42,1097.42,445.27z M1088,485.51c6.77-0.8,15.72-13.4,13.69-19.47
			C1097.06,472.63,1092.64,478.92,1088,485.51z M955.85,62.34c-7.03-0.37-14.03-0.14-20.8,2.32c-0.15,0.05-0.28,0.17-0.4,0.29
			c-0.72,0.69-1.57,1.46-0.87,2.48c0.56,0.82,1.53,0.37,2.25,0.01c2.79-1.4,5.77-1.2,8.74-1.15
			C948.82,66.37,952.43,65.04,955.85,62.34z M1002.36,37.15c4.55-0.51,8.19-0.61,9.02-5.09c0.67-3.63,0.92-7.35,2.93-10.69
			C1008.85,25.16,1006.29,30.97,1002.36,37.15z M1100.15,57.99c-0.47-4.85-2.05-8.03-4.32-10.9c-0.87-1.11-1.37-3.2-3.07-2.8
			c-1.87,0.43-1.44,2.74-2.04,4.2c-0.56,1.34-1.35,3.14,0.64,3.84C1094.37,53.38,1096.53,55.73,1100.15,57.99z M1105.84,417.57
			c-6.42,5.83-7.47,13.95-13.48,19.86c2.71-0.23,5.11,0.32,5.65-1.11C1100.29,430.25,1105.51,425.38,1105.84,417.57z M928.61,670.73
			c2.18-4.28,4.17-7.76,5.74-11.43c1.17-2.73-1.53-3.63-3.12-4.82c-0.93-0.7-2.09-0.26-2.01,1.07
			C929.5,660.35,927.23,665.06,928.61,670.73z M987.16,58.76c-0.56,2.16-1.03,3.12,0.05,3.48c1.2,0.4,2.24-0.39,3.2-1.01
			c1.3-0.85,1.04-2,0.28-3.01c-2.72-3.59-3.99-7.58-3.7-12.09c0.08-1.25,0.52-2.85-1.3-3.29c-0.72-0.17-1.81-0.07-2.3,0.38
			c-1.25,1.15-0.2,2.46,0.21,3.65C985.1,51.19,987.51,55.29,987.16,58.76z M1205.1,488.5c12.12-2.02,14.09-6.07,7.26-16.8
			C1214.63,480.25,1211.31,485.1,1205.1,488.5z M937.97,48.38c4.01-0.38,8.25-1.65,12.16-3.93c0.85-0.5,1.61-1.26,1.43-2.4
			c-0.14-0.85-0.88-0.93-1.52-0.7c-4.35,1.56-8.69,3.12-13,4.77c-0.7,0.27-1.59,0.82-1.22,1.85
			C936.08,48.71,936.82,48.66,937.97,48.38z M847.22,498.47c-5.5,2.35-10.83,0.62-16.18-0.2c2.39,2.71,3.62,7.28,8.31,5.17
			C842.15,502.17,844.61,500.15,847.22,498.47z M881.75,512.26c-0.43-0.58-0.87-1.16-1.3-1.73c-5.05,4.69-12.63,5.95-15.48,13.67
			C870.56,520.21,876.15,516.23,881.75,512.26z M1023.35,688.54c-3.27,4.39-2.23,8.18-0.85,11.93c0.34,0.92,1.27,1.62,2.42,1.13
			c0.89-0.39,1.11-1.37,0.86-2.12C1024.65,696.19,1025.46,692.5,1023.35,688.54z M975.73,566.12c6.67,0.78,13.36,1.27,20.01-0.12
			C989.07,565.66,982.42,564.36,975.73,566.12z M880.91,594.35c-1.92,1.88-5.59,2-5.34,4.55c0.24,2.36,3.48,2.95,6.11,3.72
			C882.06,599.76,882.02,597.28,880.91,594.35z M1096.99,105.57c-0.48-1.06-1.08-2.59-1.85-4.02c-0.52-0.97-0.66-2.49-1.92-2.65
			c-1.33-0.17-1.8,1.26-2.39,2.2c-0.81,1.31-0.51,2.48,0.64,3.52c0.98,0.88,1.82,1.91,2.81,2.77c0.44,0.39,1.15,0.82,1.64,0.72
			C1096.9,107.92,1096.88,106.93,1096.99,105.57z M1081.05,524.9c-4.34,4.38-8.81,8.65-11.37,14.39
			C1074.45,535.26,1078.13,530.38,1081.05,524.9z M1099.29,866.05c-2.09,4.35-0.76,7.77,0.79,11.09c0.54,1.16,1.85,1.49,2.98,0.82
			c1.17-0.7,0.39-1.77,0.06-2.61C1101.99,872.48,1100.78,869.64,1099.29,866.05z M1053.88,462.09c4.59-5.17,9.18-10.34,13.77-15.51
			c-0.34-0.3-0.67-0.59-1.01-0.89C1061.8,450.62,1057.23,455.79,1053.88,462.09z M1061.41,421.28c0.31,0.3,0.63,0.6,0.94,0.9
			c3.96-4.59,7.92-9.18,11.88-13.77c-0.32-0.28-0.65-0.55-0.97-0.83C1068.82,411.7,1064.87,416.27,1061.41,421.28z M1083.63,100.49
			c-2.15,0.69-4.9,0.87-4.42,3.67c0.44,2.52,1.97,4.67,5.54,4.51C1083.76,105.89,1082.76,103.44,1083.63,100.49z M1107.5,287.71
			c-3.36,3.1-7.46,5.68-8.02,10.84C1102.48,295.18,1106.6,292.69,1107.5,287.71z M845.54,400.64c-1.16-5.22-0.6-10.9-4.14-15.49
			C843.38,390.15,841.86,396.09,845.54,400.64z M946.81,566.51c-3.36-2.63-6.95-2.43-10.27-3.19c-0.87-0.2-1.7,0.14-1.89,1.12
			c-0.21,1.1,0.66,1.28,1.48,1.51C939.5,566.86,942.9,567.29,946.81,566.51z M876.68,466.74c0.18,0.05,0.36,0.11,0.54,0.16
			c1.29-2.43,2.57-4.86,3.88-7.28c0.7-1.3,1.98-2.89-0.23-3.64c-1.76-0.6-2.65,1.08-2.94,2.6
			C877.41,461.28,877.09,464.02,876.68,466.74z M850.11,505.24c-1.32-0.14-2.18,0.73-3.03,1.44c-1.04,0.87-2.93,1.49-1.61,3.45
			c0.74,1.1,1.58,2.44,2.99,2.37c2.39-0.11,1.41-2.25,1.54-3.48C850.13,507.8,851.03,506.52,850.11,505.24z M1071.85,386.46
			c-3.96,3.19-7.92,6.39-11.88,9.58C1065.05,393.95,1067.87,389.65,1071.85,386.46z M923.8,270.65c-4.71-0.12-8.24,2.56-11.88,4.98
			C916.08,274.45,920.44,273.8,923.8,270.65z M1054.17,7.71c-0.24,0.31-0.49,0.61-0.73,0.92c1.28,1.92,2.49,3.89,3.88,5.74
			c0.8,1.06,2.08,1.26,3.08,0.36c1.07-0.95,0.13-1.84-0.58-2.45C1057.97,10.71,1056.05,9.23,1054.17,7.71z M893.47,466.56
			c2.26-1.53,4.57-2.23,3.95-4.95c-0.29-1.28-2-2.62-3.01-1.92C892.1,461.29,893.55,463.76,893.47,466.56z M1101.54,413.59
			c5.15,0.99,6.03-0.34,4.06-6.1C1104.19,409.52,1102.04,410.98,1101.54,413.59z M1082.59,652.95c1.43-2.77,0.8-5.43,0.13-8.09
			c-0.23-0.91-0.36-2.13-1.76-1.71c-1.19,0.36-1.3,1.46-0.8,2.39C1081.41,647.88,1081.83,650.44,1082.59,652.95z M921.1,474.05
			c-0.33-3.79-3.27-5.14-5.09-7.28c-0.03-0.03-1.03,0.6-1,0.69C916.14,470.26,917.26,473.11,921.1,474.05z M1095.91,659.02
			c-0.48,0-0.96,0-1.44,0c0.3,4.16,0.6,8.31,0.9,12.47C1096.68,667.31,1096.62,663.16,1095.91,659.02z"/>
		<path d="M952.82,377.26c-1.27,6.93-3.3,13.41-7.31,19.05c-6.27,8.82-14.75,15.24-23.8,20.9c-1.81,1.13-4.46,3.4-6.45,0.07
			c-1.94-3.24,0.04-5.45,2.72-6.9c14.15-7.66,23.46-19.23,28.5-34.42c0.58-1.76,1.05-4.51,3.62-3.94
			C952.56,372.57,952.13,375.47,952.82,377.26z"/>
		<path d="M949.99,428.98c-3.48,0.07-3.02-2.26-1.95-3.98c4.97-7.98,10.14-15.85,15.31-23.71c0.86-1.3,2.57-2.41,3.82-1.61
			c1.84,1.19-0.08,2.61-0.69,3.76c-4.78,9.04-9.31,18.25-16.63,25.65C949.84,429.11,949.99,428.98,949.99,428.98z"/>
		<path d="M965.56,419.04c0.43-4.05,2.07-6.93,7.27-12.76C972.72,409.85,968.85,416.65,965.56,419.04z"/>
		<path d="M904.16,327.38c3.94-3.98,8.93-5.16,14.21-5.61C913.63,323.64,908.89,325.51,904.16,327.38z"/>
		<path d="M1010.7,118.71c-1.81,1.45-3.09,2.81-4.65,3.6c-1.65,0.83-4.06,1.01-5.1-0.43c-1.45-2,1.84-2.12,2.49-4.17
			c-5.27-0.29-10.48,0.23-15.35-2.18c-6.57-3.26-6.88-5.43-1.34-10.35c3.25-2.88,7.09-4.15,12.13-5.71
			c-4.31-1.25-7.68-0.47-10.99-0.55c-3.6-0.08-4.43-1.65-2.55-4.69c1.57-2.54,3.87-4.3,6.75-4.76c6.56-1.04,12.91,0.41,19.07,2.52
			c1.77,0.61,2.94,2.29,2.54,4.39c-0.65,3.47-3.68,3.25-6.35,4.12c2.55,1.22,4.08,6.55,7.98,1.36c0.67-0.9,1.93-1.51,3.13-1.08
			c1.48,0.53,1.06,1.91,0.9,3.02c-1.08,7.55-1.58,15.12-4.48,22.42c-1.79,4.5-2.09,9.6-3.8,14.3c-0.77,2.12-0.26,4.45,3.52,4.23
			c4.62-0.27,9.47,2.27,13.77-1.49c0.65-0.57,1.68-0.31,2.18,0.49c0.51,0.81-0.05,1.55-0.49,2.27c-4.95,8.28-16.32,9.5-22.37,2.19
			c-2.92-3.53-1.93-7.48-0.02-11.24C1009.65,133.1,1011.28,123.58,1010.7,118.71z M994.62,105.38c-1.39,0.64-3.4,1.06-3.71,2.73
			c-0.33,1.8,1.67,1.6,2.86,1.86c1.6,0.35,2.59-0.23,2.55-2C996.3,106.83,996.4,105.57,994.62,105.38z"/>
		<path d="M1053.27,97.8c4.27,1.96,6.32,5.08,7.9,8.86c1.47,3.52,0.66,5.03-2.83,6.18c-4.36,1.44-8.82,1.35-13.27,1.72
			c-1.33,0.11-3.52,0.16-3.69,1.9c-0.17,1.76,1.92,2.07,3.25,2.57c2.67,1.01,5.47,1.39,8.33,1.24c0.93-0.05,2.29-0.3,2.22,1.16
			c-0.05,1.07-1.18,1.58-2.23,1.62c-1.16,0.04-2.39,0.11-3.47-0.22c-7.3-2.22-14.23-5.26-20.53-9.64c-1.65-1.15-2.69-2.63-2.44-4.58
			c0.21-1.67,1.79-2.61,3.23-2.72c4.86-0.38,7.11-4.52,10.95-6.9c-1.28-1.08-2.32-0.75-3.35-0.41c-2.21,0.74-4.38,0.14-5.01-1.9
			c-0.74-2.39,1.64-3.42,3.46-4.12c7.16-2.75,14.63-3.1,22.11-2.07c3.61,0.5,6.15,2.92,7.9,6.91
			C1061.54,96.75,1057.6,94.69,1053.27,97.8z M1052.77,109.36c0.99-0.51,3.49,0.59,3.71-1.64c0.17-1.8-1.66-3.58-3.3-3.88
			c-2.65-0.48-2.15,2.44-2.81,3.87C1049.64,109.3,1051.01,109.59,1052.77,109.36z"/>
		<path d="M1000.36,164.9c4.33-2.88,8.96-4.02,13.34-3.39c4.97,0.71,9.53-0.09,14.23-1c5.38-1.04,10.81-1.83,16.22-0.27
			c1.18,0.34,2.82,0.72,2.87,2.35c0.05,1.64-1.49,2.27-2.73,2.45c-8.18,1.22-15.88,4.66-24.69,3.17
			C1013.54,167.18,1007.2,167.48,1000.36,164.9z"/>
		<path d="M1025.89,178.57c-2.58-0.58-5.18-1.08-7.71-1.81c-0.64-0.18-1.42-1.05-1.52-1.7c-0.15-1.03,1.02-1.2,1.76-1.35
			c3.9-0.8,7.8-1.58,11.72-2.2c1.92-0.3,3.99,0.28,4.56,2.2c0.62,2.1-1.67,2.55-3.03,3.3C1029.91,177.99,1028,178.59,1025.89,178.57
			z"/>
		<path d="M1037.36,695.64c1.91,3.95,3.75,7.83,2.58,12.23C1039.08,703.8,1038.22,699.72,1037.36,695.64z"/>
		<path d="M861.68,322.55c-11.87-4.46-21.76-11.54-29.23-21.83C843.47,306.26,853.55,313.09,861.68,322.55z"/>
		<path d="M861.45,313.44c-12.23-5.34-22.16-13.24-28.84-24.81C842.2,296.93,854,302.68,861.45,313.44z"/>
	</g>
</g>
</svg>
