<?xml version="1.0" encoding="utf-8"?>
<!-- Generator: Adobe Illustrator 26.0.2, SVG Export Plug-In . SVG Version: 6.00 Build 0)  -->
<svg version="1.1" id="Layer_1" xmlns="http://www.w3.org/2000/svg" xmlns:xlink="http://www.w3.org/1999/xlink" x="0px" y="0px"
	 viewBox="0 0 1920 1080" style="enable-background:new 0 0 1920 1080;" xml:space="preserve">
<g>
	<g>
		<path d="M990.86,747.46c-4.48,18.98-12.79,36.54-17.73,55.07c-5.04,18.91-11.57,37.41-15.17,56.74
			c-1.84,9.9-6.14,19.32-8.36,29.17c-3.56,15.79-8.45,30.9-16.42,45.13c-6.73,12.01-12.55,24.67-12.85,38.82
			c-0.12,5.56,1.47,11.13,2.07,16.72c2.49,23.26,7.23,46.34,6.26,69.87c-0.34,8.29-2.96,16.24-5.28,24.22
			c-2.48,8.55-5.02,17.09-6.74,25.87c-4.13,20.99-8.83,41.88-15.62,62.19c-1.78,5.31-5.01,10.08-8.23,14.75
			c-1.32,1.9-2.45,3.66-5.29,2.45c0.27,2.67,2.35,3.75,3.34,3.83c5.11,0.43,4.95,4.14,5.19,7.57c0.87,12.79-6.84,22.03-19.91,24.31
			c-11.02,1.92-21.71-0.22-32.5-2.02c-11.09-1.85-11.57-1.35-17.13,8.15c-7.03,12.01-16.61,20.79-30.94,22.65
			c-7.51,0.97-15.06,0.64-22.64-0.75c-11.77-2.16-22.27-7.32-32.81-12.51c-6.59-3.25-13.61-5.62-19.7-9.92
			c-1.39-0.98-2.61-2.05-3.69-3.28c-5.82-6.61-4.42-11.36,4.26-12.75c11.48-1.83,21.12-7.79,31.21-12.78
			c14.17-7.01,28.53-13.69,42.94-20.12c14.52-6.48,29.31-12.5,44.01-18.65c2.61-1.1,1.88-2.78,2.03-4.37
			c1.05-10.58-0.3-21.42,2.07-31.79c5.2-22.76,3.57-46.02,6.07-68.95c1.54-14.13,0.1-28.31,1.78-42.39
			c0.79-6.6,2.24-13.16,1.74-19.86c-0.74-9.92-2.37-19.81-5-29.31c-2.52-9.07-2.15-17.34,2.96-24.83
			c9.54-13.98,12.54-29.46,12.43-45.95c-0.05-6.66,1.54-13.61,0.13-19.92c-2.46-11.01-2.83-22.05-1.82-32.95
			c3.05-32.88-0.13-65.94,3.43-98.78c0.54-4.94,0.08-9.99,0.29-14.98c0.11-2.57-0.74-3.99-3.3-4.71
			c-9.61-2.69-16.65-8.95-21.97-17.04c-3.2-4.87-7.19-7.73-12.75-9.47c-18.12-5.65-35.46-13.29-51.68-23.09
			c-5.16-3.12-10.3-4.78-15.96-6.2c-15.5-3.88-28.38-12.5-38.35-24.75c-5.37-6.59-3.76-15.03-1.08-22.49
			c4.34-12.04,9.8-23.67,14.02-35.75c11.04-31.57,18.48-64.27,29.04-95.97c8.26-24.81,11.72-50.48,16.4-75.95
			c6.17-33.59,18.09-65.29,30.46-96.89c5.52-14.09,10.63-28.32,15-42.82c2.1-6.96,7.02-11.21,14.05-12.8c4.27-0.96,8.16-2.6,12-4.67
			c14.03-7.57,29.26-7.43,44.64-7.02c7.13,0.19,14.14,1.17,21.22,1.56c2.75,0.15,3.93-0.85,2.19-3.49
			c-1.83-2.79-2.16-5.84-2.09-9.08c0.1-4.54-0.27-9.01-3.18-12.83c-0.3-0.39-0.58-0.87-0.64-1.34c-1.34-10.86-2.22-21.68,3.37-31.81
			c0.08-0.14,0.2-0.27,0.3-0.4c1.64-2.16,4.22-5.01,6.26-3.82c2.21,1.29,0.16,4.64-1.05,6.64c-3.62,5.98-5.23,12.65-7.24,19.26
			c3.56-3.42,3.81-9.54,10.01-11.24c-1.61,6.89-4.49,13.3-3.18,21.42c4.14-5.07,3.99-11.57,10.99-14.76
			c-3.62,6.93-6.08,12.93-7.32,19.34c-1.27,6.54-0.87,12.84,2.75,19.11c-0.05-11.35,2.77-21.68,10.07-31.39
			c-0.06,4.79-2.02,8.29-2.8,12.05c-2.88,13.71-3.33,27.28,2.71,40.42c0.61,1.32,1.16,2.54,2.84,2.05c1.91-0.56,1.11-2.12,0.94-3.34
			c-1.8-12.54-1.07-24.9,2.51-37.06c0.61-2.08,1.39-4.08,3.4-6.1c-1.23,6.6-2.6,12.62-3.42,18.73c-1.06,7.94-0.9,15.91,0.76,23.82
			c0.64,3.04,2.34,5.48,4.02,7.95c0.54,0.79,1.17,1.98,2.3,1.47c1.57-0.7,0.54-2.02,0.22-3.01c-3.72-11.77-3.36-23.6-0.59-35.48
			c0.19-0.81,0.16-1.69,0.47-2.44c0.95-2.26,1.91-5.59,4.78-4.63c2.05,0.69,0.65,3.89,0.17,5.81c-2.89,11.52-2.39,23.09-0.83,34.7
			c0.07,0.49,0.12,1,0.24,1.48c0.67,2.64,2.81,4.87,4.99,4.49c1.93-0.34,2.98-3.21,2.48-5.82c-1.99-10.53-2.38-21.18-2-31.86
			c0.11-3.23,0.65-6.45,1.59-9.67c0.57,8.89,0.83,17.75,1.72,26.56c0.38,3.81,0.68,7.63,1.15,11.43c0.21,1.69-0.18,4.02,2.56,4.08
			c3.02,0.06,2.17-2.47,2.29-4.04c0.8-10.48,0.31-20.98,0.08-31.47c-0.05-2.47-0.63-6.34,1.52-6.72c3.19-0.57,2.8,3.58,3.32,5.67
			c3,12.2,4.61,24.58,1.67,37.01c-0.71,3.01,0.73,4.56,2.57,4.89c2.51,0.44,2.16-2.15,2.38-3.92c1.76-14.57,3.16-29.14-0.17-43.96
			c8.93,7.44,7.62,17.77,8.77,27.28c0.58,4.81-0.22,9.62-1.3,14.34c-0.19,0.83-0.53,1.69,0.34,2.21c0.8,0.48,1.89,0.16,2.25-0.5
			c1.28-2.27,5.42-3.58,2.4-7.39c-1.23-1.55-0.48-3.61-0.05-5.34c2.63-10.6,2.25-21.11-0.56-31.6c-0.22-0.81-0.63-1.75,0.39-2.13
			c1.12-0.41,1.84,0.56,2.45,1.32c4.95,6.16,5.99,13.52,6.29,21.06c0.19,4.83-0.71,9.57-1.7,14.37c7.43-3.06,4.87-10,5.81-15.31
			c1.26-7.13-0.79-14.2-2.09-21.24c-0.34-1.85-1.38-4.44,1.07-5.31c2.39-0.85,3.59,1.33,4.89,3.22c2.29,3.33,3.33,7.2,5.8,12.02
			c1.03-9.12-1.24-16.73-2.19-24.87c5.55,1.21,6.19,6.13,9.41,9.95c-0.27-5.83-2.14-10.24-4.15-14.66c-0.84-1.84-3.15-4.4-0.94-5.71
			c1.56-0.93,4.24,0.76,6.02,2.82c2.44,2.83,3.58,6.28,6.22,9.2c-0.96-4.36-1.95-8.72-2.88-13.09c-0.32-1.53-1.68-3.44,0.27-4.51
			c2.03-1.12,3.27,0.83,4.55,2.09c1.42,1.39,1.41,5.19,3.96,4.12c2.22-0.93,0.21-3.88,0.07-5.93c-0.09-1.31-0.57-2.59-0.7-3.9
			c-0.17-1.68,0.63-3.62,2.31-2.9c3.08,1.31,3.32-0.85,4.08-2.54c0.43-0.95,0.75-1.86,2-1.87c1.6-0.02,1.82,1.22,2.07,2.35
			c1.6,7.16,3.92,14.39-3.32,20.17c-1.56,1.24-1.41,3.52-0.88,5.2c1.54,4.89-0.77,8.32-3.82,11.59c-1.03,1.1-2.39,2.15-2.43,3.68
			c-0.14,4.77-2.68,8.44-5.08,12.24c-1.64,2.59-2.02,4.35,1.97,5.7c7.52,2.55,15.29,2.41,22.68,1.51
			c15.13-1.85,28.62,2.69,41.82,8.68c10.55,4.78,16.5,13.31,19.58,24.75c4.57,16.99,8.62,34.08,12.88,51.14
			c1.99,7.96,6.31,15.35,9.76,22.91c6.98,15.3,11.73,31.44,17.87,47.04c10.65,27.05,21.63,53.97,32.07,81.1
			c4.65,12.08,7.64,24.82,12.59,36.76c10.07,24.27,18.3,49.23,28.19,73.55c2.62,6.44,6.58,12.33,9.51,18.65
			c4.07,8.77,7.5,17.84,7.51,27.67c0.02,11.11-4.65,16-15.62,18.47c-12.45,2.81-24.51,7.04-36.54,11.3c-2.82,1-4.36,3.54-6.44,5.41
			c-10.72,9.69-24.02,13.16-37.64,15.89c-1.13,0.23-2.39,0.07-3.43,0.49c-8.76,3.52-17.49,7.11-26.2,10.74
			c-2.95,1.23-4.04,3.21-3.48,6.72c3.3,20.97,8.64,41.67,9.69,62.93c0.57,11.58,0.15,23.3-0.94,34.85
			c-0.74,7.82-1.13,15.49-0.43,23.29c1.69,18.89,1.48,37.85,2.13,56.78c0.63,18.22-0.15,36.67,4.1,54.51
			c2.68,11.26,1.08,21.34-3.66,31.38c-5.39,11.41-4.84,23.54-4.15,35.64c0.79,13.77,1.46,27.57,2.8,41.29
			c2.37,24.31,1.34,48.87,6.07,73.02c2.04,10.4,2.54,21.08,4.71,31.51c0.57,2.74,1.58,4.29,4.11,5.59
			c10.48,5.38,21.41,10.15,30.9,17.14c12.24,9.02,26.71,14.33,38.67,23.46c12.81,9.78,27.27,16.35,41.11,24.15
			c1.06,0.6,2.12,1.15,2.07,2.52c-0.27,7.69-2.53,15.67-10.79,17.81c-18.7,4.84-37.23,10.15-57.2,6.95
			c-10.47-1.68-16.74-8.31-24.05-14.17c-4.35-3.49-8.39-7.48-13.12-10.34c-2.51-1.52-5.98-2.17-9.25,0.45
			c-5.92,4.73-12.28,5.49-19.98,3.13c-8-2.46-16.31-4.27-24.26-6.93c-7.17-2.4-13.9-6.55-15.37-14.75
			c-0.82-4.58,0.45-9.53,0.71-14.31c0.42-7.9,1.24-15.74-2.36-23.36c-2.13-4.5-0.85-9.84-2.56-14.67
			c-3.5-9.9-8.24-19.23-12.53-28.76c-5.45-12.09-9.18-24.59-10.9-37.69c-1.69-12.86-3.86-25.69-4.73-38.61
			c-1.35-20.13,1.1-40.27,0.89-60.42c-0.11-10.67,1.36-21.47-2.04-31.98c-1.91-5.91-4.29-11.73-7.73-16.73
			c-7.19-10.44-9.1-22.34-11.16-34.3c-2.82-16.37-5.22-32.81-9.15-48.97c-2.06-8.47-2.33-17.16-2.86-25.77
			c-1.38-22.17-6.25-43.37-16.5-63.17C997.13,762.11,994.79,754.52,990.86,747.46z M1058.23,961.91
			c12.85-10.23,26-18.03,39.41-25.42c4.58-2.52,9.57-3.81,14.88-2.45c1.63,0.42,3.61,0.82,3.22,3.03c-0.47,2.66,0.59,3.27,2.91,2.99
			c2.96-0.36,1.58-2.54,1.41-3.84c-0.83-6.25-2.11-12.44-2.83-18.69c-1.7-14.74-2.5-29.54-2.17-44.38c0.03-1.11,0.23-3.3-0.57-3.15
			c-5.05,0.91-2.4-2.85-2.29-4.1c1.02-11.76,2.29-23.5,3.54-35.24c1.16-10.86,2.04-21.72,1.35-32.88c-4.08,2.24-6.27,0.79-9.75-6.02
			c2.21-0.56,4.27,0.33,6.38,0.47c1.34,0.09,3.21,1.23,3.38-1.34c0.12-1.73,0.7-3.85-1.92-4.46c-1.45-0.34-2.95-0.51-4.38-0.89
			c-5-1.34-9.67-3.35-15.05-6.85c6.61-1.85,11.76-2.1,16.85-1.24c3.44,0.58,4.54-0.2,4.08-3.75c-0.84-6.43-1.17-12.94-2.08-19.35
			c-0.59-4.12,0.03-8.49-2.17-12.88c-1.79,2.6-3.64,4.43-6.28,5.28c-6.94,2.24-14.4,2.09-21.29,4.67c-1.12,0.42-2.82,0.83-3.59-0.65
			c-0.73-1.41,0.39-2.57,1.37-3.43c1.37-1.2,2.82-2.37,4.38-3.29c6.95-4.09,14.34-6.96,22.43-7.77c1.44-0.14,3.17,0.31,2.91-2.18
			c-0.84-8.03-1.49-16.07-1.68-24.45c-4.51,4.71-11.35,5.76-15.22,10.99c3.83-0.68,7.25-2.63,11.17-2.23
			c1.76,0.18,3.82,0.55,2.73,2.87c-1.09,2.33-2.23,5.17-4.89,6.05c-8.03,2.65-15.66,6.28-23.48,9.43c-0.89,0.36-2.01,1.05-2.7,0
			c-0.59-0.89-0.02-1.97,0.72-2.69c1.07-1.03,2.23-1.99,3.38-2.93c3.09-2.52,6.19-5.02,9.29-7.53c-6.86,3.48-13.88,6.39-20.34,10.19
			c-13.14,7.75-26.16,14.62-42.07,9.16c-0.98-0.34-2.48-0.92-3.24,0.31c-3.64,5.93-9.63,9.65-13.86,14.98
			c-2.58,3.25-0.55,6.81,1.58,8.86c1.94,1.87,3.22-1.54,4.48-2.85c5.9-6.16,12.85-11.03,19.5-16.28c1.11-0.88,2.59-2.25,3.88-0.84
			c1,1.09-0.29,2.36-0.99,3.52c-3.3,5.49-7.8,9.94-12.35,14.34c-3.61,3.49-6.86,7.26-9.39,11.61c-1.94,3.36,0.65,6,2.31,7.85
			c1.5,1.68,2.7-1.46,3.96-2.53c6.85-5.8,13.51-11.85,20.59-17.37c2.42-1.88,5.23-3.88,8.83-4.37c-0.19,2.91-1.88,4.6-3.14,6.47
			c-6.07,9.04-14.43,16.06-21.53,24.19c-1.99,2.28-4.03,4.51-4.13,7.73c-0.04,1.13-0.02,2.53,1.16,3.1c1.44,0.7,2.05-0.76,2.71-1.58
			c3.8-4.69,8.18-8.8,13.21-12.09c3.16-2.07,6.4-4.36,10.76-4.06c-0.47,2.38-2.07,3.48-3.22,4.81
			c-6.64,7.68-12.91,15.61-18.86,23.87c-3.85,5.34-1.85,10.01-1.34,15.58c8.69-8.24,15.7-17.23,25.1-24.43
			c0.49,2.61-0.9,3.56-1.66,4.75c-5.86,9.15-13.43,16.95-20.44,25.16c-3.65,4.28-2.6,8.1-1.41,13.13
			c4.64-5.53,8.48-10.78,13.02-15.35c4.38-4.41,8.44-9.45,14.89-12.46c-0.18,3.41-1.62,5.31-2.86,7.19
			c-5.3,8.08-11.03,15.89-17.64,22.91c-5.88,6.24-5.48,12.44-1.63,19.56c4.2-5.15,8.35-10.2,13.51-14.31
			c-3.44,5.82-7.17,11.42-10.81,17.07c-4.29,6.65-0.53,13.16-0.14,20.9c5.32-6.9,8.87-13.64,15.43-17.8
			c-3.19,6.73-6.14,13.66-10.48,19.57c-6.33,8.61-2.24,17.35-2.1,26.15c4.32-9.14,8.15-18.35,15.23-25.67
			c-2.6,5.57-4.86,11.25-6.59,17.13c-1.36,4.61-2.21,9.41-3.95,13.86c-2.63,6.73-2.88,6.64,1.08,12.87
			c6.86-14.02,10.84-19.39,15.97-21.51c0.49,1.32-0.47,2.19-0.99,3.18c-3.01,5.74-5.89,11.55-9.1,17.17
			c-3,5.25-3.28,10.13,0.95,14.74c5.48-8.94,7.61-11.41,11.66-13.53C1064.02,945.84,1055.52,951.28,1058.23,961.91z M948.29,751.91
			c4.07,1.61,7.44,3.35,9.93,6.34c3.81,4.57,8.05,8.79,11.09,13.98c0.52,0.88,1.21,2.29,2.59,1.98c1.46-0.33,1.12-1.86,1.32-2.94
			c0.45-2.44,0.64-4.95,1.3-7.34c0.72-2.6,0.49-4.14-2.3-5.55c-3.63-1.83-6.03-5.13-7.14-9.18c-0.38-1.41-0.46-3.5-2.56-2.86
			c-5.82,1.78-11.62,0.7-17.08-0.72c-10.84-2.8-22.18-4.83-30.34-13.78c-1.38-1.52-2.94-3.02-5.38-3.3
			c-4.61-0.53-9.18-0.98-13.85-0.69c-6.27,0.38-12.55,1.69-18.87,0.28c-1.18-0.26-2.63-1.48-3.62,0.08
			c-0.83,1.31-0.65,2.95-0.11,4.35c0.77,2.01,2.43,1.06,3.85,0.95c9.32-0.69,18.62-1,27.72,1.83c1.35,0.42,3.52,0.1,3.46,2.09
			c-0.07,2.44-2.47,1.7-3.94,1.92c-8.82,1.26-17.52-0.66-26.25-1.37c-3.52-0.29-4.99,0.34-5.04,3.84c-0.02,1.5-0.21,2.99-0.36,4.48
			c-0.31,3.07,0.56,4.16,3.94,3.22c6.25-1.74,12.65-2.99,19.16-3.22c2.46-0.09,5.25,0.19,5.84,3.4c0.41,2.25-4.04,7.51-6.11,6.96
			c-7.32-1.94-15.14-1.26-22.94-4.8c0,4.49-0.01,8.56,0,12.63c0,2.15,1.34,2.35,3.04,2.09c4.48-0.68,8.97-0.2,13.45,0.1
			c0.98,0.07,2.1,0.19,2.36,1.41c0.28,1.31-0.86,1.62-1.72,2.08c-4.13,2.25-8.58,2.57-13.06,1.7c-3.84-0.74-5.17,0.61-5.01,4.41
			c0.13,3.2,0.89,4.47,4.44,3.42c2.26-0.67,5.78-1.98,6.49,1.91c0.57,3.09-4.27,6.38-7.44,5.27c-3.21-1.13-3.93,0.13-3.7,2.99
			c0.13,1.66,0.14,3.33,0.13,4.99c-0.02,3.68-1.02,7.98,5.28,7.19c-0.85,1.59-1.2,3.4-2.12,3.78c-4.65,1.89-3.37,5.7-3.4,9.16
			c-0.11,11.8-0.07,23.6-0.88,35.39c-0.97,14.13-1.03,28.31-0.11,42.43c0.65,10.03-0.1,19.9-1.4,29.79c-0.26,1.97-1.5,4.37-0.77,5.8
			c1.33,2.61,3.7-0.25,5.66-0.01c0.49,0.06,1.01,0.06,1.47,0.23c10.7,3.83,20.98,8.16,27.96,17.99c2.25,3.16,3.07,7.24,6.28,10.1
			c0.9-3.94,1.16-7.74,2.64-10.97c2.85-6.22,1.28-11.47-1.99-16.84c-1.16-1.91-2.89-4.02-1.32-7.15c2.07,2.15,3.76,4.17,5.74,5.87
			c1.33,1.14,2.21,4.28,4.39,2.73c2-1.42,3.89-3.78,3.09-6.87c-0.29-1.12-0.76-2.21-1.04-3.33c-1.34-5.49-4.27-10.66-3.58-16.92
			c5.09,3.93,6.57,9.79,9.68,14.68c4.99-6.78,4.84-6.74,2.88-14.2c-2.06-7.85-6.91-14.88-7.33-24.05
			c6.76,5.13,9.45,12.23,13.28,19.42c2.68-6.93,4.13-12.69,1.06-19.09c-2.79-5.83-4.82-12.04-6.87-18.19
			c-0.87-2.62-4.04-6.4-0.83-7.95c2.84-1.38,4.91,2.86,6.48,5.49c2.74,4.58,5.35,9.24,8.02,13.87c0.53-0.22,1.07-0.45,1.6-0.67
			c3.44-19.22-12.48-32.32-17.03-50c8.79,9.25,15.3,19.03,20.73,30.81c2.32-8.61,2.28-8.59,1.49-11.08
			c-5.21-16.33-10.35-32.68-18.75-47.75c-0.58-1.05-2.05-2.36-0.57-3.52c1.57-1.23,2.59,0.46,3.81,1.27
			c6.35,4.2,9.99,10.44,13.13,17.08c2.63,5.56,5.27,11.13,8.19,17.3c0.82-2.63,1.42-4.52,1.99-6.42c0.27-0.91,1.07-2.25-0.09-2.67
			c-4.79-1.72-4.29-6.26-5.51-9.85c-2.57-7.55-5.2-15.06-8.66-22.27c-1.37-2.84-2.68-5.71-4.01-8.57c-1.24-2.68-3-5.17-3.65-9.27
			c12.21,11.63,19.08,25.21,24.32,40.6C968.65,786.1,958.65,769.08,948.29,751.91z M914.65,1001.5c0.1-11.15-3.06-21.62-4.91-32.56
			c-10.83,15-26.31,17.83-43.07,17.56c-1.54-0.03-2.43-0.92-3.35-1.88c-1.69-1.78-2.93-3.87-3.97-6.21
			c2.23,13.26,1.05,26.38,0.78,39.58c-0.39,19.45-0.62,38.91-1.75,58.32c-0.77,13.24-0.1,26.64-2.6,39.69
			c-2.67,13.95-3.02,28.06-4.28,42.11c-0.12,1.36-0.06,2.79,1.11,3.67c6.13,4.65,11.68,10.12,19.52,14.09
			c-1.71-5.7-2.88-10.64-3.32-15.71c-0.14-1.58-0.41-3.2,1.38-3.8c1.9-0.64,1.9,1.2,2.49,2.32c2.29,4.36,4.41,8.79,5.66,13.58
			c0.86,3.29,2.92,6.27,1.73,10.05c-1.23,3.9-0.52,4.55,3.86,5.19c0.99-6.18,1.16-12.17-1.43-18.29
			c-3.88-9.16-6.79-18.73-10.29-28.05c-0.94-2.51-0.41-4.45,1.67-5.54c2.08-1.08,3.26,0.84,4.31,2.37c3.94,5.78,7.39,11.8,9.31,18.6
			c0.39,1.4,0.29,3.18,2.68,4.16c-0.99-9.53-3.97-17.96-6.72-26.45c-2.36-7.27-4.71-14.55-6.89-21.87
			c-0.82-2.77-0.69-5.52,2.15-7.24c8,11.72,15.71,23.39,18.82,37.57c1.43-1.34,2.11-2.96,1.65-3.96c-1.38-3,0.02-4.71,1.57-7.17
			c1.85-2.94,2.63-6.49,1.24-10.42c-3.6-10.18-7.23-20.31-12.47-29.79c-2.2-3.99-3.15-8.38-4.26-12.72
			c-0.39-1.53-0.09-3.26,1.22-4.09c1.47-0.94,1.77,1.07,2.47,1.76c3.55,3.51,5.83,7.94,8.41,12.13c3.87,6.3,7.01,12.94,8.52,21.33
			c2.09-5.87,2.14-5.88,1.45-8.72c-3.69-15.22-7.82-30.28-15.32-44.18c-0.73-1.35-2.05-2.74-0.64-4.46
			c11.2,9.11,16.78,21.37,20.18,35.07c1.25-3.64,4.42-6.78,3.15-10.76c-2.99-9.33-5.54-18.81-9.69-27.78
			c-4.5-9.72-8.52-19.66-12.89-29.84c3.11-0.11,5.36,0.38,7.16,2.88c8.05,11.14,14.19,23.16,17.45,36.58
			c0.39,1.62-0.14,3.69,2.01,4.81c1.68-6,2.74-12.36,0.64-17.8c-3.34-8.63-8.21-16.69-12.71-24.84c-2.96-5.36-6.4-10.46-9.62-15.68
			c-0.53-0.87-1.06-1.85-0.19-2.71c0.87-0.87,1.89-0.3,2.76,0.17c3.98,2.17,6.95,5.55,10.36,8.42c2.61,2.19,3.01,6.13,7.67,8.33
			c-3.32-7.83-6.14-14.5-8.96-21.17c0.26-0.17,0.52-0.34,0.78-0.51C911.12,998.9,912.78,1000.13,914.65,1001.5z M1098.45,1110.64
			c1.48,1.76,0.67,2.84,0.38,3.91c-2.3,8.51-4.66,16.99-6.9,25.51c-1.35,5.13-1.37,10.62-3.72,15.46
			c-2.34,4.81-1.88,9.37,0.22,15.12c4.03-13.42,6.9-26.27,16.53-37.49c0.78,6.12-1.04,10.18-2.28,14.2
			c-2.57,8.38-4.29,17.22-9.81,24.35c-1.53,1.97-3.28,3.04-1.35,5.76c2.07,2.92,4.05,1.04,6.11,0.35
			c10.61-3.57,17.72-12.04,26.13-18.7c1.6-1.27,2.3-2.97,1.75-5.31c-4.44-19-6.98-38.25-7.19-57.77
			c-0.13-12.33,0.21-24.66-0.83-36.96c-1.33-15.75-3.04-31.48-3.22-47.3c-0.06-5.48,0.59-10.96,0.93-16.44
			c0.12-1.95,0.2-4.15-2.69-3.12c-5.2,1.87-10.24-0.08-15.18-0.72c-9.42-1.21-18.92-2.42-27.69-6.8c-2.49-1.24-7.09-1.86-7.69,2.18
			c-0.87,5.93-0.22,12.09-0.22,19.34c2.99-3.25,4.82-5.61,7.04-7.49c1.32-1.12,3.48-1.95,5.02-0.42c1.22,1.21,0.12,2.82-0.57,4.12
			c-2.12,3.97-4.34,7.87-7.38,11.24c-3.96,4.4-3.32,9.4-2.37,15.16c11.11-17.56,11.3-17.78,16.3-18.62
			c-7.79,14.3-15.41,28.53-14.5,45.36c1.88-4.1,3.33-8.34,4.87-12.54c1.21-3.29,2.65-6.51,4.89-9.21c1.02-1.23,2.69-2.35,4.43-1.52
			c1.94,0.93,0.77,2.71,0.41,3.98c-2.85,10.07-5.15,20.37-8.93,30.09c-3.93,10.08-1.41,19.68-0.1,29.58
			c1.82-5.29,2.99-10.68,4.41-16.01c2.14-8.03,4.16-16.13,8.21-23.49c0.59-1.06,0.89-2.82,2.79-1.99c1.51,0.66,0.8,1.98,0.67,3.07
			c-0.08,0.65-0.28,1.3-0.48,1.94c-3.39,10.97-6.76,21.93-9.12,33.19c-0.82,3.89-1.55,7.89-3.07,11.53
			c-2.16,5.18-1.27,14.11,2.61,18.54c0.12-0.94,0.21-1.76,0.32-2.58c1.71-12.47,6.91-23.54,13.77-33.9c0.92-1.39,2.31-3.57,4.2-2.46
			c1.5,0.88-0.19,2.69-0.67,4.01c-3.87,10.47-6.86,21.16-8.76,32.19c-0.93,5.38,0.21,11.52-4.99,15.64
			c-1.09,0.86-0.32,2.15,0.12,3.23c1.25,3.11,2.46,6.24,4.1,10.41C1086.99,1134.9,1091.96,1122.71,1098.45,1110.64z M952.58,521.16
			c0.2,0.43,0.39,0.87,0.59,1.3c1.5-0.56,2.98-1.16,4.5-1.66c7.1-2.35,14.19-4.76,21.33-6.96c3.32-1.02,6.63-0.24,9.64,1.31
			c3.17,1.63-0.02,3.76,0.25,5.64c0.09,0.64,0.33,1.29,0.63,1.87c2.2,4.15,2.41,8.65,1.93,13.13c-0.57,5.28-1.33,10.57-2.39,15.78
			c-2.91,14.39-7.31,28.18-16.87,39.77c-0.64,0.78-1.99,1.43-1.04,3.19c6.14-2.69,11.65-6.25,16.77-10.51
			c5.26-4.38,8.99-9.71,10.77-16.38c1.2-4.5,2.47-8.98,3.86-13.43c0.41-1.3,0.07-3.61,1.99-3.53c2.03,0.08,2.96,2.03,3.08,4
			c0.7,11.57-0.49,22.65-9,31.55c-3.39,3.54-7.07,6.8-10.62,10.19c10.22-5.8,20.81-11.24,23.37-24.37c1.4-7.18,2.84-14.35,4.37-21.5
			c0.29-1.38,0.51-3.28,2.42-3.34c1.59-0.05,1.87,1.69,2.45,2.82c2.6,5.03,3.38,10.37,2.71,15.98c-0.91,7.63-1.15,15.44-6.49,21.97
			c5.7-3.83,12.11-6.32,15.63-12.39c3.5-6.03,1.52-13.13,3.36-20.43c4.54,5.99,5.56,12.1,6.48,18.67c4.92-3.4,5.12-8.18,4.85-12.73
			c-1.1-18.44-9.69-34.28-18.05-50.14c-1.17-2.21-3.7-3.78-6-4.22c-10.15-1.95-19.76-5.72-30.5-5.94
			C975.02,500.45,963.51,509.82,952.58,521.16z M958.47,584.98c-3-2.05-5.42-4.7-7.99-7.18c-6.25-6.03-9.27-13.66-10.46-22.09
			c-0.22-1.55-0.31-3.74,1.57-4.37c1.73-0.58,2.47,1.45,3.25,2.55c6.21,8.73,12.81,17.01,22.88,21.64c1.22,0.56,2.51,2.69,3.74,0.82
			c0.89-1.35-1.19-2.04-2.14-2.86c-5.1-4.42-7.76-10.36-9.87-16.51c-0.72-2.11-0.68-4.73,2.04-6.06c2.59-1.26,3.51,0.87,4.8,2.32
			c2.32,2.61,4.59,5.29,7.04,7.77c3.73,3.78,4.44,3.64,5.68-1.74c2.4-10.37,4.9-20.71,5.19-31.46c0.11-4.08,0.03-5.4-4.62-3.34
			c-9.26,4.09-18.58,8.21-28.68,9.99c-3.17,0.56-6.03,0-7.95-2.83c-1.98-2.91-1.19-5.78,0.73-8.35c6.94-9.26,14.69-17.59,25.23-23
			c4.12-2.12,8.72-2.88,12.95-4.9c-1.06-1.96-2.73-1.73-4.12-1.87c-6.19-0.61-11.95-2.83-17.71-4.87
			c-4.73-1.68-9.07-1.51-13.56,0.38c-9.24,3.89-16.66,10.94-25.89,14.88c-1.95,0.83-3.58,2.59-4.13,4.8
			c-3.33,13.5-3.15,26.67,3.87,39.17c5.78,10.3,12.31,19.97,22.08,27C947.53,578.57,951.67,583.83,958.47,584.98z M796.38,577.11
			c-1.49,10.44-2.7,20.93-4.56,31.31c-1.86,10.34-3.47,20.82-8.68,30.32c5.63-32.29,9.24-64.76,11.52-97.41
			c-1.05,2.74-1.91,5.53-2.81,8.3c-2.07,6.37-2.86,12.95-3.21,19.59c-0.57,10.67-5.55,20.04-8.54,30
			c-4.87,16.22-8.78,32.73-13.09,49.11c-1.9,7.23-1.09,8.06,6.4,9.02c11.53,1.49,22.69,4.5,32.86,10.29
			c3.36,1.91,4.06,1.26,4.28-2.29c0.73-11.28,1.83-22.54,2.52-33.82c1.68-27.39,3.51-54.77,5.9-82.11
			c0.49-5.55,1.99-11.2,0.58-17.97c-0.5,3.03-0.81,4.96-1.15,6.88c-3.03,17.13-5.52,34.34-7.55,51.62
			c-1.41,12.02-2.88,24.04-4.99,35.95c-1.27,7.15-3.5,14.19-7.31,21.37C791.98,623.44,796.78,600.34,796.38,577.11z M767.42,517.93
			c-2.2,8.04-4.9,15.87-7.18,23.82c-8.23,28.73-16.47,57.49-29.33,84.64c-1.54,3.26-2.37,7.41-0.11,10
			c6.95,7.98,15.67,13.76,25.64,17.5c1.77,0.67,3.11,0.41,3.5-2.02c3.07-19.42,8.26-38.35,13.21-57.35
			c1.41-5.42,3.55-10.77,2.85-16.61c-1.26-10.46-1.02-20.91,0.12-31.37c0.41-3.73,0.55-7.49,0.81-11.23
			c-2.76,15.01-23.48,85.39-27.11,89.69c-0.66-4.5-1.52-8.72-1.15-13.02c1.03-11.98,3.89-23.6,7.05-35.16
			C761,557.45,767.66,538.36,767.42,517.93z M1165.92,523.53c0.85,5.18,1.57,10.39,2.56,15.55c3.01,15.62,6.84,31.1,7.13,47.14
			c0.03,1.81,0.1,3.71,0.63,5.42c5.71,18.35,11.55,36.66,17.22,55.02c0.54,1.76,0.73,2.66,2.87,1.83
			c10.36-4.05,21.14-6.8,31.79-9.95c2.41-0.71,3.3-1.43,2.41-4.1c-1.47-4.4-2.46-8.94-4.84-13.02c-9.4-16.15-16.92-33.11-22.09-51.1
			c-1.33-4.63-3.15-9.13-4.75-13.69c2.65,19.64,11.17,38.34,7.33,59.86c-6.36-8.75-8.34-18.19-11.88-27.04
			c1.54,13.44,5.53,26.72,0.98,40.38C1181.86,595.43,1178.34,558.38,1165.92,523.53z M1048.13,629.64
			c-1.71,11.42-3.8,22.79-5.06,34.26c-2.22,20.14-0.35,40.58-4.15,60.62c-0.44,2.35,0.92,2.74,2.64,3.28
			c7.29,2.29,14.09,0.83,20.78-2.33c2.38-1.12,2.81-2.67,2.56-5.17c-2.4-24.39-2.25-48.89-2.85-73.35
			c-0.09-3.65-0.93-7.94,0.63-10.83c2.94-5.45-0.76-8.69-1.97-12.78c-4.18,29.11,0.29,58.66-5.61,87.62
			C1046.87,684.31,1048.3,656.98,1048.13,629.64z M1006.32,682.87c-3.24,12.26-3.59,24.55-3.99,36.84c-0.1,3.02,1.09,4.11,4.15,3.88
			c8.84-0.65,17.61-0.02,26.21,2.25c3.75,0.99,4.64-0.21,3.69-3.92c-4.85-18.87-5.49-38.11-4.72-57.47
			c0.14-3.59,1.26-7.24-0.21-12.26c-3.08,17.67-6.29,33.88-7.57,50.39c-0.35,4.52-1.52,8.82-4.04,12.69
			c-1.38,2.13-2.51,2.46-3.75-0.16c-1.96-4.15-2.51-8.54-2.83-13.05c-0.59-8.49,0.79-16.91,1.24-26.3
			c-3.04,3.91-3.28,8.21-6.21,10.87C1006.52,685.8,1007.85,683.92,1006.32,682.87z M1149.72,595.06c-0.42,0.62-0.73,0.87-0.71,1.08
			c1.87,19.53,0.46,39.17,1.8,58.72c0.18,2.58,1.34,3.01,3.49,2.89c7.38-0.41,14.43-1.87,20.95-5.6c2.63-1.5,3.24-2.84,2.08-5.93
			c-4.6-12.29-8.74-24.76-13.19-37.11c-0.82-2.29-0.46-5.16-3.31-7.38c0.7,6.25,1.65,11.82,1.85,17.41
			c0.2,5.6-0.15,11.27-2.43,17.42C1153.92,622.88,1151.96,609.11,1149.72,595.06z M1118.08,582.32c-0.51-0.01-1.01-0.02-1.52-0.03
			c0,5.3,0.11,10.61-0.03,15.9c-0.24,9.11-1.4,18.18,0,27.34c2.95,19.31,6.51,38.59,4.68,58.3c-0.26,2.83,0.67,3.34,3.41,2.29
			c10.95-4.21,10.99-4.13,9.61-15.71c-0.16-1.32-0.33-2.64-0.62-3.93C1127.21,638.66,1120.43,610.91,1118.08,582.32z
			 M1076.58,579.54c0.67-21.24,0.31-42.04-0.26-62.82c-0.65-23.61,1.65-47.28-1.26-70.84c-0.92-7.49-1.98-14.96-2.98-22.44
			c-1.16,8.09-1.27,16.04-0.64,24.01c2.6,32.97-0.86,66.1,2.56,99.03C1075.14,557.4,1074.06,568.46,1076.58,579.54z M988.34,674.72
			c-0.65,3.35-1.38,6.7-1.93,10.06c-2.17,13.1-4.31,26.2-6.41,39.31c-0.18,1.12-0.99,2.67,1.51,2.61
			c8.61-0.2,11.14-2.68,11.14-11.25c0-2.66,0.03-5.33-0.01-7.99c-0.01-0.78,0.36-2.18-0.52-2.2c-6.03-0.14-3.68-4.94-3.85-7.59
			C987.76,690.09,988.34,682.46,988.34,674.72z M1099.89,573.91c0.73,13.76,0.76,27.52,0.74,41.28
			c-0.01,10.52,1.86,20.84,3.98,31.04c2.45,11.76,4.79,23.43,3.9,35.54c-0.35,4.83-1.06,9.7-0.26,16c2.51-3.64,6.94-4.11,5.79-8.97
			c-2.5-10.54-3.33-21.34-4.82-32.05c-1.23-8.86-3.82-17.53-5.01-26.4c-1.97-14.69-1.27-29.56-2.09-44.33
			C1101.88,581.9,1101.4,577.85,1099.89,573.91z M870.45,387.3c10.9-36.52,17.71-74.18,29.26-110.59
			C886.78,312.7,875.62,349.17,870.45,387.3z M1069.11,721.22c2.43,0.55,3.93-0.74,5.64-1.17c4.75-1.19,6.47-3.82,4.84-8.74
			c-0.93-2.8-0.91-5.89-1.54-8.8c-1.82-8.48-1.05-17.32-3.95-25.74C1073.81,691.76,1072.47,706.59,1069.11,721.22z M934.61,374.81
			c-5.71,28.39-8.66,56.49-12.4,84.48C926.88,431.44,935.76,404.21,934.61,374.81z M1030.66,335.61
			c-3.71,21.22-6.91,42.43-0.09,63.62C1029.07,378.03,1030.84,356.81,1030.66,335.61z M966.25,695.08
			c-1.35,9.97-2.73,19.94-4.01,29.92c-0.18,1.38-1.7,3.55,1.14,3.89c2.39,0.29,2.91-1.5,3.11-3.55
			C967.45,715.23,967.1,705.12,966.25,695.08z M1019.16,741.55c-4.64,0-9.3,0.23-13.92-0.08c-3.08-0.21-3.64,0.64-2.36,3.25
			c0.58,1.18,1.24,2.35,1.62,3.6c0.82,2.7,2.02,3.12,4.1,1.09C1011.69,746.38,1015.53,744.45,1019.16,741.55z M919.96,716.2
			c0-9.08,0-18.09,0-27.78c-1.14,1.74-3.52,24.16-3,25.78C917.4,715.59,918.42,716.33,919.96,716.2z M990.75,450.52
			c-1.62,7.89,0.78,38.22,3.6,43.07C993.12,478.92,991.97,465.15,990.75,450.52z M1101.6,683.3c-1.34,6.72-1.39,13.45-2.78,20.72
			c3.93-1.67,6.08-3.45,5.12-7.65C1102.95,692.06,1102.37,687.66,1101.6,683.3z M900.28,671.21c2.11-10.2,2.76-20.51,2.39-30.9
			C900.48,650.51,900.7,660.88,900.28,671.21z M1142.88,524.17c-0.4,0.08-0.8,0.16-1.2,0.24c1.21,11.72,2.41,23.45,3.62,35.17
			C1146.06,547.64,1144.23,535.93,1142.88,524.17z M955.84,464.04c-0.39-0.01-0.78-0.01-1.17-0.02c0,5.79-0.01,11.57,0.01,17.36
			c0,1.11-0.38,2.66,1.27,2.73c1.91,0.08,1.85-1.59,1.72-2.9C957.1,475.49,956.46,469.77,955.84,464.04z M1191.89,1239.62
			c-4-3.06-7.67-5.04-12.05-5.44C1183.3,1236.65,1186.05,1240.68,1191.89,1239.62z M1092.48,692.04
			c-0.21,5.88-1.02,11.69-1.77,17.51C1094.82,704.1,1092.77,697.98,1092.48,692.04z M954.47,718.14c-0.14-0.01-0.28-0.02-0.42-0.03
			c-0.16,3.03-0.36,6.06-0.46,9.1c-0.03,1.03-0.66,2.65,1.2,2.63c2.2-0.03,1.46-1.82,1.29-2.98
			C955.63,723.94,955.02,721.05,954.47,718.14z M932.19,725.71c0.62-0.01,1.24-0.02,1.85-0.03c0.15-4.31,0.3-8.62-1.26-12.89
			C932.59,717.11,932.39,721.41,932.19,725.71z M946.42,719.23c-1.92,6.41-1.92,6.54-0.05,9.47
			C947.42,725.42,946.82,722.36,946.42,719.23z"/>
		<path d="M1042.79,89.33c3.92-3.34,7.88-1.44,11.9-0.76c13.45,2.28,26.47,6.35,39.86,8.99c13.39,2.64,24.36,10.25,32.54,21.57
			c5.79,8.02,5.6,11.43,0.9,19.86c-13.11,23.51-36.63,29.22-59.73,35.81c-0.93,0.27-2.03,0.29-2.98,0.09
			c-4.06-0.86-6.71,0.18-8.17,4.49c-0.86,2.54-3.34,4.9-6.18,3.93c-3.76-1.28-5.83-5.13-6.41-8.65c-1.3-7.8,0.3-15.61,2.32-23.14
			c1.03-3.85,4.21-6.45,8.57-6.49c3.93-0.03,3.06-2.57,2.83-4.85c-0.39-3.86-2.38-0.85-3.75-0.99c-3.17-0.31-5.5,2.42-5.65,3.88
			c-0.54,5.43-5.08,4.73-8.09,6.34c-1.61,0.86-3.27,1.64-4.94,2.36c-4.62,1.98-9.26,3.21-6.44,10.54c1.52,3.95-1.99,7.6-6.48,8.53
			c-11.84,2.48-23.67,2.36-35.43-0.66c-4.01-1.03-5.49-3.99-6.14-7.63c-0.59-3.27-1.05-6.56-1.68-10.54
			c-3.92,4.82-8.51,1.9-12.59,1.51c-3.08-0.29-2.19-3.22-0.36-4.87c2.8-2.51,6.31-3.19,9.83-2.24c3.82,1.03,5-1.2,5.12-4.02
			c0.39-8.86,4.45-12.84,14.1-12.87c3.63-0.01,6.92-0.7,9.91-2.72c1.55-1.04,3.35-2.33,5.05-1.33c2.14,1.27-0.64,3.3,0.37,5.37
			c2.77-1.07,5.25-2,7.58,1.95c1.64,2.78,0.73,3.06-1.13,3.66c-1.52,0.49-3.65,1.28-4.73,0.63c-4.65-2.81-8.45-0.85-12.92,0.69
			c-4.13,1.42-8.23,2.96-12.44,4.35c5.39,0.75,10.55-0.97,15.88-0.72c5.61,0.26,10.73,1.84,15.73,4.06
			c2.87,1.28,2.87,3.81,1.03,5.69c-6.55,6.7-19.51,10.67-28.36,5.23c-2.17-1.33-4.86-2.88-2.64-6.24c1.08-1.63,1.03-2.76-1.13-3.25
			c-2.04-0.46-3.74-0.27-4,2.25c-0.29,2.88,1.1,5.54,1.39,8.29c0.63,5.99,3.88,7.45,9.4,7.28c7.8-0.24,15.62,0.33,23.44,0.35
			c5.83,0.01,6.66-1.25,7.23-7.04c0.32-3.26-2.06-6.43-0.22-9.68c2.66,0.18,1.87,2.94,3.26,3.95c2.31-1.7,4.37-3.9,6.91-4.93
			c5.65-2.31,6.62-5.96,4.72-11.33c-1.71-4.8-3.46-9.55-4.46-14.67c-0.98-4.98-5.68-7.33-11.02-7.45
			c-20.88-0.45-41.75-2.14-62.66-1.01c-4.45,0.24-8.94,0.58-13.27,1.89c-8.37,2.53-17.18,0.81-25.65,2.62
			c-6.75,1.45-10.92,6.3-9.89,13.17c0.66,4.43,1.19,9.47,6.4,11.66c0.91,0.38,1.15,1.23,0.91,2.07c-1.14,4.03,0.86,7.92,0.54,11.87
			c-0.22,2.67,0.76,3.5,3.27,3.7c9.99,0.81,19.96,0.18,29.93-0.16c2.47-0.08,5.1-0.6,5.09-4.48c-2.47-0.23-4.35,1.38-6.32,2.15
			c-6.63,2.57-12.8,0.82-18.85-1.6c-2.74-1.1-5.24-2.93-1.37-6.1c1.12-0.92,3.09-2.25,2.36-4.02c-0.59-1.43-2.67-0.72-4.07-1.01
			c-1.81-0.38-3.54-0.85-5.37-2.38c5.51-3.18,12-1.97,17.58-4.41c-3.21-3.49-6.67-3.47-10.17-1.48c-2.49,1.41-5.04,1.08-6.06-1.04
			c-0.89-1.85,0.03-4.43,2.76-5.28c0.45-0.14,1.14-0.4,1.23-0.74c2.06-7.52,6.27-5.69,11.25-3c3.21,1.73,7.01,1.66,10.75,1.52
			c5.58-0.21,7.71,1.92,7.31,6.88c-0.24,2.95-0.51,6.08-5.01,3.4c-1.38-0.82-3.49-0.41-5.48-0.58c2.12,4,6.38,4.19,9.39,6.29
			c5.3,3.69,6.75,15.23,1.83,19.32c-1.82,1.51-4.81,1.73-7.33,2.27c-10.54,2.25-21.13,1.48-31.73,0.39
			c-3.74-0.38-4.95-2.92-5.72-5.97c-0.65-2.58-1.27-5.17-1.15-7.88c0.04-0.89,0.42-2.22-1.02-2.36c-1.07-0.1-1.87,0.69-2.13,1.75
			c-0.72,2.9-2.48,4.17-5.46,4.88c-2.9,0.69-4.53,2.92-3.76,6.49c0.68,3.13,1.1,6.41,3.21,8.8c2.62,2.97,0.26,4.98-0.91,7.09
			c-1.01,1.82-2.72,0.61-3.1-0.49c-1.34-3.85-4.49-3.45-7.56-4.2c-7.41-1.81-14.76-4-21.95-6.54c-9.39-3.31-18.52-7.37-27.94-10.63
			c-8.18-2.83-12.13-9.14-12.9-16.76c-0.82-8.12,3.87-14.11,11.25-17.8c15.29-7.66,30.16-16.34,46.65-21.25
			c8.11-2.42,15.86-6.03,24.29-7.34c1.81-0.28,2.58-1.2,2.45-3.04c-0.37-5.46,0.77-10.98-0.74-16.41c-0.48-1.74-0.95-4.07,0.75-5.15
			c4.35-2.75,4-7.23,4.64-11.3c2.21-13.97,4.24-27.96,6.44-41.93c0.25-1.59,1.17-3.08,1.79-4.61c0.38-0.95,2.25-1.71-0.23-2.78
			c-1.72-0.75-0.09-1.88,0.67-2.64c2.29-2.3,5.23-3.48,8.2-4.6c21.5-8.06,43.42-8.61,65.7-3.88c6.79,1.44,13.88,1.1,20.5,3.81
			c2.7,1.1,3.94,2.31,3.9,5.33c-0.2,16.84,4.22,32.93,8.32,49.06c0.76,3,2.48,5.09,5.43,5.98c3.03,0.92,3.74,2.84,3.08,5.75
			c-1.15,5.08-1.09,10.25,0.1,15.28C1045.37,85.26,1043.58,86.81,1042.79,89.33z M958.69,89.63c-2.71-2.48-3.45-5.55-3.57-9.01
			c-0.15-4.13-0.49-8.3-1.24-12.36c-0.83-4.48,0.89-6.82,5.18-7.2c11.35-1.01,22.62-3.4,34.02-2.95c3.92,0.16,10.48-1.03,10.38,6.67
			c-0.01,0.48,0.69,1.16,1.23,1.44c4.36,2.32,3.96,6.72,2.33,9.54c-2.2,3.82-2.75,7.77-3.76,12.3c2.27-0.3,4.46,0.52,7.11-0.76
			c-2.53-3.11-1.99-6.37-1.51-9.71c0.86-5.93,0.98-11.89,0.27-17.87c-0.33-2.75-1.19-4.63-4.29-3.95
			c-5.84,1.28-11.79,0.48-17.68,1.05c-5.41,0.52-10.87,1.87-16.34,0.89c-7.21-1.29-14.08,2.09-21.23,1.33
			c-0.58-0.06-1.59,0.16-1.75,0.54c-3.25,7.39-9.86,8.94-16.86,10.43c-2.15,0.46-6.13,0.81-5.94,5.39
			c4.25-2.51,8.39-4.29,12.72-5.39c3.61-0.92,7.76-0.53,8.65-6.31c3.42,6.56,2.77,13.29,6.28,18.71c0.93,1.44,0.09,3.16-1.04,4.58
			c-0.95,1.19-2.64,2-2.52,4.02C952.41,91.33,955.46,90.76,958.69,89.63z M1058.43,160.93c0.11-3-0.18-5.96-1.49-8.71
			c-0.69-1.45-1.9-2.46-3.6-1.83c-1.61,0.59-1.49,1.95-1,3.33c0.5,1.4,1.29,3.04-0.4,4.01c-2.62,1.52-2.17,3.92-2.04,6.16
			c0.16,2.96,0.6,5.91,0.98,8.85c0.15,1.19-0.81,2.95,1.08,3.36c1.98,0.43,2.9-1.06,3.64-2.66
			C1057.44,169.48,1058.52,165.34,1058.43,160.93z M1055.17,123.74c-2.89-2.22-5.06-0.89-7.3,0.27c-1.23,0.63-2.39,2.42-3.93,1.22
			c-1.23-0.97-0.15-2.48,0.07-3.73c0.12-0.65,0.53-1.29,0.48-1.91c-0.14-1.55-1.49-1.56-2.62-1.72c-0.84-0.12-2.07-0.01-1.75,1.03
			c1.12,3.62,0.36,7.65,2.56,11.03c0.83,1.28,1.61,0.83,2.45,0.3C1048.44,128.14,1051.72,125.99,1055.17,123.74z M907.02,140.69
			c-1.66,1.96-4.97,0.67-4.98,3.3c-0.01,3.02,2.47,4.98,4.91,6.2c1.19,0.59,3.24-0.73,2.9-2.37
			C909.37,145.46,908.09,143.26,907.02,140.69z M1056.5,130.4c-0.06-1.96-0.79-2.36-2.19-1.53c-2.82,1.67-5.61,3.41-8.49,5
			c-1.88,1.04-1.45,2.53-0.66,3.74c1.4,2.14,2.47,0.24,3.4-0.64c2.11-2.01,3.6-4.74,6.8-5.42
			C1055.87,131.43,1056.23,130.69,1056.5,130.4z M1013.73,148.7c-3.92,0.47-9.42-1.88-10.26,5.37
			C1007.87,153.8,1011.06,151.87,1013.73,148.7z M999.38,154.65c-1.64-3.11,0.39-6.65-3.84-6.67c-1.58-0.01-4.1,0-3.9,2
			C992.01,153.61,995.69,152.91,999.38,154.65z M940.25,153.11c1.13-0.36,3.45,0.9,2.84-1.81c-0.27-1.18,0.68-3.67-1.49-3.38
			c-1.96,0.26-4.22,1.79-4.48,3.94C936.91,153.61,939.12,152.72,940.25,153.11z M995.02,72.39c-0.05-0.41-0.1-0.82-0.15-1.22
			c-3.89,0.65-8.08-0.23-11.48,3.13C987.27,73.66,991.14,73.03,995.02,72.39z M1029.95,67.93c-3.31-2.23-6.71-2.62-10.05,0
			C1023.25,67.93,1026.6,67.93,1029.95,67.93z M948.28,151.95c2.67-1.55,5.17-2.18,6.11-5.28
			C950.94,146.69,948.68,147.54,948.28,151.95z"/>
		<path d="M950.52,213.31c2.28-2.91,5.48-3.31,8.89-3.47c2.46-0.11,4.46-0.07,3.15-4.25c-1.41-4.5-2.82-9.61-0.07-14.52
			c1.28-2.29-1.17-3.19-2.5-4.14c-4.97-3.52-5.77-7.31-2.01-12.02c3.37-4.23,7.03-8.22,9.38-13.22c-0.13,5.07-3.37,8.86-5.25,13.18
			c-1.99,4.57,0.75,10.78,5.51,11.48c2.36,0.35,3.78-1.79,5.4-3.12c5.64-4.62,10.32-5.23,16.36-1.89
			c-4.34,4.2-10.46,5.82-14.41,10.45c-1.31,1.53-2.73-0.18-4.08-0.53c-0.91-0.24-1.83-1.1-2.71-0.1c-0.77,0.88-0.43,1.92,0.03,2.81
			c2.1,4,1.53,8.06,0.04,12c-0.92,2.44-0.71,3.49,2.15,2.91c1.47-0.3,2.95-0.53,4.43-0.75c7.69-1.14,8.12-1.84,5.38-9.3
			c-0.51-1.4-1.41-2.67-1.81-4.09c-0.56-1.99-0.73-4.15,1.78-4.99c2.41-0.8,4.95-1.39,6.48,1.63c2.02,3.98,3.05,8.14,1.5,12.48
			c-1.07,3-0.98,4.56,2.91,4.39c1.71-0.08,4.95-1.75,5.02,1.95c0.06,3.1-2.73,4.01-5.25,4.31c-7.84,0.93-15.94-0.31-23.55,2.43
			c-3.64,1.31-7.2,0.43-10.78,0.41C953.96,217.33,952.2,215.21,950.52,213.31z"/>
		<path d="M999.95,197.35c-0.02,0.33-0.01,0.67-0.07,0.99c-0.49,3.08-0.68,7.4-4.03,7.66c-3.38,0.25-3.46-4.09-4.23-6.89
			c-0.57-2.07-1.4-4.07-1.95-6.15c-0.43-1.63-1.87-3.55,0.38-4.85c2-1.15,4.1-0.99,5.98,0.53
			C998.83,190.88,1000.16,193.77,999.95,197.35z"/>
		<path d="M936.95,202.27c0-5.11,1.52-8.84,4.92-11.66c0.84-0.7,2.08-1.51,3.16-0.77c1.2,0.82,0.66,2.14,0.05,3.12
			c-1.41,2.25-1.24,4.73-1.31,7.21c-0.05,1.63-0.11,3.34-0.61,4.87c-0.54,1.66-1.18,3.91-3.4,3.7c-2.21-0.21-2.33-2.47-2.64-4.23
			C936.94,203.53,936.97,202.53,936.95,202.27z"/>
		<path d="M915.49,179.4c-1.82,0.13-2.1,3.71-4.35,2.27c-1.91-1.23-2.25-3.56-2.22-5.81c0.02-2.26,0.9-4.22,2.13-6.01
			c1.46-2.12,3.64-4.5,6.03-3.32c2.25,1.12,0.16,3.84-0.2,5.84c-0.43,2.39-2.07,4.53-1.47,7.13L915.49,179.4z"/>
		<path d="M952.16,188.78c1.74-0.24,2.18,0.72,1.62,1.74c-2.58,4.7-3.48,9.93-4.93,14.98c-0.26,0.91-0.58,2.02-1.85,1.97
			c-0.98-0.04-1.29-0.95-1.59-1.7c-1.64-4.09,1.52-14.03,5.17-16.3C951.13,189.13,951.78,188.95,952.16,188.78z"/>
		<path d="M1010.56,198.11c-0.22,1.14-0.34,2.12-0.61,3.07c-0.44,1.61-1.07,3.68-2.88,3.54c-1.91-0.15-1.95-2.26-1.97-3.95
			c-0.03-2.88-1.09-5.44-2.46-7.94c-0.73-1.34-0.68-3.21,0.5-4.02c1.05-0.72,2.4,0.4,3.45,1.28
			C1009.15,192.25,1010.59,194.87,1010.56,198.11z"/>
		<path d="M960.08,191.03c-2.14,4.25-0.72,9.11-2.55,13.24c-0.38,0.86-0.8,2.86-2.53,2.32c-1.36-0.42-1.79-1.73-1.67-3.22
			C953.72,198.34,955.25,193.9,960.08,191.03z"/>
		<path d="M974.54,224.64c-0.83-0.28-1.94-0.59-3-1.01c-1.05-0.42-2.54-0.78-2.3-2.15c0.12-0.71,1.34-1.52,2.21-1.75
			c2.23-0.6,4.52-1.04,6.81-1.29c1.37-0.15,3.3-0.61,3.67,1.46c0.34,1.93-0.98,3.06-2.75,3.58
			C977.75,223.89,976.29,224.21,974.54,224.64z"/>
		<path d="M971.53,196.12c0,0.03-0.02-0.81,0.85-1.29c0.91-0.5,1.5,0.13,2.15,0.64c2.86,2.24,4.59,4.77,2.16,8.36
			c-0.59,0.87-0.69,2.46-2.24,2.15c-1.35-0.27-1.5-1.67-1.73-2.74C972.27,201.16,972.01,199.05,971.53,196.12z"/>
		<path d="M915.41,179.5c1.39,5.72-1.41,10.4-3.59,15.23c-1.9-5.87,1.96-10.3,3.65-15.3C915.49,179.4,915.41,179.5,915.41,179.5z"/>
		<path d="M1103.78,757.29c1.62,0.28,4.24-0.32,4.19,2.17c-0.05,2.45-1.56,4.78-4.13,5.73c-4.43,1.63-8.59-0.35-12.42-1.93
			c-2.4-0.99-0.79-3.16,1.08-3.87C1096.08,758.05,1099.9,757.7,1103.78,757.29z"/>
		<path d="M1115.84,813.01c-1.62,1.91-1.81,5.49-5.17,6.29c-1.76,0.42-5.37-4.7-5.16-7.06c0.29-3.19,2.68-3.93,5.25-4.04
			C1113.03,808.1,1115.99,810.86,1115.84,813.01z"/>
		<path d="M887.93,1102.15c5.31,8.75,9.01,18.05,10.42,28.09c-0.61,0.2-1.21,0.41-1.82,0.61
			C893.67,1121.29,890.8,1111.72,887.93,1102.15z"/>
	</g>
</g>
</svg>
